<svg viewBox="0 0 682 908" xmlns="http://www.w3.org/2000/svg"><defs><linearGradient x1="50.417%" y1="99.152%" x2="53.39%" y2="0%" id="linearGradient-1"><stop stop-color="#74CB32" offset="0%"></stop><stop stop-color="#ABEB6B" offset="100%"></stop></linearGradient></defs><g fill="none" fill-rule="evenodd"><path d="M338.643 243.604a45.274 45.274 0 00-17.324 4.412L84.916 361.69a45.136 45.136 0 00-24.46 30.608L2.137 647.64a45.051 45.051 0 006.137 34.596 45.123 45.123 0 002.57 3.59L174.471 890.57a45.25 45.25 0 0035.344 16.977l262.403-.061a45.239 45.239 0 0035.344-16.948l163.567-204.771a45.057 45.057 0 008.738-38.185L621.455 392.24a45.137 45.137 0 00-24.46-30.61L360.563 248.016a45.278 45.278 0 00-21.92-4.412z" stroke="#FFF" stroke-width=".5" fill="#326CE5" fill-rule="nonzero" opacity=".532"></path><path d="M341.33 551v-29" stroke="#333" stroke-width="8" stroke-linecap="square"></path><g transform="translate(256.000000, 344.545613)"><rect fill="#FFF" width="171" height="177" rx="35"></rect><path d="M42.872 106l-6.244-9.748-2.336 2.336V106h-6.49V71.5h6.49v19.114l1.258-1.617 6.222-7.3h7.794l-8.782 10.13L50.329 106h-7.457z" fill="#F4B747"></path><path d="M53.07 81.697h6.11l.202 2.808q2.605-3.257 6.985-3.257 3.864 0 5.75 2.269 1.887 2.268 1.932 6.783V106h-6.491V90.457q0-2.066-.899-2.999-.898-.932-2.987-.932-2.74 0-4.11 2.336V106H53.07V81.697zm23.887 12.219v-.292q0-3.616 1.393-6.446 1.392-2.83 4.009-4.38 2.617-1.55 6.076-1.55 4.919 0 8.03 3.01 3.11 3.01 3.47 8.176l.045 1.662q0 5.592-3.122 8.973-3.123 3.38-8.378 3.38-5.256 0-8.39-3.369-3.133-3.37-3.133-9.164zm6.491.18q0 3.459 1.303 5.29 1.303 1.83 3.729 1.83 2.358 0 3.683-1.808 1.325-1.808 1.325-5.784 0-3.392-1.325-5.256-1.325-1.864-3.728-1.864-2.381 0-3.684 1.853-1.303 1.853-1.303 5.739zm20.81-18.373h6.491v5.974h4.155v4.762h-4.155v12.129q0 1.348.517 1.932.516.584 1.976.584 1.078 0 1.91-.158v4.92q-1.91.583-3.931.583-6.828 0-6.963-6.895V86.459h-3.549v-4.762h3.549v-5.974zm28.709 30.727q-5.346 0-8.704-3.28-3.358-3.28-3.358-8.737v-.63q0-3.66 1.415-6.547 1.415-2.886 4.01-4.447 2.594-1.561 5.918-1.561 4.986 0 7.85 3.145 2.864 3.144 2.864 8.917v2.65h-15.476q.315 2.38 1.898 3.818 1.584 1.438 4.01 1.438 3.75 0 5.862-2.718l3.19 3.571q-1.46 2.067-3.954 3.223-2.493 1.157-5.525 1.157zm-.742-19.946q-1.931 0-3.133 1.303-1.201 1.302-1.538 3.728h9.029v-.516q-.045-2.157-1.168-3.336-1.123-1.18-3.19-1.18z" fill="#000"></path></g><g transform="translate(381.000000, 607.000000)"><rect fill="#FFF" width="171" height="177" rx="35"></rect><g transform="translate(57.000000, 29.000000)" fill-rule="nonzero"><path d="M42.61 5.245l14.152 23.142a.26.26 0 010 .309.265.265 0 01-.37 0L38.125 9.585l4.483-4.34z" fill="#F05A28"></path><path d="M11.362 67.495a62.938 62.938 0 0112.467-17.712A63.77 63.77 0 0130 44.31v13.517l-18.638 9.668zM.562 79.982l29.48-15.018v34.312L36.687 108V61.55l4.113-2.06a19.997 19.997 0 005.493-31.639L31.072 11.99a3.375 3.375 0 01.165-4.732 3.392 3.392 0 014.773.165l2.058 2.223 4.546-4.36C37.244-1.688 30.66-.887 26.831 2.672a9.67 9.67 0 00-.412 13.66l15.306 15.944a13.69 13.69 0 013.57 11.262 13.69 13.69 0 01-6.533 9.845l-2.059 1.07V32.77A69.407 69.407 0 00.58 79.982H.562z" fill="#010000"></path></g><path d="M56.27 151.327h3.828l3.652 10.313 3.633-10.313h3.847v14.219h-2.939v-3.887l.293-6.709-3.838 10.596h-2.012l-3.828-10.586.293 6.7v3.886h-2.93v-14.219zm20.634 0v14.219h-2.93v-14.219h2.93zm14.278 0v14.219h-2.93l-5.703-9.355v9.355h-2.93v-14.219h2.93l5.713 9.375v-9.375h2.92zm5.673 0v14.219h-2.93v-14.219h2.93zm14.395 6.797v.635q0 2.1-.742 3.682-.742 1.582-2.124 2.44-1.382.86-3.17.86-1.767 0-3.153-.85-1.387-.849-2.149-2.426-.762-1.577-.771-3.628v-.703q0-2.1.756-3.696.757-1.597 2.14-2.452 1.381-.854 3.158-.854 1.778 0 3.16.854 1.381.855 2.138 2.452.757 1.596.757 3.686zm-2.969.684v-.694q0-2.236-.8-3.398-.801-1.162-2.286-1.162-1.474 0-2.275 1.147-.8 1.148-.81 3.365v.693q0 2.178.8 3.379t2.305 1.201q1.474 0 2.265-1.157.791-1.157.801-3.374z" fill="#333"></path></g><g transform="translate(131.000000, 606.545613)"><rect fill="#FFF" width="171" height="177" rx="35"></rect><g transform="translate(38.000000, 35.000000)" fill-rule="nonzero"><circle fill="url(#linearGradient-1)" cx="47.5" cy="47.5" r="47.5"></circle><path d="M61.594 18.79s-4.627 4.462-9.63 6.262c-37.059 13.324-21.43 39.287-20.92 39.373 0 0 2.078-3.597 4.885-5.648 17.813-13.017 21.433-28 21.433-28s-3.997 18.03-19.844 29.248c-3.5 2.476-5.87 8.574-6.873 14.668 0 0 2.48-.996 3.548-1.266.416-2.7 1.286-5.284 2.757-7.592C59.098 68.457 66.352 50.717 67.3 44.53c2.235-14.61-5.706-25.74-5.706-25.74" fill="#283D16"></path></g><path d="M30.27 151.781h3.828l3.652 10.313 3.633-10.313h3.847V166h-2.939v-3.887l.293-6.709L38.746 166h-2.012l-3.828-10.586.293 6.7V166h-2.93v-14.219zm29.199 6.797v.635q0 2.1-.742 3.682-.743 1.582-2.124 2.44-1.382.86-3.17.86-1.767 0-3.154-.85-1.386-.849-2.148-2.426-.762-1.577-.772-3.628v-.703q0-2.1.757-3.696.757-1.597 2.139-2.452 1.382-.854 3.16-.854 1.776 0 3.158.854 1.382.855 2.139 2.452.757 1.596.757 3.686zm-2.969.684v-.694q0-2.236-.8-3.398-.802-1.162-2.286-1.162-1.475 0-2.275 1.147-.801 1.148-.81 3.365v.693q0 2.178.8 3.379t2.305 1.201q1.474 0 2.265-1.157.791-1.157.801-3.374zm16.66-7.48V166h-2.93l-5.703-9.355V166h-2.93v-14.219h2.93l5.713 9.375v-9.375h2.92zm13.809 6.747v5.674q-.791.947-2.237 1.47-1.445.522-3.203.522-1.845 0-3.237-.805-1.392-.806-2.148-2.34-.757-1.532-.777-3.603v-.967q0-2.128.718-3.686.718-1.558 2.07-2.383 1.353-.825 3.17-.825 2.529 0 3.954 1.206 1.426 1.206 1.69 3.51h-2.852q-.195-1.22-.864-1.786-.669-.567-1.84-.567-1.495 0-2.276 1.123-.782 1.123-.791 3.34v.908q0 2.237.85 3.38.849 1.142 2.49 1.142 1.65 0 2.353-.703v-2.452h-2.666v-2.158h5.596zm14.052.05v.634q0 2.1-.742 3.682-.742 1.582-2.124 2.44-1.382.86-3.169.86-1.767 0-3.154-.85-1.387-.849-2.148-2.426-.762-1.577-.772-3.628v-.703q0-2.1.757-3.696.757-1.597 2.139-2.452 1.381-.854 3.159-.854 1.777 0 3.159.854 1.382.855 2.139 2.452.756 1.596.756 3.686zm-2.968.683v-.694q0-2.236-.801-3.398-.8-1.162-2.285-1.162-1.475 0-2.276 1.147-.8 1.148-.81 3.365v.693q0 2.178.8 3.379.801 1.201 2.305 1.201 1.475 0 2.266-1.157.791-1.157.8-3.374zM112.535 166h-4.404v-14.219h4.375q1.875 0 3.354.845 1.48.845 2.31 2.402.83 1.558.83 3.54v.655q0 1.982-.815 3.525-.816 1.543-2.3 2.393-1.485.85-3.35.859zm-.03-11.846h-1.444v9.492h1.416q1.718 0 2.627-1.123.908-1.123.927-3.212v-.752q0-2.168-.898-3.287-.899-1.118-2.627-1.118zM126.657 166h-5.527v-14.219h4.98q2.588 0 3.926.991 1.338.992 1.338 2.906 0 1.045-.537 1.84-.537.796-1.494 1.168 1.094.273 1.723 1.103.63.83.63 2.031 0 2.051-1.308 3.106-1.309 1.054-3.73 1.074zm.088-6.191h-2.685v3.837h2.51q1.035 0 1.616-.493.58-.493.58-1.362 0-1.953-2.02-1.982zm-2.685-5.655v3.584h2.168q2.216-.039 2.216-1.767 0-.967-.561-1.392-.562-.425-1.773-.425h-2.05z" fill="#333"></path></g><path d="M216 590v-33.614" stroke="#333" stroke-width="8" fill="#333" stroke-linecap="square"></path><path d="M467 590v-33.614" stroke="#333" stroke-width="8" stroke-linecap="square"></path><path d="M216 556.5h125.611m.389 0h125" stroke="#333" stroke-width="8" fill="#333" stroke-linecap="square"></path><path fill="#333" d="M341.5 344.325l23.5-34.78h-47zM467 606.545l11-17h-22zm-251 0l11-17h-22z"></path><g transform="translate(212.000000, 1.000000)"><path d="M0 .546h260v172H0z"></path><g transform="translate(0.000000, -0.454387)"><path d="M0 172.47l.038-70.922a2.814 2.814 0 012.806-2.82H57.21c1.123-.444.722-.726.562-1.008-3.488-5.803-5.773-12.049-6.655-18.819-1.965-15.514 2.405-29.013 12.909-40.579a40.141 40.141 0 011.844-1.853c.521-.524.521-.524.04-1.008-1.644-1.571-3.127-3.304-4.37-5.238-2.806-4.473-4.37-9.35-4.49-14.668-.04-1.33.24-1.491 1.443-.887a27.05 27.05 0 004.01 1.652c.16-2.337-.12-4.271-.161-6.246 0-.725-.04-1.41 0-2.136 0-1.007.36-1.249 1.243-.725 1.403.806 2.806 1.531 4.29 2.136.881.363.881.363.801-.605-.24-2.538-.28-5.077 0-7.616.24-.967.682-1.128 1.003-.846.24.202.4.484.6.725 3.088 3.869 6.536 7.334 10.665 10.115 3.608 2.418 7.497 3.748 11.827 3.788 3.247.04 6.374-.645 9.381-1.813 2.807-1.089 5.612-2.217 8.54-2.862 2.965-.644 5.973-.926 8.94-.201 5.05 1.25 8.459 4.513 10.584 9.188.8 1.773 1.242 3.626 1.523 5.56.12.726.12.726.882.686 4.41-.323 8.66.362 12.508 2.66 4.61 2.78 7.177 6.97 8.178 12.169.722 3.828.522 7.616-.08 11.444-.481 2.982-1.282 5.924-2.245 8.785-.24.725-.401.685.481 1.007 4.49 1.532 7.297 4.635 8.098 9.309 1.124 6.407-2.966 12.089-8.9 13.5-1.082.241-2.205.402-3.327.282-.481-.081-.642.16-.762.604-.841 3.062-2.004 6.044-3.407 8.905-2.887 5.763-6.736 10.72-11.547 14.95-1.082.766-1.162 1.21-.921 1.814.56 1.571 1.042 3.184 1.563 4.755 3.247 10.155 6.535 20.27 9.742 30.424.24.726.561 1.007 1.283 1.128 3.167.685 5.171 2.66 6.014 5.803.16.686.28 1.411.4 2.095.762-.442 1.083-.885 1.564-1.289 1.363-1.128 2.887-1.37 4.53-.806 1.684.605 2.687 1.853 2.927 3.627.08.605.24.766.841.846 2.807.444 4.45 3.224 3.53 5.964-.242.685-.161 1.169.319 1.733 1.243 1.49 1.965 3.224 2.205 5.158.12.846 0 .846.922.846h16.558c0-1.692-.52-3.022-.802-4.473-1.884.12-3.167.443-4.41.846-.722.242-1.083.08-1.203-.322-.12-.363.16-.645.842-.846 1.163-.362 2.326-.685 3.488-1.048 1.163-.362.962-.08.962-1.37.04-.605-.2-.685-.52-.685h-5.774c-1.042-.04-1.203-.242-1.203-.565.762-.603.963-.563 1.203-.563h5.693c.521 0 .722-.161.802-.685.2-1.37.24-1.37-1.123-1.774-1.122-.362-2.285-.685-3.407-1.006-.883-.363-1.003-.605-.923-.887.883-.403 1.123-.323 1.404-.242a160.7 160.7 0 014.049 1.249c1.844-2.861 3.407-4.876 5.532-6.407.401-.282.481-.605.481-1.048v-12.451c.08-.564.482-.766.963-.484 3.969 3.707 7.456 6.971 10.905 10.195.921.887.64.887 1.683.12a21.532 21.532 0 0125.057 0c.962.686.681.847 1.723-.12l10.545-9.751c.32-.283.6-.766 1.122-.565.562.202.361.766.361 1.168v18.094c0 1.168 0 1.168 1.082.846.963-.282 1.884-.564 2.847-.846 1.362.564 1.282.846.922.967l-2.285.725-2.045.605c-.561.927-.561 1.531-.521 2.096 2.887.241 4.65.241 6.414.241 1.002.121 1.203.323 1.163.604-.721.564-1.002.564-1.243.564h-5.572c-.802 0-.842 0-.842.766 0 1.25-.08.967.961 1.29 1.083.363 2.205.645 3.328 1.008.922.402 1.042.644.922.966-2.364-.121-3.447-.484-4.57-.806-.641 1.652-.641 2.821-.641 4.03 0 .443.12.685.601.644h17.32c.44 0 .881-.04 1.322.202v.766c-1.003.242-1.282.242-1.603.242H0z" fill="#151D38"></path><path d="M46.506 165.417v-.08h44.697c1.048 0 1.048 0 1.048-1.044v-62.512c-.04-1.083-.645-1.725-1.733-1.845-.363-.04-.725 0-1.048 0H3.1c-1.492.04-2.096.682-2.096 2.126v62.392c0 .923 0 .923.967.923h.685c14.59.04 29.22.04 43.851.04z" fill="#CCD6DA"></path><path d="M75.431 98.719h14.574c1.517 0 2.675.89 2.954 2.264.08.364.08.687.08 1.05v16.695c0 .93.08.89.799.97 5.869.728 11.658.405 17.368-1.09 13.016-3.437 22.878-11.118 29.626-22.84 1.917-3.315 3.354-6.872 4.392-10.59.2-.728.2-.728-.479-.93l-1.078-.364c-.679-.283-.878-.526-.759-.93.12-.445.48-.485 1.198-.242 1.917.727 3.833.889 5.83.525 5.91-1.172 9.702-7.236 8.144-13.097-1.596-5.982-7.745-9.378-13.494-7.438-.28.081-.52.243-.8.283-.278.04-.479-.12-.598-.363-.12-.283-.04-.526.16-.688.16-.121.32-.202.519-.242.439-.162.838-.283 1.277-.404.08-.04.2-.081.24-.162.08-.202-.12-.162-.24-.202-.16-.081-.359-.121-.558-.202-2.995-1.051-5.87-2.385-8.505-4.164-4.791-3.153-8.505-7.276-10.9-12.571-1.118-2.507-1.877-5.134-2.316-7.883-.12-.808-.16-.808-.839-.444a5.77 5.77 0 00-.679.404c-3.553 2.102-7.186 3.88-11.02 5.336-8.264 3.112-16.729 4.365-25.473 2.789-6.07-1.092-11.739-3.274-16.69-7.115-.639-.485-.639-.485-1.158.04-4.472 4.326-8.025 9.298-10.58 14.957-3.953 8.853-5.151 18.07-3.674 27.65.998 6.507 3.314 12.53 6.748 18.109.4.687.838.97 1.677.97 4.711-.121 9.463-.081 14.254-.081z" fill="#FAE0D6"></path><path d="M93.3 143.259v21.883c0 .486.12.688.641.688 1.083-.04 2.166 0 3.289 0 4.05 0 8.1-.04 12.11-.04.842 0 .922.122.922.972v3.971c0 .65-.08.73.641.73h15.478c.522 0 .642-.203.682-.648.16-1.46.602-2.878 1.364-4.133.28-.447.32-.852.12-1.379-.842-2.512-1.644-5.065-2.446-7.578-1.965-6.159-3.97-12.319-5.935-18.478a4.02 4.02 0 01-.2-.649c-.08-.364.08-.647.44-.728.322-.082.562.08.683.364l.12.364 4.21 13.13c1.323 4.134 2.647 8.267 4.01 12.36.241.689.241.73.763.243 1.442-1.418 3.127-2.35 5.091-2.796.602-.162.642-.162.482-.77-.321-1.338-.682-2.715-.963-4.052-.921-4.052 1.524-8.226 5.494-9.28.24-.08.521-.08.762-.162.28-.04.401-.203.28-.486-.04-.162-.08-.325-.16-.447-3.127-9.806-6.296-19.653-9.423-29.459a291.828 291.828 0 00-1.764-5.47c-.12-.406-.32-.568-.642-.203-.12.12-.24.202-.4.283-2.647 1.986-5.495 3.728-8.502 5.106-5.855 2.714-12.03 4.255-18.485 4.498-2.727.122-5.454.08-8.14-.324-.442-.081-.602.081-.562.486v.77c.04 7.091.04 14.183.04 21.234z" fill="#FFF3A2"></path><path d="M221.231 171.381h17.561c.84 0 .84 0 .84-.855v-29.819c0-.164.08-.367-.08-.449-.24-.122-.32.122-.479.245-2.16 2.037-4.32 4.033-6.52 6.07-1.321 1.222-2.641 2.484-3.962 3.707-.56.53-.64.488-1.239.081-.2-.122-.36-.285-.52-.407-3.161-2.404-6.68-3.83-10.601-4.114-5.24-.408-10.001 1.059-14.2 4.318-.921.732-.921.732-1.762-.042-.04-.04-.08-.081-.16-.122-3.16-3.015-6.36-6.029-9.56-9.044-.24-.243-.48-.692-.8-.57-.24.123-.12.57-.12.897v10.55c0 .489-.04.897-.56 1.223-5.76 3.95-7.12 11.65-3.76 17.598.32.57.68.815 1.36.815 4.24-.04 8.52 0 12.76-.04.28 0 .68.122.8-.123.12-.244-.28-.448-.48-.652-2.08-2.28-2.72-4.929-1.84-7.862.88-2.934 2.92-4.685 5.8-5.377.601-.163 1.201-.245 1.8-.163.321.04.521.244.521.61 0 .285-.16.49-.48.53-.36.04-.68.082-1.04.122-2.76.367-5.12 2.485-5.68 5.215-.6 2.81.599 5.662 3 7.17.6.366 1.24.57 2 .57 5.92-.122 11.68-.082 17.401-.082z" fill="#C27659"></path><path d="M46.58 166.467c-8.18.036-16.36.036-24.539.036H1.572c-.403 0-.605.143-.564.503v2.155c0 1.294 0 1.294 1.45 1.294 11.484 0 23.008 0 34.492-.036 17.93 0 35.821-.035 53.752-.035h.766c.564-.037.765-.216.765-.719.04-.935 0-1.833 0-2.767 0-.395-.201-.503-.604-.467h-.685c-4.271 0-8.502.036-12.773.036H46.58zm99.78 4.955h17.606c.356.041.516-.082.476-.491-.199-1.72-.793-3.277-1.824-4.67-.159-.245-.317-.204-.396.083-.04.123-.08.246-.16.368-1.308 2.826-4.56 3.604-6.939 1.638-.436-.369-.714-.45-1.229-.204-1.467.614-2.855.409-4.163-.492-1.39-.983-2.023-2.375-1.904-4.137.04-.613 0-.655-.516-.49-1.23.327-2.378.204-3.49-.45-.277-.165-.515-.165-.832-.165-1.824 0-3.688-.041-5.512 0-4.203.082-7.812 3.071-8.882 7.29a7.97 7.97 0 00-.238 1.352c-.04.286.08.409.356.409h.755c5.67-.041 11.3-.041 16.892-.041z" fill="#CCD6DA"></path><path d="M139.387 160.668h2.194c.29 0 .455-.078.33-.39-.828-2.143-.951-4.441-1.449-6.662-.124-.506.084-.818.456-.896.373-.077.621.156.745.662.124.507.207 1.052.29 1.56.248 1.323.455 2.648.745 3.934.414 1.753 2.111 2.766 3.974 2.454 1.821-.35 2.98-1.909 2.69-3.662-.248-1.52-.497-3-.869-4.48-.786-3.312-4.304-5.416-7.823-4.793-3.353.585-5.796 3.897-5.216 7.13.29 1.558.786 3.078 1.159 4.637.083.35.29.506.704.506h2.07zm10.02 3.386c.082 1.132.45 2.022 1.352 2.668 1.885 1.375 4.425.688 5.245-1.496.778-2.143 1.515-4.326 2.253-6.51.082-.242.122-.485.163-.768.124-1.576-.819-2.992-2.376-3.477-1.515-.445-3.196.202-3.933 1.618-.492.97-.901 2.021-1.066 3.113a6.453 6.453 0 01-.778 2.264c-.491.85-.778 1.739-.86 2.588z" fill="#FAE0D6"></path><path d="M101.113 170.455v-.036h7.493c.407-.036.692-.181.692-.581v-3.05c0-.255-.163-.363-.449-.363h-9.935c-1.67 0-3.34.036-4.968.036-.489 0-.692.145-.692.581.04.908 0 1.815 0 2.687 0 .69 0 .726.814.726h7.045z" fill="#CCD6DA"></path><path d="M162.442 162.795c0-1.804-1.154-3.098-2.907-3.373-.77-.117-.855-.077-1.112.589-.47 1.254-.897 2.509-1.367 3.725-.428 1.097-.641 2.313-1.496 3.254-.3.314-.044.51.17.706 1.796 1.373 4.532.784 5.473-1.254.427-.941.769-1.922 1.111-2.902.128-.314.128-.628.128-.745z" fill="#FAE0D6"></path><path d="M58.14 133.378c-.317 4.9-3.337 8.556-7.787 9.6-5.722 1.366-11.364-2.611-12.16-8.516-.675-4.981 2.504-10.044 7.67-11.249 1.112-.24 1.192-.2 1.35.924.676 3.817 3.22 6.629 6.914 7.472.875.202 1.749.242 2.663.161 1.192-.12 1.311 0 1.35 1.206.04.2 0 .402 0 .402z" fill="#151D38"></path><path d="M48.307 142.24c.608-.041 1.418-.124 2.229-.33 3.607-.99 6.444-4.458 6.606-8.174.04-.826.04-.826-.73-.826-4.822.083-9.037-3.22-10.131-8.008-.243-1.073-.365-.825-1.013-.619-4.175 1.403-6.768 5.78-6.039 10.279.689 4.375 4.539 7.72 9.078 7.678z" fill="#FFF"></path><path d="M92.064 61.993h13.209c2.023 0 4.046.082 6.07.123.95.04 1.188.367.752 1.184-2.975 5.675-7.338 9.635-13.565 10.983-6.267 1.347-11.78-.409-16.501-4.859-1.864-1.756-3.292-3.879-4.443-6.206-.119-.245-.238-.449-.317-.694-.159-.49 0-.735.516-.857.198-.041.396-.041.555-.041l11.701.122c.675 0 1.31.082 1.984.082.04.082.04.122.04.163z" fill="#151D38"></path><path d="M95.332 62.79H91.75c-1.49 0-2.94 0-4.43-.079-2.537-.078-5.073-.078-7.61-.078-.564 0-.604.04-.322.506A18.307 18.307 0 0083.252 68c4.43 3.89 9.584 5.484 15.463 4.356 5.395-1.05 9.342-4.083 12.241-8.517.524-.817.524-.856-.483-.856-5.033-.077-10.107-.155-15.14-.194z" fill="#FFF"></path><path d="M57.156 68.176c0-3.295 2.458-6.51 6.556-6.55 3.591-.039 6.48 2.942 6.48 6.55 0 3.647-2.889 6.55-6.519 6.55-3.59-.04-6.517-2.942-6.517-6.55zm77.2 1.028c.156 3.147-2.542 6.49-6.493 6.53-3.599 0-6.494-2.911-6.533-6.53 0-3.698 2.856-6.57 6.533-6.57 3.873-.078 6.688 3.266 6.493 6.57z" fill="#E5384A"></path><path d="M72.676 53.564c1.98 0 3.574 1.558 3.53 3.549 0 1.947-1.55 3.505-3.444 3.505-1.98 0-3.574-1.558-3.574-3.548 0-1.904 1.55-3.462 3.488-3.506zm45.167 1.009c1.98 0 3.487 1.557 3.487 3.59-.043 1.948-1.593 3.505-3.53 3.462-1.894 0-3.488-1.6-3.488-3.504a3.449 3.449 0 013.53-3.548zM154.42 72.77c-.04 4.099-4.22 6.987-8.199 5.66-.12-.039-.242-.078-.362-.156-.402-.156-.562-.43-.402-.82.121-.35.482-.39.804-.312.2.04.442.156.643.195 2.774.742 5.667-.975 6.23-3.669.563-2.771-1.367-5.386-4.22-5.776-.241-.04-.523-.079-.764-.118-.281-.039-.442-.273-.442-.546 0-.351.2-.507.523-.546.2-.04.442 0 .682 0 3.176.35 5.548 2.966 5.506 6.089zM95.257 53.247c0 .286-.223.45-.484.573-.782.45-1.602.9-2.384 1.308-.335.164-.41.328-.075.573.671.491 1.304 1.023 1.975 1.514.186.122.335.245.484.409.186.204.186.49.037.736-.149.245-.372.286-.633.204a.763.763 0 01-.372-.245c-1.006-.777-2.05-1.554-3.055-2.372-.708-.573-.67-.982.112-1.432 1.117-.654 2.272-1.268 3.427-1.882.558-.204 1.005 0 .968.614zm-31.082 2.256c.114-2.92 2.016-5.34 4.716-5.882.304-.084.608-.125.913-.042.228.042.38.25.38.5.038.293-.076.543-.342.626a5.44 5.44 0 01-.799.167c-2.054.46-3.423 2.128-3.651 4.38-.038.25-.038.46-.038.71-.038.375-.19.625-.57.625-.381 0-.533-.292-.571-.667-.038-.125-.038-.25-.038-.417zm61.166-.021c0 .163 0 .45-.039.696-.078.287-.275.41-.55.41-.274 0-.47-.164-.51-.451-.039-.205 0-.41-.039-.573-.117-2.417-1.647-4.26-3.923-4.71-.118-.041-.235-.041-.353-.082-.393-.082-.667-.287-.59-.738.08-.45.433-.532.786-.491a5.858 5.858 0 013.452 1.638c1.1 1.188 1.688 2.58 1.766 4.3zm88.902 112.948c-1.504-.042-2.52-.475-3.294-1.514-.324-.39-.447-.39-.772 0-1.424 1.688-3.497 1.992-5.165.823-.568-.39-1.017-.953-1.341-1.603-.163-.345-.204-.779.203-.995.406-.216.65 0 .853.39.123.26.285.519.489.779 1.341 1.515 3.7 1.039 4.433-.866.162-.432.202-.692-.326-.822-.732-.217-1.18-.822-1.668-1.386a1.509 1.509 0 01-.366-.822c-.12-.606.083-.996.692-.996 1.708-.043 3.457-.043 5.164 0 .57 0 .773.39.611.996-.245.996-.977 1.516-1.709 2.035-.243.173-.65.13-.732.433-.08.389.164.779.408 1.125 1.097 1.602 3.293 1.602 4.432 0 .122-.173.244-.433.366-.606.203-.304.488-.346.773-.217.284.173.366.477.243.78a4.103 4.103 0 01-1.098 1.558c-.732.606-1.545.952-2.196.909zm13.377-11.074c1.72 0 3.008 1.339 3.008 3.022a2.99 2.99 0 01-3.093 3.023c-1.676-.044-2.966-1.382-2.922-3.11-.044-1.683 1.29-2.978 3.008-2.935zm-35.117 6.046c-1.664 0-2.987-1.287-2.987-3.002 0-1.715 1.237-3.001 2.944-3.045 1.75 0 3.072 1.287 3.072 3.002-.043 1.715-1.322 3.045-3.029 3.045z" fill="#151D38"></path></g></g><path d="M341.5 182.39V303" stroke="#333" stroke-width="20" stroke-linecap="square"></path><path d="M234.875 879.546l-6.574-10.266-2.742 2.954v7.312h-5.274v-25.594h5.274v11.602l2.32-3.182 6.521-8.42h6.487l-9.088 11.373 9.351 14.221h-6.275zm22.342-25.594h5.29v16.858q0 4.2-2.627 6.644-2.628 2.444-7.18 2.444-4.483 0-7.12-2.373-2.637-2.374-2.69-6.522v-17.05h5.274v16.892q0 2.514 1.204 3.665 1.204 1.151 3.331 1.151 4.447 0 4.518-4.676v-17.033zm19.564 25.594h-9.949v-25.594h8.965q4.658 0 7.066 1.784 2.408 1.785 2.408 5.23 0 1.88-.966 3.313-.967 1.433-2.69 2.101 1.969.492 3.103 1.986 1.134 1.494 1.134 3.657 0 3.691-2.356 5.59-2.355 1.898-6.715 1.933zm.158-11.145h-4.834v6.909h4.518q1.863 0 2.91-.888 1.045-.888 1.045-2.452 0-3.516-3.639-3.569zm-4.834-10.177v6.45h3.903q3.99-.07 3.99-3.18 0-1.741-1.01-2.506-1.011-.764-3.191-.764h-3.692zm33.1 6.1v4.13H295.08v6.856h11.883v4.236h-17.156v-25.594h17.12v4.272H295.08v6.1h10.125zm19.125 15.222l-4.799-9.37h-4.2v9.37h-5.274v-25.594h9.51q4.535 0 6.995 2.022 2.461 2.021 2.461 5.713 0 2.619-1.133 4.368-1.134 1.749-3.437 2.786l5.537 10.459v.246h-5.66zm-9-21.322v7.681h4.254q1.986 0 3.076-1.01 1.09-1.011 1.09-2.786 0-1.811-1.028-2.848-1.029-1.037-3.156-1.037h-4.236zm38.514-4.272v25.594h-5.274l-10.265-16.84v16.84h-5.274v-25.594h5.274l10.283 16.875v-16.875h5.256zm20.004 10.371v4.131h-10.125v6.856h11.882v4.236H358.45v-25.594h17.121v4.272h-11.847v6.1h10.125zm24.468-10.37v4.27h-7.84v21.323h-5.273v-21.322h-7.734v-4.272h20.847zm18.405 10.37v4.131h-10.125v6.856h11.883v4.236h-17.157v-25.594h17.121v4.272h-11.847v6.1h10.125zm18.123 8.508q0-1.494-1.055-2.294t-3.797-1.687q-2.742-.888-4.342-1.75-4.359-2.355-4.359-6.345 0-2.074 1.169-3.7 1.169-1.626 3.357-2.54 2.189-.914 4.913-.914 2.743 0 4.887.993 2.145.993 3.331 2.804 1.187 1.81 1.187 4.113h-5.274q0-1.758-1.107-2.734-1.108-.975-3.111-.975-1.934 0-3.006.817-1.073.818-1.073 2.154 0 1.248 1.257 2.091 1.257.844 3.7 1.582 4.5 1.354 6.557 3.358 2.057 2.004 2.057 4.992 0 3.322-2.514 5.212-2.514 1.89-6.767 1.89-2.954 0-5.38-1.081-2.425-1.082-3.7-2.962-1.274-1.881-1.274-4.36h5.291q0 4.237 5.063 4.237 1.88 0 2.935-.765 1.055-.765 1.055-2.136zm-230.741-342.05v2.373h-4.356V545h-2.93v-11.846h-4.296v-2.373h11.582zm9.224 5.762v2.295h-5.625v3.808h6.602V545h-9.531v-14.219h9.511v2.373h-6.582v3.389h5.625zm4.117-5.762l2.666 4.903 2.666-4.903h3.37l-4.141 7.051 4.248 7.168h-3.408l-2.735-4.98-2.734 4.98h-3.408l4.248-7.168-4.14-7.05h3.368zm19.987 0v2.373h-4.356V545h-2.93v-11.846h-4.296v-2.373h11.582zm189.597 9.209h-2.569V545h-2.93v-14.219h5.547q1.602 0 2.818.586t1.87 1.665q.654 1.08.654 2.456 0 2.09-1.43 3.296-1.431 1.206-3.96 1.206zm-2.569-6.836v4.463h2.617q1.163 0 1.773-.547.61-.547.61-1.562 0-1.045-.615-1.69-.615-.644-1.7-.664h-2.685zm12.086-2.373V545h-2.93v-14.219h2.93zm9.947 9.483h2.93q-.166 2.295-1.694 3.613-1.529 1.318-4.029 1.318-2.734 0-4.301-1.84-1.568-1.841-1.568-5.054v-.87q0-2.05.723-3.613.723-1.562 2.065-2.397 1.343-.835 3.12-.835 2.461 0 3.965 1.318 1.504 1.319 1.739 3.701h-2.93q-.107-1.376-.767-1.997-.659-.62-2.006-.62-1.465 0-2.193 1.05-.727 1.05-.747 3.257v1.074q0 2.305.698 3.37.699 1.064 2.202 1.064 1.358 0 2.027-.62t.766-1.92zm14.274-9.483v2.373h-4.356V545h-2.93v-11.846h-4.296v-2.373h11.582zm8.492 0h2.94v9.365q0 2.334-1.46 3.692-1.46 1.357-3.99 1.357-2.49 0-3.955-1.318-1.465-1.318-1.494-3.623v-9.473h2.93v9.385q0 1.396.669 2.036.669.64 1.85.64 2.471 0 2.51-2.598v-9.463zM481.53 545l-2.666-5.205h-2.334V545h-2.93v-14.219h5.283q2.52 0 3.887 1.123t1.367 3.174q0 1.455-.63 2.427t-1.91 1.548l3.077 5.81V545h-3.144zm-5-11.846v4.268h2.363q1.103 0 1.709-.562.605-.561.605-1.548 0-1.005-.571-1.582-.571-.576-1.753-.576h-2.353zm17.388 3.389v2.295h-5.625v3.808h6.602V545h-9.531v-14.219h9.511v2.373h-6.582v3.389h5.625zm9.069 4.727q0-.83-.586-1.275-.586-.444-2.11-.937-1.523-.494-2.412-.972-2.422-1.309-2.422-3.525 0-1.153.65-2.056t1.865-1.411q1.216-.508 2.73-.508 1.523 0 2.714.552 1.192.551 1.85 1.557.66 1.006.66 2.285h-2.93q0-.976-.615-1.518t-1.728-.542q-1.075 0-1.67.454-.596.454-.596 1.196 0 .694.698 1.162.698.47 2.056.88 2.5.751 3.642 1.865 1.143 1.113 1.143 2.773 0 1.846-1.396 2.896-1.397 1.05-3.76 1.05-1.64 0-2.989-.601-1.347-.6-2.055-1.646-.708-1.045-.708-2.422h2.94q0 2.354 2.812 2.354 1.045 0 1.63-.425.587-.425.587-1.186zM368.812 213.264h2.93q-.166 2.295-1.695 3.613-1.528 1.318-4.028 1.318-2.734 0-4.302-1.84-1.567-1.841-1.567-5.054v-.87q0-2.05.723-3.613.722-1.562 2.065-2.397 1.343-.835 3.12-.835 2.461 0 3.965 1.318 1.504 1.319 1.738 3.701h-2.93q-.107-1.376-.766-1.997-.66-.62-2.007-.62-1.465 0-2.192 1.05-.728 1.05-.747 3.257v1.074q0 2.305.698 3.37.698 1.064 2.202 1.064 1.357 0 2.026-.62.67-.62.767-1.92zM380.595 218l-2.666-5.205h-2.334V218h-2.93v-14.219h5.284q2.52 0 3.886 1.123 1.368 1.123 1.368 3.174 0 1.455-.63 2.427t-1.91 1.548l3.077 5.81V218h-3.145zm-5-11.846v4.268h2.363q1.104 0 1.71-.562.605-.561.605-1.548 0-1.005-.571-1.582-.572-.576-1.753-.576h-2.354zm17.389 3.389v2.295h-5.625v3.808h6.601V218h-9.53v-14.219h9.51v2.373h-6.581v3.389h5.625zM403.693 218l-.987-2.93h-5.136l-.977 2.93h-3.115l5.293-14.219h2.715L406.808 218h-3.115zm-3.565-10.625l-1.767 5.322h3.554l-1.787-5.322zm16.54-3.594v2.373h-4.356V218h-2.93v-11.846h-4.297v-2.373h11.582zm9.224 5.762v2.295h-5.625v3.808h6.602V218h-9.532v-14.219h9.512v2.373h-6.582v3.389h5.625zm17.238-5.762V218h-2.93l-5.702-9.355V218h-2.93v-14.219h2.93l5.712 9.375v-9.375h2.92zm13.239 6.797v.635q0 2.1-.743 3.682-.742 1.582-2.124 2.44-1.381.86-3.169.86-1.767 0-3.154-.85-1.387-.849-2.148-2.426-.762-1.577-.772-3.628v-.703q0-2.1.757-3.696.757-1.597 2.139-2.452 1.382-.854 3.159-.854t3.16.854q1.38.855 2.138 2.452.757 1.596.757 3.686zm-2.97.684v-.694q0-2.236-.8-3.398t-2.285-1.162q-1.475 0-2.275 1.147-.801 1.148-.811 3.365v.693q0 2.178.8 3.379.802 1.201 2.305 1.201 1.475 0 2.266-1.157.791-1.157.8-3.374zm13.972-7.48v2.372h-4.356V218h-2.93v-11.846h-4.296v-2.373h11.582zm9.224 5.761v2.295h-5.625v3.808h6.602V218h-9.532v-14.219h9.512v2.373h-6.582v3.389h5.625z" fill="#333"></path></g></svg>