<svg viewBox="0 0 1200 900" fill="none" xmlns="http://www.w3.org/2000/svg"><path fill="#fff" d="M0 0h1200v900H0z"></path><path fill-rule="evenodd" clip-rule="evenodd" d="M226.5 473.243L601 690.36l-.474 48.394L226.5 522.973v-49.73z" fill="#C5DDDA"></path><path fill-rule="evenodd" clip-rule="evenodd" d="M974.5 522.748v-49.505L601 690.36v48.394l373.5-216.006z" fill="#4F877F"></path><path fill-rule="evenodd" clip-rule="evenodd" d="M226.5 425.243L601 642.36l-.474 48.394L226.5 474.973v-49.73z" fill="#F7E7BF"></path><path fill-rule="evenodd" clip-rule="evenodd" d="M974.5 474.748v-49.505L601 642.36v48.394l373.5-216.006z" fill="#E7B237"></path><path fill-rule="evenodd" clip-rule="evenodd" d="M600.5 160.125l374 217.118L601 594.36 226.5 377.243l374-217.118z" fill="#FFB894"></path><path fill-rule="evenodd" clip-rule="evenodd" d="M226.5 377.243L601 594.36l-.474 48.394L226.5 426.973v-49.73z" fill="#FFDAC7"></path><path fill-rule="evenodd" clip-rule="evenodd" d="M974.5 426.748v-49.505L601 594.36v48.394l373.5-216.006z" fill="#FF742E"></path><path d="M789.839 775v-26.909h5.689v22.218h11.536V775h-17.225zm26.321.381c-1.288 0-2.435-.223-3.442-.67-1.008-.456-1.805-1.126-2.392-2.01-.578-.894-.867-2.006-.867-3.338 0-1.121.206-2.063.618-2.825a4.994 4.994 0 011.681-1.839 8.16 8.16 0 012.418-1.051 18.454 18.454 0 012.864-.5 71.56 71.56 0 002.838-.341c.719-.114 1.24-.28 1.564-.499.324-.219.486-.544.486-.973v-.079c0-.832-.263-1.476-.788-1.931-.517-.456-1.253-.683-2.208-.683-1.007 0-1.808.223-2.404.67-.596.438-.99.99-1.183 1.655l-5.176-.42c.262-1.226.779-2.286 1.55-3.18.771-.902 1.765-1.594 2.983-2.076 1.226-.49 2.645-.736 4.257-.736 1.121 0 2.194.132 3.219.395 1.033.262 1.949.67 2.746 1.222a5.928 5.928 0 011.905 2.128c.464.858.696 1.888.696 3.088V775h-5.308v-2.799h-.157a5.713 5.713 0 01-1.301 1.669c-.543.473-1.196.845-1.958 1.117-.762.263-1.642.394-2.641.394zm1.603-3.863c.823 0 1.55-.162 2.181-.486a3.867 3.867 0 001.485-1.34 3.458 3.458 0 00.539-1.905v-2.142a2.99 2.99 0 01-.723.315c-.298.088-.635.171-1.012.25-.376.07-.753.136-1.13.197l-1.025.144c-.657.097-1.23.25-1.721.46-.49.211-.871.495-1.143.854-.272.351-.407.789-.407 1.314 0 .762.276 1.345.827 1.748.561.394 1.271.591 2.129.591zm16.516 11.05a11.08 11.08 0 01-1.997-.171c-.613-.105-1.121-.241-1.524-.407l1.261-4.178c.657.201 1.248.311 1.774.328.534.018.994-.105 1.38-.368.394-.262.714-.709.959-1.34l.328-.854-7.239-20.76h5.886l4.178 14.821h.21l4.218-14.821h5.926l-7.844 22.363c-.377 1.086-.889 2.032-1.537 2.838a6.303 6.303 0 01-2.431 1.879c-.981.447-2.164.67-3.548.67zm26.45-7.174c-2.076 0-3.863-.42-5.361-1.261-1.489-.85-2.637-2.05-3.443-3.6-.806-1.56-1.208-3.403-1.208-5.532 0-2.076.402-3.898 1.208-5.466.806-1.568 1.941-2.79 3.403-3.666 1.472-.876 3.198-1.314 5.177-1.314 1.332 0 2.571.215 3.719.644a8.27 8.27 0 013.022 1.905c.867.85 1.541 1.919 2.023 3.206.482 1.279.723 2.777.723 4.494v1.537H852.95v-3.468h11.773c0-.806-.175-1.52-.526-2.142a3.765 3.765 0 00-1.458-1.459c-.613-.359-1.327-.538-2.142-.538-.849 0-1.603.197-2.26.591a4.15 4.15 0 00-1.524 1.563 4.42 4.42 0 00-.565 2.168v3.298c0 .999.184 1.862.552 2.589a4.049 4.049 0 001.59 1.682c.683.394 1.493.591 2.431.591.621 0 1.191-.088 1.708-.263a3.554 3.554 0 001.327-.788c.368-.351.648-.78.841-1.288l5.176.342a7.053 7.053 0 01-1.616 3.258c-.806.92-1.848 1.638-3.127 2.155-1.27.508-2.737.762-4.401.762zm12.594-.394v-20.182h5.426v3.521h.21c.368-1.252.986-2.198 1.853-2.838.867-.648 1.866-.972 2.996-.972.28 0 .582.018.906.053.324.035.609.083.854.144v4.967a7.232 7.232 0 00-1.09-.21 9.676 9.676 0 00-1.275-.092c-.823 0-1.559.179-2.207.538a3.968 3.968 0 00-1.524 1.472c-.368.631-.552 1.358-.552 2.181V775h-5.597zm32.953.368c-1.962 0-3.709-.337-5.242-1.012-1.525-.683-2.729-1.62-3.614-2.812-.876-1.2-1.327-2.584-1.353-4.152h5.729c.035.657.249 1.235.644 1.735.402.49.937.871 1.602 1.143.666.271 1.415.407 2.247.407.867 0 1.634-.153 2.3-.46.665-.306 1.187-.731 1.563-1.274.377-.543.565-1.17.565-1.879 0-.718-.201-1.353-.604-1.905-.394-.561-.964-.999-1.708-1.314-.736-.316-1.612-.473-2.628-.473h-2.51v-4.178h2.51c.858 0 1.616-.149 2.273-.447.666-.298 1.182-.71 1.55-1.235.368-.535.552-1.157.552-1.866 0-.675-.162-1.266-.486-1.774a3.207 3.207 0 00-1.34-1.209c-.569-.289-1.235-.433-1.997-.433-.771 0-1.476.14-2.116.42-.639.272-1.152.662-1.537 1.17-.385.508-.591 1.103-.618 1.787h-5.452c.026-1.551.468-2.917 1.327-4.1.858-1.182 2.014-2.107 3.469-2.772 1.462-.675 3.113-1.012 4.953-1.012 1.857 0 3.482.337 4.875 1.012 1.392.674 2.474 1.585 3.245 2.733.78 1.138 1.165 2.417 1.156 3.836.009 1.507-.46 2.764-1.406 3.771-.937 1.008-2.159 1.647-3.665 1.919v.21c1.979.254 3.486.941 4.519 2.063 1.043 1.112 1.56 2.505 1.551 4.178.009 1.533-.434 2.895-1.327 4.086-.885 1.192-2.107 2.129-3.666 2.812-1.559.683-3.346 1.025-5.361 1.025zm-434.989-305.72l-19.099-19.099 7.345-4.37c1.548-.921 3.119-1.48 4.713-1.678 1.616-.21 3.169-.077 4.659.4 1.474.459 2.786 1.264 3.937 2.415 1.273 1.273 1.997 2.623 2.172 4.049.179 1.396-.188 2.685-1.101 3.868l12.669 5.315-4.452 2.649-11.626-5.185-2.83 1.684 7.587 7.587-3.974 2.365zm-6.491-12.83l3.371-2.006c1.123-.668 1.75-1.444 1.88-2.328.131-.885-.249-1.771-1.139-2.661-.889-.89-1.924-1.4-3.105-1.533-1.159-.145-2.29.111-3.392.767l-3.371 2.005 5.756 5.756zm32.665-2.325c-2.268 1.349-4.555 1.903-6.86 1.661-2.301-.273-4.332-1.29-6.093-3.051l-13.658-13.657 4.007-2.384 13.631 13.631c.907.907 1.889 1.449 2.946 1.627 1.057.178 2.115-.048 3.175-.679 1.039-.618 1.581-1.344 1.626-2.177.067-.847-.353-1.723-1.26-2.63l-13.631-13.631 4.006-2.384 13.657 13.657c1.762 1.762 2.521 3.535 2.279 5.321-.261 1.769-1.536 3.334-3.825 4.696zm11.278-7.127l-19.099-19.099 4.865-2.895 21.892 11.596c-.622-.52-1.34-1.136-2.153-1.849-.831-.729-1.671-1.467-2.52-2.215a69.148 69.148 0 01-2.156-2.055l-9.053-9.052 3.625-2.157 19.099 19.099-4.865 2.895L496.547 430c.548.481 1.211 1.06 1.99 1.737.779.677 1.564 1.378 2.357 2.103a67.126 67.126 0 012.13 2.029l9.34 9.34-3.625 2.157zm37.739-22.452l-14.39-14.39 3.88-2.308 2.747 2.747.064-.038c-.752-1.055-.986-2.084-.704-3.087.265-1.02 1.044-1.914 2.337-2.684 1.717-1.021 3.556-1.364 5.515-1.027 1.981.324 3.765 1.279 5.352 2.867l9.445 9.444-3.975 2.365-9.105-9.105c-.872-.872-1.83-1.373-2.873-1.503-1.022-.143-2.01.069-2.964.636-.996.593-1.537 1.304-1.621 2.133-.062.816.36 1.678 1.267 2.585l9 9-3.975 2.365zm23.499-6.47l-19.099-19.099 3.88-2.308 2.59 2.59.063-.038c-.589-1.096-.724-2.128-.407-3.095.321-.998 1.085-1.856 2.294-2.575 1.717-1.022 3.592-1.344 5.625-.968 2.054.363 3.918 1.382 5.592 3.057l3.899 3.898c1.692 1.692 2.505 3.35 2.439 4.975-.045 1.612-.925 2.929-2.643 3.951-1.187.706-2.438 1.061-3.753 1.064-1.332-.014-2.611-.379-3.836-1.097l-.064.038 3.366 3.213 4.029 4.029-3.975 2.365zm-.055-11.568c1.018-.605 1.558-1.316 1.621-2.132.084-.829-.328-1.697-1.235-2.604l-3.61-3.61c-.907-.907-1.891-1.435-2.952-1.583-1.039-.16-2.068.062-3.086.668-1.017.605-1.559 1.331-1.626 2.177-.066.847.363 1.732 1.287 2.656l3.454 3.454c.924.924 1.925 1.469 3.004 1.635 1.078.165 2.126-.055 3.143-.661zm13.246-3.79l-14.39-14.39 3.243-1.93 1.936 1.936.159-.094c-.556-.726-.77-1.447-.642-2.164.129-.716.586-1.308 1.37-1.774.721-.429 1.547-.601 2.478-.515.931.086 1.823.404 2.677.953l.095-.057c-.535-.738-.739-1.466-.61-2.182.15-.729.628-1.333 1.434-1.813 1.038-.618 2.235-.773 3.59-.467 1.358.277 2.578.956 3.66 2.038l10.962 10.962-3.434 2.043-10.727-10.727c-1.011-1.011-2.026-1.215-3.044-.609-1.017.605-1.02 1.414-.008 2.425l10.726 10.727-2.989 1.778-10.726-10.726c-1.012-1.012-2.027-1.215-3.044-.61-.997.593-.989 1.395.023 2.407l10.727 10.727-3.466 2.062zm38.438-22.869l-2.957-2.956 5.978-3.557-8.476-8.477-5.342 3.179-2.957-2.957 9.317-5.543 11.433 11.433 5.374-3.197 2.957 2.957-15.327 9.118zm-9.102-21.375c-.805.48-1.607.692-2.405.638a3.262 3.262 0 01-2.086-.97c-.575-.576-.796-1.168-.661-1.777.118-.626.579-1.179 1.385-1.658.805-.479 1.616-.683 2.431-.612a3.127 3.127 0 012.06.944c.576.576.805 1.177.687 1.803-.135.609-.605 1.153-1.411 1.632zm27.924 10.177l-14.39-14.389 3.879-2.308 2.747 2.747.064-.038c-.751-1.055-.985-2.084-.703-3.087.265-1.02 1.044-1.914 2.337-2.684 1.717-1.021 3.555-1.364 5.515-1.027 1.98.324 3.764 1.279 5.351 2.866l9.445 9.445-3.975 2.365-9.104-9.105c-.872-.872-1.83-1.373-2.873-1.503-1.023-.144-2.011.069-2.965.636-.996.593-1.536 1.304-1.62 2.133-.063.816.359 1.678 1.266 2.585l9 9-3.974 2.364zm25.448-14.764c-1.335.794-2.678 1.329-4.027 1.602-1.366.257-2.649.242-3.85-.046a6.502 6.502 0 01-3.05-1.732l4.006-2.383c.506.505 1.142.753 1.909.742.771-.041 1.58-.314 2.428-.819l1.367-.813c.996-.593 1.59-1.182 1.781-1.769.191-.587.025-1.142-.498-1.665-.994-.994-2.506-1.068-4.535-.223l-2.71 1.195c-4.103 1.746-7.376 1.398-9.818-1.044-1.36-1.361-1.838-2.718-1.433-4.071.408-1.384 1.672-2.706 3.792-3.967l1.208-.719c1.972-1.173 3.918-1.746 5.837-1.72 1.924-.004 3.478.587 4.664 1.773l-4.006 2.384c-.419-.419-.964-.609-1.636-.571-.689.021-1.447.277-2.274.769l-1.208.719c-1.739 1.034-2.093 2.066-1.064 3.095.889.889 2.204.97 3.943.241l2.794-1.162c2.199-.946 4.132-1.345 5.801-1.198 1.691.135 3.172.84 4.446 2.113 1.378 1.378 1.867 2.797 1.469 4.258-.378 1.449-1.69 2.841-3.937 4.178l-1.399.833zm21.13-12.947c-1.632.971-3.32 1.363-5.062 1.176-1.739-.218-3.271-.989-4.597-2.315l-7.116-7.116-4.738 2.819-2.956-2.957 4.738-2.818-4.056-4.056 4.007-2.383 4.055 4.055 6.709-3.992 2.957 2.957-6.71 3.991 7.038 7.038a2.85 2.85 0 001.46.801 2.354 2.354 0 001.601-.327l4.77-2.837 2.956 2.956-5.056 3.008zm15.204-8.628c-1.802 1.072-3.606 1.533-5.412 1.384-1.824-.167-3.407-.922-4.75-2.265-1.413-1.413-1.909-2.856-1.49-4.33.403-1.491 1.664-2.867 3.784-4.128l4.197-2.498-1.204-1.203c-.697-.698-1.514-1.074-2.448-1.13-.935-.056-1.901.212-2.897.805-.912.542-1.507 1.147-1.787 1.814-.258.655-.158 1.262.302 1.824l-3.784 2.251c-1.258-1.394-1.642-2.876-1.151-4.448.494-1.602 1.77-3.014 3.826-4.238 2.162-1.286 4.305-1.865 6.428-1.737 2.122.128 3.943.951 5.46 2.468l9.759 9.759-3.848 2.289-2.433-2.433-.064.038c.604.976.695 1.979.272 3.01-.441 1.013-1.361 1.936-2.76 2.768zm-1.129-3.209c1.123-.668 1.808-1.437 2.054-2.307.25-.9-.009-1.733-.776-2.501l-1.727-1.727-4.102 2.441c-.89.53-1.398 1.138-1.523 1.824-.143.669.109 1.326.754 1.972.68.68 1.488 1.048 2.423 1.104.956.043 1.922-.226 2.897-.806zm24.427-11.069c-1.738 1.034-3.565 1.439-5.479 1.215-1.894-.237-3.538-1.053-4.933-2.448l-11.486-11.486-5.755 3.425-2.957-2.957 9.73-5.789 14.364 14.364c.541.54 1.157.869 1.849.986.695.087 1.361-.058 1.997-.437l5.119-3.046 2.957 2.957-5.406 3.216zm18.79-11.179c-1.738 1.034-3.565 1.439-5.479 1.215-1.894-.236-3.538-1.052-4.933-2.448L722.4 294.505l-5.755 3.424-2.957-2.957 9.73-5.789 14.364 14.364c.541.541 1.157.869 1.849.986.695.087 1.361-.058 1.997-.437l5.119-3.045 2.957 2.956-5.406 3.216z" fill="#000"></path></svg>