<svg viewBox="0 0 1200 900" fill="none" xmlns="http://www.w3.org/2000/svg"><path fill="#fff" d="M0 0h1200v900H0z"></path><path fill-rule="evenodd" clip-rule="evenodd" d="M601 594.36L226.5 377.243v145.73l374.026 215.781.474-48.394-.467-.271.467-47.729-.467-.271.467-47.729z" fill="#CFCFCF"></path><path fill-rule="evenodd" clip-rule="evenodd" d="M974.5 377.243v145.505L601 738.754V594.36l373.5-217.117z" fill="#696969"></path><path fill-rule="evenodd" clip-rule="evenodd" d="M600.5 160.125l374 217.118L601 594.36 226.5 377.243l374-217.118z" fill="#B4B4B4"></path><path d="M813.581 757.512h-5.755c-.105-.745-.319-1.406-.643-1.984a5.067 5.067 0 00-1.249-1.498 5.491 5.491 0 00-1.76-.946 6.735 6.735 0 00-2.142-.329c-1.393 0-2.606.346-3.64 1.038-1.033.684-1.835 1.682-2.404 2.996-.569 1.305-.854 2.891-.854 4.756 0 1.919.285 3.531.854 4.836.578 1.305 1.384 2.29 2.418 2.956 1.033.666 2.229.999 3.587.999.762 0 1.467-.101 2.115-.303a5.554 5.554 0 001.747-.88 5.068 5.068 0 001.262-1.432c.341-.561.578-1.2.709-1.918l5.755.026a10.41 10.41 0 01-1.117 3.574 10.721 10.721 0 01-2.378 3.061c-.99.894-2.172 1.603-3.547 2.129-1.367.516-2.913.775-4.638.775-2.401 0-4.547-.543-6.439-1.629-1.883-1.087-3.372-2.659-4.467-4.717-1.086-2.059-1.629-4.551-1.629-7.477 0-2.934.552-5.43 1.655-7.489 1.104-2.058 2.602-3.626 4.494-4.704 1.892-1.086 4.021-1.629 6.386-1.629 1.559 0 3.004.219 4.336.657a10.984 10.984 0 013.56 1.918 9.86 9.86 0 012.523 3.062c.657 1.209 1.077 2.593 1.261 4.152zm12.772 17.882c-2.041 0-3.806-.433-5.295-1.301-1.481-.876-2.624-2.093-3.43-3.652-.806-1.568-1.208-3.386-1.208-5.453 0-2.085.402-3.907 1.208-5.466.806-1.568 1.949-2.785 3.43-3.653 1.489-.876 3.254-1.314 5.295-1.314s3.801.438 5.282 1.314c1.489.868 2.636 2.085 3.442 3.653.806 1.559 1.209 3.381 1.209 5.466 0 2.067-.403 3.885-1.209 5.453-.806 1.559-1.953 2.776-3.442 3.652-1.481.868-3.241 1.301-5.282 1.301zm.026-4.336c.929 0 1.704-.263 2.326-.788.622-.534 1.09-1.261 1.406-2.181.324-.92.486-1.967.486-3.14 0-1.174-.162-2.221-.486-3.141-.316-.92-.784-1.647-1.406-2.181-.622-.534-1.397-.801-2.326-.801-.937 0-1.726.267-2.365.801-.631.534-1.108 1.261-1.432 2.181-.315.92-.473 1.967-.473 3.141 0 1.173.158 2.22.473 3.14.324.92.801 1.647 1.432 2.181.639.525 1.428.788 2.365.788zm18.822-7.726V775h-5.597v-20.182h5.334v3.561h.237a5.636 5.636 0 012.247-2.786c1.051-.692 2.325-1.038 3.823-1.038 1.402 0 2.624.307 3.666.92 1.042.613 1.853 1.489 2.431 2.628.578 1.13.867 2.479.867 4.047V775h-5.597v-11.852c.008-1.235-.307-2.198-.946-2.89-.64-.701-1.52-1.051-2.641-1.051-.754 0-1.419.162-1.997.486-.57.324-1.017.797-1.341 1.419-.315.613-.477 1.353-.486 2.22zm27.832-8.514v4.205H860.88v-4.205h12.153zm-9.394-4.835h5.597v18.815c0 .517.079.92.237 1.209a1.3 1.3 0 00.657.591c.289.114.622.171.998.171.263 0 .526-.022.789-.066l.604-.118.88 4.165c-.28.088-.674.189-1.182.303-.508.122-1.126.197-1.853.223-1.349.052-2.531-.127-3.547-.539-1.008-.411-1.792-1.051-2.352-1.918-.561-.867-.837-1.962-.828-3.285v-19.551zm18.474 25.398c-1.288 0-2.435-.223-3.443-.67-1.007-.456-1.804-1.126-2.391-2.01-.578-.894-.867-2.006-.867-3.338 0-1.121.206-2.063.617-2.825a5.005 5.005 0 011.682-1.839 8.16 8.16 0 012.418-1.051 18.454 18.454 0 012.864-.5 71.56 71.56 0 002.838-.341c.718-.114 1.24-.28 1.564-.499.324-.219.486-.544.486-.973v-.079c0-.832-.263-1.476-.788-1.931-.517-.456-1.253-.683-2.208-.683-1.007 0-1.809.223-2.404.67-.596.438-.99.99-1.183 1.655l-5.177-.42c.263-1.226.78-2.286 1.551-3.18.771-.902 1.765-1.594 2.982-2.076 1.227-.49 2.646-.736 4.257-.736 1.122 0 2.195.132 3.22.395 1.033.262 1.949.67 2.746 1.222a5.928 5.928 0 011.905 2.128c.464.858.696 1.888.696 3.088V775h-5.308v-2.799h-.158a5.693 5.693 0 01-1.3 1.669c-.544.473-1.196.845-1.958 1.117-.762.263-1.643.394-2.641.394zm1.603-3.863c.823 0 1.55-.162 2.181-.486a3.874 3.874 0 001.485-1.34 3.458 3.458 0 00.538-1.905v-2.142a2.981 2.981 0 01-.722.315c-.298.088-.635.171-1.012.25-.377.07-.753.136-1.13.197l-1.025.144c-.657.097-1.231.25-1.721.46-.491.211-.872.495-1.143.854-.272.351-.408.789-.408 1.314 0 .762.276 1.345.828 1.748.561.394 1.27.591 2.129.591zM897.499 775v-20.182h5.597V775h-5.597zm2.812-22.783c-.832 0-1.546-.276-2.142-.828-.587-.561-.88-1.231-.88-2.01 0-.771.293-1.433.88-1.984a3.015 3.015 0 012.142-.841c.832 0 1.541.28 2.128.841.596.551.894 1.213.894 1.984 0 .779-.298 1.449-.894 2.01-.587.552-1.296.828-2.128.828zm12.545 11.115V775h-5.598v-20.182h5.335v3.561h.236a5.636 5.636 0 012.247-2.786c1.051-.692 2.326-1.038 3.824-1.038 1.401 0 2.623.307 3.665.92 1.043.613 1.853 1.489 2.431 2.628.578 1.13.867 2.479.867 4.047V775h-5.597v-11.852c.009-1.235-.306-2.198-.946-2.89-.639-.701-1.52-1.051-2.641-1.051-.753 0-1.419.162-1.997.486-.569.324-1.016.797-1.34 1.419-.316.613-.478 1.353-.486 2.22zm26.295 12.062c-2.076 0-3.863-.42-5.361-1.261-1.489-.85-2.637-2.05-3.443-3.6-.806-1.56-1.208-3.403-1.208-5.532 0-2.076.402-3.898 1.208-5.466.806-1.568 1.941-2.79 3.403-3.666 1.472-.876 3.198-1.314 5.177-1.314 1.332 0 2.571.215 3.719.644a8.27 8.27 0 013.022 1.905c.867.85 1.541 1.919 2.023 3.206.482 1.279.723 2.777.723 4.494v1.537h-17.042v-3.468h11.773c0-.806-.175-1.52-.526-2.142a3.765 3.765 0 00-1.458-1.459c-.613-.359-1.327-.538-2.142-.538-.849 0-1.603.197-2.26.591a4.15 4.15 0 00-1.524 1.563 4.42 4.42 0 00-.565 2.168v3.298c0 .999.184 1.862.552 2.589a4.049 4.049 0 001.59 1.682c.683.394 1.493.591 2.431.591.622 0 1.191-.088 1.708-.263a3.546 3.546 0 001.327-.788c.368-.351.648-.78.841-1.288l5.177.342a7.064 7.064 0 01-1.617 3.258c-.805.92-1.848 1.638-3.127 2.155-1.27.508-2.737.762-4.401.762zm12.594-.394v-20.182h5.426v3.521h.21c.368-1.252.986-2.198 1.853-2.838.867-.648 1.866-.972 2.996-.972.28 0 .582.018.906.053.325.035.609.083.854.144v4.967a7.232 7.232 0 00-1.09-.21 9.676 9.676 0 00-1.275-.092c-.823 0-1.559.179-2.207.538a3.975 3.975 0 00-1.524 1.472c-.368.631-.552 1.358-.552 2.181V775h-5.597zm23.059 0v-20.182h5.598V775h-5.598zm2.812-22.783c-.832 0-1.546-.276-2.142-.828-.586-.561-.88-1.231-.88-2.01 0-.771.294-1.433.88-1.984a3.015 3.015 0 012.142-.841c.832 0 1.542.28 2.129.841.595.551.893 1.213.893 1.984 0 .779-.298 1.449-.893 2.01-.587.552-1.297.828-2.129.828zM984.564 775v-20.182h5.334v3.561h.237c.42-1.183 1.121-2.116 2.102-2.799.981-.683 2.155-1.025 3.521-1.025 1.384 0 2.562.346 3.535 1.038.977.684 1.617 1.612 1.947 2.786h.21c.41-1.156 1.15-2.08 2.23-2.772 1.09-.701 2.37-1.052 3.85-1.052 1.88 0 3.41.6 4.59 1.8 1.18 1.192 1.77 2.882 1.77 5.072V775h-5.58v-12.469c0-1.121-.3-1.962-.9-2.523-.59-.56-1.34-.841-2.23-.841-1.02 0-1.81.324-2.38.973-.57.639-.85 1.484-.85 2.535V775h-5.43v-12.587c0-.99-.284-1.779-.854-2.365-.56-.587-1.3-.881-2.22-.881-.622 0-1.183.158-1.682.473-.491.307-.88.74-1.169 1.301-.289.552-.434 1.2-.434 1.945V775h-5.597zm39.176.381c-1.28 0-2.43-.223-3.44-.67-1-.456-1.8-1.126-2.39-2.01-.58-.894-.87-2.006-.87-3.338 0-1.121.21-2.063.62-2.825.41-.762.97-1.375 1.68-1.839a8.196 8.196 0 012.42-1.051 18.47 18.47 0 012.87-.5c1.17-.122 2.12-.236 2.83-.341.72-.114 1.24-.28 1.57-.499.32-.219.48-.544.48-.973v-.079c0-.832-.26-1.476-.79-1.931-.51-.456-1.25-.683-2.2-.683-1.01 0-1.81.223-2.41.67-.59.438-.99.99-1.18 1.655l-5.18-.42c.27-1.226.78-2.286 1.55-3.18.77-.902 1.77-1.594 2.99-2.076 1.22-.49 2.64-.736 4.25-.736 1.12 0 2.2.132 3.22.395a8.39 8.39 0 012.75 1.222c.8.551 1.44 1.261 1.9 2.128.47.858.7 1.888.7 3.088V775h-5.31v-2.799h-.16a5.515 5.515 0 01-1.3 1.669c-.54.473-1.19.845-1.95 1.117-.77.263-1.65.394-2.65.394zm1.61-3.863c.82 0 1.55-.162 2.18-.486.63-.333 1.12-.78 1.48-1.34.36-.561.54-1.196.54-1.905v-2.142c-.17.114-.41.219-.72.315-.3.088-.64.171-1.01.25-.38.07-.76.136-1.13.197l-1.03.144c-.65.097-1.23.25-1.72.46-.49.211-.87.495-1.14.854-.27.351-.41.789-.41 1.314 0 .762.28 1.345.83 1.748.56.394 1.27.591 2.13.591zm22.87 11.471c-1.81 0-3.36-.25-4.66-.749-1.29-.491-2.31-1.161-3.08-2.011a6.208 6.208 0 01-1.48-2.864l5.18-.696c.15.403.4.779.75 1.13.34.35.79.63 1.35.841.57.219 1.26.328 2.07.328 1.22 0 2.23-.298 3.01-.893.8-.587 1.2-1.573 1.2-2.957v-3.692h-.24c-.24.561-.61 1.091-1.1 1.59-.49.499-1.12.907-1.89 1.222-.77.315-1.69.473-2.76.473-1.52 0-2.9-.35-4.14-1.051-1.24-.71-2.22-1.792-2.96-3.246-.72-1.462-1.09-3.311-1.09-5.544 0-2.287.37-4.196 1.12-5.729.74-1.533 1.73-2.68 2.97-3.442a7.636 7.636 0 014.08-1.144c1.13 0 2.08.193 2.84.579.76.376 1.38.849 1.84 1.419.48.56.84 1.112 1.09 1.655h.21v-3.39h5.56v20.379c0 1.717-.42 3.153-1.26 4.31-.84 1.156-2.01 2.023-3.5 2.601-1.48.587-3.18.881-5.11.881zm.12-12.483c.9 0 1.67-.223 2.29-.67.63-.455 1.11-1.103 1.44-1.944.34-.85.52-1.866.52-3.049 0-1.182-.17-2.207-.5-3.074-.34-.876-.82-1.555-1.45-2.037s-1.4-.722-2.3-.722c-.92 0-1.69.249-2.32.749-.63.49-1.11 1.173-1.44 2.049-.32.876-.48 1.888-.48 3.035 0 1.165.16 2.173.48 3.022.34.841.81 1.494 1.44 1.958.63.456 1.4.683 2.32.683zm23.08 4.888c-2.08 0-3.86-.42-5.36-1.261a8.596 8.596 0 01-3.44-3.6c-.81-1.56-1.21-3.403-1.21-5.532 0-2.076.4-3.898 1.21-5.466.8-1.568 1.94-2.79 3.4-3.666 1.47-.876 3.2-1.314 5.18-1.314 1.33 0 2.57.215 3.72.644a8.321 8.321 0 013.02 1.905c.87.85 1.54 1.919 2.02 3.206.48 1.279.72 2.777.72 4.494v1.537h-17.04v-3.468h11.78c0-.806-.18-1.52-.53-2.142a3.784 3.784 0 00-1.46-1.459c-.61-.359-1.33-.538-2.14-.538-.85 0-1.6.197-2.26.591-.65.385-1.16.907-1.52 1.563a4.413 4.413 0 00-.57 2.168v3.298c0 .999.18 1.862.55 2.589.38.727.91 1.287 1.59 1.682.69.394 1.5.591 2.43.591.62 0 1.19-.088 1.71-.263a3.55 3.55 0 001.33-.788c.37-.351.65-.78.84-1.288l5.18.342a7.186 7.186 0 01-1.62 3.258c-.81.92-1.85 1.638-3.13 2.155-1.27.508-2.73.762-4.4.762z" fill="#000"></path></svg>