<svg viewBox="0 0 1200 900" fill="none" xmlns="http://www.w3.org/2000/svg"><path fill="#fff" d="M0 0h1200v900H0z"></path><path fill-rule="evenodd" clip-rule="evenodd" d="M226.5 473.243L601 690.36l-.474 48.394L226.5 522.973v-49.73z" fill="#C5DDDA"></path><path fill-rule="evenodd" clip-rule="evenodd" d="M974.5 522.748v-49.505L601 690.36v48.394l373.5-216.006z" fill="#4F877F"></path><path fill-rule="evenodd" clip-rule="evenodd" d="M600.5 208.125l374 217.118L601 642.36 226.5 425.243l374-217.118z" fill="#F2D694"></path><path fill-rule="evenodd" clip-rule="evenodd" d="M226.5 425.243L601 642.36l-.474 48.394L226.5 474.973v-49.73z" fill="#F7E7BF"></path><path fill-rule="evenodd" clip-rule="evenodd" d="M974.5 474.748v-49.505L601 642.36v48.394l373.5-216.006z" fill="#E7B237"></path><path d="M789.839 775v-26.909h5.689v22.218h11.536V775h-17.225zm26.321.381c-1.288 0-2.435-.223-3.442-.67-1.008-.456-1.805-1.126-2.392-2.01-.578-.894-.867-2.006-.867-3.338 0-1.121.206-2.063.618-2.825a4.994 4.994 0 011.681-1.839 8.16 8.16 0 012.418-1.051 18.454 18.454 0 012.864-.5 71.56 71.56 0 002.838-.341c.719-.114 1.24-.28 1.564-.499.324-.219.486-.544.486-.973v-.079c0-.832-.263-1.476-.788-1.931-.517-.456-1.253-.683-2.208-.683-1.007 0-1.808.223-2.404.67-.596.438-.99.99-1.183 1.655l-5.176-.42c.262-1.226.779-2.286 1.55-3.18.771-.902 1.765-1.594 2.983-2.076 1.226-.49 2.645-.736 4.257-.736 1.121 0 2.194.132 3.219.395 1.033.262 1.949.67 2.746 1.222a5.928 5.928 0 011.905 2.128c.464.858.696 1.888.696 3.088V775h-5.308v-2.799h-.157a5.713 5.713 0 01-1.301 1.669c-.543.473-1.196.845-1.958 1.117-.762.263-1.642.394-2.641.394zm1.603-3.863c.823 0 1.55-.162 2.181-.486a3.867 3.867 0 001.485-1.34 3.458 3.458 0 00.539-1.905v-2.142a2.99 2.99 0 01-.723.315c-.298.088-.635.171-1.012.25-.376.07-.753.136-1.13.197l-1.025.144c-.657.097-1.23.25-1.721.46-.49.211-.871.495-1.143.854-.272.351-.407.789-.407 1.314 0 .762.276 1.345.827 1.748.561.394 1.271.591 2.129.591zm16.516 11.05a11.08 11.08 0 01-1.997-.171c-.613-.105-1.121-.241-1.524-.407l1.261-4.178c.657.201 1.248.311 1.774.328.534.018.994-.105 1.38-.368.394-.262.714-.709.959-1.34l.328-.854-7.239-20.76h5.886l4.178 14.821h.21l4.218-14.821h5.926l-7.844 22.363c-.377 1.086-.889 2.032-1.537 2.838a6.303 6.303 0 01-2.431 1.879c-.981.447-2.164.67-3.548.67zm26.45-7.174c-2.076 0-3.863-.42-5.361-1.261-1.489-.85-2.637-2.05-3.443-3.6-.806-1.56-1.208-3.403-1.208-5.532 0-2.076.402-3.898 1.208-5.466.806-1.568 1.941-2.79 3.403-3.666 1.472-.876 3.198-1.314 5.177-1.314 1.332 0 2.571.215 3.719.644a8.27 8.27 0 013.022 1.905c.867.85 1.541 1.919 2.023 3.206.482 1.279.723 2.777.723 4.494v1.537H852.95v-3.468h11.773c0-.806-.175-1.52-.526-2.142a3.765 3.765 0 00-1.458-1.459c-.613-.359-1.327-.538-2.142-.538-.849 0-1.603.197-2.26.591a4.15 4.15 0 00-1.524 1.563 4.42 4.42 0 00-.565 2.168v3.298c0 .999.184 1.862.552 2.589a4.049 4.049 0 001.59 1.682c.683.394 1.493.591 2.431.591.621 0 1.191-.088 1.708-.263a3.554 3.554 0 001.327-.788c.368-.351.648-.78.841-1.288l5.176.342a7.053 7.053 0 01-1.616 3.258c-.806.92-1.848 1.638-3.127 2.155-1.27.508-2.737.762-4.401.762zm12.594-.394v-20.182h5.426v3.521h.21c.368-1.252.986-2.198 1.853-2.838.867-.648 1.866-.972 2.996-.972.28 0 .582.018.906.053.324.035.609.083.854.144v4.967a7.232 7.232 0 00-1.09-.21 9.676 9.676 0 00-1.275-.092c-.823 0-1.559.179-2.207.538a3.968 3.968 0 00-1.524 1.472c-.368.631-.552 1.358-.552 2.181V775h-5.597zm23.007 0v-4.099l9.578-8.869a36.27 36.27 0 002.05-2.129c.561-.631.985-1.248 1.274-1.853.29-.613.434-1.274.434-1.984 0-.788-.18-1.467-.539-2.036a3.53 3.53 0 00-1.471-1.327c-.622-.316-1.327-.473-2.116-.473-.823 0-1.541.166-2.154.499a3.44 3.44 0 00-1.42 1.432c-.332.622-.499 1.362-.499 2.221h-5.4c0-1.761.399-3.289 1.196-4.586.797-1.296 1.914-2.299 3.35-3.009 1.437-.709 3.092-1.064 4.967-1.064 1.927 0 3.604.342 5.032 1.025 1.437.674 2.553 1.612 3.351 2.812.797 1.2 1.195 2.575 1.195 4.125a7.918 7.918 0 01-.604 3.009c-.394.99-1.099 2.089-2.116 3.298-1.016 1.2-2.448 2.641-4.296 4.323l-3.929 3.85v.184h11.3V775H896.33zM543.798 471.368c-1.505.896-3.035 1.445-4.591 1.647a10.547 10.547 0 01-4.538-.43c-1.448-.501-2.748-1.328-3.899-2.479l-8.32-8.32c-1.151-1.151-1.848-2.322-2.092-3.512-.24-1.221-.036-2.385.613-3.495.632-1.126 1.7-2.138 3.205-3.033 1.484-.883 3.013-1.417 4.586-1.602a10.081 10.081 0 014.538.43c1.452.472 2.753 1.283 3.904 2.434l-4.006 2.384c-.89-.89-1.867-1.393-2.931-1.511-1.061-.148-2.132.1-3.213.743s-1.683 1.377-1.806 2.201c-.122.824.261 1.681 1.151 2.57l8.346 8.346c.889.89 1.875 1.402 2.957 1.537 1.064.118 2.137-.144 3.218-.788 1.081-.643 1.673-1.37 1.774-2.182.105-.841-.287-1.707-1.176-2.596l4.006-2.384c1.151 1.151 1.847 2.337 2.087 3.557.222 1.203.018 2.368-.614 3.495-.648 1.109-1.715 2.105-3.199 2.988zm18.663-11.103c-2.226 1.324-4.502 1.872-6.828 1.642-2.322-.26-4.346-1.253-6.073-2.98l-8.32-8.32c-1.727-1.726-2.449-3.48-2.168-5.261.285-1.811 1.541-3.379 3.767-4.703 2.226-1.324 4.5-1.857 6.822-1.597 2.326.23 4.343 1.199 6.053 2.909l8.346 8.346c1.727 1.726 2.447 3.495 2.162 5.306-.281 1.781-1.535 3.334-3.761 4.658zm-2.878-2.878c1.081-.643 1.662-1.364 1.742-2.163.063-.816-.35-1.669-1.24-2.559l-8.32-8.319c-.889-.89-1.845-1.406-2.867-1.549-1.04-.161-2.1.081-3.181.724s-1.653 1.373-1.716 2.189c-.08.799.324 1.643 1.214 2.533l8.32 8.319c.889.89 1.854 1.415 2.893 1.575 1.022.143 2.074-.107 3.155-.75zm14.315-4.344l-19.099-19.099 7.727-4.597c1.548-.92 3.138-1.477 4.771-1.67 1.654-.205 3.244-.052 4.77.459 1.508.494 2.855 1.334 4.041 2.52 1.186 1.186 1.906 2.413 2.16 3.681.236 1.25.015 2.467-.663 3.649-.656 1.169-1.758 2.214-3.305 3.135l-3.753 2.232 7.326 7.326-3.975 2.364zm-6.229-12.568l3.753-2.232c1.123-.669 1.734-1.477 1.833-2.427.1-.949-.296-1.868-1.185-2.758-.89-.889-1.942-1.417-3.158-1.585-1.215-.167-2.384.084-3.508.752l-3.752 2.233 6.017 6.017zm30.107-1.637l-6.933-6.934-18.971-8.117 4.166-2.478 10.244 4.462c.799.36 1.546.736 2.243 1.128.697.392 1.216.709 1.559.95a62.59 62.59 0 01-.796-1.404 17.18 17.18 0 01-.844-1.96l-3.089-8.719 4.133-2.459 5.361 16.214 6.933 6.933-4.006 2.384zm39.845-23.288c-.912.542-1.861.759-2.849.651-.966-.121-1.824-.556-2.574-1.306-.75-.75-1.078-1.501-.984-2.252.098-.781.603-1.443 1.514-1.986.912-.542 1.859-.744 2.843-.606.987.108 1.855.537 2.605 1.287.75.75 1.068 1.507.953 2.271-.094.752-.597 1.399-1.508 1.941zm37.579-22.358c-.911.543-1.861.76-2.848.651-.966-.12-1.824-.556-2.574-1.306-.75-.75-1.078-1.5-.984-2.252.098-.781.602-1.443 1.514-1.985.911-.543 1.859-.745 2.842-.606.988.108 1.856.537 2.606 1.287.75.75 1.068 1.507.953 2.271-.094.751-.597 1.398-1.509 1.94z" fill="#000"></path></svg>