<svg viewBox="0 0 1200 900" fill="none" xmlns="http://www.w3.org/2000/svg"><path fill="#fff" d="M0 0h1200v900H0z"></path><path fill-rule="evenodd" clip-rule="evenodd" d="M600.5 256.125l374 217.118L601 690.36 226.5 473.243l374-217.118z" fill="#86B8B1"></path><path fill-rule="evenodd" clip-rule="evenodd" d="M226.5 473.243L601 690.36l-.474 48.394L226.5 522.973v-49.73z" fill="#C5DDDA"></path><path fill-rule="evenodd" clip-rule="evenodd" d="M974.5 522.748v-49.505L601 690.36v48.394l373.5-216.006z" fill="#4F877F"></path><path d="M789.839 775v-26.909h5.689v22.218h11.536V775h-17.225zm26.321.381c-1.288 0-2.435-.223-3.442-.67-1.008-.456-1.805-1.126-2.392-2.01-.578-.894-.867-2.006-.867-3.338 0-1.121.206-2.063.618-2.825a4.994 4.994 0 011.681-1.839 8.16 8.16 0 012.418-1.051 18.454 18.454 0 012.864-.5 71.56 71.56 0 002.838-.341c.719-.114 1.24-.28 1.564-.499.324-.219.486-.544.486-.973v-.079c0-.832-.263-1.476-.788-1.931-.517-.456-1.253-.683-2.208-.683-1.007 0-1.808.223-2.404.67-.596.438-.99.99-1.183 1.655l-5.176-.42c.262-1.226.779-2.286 1.55-3.18.771-.902 1.765-1.594 2.983-2.076 1.226-.49 2.645-.736 4.257-.736 1.121 0 2.194.132 3.219.395 1.033.262 1.949.67 2.746 1.222a5.928 5.928 0 011.905 2.128c.464.858.696 1.888.696 3.088V775h-5.308v-2.799h-.157a5.713 5.713 0 01-1.301 1.669c-.543.473-1.196.845-1.958 1.117-.762.263-1.642.394-2.641.394zm1.603-3.863c.823 0 1.55-.162 2.181-.486a3.867 3.867 0 001.485-1.34 3.458 3.458 0 00.539-1.905v-2.142a2.99 2.99 0 01-.723.315c-.298.088-.635.171-1.012.25-.376.07-.753.136-1.13.197l-1.025.144c-.657.097-1.23.25-1.721.46-.49.211-.871.495-1.143.854-.272.351-.407.789-.407 1.314 0 .762.276 1.345.827 1.748.561.394 1.271.591 2.129.591zm16.516 11.05a11.08 11.08 0 01-1.997-.171c-.613-.105-1.121-.241-1.524-.407l1.261-4.178c.657.201 1.248.311 1.774.328.534.018.994-.105 1.38-.368.394-.262.714-.709.959-1.34l.328-.854-7.239-20.76h5.886l4.178 14.821h.21l4.218-14.821h5.926l-7.844 22.363c-.377 1.086-.889 2.032-1.537 2.838a6.303 6.303 0 01-2.431 1.879c-.981.447-2.164.67-3.548.67zm26.45-7.174c-2.076 0-3.863-.42-5.361-1.261-1.489-.85-2.637-2.05-3.443-3.6-.806-1.56-1.208-3.403-1.208-5.532 0-2.076.402-3.898 1.208-5.466.806-1.568 1.941-2.79 3.403-3.666 1.472-.876 3.198-1.314 5.177-1.314 1.332 0 2.571.215 3.719.644a8.27 8.27 0 013.022 1.905c.867.85 1.541 1.919 2.023 3.206.482 1.279.723 2.777.723 4.494v1.537H852.95v-3.468h11.773c0-.806-.175-1.52-.526-2.142a3.765 3.765 0 00-1.458-1.459c-.613-.359-1.327-.538-2.142-.538-.849 0-1.603.197-2.26.591a4.15 4.15 0 00-1.524 1.563 4.42 4.42 0 00-.565 2.168v3.298c0 .999.184 1.862.552 2.589a4.049 4.049 0 001.59 1.682c.683.394 1.493.591 2.431.591.621 0 1.191-.088 1.708-.263a3.554 3.554 0 001.327-.788c.368-.351.648-.78.841-1.288l5.176.342a7.053 7.053 0 01-1.616 3.258c-.806.92-1.848 1.638-3.127 2.155-1.27.508-2.737.762-4.401.762zm12.594-.394v-20.182h5.426v3.521h.21c.368-1.252.986-2.198 1.853-2.838.867-.648 1.866-.972 2.996-.972.28 0 .582.018.906.053.324.035.609.083.854.144v4.967a7.232 7.232 0 00-1.09-.21 9.676 9.676 0 00-1.275-.092c-.823 0-1.559.179-2.207.538a3.968 3.968 0 00-1.524 1.472c-.368.631-.552 1.358-.552 2.181V775h-5.597zm34.714-26.909V775h-5.689v-21.509h-.158l-6.162 3.863v-5.045l6.661-4.218h5.348zM527.414 531.593l-19.099-19.099 14.436-8.589 3.035 3.035-10.525 6.262 5.102 5.101 9.698-5.769 3.035 3.034-9.635 5.733 7.928 7.927-3.975 2.365zm18.663-11.103l-19.099-19.099 7.345-4.37c1.547-.921 3.118-1.48 4.713-1.678 1.616-.21 3.169-.077 4.659.4 1.474.458 2.786 1.263 3.937 2.415 1.273 1.273 1.997 2.622 2.172 4.048.179 1.396-.188 2.686-1.101 3.869l12.668 5.315-4.451 2.649-11.626-5.185-2.83 1.684 7.587 7.587-3.974 2.365zm-6.491-12.83l3.371-2.006c1.123-.668 1.75-1.444 1.88-2.329.13-.884-.249-1.771-1.139-2.66-.889-.89-1.924-1.401-3.105-1.533-1.159-.145-2.29.111-3.392.766l-3.371 2.006 5.756 5.756zm32.665-2.325c-2.226 1.324-4.502 1.871-6.828 1.642-2.322-.26-4.347-1.253-6.073-2.98l-8.32-8.32c-1.727-1.727-2.449-3.481-2.168-5.262.285-1.811 1.541-3.378 3.767-4.702 2.226-1.325 4.5-1.857 6.822-1.597 2.326.229 4.343 1.199 6.053 2.908l8.346 8.346c1.726 1.727 2.447 3.496 2.162 5.307-.282 1.781-1.535 3.333-3.761 4.658zm-2.878-2.878c1.081-.643 1.662-1.364 1.742-2.163.063-.817-.351-1.669-1.24-2.559l-8.32-8.32c-.889-.889-1.845-1.406-2.867-1.549-1.04-.16-2.1.081-3.181.724-1.082.644-1.653 1.373-1.716 2.19-.081.799.324 1.643 1.214 2.532l8.319 8.32c.89.89 1.855 1.415 2.894 1.575 1.022.143 2.074-.107 3.155-.75zm13.647-3.947l-19.099-19.099 4.707-2.8 8.295 4.746c.844.472 1.582.923 2.215 1.353.637.4 1.099.709 1.385.928a22.15 22.15 0 01-.844-1.25 30.412 30.412 0 01-1.102-2.015l-3.876-7.375 4.738-2.819 19.099 19.099-3.72 2.214-8.033-8.032c-1.761-1.762-3.307-3.443-4.638-5.044a162.88 162.88 0 01-3.744-4.658l5.878 10.9-3.466 2.062-12.023-6.952a182.757 182.757 0 014.633 3.67c1.639 1.334 3.4 2.943 5.284 4.827l8.032 8.032-3.721 2.213zm38.248-22.755l-14.39-14.389 3.88-2.308 2.747 2.747.063-.038c-.751-1.055-.985-2.084-.703-3.087.265-1.02 1.044-1.914 2.337-2.684 1.717-1.021 3.556-1.364 5.515-1.027 1.981.324 3.764 1.279 5.352 2.866l9.445 9.445-3.975 2.365-9.105-9.105c-.872-.872-1.83-1.373-2.873-1.504-1.022-.143-2.01.07-2.964.637-.996.593-1.537 1.304-1.621 2.133-.062.816.36 1.678 1.267 2.585l9 9-3.975 2.364zm26.116-15.162c-2.247 1.337-4.533 1.891-6.859 1.661-2.344-.247-4.379-1.234-6.105-2.961l-3.559-3.558c-1.726-1.727-2.438-3.487-2.136-5.28.286-1.811 1.552-3.385 3.799-4.722 2.247-1.337 4.542-1.882 6.885-1.635 2.326.23 4.344 1.199 6.053 2.909l3.585 3.584c1.726 1.727 2.447 3.496 2.162 5.307-.303 1.793-1.578 3.358-3.825 4.695zm-2.851-2.851c1.059-.631 1.64-1.352 1.742-2.164.105-.841-.296-1.715-1.203-2.622l-3.558-3.558c-.907-.907-1.893-1.42-2.957-1.538-1.061-.147-2.122.094-3.181.725-1.06.63-1.643 1.366-1.748 2.208-.102.811.301 1.67 1.208 2.577l3.558 3.558c.907.907 1.891 1.435 2.952 1.583 1.064.118 2.127-.139 3.187-.769zm20.077-7.355c-1.695 1.009-3.57 1.331-5.625.968-2.054-.364-3.918-1.383-5.592-3.057l-3.899-3.899c-1.692-1.692-2.515-3.344-2.471-4.956.066-1.625.957-2.948 2.675-3.969 1.208-.719 2.478-1.072 3.811-1.058 1.315-.003 2.585.354 3.81 1.072l.064-.038-3.398-3.195-4.029-4.029 3.975-2.365 19.099 19.099-3.88 2.308-2.59-2.59-.032.019c.589 1.096.723 2.143.403 3.141-.318.968-1.091 1.817-2.321 2.549zm-1.331-3.715c1.018-.606 1.549-1.325 1.595-2.159.066-.846-.363-1.732-1.287-2.656l-3.454-3.453c-.924-.925-1.925-1.47-3.004-1.635-1.057-.178-2.094.036-3.111.641-1.018.606-1.569 1.323-1.653 2.152-.084.828.328 1.696 1.235 2.603l3.61 3.611c.907.907 1.891 1.434 2.952 1.582 1.061.148 2.1-.081 3.117-.686zm21.743-8.429c-1.484.883-3.012 1.417-4.586 1.602a10.562 10.562 0 01-4.538-.43c-1.448-.502-2.739-1.32-3.872-2.453l-3.611-3.611c-1.134-1.133-1.822-2.295-2.066-3.486-.24-1.22-.044-2.394.587-3.521.632-1.126 1.689-2.131 3.173-3.014 1.463-.87 2.97-1.391 4.522-1.564a10.089 10.089 0 014.533.475c1.452.472 2.744 1.274 3.878 2.408l2.59 2.59-10.779 6.413 1.02 1.021c2.041 2.04 4.238 2.361 6.591.961 1.823-1.085 2.396-2.219 1.72-3.402l3.911-2.327c.942 1.415 1.13 2.888.566 4.42-.56 1.502-1.773 2.808-3.639 3.918zm-12.759-7.181l.549.55 6.906-4.151-.55-.549c-.994-.994-2.039-1.583-3.134-1.765-1.113-.201-2.242.04-3.387.721-1.166.694-1.775 1.487-1.828 2.381-.032.881.449 1.819 1.444 2.813z" fill="#000"></path></svg>