<svg xmlns="http://www.w3.org/2000/svg" viewBox="0 0 883 382"><path fill-opacity="0" fill="#fff" d="M80 122h754v186H80z"></path><path d="M80 261h754v1H80zm0-46h754v1H80zm0-47h754v1H80zm0-46h754v1H80z" fill="#e0e0e0"></path><path fill="#9e9e9e" d="M80 307h754v1H80z"></path><g stroke-width="3" fill="none" fill-rule="evenodd" transform="translate(81,122)"><g stroke="#2196f3"><path id="anime-path" d="M.9 185.5h747.3"></path></g><path stroke="#f44336" d="M.9 185.5h750.2"></path><path stroke="#ffca28" d="M.9 185.5H200l2.9-1.8 2.9 1.8h138.5l2.8-1.8 2.9 1.8h2.9l2.9-1.8 2.9 1.8h63.5l2.8-1.8 2.9 1.8h52l2.8-1.8 2.9 1.8h8.7l2.9-1.8 2.9 1.8h92.3l2.9-1.8 2.8 1.8h2.9l2.9-1.8 2.9 1.8h5.8l2.9-1.8 2.8 1.8h8.7l2.9-1.8 2.9 1.8h46.1l2.9-1.8 2.9 1.8h31.7l2.9-1.8 2.9 1.8h8.7l2.8-1.8h2.9l2.9 1.8h2.9l2.9-1.8 2.9 1.8h2.9"></path><path stroke="#43a047" d="M.9 180l2.9 1.8 2.9-5.5 2.9 1.8h11.5L24 180h2.9l2.9-1.9 2.9-1.8h5.7l2.9 1.8h14.5l2.8 1.9h2.9l2.9-3.7 2.9 3.7 2.9-1.9h2.9L76 180l2.8-3.7h2.9l2.9 3.7 2.9 1.8h2.9l2.9-3.7 2.8-1.8 2.9 1.8 2.9-1.8 2.9 1.8 2.9-1.8 2.9 3.7 2.9-1.9 2.8-3.7h2.9l2.9-1.8 2.9 3.7 2.9-1.9 2.9 1.9h2.9l2.8-5.6 2.9-1.8 2.9 7.4h2.9l2.9-1.9 2.9 1.9h2.9l2.8-5.6h2.9l2.9 3.7 2.9-1.8h5.8l2.8-5.6 2.9 1.9 2.9-3.7 2.9 5.5 2.9-7.4 2.9 3.7 2.9 1.9 2.8 1.8 2.9-3.7 2.9 3.7h8.7l2.9-1.8 2.8 3.7 2.9-3.7 2.9 3.7h2.9l2.9 1.8 2.9-1.8 2.8 1.8 2.9-1.8 2.9 1.8 2.9 1.9 2.9-5.6 2.9 3.7 2.9-1.8 2.8 1.8 2.9-5.5 2.9 3.7 2.9-1.9h5.8l2.9 3.7 2.8-3.7h11.6l2.9-1.8 2.8 1.8 2.9 1.9 2.9-1.9h2.9l2.9-1.8 2.9 1.8 2.9-1.8 2.8 1.8h8.7l2.9 3.7 2.9-3.7h8.6l2.9 1.9 2.9 1.8 2.9-1.8 2.9 1.8h5.7l2.9-1.8h2.9l2.9-1.9 2.9 3.7h2.9l2.8-3.7 2.9 3.7 2.9-3.7 2.9 3.7h5.8l2.9-1.8 2.8 3.7 2.9 1.8 2.9-3.7 2.9-1.8 2.9 1.8h5.8l2.8-1.8h2.9l2.9 1.8 2.9 1.9 2.9-3.7 2.9 1.8h11.5l2.9-1.8 2.9 5.5 2.9-1.8h2.8l2.9-1.9 2.9 1.9h2.9l2.9-1.9h2.9l2.9 1.9 2.8-1.9h2.9l2.9 1.9h2.9l2.9-1.9h2.9l2.8 1.9h2.9l2.9 1.8h2.9l2.9-1.8h2.9l2.9 1.8h2.8l2.9-1.8h11.6l2.9 1.8 2.8 1.9h2.9l2.9-1.9h2.9l2.9-1.8 2.9 1.8 2.8 1.9h2.9l2.9-1.9h2.9l2.9-1.8 2.9 1.8h5.7l2.9 1.9h2.9l2.9-1.9h2.9l2.9-1.8 2.9 1.8h2.8l2.9 1.9 2.9-1.9 2.9 1.9h2.9l2.9-1.9h2.8l2.9 1.9 2.9-1.9h2.9l2.9 1.9 2.9-1.9h2.9l2.8 1.9h2.9l2.9-1.9 2.9 1.9h2.9l2.9-3.7h2.9l2.8 3.7h5.8l2.9-1.9 2.9 1.9 2.9-1.9 2.9 1.9 2.8-1.9 2.9-3.7 2.9 1.9 2.9 1.8 2.9 1.9h20.2l2.9 1.8h8.6l2.9-1.8 2.9 1.8h17.3l2.9-1.8 2.9 1.8 2.8-1.8 2.9 1.8h11.6l2.9-5.5"></path></g><path fill="#999" d="M321.4 303h1v5h-1z"></path><path fill-opacity="0" fill="#fff" d="M49.9 310.5h64v12h-64z"></path><g fill="#9e9e9e" transform="translate(49,307)" style="white-space:pre">‪ 25 May 2015</g><path d="M375.418 312.169v8.531h-4.148v-8.531h4.148zm-1.921 4.265l1.605 3.774v-7.541l-1.605 3.767zm-.34 0l-1.57-3.697v7.4l1.57-3.703zm.17.399l-1.506 3.55h3.017l-1.511-3.55zm-1.506-4.348l1.506 3.55 1.511-3.55h-3.017zm8.455-.357v8.572h-1.09v-7.225l-2.186.803v-.984l3.106-1.166h.17zm8.525 3.527v1.406q0 1.905-.65 2.83-.65.926-2.033.926-1.366 0-2.022-.905-.656-.905-.68-2.704v-1.447q0-1.881.65-2.795.651-.914 2.04-.914 1.377 0 2.027.881.65.882.668 2.722zm-1.084 1.7v-1.776q0-1.377-.387-2.007-.386-.63-1.224-.63-.832 0-1.213.627-.38.627-.393 1.928v1.734q0 1.383.402 2.042.401.66 1.216.66.802 0 1.192-.622.39-.62.407-1.957zm9.299.872v-6.058h1.13v6.04q0 1.225-.734 1.917-.736.691-1.96.691-1.272 0-1.98-.65-.71-.65-.71-1.822h1.125q0 .732.401 1.142.402.41 1.164.41.697 0 1.128-.44.43-.439.436-1.23zm6.814 2.473l-.023-.627q-.633.744-1.857.744-1.014 0-1.544-.589t-.536-1.743v-4.125h1.084v4.096q0 1.441 1.171 1.441 1.243 0 1.653-.926v-4.61h1.084v6.339h-1.032zm3.856-9v9h-1.084v-9h1.084zm10.184 8.115v.885h-5.59v-.78l2.953-3.28q.656-.745.905-1.21.25-.466.25-.964 0-.668-.405-1.096-.404-.428-1.078-.428-.809 0-1.257.46-.448.46-.448 1.28h-1.084q0-1.177.758-1.904.76-.726 2.03-.726 1.19 0 1.882.624.691.624.691 1.66 0 1.26-1.605 3l-2.286 2.48h4.284zm6.498-4.16v1.406q0 1.905-.65 2.83-.651.926-2.034.926-1.365 0-2.021-.905-.657-.905-.68-2.704v-1.447q0-1.881.65-2.795.65-.914 2.04-.914 1.376 0 2.027.881.65.882.668 2.722zm-1.084 1.7v-1.776q0-1.377-.387-2.007-.387-.63-1.225-.63-.832 0-1.213.627-.38.627-.392 1.928v1.734q0 1.383.401 2.042.402.66 1.216.66.803 0 1.192-.622.39-.62.408-1.957zm6.035-5.227v8.572h-1.09v-7.225l-2.186.803v-.984l3.106-1.166h.17zm7.236.035h.193v.92h-.199q-1.265.023-2.015.75-.75.726-.868 2.045.674-.774 1.84-.774 1.114 0 1.779.785.665.786.665 2.028 0 1.318-.718 2.11-.718.79-1.925.79-1.225 0-1.986-.94-.762-.94-.762-2.423v-.416q0-2.356 1.005-3.6 1.005-1.246 2.991-1.275zm-1.23 3.844q-.557 0-1.026.334t-.65.838v.398q0 1.055.474 1.7.475.644 1.184.644.732 0 1.151-.54.42-.538.42-1.411 0-.88-.425-1.421-.425-.542-1.128-.542zm7.933-3.838v8.531h-4.148v-8.531h4.148zm-1.922 4.265l1.606 3.774v-7.541l-1.606 3.767zm-.34 0l-1.57-3.697v7.4l1.57-3.703zm.17.399l-1.505 3.55h3.017l-1.512-3.55zm-1.505-4.348l1.505 3.55 1.512-3.55h-3.017zm253.499-.316v8.531h-4.15v-8.531h4.15zm-1.923 4.265l1.606 3.774v-7.541l-1.606 3.767zm-.34 0l-1.57-3.697v7.4l1.57-3.703zm.17.399l-1.505 3.55h3.017l-1.511-3.55zm-1.505-4.348l1.506 3.55 1.511-3.55h-3.017zm10.482 7.33v.885h-5.59v-.78l2.953-3.28q.657-.745.906-1.21.249-.466.249-.964 0-.668-.405-1.096-.404-.428-1.078-.428-.808 0-1.257.46-.448.46-.448 1.28h-1.084q0-1.177.759-1.904.759-.726 2.03-.726 1.19 0 1.881.624.692.624.692 1.66 0 1.26-1.606 3l-2.285 2.48h4.283zm5.21-7.652h.192v.92h-.199q-1.265.023-2.015.75-.75.726-.868 2.045.674-.774 1.84-.774 1.114 0 1.779.785.665.786.665 2.028 0 1.318-.718 2.11-.718.79-1.925.79-1.225 0-1.986-.94-.762-.94-.762-2.423v-.416q0-2.356 1.005-3.6 1.005-1.246 2.991-1.275zm-1.231 3.844q-.557 0-1.026.334-.468.334-.65.838v.398q0 1.055.474 1.7.475.644 1.184.644.732 0 1.151-.54.42-.538.42-1.411 0-.88-.425-1.421-.425-.542-1.128-.542zm12.685 4.693l-.814-2.227h-3.574l-.803 2.227h-1.16l3.257-8.531h.985l3.263 8.531h-1.154zm-2.601-7.143l-1.448 3.99h2.9l-1.452-3.99zm8.607 7.143l-.023-.627q-.633.744-1.858.744-1.013 0-1.544-.589-.53-.589-.536-1.743v-4.125h1.084v4.096q0 1.441 1.172 1.441 1.242 0 1.652-.926v-4.61h1.084v6.339h-1.03zm2.42-3.223q0-1.482.686-2.358.685-.876 1.816-.876 1.16 0 1.81.82l.053-.703h.99v6.188q0 1.23-.729 1.94-.73.708-1.96.708-.686 0-1.342-.293t-1.002-.803l.563-.65q.697.861 1.705.861.79 0 1.233-.445.443-.445.443-1.254v-.545q-.65.75-1.776.75-1.113 0-1.802-.896-.688-.897-.688-2.444zm1.09.123q0 1.073.44 1.685.439.612 1.23.612 1.025 0 1.506-.931v-2.895q-.498-.908-1.495-.908-.79 0-1.236.615-.445.615-.445 1.822zm14.35 2.215v.885h-5.59v-.78l2.953-3.28q.656-.745.905-1.21.249-.466.249-.964 0-.668-.404-1.096-.405-.428-1.078-.428-.809 0-1.257.46-.448.46-.448 1.28h-1.084q0-1.177.758-1.904.76-.726 2.03-.726 1.19 0 1.881.624.692.624.692 1.66 0 1.26-1.606 3l-2.285 2.48h4.283zm6.497-4.16v1.406q0 1.905-.65 2.83-.65.926-2.033.926-1.365 0-2.022-.905-.656-.905-.68-2.704v-1.447q0-1.881.651-2.795.65-.914 2.04-.914 1.376 0 2.027.881.65.882.667 2.722zm-1.084 1.7v-1.776q0-1.377-.386-2.007-.387-.63-1.225-.63-.832 0-1.213.627-.38.627-.392 1.928v1.734q0 1.383.401 2.042.401.66 1.216.66.803 0 1.192-.622.39-.62.407-1.957zm6.036-5.227v8.572h-1.09v-7.225l-2.186.803v-.984l3.106-1.166h.17zm8.35 2.267q0 .639-.338 1.137-.337.498-.91.78.667.286 1.057.837.39.551.39 1.248 0 1.108-.748 1.764-.747.656-1.965.656-1.23 0-1.972-.659-.741-.66-.741-1.76 0-.692.378-1.249.378-.556 1.046-.844-.569-.28-.897-.779-.328-.498-.328-1.13 0-1.079.691-1.712.692-.632 1.823-.632 1.125 0 1.819.632.694.633.694 1.711zm-.886 3.979q0-.715-.454-1.166-.454-.451-1.186-.451-.733 0-1.175.445-.442.445-.442 1.172 0 .726.43 1.142.431.416 1.199.416.761 0 1.195-.419.433-.418.433-1.14zm-1.628-5.432q-.64 0-1.035.396-.395.395-.395 1.075 0 .65.39 1.052.39.401 1.04.401t1.04-.401q.39-.402.39-1.052t-.405-1.06q-.404-.41-1.025-.41zm8.103-.773v8.531h-4.148v-8.531h4.148zm-1.922 4.265l1.606 3.774v-7.541l-1.606 3.767zm-.34 0l-1.57-3.697v7.4l1.57-3.703zm.17.399l-1.506 3.55h3.018l-1.512-3.55zm-1.506-4.348l1.506 3.55 1.512-3.55h-3.018z" fill="#9e9e9e" fill-rule="evenodd"></path><path d="M66.299 264.58v.884h-5.59v-.78l2.953-3.28q.656-.745.905-1.21.25-.466.25-.964 0-.668-.405-1.096-.404-.428-1.078-.428-.809 0-1.257.46-.448.46-.448 1.28h-1.084q0-1.177.759-1.904.758-.726 2.03-.726 1.19 0 1.88.624.692.624.692 1.66 0 1.26-1.605 3l-2.285 2.48h4.283zm2.513-3.17l-.867-.223.434-4.254h4.371v1.002h-3.451l-.258 2.326q.627-.37 1.424-.37 1.166 0 1.851.771.686.77.686 2.083 0 1.319-.712 2.077-.712.76-1.99.76-1.13 0-1.845-.628-.715-.627-.814-1.734h1.025q.1.732.522 1.104.421.372 1.113.372.756 0 1.186-.515.431-.516.431-1.424 0-.856-.466-1.374-.466-.519-1.24-.519-.708 0-1.112.31l-.288.235zm-6.738-46.256l-.867-.222.434-4.254h4.37v1.002h-3.45l-.258 2.326q.627-.37 1.424-.37 1.166 0 1.851.771.686.77.686 2.083 0 1.319-.712 2.077-.712.76-1.99.76-1.13 0-1.845-.628-.715-.627-.815-1.734h1.026q.1.732.521 1.104.422.372 1.114.372.755 0 1.186-.515.43-.516.43-1.424 0-.856-.465-1.374-.466-.519-1.24-.519-.708 0-1.113.31l-.287.235zm10.723-.99v1.406q0 1.905-.65 2.83-.65.926-2.034.926-1.365 0-2.021-.905-.656-.905-.68-2.704v-1.447q0-1.881.65-2.795.65-.914 2.04-.914 1.377 0 2.027.881.65.882.668 2.722zm-1.084 1.7v-1.776q0-1.377-.387-2.007-.387-.63-1.224-.63-.832 0-1.213.627-.381.627-.393 1.928v1.734q0 1.383.401 2.042.402.66 1.216.66.803 0 1.193-.622.39-.62.407-1.957zm-5.496-51.44v.61l-3.533 7.921h-1.137l3.521-7.64h-4.617v-.891h5.766zm2.596 4.476l-.868-.222.434-4.254h4.371v1.002h-3.451l-.258 2.326q.627-.37 1.424-.37 1.166 0 1.851.771.686.77.686 2.083 0 1.319-.712 2.077-.712.76-1.99.76-1.13 0-1.845-.628-.715-.627-.814-1.734h1.025q.1.732.522 1.104.421.372 1.113.372.756 0 1.186-.515.431-.516.431-1.424 0-.856-.466-1.374-.466-.519-1.24-.519-.708 0-1.112.31l-.288.235zm-11.542-50.772v8.572h-1.09v-7.225l-2.185.803v-.984l3.106-1.166h.17zm8.526 3.527v1.406q0 1.905-.65 2.83-.65.926-2.034.926-1.365 0-2.021-.905-.656-.905-.68-2.704v-1.447q0-1.881.65-2.795.65-.914 2.04-.914 1.377 0 2.027.881.65.882.668 2.722zm-1.084 1.7v-1.776q0-1.377-.387-2.007-.387-.63-1.224-.63-.832 0-1.213.627-.381.627-.393 1.928v1.734q0 1.383.401 2.042.402.66 1.216.66.803 0 1.193-.622.39-.62.407-1.957zm7.822-1.7v1.406q0 1.905-.65 2.83-.65.926-2.033.926-1.366 0-2.022-.905-.656-.905-.68-2.704v-1.447q0-1.881.65-2.795.651-.914 2.04-.914 1.377 0 2.027.881.65.882.668 2.722zm-1.084 1.7v-1.776q0-1.377-.387-2.007-.386-.63-1.224-.63-.832 0-1.213.627-.38.627-.393 1.928v1.734q0 1.383.402 2.042.401.66 1.216.66.802 0 1.192-.622.39-.62.407-1.957z" fill="#bdbdbd" fill-rule="evenodd"></path><path d="M305.5 289.5h32v15h-32z" fill="#fff" fill-opacity="0"></path><path fill="#2196f3" fill-rule="evenodd" d="M59 57h23v23H59z"></path><path d="M104.375 77l-3.652-5.703-1.524 1.64V77h-2.93V62.781h2.93v6.446l1.29-1.768 3.622-4.678h3.604l-5.049 6.319 5.195 7.9h-3.486zm10.586 0l-.078-1.074q-1.045 1.27-2.89 1.27-1.7 0-2.594-.977-.893-.977-.913-2.862v-6.923h2.823v6.826q0 1.65 1.504 1.65 1.435 0 1.972-.996v-7.48h2.832V77h-2.656zm14.307-5.342v.156q0 2.54-1.084 3.96-1.084 1.421-3.028 1.421-1.719 0-2.744-1.318L122.285 77h-2.539V62h2.822v5.38q.977-1.142 2.569-1.142 1.933 0 3.032 1.421t1.099 4zm-2.823-.049q0-1.601-.507-2.338-.508-.738-1.514-.738-1.348 0-1.856 1.104v4.17q.518 1.113 1.875 1.113 1.368 0 1.797-1.348.205-.644.205-1.963zm9.424 5.586q-2.324 0-3.784-1.425-1.46-1.426-1.46-3.8v-.273q0-1.592.615-2.846.615-1.255 1.743-1.934 1.128-.679 2.574-.679 2.168 0 3.413 1.367 1.245 1.368 1.245 3.877v1.153h-6.729q.137 1.035.826 1.66.688.625 1.743.625 1.63 0 2.549-1.182l1.386 1.553q-.635.898-1.719 1.401-1.083.503-2.402.503zm-.322-8.672q-.84 0-1.362.567-.523.566-.67 1.62h3.926v-.224q-.02-.937-.507-1.45-.489-.513-1.387-.513zm12.246-2.158l-.04 2.715q-.575-.078-1.015-.078-1.601 0-2.1 1.084V77h-2.822V66.434h2.666l.079 1.26q.85-1.456 2.353-1.456.469 0 .879.127zm1.26.069h2.656l.088 1.22q1.133-1.416 3.037-1.416 1.68 0 2.5.987.82.986.84 2.949V77h-2.822v-6.758q0-.898-.391-1.304-.39-.405-1.299-.405-1.191 0-1.787 1.016V77h-2.822V66.434zm16.123 10.761q-2.324 0-3.784-1.425-1.46-1.426-1.46-3.8v-.273q0-1.592.615-2.846.615-1.255 1.743-1.934 1.128-.679 2.573-.679 2.168 0 3.413 1.367 1.245 1.368 1.245 3.877v1.153h-6.728q.137 1.035.825 1.66.689.625 1.743.625 1.631 0 2.55-1.182l1.386 1.553q-.635.898-1.719 1.401t-2.402.503zm-.322-8.672q-.84 0-1.363.567-.522.566-.669 1.62h3.926v-.224q-.02-.937-.508-1.45-.488-.513-1.386-.513zm6.826-4.687h2.822v2.598h1.807v2.07h-1.807v5.273q0 .586.225.84.224.254.859.254.469 0 .83-.068v2.138q-.83.254-1.709.254-2.969 0-3.027-2.998v-5.693h-1.543v-2.07h1.543v-2.598zm11.064 13.36q-2.324 0-3.784-1.426t-1.46-3.8v-.273q0-1.592.615-2.846.615-1.255 1.743-1.934 1.128-.679 2.574-.679 2.168 0 3.413 1.367 1.245 1.368 1.245 3.877v1.153h-6.729q.137 1.035.826 1.66.688.625 1.743.625 1.63 0 2.549-1.182l1.386 1.553q-.635.898-1.719 1.401-1.083.503-2.402.503zm-.322-8.673q-.84 0-1.362.567-.523.566-.67 1.62h3.926v-.224q-.02-.937-.507-1.45-.489-.513-1.387-.513zm11.992 5.557q0-.517-.513-.815-.512-.298-1.645-.533-3.77-.79-3.77-3.203 0-1.406 1.167-2.348 1.167-.943 3.052-.943 2.012 0 3.218.948 1.206.947 1.206 2.46h-2.822q0-.605-.391-1-.39-.396-1.22-.396-.714 0-1.104.322-.39.323-.39.82 0 .47.444.757.444.288 1.499.498 1.054.21 1.777.474 2.236.82 2.236 2.842 0 1.445-1.24 2.339-1.24.893-3.203.893-1.328 0-2.359-.473-1.03-.474-1.616-1.3-.586-.824-.586-1.781h2.676q.04.752.557 1.152.517.4 1.386.4.811 0 1.226-.307.415-.308.415-.806z" fill="#4a4a4a" fill-rule="evenodd"></path><path fill="#ffca28" fill-rule="evenodd" d="M248 57h23v23h-23z"></path><path d="M294.283 77l-.986-2.93h-5.137l-.976 2.93h-3.116l5.293-14.219h2.715L297.398 77h-3.115zm-3.564-10.625l-1.768 5.322h3.555l-1.787-5.322zm16.367-3.594l2.334 10.117 1.914-10.117h2.92L311.1 77h-2.95l-2.314-9.512L303.52 77h-2.949l-3.154-14.219h2.92l1.924 10.098 2.343-10.098h2.48zm16.123 10.489q0-.83-.586-1.275-.586-.444-2.11-.937-1.523-.494-2.411-.972-2.422-1.309-2.422-3.525 0-1.153.65-2.056.649-.903 1.864-1.411 1.216-.508 2.73-.508 1.523 0 2.715.552 1.191.551 1.85 1.557.66 1.006.66 2.285h-2.93q0-.976-.615-1.518-.616-.542-1.729-.542-1.074 0-1.67.454-.596.454-.596 1.196 0 .694.699 1.162.698.47 2.055.88 2.5.751 3.643 1.865 1.142 1.113 1.142 2.773 0 1.846-1.396 2.896-1.397 1.05-3.76 1.05-1.64 0-2.988-.601-1.348-.6-2.056-1.646-.708-1.045-.708-2.422h2.94q0 2.354 2.812 2.354 1.045 0 1.631-.425.586-.425.586-1.186zm18.457-4.727v2.295h-5.625v3.808h6.602V77h-9.532V62.781h9.512v2.373h-6.582v3.389h5.625zm10.928 3.72h2.93q-.167 2.296-1.695 3.614t-4.028 1.318q-2.735 0-4.302-1.84-1.567-1.841-1.567-5.054v-.87q0-2.05.722-3.613.723-1.562 2.066-2.397 1.342-.835 3.12-.835 2.46 0 3.965 1.318 1.504 1.319 1.738 3.701h-2.93q-.107-1.376-.766-1.997-.66-.62-2.007-.62-1.465 0-2.193 1.05-.727 1.05-.747 3.257v1.074q0 2.305.699 3.37.698 1.064 2.202 1.064 1.357 0 2.026-.62.67-.62.767-1.92zm12.226 1.007q0-.83-.586-1.275-.586-.444-2.109-.937-1.523-.494-2.412-.972-2.422-1.309-2.422-3.525 0-1.153.65-2.056.649-.903 1.865-1.411 1.215-.508 2.73-.508 1.523 0 2.714.552 1.191.551 1.85 1.557.66 1.006.66 2.285h-2.93q0-.976-.615-1.518t-1.729-.542q-1.074 0-1.67.454-.595.454-.595 1.196 0 .694.698 1.162.698.47 2.056.88 2.5.751 3.642 1.865 1.143 1.113 1.143 2.773 0 1.846-1.397 2.896-1.396 1.05-3.76 1.05-1.64 0-2.988-.601-1.347-.6-2.055-1.646-.708-1.045-.708-2.422h2.939q0 2.354 2.813 2.354 1.044 0 1.63-.425.586-.425.586-1.186z" fill="#4a4a4a" fill-rule="evenodd"></path><path fill="#f44336" fill-rule="evenodd" d="M407 57h23v23h-23z"></path><path d="M455.842 62.781V77h-2.93v-6.094H447.2V77h-2.93V62.781h2.93v5.762h5.713v-5.762h2.93zM467.189 77h-2.851q-.195-.38-.283-.947-1.026 1.142-2.666 1.142-1.553 0-2.574-.898-1.02-.899-1.02-2.266 0-1.68 1.245-2.578 1.245-.898 3.599-.908h1.298v-.606q0-.732-.375-1.171-.376-.44-1.187-.44-.713 0-1.118.342-.405.342-.405.937h-2.823q0-.918.567-1.699.566-.781 1.601-1.225 1.035-.445 2.324-.445 1.954 0 3.101.982 1.148.981 1.148 2.759v4.58q.01 1.504.42 2.275V77zm-5.185-1.963q.625 0 1.152-.278.528-.279.781-.747v-1.817h-1.054q-2.12 0-2.256 1.465l-.01.166q0 .528.371.87.371.341 1.016.341zm12.656-.957q0-.517-.513-.815-.512-.298-1.645-.533-3.77-.79-3.77-3.203 0-1.406 1.167-2.348 1.167-.943 3.052-.943 2.012 0 3.218.948 1.206.947 1.206 2.46h-2.822q0-.605-.39-1-.392-.396-1.222-.396-.712 0-1.103.322-.39.323-.39.82 0 .47.444.757.444.288 1.499.498 1.054.21 1.777.474 2.236.82 2.236 2.842 0 1.445-1.24 2.339-1.24.893-3.203.893-1.328 0-2.358-.473-1.03-.474-1.617-1.3-.586-.824-.586-1.781h2.676q.04.752.557 1.152.517.4 1.387.4.81 0 1.225-.307.415-.308.415-.806zM481.975 62v5.586q1.123-1.348 2.822-1.348 3.437 0 3.486 3.994V77h-2.822v-6.69q0-.908-.39-1.342-.391-.435-1.3-.435-1.24 0-1.796.957V77h-2.823V62h2.823zm11.416 4.434V77h-2.832V66.434h2.832zm-2.998-2.735q0-.635.424-1.045.425-.41 1.158-.41.722 0 1.152.41.43.41.43 1.045 0 .645-.435 1.055-.435.41-1.147.41-.713 0-1.148-.41-.434-.41-.434-1.055zm9.716 11.22q.782 0 1.27-.429.488-.43.508-1.142h2.646q-.01 1.074-.586 1.967-.576.894-1.577 1.387-1 .493-2.212.493-2.265 0-3.574-1.44-1.309-1.44-1.309-3.98v-.185q0-2.442 1.3-3.897 1.298-1.455 3.564-1.455 1.982 0 3.178 1.128 1.197 1.128 1.216 3.003h-2.646q-.02-.82-.508-1.333t-1.29-.513q-.985 0-1.488.718t-.503 2.33v.292q0 1.631.498 2.344.498.713 1.513.713zm5.596-3.173v-.127q0-1.572.606-2.803.605-1.23 1.743-1.904 1.137-.674 2.641-.674 2.139 0 3.492 1.309 1.352 1.308 1.508 3.555l.02.722q0 2.432-1.358 3.902-1.357 1.47-3.642 1.47t-3.648-1.466q-1.362-1.464-1.362-3.984zm2.822.078q0 1.504.567 2.3.566.796 1.62.796 1.026 0 1.602-.786.577-.786.577-2.515 0-1.474-.577-2.285-.576-.81-1.62-.81-1.036 0-1.602.805-.567.806-.567 2.495zm14.903-5.459l-.04 2.715q-.576-.078-1.015-.078-1.602 0-2.1 1.084V77h-2.822V66.434h2.666l.078 1.26q.85-1.456 2.354-1.456.469 0 .879.127zm10.83 5.303v.146q0 2.442-1.109 3.912-1.108 1.47-2.993 1.47-1.601 0-2.588-1.114v4.98h-2.822V66.434h2.617l.098 1.035q1.025-1.23 2.676-1.23 1.953 0 3.037 1.445 1.084 1.445 1.084 3.984zm-2.822-.059q0-1.474-.523-2.275-.522-.8-1.519-.8-1.328 0-1.826 1.015v4.326q.518 1.045 1.846 1.045 2.021 0 2.021-3.31zm21.298-8.828V77h-2.93l-5.702-9.355V77h-2.93V62.781h2.93l5.712 9.375v-9.375h2.92zm1.934 8.965v-.127q0-1.572.605-2.803.606-1.23 1.744-1.904 1.137-.674 2.641-.674 2.139 0 3.491 1.309 1.353 1.308 1.51 3.555l.019.722q0 2.432-1.358 3.902-1.357 1.47-3.642 1.47t-3.648-1.466q-1.362-1.464-1.362-3.984zm2.822.078q0 1.504.567 2.3.566.796 1.62.796 1.026 0 1.602-.786.576-.786.576-2.515 0-1.474-.576-2.285-.576-.81-1.62-.81-1.036 0-1.602.805-.567.806-.567 2.495zm8.926-5.39h2.646l.088 1.181q1.123-1.377 3.037-1.377 2.041 0 2.803 1.612 1.113-1.612 3.174-1.612 1.719 0 2.559 1.001.84 1.001.84 3.013V77h-2.833v-6.738q0-.899-.351-1.314-.352-.415-1.24-.415-1.27 0-1.758 1.211l.01 7.256h-2.823v-6.729q0-.917-.361-1.328-.361-.41-1.23-.41-1.202 0-1.739.996V77h-2.822V66.434zM592.707 77h-2.852q-.195-.38-.283-.947-1.025 1.142-2.666 1.142-1.552 0-2.573-.898-1.02-.899-1.02-2.266 0-1.68 1.245-2.578 1.245-.898 3.598-.908h1.3v-.606q0-.732-.377-1.171-.376-.44-1.186-.44-.713 0-1.119.342-.405.342-.405.937h-2.822q0-.918.566-1.699.567-.781 1.602-1.225 1.035-.445 2.324-.445 1.953 0 3.1.982 1.148.981 1.148 2.759v4.58q.01 1.504.42 2.275V77zm-5.186-1.963q.625 0 1.153-.278.527-.279.781-.747v-1.817H588.4q-2.119 0-2.255 1.465l-.01.166q0 .528.37.87.372.341 1.016.341zm6.495-3.398q0-2.471 1.108-3.936 1.108-1.465 3.032-1.465 1.543 0 2.55 1.153V62h2.831v15h-2.549l-.136-1.123q-1.055 1.318-2.715 1.318-1.866 0-2.993-1.47-1.128-1.47-1.128-4.086zm2.822.205q0 1.484.517 2.275.518.791 1.504.791 1.309 0 1.846-1.103v-4.17q-.527-1.104-1.826-1.104-2.041 0-2.041 3.31z" fill="#4a4a4a" fill-rule="evenodd"></path><path fill="#43a047" fill-rule="evenodd" d="M647 57h23v23h-23z"></path><path d="M693.283 77l-.986-2.93h-5.137l-.976 2.93h-3.116l5.293-14.219h2.715L696.398 77h-3.115zm-3.564-10.625l-1.768 5.322h3.555l-1.787-5.322zm16.865 5.293v.146q0 2.442-1.108 3.912-1.109 1.47-2.994 1.47-1.601 0-2.587-1.114v4.98h-2.823V66.434h2.617l.098 1.035q1.025-1.23 2.676-1.23 1.953 0 3.037 1.445 1.084 1.445 1.084 3.984zm-2.822-.059q0-1.474-.523-2.275-.522-.8-1.518-.8-1.328 0-1.826 1.015v4.326q.517 1.045 1.845 1.045 2.022 0 2.022-3.31zM717.307 77h-2.852q-.195-.38-.283-.947-1.026 1.142-2.666 1.142-1.553 0-2.573-.898-1.02-.899-1.02-2.266 0-1.68 1.244-2.578 1.245-.898 3.599-.908h1.299v-.606q0-.732-.376-1.171-.376-.44-1.187-.44-.713 0-1.118.342-.405.342-.405.937h-2.823q0-.918.567-1.699.566-.781 1.601-1.225 1.036-.445 2.325-.445 1.953 0 3.1.982 1.148.981 1.148 2.759v4.58q.01 1.504.42 2.275V77zm-5.186-1.963q.625 0 1.152-.278.528-.279.782-.747v-1.817H713q-2.12 0-2.256 1.465l-.01.166q0 .528.371.87.372.341 1.016.341zm11.328-.117q.781 0 1.27-.43.488-.43.508-1.142h2.646q-.01 1.074-.586 1.967-.576.894-1.577 1.387t-2.212.493q-2.266 0-3.574-1.44-1.309-1.44-1.309-3.98v-.185q0-2.442 1.3-3.897 1.298-1.455 3.564-1.455 1.982 0 3.178 1.128 1.197 1.128 1.216 3.003h-2.646q-.02-.82-.508-1.333-.489-.513-1.29-.513-.986 0-1.489.718-.503.718-.503 2.33v.292q0 1.631.499 2.344.498.713 1.513.713zM732.24 62v5.586q1.122-1.348 2.822-1.348 3.437 0 3.486 3.994V77h-2.822v-6.69q0-.908-.391-1.342-.39-.435-1.299-.435-1.24 0-1.797.957V77h-2.822V62h2.822zm13.3 15.195q-2.324 0-3.784-1.425-1.46-1.426-1.46-3.8v-.273q0-1.592.615-2.846.615-1.255 1.743-1.934 1.128-.679 2.574-.679 2.168 0 3.413 1.367 1.245 1.368 1.245 3.877v1.153h-6.729q.137 1.035.825 1.66.689.625 1.744.625 1.63 0 2.548-1.182l1.387 1.553q-.635.898-1.719 1.401t-2.402.503zm-.322-8.672q-.84 0-1.363.567-.522.566-.668 1.62h3.925v-.224q-.02-.937-.507-1.45-.489-.513-1.387-.513zm11.435-5.742h3.828l3.653 10.313 3.633-10.313h3.847V77h-2.94v-3.887l.294-6.709L765.129 77h-2.012l-3.828-10.586.293 6.7V77h-2.93V62.781zm22.198 14.414q-2.325 0-3.785-1.425-1.46-1.426-1.46-3.8v-.273q0-1.592.616-2.846.615-1.255 1.743-1.934 1.128-.679 2.573-.679 2.168 0 3.413 1.367 1.245 1.368 1.245 3.877v1.153h-6.728q.137 1.035.825 1.66t1.743.625q1.631 0 2.549-1.182l1.387 1.553q-.635.898-1.719 1.401t-2.402.503zm-.323-8.672q-.84 0-1.362.567-.522.566-.669 1.62h3.926v-.224q-.02-.937-.508-1.45-.488-.513-1.387-.513zm11.993 5.557q0-.517-.513-.815-.513-.298-1.646-.533-3.77-.79-3.77-3.203 0-1.406 1.168-2.348 1.167-.943 3.052-.943 2.011 0 3.217.948 1.206.947 1.206 2.46h-2.822q0-.605-.39-1-.391-.396-1.221-.396-.713 0-1.104.322-.39.323-.39.82 0 .47.444.757.444.288 1.499.498 1.055.21 1.777.474 2.237.82 2.237 2.842 0 1.445-1.24 2.339-1.24.893-3.204.893-1.328 0-2.358-.473-1.03-.474-1.616-1.3-.586-.824-.586-1.781h2.676q.039.752.556 1.152.518.4 1.387.4.81 0 1.225-.307.416-.308.416-.806zm4.12-2.334v-.127q0-1.572.606-2.803.606-1.23 1.743-1.904 1.138-.674 2.642-.674 2.139 0 3.491 1.309 1.353 1.308 1.509 3.555l.02.722q0 2.432-1.358 3.902-1.357 1.47-3.643 1.47-2.285 0-3.647-1.466-1.362-1.464-1.362-3.984zm2.823.078q0 1.504.566 2.3.567.796 1.621.796 1.026 0 1.602-.786.576-.786.576-2.515 0-1.474-.576-2.285-.576-.81-1.621-.81-1.035 0-1.602.805-.566.806-.566 2.495zm14.648 2.256q0-.517-.512-.815-.513-.298-1.646-.533-3.77-.79-3.77-3.203 0-1.406 1.168-2.348 1.167-.943 3.051-.943 2.012 0 3.218.948 1.206.947 1.206 2.46h-2.822q0-.605-.39-1-.391-.396-1.221-.396-.713 0-1.104.322-.39.323-.39.82 0 .47.444.757.444.288 1.499.498 1.054.21 1.777.474 2.236.82 2.236 2.842 0 1.445-1.24 2.339-1.24.893-3.203.893-1.328 0-2.358-.473-1.03-.474-1.616-1.3-.586-.824-.586-1.781h2.675q.04.752.557 1.152.518.4 1.387.4.81 0 1.225-.307.415-.308.415-.806z" fill="#4a4a4a" fill-rule="evenodd"></path><script><![CDATA[/*
 KeyshapeJS v1.0.0 (c) 2018 Pixofield Ltd | pixofield.com/keyshapejs/mit-license */
window.KeyshapeJS=function(){function A(a){return"undefined"!==typeof a}function v(a,b){return a&&0==a.indexOf(b)}function H(a){if(!isFinite(a))throw Error("Non-finite value");}function Q(a){if(14>=a)return 16;var b=R[a];b||(b=A(ba[a])?0|(a.toLowerCase().indexOf("color")==a.length-5?48:0):1);return b}function J(a){return 0<=a?Math.pow(a,1/3):-Math.pow(-a,1/3)}function ca(a,b,c,d){if(0==a)return 0==b?b=-d/c:(a=Math.sqrt(c*c-4*b*d),d=(-c+a)/(2*b),0<=d&&1>=d?b=d:(d=(-c-a)/(2*b),b=0<=d&&1>=d?d:0)),b;
var e=c/a-b*b/(a*a)/3;c=b*b*b/(a*a*a)/13.5-b*c/(a*a)/3+d/a;var n=c*c/4+e*e*e/27;b=-b/(3*a);if(0>=n){if(0==e&&0==c)return-J(d/a);a=Math.sqrt(c*c/4-n);d=Math.acos(-c/2/a);c=Math.cos(d/3);d=Math.sqrt(3)*Math.sin(d/3);a=J(a);e=2*a*c+b;if(0<=e&&1>=e)return e;e=-a*(c+d)+b;if(0<=e&&1>=e)return e;e=a*(d-c)+b;if(0<=e&&1>=e)return e}else{a=J(-c/2+Math.sqrt(n));c=J(-c/2-Math.sqrt(n));d=a+c+b;if(0<=d&&1>=d)return d;d=-(a+c)/2+b;if(0<=d&&1>=d)return d}return 0}function da(a,b){if(48==a&&"number"===typeof b)return"#"+
("000000"+b.toString(16)).substr(-6);if(64==a)return b=b.map(function(a){return a+"px"}),b.join(",");if(96==a){a="";for(var c=b.length,d=0;d<c;d+=2)a+=b[d],a+=b[d+1].join(",");return a}if(80==a){if(0==b[0])return"none";a="";c=b.length;for(d=0;d<c;)a+=S[b[d]],1==b[d]?a+="("+b[d+1]+") ":5==b[d]?(a+="("+b[d+1]+"px "+b[d+2]+"px "+b[d+3]+"px rgba("+(b[d+4]>>>24)+","+(b[d+4]>>16&255)+","+(b[d+4]>>8&255)+","+(b[d+4]&255)/255+")) ",d+=3):a=2==b[d]?a+("("+b[d+1]+"px) "):7==b[d]?a+("("+b[d+1]+"deg) "):a+("("+
(0>b[d+1]?0:b[d+1])+") "),d+=2;return a}return 32==a?b+"px":b}function w(a){return 0>=a?0:255<=a?255:a}function ea(a,b,c,d){if(16==a||32==a)return(c-b)*d+b;if(0==a)return.5>d?b:c;if(48==a){if("number"===typeof b&&"number"===typeof c){var e=1-d;return w(e*(b>>16)+d*(c>>16))<<16|w(e*(b>>8&255)+d*(c>>8&255))<<8|w(e*(b&255)+d*(c&255))}return.5>d?b:c}if(64==a){0==b.length&&(b=[0]);0==c.length&&(c=[0]);var n=b.length;b.length!=c.length&&(n=b.length*c.length);var k=[];for(a=0;a<n;++a){var f=b[a%b.length];
var h=(c[a%c.length]-f)*d+f;0>h&&(h=0);k.push(h)}return k}if(96==a){if(b.length!=c.length)return.5>d?b:c;n=b.length;k=[];for(a=0;a<n;a+=2){if(b[a]!==c[a])return.5>d?b:c;k[a]=b[a];k[a+1]=[];for(f=0;f<b[a+1].length;++f)k[a+1].push((c[a+1][f]-b[a+1][f])*d+b[a+1][f])}return k}if(80==a){n=b.length;if(n!=c.length)return.5>d?b:c;k=[];for(a=0;a<n;){if(b[a]!=c[a]||1==b[a])return.5>d?b:c;k[a]=b[a];k[a+1]=(c[a+1]-b[a+1])*d+b[a+1];if(5==b[a]){k[a+2]=(c[a+2]-b[a+2])*d+b[a+2];k[a+3]=(c[a+3]-b[a+3])*d+b[a+3];e=
1-d;var g=b[a+4],q=c[a+4];h=e*(g>>>24)+d*(q>>>24);var m=e*(g>>16&255)+d*(q>>16&255);f=e*(g>>8&255)+d*(q>>8&255);k[a+4]=(w(m)<<16|w(f)<<8|w(e*(g&255)+d*(q&255)))+16777216*(w(h)|0);a+=3}a+=2}return k}return 0}function T(a,b){a:{var c=a+b[2];var d=b[4].length;for(var e=0;e<d;++e)if(c<b[4][e]){c=e;break a}c=d-1}d=b[2];e=b[4][c-1]-d;a=(a-e)/(b[4][c]-d-e);if(b[6]&&b[6].length>c-1)if(d=b[6][c-1],1==d[0])if(0>=a)a=0;else if(1<=a)a=1;else{e=d[1];var n=d[3];a=ca(3*e-3*n+1,-6*e+3*n,3*e,-a);a=3*a*(1-a)*(1-a)*
d[2]+3*a*a*(1-a)*d[4]+a*a*a}else 2==d[0]?(d=d[1],a=Math.ceil(a*d)/d):3==d[0]&&(d=d[1],a=Math.floor(a*d)/d);return ea(b[1]&240,b[5][c-1],b[5][c],a)}function K(){x||(u=(new Date).getTime()+U)}function N(a){if(a||!C){for(var b=!1,c=0;c<t.length;++c)t[c].I(a)&&(b=!0);if(a)for(;0<F.length;)if(a=F.shift(),c=a[0],1==a[1])c.onfinish&&(c.onfinish(),b=!0),c.H();else if(2==a[1]&&c.onloop)c.onloop();return b}}function V(){K();N(!0)&&!x?(C=!0,L(V)):C=!1}function M(){C||(C=!0,L(V))}function W(a,b){var c=[];a.split(b).forEach(function(a){c.push(parseFloat(a))});
return c}function y(a){-1==a.indexOf(",")&&(a=a.replace(" ",","));return W(a,",")}function X(a){a._ks||(a._ks={});if(!a._ks.transform){for(var b=a._ks.transform=[],c=0;14>=c;++c)b[c]=0;b[10]=1;b[11]=1;if(a=a.getAttribute("transform")){a=a.trim().split(") ");for(c=a.length-2;0<=c;--c)if(v(a[c],"translate(")){for(var d=0;d<c;d++)a.shift();break}c=a.shift();v(c,"translate(")&&(c=y(c.substring(10)),b[1]=c[0],b[2]=A(c[1])?c[1]:0,c=a.shift());v(c,"rotate(")&&(c=y(c.substring(7)),b[6]=c[0],c=a.shift());
v(c,"skewX(")&&(c=y(c.substring(6)),b[7]=c[0],c=a.shift());v(c,"skewY(")&&(c=y(c.substring(6)),b[8]=c[0],c=a.shift());v(c,"scale(")&&(c=y(c.substring(6)),b[10]=c[0],b[11]=A(c[1])?c[1]:0,c=a.shift());v(c,"translate(")&&(c=y(c.substring(10)),b[13]=c[0],b[14]=A(c[1])?c[1]:0)}}}function Y(a){this.D=a;this.B=[];this.w=[];this.s=0;this.o=this.a=this.c=null;this.h=this.f=this.g=0;this.b=1;this.i=this.C=this.m=!1}function I(a,b,c){b=a[b];void 0===b&&(b=a[c]);return b}function fa(a){return Array.isArray(a)?
a:v(a,"cubic-bezier(")?(a=a.substring(13,a.length-1).split(","),[1,parseFloat(a[0]),parseFloat(a[1]),parseFloat(a[2]),parseFloat(a[3])]):v(a,"steps(")?(a=a.substring(6,a.length-1).split(","),[a[1]&&"start"==a[1].trim()?2:3,parseFloat(a[0])]):[0]}function ha(a){a=a.trim();return v(a,"#")?(parseInt(a.substring(1),16)<<8)+255:v(a,"rgba(")?(a=a.substring(5,a.length-1),a=a.split(","),(parseInt(a[0],10)<<24)+(parseInt(a[1],10)<<16)+(parseInt(a[2],10)<<8)+255*parseFloat(a[3])<<0):a}function Z(a){!1===a.i&&
(t.push(a),a.i=!0,!1!==a.D.autoplay&&a.play());return this}function O(a){if(!0===a.i){a._cancel();var b=t.indexOf(a);-1<b&&t.splice(b,1);b=F.indexOf(a);-1<b&&F.splice(b,1);a.i=!1}return this}var P=Error("Not in timeline list"),aa="mpath posX posY    rotate skewX skewY  scaleX scaleY  anchorX anchorY".split(" "),ia=" translate translate    rotate skewX skewY  scale scale  translate translate".split(" "),S="none url blur brightness contrast drop-shadow grayscale hue-rotate invert opacity saturate sepia".split(" "),
L=window.requestAnimationFrame||window.webkitRequestAnimationFrame||window.mozRequestAnimationFrame||window.oRequestAnimationFrame||window.msRequestAnimationFrame||null;L||(L=function(a){window.setTimeout(a,16)});var R={d:97,fill:48,fillOpacity:16,filter:80,height:33,opacity:16,offsetDistance:33,stroke:48,strokeDasharray:64,strokeDashoffset:32,strokeOpacity:16,strokeWidth:32,transform:1,width:33},ba=window.getComputedStyle(document.documentElement),C=!1,u=(new Date).getTime(),x,U=0,t=[],F=[];Y.prototype=
{v:function(a){var b=0;if(null!==this.c){var c=this.j();0<this.b&&null!==c&&c>=this.f?this.h?(this.c=u-this.g/this.b,this.h--,b=2):(b=1,a?this.a=c:this.a=this.o?Math.max(this.o,this.f):this.f):0>this.b&&null!==c&&c<=this.g?this.h&&Infinity!=this.f?(this.c=u-this.f/this.b,this.h--,b=2):(this.h=0,b=1,a?this.a=c:this.a=this.o?Math.min(this.o,this.g):this.g):null!==c&&0!=this.b&&(a&&null!==this.a&&(this.c=u-this.a/this.b),this.a=null)}this.o=this.j();return b},I:function(a){a&&(this.m&&(this.m=!1,null===
this.c&&(0!=this.b&&null!==this.a?(this.c=u-this.a/this.b,this.a=null):this.c=u)),null===this.a&&null!==this.c&&(a=this.v(!1),0!=a&&F.push([this,a])));a=this.j();if(null===a)return!1;for(var b=this.B,c=this.w,d=0;d<b.length;++d){for(var e=b[d],n=!1,k=0;k<c[d].length;++k){var f=c[d][k],h=f[0];if(null!==h){var g=f[2];var q=f[4].length,m=f[4][q-1]-g;g=0==m?f[5][q-1]:a<=g?f[5][0]:a>=g+f[3]?0==f[3]%m?f[5][q-1]:T(f[3]%m,f):T((a-g)%m,f);0==h?(e._ks.mpath=f[8],e._ks.transform[h]=g,n=!0):14>=h?(e._ks.transform[h]=
g,n=!0):(g=da(f[1]&240,g),f[1]&1?e.setAttribute(h,g):e.style[h]=g)}}if(n){X(e);n=e._ks.transform;k="";if(f=e._ks.mpath)g=n[0],0>g&&(g=0),100<g&&(g=100),g=g*f[2]/100,h=f[1].getPointAtLength(g),k="translate("+h.x+","+h.y+") ",f[0]&&(.5>g?(g=h,h=f[1].getPointAtLength(.5)):g=f[1].getPointAtLength(g-.5),k+="rotate("+180*Math.atan2(h.y-g.y,h.x-g.x)/Math.PI+") ");for(f=1;f<n.length;++f)h=n[f],h!=(10==f||11==f?1:0)&&(k+=" "+ia[f]+"(",k=2>=f?k+(1==f?h+",0":"0,"+h):13<=f?k+(13==f?h+",0":"0,"+h):10<=f?k+(10==
f?h+",1":"1,"+h):k+h,k+=")");e.setAttribute("transform",k)}}return"running"==this.l()},H:function(){!1!==this.D.autoremove&&"finished"==this.l()&&O(this)},A:function(){if(!this.C){this.C=!0;for(var a=this.B,b=this.w,c=0;c<a.length;++c)for(var d=a[c],e=0;e<b[c].length;++e)14>=b[c][e][0]&&X(d)}},play:function(a){A(a)&&null!==a&&(H(a),0>this.b&&a<this.g&&(a=this.g),0<this.b&&a>this.f&&(a=this.f),this.u(a,!0));if(!this.i)throw P;a=this.j();if(0<this.b&&(null===a||a>=this.f))this.a=this.g;else if(0>this.b&&
(null===a||a<=this.g)){if(Infinity==this.f)throw Error("Cannot seek to Infinity");this.a=this.f}else 0==this.b&&null===a&&(this.a=this.g);if(null===this.a)return this;this.c=null;this.m=!0;this.A();M();return this},pause:function(a){if(!this.i)throw P;A(a)&&H(a);if("paused"!=this.l()){K();var b=this.j();if(null===b)if(0<=this.b)this.a=this.g;else{if(Infinity==this.f)throw Error("Cannot seek to Infinity");this.a=this.f}null!==this.c&&null===this.a&&(this.a=b);this.c=null;this.m=!1;this.v(!1);this.A();
M()}A(a)&&this.u(a,!0);return this},range:function(a,b){if(0==arguments.length)return{"in":this.g,out:this.f};var c=+a,d=this.s;A(b)&&(d=+b);H(c);if(0>c||0>d||c>=d||isNaN(d))throw Error("Invalid range");var e=this.l();this.g=c;this.f=d;"finished"==e&&"running"==this.l()&&this.play();return this},loop:function(a){if(!A(a))return{count:this.h};this.h=!0===a?Infinity:Math.floor(a);if(0>this.h||isNaN(this.h))this.h=0;return this},j:function(){return null!==this.a?this.a:null===this.c?null:(u-this.c)*
this.b},u:function(a,b){b&&K();null!==a&&(this.A(),null!==this.a||null===this.c||0==this.b?(this.a=a,N(!1)):this.c=u-a/this.b,this.i||(this.c=null),this.o=null,this.v(!0),M())},F:function(){return this.j()},time:function(a){if(A(a)){if(!this.i)throw P;H(a);this.u(a,!0);return this}return this.F()},l:function(){var a=this.j();return this.m?"running":null===a?"idle":null===this.c?"paused":0<this.b&&a>=this.f||0>this.b&&a<=this.g?"finished":"running"},state:function(){return this.l()},duration:function(){return this.s},
G:function(a){H(a);K();var b=this.j();this.b=a;null!==b&&this.u(b,!1)},rate:function(a){return A(a)?(this.G(a),this):this.b},_cancel:function(){if(!this.i||"idle"==this.l())return this;this.c=this.a=null;this.m=!1;return this}};return{version:"1.0.0",animate:function(){var a={};if(1==arguments.length%2){a=arguments[arguments.length-1];var b={};for(c in a)b[c]=a[c];a=b}var c=new Y(a);a=arguments;for(var d=b=0;d<a.length-1;d+=2){var e=a[d];var n=e instanceof Element?e:document.getElementById(e.substring(1));
if(!n)throw Error("Invalid target: "+e);e=n;n=a[d+1];e._ks||(e._ks={});for(var k=[],f=0;f<n.length;++f){var h=n[f],g=I(h,"p","property");if("string"!=typeof g||-1!=g.indexOf("-")||""===g||!(0<R[g]||0<=aa.indexOf(g)))throw Error("Invalid property: "+g);var q=aa.indexOf(g);""!==g&&0<=q&&(g=q);q=Q(g);var m=I(h,"t","times");if(!m||2>m.length)throw Error("Not enough times");m=m.slice();if(!isFinite(m[0])||0>m[0])throw Error("Invalid time: "+m[0]);for(var B=1;B<m.length;++B)if(!isFinite(m[B])||0>m[B]||
m[B]<m[B-1])throw Error("Invalid time: "+m[B]);B=m[0];var u=m[m.length-1]-B,x=h.iterations||0;1>x&&(x=1);u*=x;b<u+B&&(b=u+B);var t=I(h,"v","values");if(!t||t.length!=m.length)throw Error("Values do not match times");t=t.slice();for(var D=g,l=t,w=Q(D)&240,p=0;p<l.length;++p)if(96==w){for(var y=l[p].substring(6,l[p].length-2).match(/[A-DF-Za-df-z][-+0-9eE., ]*/ig),C=[],r=0;r<y.length;++r){C.push(y[r][0]);for(var z=1<y[r].trim().length?y[r].substring(1).split(","):[],G=0;G<z.length;++G)z[G]=parseFloat(z[G]);
C.push(z)}l[p]=C}else if(48==w)v(l[p],"#")?l[p]=parseInt(l[p].substring(1),16):v(l[p],"url(")||"none"==l[p]||(console.warn("unsupported color: "+l[p]),l[p]=0);else if(80==w){y=l;C=p;r=l[p];if("none"==r)r=[0];else{z=[];for(var E=r.indexOf("(");0<E;)if(G=S.indexOf(r.substring(0,E)),0<=G){z.push(G);var F=r.indexOf(") ");0>F&&(F=r.length-1);E=r.substring(E+1,F).split(" ");5==G?(z.push(parseFloat(E[0])),z.push(parseFloat(E[1])),z.push(parseFloat(E[2])),z.push(ha(E[3]))):1==G?z.push(E[0]):z.push(parseFloat(E[0]));
r=r.substring(F+1).trim();E=r.indexOf("(")}else break;r=z}y[C]=r}else 64==w?"none"!=l[p]?/^[0-9 .]*$/.test(l[p])?l[p]=W(l[p]," "):(console.warn("unsupported value: "+l[p]),l[p]=[0]):l[p]=[0]:32==w?(H(l[p]),l[p]=parseFloat(l[p])):0===D&&(l[p]=parseFloat(l[p]));D=I(h,"e","easing");l=m.length;for(D||(D=[]);D.length<l;)D.push([1,0,0,.58,1]);for(l=0;l<D.length;++l)D[l]=fa(D[l]);q=[g,q,B,u,m,t,D,x];m=I(h,"mp","motionPath");A(m)&&0===g&&(q[8]=[],q[8][0]=h.motionRotate,h=document.createElementNS("http://www.w3.org/2000/svg",
"path"),m||(m="M0,0"),h.setAttribute("d",m),q[8][1]=h,q[8][2]=h.getTotalLength());k.push(q)}0<k.length&&(c.B.push(e),c.w.push(k))}c.s=b;c.g=0;c.f=c.s;Z(c);return c},add:Z,remove:O,removeAll:function(){for(var a=t.length-1;0<=a;--a)O(t[a]);return this},timelines:function(){return t.slice()},globalPlay:function(){x&&(U=x-(new Date).getTime(),x=void 0,M());return this},globalPause:function(){x||(x=u,N(!1));return this},globalState:function(){return x?"paused":"running"}}}();
]]></script><script><![CDATA[if(KeyshapeJS.version.indexOf('1.')!=0)throw Error('Expected KeyshapeJS v1.*.*');window.ks=document.ks=KeyshapeJS;(function(ks){
ks.animate("#anime-path",[{p:'d',t:[0,800],v:["path('M.9,185.5L3.8,185.5L6.7,185.5L9.6,185.5L12.5,185.5L15.4,185.5L18.3,185.5L21.1,185.5L24,185.5L26.9,185.5L29.8,185.5L32.7,185.5L35.6,185.5L38.4,185.5L41.3,185.5L44.2,185.5L47.1,185.5L50,185.5L52.9,185.5L55.8,185.5L58.6,185.5L61.5,185.5L64.4,185.5L67.3,185.5L70.2,185.5L73.1,185.5L76,185.5L78.8,185.5L81.7,185.5L84.6,185.5L87.5,185.5L90.4,185.5L93.3,185.5L96.1,185.5L99,185.5L101.9,185.5L104.8,185.5L107.7,185.5L110.6,185.5L113.5,185.5L116.3,185.5L119.2,185.5L122.1,185.5L125,185.5L127.9,185.5L130.8,185.5L133.7,185.5L136.5,185.5L139.4,185.5L142.3,185.5L145.2,185.5L148.1,185.5L151,185.5L153.9,185.5L156.7,185.5L159.6,185.5L162.5,185.5L165.4,185.5L168.3,185.5L171.2,185.5L174,185.5L176.9,185.5L179.8,185.5L182.7,185.5L185.6,185.5L188.5,185.5L191.4,185.5L194.2,185.5L197.1,185.5L200,185.5L202.9,185.5L205.8,185.5L208.7,185.5L211.6,185.5L214.4,185.5L217.3,185.5L220.2,185.5L223.1,185.5L226,185.5L228.9,185.5L231.7,185.5L234.6,185.5L237.5,185.5L240.4,185.5L243.3,185.5L246.2,185.5L249.1,185.5L251.9,185.5L254.8,185.5L257.7,185.5L260.6,185.5L263.5,185.5L266.4,185.5L269.3,185.5L272.1,185.5L275,185.5L277.9,185.5L280.8,185.5L283.7,185.5L286.6,185.5L289.4,185.5L292.3,185.5L295.2,185.5L298.1,185.5L301,185.5L303.9,185.5L306.8,185.5L309.6,185.5L312.5,185.5L315.4,185.5L318.3,185.5L321.2,185.5L324.1,185.5L327,185.5L329.8,185.5L332.7,185.5L335.6,185.5L338.5,185.5L341.4,185.5L344.3,185.5L347.1,185.5L350,185.5L352.9,185.5L355.8,185.5L358.7,185.5L361.6,185.5L364.5,185.5L367.3,185.5L370.2,185.5L373.1,185.5L376,185.5L378.9,185.5L381.8,185.5L384.7,185.5L387.5,185.5L390.4,185.5L393.3,185.5L396.2,185.5L399.1,185.5L402,185.5L404.9,185.5L407.7,185.5L410.6,185.5L413.5,185.5L416.4,185.5L419.3,185.5L422.2,185.5L425,185.5L427.9,185.5L430.8,185.5L433.7,185.5L436.6,185.5L439.5,185.5L442.4,185.5L445.2,185.5L448.1,185.5L451,185.5L453.9,185.5L456.8,185.5L459.7,185.5L462.6,185.5L465.4,185.5L468.3,185.5L471.2,185.5L474.1,185.5L477,185.5L479.9,185.5L482.7,185.5L485.6,185.5L488.5,185.5L491.4,185.5L494.3,185.5L497.2,185.5L500.1,185.5L502.9,185.5L505.8,185.5L508.7,185.5L511.6,185.5L514.5,185.5L517.4,185.5L520.3,185.5L523.1,185.5L526,185.5L528.9,185.5L531.8,185.5L534.7,185.5L537.6,185.5L540.4,185.5L543.3,185.5L546.2,185.5L549.1,185.5L552,185.5L554.9,185.5L557.8,185.5L560.6,185.5L563.5,185.5L566.4,185.5L569.3,185.5L572.2,185.5L575.1,185.5L578,185.5L580.8,185.5L583.7,185.5L586.6,185.5L589.5,185.5L592.4,185.5L595.3,185.5L598.1,185.5L601,185.5L603.9,185.5L606.8,185.5L609.7,185.5L612.6,185.5L615.5,185.5L618.3,185.5L621.2,185.5L624.1,185.5L627,185.5L629.9,185.5L632.8,185.5L635.7,185.5L638.5,185.5L641.4,185.5L644.3,185.5L647.2,185.5L650.1,185.5L653,185.5L655.9,185.5L658.7,185.5L661.6,185.5L664.5,185.5L667.4,185.5L670.3,185.5L673.2,185.5L676,185.5L678.9,185.5L681.8,185.5L684.7,185.5L687.6,185.5L690.5,185.5L693.4,185.5L696.2,185.5L699.1,185.5L702,185.5L704.9,185.5L707.8,185.5L710.7,185.5L713.6,185.5L716.4,185.5L719.3,185.5L722.2,185.5L725.1,185.5L728,185.5L730.9,185.5L733.7,185.5L736.6,185.5L739.5,185.5L742.4,185.5L745.3,185.5L748.2,185.5')","path('M.9,185.5L3.8,185.5L6.7,180L9.6,183.7L12.5,185.5L15.4,183.7L18.3,180L21.1,180L24,181.8L26.9,181.8L29.8,183.7L32.7,183.7L35.6,181.8L38.4,180L41.3,181.8L44.2,181.8L47.1,181.8L50,181.8L52.9,183.7L55.8,181.8L58.6,181.8L61.5,181.8L64.4,183.7L67.3,178.1L70.2,180L73.1,181.8L76,181.8L78.8,181.8L81.7,180L84.6,181.8L87.5,181.8L90.4,183.7L93.3,183.7L96.1,181.8L99,181.8L101.9,181.8L104.8,183.7L107.7,183.7L110.6,181.8L113.5,180L116.3,178.1L119.2,181.8L122.1,180L125,180L127.9,180L130.8,176.3L133.7,178.1L136.5,176.3L139.4,178.1L142.3,176.3L145.2,178.1L148.1,174.4L151,174.4L153.9,178.1L156.7,176.3L159.6,176.3L162.5,176.3L165.4,178.1L168.3,176.3L171.2,176.3L174,165.2L176.9,172.6L179.8,172.6L182.7,174.4L185.6,172.6L188.5,170.7L191.4,170.7L194.2,174.4L197.1,168.9L200,174.4L202.9,174.4L205.8,172.6L208.7,170.7L211.6,172.6L214.4,172.6L217.3,170.7L220.2,170.7L223.1,172.6L226,174.4L228.9,170.7L231.7,170.7L234.6,170.7L237.5,174.4L240.4,180L243.3,172.6L246.2,170.7L249.1,170.7L251.9,172.6L254.8,172.6L257.7,172.6L260.6,170.7L263.5,165.2L266.4,168.9L269.3,167L272.1,163.3L275,168.9L277.9,165.2L280.8,168.9L283.7,165.2L286.6,165.2L289.4,165.2L292.3,161.5L295.2,165.2L298.1,157.8L301,159.6L303.9,163.3L306.8,161.5L309.6,159.6L312.5,155.9L315.4,161.5L318.3,157.8L321.2,157.8L324.1,155.9L327,155.9L329.8,159.6L332.7,155.9L335.6,159.6L338.5,157.8L341.4,154.1L344.3,157.8L347.1,154.1L350,152.2L352.9,152.2L355.8,150.4L358.7,155.9L361.6,148.5L364.5,143L367.3,143L370.2,148.5L373.1,139.3L376,155.9L378.9,146.7L381.8,141.1L384.7,143L387.5,148.5L390.4,167L393.3,150.4L396.2,131.9L399.1,144.8L402,141.1L404.9,137.4L407.7,133.7L410.6,130L413.5,131.9L416.4,131.9L419.3,131.9L422.2,128.2L425,131.9L427.9,128.2L430.8,124.5L433.7,126.3L436.6,117.1L439.5,126.3L442.4,122.6L445.2,117.1L448.1,120.8L451,122.6L453.9,124.5L456.8,115.2L459.7,118.9L462.6,115.2L465.4,117.1L468.3,133.7L471.2,111.5L474.1,104.1L477,111.5L479.9,113.4L482.7,107.8L485.6,113.4L488.5,115.2L491.4,111.5L494.3,122.6L497.2,107.8L500.1,107.8L502.9,109.7L505.8,109.7L508.7,100.4L511.6,94.9L514.5,96.7L517.4,96.7L520.3,100.4L523.1,94.9L526,126.3L528.9,87.5L531.8,85.6L534.7,91.2L537.6,102.3L540.4,137.4L543.3,100.4L546.2,93L549.1,85.6L552,70.8L554.9,69L557.8,78.2L560.6,72.7L563.5,78.2L566.4,78.2L569.3,70.8L572.2,78.2L575.1,67.1L578,61.6L580.8,63.4L583.7,69L586.6,54.2L589.5,61.6L592.4,57.9L595.3,46.8L598.1,46.8L601,44.9L603.9,69L606.8,48.6L609.7,46.8L612.6,41.2L615.5,39.4L618.3,78.2L621.2,52.3L624.1,50.5L627,33.8L629.9,39.4L632.8,41.2L635.7,43.1L638.5,43.1L641.4,35.7L644.3,63.4L647.2,56L650.1,33.8L653,35.7L655.9,33.8L658.7,39.4L661.6,24.6L664.5,37.5L667.4,32L670.3,28.3L673.2,30.1L676,81.9L678.9,39.4L681.8,9.8L684.7,.5L687.6,33.8L690.5,111.5L693.4,81.9L696.2,33.8L699.1,24.6L702,28.3L704.9,9.8L707.8,15.3L710.7,22.7L713.6,30.1L716.4,17.2L719.3,11.6L722.2,19L725.1,22.7L728,11.6L730.9,13.5L733.7,15.3L736.6,19L739.5,13.5L742.4,19L745.3,15.3L748.2,15.3')"],e:[[0],[0]]}],
{autoremove:false}).range(0,800);
if(document.location.search.substr(1).split('&').indexOf('global=paused')>=0)ks.globalPause()})(KeyshapeJS);
]]></script></svg>