<svg viewBox="0 0 883 382" xmlns="http://www.w3.org/2000/svg"><style>.sans-serif{font-family:-apple-system,BlinkMacSystemFont,'avenir next', avenir,'helvetica neue',helvetica,ubuntu,roboto,noto,'segoe ui',arial,sans-serif}</style><g fill="none" fill-rule="evenodd"><g transform="translate(49.000000, 113.000000)"><path fill-opacity="0" fill="#FFF" fill-rule="nonzero" d="M31 9h754v186H31z"></path><g transform="translate(31.000000, 9.000000)"><path d="M0 139h754v1H0zm0-46h754v1H0zm0-47h754v1H0zM0 0h754v1H0z" fill="#E0E0E0" fill-rule="nonzero"></path><path fill="#9E9E9E" fill-rule="nonzero" d="M0 185h754v1H0z"></path><g transform="translate(1.000000, 0.000000)" stroke-width="3"><path d="M.943 185.519h2.885l2.885-5.551 2.885 3.7 2.885 1.851 2.885-1.851 2.885-3.7h2.885l2.885 1.85h2.885l2.885 1.85h2.885l2.885-1.85 2.885-1.85 2.885 1.85h8.656l2.885 1.85 2.885-1.85h5.77l2.885 1.85 2.885-5.55 2.885 1.85 2.885 1.85h5.77l2.885-1.85 2.885 1.85h2.885l2.885 1.85h2.885l2.885-1.85h5.771l2.885 1.85h2.885l2.885-1.85 2.885-1.85 2.885-1.85 2.885 3.7 2.885-1.85h5.77l2.885-3.7 2.885 1.85 2.885-1.85 2.885 1.85 2.885-1.85 2.885 1.85 2.885-3.701h2.886l2.885 3.701 2.885-1.85h5.77l2.885 1.85 2.885-1.85h2.885l2.885-11.102 2.885 7.401h2.885l2.885 1.85 2.885-1.85 2.885-1.85h2.885l2.885 3.7 2.885-5.55 2.885 5.55h2.886l2.885-1.85 2.885-1.85 2.885 1.85h2.885l2.885-1.85h2.885l2.885 1.85 2.885 1.85 2.885-3.7h5.77l2.885 3.7 2.885 5.551 2.885-7.401 2.885-1.85h2.885l2.886 1.85h5.77l2.885-1.85 2.885-5.551 2.885 3.701 2.885-1.85 2.885-3.701 2.885 5.551 2.885-3.701 2.885 3.701 2.885-3.701h5.77l2.885-3.7 2.885 3.7 2.885-7.4 2.886 1.85 2.885 3.7 2.885-1.85 2.885-1.85 2.885-3.7 2.885 5.55 2.885-3.7h2.885l2.885-1.85h2.885l2.885 3.7 2.885-3.7 2.885 3.7 2.885-1.85 2.885-3.701 2.885 3.701 2.885-3.701 2.885-1.85h2.886l2.885-1.85 2.885 5.551 2.885-7.401 2.885-5.551h2.885l2.885 5.551 2.885-9.251L376 155.916l2.885-9.251 2.885-5.551 2.885 1.85 2.885 5.551 2.885 18.502 2.885-16.652 2.885-18.502 2.885 12.951 2.886-3.7 2.885-3.7 2.885-3.701 2.885-3.7 2.885 1.85h5.77l2.885-3.7 2.885 3.7 2.885-3.7 2.885-3.701 2.885 1.851 2.885-9.251 2.885 9.251 2.885-3.701 2.885-5.55 2.885 3.7 2.885 1.85 2.886 1.85 2.885-9.251 2.885 3.701 2.885-3.701 2.885 1.851 2.885 16.651 2.885-22.202 2.885-7.401 2.885 7.401 2.885 1.85 2.885-5.55 2.885 5.55 2.885 1.85 2.885-3.7 2.885 11.101 2.885-14.801h2.885l2.886 1.85h2.885l2.885-9.251 2.885-5.551 2.885 1.851h2.885l2.885 3.7 2.885-5.551 2.885 31.454 2.885-38.854 2.885-1.85 2.885 5.55 2.885 11.101 2.885 35.154 2.885-37.004 2.885-7.401 2.885-7.4 2.886-14.802 2.885-1.85 2.885 9.251 2.885-5.551 2.885 5.551h2.885l2.885-7.401 2.885 7.401 2.885-11.101 2.885-5.551 2.885 1.85 2.885 5.551 2.885-14.802 2.885 7.401 2.885-3.7 2.885-11.101h2.885l2.885-1.851 2.886 24.053 2.885-20.352 2.885-1.85 2.885-5.551 2.885-1.85 2.885 38.854 2.885-25.903 2.885-1.85L627 33.803l2.885 5.551 2.885 1.85 2.885 1.85h2.885l2.885-7.4 2.885 27.752 2.885-7.4 2.885-22.203 2.886 1.851 2.885-1.851 2.885 5.551 2.885-14.802 2.885 12.952 2.885-5.551 2.885-3.7 2.885 1.85 2.885 51.805 2.885-42.554 2.885-29.603L684.701.5l2.885 33.303 2.885 77.708 2.885-29.603 2.885-48.105 2.885-9.251 2.885 3.701 2.886-18.502 2.885 5.55 2.885 7.401 2.885 7.401 2.885-12.951 2.885-5.551 2.885 7.401 2.885 3.7 2.885-11.101 2.885 1.85 2.885 1.85 2.885 3.701 2.885-5.551 2.885 5.551 2.885-3.701h2.885" stroke="#2196F3"></path><path stroke="#F44336" d="M.943 185.519h750.114"></path><path stroke="#FFCA28" d="M.943 185.519h199.068l2.886-1.851 2.885 1.851h138.482l2.885-1.851 2.885 1.851h2.886l2.885-1.851 2.885 1.851h63.471l2.885-1.851 2.885 1.851h51.931l2.885-1.851 2.885 1.851h8.655l2.885-1.851 2.885 1.851h92.322l2.885-1.851 2.885 1.851h2.885l2.886-1.851 2.885 1.851h5.77l2.885-1.851 2.885 1.851H627l2.885-1.851 2.885 1.851h46.161l2.885-1.851 2.885 1.851h31.736l2.885-1.851 2.885 1.851h8.655l2.885-1.851h2.885l2.885 1.851h2.885l2.885-1.851 2.885 1.851h2.885"></path><path stroke="#43A047" d="M.943 179.968l2.885 1.85 2.885-5.55 2.885 1.85h11.54l2.885 1.85h2.885l2.885-1.85 2.885-1.85h5.77l2.885 1.85h14.426l2.885 1.85h2.885l2.885-3.7 2.885 3.7 2.885-1.85h2.885l2.885 1.85 2.885-3.7h2.885l2.885 3.7 2.885 1.85h2.885l2.885-3.7 2.885-1.85 2.885 1.85 2.886-1.85 2.885 1.85 2.885-1.85 2.885 3.7 2.885-1.85 2.885-3.701h2.885l2.885-1.85 2.885 3.701 2.885-1.851 2.885 1.851h2.885l2.885-5.551 2.885-1.85 2.885 7.401h2.885l2.885-1.851 2.886 1.851h2.885l2.885-5.551h2.885l2.885 3.7 2.885-1.85h5.77l2.885-5.55 2.885 1.85 2.885-3.701 2.885 5.551 2.885-7.401 2.885 3.701 2.885 1.85 2.885 1.85 2.885-3.7 2.885 3.7h8.656l2.885-1.85 2.885 3.7 2.885-3.7 2.885 3.7h2.885l2.885 1.85 2.885-1.85 2.885 1.85 2.885-1.85 2.885 1.85 2.885 1.851 2.885-5.551 2.885 3.7 2.885-1.85 2.886 1.85 2.885-5.55 2.885 3.7 2.885-1.85h5.77l2.885 3.7 2.885-3.7h11.54l2.885-1.85 2.885 1.85 2.885 1.85 2.885-1.85h2.885l2.886-1.85 2.885 1.85 2.885-1.85 2.885 1.85h8.655l2.885 3.7 2.885-3.7h8.655l2.885 1.85 2.885 1.85 2.885-1.85 2.885 1.85h5.77l2.886-1.85h2.885l2.885-1.85 2.885 3.7h2.885l2.885-3.7 2.885 3.7 2.885-3.7 2.885 3.7h5.77l2.885-1.85 2.885 3.701 2.885 1.85 2.885-3.701 2.885-1.85 2.885 1.85h5.771l2.885-1.85h2.885l2.885 1.85 2.885 1.851 2.885-3.701 2.885 1.85h11.54l2.885-1.85 2.885 5.551 2.885-1.85h2.885l2.885-1.851 2.885 1.851h2.886l2.885-1.851h2.885l2.885 1.851 2.885-1.851h2.885l2.885 1.851h2.885l2.885-1.851h2.885l2.885 1.851h2.885l2.885 1.85h2.885l2.885-1.85h2.885l2.885 1.85h2.886l2.885-1.85h11.54l2.885 1.85 2.885 1.85h2.885l2.885-1.85h2.885l2.885-1.85 2.885 1.85 2.885 1.85h2.885l2.885-1.85h2.885l2.886-1.85 2.885 1.85h5.77l2.885 1.85h2.885l2.885-1.85h2.885l2.885-1.85 2.885 1.85h2.885l2.885 1.85 2.885-1.85 2.885 1.85h2.885l2.885-1.85h2.885l2.885 1.85 2.886-1.85h2.885l2.885 1.85 2.885-1.85h2.885l2.885 1.85h2.885l2.885-1.85 2.885 1.85h2.885l2.885-3.7h2.885l2.885 3.7h5.77l2.885-1.85 2.885 1.85 2.886-1.85 2.885 1.85 2.885-1.85 2.885-3.701 2.885 1.851 2.885 1.85 2.885 1.85h20.195l2.885 1.85h8.655l2.886-1.85 2.885 1.85h17.31l2.885-1.85 2.885 1.85 2.885-1.85 2.885 1.85h11.54l2.885-5.55"></path></g><path fill="#999" fill-rule="nonzero" d="M241.402 181h1v5h-1z"></path></g><g transform="translate(0.000000, 194.000000)"><path d="M5.177 5.169V13.7H1.03V5.169h4.148zM3.256 9.434l1.605 3.774V5.667L3.256 9.434zm-.34 0l-1.57-3.697v7.4l1.57-3.703zm.17.399l-1.506 3.55h3.017l-1.511-3.55zM1.58 5.485l1.506 3.55 1.511-3.55H1.58zm10.482 7.33v.885h-5.59v-.78l2.953-3.28q.657-.745.906-1.21.249-.466.249-.964 0-.668-.405-1.096-.404-.428-1.078-.428-.808 0-1.257.46-.448.46-.448 1.28H6.308q0-1.177.759-1.904.759-.726 2.03-.726 1.19 0 1.881.624.692.624.692 1.66 0 1.26-1.606 3l-2.285 2.48h4.283zm2.514-3.17l-.867-.222.433-4.254h4.371V6.17h-3.45l-.259 2.326q.627-.37 1.424-.37 1.166 0 1.852.771.685.77.685 2.083 0 1.319-.712 2.077-.712.76-1.989.76-1.13 0-1.846-.628-.714-.627-.814-1.734h1.025q.1.732.522 1.104.422.372 1.113.372.756 0 1.187-.515.43-.516.43-1.424 0-.856-.466-1.374-.465-.519-1.239-.519-.709 0-1.113.31l-.287.235zM23.2 5.17h1.453l2.789 6.96 2.79-6.96h1.458v8.53h-1.125v-3.322l.106-3.586L27.87 13.7h-.862l-2.795-6.89.112 3.568V13.7H23.2V5.169zm15.358 8.53h-1.136q-.094-.188-.153-.668-.756.785-1.805.785-.937 0-1.538-.53-.6-.53-.6-1.345 0-.99.753-1.538t2.118-.548h1.055v-.498q0-.568-.34-.905-.34-.337-1.002-.337-.58 0-.973.293-.392.293-.392.709h-1.09q0-.475.337-.917.337-.442.914-.7.577-.258 1.268-.258 1.096 0 1.717.548t.645 1.509v2.918q0 .873.222 1.388v.094zm-2.935-.826q.51 0 .966-.264.458-.264.663-.685v-1.301h-.85q-1.992 0-1.992 1.166 0 .51.34.797.34.287.873.287zm4.816-5.514l1.582 4.752 1.477-4.752h1.16l-2.549 7.319q-.592 1.582-1.88 1.582l-.206-.018-.404-.076v-.88l.293.024q.55 0 .858-.222.308-.223.507-.815l.24-.644-2.262-6.27h1.184zm13.635 5.455v.885h-5.59v-.78l2.953-3.28q.656-.745.905-1.21.25-.466.25-.964 0-.668-.405-1.096-.404-.428-1.078-.428-.809 0-1.257.46-.448.46-.448 1.28H48.32q0-1.177.759-1.904.759-.726 2.03-.726 1.19 0 1.88.624.692.624.692 1.66 0 1.26-1.605 3l-2.285 2.48h4.283zm6.498-4.16v1.406q0 1.905-.65 2.83-.65.926-2.034.926-1.365 0-2.021-.905-.656-.905-.68-2.704V8.76q0-1.881.65-2.795.65-.914 2.04-.914 1.377 0 2.027.881.65.882.668 2.722zm-1.084 1.7V8.578q0-1.377-.387-2.007-.387-.63-1.224-.63-.832 0-1.213.627-.381.627-.393 1.928v1.734q0 1.383.401 2.042.402.66 1.216.66.803 0 1.193-.622.39-.62.407-1.957zm2.63 2.777q0-.282.168-.47.167-.187.5-.187.335 0 .508.188.172.187.172.469 0 .27-.172.45-.173.182-.507.182t-.501-.181q-.167-.182-.167-.451zm2.561 0q0-.282.167-.47.167-.187.501-.187.334 0 .507.188.173.187.173.469 0 .27-.173.45-.173.182-.507.182t-.5-.181q-.168-.182-.168-.451zm2.432 0q0-.282.167-.47.167-.187.5-.187.335 0 .508.188.173.187.173.469 0 .27-.173.45-.173.182-.507.182t-.501-.181q-.167-.182-.167-.451z" fill="#9E9E9E"></path><path fill-opacity="0" fill="#FFF" fill-rule="nonzero" d="M.943 3.5h64v12h-64z"></path></g><path d="M326.418 199.169v8.531h-4.148v-8.531h4.148zm-1.921 4.265l1.605 3.774v-7.541l-1.605 3.767zm-.34 0l-1.57-3.697v7.4l1.57-3.703zm.17.399l-1.506 3.55h3.017l-1.511-3.55zm-1.506-4.348l1.506 3.55 1.511-3.55h-3.017zm8.455-.357v8.572h-1.09v-7.225l-2.186.803v-.984l3.106-1.166h.17zm8.525 3.527v1.406q0 1.905-.65 2.83-.65.926-2.033.926-1.366 0-2.022-.905-.656-.905-.68-2.704v-1.447q0-1.881.65-2.795.651-.914 2.04-.914 1.377 0 2.027.881.65.882.668 2.722zm-1.084 1.7v-1.776q0-1.377-.387-2.007-.386-.63-1.224-.63-.832 0-1.213.627-.38.627-.393 1.928v1.734q0 1.383.402 2.042.401.66 1.216.66.802 0 1.192-.622.39-.62.407-1.957zm9.299.872v-6.058h1.13v6.04q0 1.225-.734 1.917-.736.691-1.96.691-1.272 0-1.98-.65-.71-.65-.71-1.822h1.125q0 .732.401 1.142.402.41 1.164.41.697 0 1.128-.44.43-.439.436-1.23zm6.814 2.473l-.023-.627q-.633.744-1.857.744-1.014 0-1.544-.589t-.536-1.743v-4.125h1.084v4.096q0 1.441 1.171 1.441 1.243 0 1.653-.926v-4.61h1.084v6.339h-1.032zm3.856-9v9h-1.084v-9h1.084zm10.184 8.115v.885h-5.59v-.78l2.953-3.28q.656-.745.905-1.21.25-.466.25-.964 0-.668-.405-1.096-.404-.428-1.078-.428-.809 0-1.257.46-.448.46-.448 1.28h-1.084q0-1.177.758-1.904.76-.726 2.03-.726 1.19 0 1.882.624.691.624.691 1.66 0 1.26-1.605 3l-2.286 2.48h4.284zm6.498-4.16v1.406q0 1.905-.65 2.83-.651.926-2.034.926-1.365 0-2.021-.905-.657-.905-.68-2.704v-1.447q0-1.881.65-2.795.65-.914 2.04-.914 1.376 0 2.027.881.65.882.668 2.722zm-1.084 1.7v-1.776q0-1.377-.387-2.007-.387-.63-1.225-.63-.832 0-1.213.627-.38.627-.392 1.928v1.734q0 1.383.401 2.042.402.66 1.216.66.803 0 1.192-.622.39-.62.408-1.957zm6.035-5.227v8.572h-1.09v-7.225l-2.186.803v-.984l3.106-1.166h.17zm7.236.035h.193v.92h-.199q-1.265.023-2.015.75-.75.726-.868 2.045.674-.774 1.84-.774 1.114 0 1.779.785.665.786.665 2.028 0 1.318-.718 2.11-.718.79-1.925.79-1.225 0-1.986-.94-.762-.94-.762-2.423v-.416q0-2.356 1.005-3.6 1.005-1.246 2.991-1.275zm-1.23 3.844q-.557 0-1.026.334t-.65.838v.398q0 1.055.474 1.7.475.644 1.184.644.732 0 1.151-.54.42-.538.42-1.411 0-.88-.425-1.421-.425-.542-1.128-.542zm7.933-3.838v8.531h-4.148v-8.531h4.148zm-1.922 4.265l1.606 3.774v-7.541l-1.606 3.767zm-.34 0l-1.57-3.697v7.4l1.57-3.703zm.17.399l-1.505 3.55h3.017l-1.512-3.55zm-1.505-4.348l1.505 3.55 1.512-3.55h-3.017zm253.499-.316v8.531h-4.15v-8.531h4.15zm-1.923 4.265l1.606 3.774v-7.541l-1.606 3.767zm-.34 0l-1.57-3.697v7.4l1.57-3.703zm.17.399l-1.505 3.55h3.017l-1.511-3.55zm-1.505-4.348l1.506 3.55 1.511-3.55h-3.017zm10.482 7.33v.885h-5.59v-.78l2.953-3.28q.657-.745.906-1.21.249-.466.249-.964 0-.668-.405-1.096-.404-.428-1.078-.428-.808 0-1.257.46-.448.46-.448 1.28h-1.084q0-1.177.759-1.904.759-.726 2.03-.726 1.19 0 1.881.624.692.624.692 1.66 0 1.26-1.606 3l-2.285 2.48h4.283zm5.21-7.652h.192v.92h-.199q-1.265.023-2.015.75-.75.726-.868 2.045.674-.774 1.84-.774 1.114 0 1.779.785.665.786.665 2.028 0 1.318-.718 2.11-.718.79-1.925.79-1.225 0-1.986-.94-.762-.94-.762-2.423v-.416q0-2.356 1.005-3.6 1.005-1.246 2.991-1.275zm-1.231 3.844q-.557 0-1.026.334-.468.334-.65.838v.398q0 1.055.474 1.7.475.644 1.184.644.732 0 1.151-.54.42-.538.42-1.411 0-.88-.425-1.421-.425-.542-1.128-.542zm12.685 4.693l-.814-2.227h-3.574l-.803 2.227h-1.16l3.257-8.531h.985l3.263 8.531h-1.154zm-2.601-7.143l-1.448 3.99h2.9l-1.452-3.99zm8.607 7.143l-.023-.627q-.633.744-1.858.744-1.013 0-1.544-.589-.53-.589-.536-1.743v-4.125h1.084v4.096q0 1.441 1.172 1.441 1.242 0 1.652-.926v-4.61h1.084v6.339h-1.03zm2.42-3.223q0-1.482.686-2.358.685-.876 1.816-.876 1.16 0 1.81.82l.053-.703h.99v6.188q0 1.23-.729 1.94-.73.708-1.96.708-.686 0-1.342-.293t-1.002-.803l.563-.65q.697.861 1.705.861.79 0 1.233-.445.443-.445.443-1.254v-.545q-.65.75-1.776.75-1.113 0-1.802-.896-.688-.897-.688-2.444zm1.09.123q0 1.073.44 1.685.439.612 1.23.612 1.025 0 1.506-.931v-2.895q-.498-.908-1.495-.908-.79 0-1.236.615-.445.615-.445 1.822zm14.35 2.215v.885h-5.59v-.78l2.953-3.28q.656-.745.905-1.21.249-.466.249-.964 0-.668-.404-1.096-.405-.428-1.078-.428-.809 0-1.257.46-.448.46-.448 1.28h-1.084q0-1.177.758-1.904.76-.726 2.03-.726 1.19 0 1.881.624.692.624.692 1.66 0 1.26-1.606 3l-2.285 2.48h4.283zm6.497-4.16v1.406q0 1.905-.65 2.83-.65.926-2.033.926-1.365 0-2.022-.905-.656-.905-.68-2.704v-1.447q0-1.881.651-2.795.65-.914 2.04-.914 1.376 0 2.027.881.65.882.667 2.722zm-1.084 1.7v-1.776q0-1.377-.386-2.007-.387-.63-1.225-.63-.832 0-1.213.627-.38.627-.392 1.928v1.734q0 1.383.401 2.042.401.66 1.216.66.803 0 1.192-.622.39-.62.407-1.957zm6.036-5.227v8.572h-1.09v-7.225l-2.186.803v-.984l3.106-1.166h.17zm8.35 2.267q0 .639-.338 1.137-.337.498-.91.78.667.286 1.057.837.39.551.39 1.248 0 1.108-.748 1.764-.747.656-1.965.656-1.23 0-1.972-.659-.741-.66-.741-1.76 0-.692.378-1.249.378-.556 1.046-.844-.569-.28-.897-.779-.328-.498-.328-1.13 0-1.079.691-1.712.692-.632 1.823-.632 1.125 0 1.819.632.694.633.694 1.711zm-.886 3.979q0-.715-.454-1.166-.454-.451-1.186-.451-.733 0-1.175.445-.442.445-.442 1.172 0 .726.43 1.142.431.416 1.199.416.761 0 1.195-.419.433-.418.433-1.14zm-1.628-5.432q-.64 0-1.035.396-.395.395-.395 1.075 0 .65.39 1.052.39.401 1.04.401t1.04-.401q.39-.402.39-1.052t-.405-1.06q-.404-.41-1.025-.41zm8.103-.773v8.531h-4.148v-8.531h4.148zm-1.922 4.265l1.606 3.774v-7.541l-1.606 3.767zm-.34 0l-1.57-3.697v7.4l1.57-3.703zm.17.399l-1.506 3.55h3.018l-1.512-3.55zm-1.506-4.348l1.506 3.55 1.512-3.55h-3.018z" fill="#9E9E9E"></path><path d="M17.299 151.58v.884h-5.59v-.78l2.953-3.28q.656-.745.905-1.21.25-.466.25-.964 0-.668-.405-1.096-.404-.428-1.078-.428-.809 0-1.257.46-.448.46-.448 1.28h-1.084q0-1.177.759-1.904.758-.726 2.03-.726 1.19 0 1.88.624.692.624.692 1.66 0 1.26-1.605 3l-2.285 2.48h4.283zm2.514-3.17l-.868-.223.434-4.254h4.371v1.002h-3.451l-.258 2.326q.627-.37 1.424-.37 1.166 0 1.851.771.686.77.686 2.083 0 1.319-.712 2.077-.712.76-1.99.76-1.13 0-1.845-.628-.715-.627-.814-1.734h1.025q.1.732.521 1.104.422.372 1.114.372.756 0 1.186-.515.431-.516.431-1.424 0-.856-.466-1.374-.466-.519-1.24-.519-.708 0-1.112.31l-.288.235zm-6.739-46.256l-.867-.222.434-4.254h4.37v1.002h-3.45l-.258 2.326q.627-.37 1.424-.37 1.166 0 1.851.771.686.77.686 2.083 0 1.319-.712 2.077-.712.76-1.99.76-1.13 0-1.845-.628-.715-.627-.815-1.734h1.026q.1.732.521 1.104.422.372 1.114.372.755 0 1.186-.515.43-.516.43-1.424 0-.855-.465-1.374-.466-.519-1.24-.519-.708 0-1.113.31l-.287.235zm10.723-.99v1.406q0 1.905-.65 2.83-.65.926-2.034.926-1.365 0-2.021-.905-.656-.905-.68-2.704v-1.447q0-1.881.65-2.795.65-.914 2.04-.914 1.377 0 2.027.881.65.882.668 2.722zm-1.084 1.7v-1.776q0-1.377-.387-2.007-.387-.63-1.224-.63-.832 0-1.213.627-.381.627-.393 1.928v1.734q0 1.383.401 2.042.402.66 1.216.66.803 0 1.193-.622.39-.62.407-1.957zm-5.496-51.44v.61l-3.533 7.921h-1.137l3.521-7.64h-4.617v-.891h5.766zm2.596 4.476l-.868-.222.434-4.254h4.371v1.002h-3.451l-.258 2.326q.627-.37 1.424-.37 1.166 0 1.851.771.686.77.686 2.083 0 1.319-.712 2.077-.712.76-1.99.76-1.13 0-1.845-.628-.715-.627-.814-1.734h1.025q.1.732.521 1.104.422.372 1.114.372.756 0 1.186-.515.431-.516.431-1.424 0-.855-.466-1.374-.466-.519-1.24-.519-.708 0-1.112.31l-.288.235zM8.271 5.128V13.7h-1.09V6.475l-2.185.803v-.984l3.106-1.166h.17zm8.526 3.527v1.406q0 1.905-.65 2.83-.65.926-2.034.926-1.365 0-2.021-.905-.656-.905-.68-2.704V8.76q0-1.881.65-2.795.65-.914 2.04-.914 1.377 0 2.027.881.65.882.668 2.722zm-1.084 1.7V8.578q0-1.377-.387-2.007-.387-.63-1.224-.63-.832 0-1.213.627-.381.627-.393 1.928v1.734q0 1.383.401 2.042.402.66 1.216.66.803 0 1.193-.622.39-.62.407-1.957zm7.822-1.7v1.406q0 1.905-.65 2.83-.65.926-2.033.926-1.366 0-2.022-.905-.656-.905-.68-2.704V8.76q0-1.881.65-2.795.651-.914 2.04-.914 1.377 0 2.027.881.65.882.668 2.722zm-1.084 1.7V8.578q0-1.377-.387-2.007-.386-.63-1.224-.63-.832 0-1.213.627-.38.627-.393 1.928v1.734q0 1.383.402 2.042.401.66 1.216.66.802 0 1.192-.622.39-.62.407-1.957z" fill="#BDBDBD"></path><path d="M256.5 176.5h32v15h-32z" fill="#FFF" fill-opacity="0" fill-rule="nonzero"></path></g><path fill="#2196F3" d="M59 57h23v23H59z"></path><path d="M104.375 77l-3.652-5.703-1.524 1.64V77h-2.93V62.781h2.93v6.446l1.29-1.768 3.622-4.678h3.604l-5.049 6.319 5.195 7.9h-3.486zm10.586 0l-.078-1.074q-1.045 1.27-2.89 1.27-1.7 0-2.594-.977-.893-.977-.913-2.862v-6.923h2.823v6.826q0 1.65 1.504 1.65 1.435 0 1.972-.996v-7.48h2.832V77h-2.656zm14.307-5.342v.156q0 2.54-1.084 3.96-1.084 1.421-3.028 1.421-1.719 0-2.744-1.318L122.285 77h-2.539V62h2.822v5.38q.977-1.142 2.569-1.142 1.933 0 3.032 1.421t1.099 4zm-2.823-.049q0-1.601-.507-2.338-.508-.738-1.514-.738-1.348 0-1.856 1.104v4.17q.518 1.113 1.875 1.113 1.368 0 1.797-1.348.205-.644.205-1.963zm9.424 5.586q-2.324 0-3.784-1.425-1.46-1.426-1.46-3.8v-.273q0-1.592.615-2.846.615-1.255 1.743-1.934 1.128-.679 2.574-.679 2.168 0 3.413 1.367 1.245 1.368 1.245 3.877v1.153h-6.729q.137 1.035.826 1.66.688.625 1.743.625 1.63 0 2.549-1.182l1.386 1.553q-.635.898-1.719 1.401-1.083.503-2.402.503zm-.322-8.672q-.84 0-1.362.567-.523.566-.67 1.62h3.926v-.224q-.02-.937-.507-1.45-.489-.513-1.387-.513zm12.246-2.158l-.04 2.715q-.575-.078-1.015-.078-1.601 0-2.1 1.084V77h-2.822V66.434h2.666l.079 1.26q.85-1.456 2.353-1.456.469 0 .879.127zm1.26.069h2.656l.088 1.22q1.133-1.416 3.037-1.416 1.68 0 2.5.987.82.986.84 2.949V77h-2.822v-6.758q0-.898-.391-1.304-.39-.405-1.299-.405-1.191 0-1.787 1.016V77h-2.822V66.434zm16.123 10.761q-2.324 0-3.784-1.425-1.46-1.426-1.46-3.8v-.273q0-1.592.615-2.846.615-1.255 1.743-1.934 1.128-.679 2.573-.679 2.168 0 3.413 1.367 1.245 1.368 1.245 3.877v1.153h-6.728q.137 1.035.825 1.66.689.625 1.743.625 1.631 0 2.55-1.182l1.386 1.553q-.635.898-1.719 1.401t-2.402.503zm-.322-8.672q-.84 0-1.363.567-.522.566-.669 1.62h3.926v-.224q-.02-.937-.508-1.45-.488-.513-1.386-.513zm6.826-4.687h2.822v2.598h1.807v2.07h-1.807v5.273q0 .586.225.84.224.254.859.254.469 0 .83-.068v2.138q-.83.254-1.709.254-2.969 0-3.027-2.998v-5.693h-1.543v-2.07h1.543v-2.598zm11.064 13.36q-2.324 0-3.784-1.426t-1.46-3.8v-.273q0-1.592.615-2.846.615-1.255 1.743-1.934 1.128-.679 2.574-.679 2.168 0 3.413 1.367 1.245 1.368 1.245 3.877v1.153h-6.729q.137 1.035.826 1.66.688.625 1.743.625 1.63 0 2.549-1.182l1.386 1.553q-.635.898-1.719 1.401-1.083.503-2.402.503zm-.322-8.673q-.84 0-1.362.567-.523.566-.67 1.62h3.926v-.224q-.02-.937-.507-1.45-.489-.513-1.387-.513zm11.992 5.557q0-.517-.513-.815-.512-.298-1.645-.533-3.77-.79-3.77-3.203 0-1.406 1.167-2.348 1.167-.943 3.052-.943 2.012 0 3.218.948 1.206.947 1.206 2.46h-2.822q0-.605-.391-1-.39-.396-1.22-.396-.714 0-1.104.322-.39.323-.39.82 0 .47.444.757.444.288 1.499.498 1.054.21 1.777.474 2.236.82 2.236 2.842 0 1.445-1.24 2.339-1.24.893-3.203.893-1.328 0-2.359-.473-1.03-.474-1.616-1.3-.586-.824-.586-1.781h2.676q.04.752.557 1.152.517.4 1.386.4.811 0 1.226-.307.415-.308.415-.806z" fill="#4A4A4A"></path><path fill="#FFCA28" d="M248 57h23v23h-23z"></path><path d="M294.283 77l-.986-2.93h-5.137l-.976 2.93h-3.116l5.293-14.219h2.715L297.398 77h-3.115zm-3.564-10.625l-1.768 5.322h3.555l-1.787-5.322zm16.367-3.594l2.334 10.117 1.914-10.117h2.92L311.1 77h-2.95l-2.314-9.512L303.52 77h-2.949l-3.154-14.219h2.92l1.924 10.098 2.343-10.098h2.48zm16.123 10.489q0-.83-.586-1.275-.586-.444-2.11-.937-1.523-.494-2.411-.972-2.422-1.309-2.422-3.525 0-1.153.65-2.056.649-.903 1.864-1.411 1.216-.508 2.73-.508 1.523 0 2.715.552 1.191.551 1.85 1.557.66 1.006.66 2.285h-2.93q0-.976-.615-1.518-.616-.542-1.729-.542-1.074 0-1.67.454-.596.454-.596 1.196 0 .694.699 1.162.698.47 2.055.88 2.5.751 3.643 1.865 1.142 1.113 1.142 2.773 0 1.846-1.396 2.896-1.397 1.05-3.76 1.05-1.64 0-2.988-.601-1.348-.6-2.056-1.646-.708-1.045-.708-2.422h2.94q0 2.354 2.812 2.354 1.045 0 1.631-.425.586-.425.586-1.186zm18.457-4.727v2.295h-5.625v3.808h6.602V77h-9.532V62.781h9.512v2.373h-6.582v3.389h5.625zm10.928 3.72h2.93q-.167 2.296-1.695 3.614t-4.028 1.318q-2.735 0-4.302-1.84-1.567-1.841-1.567-5.054v-.87q0-2.05.722-3.613.723-1.562 2.066-2.397 1.342-.835 3.12-.835 2.46 0 3.965 1.318 1.504 1.319 1.738 3.701h-2.93q-.107-1.376-.766-1.997-.66-.62-2.007-.62-1.465 0-2.193 1.05-.727 1.05-.747 3.257v1.074q0 2.305.699 3.37.698 1.064 2.202 1.064 1.357 0 2.026-.62.67-.62.767-1.92zm12.226 1.007q0-.83-.586-1.275-.586-.444-2.109-.937-1.523-.494-2.412-.972-2.422-1.309-2.422-3.525 0-1.153.65-2.056.649-.903 1.865-1.411 1.215-.508 2.73-.508 1.523 0 2.714.552 1.191.551 1.85 1.557.66 1.006.66 2.285h-2.93q0-.976-.615-1.518t-1.729-.542q-1.074 0-1.67.454-.595.454-.595 1.196 0 .694.698 1.162.698.47 2.056.88 2.5.751 3.642 1.865 1.143 1.113 1.143 2.773 0 1.846-1.397 2.896-1.396 1.05-3.76 1.05-1.64 0-2.988-.601-1.347-.6-2.055-1.646-.708-1.045-.708-2.422h2.939q0 2.354 2.813 2.354 1.044 0 1.63-.425.586-.425.586-1.186z" fill="#4A4A4A"></path><path fill="#F44336" d="M407 57h23v23h-23z"></path><path d="M455.842 62.781V77h-2.93v-6.094H447.2V77h-2.93V62.781h2.93v5.762h5.713v-5.762h2.93zM467.189 77h-2.851q-.195-.38-.283-.947-1.026 1.142-2.666 1.142-1.553 0-2.574-.898-1.02-.899-1.02-2.266 0-1.68 1.245-2.578 1.245-.898 3.599-.908h1.298v-.606q0-.732-.375-1.171-.376-.44-1.187-.44-.713 0-1.118.342-.405.342-.405.937h-2.823q0-.918.567-1.699.566-.781 1.601-1.225 1.035-.445 2.324-.445 1.954 0 3.101.982 1.148.981 1.148 2.759v4.58q.01 1.504.42 2.275V77zm-5.185-1.963q.625 0 1.152-.278.528-.279.781-.747v-1.817h-1.054q-2.12 0-2.256 1.465l-.01.166q0 .528.371.87.371.341 1.016.341zm12.656-.957q0-.517-.513-.815-.512-.298-1.645-.533-3.77-.79-3.77-3.203 0-1.406 1.167-2.348 1.167-.943 3.052-.943 2.012 0 3.218.948 1.206.947 1.206 2.46h-2.822q0-.605-.39-1-.392-.396-1.222-.396-.712 0-1.103.322-.39.323-.39.82 0 .47.444.757.444.288 1.499.498 1.054.21 1.777.474 2.236.82 2.236 2.842 0 1.445-1.24 2.339-1.24.893-3.203.893-1.328 0-2.358-.473-1.03-.474-1.617-1.3-.586-.824-.586-1.781h2.676q.04.752.557 1.152.517.4 1.387.4.81 0 1.225-.307.415-.308.415-.806zM481.975 62v5.586q1.123-1.348 2.822-1.348 3.437 0 3.486 3.994V77h-2.822v-6.69q0-.908-.39-1.342-.391-.435-1.3-.435-1.24 0-1.796.957V77h-2.823V62h2.823zm11.416 4.434V77h-2.832V66.434h2.832zm-2.998-2.735q0-.635.424-1.045.425-.41 1.158-.41.722 0 1.152.41.43.41.43 1.045 0 .645-.435 1.055-.435.41-1.147.41-.713 0-1.148-.41-.434-.41-.434-1.055zm9.716 11.22q.782 0 1.27-.429.488-.43.508-1.142h2.646q-.01 1.074-.586 1.967-.576.894-1.577 1.387-1 .493-2.212.493-2.265 0-3.574-1.44-1.309-1.44-1.309-3.98v-.185q0-2.442 1.3-3.897 1.298-1.455 3.564-1.455 1.982 0 3.178 1.128 1.197 1.128 1.216 3.003h-2.646q-.02-.82-.508-1.333t-1.29-.513q-.985 0-1.488.718t-.503 2.33v.292q0 1.631.498 2.344.498.713 1.513.713zm5.596-3.173v-.127q0-1.572.606-2.803.605-1.23 1.743-1.904 1.137-.674 2.641-.674 2.139 0 3.492 1.309 1.352 1.308 1.508 3.555l.02.722q0 2.432-1.358 3.902-1.357 1.47-3.642 1.47t-3.648-1.466q-1.362-1.464-1.362-3.984zm2.822.078q0 1.504.567 2.3.566.796 1.62.796 1.026 0 1.602-.786.577-.786.577-2.515 0-1.474-.577-2.285-.576-.81-1.62-.81-1.036 0-1.602.805-.567.806-.567 2.495zm14.903-5.459l-.04 2.715q-.576-.078-1.015-.078-1.602 0-2.1 1.084V77h-2.822V66.434h2.666l.078 1.26q.85-1.456 2.354-1.456.469 0 .879.127zm10.83 5.303v.146q0 2.442-1.109 3.912-1.108 1.47-2.993 1.47-1.601 0-2.588-1.114v4.98h-2.822V66.434h2.617l.098 1.035q1.025-1.23 2.676-1.23 1.953 0 3.037 1.445 1.084 1.445 1.084 3.984zm-2.822-.059q0-1.474-.523-2.275-.522-.8-1.519-.8-1.328 0-1.826 1.015v4.326q.518 1.045 1.846 1.045 2.021 0 2.021-3.31zm21.298-8.828V77h-2.93l-5.702-9.355V77h-2.93V62.781h2.93l5.712 9.375v-9.375h2.92zm1.934 8.965v-.127q0-1.572.605-2.803.606-1.23 1.744-1.904 1.137-.674 2.641-.674 2.139 0 3.491 1.309 1.353 1.308 1.51 3.555l.019.722q0 2.432-1.358 3.902-1.357 1.47-3.642 1.47t-3.648-1.466q-1.362-1.464-1.362-3.984zm2.822.078q0 1.504.567 2.3.566.796 1.62.796 1.026 0 1.602-.786.576-.786.576-2.515 0-1.474-.576-2.285-.576-.81-1.62-.81-1.036 0-1.602.805-.567.806-.567 2.495zm8.926-5.39h2.646l.088 1.181q1.123-1.377 3.037-1.377 2.041 0 2.803 1.612 1.113-1.612 3.174-1.612 1.719 0 2.559 1.001.84 1.001.84 3.013V77h-2.833v-6.738q0-.899-.351-1.314-.352-.415-1.24-.415-1.27 0-1.758 1.211l.01 7.256h-2.823v-6.729q0-.917-.361-1.328-.361-.41-1.23-.41-1.202 0-1.739.996V77h-2.822V66.434zM592.707 77h-2.852q-.195-.38-.283-.947-1.025 1.142-2.666 1.142-1.552 0-2.573-.898-1.02-.899-1.02-2.266 0-1.68 1.245-2.578 1.245-.898 3.598-.908h1.3v-.606q0-.732-.377-1.171-.376-.44-1.186-.44-.713 0-1.119.342-.405.342-.405.937h-2.822q0-.918.566-1.699.567-.781 1.602-1.225 1.035-.445 2.324-.445 1.953 0 3.1.982 1.148.981 1.148 2.759v4.58q.01 1.504.42 2.275V77zm-5.186-1.963q.625 0 1.153-.278.527-.279.781-.747v-1.817H588.4q-2.119 0-2.255 1.465l-.01.166q0 .528.37.87.372.341 1.016.341zm6.495-3.398q0-2.471 1.108-3.936 1.108-1.465 3.032-1.465 1.543 0 2.55 1.153V62h2.831v15h-2.549l-.136-1.123q-1.055 1.318-2.715 1.318-1.866 0-2.993-1.47-1.128-1.47-1.128-4.086zm2.822.205q0 1.484.517 2.275.518.791 1.504.791 1.309 0 1.846-1.103v-4.17q-.527-1.104-1.826-1.104-2.041 0-2.041 3.31z" fill="#4A4A4A"></path><path fill="#43A047" d="M647 57h23v23h-23z"></path><path d="M693.283 77l-.986-2.93h-5.137l-.976 2.93h-3.116l5.293-14.219h2.715L696.398 77h-3.115zm-3.564-10.625l-1.768 5.322h3.555l-1.787-5.322zm16.865 5.293v.146q0 2.442-1.108 3.912-1.109 1.47-2.994 1.47-1.601 0-2.587-1.114v4.98h-2.823V66.434h2.617l.098 1.035q1.025-1.23 2.676-1.23 1.953 0 3.037 1.445 1.084 1.445 1.084 3.984zm-2.822-.059q0-1.474-.523-2.275-.522-.8-1.518-.8-1.328 0-1.826 1.015v4.326q.517 1.045 1.845 1.045 2.022 0 2.022-3.31zM717.307 77h-2.852q-.195-.38-.283-.947-1.026 1.142-2.666 1.142-1.553 0-2.573-.898-1.02-.899-1.02-2.266 0-1.68 1.244-2.578 1.245-.898 3.599-.908h1.299v-.606q0-.732-.376-1.171-.376-.44-1.187-.44-.713 0-1.118.342-.405.342-.405.937h-2.823q0-.918.567-1.699.566-.781 1.601-1.225 1.036-.445 2.325-.445 1.953 0 3.1.982 1.148.981 1.148 2.759v4.58q.01 1.504.42 2.275V77zm-5.186-1.963q.625 0 1.152-.278.528-.279.782-.747v-1.817H713q-2.12 0-2.256 1.465l-.01.166q0 .528.371.87.372.341 1.016.341zm11.328-.117q.781 0 1.27-.43.488-.43.508-1.142h2.646q-.01 1.074-.586 1.967-.576.894-1.577 1.387t-2.212.493q-2.266 0-3.574-1.44-1.309-1.44-1.309-3.98v-.185q0-2.442 1.3-3.897 1.298-1.455 3.564-1.455 1.982 0 3.178 1.128 1.197 1.128 1.216 3.003h-2.646q-.02-.82-.508-1.333-.489-.513-1.29-.513-.986 0-1.489.718-.503.718-.503 2.33v.292q0 1.631.499 2.344.498.713 1.513.713zM732.24 62v5.586q1.122-1.348 2.822-1.348 3.437 0 3.486 3.994V77h-2.822v-6.69q0-.908-.391-1.342-.39-.435-1.299-.435-1.24 0-1.797.957V77h-2.822V62h2.822zm13.3 15.195q-2.324 0-3.784-1.425-1.46-1.426-1.46-3.8v-.273q0-1.592.615-2.846.615-1.255 1.743-1.934 1.128-.679 2.574-.679 2.168 0 3.413 1.367 1.245 1.368 1.245 3.877v1.153h-6.729q.137 1.035.825 1.66.689.625 1.744.625 1.63 0 2.548-1.182l1.387 1.553q-.635.898-1.719 1.401t-2.402.503zm-.322-8.672q-.84 0-1.363.567-.522.566-.668 1.62h3.925v-.224q-.02-.937-.507-1.45-.489-.513-1.387-.513zm11.435-5.742h3.828l3.653 10.313 3.633-10.313h3.847V77h-2.94v-3.887l.294-6.709L765.129 77h-2.012l-3.828-10.586.293 6.7V77h-2.93V62.781zm22.198 14.414q-2.325 0-3.785-1.425-1.46-1.426-1.46-3.8v-.273q0-1.592.616-2.846.615-1.255 1.743-1.934 1.128-.679 2.573-.679 2.168 0 3.413 1.367 1.245 1.368 1.245 3.877v1.153h-6.728q.137 1.035.825 1.66t1.743.625q1.631 0 2.549-1.182l1.387 1.553q-.635.898-1.719 1.401t-2.402.503zm-.323-8.672q-.84 0-1.362.567-.522.566-.669 1.62h3.926v-.224q-.02-.937-.508-1.45-.488-.513-1.387-.513zm11.993 5.557q0-.517-.513-.815-.513-.298-1.646-.533-3.77-.79-3.77-3.203 0-1.406 1.168-2.348 1.167-.943 3.052-.943 2.011 0 3.217.948 1.206.947 1.206 2.46h-2.822q0-.605-.39-1-.391-.396-1.221-.396-.713 0-1.104.322-.39.323-.39.82 0 .47.444.757.444.288 1.499.498 1.055.21 1.777.474 2.237.82 2.237 2.842 0 1.445-1.24 2.339-1.24.893-3.204.893-1.328 0-2.358-.473-1.03-.474-1.616-1.3-.586-.824-.586-1.781h2.676q.039.752.556 1.152.518.4 1.387.4.81 0 1.225-.307.416-.308.416-.806zm4.12-2.334v-.127q0-1.572.606-2.803.606-1.23 1.743-1.904 1.138-.674 2.642-.674 2.139 0 3.491 1.309 1.353 1.308 1.509 3.555l.02.722q0 2.432-1.358 3.902-1.357 1.47-3.643 1.47-2.285 0-3.647-1.466-1.362-1.464-1.362-3.984zm2.823.078q0 1.504.566 2.3.567.796 1.621.796 1.026 0 1.602-.786.576-.786.576-2.515 0-1.474-.576-2.285-.576-.81-1.621-.81-1.035 0-1.602.805-.566.806-.566 2.495zm14.648 2.256q0-.517-.512-.815-.513-.298-1.646-.533-3.77-.79-3.77-3.203 0-1.406 1.168-2.348 1.167-.943 3.051-.943 2.012 0 3.218.948 1.206.947 1.206 2.46h-2.822q0-.605-.39-1-.391-.396-1.221-.396-.713 0-1.104.322-.39.323-.39.82 0 .47.444.757.444.288 1.499.498 1.054.21 1.777.474 2.236.82 2.236 2.842 0 1.445-1.24 2.339-1.24.893-3.203.893-1.328 0-2.358-.473-1.03-.474-1.616-1.3-.586-.824-.586-1.781h2.675q.04.752.557 1.152.518.4 1.387.4.81 0 1.225-.307.415-.308.415-.806z" fill="#4A4A4A"></path></g></svg>