<svg viewBox="0 0 1200 472" xmlns="http://www.w3.org/2000/svg" xmlns:xlink="http://www.w3.org/1999/xlink"><style>.sans-serif{font-family:-apple-system,BlinkMacSystemFont,'avenir next', avenir,'helvetica neue',helvetica,ubuntu,roboto,noto,'segoe ui',arial,sans-serif}</style><defs><path d="M78 0l52 52v85.8c0 10.052-8.148 18.2-18.2 18.2H18.2C8.148 156 0 147.852 0 137.8V18.2C0 8.148 8.148 0 18.2 0H78z" id="path-2"></path><path d="M78 0h32.88C120.933 0 130 9.068 130 19.12V52L78 0z" id="path-4"></path><linearGradient x1="50%" y1="0%" x2="50%" y2="100%" id="linearGradient-1"><stop stop-color="#D0D8E1" offset="0%"></stop><stop stop-color="#BAC3CD" offset="100%"></stop></linearGradient></defs><g fill="none" fill-rule="evenodd"><g transform="translate(92.000000, 152.000000)"><use fill="url(#linearGradient-1)" xlink:href="#path-2"></use><g mask="url(#mask-3)" transform="translate(104.000000, 26.000000) scale(-1, -1) translate(-104.000000, -26.000000)"><use fill="#000" filter="url(#filter-5)" xlink:href="#path-4"></use><use fill-opacity="0.4" fill="#FFF" xlink:href="#path-4"></use></g><path d="M72.854 88.432h7.64V81.54h-7.64v6.892zm-9.03 0h7.64V81.54h-7.64v6.892zm-9.03 0h7.64V81.54h-7.64v6.892zm-9.03 0h7.64V81.54h-7.64v6.892zm-9.03 0h7.64V81.54h-7.64v6.892zm9.03-8.27h7.64V73.27h-7.64v6.892zm9.03 0h7.64V73.27h-7.64v6.892zm9.03 0h7.64V73.27h-7.64v6.892zm0-8.27h7.64V65h-7.64v6.892zm39.633 12.522c-1.669-1.108-5.502-1.514-8.453-.961-.38-2.758-1.93-5.149-4.747-7.31l-1.62-1.072-1.08 1.609c-1.384 2.07-2.075 4.938-1.848 7.689.102.967.422 2.698 1.425 4.22-1.003.534-2.985 1.271-5.597 1.222H31.285l-.098.574c-.472 2.764-.462 11.39 5.182 18.02C40.66 113.445 47.093 116 55.49 116c18.2 0 31.666-8.313 37.972-23.423 2.48.048 7.819.014 10.561-5.185.072-.12.236-.432.715-1.417l.263-.54-1.543-1.021z" fill="#6C6C6C"></path></g><path d="M95.287 126h-6.166v-19.906h6.125q2.625 0 4.697 1.182 2.07 1.183 3.233 3.364 1.162 2.18 1.162 4.956v.916q0 2.775-1.141 4.935-1.142 2.16-3.22 3.35-2.078 1.19-4.69 1.203zm-.04-16.584h-2.024v13.29h1.982q2.407 0 3.678-1.573 1.272-1.572 1.299-4.498v-1.053q0-3.035-1.258-4.6-1.258-1.566-3.678-1.566zm11.197 9.229v-.178q0-2.201.847-3.924.848-1.723 2.44-2.666 1.593-.943 3.699-.943 2.994 0 4.888 1.832 1.893 1.832 2.112 4.976l.027 1.012q0 3.404-1.9 5.462-1.9 2.057-5.1 2.057-3.199 0-5.106-2.05-1.907-2.051-1.907-5.578zm3.95.109q0 2.105.794 3.22.793 1.114 2.27 1.114 1.435 0 2.241-1.1.807-1.101.807-3.521 0-2.065-.807-3.2-.806-1.134-2.27-1.134-1.448 0-2.241 1.128-.793 1.128-.793 3.493zm18.65 4.334q1.093 0 1.777-.602.683-.601.71-1.6h3.706q-.014 1.505-.82 2.756-.807 1.25-2.209 1.941-1.401.69-3.096.69-3.172 0-5.004-2.016-1.832-2.017-1.832-5.571v-.26q0-3.418 1.818-5.455t4.99-2.037q2.776 0 4.45 1.579 1.675 1.579 1.703 4.204h-3.706q-.027-1.149-.71-1.866-.684-.718-1.805-.718-1.381 0-2.085 1.005t-.704 3.26v.41q0 2.284.697 3.282.697.998 2.12.998zM146.665 126l-3.8-5.934-1.422 1.422V126h-3.952v-21h3.952v11.635l.765-.985 3.787-4.443h4.744l-5.345 6.166 5.81 8.627h-4.539zm12.319.273q-3.254 0-5.298-1.996t-2.044-5.318v-.383q0-2.228.861-3.985.861-1.757 2.44-2.707 1.58-.95 3.603-.95 3.035 0 4.778 1.914 1.744 1.914 1.744 5.427v1.614h-9.42q.191 1.449 1.155 2.324.964.875 2.44.875 2.284 0 3.569-1.654l1.941 2.173q-.889 1.258-2.406 1.962-1.518.704-3.363.704zm-.452-12.14q-1.175 0-1.907.793-.731.793-.936 2.27h5.496v-.315q-.028-1.313-.711-2.03-.684-.718-1.942-.718zm17.145-3.022l-.055 3.801q-.806-.11-1.422-.11-2.242 0-2.939 1.518V126h-3.951v-14.793h3.732l.11 1.764q1.189-2.037 3.295-2.037.656 0 1.23.177zM182.842 126h-3.965v-11.895h-2.201v-2.898h2.201v-1.258q0-2.488 1.429-3.862t3.999-1.374q.82 0 2.01.273l-.041 3.063q-.493-.123-1.203-.123-2.229 0-2.229 2.092v1.189h2.94v2.898h-2.94V126zm9.16-14.793V126h-3.965v-14.793h3.965zm-4.197-3.828q0-.889.595-1.463.594-.574 1.62-.574 1.011 0 1.613.574.602.574.602 1.463 0 .902-.609 1.476-.608.575-1.606.575-.998 0-1.607-.575-.608-.574-.608-1.476zM199.426 105v21h-3.965v-21h3.965zm10.063 21.273q-3.254 0-5.298-1.996t-2.044-5.318v-.383q0-2.228.861-3.985.861-1.757 2.44-2.707 1.58-.95 3.603-.95 3.035 0 4.778 1.914 1.744 1.914 1.744 5.427v1.614h-9.42q.191 1.449 1.155 2.324.964.875 2.44.875 2.284 0 3.569-1.654l1.941 2.173q-.889 1.258-2.406 1.962-1.518.704-3.363.704zm-.452-12.14q-1.175 0-1.907.793-.731.793-.936 2.27h5.496v-.315q-.028-1.313-.711-2.03-.684-.718-1.942-.718zM441.148 126h-6.166v-19.906h6.125q2.625 0 4.697 1.182 2.07 1.183 3.233 3.364 1.162 2.18 1.162 4.956v.916q0 2.775-1.141 4.935-1.142 2.16-3.22 3.35-2.078 1.19-4.69 1.203zm-.04-16.584h-2.024v13.29h1.982q2.407 0 3.678-1.573 1.272-1.572 1.299-4.498v-1.053q0-3.035-1.258-4.6-1.258-1.566-3.678-1.566zm11.197 9.229v-.178q0-2.201.847-3.924.848-1.723 2.44-2.666 1.593-.943 3.699-.943 2.994 0 4.888 1.832 1.893 1.832 2.112 4.976l.027 1.012q0 3.404-1.9 5.462-1.9 2.057-5.1 2.057-3.199 0-5.106-2.05-1.907-2.051-1.907-5.578zm3.95.109q0 2.105.794 3.22.793 1.114 2.27 1.114 1.435 0 2.241-1.1.807-1.101.807-3.521 0-2.065-.807-3.2-.806-1.134-2.27-1.134-1.448 0-2.241 1.128-.793 1.128-.793 3.493zm18.65 4.334q1.093 0 1.777-.602.683-.601.71-1.6h3.706q-.014 1.505-.82 2.756-.807 1.25-2.209 1.941-1.401.69-3.096.69-3.172 0-5.004-2.016-1.832-2.017-1.832-5.571v-.26q0-3.418 1.818-5.455t4.99-2.037q2.776 0 4.45 1.579 1.675 1.579 1.703 4.204h-3.706q-.027-1.149-.71-1.866-.684-.718-1.805-.718-1.381 0-2.085 1.005t-.704 3.26v.41q0 2.284.697 3.282.697.998 2.12.998zM492.526 126l-3.8-5.934-1.422 1.422V126h-3.952v-21h3.952v11.635l.765-.985 3.787-4.443h4.744l-5.345 6.166 5.81 8.627h-4.539zm12.319.273q-3.254 0-5.298-1.996t-2.044-5.318v-.383q0-2.228.861-3.985.861-1.757 2.44-2.707 1.58-.95 3.603-.95 3.035 0 4.778 1.914 1.744 1.914 1.744 5.427v1.614h-9.42q.191 1.449 1.155 2.324.964.875 2.44.875 2.284 0 3.569-1.654l1.941 2.173q-.889 1.258-2.406 1.962-1.518.704-3.363.704zm-.452-12.14q-1.175 0-1.907.793-.731.793-.936 2.27h5.496v-.315q-.028-1.313-.711-2.03-.684-.718-1.942-.718zm17.145-3.022l-.055 3.801q-.806-.11-1.422-.11-2.242 0-2.939 1.518V126h-3.951v-14.793h3.732l.11 1.764q1.189-2.037 3.295-2.037.656 0 1.23.177zm12.988.096V126h-3.965v-14.793h3.965zm-4.197-3.828q0-.889.595-1.463.594-.574 1.62-.574 1.012 0 1.613.574.602.574.602 1.463 0 .902-.609 1.476-.608.575-1.606.575-.998 0-1.607-.575-.608-.574-.608-1.476zm7.451 3.828h3.705l.123 1.654q1.573-1.927 4.252-1.927 2.858 0 3.924 2.255 1.559-2.255 4.443-2.255 2.407 0 3.582 1.401 1.176 1.401 1.176 4.218V126h-3.965v-9.434q0-1.257-.492-1.838-.492-.582-1.736-.582-1.777 0-2.461 1.696l.014 10.158h-3.952v-9.42q0-1.285-.505-1.86-.506-.574-1.723-.574-1.682 0-2.434 1.395V126h-3.95v-14.793zM574.586 126h-3.992q-.274-.533-.397-1.326-1.435 1.6-3.732 1.6-2.174 0-3.603-1.258-1.428-1.258-1.428-3.172 0-2.352 1.743-3.61 1.743-1.257 5.038-1.271h1.818v-.848q0-1.025-.526-1.64-.527-.616-1.661-.616-.998 0-1.566.479-.567.478-.567 1.312h-3.951q0-1.285.793-2.379.793-1.093 2.242-1.715 1.449-.622 3.254-.622 2.734 0 4.34 1.374 1.607 1.374 1.607 3.862v6.412q.014 2.106.588 3.186V126zm-7.26-2.748q.875 0 1.613-.39.739-.39 1.094-1.046v-2.543h-1.476q-2.967 0-3.159 2.051l-.013.233q0 .738.52 1.216.519.479 1.421.479zm9.133-4.594v-.164q0-3.404 1.62-5.482 1.62-2.078 4.368-2.078 2.434 0 3.787 1.668l.164-1.395h3.582v14.3q0 1.942-.881 3.378-.882 1.435-2.482 2.187-1.6.752-3.746.752-1.627 0-3.172-.65-1.545-.649-2.338-1.674l1.75-2.406q1.477 1.654 3.582 1.654 1.573 0 2.448-.84.875-.842.875-2.387v-.792q-1.368 1.544-3.596 1.544-2.666 0-4.314-2.085-1.647-2.084-1.647-5.53zm3.951.123q0 2.01.807 3.152.806 1.141 2.215 1.141 1.804 0 2.584-1.353V115.5q-.793-1.354-2.557-1.354-1.422 0-2.235 1.163-.814 1.162-.814 3.472zm19.414 7.492q-3.254 0-5.298-1.996t-2.044-5.318v-.383q0-2.228.862-3.985.861-1.757 2.44-2.707 1.58-.95 3.603-.95 3.035 0 4.778 1.914 1.743 1.914 1.743 5.427v1.614h-9.42q.192 1.449 1.155 2.324.964.875 2.44.875 2.284 0 3.57-1.654l1.94 2.173q-.888 1.258-2.406 1.962-1.517.704-3.363.704zm-.451-12.14q-1.176 0-1.907.793-.732.793-.937 2.27h5.496v-.315q-.027-1.313-.71-2.03-.684-.718-1.942-.718zM822.34 126h-6.167v-19.906h6.125q2.625 0 4.697 1.182 2.07 1.183 3.233 3.364 1.162 2.18 1.162 4.956v.916q0 2.775-1.141 4.935-1.142 2.16-3.22 3.35-2.078 1.19-4.69 1.203zm-.042-16.584h-2.023v13.29h1.982q2.407 0 3.678-1.573 1.272-1.572 1.299-4.498v-1.053q0-3.035-1.258-4.6-1.258-1.566-3.678-1.566zm11.198 9.229v-.178q0-2.201.847-3.924.848-1.723 2.44-2.666 1.593-.943 3.699-.943 2.994 0 4.888 1.832 1.893 1.832 2.112 4.976l.027 1.012q0 3.404-1.9 5.462-1.9 2.057-5.1 2.057-3.199 0-5.106-2.05-1.907-2.051-1.907-5.578zm3.95.109q0 2.105.794 3.22.793 1.114 2.27 1.114 1.435 0 2.241-1.1.807-1.101.807-3.521 0-2.065-.807-3.2-.806-1.134-2.27-1.134-1.448 0-2.241 1.128-.793 1.128-.793 3.493zm18.65 4.334q1.093 0 1.777-.602.683-.601.71-1.6h3.706q-.014 1.505-.82 2.756-.807 1.25-2.209 1.941-1.401.69-3.096.69-3.172 0-5.004-2.016-1.832-2.017-1.832-5.571v-.26q0-3.418 1.818-5.455t4.99-2.037q2.776 0 4.45 1.579 1.675 1.579 1.703 4.204h-3.706q-.027-1.149-.71-1.866-.684-.718-1.805-.718-1.381 0-2.085 1.005t-.704 3.26v.41q0 2.284.697 3.282.697.998 2.12.998zM873.717 126l-3.8-5.934-1.422 1.422V126h-3.952v-21h3.952v11.635l.765-.985 3.787-4.443h4.744l-5.345 6.166 5.81 8.627h-4.539zm12.319.273q-3.254 0-5.298-1.996t-2.044-5.318v-.383q0-2.228.861-3.985.861-1.757 2.44-2.707 1.58-.95 3.603-.95 3.035 0 4.778 1.914 1.744 1.914 1.744 5.427v1.614h-9.42q.191 1.449 1.155 2.324.964.875 2.44.875 2.284 0 3.569-1.654l1.941 2.173q-.889 1.258-2.406 1.962-1.518.704-3.363.704zm-.452-12.14q-1.175 0-1.907.793-.731.793-.936 2.27h5.496v-.315q-.028-1.313-.711-2.03-.684-.718-1.942-.718zm17.145-3.022l-.055 3.801q-.806-.11-1.422-.11-2.242 0-2.939 1.518V126h-3.951v-14.793h3.732l.11 1.764q1.189-2.037 3.295-2.037.656 0 1.23.177zm14.97 11.977q1.094 0 1.778-.602.684-.601.711-1.6h3.705q-.014 1.505-.82 2.756-.807 1.25-2.208 1.941-1.402.69-3.097.69-3.172 0-5.004-2.016-1.832-2.017-1.832-5.571v-.26q0-3.418 1.818-5.455 1.819-2.037 4.99-2.037 2.776 0 4.45 1.579 1.676 1.579 1.703 4.204h-3.705q-.027-1.149-.711-1.866-.684-.718-1.805-.718-1.38 0-2.085 1.005-.704 1.005-.704 3.26v.41q0 2.284.698 3.282.697.998 2.119.998zm7.835-4.443v-.178q0-2.201.847-3.924.848-1.723 2.44-2.666 1.594-.943 3.699-.943 2.994 0 4.888 1.832 1.893 1.832 2.112 4.976l.027 1.012q0 3.404-1.9 5.462-1.9 2.057-5.1 2.057-3.199 0-5.106-2.05-1.907-2.051-1.907-5.578zm3.95.109q0 2.105.794 3.22.793 1.114 2.27 1.114 1.435 0 2.242-1.1.806-1.101.806-3.521 0-2.065-.806-3.2-.807-1.134-2.27-1.134-1.45 0-2.242 1.128-.793 1.128-.793 3.493zm12.415-7.547h3.719l.123 1.709q1.586-1.982 4.252-1.982 2.351 0 3.5 1.38 1.148 1.381 1.175 4.13V126h-3.95v-9.46q0-1.259-.548-1.826-.546-.568-1.818-.568-1.668 0-2.502 1.422V126h-3.95v-14.793zm16.543-3.637h3.951v3.637h2.53v2.898h-2.53v7.383q0 .82.314 1.176.315.356 1.204.356.656 0 1.162-.096v2.994q-1.162.355-2.393.355-4.156 0-4.238-4.197v-7.97h-2.16v-2.899h2.16v-3.637zM979.689 126h-3.992q-.274-.533-.397-1.326-1.435 1.6-3.732 1.6-2.174 0-3.603-1.258-1.428-1.258-1.428-3.172 0-2.352 1.743-3.61 1.743-1.257 5.038-1.271h1.818v-.848q0-1.025-.526-1.64-.527-.616-1.661-.616-.998 0-1.566.479-.567.478-.567 1.312h-3.951q0-1.285.793-2.379.793-1.093 2.242-1.715 1.45-.622 3.254-.622 2.734 0 4.34 1.374 1.607 1.374 1.607 3.862v6.412q.014 2.106.588 3.186V126zm-7.26-2.748q.875 0 1.613-.39.739-.39 1.094-1.046v-2.543h-1.476q-2.967 0-3.159 2.051l-.013.233q0 .738.52 1.216.519.479 1.421.479zm13.877-12.045V126h-3.965v-14.793h3.965zm-4.197-3.828q0-.889.595-1.463.594-.574 1.62-.574 1.011 0 1.613.574.602.574.602 1.463 0 .902-.609 1.476-.608.575-1.606.575-.998 0-1.607-.575-.608-.574-.608-1.476zm7.369 3.828h3.719l.123 1.709q1.586-1.982 4.252-1.982 2.351 0 3.5 1.38 1.148 1.381 1.176 4.13V126h-3.952v-9.46q0-1.259-.546-1.826-.547-.568-1.819-.568-1.668 0-2.502 1.422V126h-3.951v-14.793zm22.572 15.066q-3.254 0-5.298-1.996-2.043-1.996-2.043-5.318v-.383q0-2.228.86-3.985.862-1.757 2.441-2.707 1.58-.95 3.603-.95 3.035 0 4.778 1.914 1.743 1.914 1.743 5.427v1.614h-9.42q.192 1.449 1.156 2.324.963.875 2.44.875 2.283 0 3.568-1.654l1.942 2.173q-.889 1.258-2.406 1.962-1.518.704-3.364.704zm-.45-12.14q-1.177 0-1.908.793-.732.793-.937 2.27h5.496v-.315q-.027-1.313-.71-2.03-.684-.718-1.942-.718zm17.144-3.022l-.055 3.801q-.807-.11-1.422-.11-2.242 0-2.94 1.518V126h-3.95v-14.793h3.732l.11 1.764q1.189-2.037 3.294-2.037.656 0 1.23.177z" fill="#2C2C2C"></path><g transform="translate(830.000000, 165.000000)"><rect fill="#066DA5" width="204" height="130" rx="6.5"></rect><path d="M110.093 61.81h13.526V49.514h-13.526v12.298zm-15.986 0h13.526V49.514H94.107v12.298zm-15.985 0h13.526V49.514H78.122v12.298zm-15.986 0h13.527V49.514H62.136v12.298zm-15.985 0h13.526V49.514H46.151v12.298zm15.985-14.756h13.527V34.757H62.136v12.297zm15.986 0h13.526V34.757H78.122v12.297zm15.985 0h13.526V34.757H94.107v12.297zm0-14.756h13.526V20H94.107v12.298zM164.27 54.64c-2.954-1.976-9.741-2.7-14.965-1.715-.673-4.92-3.415-9.186-8.402-13.043l-2.868-1.912-1.913 2.87c-2.45 3.694-3.673 8.812-3.272 13.72.18 1.727.748 4.815 2.524 7.53-1.776.954-5.285 2.268-9.91 2.18H36.505l-.174 1.025c-.836 4.932-.818 20.323 9.174 32.154C53.101 106.439 64.49 111 79.351 111c32.22 0 56.058-14.833 67.222-41.794 4.39.086 13.841.025 18.697-9.252.126-.213.417-.77 1.265-2.527l.465-.964-2.731-1.823z" fill="#FFF"></path></g><g filter="url(#filter-6)" transform="translate(870.000000, 205.000000)"><rect fill="#066DA5" width="204" height="130" rx="6.5"></rect><path d="M110.093 61.81h13.526V49.514h-13.526v12.298zm-15.986 0h13.526V49.514H94.107v12.298zm-15.985 0h13.526V49.514H78.122v12.298zm-15.986 0h13.527V49.514H62.136v12.298zm-15.985 0h13.526V49.514H46.151v12.298zm15.985-14.756h13.527V34.757H62.136v12.297zm15.986 0h13.526V34.757H78.122v12.297zm15.985 0h13.526V34.757H94.107v12.297zm0-14.756h13.526V20H94.107v12.298zM164.27 54.64c-2.954-1.976-9.741-2.7-14.965-1.715-.673-4.92-3.415-9.186-8.402-13.043l-2.868-1.912-1.913 2.87c-2.45 3.694-3.673 8.812-3.272 13.72.18 1.727.748 4.815 2.524 7.53-1.776.954-5.285 2.268-9.91 2.18H36.505l-.174 1.025c-.836 4.932-.818 20.323 9.174 32.154C53.101 106.439 64.49 111 79.351 111c32.22 0 56.058-14.833 67.222-41.794 4.39.086 13.841.025 18.697-9.252.126-.213.417-.77 1.265-2.527l.465-.964-2.731-1.823z" fill="#FFF"></path></g><g filter="url(#filter-7)" transform="translate(910.000000, 245.000000)"><rect fill="#066DA5" width="204" height="130" rx="6.5"></rect><path d="M110.093 61.81h13.526V49.514h-13.526v12.298zm-15.986 0h13.526V49.514H94.107v12.298zm-15.985 0h13.526V49.514H78.122v12.298zm-15.986 0h13.527V49.514H62.136v12.298zm-15.985 0h13.526V49.514H46.151v12.298zm15.985-14.756h13.527V34.757H62.136v12.297zm15.986 0h13.526V34.757H78.122v12.297zm15.985 0h13.526V34.757H94.107v12.297zm0-14.756h13.526V20H94.107v12.298zM164.27 54.64c-2.954-1.976-9.741-2.7-14.965-1.715-.673-4.92-3.415-9.186-8.402-13.043l-2.868-1.912-1.913 2.87c-2.45 3.694-3.673 8.812-3.272 13.72.18 1.727.748 4.815 2.524 7.53-1.776.954-5.285 2.268-9.91 2.18H36.505l-.174 1.025c-.836 4.932-.818 20.323 9.174 32.154C53.101 106.439 64.49 111 79.351 111c32.22 0 56.058-14.833 67.222-41.794 4.39.086 13.841.025 18.697-9.252.126-.213.417-.77 1.265-2.527l.465-.964-2.731-1.823z" fill="#FFF"></path></g><g transform="translate(426.000000, 165.000000)"><rect fill="#B3B3B3" width="204" height="130" rx="6.5"></rect><path d="M111.093 61.81h13.526V49.514h-13.526v12.298zm-15.986 0h13.526V49.514H95.107v12.298zm-15.985 0h13.526V49.514H79.122v12.298zm-15.986 0h13.527V49.514H63.136v12.298zm-15.985 0h13.526V49.514H47.151v12.298zm15.985-14.756h13.527V34.757H63.136v12.297zm15.986 0h13.526V34.757H79.122v12.297zm15.985 0h13.526V34.757H95.107v12.297zm0-14.756h13.526V20H95.107v12.298zM165.27 54.64c-2.954-1.976-9.741-2.7-14.965-1.715-.673-4.92-3.415-9.186-8.402-13.043l-2.868-1.912-1.913 2.87c-2.45 3.694-3.673 8.812-3.272 13.72.18 1.727.748 4.815 2.524 7.53-1.776.954-5.285 2.268-9.91 2.18H37.505l-.174 1.025c-.836 4.932-.818 20.323 9.174 32.154C54.101 106.439 65.49 111 80.351 111c32.22 0 56.058-14.833 67.222-41.794 4.39.086 13.841.025 18.697-9.252.126-.213.417-.77 1.265-2.527l.465-.964-2.731-1.823z" fill="#FFF"></path></g><g transform="translate(650.000000, 210.000000)"><path d="M0 20.5h128" stroke="#455A64" stroke-width="15"></path><path d="M156.218 23.194c2.326-1.488 2.33-3.897 0-5.387L131.423 1.951C126.771-1.024 123 1.046 123 6.57v27.86c0 5.526 3.778 7.59 8.423 4.62l24.795-15.857z" fill="#455A64"></path></g><g transform="translate(248.000000, 210.000000)"><path d="M0 20.5h128" stroke="#455A64" stroke-width="15"></path><path d="M156.218 23.194c2.326-1.488 2.33-3.897 0-5.387L131.423 1.951C126.771-1.024 123 1.046 123 6.57v27.86c0 5.526 3.778 7.59 8.423 4.62l24.795-15.857z" fill="#455A64"></path></g><path d="M263.262 263.762V278h-2.822v-10.879l-3.37 1.045v-2.295l5.89-2.11h.302zm126 0V278h-2.822v-10.879l-3.37 1.045v-2.295l5.89-2.11h.302zm282 0V278h-2.822v-10.879l-3.37 1.045v-2.295l5.89-2.11h.302zm122.16.019V278h-2.93l-5.703-9.355V278h-2.93v-14.219h2.93l5.713 9.375v-9.375h2.92z" fill="#9B9B9B"></path></g></svg>