<svg viewBox="0 0 1200 900" fill="none" xmlns="http://www.w3.org/2000/svg"><path fill="#fff" d="M0 0h1200v900H0z"></path><g clip-path="url(#clip0)"><path fill-rule="evenodd" clip-rule="evenodd" d="M121 216.8l62.4 62.4v102.96c0 12.062-9.778 21.84-21.84 21.84H49.24c-12.062 0-21.84-9.778-21.84-21.84V238.64c0-12.062 9.778-21.84 21.84-21.84H121z" fill="url(#paint0_linear)"></path><mask id="mask0" maskUnits="userSpaceOnUse" x="27" y="216" width="157" height="188"><path fill-rule="evenodd" clip-rule="evenodd" d="M121 216.8l62.4 62.4v102.96c0 12.062-9.778 21.84-21.84 21.84H49.24c-12.062 0-21.84-9.778-21.84-21.84V238.64c0-12.062 9.778-21.84 21.84-21.84H121z" fill="#fff"></path></mask><g filter="url(#filter0_d)" mask="url(#mask0)"><path fill-rule="evenodd" clip-rule="evenodd" d="M183.4 279.2h-39.457c-12.062 0-22.943-10.881-22.943-22.943V216.8l62.4 62.4z" fill="#fff" fill-opacity="0.4"></path></g><path fill-rule="evenodd" clip-rule="evenodd" d="M114.825 322.919h9.169v-8.271h-9.169v8.271zm-10.836 0h9.168v-8.271h-9.168v8.271zm-10.836 0h9.169v-8.271h-9.17v8.271zm-10.836 0h9.169v-8.271h-9.17v8.271zm-10.836 0h9.169v-8.271h-9.17v8.271zm10.836-9.925h9.169v-8.27h-9.17v8.27zm10.836 0h9.169v-8.27h-9.17v8.27zm10.836 0h9.168v-8.27h-9.168v8.27zm0-9.923h9.168V294.8h-9.168v8.271zm47.559 15.026c-2.002-1.33-6.603-1.817-10.144-1.154-.456-3.309-2.314-6.178-5.695-8.771l-1.944-1.287-1.297 1.931c-1.66 2.484-2.49 5.926-2.218 9.227.123 1.161.507 3.238 1.711 5.064-1.203.641-3.582 1.525-6.717 1.466H64.942l-.118.689c-.567 3.317-.554 13.668 6.22 21.624C76.191 352.933 83.91 356 93.985 356c21.841 0 38-9.975 45.567-28.108 2.976.059 9.383.017 12.674-6.222.086-.143.283-.518.858-1.699l.315-.649-1.852-1.225z" fill="#6C6C6C"></path><path d="M35.463 185c7.605 0 12.212-4.704 12.212-12.504 0-7.776-4.607-12.456-12.139-12.456h-8.92V185h8.847zm-3.57-4.522v-15.916h3.363c4.68 0 7.154 2.388 7.154 7.934 0 5.569-2.474 7.982-7.166 7.982h-3.352zm27.052 4.888c5.68 0 9.214-3.888 9.214-9.653 0-5.801-3.535-9.677-9.214-9.677-5.68 0-9.214 3.876-9.214 9.677 0 5.765 3.535 9.653 9.214 9.653zm.024-4.022c-2.62 0-3.96-2.401-3.96-5.667 0-3.267 1.34-5.68 3.96-5.68 2.572 0 3.913 2.413 3.913 5.68 0 3.266-1.341 5.667-3.913 5.667zm20.024 4.022c4.985 0 8.117-2.925 8.36-7.228h-4.899c-.305 1.999-1.62 3.12-3.4 3.12-2.425 0-3.998-2.035-3.998-5.618 0-3.534 1.585-5.557 3.998-5.557 1.901 0 3.12 1.255 3.4 3.12h4.9c-.22-4.327-3.498-7.167-8.385-7.167-5.68 0-9.19 3.937-9.19 9.677 0 5.692 3.45 9.653 9.214 9.653zM89.678 185h5.192v-5.947l1.401-1.597 5.107 7.544h6.081l-7.3-10.615 6.947-8.105h-5.96l-5.996 7.105h-.28V160.04h-5.192V185zm26.735.366c4.632 0 7.752-2.255 8.483-5.728l-4.802-.317c-.524 1.426-1.865 2.169-3.595 2.169-2.596 0-4.242-1.718-4.242-4.509v-.013h12.749v-1.426c0-6.361-3.852-9.506-8.8-9.506-5.509 0-9.08 3.912-9.08 9.689 0 5.936 3.523 9.641 9.287 9.641zm-4.156-11.615c.11-2.133 1.731-3.839 4.034-3.839 2.255 0 3.815 1.609 3.827 3.839h-7.861zM127.394 185h5.192v-10.591c0-2.303 1.681-3.888 3.973-3.888.719 0 1.706.122 2.193.281v-4.607a7.77 7.77 0 00-1.633-.183c-2.096 0-3.814 1.219-4.497 3.534h-.195v-3.266h-5.033V185zm23.85-18.72h-3.717v-1.255c0-1.268.512-2.011 2.035-2.011.622 0 1.255.134 1.67.268l.914-3.9c-.646-.195-2.072-.512-3.669-.512-3.522 0-6.142 1.987-6.142 6.057v1.353h-2.645v3.9h2.645V185h5.192v-14.82h3.717v-3.9zm2.169 18.72h5.192v-18.72h-5.192V185zm2.608-21.133c1.548 0 2.815-1.182 2.815-2.633 0-1.438-1.267-2.62-2.815-2.62-1.536 0-2.803 1.182-2.803 2.62 0 1.451 1.267 2.633 2.803 2.633zm10.934-3.827h-5.191V185h5.191v-24.96zm11.691 25.326c4.631 0 7.751-2.255 8.482-5.728l-4.802-.317c-.524 1.426-1.864 2.169-3.595 2.169-2.596 0-4.241-1.718-4.241-4.509v-.013h12.748v-1.426c0-6.361-3.851-9.506-8.8-9.506-5.508 0-9.079 3.912-9.079 9.689 0 5.936 3.522 9.641 9.287 9.641zm-4.156-11.615c.109-2.133 1.73-3.839 4.034-3.839 2.254 0 3.814 1.609 3.827 3.839h-7.861zM452.055 185c7.605 0 12.212-4.704 12.212-12.504 0-7.776-4.607-12.456-12.139-12.456h-8.921V185h8.848zm-3.571-4.522v-15.916h3.364c4.68 0 7.154 2.388 7.154 7.934 0 5.569-2.474 7.982-7.166 7.982h-3.352zm27.053 4.888c5.679 0 9.213-3.888 9.213-9.653 0-5.801-3.534-9.677-9.213-9.677-5.68 0-9.214 3.876-9.214 9.677 0 5.765 3.534 9.653 9.214 9.653zm.024-4.022c-2.62 0-3.961-2.401-3.961-5.667 0-3.267 1.341-5.68 3.961-5.68 2.572 0 3.912 2.413 3.912 5.68 0 3.266-1.34 5.667-3.912 5.667zm20.024 4.022c4.984 0 8.116-2.925 8.36-7.228h-4.899c-.305 1.999-1.621 3.12-3.401 3.12-2.425 0-3.997-2.035-3.997-5.618 0-3.534 1.584-5.557 3.997-5.557 1.902 0 3.12 1.255 3.401 3.12h4.899c-.219-4.327-3.498-7.167-8.385-7.167-5.679 0-9.189 3.937-9.189 9.677 0 5.692 3.449 9.653 9.214 9.653zm10.684-.366h5.192v-5.947l1.402-1.597 5.106 7.544h6.082l-7.3-10.615 6.946-8.105h-5.959l-5.997 7.105h-.28V160.04h-5.192V185zm26.736.366c4.631 0 7.751-2.255 8.482-5.728l-4.801-.317c-.524 1.426-1.865 2.169-3.596 2.169-2.596 0-4.241-1.718-4.241-4.509v-.013h12.748v-1.426c0-6.361-3.851-9.506-8.799-9.506-5.509 0-9.08 3.912-9.08 9.689 0 5.936 3.522 9.641 9.287 9.641zm-4.156-11.615c.11-2.133 1.731-3.839 4.034-3.839 2.255 0 3.815 1.609 3.827 3.839h-7.861zM543.985 185h5.192v-10.591c.012-2.291 1.67-3.863 3.766-3.863.707 0 1.28.195 1.767.438l1.56-4.29c-.682-.414-1.56-.682-2.559-.682-2.109 0-3.815 1.219-4.497 3.534h-.195v-3.266h-5.034V185zm20.657 0h5.192v-18.72h-5.192V185zm2.608-21.133c1.548 0 2.815-1.182 2.815-2.633 0-1.438-1.267-2.62-2.815-2.62-1.536 0-2.803 1.182-2.803 2.62 0 1.451 1.267 2.633 2.803 2.633zM572.993 185h5.192v-11.237c0-2.072 1.316-3.449 3.046-3.449 1.707 0 2.852 1.17 2.852 3.01V185h5.034v-11.432c0-1.938 1.109-3.254 2.998-3.254 1.657 0 2.901 1.036 2.901 3.12V185h5.179v-12.59c0-4.058-2.413-6.374-5.899-6.374-2.742 0-4.875 1.402-5.642 3.547h-.195c-.598-2.17-2.511-3.547-5.083-3.547-2.522 0-4.436 1.341-5.216 3.547h-.219v-3.303h-4.948V185zm35.641.353c2.767 0 4.559-1.206 5.473-2.949h.146V185h4.924v-12.626c0-4.461-3.779-6.338-7.947-6.338-4.485 0-7.434 2.145-8.153 5.558l4.802.39c.353-1.243 1.462-2.157 3.327-2.157 1.767 0 2.779.889 2.779 2.425v.073c0 1.207-1.28 1.365-4.534 1.682-3.705.341-7.032 1.584-7.032 5.765 0 3.705 2.644 5.581 6.215 5.581zm1.487-3.583c-1.596 0-2.742-.743-2.742-2.169 0-1.463 1.207-2.182 3.035-2.438 1.133-.158 2.986-.426 3.607-.84v1.986c0 1.962-1.621 3.461-3.9 3.461zm20.517 10.518c5.351 0 9.153-2.437 9.153-7.105V166.28h-5.155v3.144h-.195c-.695-1.523-2.218-3.388-5.35-3.388-4.108 0-7.581 3.193-7.581 9.567 0 6.228 3.376 9.129 7.593 9.129 2.986 0 4.655-1.499 5.338-3.047h.219v3.425c0 2.449-1.645 3.449-3.9 3.449-2.291 0-3.449-1-3.875-2.011l-4.802.646c.621 2.827 3.51 5.094 8.555 5.094zm.11-11.456c-2.547 0-3.937-2.023-3.937-5.253 0-3.181 1.365-5.411 3.937-5.411 2.523 0 3.937 2.133 3.937 5.411 0 3.303-1.439 5.253-3.937 5.253zm20.706 4.534c4.631 0 7.751-2.255 8.482-5.728l-4.801-.317c-.524 1.426-1.865 2.169-3.596 2.169-2.596 0-4.241-1.718-4.241-4.509v-.013h12.748v-1.426c0-6.361-3.851-9.506-8.799-9.506-5.509 0-9.08 3.912-9.08 9.689 0 5.936 3.522 9.641 9.287 9.641zm-4.156-11.615c.11-2.133 1.731-3.839 4.034-3.839 2.255 0 3.815 1.609 3.827 3.839h-7.861zM908.895 185c7.605 0 12.212-4.704 12.212-12.504 0-7.776-4.607-12.456-12.139-12.456h-8.921V185h8.848zm-3.571-4.522v-15.916h3.364c4.68 0 7.154 2.388 7.154 7.934 0 5.569-2.474 7.982-7.167 7.982h-3.351zm27.052 4.888c5.68 0 9.214-3.888 9.214-9.653 0-5.801-3.534-9.677-9.214-9.677-5.679 0-9.213 3.876-9.213 9.677 0 5.765 3.534 9.653 9.213 9.653zm.025-4.022c-2.621 0-3.961-2.401-3.961-5.667 0-3.267 1.34-5.68 3.961-5.68 2.571 0 3.912 2.413 3.912 5.68 0 3.266-1.341 5.667-3.912 5.667zm20.023 4.022c4.985 0 8.117-2.925 8.361-7.228h-4.9c-.304 1.999-1.62 3.12-3.4 3.12-2.425 0-3.997-2.035-3.997-5.618 0-3.534 1.584-5.557 3.997-5.557 1.901 0 3.12 1.255 3.4 3.12h4.9c-.22-4.327-3.498-7.167-8.385-7.167-5.68 0-9.19 3.937-9.19 9.677 0 5.692 3.45 9.653 9.214 9.653zm10.685-.366h5.192v-5.947l1.401-1.597 5.107 7.544h6.082l-7.301-10.615 6.947-8.105h-5.96l-5.996 7.105h-.28V160.04h-5.192V185zm26.736.366c4.631 0 7.751-2.255 8.482-5.728l-4.802-.317c-.524 1.426-1.864 2.169-3.595 2.169-2.596 0-4.241-1.718-4.241-4.509v-.013h12.748v-1.426c0-6.361-3.851-9.506-8.799-9.506-5.509 0-9.08 3.912-9.08 9.689 0 5.936 3.522 9.641 9.287 9.641zm-4.156-11.615c.109-2.133 1.73-3.839 4.034-3.839 2.255 0 3.815 1.609 3.827 3.839h-7.861zM1000.83 185h5.19v-10.591c.01-2.291 1.67-3.863 3.76-3.863.71 0 1.28.195 1.77.438l1.56-4.29c-.68-.414-1.56-.682-2.56-.682-2.11 0-3.81 1.219-4.5 3.534h-.19v-3.266h-5.03V185zm29.11.366c4.98 0 8.12-2.925 8.36-7.228h-4.9c-.3 1.999-1.62 3.12-3.4 3.12-2.42 0-4-2.035-4-5.618 0-3.534 1.59-5.557 4-5.557 1.9 0 3.12 1.255 3.4 3.12h4.9c-.22-4.327-3.5-7.167-8.38-7.167-5.68 0-9.19 3.937-9.19 9.677 0 5.692 3.45 9.653 9.21 9.653zm19.14 0c5.68 0 9.22-3.888 9.22-9.653 0-5.801-3.54-9.677-9.22-9.677-5.68 0-9.21 3.876-9.21 9.677 0 5.765 3.53 9.653 9.21 9.653zm.03-4.022c-2.62 0-3.96-2.401-3.96-5.667 0-3.267 1.34-5.68 3.96-5.68 2.57 0 3.91 2.413 3.91 5.68 0 3.266-1.34 5.667-3.91 5.667zm16.75-7.166c.02-2.414 1.45-3.827 3.55-3.827 2.08 0 3.34 1.365 3.33 3.656V185h5.19v-11.919c0-4.364-2.56-7.045-6.46-7.045-2.78 0-4.79 1.365-5.63 3.547h-.22v-3.303h-4.95V185h5.19v-10.822zm25.12-7.898h-3.52v-4.485h-5.2v4.485h-2.55v3.9h2.55v9.75c-.02 3.668 2.48 5.484 6.24 5.326a10.03 10.03 0 002.82-.488l-.82-3.863c-.25.049-.8.171-1.29.171-1.03 0-1.75-.39-1.75-1.829v-9.067h3.52v-3.9zm7.72 19.073c2.77 0 4.56-1.206 5.47-2.949h.15V185h4.92v-12.626c0-4.461-3.78-6.338-7.94-6.338-4.49 0-7.44 2.145-8.16 5.558l4.8.39c.36-1.243 1.47-2.157 3.33-2.157 1.77 0 2.78.889 2.78 2.425v.073c0 1.207-1.28 1.365-4.53 1.682-3.71.341-7.04 1.584-7.04 5.765 0 3.705 2.65 5.581 6.22 5.581zm1.49-3.583c-1.6 0-2.75-.743-2.75-2.169 0-1.463 1.21-2.182 3.04-2.438 1.13-.158 2.98-.426 3.61-.84v1.986c0 1.962-1.62 3.461-3.9 3.461zm12.08 3.23h5.19v-18.72h-5.19V185zm2.61-21.133c1.55 0 2.81-1.182 2.81-2.633 0-1.438-1.26-2.62-2.81-2.62-1.54 0-2.81 1.182-2.81 2.62 0 1.451 1.27 2.633 2.81 2.633zm10.93 10.311c.01-2.414 1.45-3.827 3.55-3.827 2.08 0 3.34 1.365 3.33 3.656V185h5.19v-11.919c0-4.364-2.56-7.045-6.46-7.045-2.78 0-4.79 1.365-5.63 3.547h-.22v-3.303h-4.95V185h5.19v-10.822zm23.69 11.188c4.63 0 7.75-2.255 8.48-5.728l-4.8-.317c-.52 1.426-1.86 2.169-3.59 2.169-2.6 0-4.25-1.718-4.25-4.509v-.013h12.75v-1.426c0-6.361-3.85-9.506-8.8-9.506-5.51 0-9.08 3.912-9.08 9.689 0 5.936 3.53 9.641 9.29 9.641zm-4.16-11.615c.11-2.133 1.74-3.839 4.04-3.839 2.25 0 3.81 1.609 3.83 3.839h-7.87zM1160.48 185h5.19v-10.591c.02-2.291 1.67-3.863 3.77-3.863.71 0 1.28.195 1.77.438l1.56-4.29c-.69-.414-1.56-.682-2.56-.682-2.11 0-3.82 1.219-4.5 3.534h-.2v-3.266h-5.03V185z" fill="#2C2C2C"></path><rect x="913" y="232.4" width="244.8" height="156" rx="7.8" fill="#066DA5"></rect><path fill-rule="evenodd" clip-rule="evenodd" d="M1045.11 306.573h16.23v-14.757h-16.23v14.757zm-19.18 0h16.23v-14.757h-16.23v14.757zm-19.18 0h16.23v-14.757h-16.23v14.757zm-19.187 0h16.237v-14.757h-16.237v14.757zm-19.182 0h16.232v-14.757h-16.232v14.757zm19.182-17.708h16.237v-14.757h-16.237v14.757zm19.187 0h16.23v-14.757h-16.23v14.757zm19.18 0h16.23v-14.757h-16.23v14.757zm0-17.708h16.23V256.4h-16.23v14.757zm84.19 26.811c-3.54-2.371-11.69-3.24-17.96-2.058-.8-5.905-4.09-11.023-10.08-15.651l-3.44-2.295-2.29 3.445c-2.94 4.432-4.41 10.574-3.93 16.463.22 2.072.9 5.778 3.03 9.036-2.13 1.145-6.34 2.722-11.89 2.616H956.806l-.209 1.23c-1.003 5.919-.982 24.388 11.009 38.584 9.115 10.79 22.78 16.262 40.614 16.262 38.67 0 67.27-17.799 80.67-50.153 5.27.104 16.61.031 22.43-11.102.15-.256.5-.924 1.52-3.033l.56-1.157-3.28-2.187z" fill="#fff"></path><rect x="914.2" y="412.4" width="244.8" height="156" rx="7.8" fill="#066DA5"></rect><path fill-rule="evenodd" clip-rule="evenodd" d="M1046.31 486.573h16.23v-14.757h-16.23v14.757zm-19.18 0h16.23v-14.757h-16.23v14.757zm-19.18 0h16.23v-14.757h-16.23v14.757zm-19.187 0H1005v-14.757h-16.237v14.757zm-19.182 0h16.232v-14.757h-16.232v14.757zm19.182-17.709H1005v-14.756h-16.237v14.756zm19.187 0h16.23v-14.756h-16.23v14.756zm19.18 0h16.23v-14.756h-16.23v14.756zm0-17.707h16.23V436.4h-16.23v14.757zm84.19 26.811c-3.54-2.371-11.69-3.241-17.96-2.058-.8-5.905-4.09-11.024-10.08-15.651l-3.44-2.295-2.29 3.445c-2.94 4.432-4.41 10.574-3.93 16.463.22 2.072.9 5.778 3.03 9.036-2.13 1.144-6.34 2.722-11.89 2.616H958.006l-.209 1.23c-1.003 5.919-.982 24.388 11.009 38.584 9.115 10.79 22.78 16.262 40.614 16.262 38.67 0 67.27-17.799 80.67-50.153 5.27.104 16.61.031 22.43-11.102.15-.256.5-.924 1.52-3.033l.56-1.157-3.28-2.187z" fill="#fff"></path><rect x="914.2" y="592.4" width="244.8" height="156" rx="7.8" fill="#066DA5"></rect><path fill-rule="evenodd" clip-rule="evenodd" d="M1046.31 666.573h16.23v-14.757h-16.23v14.757zm-19.18 0h16.23v-14.757h-16.23v14.757zm-19.18 0h16.23v-14.757h-16.23v14.757zm-19.187 0H1005v-14.757h-16.237v14.757zm-19.182 0h16.232v-14.757h-16.232v14.757zm19.182-17.709H1005v-14.756h-16.237v14.756zm19.187 0h16.23v-14.756h-16.23v14.756zm19.18 0h16.23v-14.756h-16.23v14.756zm0-17.707h16.23V616.4h-16.23v14.757zm84.19 26.811c-3.54-2.371-11.69-3.241-17.96-2.058-.8-5.905-4.09-11.024-10.08-15.651l-3.44-2.295-2.29 3.445c-2.94 4.432-4.41 10.574-3.93 16.463.22 2.072.9 5.778 3.03 9.036-2.13 1.144-6.34 2.722-11.89 2.616H958.006l-.209 1.23c-1.003 5.919-.982 24.388 11.009 38.584 9.115 10.79 22.78 16.262 40.614 16.262 38.67 0 67.27-17.799 80.67-50.153 5.27.104 16.61.031 22.43-11.102.15-.256.5-.924 1.52-3.033l.56-1.157-3.28-2.187z" fill="#fff"></path><rect x="428.2" y="232.4" width="244.8" height="156" rx="7.8" fill="#B3B3B3"></rect><path fill-rule="evenodd" clip-rule="evenodd" d="M561.511 306.573h16.232v-14.757h-16.232v14.757zm-19.182 0h16.231v-14.757h-16.231v14.757zm-19.183 0h16.232v-14.757h-16.232v14.757zm-19.183 0h16.232v-14.757h-16.232v14.757zm-19.182 0h16.232v-14.757h-16.232v14.757zm19.182-17.708h16.232v-14.757h-16.232v14.757zm19.183 0h16.232v-14.757h-16.232v14.757zm19.183 0h16.231v-14.757h-16.231v14.757zm0-17.708h16.231V256.4h-16.231v14.757zm84.193 26.811c-3.544-2.371-11.689-3.24-17.958-2.058-.807-5.905-4.097-11.023-10.082-15.651l-3.441-2.295-2.296 3.445c-2.939 4.432-4.408 10.574-3.926 16.463.216 2.072.897 5.778 3.028 9.036-2.13 1.145-6.341 2.722-11.891 2.616h-106.75l-.209 1.23c-1.003 5.919-.982 24.388 11.009 38.584 9.115 10.79 22.78 16.262 40.616 16.262 38.664 0 67.269-17.799 80.666-50.153 5.267.104 16.609.031 22.435-11.102.152-.256.502-.924 1.519-3.033l.558-1.157-3.278-2.187z" fill="#fff"></path><path d="M233.158 350.745h-3.613c-.043 1.066-1.543 2.881-3.784 2.881v2.932c1.926 0 3.179-.716 3.554-1.296h.162V368.2h3.681v-17.455zm151.2 0h-3.613c-.043 1.066-1.543 2.881-3.784 2.881v2.932c1.926 0 3.179-.716 3.554-1.296h.162V368.2h3.681v-17.455zm338.4-102h-3.613c-.043 1.066-1.543 2.881-3.784 2.881v2.932c1.926 0 3.179-.716 3.554-1.296h.162V266.2h3.681v-17.455zm147.134 0h-3.673v10.978h-.153l-7.535-10.978h-3.238V266.2h3.69v-10.986h.128l7.594 10.986h3.187v-17.455z" fill="#9B9B9B"></path><path d="M190 306.2a4.8 4.8 0 100 9.6v-9.6zm238.8 4.8l-48-27.713v55.426l48-27.713zM190 315.8h195.6v-9.6H190v9.6zm484.8-9.6a4.8 4.8 0 100 9.6v-9.6zm238.8 4.8l-48-27.713v55.426l48-27.713zm-238.8 4.8h195.6v-9.6H674.8v9.6z" fill="#00114F"></path><path d="M677.683 307.162a4.8 4.8 0 00-5.766 7.676l5.766-7.676zM913.6 490.4l-21.731-50.988-33.291 44.314L913.6 490.4zM671.917 314.838L876.178 468.29l5.766-7.675-204.261-153.453-5.766 7.676z" fill="#00114F"></path><path d="M678.795 308.339a4.8 4.8 0 00-7.99 5.322l7.99-5.322zM914.2 670.4l-3.546-55.312-46.129 30.727L914.2 670.4zM670.805 313.661l215.451 323.446 7.99-5.322-215.451-323.446-7.99 5.322z" fill="#00114F"></path></g><defs><linearGradient id="paint0_linear" x1="27.4" y1="216.8" x2="27.4" y2="404" gradientUnits="userSpaceOnUse"><stop stop-color="#D0D8E1"></stop><stop offset="1" stop-color="#BAC3CD"></stop></linearGradient><filter id="filter0_d" x="117" y="208.8" width="70.4" height="70.4" filterUnits="userSpaceOnUse" color-interpolation-filters="sRGB"><feFlood flood-opacity="0" result="BackgroundImageFix"></feFlood><feColorMatrix in="SourceAlpha" values="0 0 0 0 0 0 0 0 0 0 0 0 0 0 0 0 0 0 127 0"></feColorMatrix><feOffset dy="-4"></feOffset><feGaussianBlur stdDeviation="2"></feGaussianBlur><feColorMatrix values="0 0 0 0 0 0 0 0 0 0 0 0 0 0 0 0 0 0 0.0909637 0"></feColorMatrix><feBlend in2="BackgroundImageFix" result="effect1_dropShadow"></feBlend><feBlend in="SourceGraphic" in2="effect1_dropShadow" result="shape"></feBlend></filter></defs></svg>