<svg xmlns="http://www.w3.org/2000/svg" viewBox="0 0 1200 900"><style>.sans-serif{font-family:-apple-system,BlinkMacSystemFont,'avenir next', avenir,'helvetica neue',helvetica,ubuntu,roboto,noto,'segoe ui',arial,sans-serif}</style><g fill="none" fill-rule="evenodd"><g fill-rule="nonzero"><path fill="#D2D2D2" d="M1002 160v20H199v-20a5 5 0 015-5h793a5 5 0 015 5z"></path><path fill="#A3A3A3" d="M206 161h4v4h-4zm6 0h4v4h-4zm6 0h4v4h-4z"></path></g><path fill="#D2D2D2" d="M385 614v19a5 5 0 01-5 5H204a5 5 0 01-5-5v-19a5 5 0 015-5h176a5 5 0 015 5z"></path><path fill="#A3A3A3" d="M230 615h4v4h-4zm0 6h4v4h-4zm0 6h4v4h-4zm6-12h4v4h-4zm0 6h4v4h-4zm0 6h4v4h-4zm6-12h4v4h-4zm0 6h4v4h-4zm0 6h4v4h-4zm6-12h4v4h-4zm0 6h4v4h-4zm0 6h4v4h-4zm6-12h4v4h-4zm0 6h4v4h-4zm0 6h4v4h-4zm6-12h4v4h-4zm0 6h4v4h-4zm0 6h4v4h-4zm6-12h4v4h-4zm0 6h4v4h-4zm0 6h4v4h-4zm6-12h4v4h-4zm0 6h4v4h-4zm0 6h4v4h-4zm6-12h4v4h-4zm0 6h4v4h-4zm0 6h4v4h-4zm6-12h4v4h-4zm0 6h4v4h-4zm0 6h4v4h-4zm6-12h4v4h-4zm0 6h4v4h-4zm0 6h4v4h-4zm6-12h4v4h-4zm0 6h4v4h-4zm0 6h4v4h-4zm6-12h4v4h-4zm0 6h4v4h-4zm0 6h4v4h-4zm6-12h4v4h-4zm0 6h4v4h-4zm0 6h4v4h-4zm6-12h4v4h-4zm0 6h4v4h-4zm0 6h4v4h-4zm6-12h4v4h-4zm0 6h4v4h-4zm0 6h4v4h-4zm6-12h4v4h-4zm0 6h4v4h-4zm0 6h4v4h-4zm6-12h4v4h-4zm0 6h4v4h-4zm0 6h4v4h-4zm6-12h4v4h-4zm0 6h4v4h-4zm0 6h4v4h-4zm6-12h4v4h-4zm0 6h4v4h-4zm0 6h4v4h-4zm6-12h4v4h-4zm0 6h4v4h-4zm0 6h4v4h-4zm6-12h4v4h-4zm0 6h4v4h-4zm0 6h4v4h-4zm6-12h4v4h-4zm0 6h4v4h-4zm0 6h4v4h-4zm6-12h4v4h-4zm0 6h4v4h-4zm0 6h4v4h-4zm6-12h4v4h-4zm0 6h4v4h-4zm0 6h4v4h-4z"></path><path fill="#D2D2D2" d="M385 646v19a5 5 0 01-5 5H204a5 5 0 01-5-5v-19a5 5 0 015-5h176a5 5 0 015 5z"></path><path fill="#A3A3A3" d="M230 647h4v4h-4zm0 6h4v4h-4zm0 6h4v4h-4zm6-12h4v4h-4zm0 6h4v4h-4zm0 6h4v4h-4zm6-12h4v4h-4zm0 6h4v4h-4zm0 6h4v4h-4zm6-12h4v4h-4zm0 6h4v4h-4zm0 6h4v4h-4zm6-12h4v4h-4zm0 6h4v4h-4zm0 6h4v4h-4zm6-12h4v4h-4zm0 6h4v4h-4zm0 6h4v4h-4zm6-12h4v4h-4zm0 6h4v4h-4zm0 6h4v4h-4zm6-12h4v4h-4zm0 6h4v4h-4zm0 6h4v4h-4zm6-12h4v4h-4zm0 6h4v4h-4zm0 6h4v4h-4zm6-12h4v4h-4zm0 6h4v4h-4zm0 6h4v4h-4zm6-12h4v4h-4zm0 6h4v4h-4zm0 6h4v4h-4zm6-12h4v4h-4zm0 6h4v4h-4zm0 6h4v4h-4zm6-12h4v4h-4zm0 6h4v4h-4zm0 6h4v4h-4zm6-12h4v4h-4zm0 6h4v4h-4zm0 6h4v4h-4zm6-12h4v4h-4zm0 6h4v4h-4zm0 6h4v4h-4zm6-12h4v4h-4zm0 6h4v4h-4zm0 6h4v4h-4zm6-12h4v4h-4zm0 6h4v4h-4zm0 6h4v4h-4zm6-12h4v4h-4zm0 6h4v4h-4zm0 6h4v4h-4zm6-12h4v4h-4zm0 6h4v4h-4zm0 6h4v4h-4zm6-12h4v4h-4zm0 6h4v4h-4zm0 6h4v4h-4zm6-12h4v4h-4zm0 6h4v4h-4zm0 6h4v4h-4zm6-12h4v4h-4zm0 6h4v4h-4zm0 6h4v4h-4zm6-12h4v4h-4zm0 6h4v4h-4zm0 6h4v4h-4zm6-12h4v4h-4zm0 6h4v4h-4zm0 6h4v4h-4zm6-12h4v4h-4zm0 6h4v4h-4zm0 6h4v4h-4z"></path><g transform="translate(199 282)"><path fill="#D2D2D2" d="M186 5v314a5 5 0 01-5 5H5a5 5 0 01-5-5V5a5 5 0 015-5h176a5 5 0 015 5z"></path><path fill="#A3A3A3" d="M7 6h4v4H7zm0 6h4v4H7zm0 6h4v4H7zm6-12h4v4h-4zm0 6h4v4h-4zm0 6h4v4h-4zm6-12h4v4h-4zm0 6h4v4h-4zm0 6h4v4h-4zm6-12h4v4h-4zm0 6h4v4h-4zm0 6h4v4h-4zm6-12h4v4h-4zm0 6h4v4h-4zm0 6h4v4h-4zm6-12h4v4h-4zm0 6h4v4h-4zm0 6h4v4h-4zm6-12h4v4h-4zm0 6h4v4h-4zm0 6h4v4h-4zm6-12h4v4h-4zm0 6h4v4h-4zm0 6h4v4h-4zm6-12h4v4h-4zm0 6h4v4h-4zm0 6h4v4h-4zm6-12h4v4h-4zm0 6h4v4h-4zm0 6h4v4h-4zm6-12h4v4h-4zm0 6h4v4h-4zm0 6h4v4h-4zm6-12h4v4h-4zm0 6h4v4h-4zm0 6h4v4h-4zm6-12h4v4h-4zm0 6h4v4h-4zm0 6h4v4h-4zm6-12h4v4h-4zm0 6h4v4h-4zm0 6h4v4h-4zm6-12h4v4h-4zm0 6h4v4h-4zm0 6h4v4h-4zm6-12h4v4h-4zm0 6h4v4h-4zm0 6h4v4h-4zm6-12h4v4h-4zm0 6h4v4h-4zm0 6h4v4h-4zm6-12h4v4h-4zm0 6h4v4h-4zm0 6h4v4h-4zm6-12h4v4h-4zm0 6h4v4h-4zm0 6h4v4h-4zm6-12h4v4h-4zm0 6h4v4h-4zm0 6h4v4h-4zm6-12h4v4h-4zm0 6h4v4h-4zm0 6h4v4h-4zm6-12h4v4h-4zm0 6h4v4h-4zm0 6h4v4h-4zm6-12h4v4h-4zm0 6h4v4h-4zm0 6h4v4h-4zm6-12h4v4h-4zm0 6h4v4h-4zm0 6h4v4h-4zm6-12h4v4h-4zm0 6h4v4h-4zm0 6h4v4h-4zm6-12h4v4h-4zm0 6h4v4h-4zm0 6h4v4h-4zm6-12h4v4h-4zm0 6h4v4h-4zm0 6h4v4h-4zm6-12h4v4h-4zm0 6h4v4h-4zm0 6h4v4h-4zm6-12h4v4h-4zm0 6h4v4h-4zm0 6h4v4h-4zM7 313h4v4H7zm6 0h4v4h-4zm6 0h4v4h-4zm6 0h4v4h-4zm6 0h4v4h-4zm6 0h4v4h-4zm6 0h4v4h-4zm6 0h4v4h-4zm6 0h4v4h-4zm6 0h4v4h-4zm6 0h4v4h-4zm6 0h4v4h-4zm6 0h4v4h-4zm6 0h4v4h-4zm6 0h4v4h-4zm6 0h4v4h-4zm6 0h4v4h-4zm6 0h4v4h-4zm6 0h4v4h-4zm6 0h4v4h-4zm6 0h4v4h-4zm6 0h4v4h-4zm6 0h4v4h-4zm6 0h4v4h-4zm6 0h4v4h-4zm6 0h4v4h-4zm6 0h4v4h-4zm6 0h4v4h-4zm6 0h4v4h-4z"></path><rect width="172" height="278" x="7" y="29" fill="#FFF" rx="2"></rect></g><path fill="#A3A3A3" d="M217.009 622.34h2.375v-2.159h-2.375v2.16zm-2.807 0h2.375v-2.159h-2.375v2.16zm-2.807 0h2.375v-2.159h-2.375v2.16zm-2.806 0h2.375v-2.159h-2.375v2.16zm-2.807 0h2.375v-2.159h-2.375v2.16zm2.807-2.59h2.375v-2.16h-2.375v2.16zm2.806 0h2.375v-2.16h-2.375v2.16zm2.807 0h2.375v-2.16h-2.375v2.16zm0-2.591h2.375V615h-2.375v2.159zm12.318 3.923c-.518-.347-1.71-.475-2.627-.302-.118-.864-.6-1.612-1.475-2.29l-.504-.335-.336.504c-.43.648-.644 1.547-.574 2.408.032.304.131.846.443 1.322-.312.168-.928.399-1.74.383H204.09l-.03.18c-.148.866-.145 3.568 1.61 5.645 1.333 1.579 3.333 2.38 5.942 2.38 5.657 0 9.843-2.605 11.803-7.338.77.015 2.43.004 3.282-1.625.022-.037.073-.135.222-.443l.082-.17-.48-.32z"></path><g fill="#A3A3A3"><path d="M213.883 656.606a.34.34 0 00-.393-.259l-.003-.004-1.987.337c.307.849.88 1.54 1.6 2.002l.77-1.86-.006-.007a.336.336 0 00.019-.21m-.661-1.431a.34.34 0 00.134-.583l.001-.008-1.511-1.353a3.964 3.964 0 00-.563 2.509l1.938-.56.001-.006zm.883-1.526a.34.34 0 00.539-.26l.008-.004.114-2.019a3.965 3.965 0 00-2.32 1.111l1.654 1.174.004-.002zm.585 2.12l.558.268.556-.268.138-.6-.385-.481h-.619l-.386.48zm1.157-2.386a.34.34 0 00.54.259l.005.002 1.645-1.166a3.998 3.998 0 00-2.307-1.112l.114 2.016h.002z"></path><path d="M222.02 656.867c-.047.205-.27.33-.497.28h-.006l-.007-.002c-.032-.007-.072-.014-.1-.022-.132-.035-.227-.088-.345-.133-.255-.091-.466-.168-.671-.197-.105-.009-.158.041-.216.08a5.777 5.777 0 00-.164-.03 5.008 5.008 0 01-2.22 2.792c.02.044.05.139.065.155-.024.065-.06.127-.03.227.075.194.196.383.342.611.07.106.142.187.206.307l.05.104c.1.211.027.455-.163.547-.192.092-.43-.006-.533-.218-.014-.03-.035-.07-.047-.099-.055-.125-.074-.232-.112-.353-.087-.256-.16-.468-.264-.647-.059-.087-.13-.098-.197-.12l-.082-.147a4.993 4.993 0 01-3.552-.01l-.087.159c-.065.017-.127.034-.166.08-.14.168-.196.436-.298.692-.038.12-.056.228-.11.353l-.048.097v.001l-.001.001c-.103.212-.34.31-.532.217-.19-.091-.262-.335-.163-.547.014-.03.034-.075.05-.103.063-.12.135-.203.206-.308.145-.228.273-.432.348-.626.019-.064-.01-.153-.034-.218l.07-.167a5.009 5.009 0 01-2.22-2.772l-.168.029c-.045-.025-.135-.085-.221-.078-.206.03-.416.106-.671.197-.118.045-.214.097-.346.132-.027.008-.067.016-.099.023l-.007.002-.006.001c-.228.05-.45-.076-.497-.281-.047-.206.099-.414.326-.469l.006-.002h.003c.032-.008.073-.019.103-.024.134-.026.243-.02.369-.03.269-.028.492-.051.69-.113.063-.026.123-.113.165-.167l.161-.047a4.98 4.98 0 01.786-3.472l-.124-.11c-.008-.049-.018-.16-.077-.223-.151-.142-.342-.26-.572-.402-.11-.064-.21-.106-.32-.186l-.08-.065-.005-.004c-.185-.147-.227-.401-.095-.567a.37.37 0 01.307-.136.458.458 0 01.268.101c.027.021.062.048.086.069.103.088.166.176.253.268.19.193.347.353.52.47.09.052.159.03.228.021l.139.1a4.95 4.95 0 013.21-1.545l.01-.162a.42.42 0 00.124-.2c.017-.206-.01-.429-.042-.698-.018-.125-.048-.23-.053-.366v-.108c0-.237.172-.429.385-.429.212 0 .385.192.385.428 0 .034.002.079 0 .11-.005.136-.034.24-.052.365-.032.269-.06.492-.044.699.015.103.076.144.126.192l.01.172a5.044 5.044 0 013.194 1.544l.147-.105c.05.003.158.018.233-.025.172-.116.33-.277.519-.47.087-.092.15-.18.254-.269l.086-.068c.184-.147.441-.132.574.034.132.167.09.42-.095.568-.026.02-.06.05-.085.068-.11.081-.21.123-.32.187-.23.142-.42.26-.572.402-.071.076-.066.149-.072.218l-.137.122a4.982 4.982 0 01.802 3.464l.155.046c.028.04.086.135.167.167.198.062.42.085.69.113.126.01.235.004.369.03.032.006.079.018.112.026.227.055.372.263.325.469m2.447.084l-1.59-6.902a1.222 1.222 0 00-.665-.827l-6.43-3.071a1.239 1.239 0 00-1.068 0l-6.43 3.072a1.221 1.221 0 00-.666.828l-1.586 6.901a1.211 1.211 0 00.237 1.032l4.45 5.534c.234.29.588.46.962.46l7.137-.002c.374 0 .728-.169.962-.459l4.449-5.534c.233-.29.32-.67.238-1.032"></path><path d="M218.64 653.231l-1.504 1.346v.004a.34.34 0 00.133.583l.003.008 1.947.561c.041-.42.016-.855-.084-1.29a4.013 4.013 0 00-.496-1.212m-3.093 4.104a.337.337 0 00-.31-.178.34.34 0 00-.288.179h-.001l-.977 1.766a3.98 3.98 0 002.563.003l-.98-1.77h-.007zm1.455-.995a.338.338 0 00-.208.028.34.34 0 00-.164.44l-.003.002.778 1.88a3.97 3.97 0 001.605-2.016l-2.005-.339-.003.004z"></path></g><path fill="#D2D2D2" d="M694 614v19a5 5 0 01-5 5H513a5 5 0 01-5-5v-19a5 5 0 015-5h176a5 5 0 015 5z"></path><path fill="#A3A3A3" d="M539 615h4v4h-4zm0 6h4v4h-4zm0 6h4v4h-4zm6-12h4v4h-4zm0 6h4v4h-4zm0 6h4v4h-4zm6-12h4v4h-4zm0 6h4v4h-4zm0 6h4v4h-4zm6-12h4v4h-4zm0 6h4v4h-4zm0 6h4v4h-4zm6-12h4v4h-4zm0 6h4v4h-4zm0 6h4v4h-4zm6-12h4v4h-4zm0 6h4v4h-4zm0 6h4v4h-4zm6-12h4v4h-4zm0 6h4v4h-4zm0 6h4v4h-4zm6-12h4v4h-4zm0 6h4v4h-4zm0 6h4v4h-4zm6-12h4v4h-4zm0 6h4v4h-4zm0 6h4v4h-4zm6-12h4v4h-4zm0 6h4v4h-4zm0 6h4v4h-4zm6-12h4v4h-4zm0 6h4v4h-4zm0 6h4v4h-4zm6-12h4v4h-4zm0 6h4v4h-4zm0 6h4v4h-4zm6-12h4v4h-4zm0 6h4v4h-4zm0 6h4v4h-4zm6-12h4v4h-4zm0 6h4v4h-4zm0 6h4v4h-4zm6-12h4v4h-4zm0 6h4v4h-4zm0 6h4v4h-4zm6-12h4v4h-4zm0 6h4v4h-4zm0 6h4v4h-4zm6-12h4v4h-4zm0 6h4v4h-4zm0 6h4v4h-4zm6-12h4v4h-4zm0 6h4v4h-4zm0 6h4v4h-4zm6-12h4v4h-4zm0 6h4v4h-4zm0 6h4v4h-4zm6-12h4v4h-4zm0 6h4v4h-4zm0 6h4v4h-4zm6-12h4v4h-4zm0 6h4v4h-4zm0 6h4v4h-4zm6-12h4v4h-4zm0 6h4v4h-4zm0 6h4v4h-4zm6-12h4v4h-4zm0 6h4v4h-4zm0 6h4v4h-4zm6-12h4v4h-4zm0 6h4v4h-4zm0 6h4v4h-4zm6-12h4v4h-4zm0 6h4v4h-4zm0 6h4v4h-4z"></path><path fill="#D2D2D2" d="M694 646v19a5 5 0 01-5 5H513a5 5 0 01-5-5v-19a5 5 0 015-5h176a5 5 0 015 5z"></path><path fill="#A3A3A3" d="M539 647h4v4h-4zm0 6h4v4h-4zm0 6h4v4h-4zm6-12h4v4h-4zm0 6h4v4h-4zm0 6h4v4h-4zm6-12h4v4h-4zm0 6h4v4h-4zm0 6h4v4h-4zm6-12h4v4h-4zm0 6h4v4h-4zm0 6h4v4h-4zm6-12h4v4h-4zm0 6h4v4h-4zm0 6h4v4h-4zm6-12h4v4h-4zm0 6h4v4h-4zm0 6h4v4h-4zm6-12h4v4h-4zm0 6h4v4h-4zm0 6h4v4h-4zm6-12h4v4h-4zm0 6h4v4h-4zm0 6h4v4h-4zm6-12h4v4h-4zm0 6h4v4h-4zm0 6h4v4h-4zm6-12h4v4h-4zm0 6h4v4h-4zm0 6h4v4h-4zm6-12h4v4h-4zm0 6h4v4h-4zm0 6h4v4h-4zm6-12h4v4h-4zm0 6h4v4h-4zm0 6h4v4h-4zm6-12h4v4h-4zm0 6h4v4h-4zm0 6h4v4h-4zm6-12h4v4h-4zm0 6h4v4h-4zm0 6h4v4h-4zm6-12h4v4h-4zm0 6h4v4h-4zm0 6h4v4h-4zm6-12h4v4h-4zm0 6h4v4h-4zm0 6h4v4h-4zm6-12h4v4h-4zm0 6h4v4h-4zm0 6h4v4h-4zm6-12h4v4h-4zm0 6h4v4h-4zm0 6h4v4h-4zm6-12h4v4h-4zm0 6h4v4h-4zm0 6h4v4h-4zm6-12h4v4h-4zm0 6h4v4h-4zm0 6h4v4h-4zm6-12h4v4h-4zm0 6h4v4h-4zm0 6h4v4h-4zm6-12h4v4h-4zm0 6h4v4h-4zm0 6h4v4h-4zm6-12h4v4h-4zm0 6h4v4h-4zm0 6h4v4h-4zm6-12h4v4h-4zm0 6h4v4h-4zm0 6h4v4h-4zm6-12h4v4h-4zm0 6h4v4h-4zm0 6h4v4h-4z"></path><g transform="translate(508 282)"><path fill="#D2D2D2" d="M186 5v314a5 5 0 01-5 5H5a5 5 0 01-5-5V5a5 5 0 015-5h176a5 5 0 015 5z"></path><path fill="#A3A3A3" d="M7 6h4v4H7zm0 6h4v4H7zm0 6h4v4H7zm6-12h4v4h-4zm0 6h4v4h-4zm0 6h4v4h-4zm6-12h4v4h-4zm0 6h4v4h-4zm0 6h4v4h-4zm6-12h4v4h-4zm0 6h4v4h-4zm0 6h4v4h-4zm6-12h4v4h-4zm0 6h4v4h-4zm0 6h4v4h-4zm6-12h4v4h-4zm0 6h4v4h-4zm0 6h4v4h-4zm6-12h4v4h-4zm0 6h4v4h-4zm0 6h4v4h-4zm6-12h4v4h-4zm0 6h4v4h-4zm0 6h4v4h-4zm6-12h4v4h-4zm0 6h4v4h-4zm0 6h4v4h-4zm6-12h4v4h-4zm0 6h4v4h-4zm0 6h4v4h-4zm6-12h4v4h-4zm0 6h4v4h-4zm0 6h4v4h-4zm6-12h4v4h-4zm0 6h4v4h-4zm0 6h4v4h-4zm6-12h4v4h-4zm0 6h4v4h-4zm0 6h4v4h-4zm6-12h4v4h-4zm0 6h4v4h-4zm0 6h4v4h-4zm6-12h4v4h-4zm0 6h4v4h-4zm0 6h4v4h-4zm6-12h4v4h-4zm0 6h4v4h-4zm0 6h4v4h-4zm6-12h4v4h-4zm0 6h4v4h-4zm0 6h4v4h-4zm6-12h4v4h-4zm0 6h4v4h-4zm0 6h4v4h-4zm6-12h4v4h-4zm0 6h4v4h-4zm0 6h4v4h-4zm6-12h4v4h-4zm0 6h4v4h-4zm0 6h4v4h-4zm6-12h4v4h-4zm0 6h4v4h-4zm0 6h4v4h-4zm6-12h4v4h-4zm0 6h4v4h-4zm0 6h4v4h-4zm6-12h4v4h-4zm0 6h4v4h-4zm0 6h4v4h-4zm6-12h4v4h-4zm0 6h4v4h-4zm0 6h4v4h-4zm6-12h4v4h-4zm0 6h4v4h-4zm0 6h4v4h-4zm6-12h4v4h-4zm0 6h4v4h-4zm0 6h4v4h-4zm6-12h4v4h-4zm0 6h4v4h-4zm0 6h4v4h-4zm6-12h4v4h-4zm0 6h4v4h-4zm0 6h4v4h-4zm6-12h4v4h-4zm0 6h4v4h-4zm0 6h4v4h-4zM7 313h4v4H7zm6 0h4v4h-4zm6 0h4v4h-4zm6 0h4v4h-4zm6 0h4v4h-4zm6 0h4v4h-4zm6 0h4v4h-4zm6 0h4v4h-4zm6 0h4v4h-4zm6 0h4v4h-4zm6 0h4v4h-4zm6 0h4v4h-4zm6 0h4v4h-4zm6 0h4v4h-4zm6 0h4v4h-4zm6 0h4v4h-4zm6 0h4v4h-4zm6 0h4v4h-4zm6 0h4v4h-4zm6 0h4v4h-4zm6 0h4v4h-4zm6 0h4v4h-4zm6 0h4v4h-4zm6 0h4v4h-4zm6 0h4v4h-4zm6 0h4v4h-4zm6 0h4v4h-4zm6 0h4v4h-4zm6 0h4v4h-4z"></path><rect width="172" height="278" x="7" y="29" fill="#FFF" rx="2"></rect></g><path fill="#A3A3A3" d="M526.009 622.34h2.375v-2.159h-2.375v2.16zm-2.807 0h2.375v-2.159h-2.375v2.16zm-2.807 0h2.375v-2.159h-2.375v2.16zm-2.806 0h2.375v-2.159h-2.375v2.16zm-2.807 0h2.375v-2.159h-2.375v2.16zm2.807-2.59h2.375v-2.16h-2.375v2.16zm2.806 0h2.375v-2.16h-2.375v2.16zm2.807 0h2.375v-2.16h-2.375v2.16zm0-2.591h2.375V615h-2.375v2.159zm12.318 3.923c-.518-.347-1.71-.475-2.627-.302-.118-.864-.6-1.612-1.475-2.29l-.504-.335-.336.504c-.43.648-.644 1.547-.574 2.408.032.304.131.846.443 1.322-.312.168-.928.399-1.74.383H513.09l-.03.18c-.148.866-.145 3.568 1.61 5.645 1.333 1.579 3.333 2.38 5.942 2.38 5.657 0 9.843-2.605 11.803-7.338.77.015 2.43.004 3.282-1.625.022-.037.073-.135.222-.443l.082-.17-.48-.32z"></path><g fill="#A3A3A3"><path d="M522.883 656.606a.34.34 0 00-.393-.259l-.003-.004-1.987.337c.307.849.88 1.54 1.6 2.002l.77-1.86-.006-.007a.336.336 0 00.019-.21m-.661-1.431a.34.34 0 00.134-.583l.001-.008-1.511-1.353a3.964 3.964 0 00-.563 2.509l1.938-.56.001-.006zm.883-1.526a.34.34 0 00.539-.26l.008-.004.114-2.019a3.965 3.965 0 00-2.32 1.111l1.654 1.174.004-.002zm.585 2.12l.558.268.556-.268.138-.6-.385-.481h-.619l-.386.48zm1.157-2.386a.34.34 0 00.54.259l.005.002 1.645-1.166a3.998 3.998 0 00-2.307-1.112l.114 2.016h.002z"></path><path d="M531.02 656.867c-.047.205-.27.33-.497.28h-.006l-.007-.002c-.032-.007-.072-.014-.1-.022-.132-.035-.227-.088-.345-.133-.255-.091-.466-.168-.671-.197-.105-.009-.158.041-.216.08a5.777 5.777 0 00-.164-.03 5.008 5.008 0 01-2.22 2.792c.02.044.05.139.065.155-.024.065-.06.127-.03.227.075.194.196.383.342.611.07.106.142.187.206.307l.05.104c.1.211.027.455-.163.547-.192.092-.43-.006-.533-.218-.014-.03-.035-.07-.047-.099-.055-.125-.074-.232-.112-.353-.087-.256-.16-.468-.264-.647-.059-.087-.13-.098-.197-.12l-.082-.147a4.993 4.993 0 01-3.552-.01l-.087.159c-.065.017-.127.034-.166.08-.14.168-.196.436-.298.692-.038.12-.056.228-.11.353l-.048.097v.001l-.001.001c-.103.212-.34.31-.532.217-.19-.091-.262-.335-.163-.547.014-.03.034-.075.05-.103.063-.12.135-.203.206-.308.145-.228.273-.432.348-.626.019-.064-.01-.153-.034-.218l.07-.167a5.009 5.009 0 01-2.22-2.772l-.168.029c-.045-.025-.135-.085-.221-.078-.206.03-.416.106-.671.197-.118.045-.214.097-.346.132-.027.008-.067.016-.099.023l-.007.002-.006.001c-.228.05-.45-.076-.497-.281-.047-.206.099-.414.326-.469l.006-.002h.003c.032-.008.073-.019.103-.024.134-.026.243-.02.369-.03.269-.028.492-.051.69-.113.063-.026.123-.113.165-.167l.161-.047a4.98 4.98 0 01.786-3.472l-.124-.11c-.008-.049-.018-.16-.077-.223-.151-.142-.342-.26-.572-.402-.11-.064-.21-.106-.32-.186l-.08-.065-.005-.004c-.185-.147-.227-.401-.095-.567a.37.37 0 01.307-.136.458.458 0 01.268.101c.027.021.062.048.086.069.103.088.166.176.253.268.19.193.347.353.52.47.09.052.159.03.228.021l.139.1a4.95 4.95 0 013.21-1.545l.01-.162a.42.42 0 00.124-.2c.017-.206-.01-.429-.042-.698-.018-.125-.048-.23-.053-.366v-.108c0-.237.172-.429.385-.429.212 0 .385.192.385.428 0 .034.002.079 0 .11-.005.136-.034.24-.052.365-.032.269-.06.492-.044.699.015.103.076.144.126.192l.01.172a5.044 5.044 0 013.194 1.544l.147-.105c.05.003.158.018.233-.025.172-.116.33-.277.519-.47.087-.092.15-.18.254-.269l.086-.068c.184-.147.441-.132.574.034.132.167.09.42-.095.568-.026.02-.06.05-.085.068-.11.081-.21.123-.32.187-.23.142-.42.26-.572.402-.071.076-.066.149-.072.218l-.137.122a4.982 4.982 0 01.802 3.464l.155.046c.028.04.086.135.167.167.198.062.42.085.69.113.126.01.235.004.369.03.032.006.079.018.112.026.227.055.372.263.325.469m2.447.084l-1.59-6.902a1.222 1.222 0 00-.665-.827l-6.43-3.071a1.239 1.239 0 00-1.068 0l-6.43 3.072a1.221 1.221 0 00-.666.828l-1.586 6.901a1.211 1.211 0 00.237 1.032l4.45 5.534c.234.29.588.46.962.46l7.137-.002c.374 0 .728-.169.962-.459l4.449-5.534c.233-.29.32-.67.238-1.032"></path><path d="M527.64 653.231l-1.504 1.346v.004a.34.34 0 00.133.583l.003.008 1.947.561c.041-.42.016-.855-.084-1.29a4.013 4.013 0 00-.496-1.212m-3.093 4.104a.337.337 0 00-.31-.178.34.34 0 00-.288.179h-.001l-.977 1.766a3.98 3.98 0 002.563.003l-.98-1.77h-.007zm1.455-.995a.338.338 0 00-.208.028.34.34 0 00-.164.44l-.003.002.778 1.88a3.97 3.97 0 001.605-2.016l-2.005-.339-.003.004z"></path></g><path fill="#D2D2D2" d="M1002 614v19a5 5 0 01-5 5H821a5 5 0 01-5-5v-19a5 5 0 015-5h176a5 5 0 015 5z"></path><path fill="#A3A3A3" d="M847 615h4v4h-4zm0 6h4v4h-4zm0 6h4v4h-4zm6-12h4v4h-4zm0 6h4v4h-4zm0 6h4v4h-4zm6-12h4v4h-4zm0 6h4v4h-4zm0 6h4v4h-4zm6-12h4v4h-4zm0 6h4v4h-4zm0 6h4v4h-4zm6-12h4v4h-4zm0 6h4v4h-4zm0 6h4v4h-4zm6-12h4v4h-4zm0 6h4v4h-4zm0 6h4v4h-4zm6-12h4v4h-4zm0 6h4v4h-4zm0 6h4v4h-4zm6-12h4v4h-4zm0 6h4v4h-4zm0 6h4v4h-4zm6-12h4v4h-4zm0 6h4v4h-4zm0 6h4v4h-4zm6-12h4v4h-4zm0 6h4v4h-4zm0 6h4v4h-4zm6-12h4v4h-4zm0 6h4v4h-4zm0 6h4v4h-4zm6-12h4v4h-4zm0 6h4v4h-4zm0 6h4v4h-4zm6-12h4v4h-4zm0 6h4v4h-4zm0 6h4v4h-4zm6-12h4v4h-4zm0 6h4v4h-4zm0 6h4v4h-4zm6-12h4v4h-4zm0 6h4v4h-4zm0 6h4v4h-4zm6-12h4v4h-4zm0 6h4v4h-4zm0 6h4v4h-4zm6-12h4v4h-4zm0 6h4v4h-4zm0 6h4v4h-4zm6-12h4v4h-4zm0 6h4v4h-4zm0 6h4v4h-4zm6-12h4v4h-4zm0 6h4v4h-4zm0 6h4v4h-4zm6-12h4v4h-4zm0 6h4v4h-4zm0 6h4v4h-4zm6-12h4v4h-4zm0 6h4v4h-4zm0 6h4v4h-4zm6-12h4v4h-4zm0 6h4v4h-4zm0 6h4v4h-4zm6-12h4v4h-4zm0 6h4v4h-4zm0 6h4v4h-4zm6-12h4v4h-4zm0 6h4v4h-4zm0 6h4v4h-4zm6-12h4v4h-4zm0 6h4v4h-4zm0 6h4v4h-4z"></path><path fill="#D2D2D2" d="M1002 646v19a5 5 0 01-5 5H821a5 5 0 01-5-5v-19a5 5 0 015-5h176a5 5 0 015 5z"></path><path fill="#A3A3A3" d="M847 647h4v4h-4zm0 6h4v4h-4zm0 6h4v4h-4zm6-12h4v4h-4zm0 6h4v4h-4zm0 6h4v4h-4zm6-12h4v4h-4zm0 6h4v4h-4zm0 6h4v4h-4zm6-12h4v4h-4zm0 6h4v4h-4zm0 6h4v4h-4zm6-12h4v4h-4zm0 6h4v4h-4zm0 6h4v4h-4zm6-12h4v4h-4zm0 6h4v4h-4zm0 6h4v4h-4zm6-12h4v4h-4zm0 6h4v4h-4zm0 6h4v4h-4zm6-12h4v4h-4zm0 6h4v4h-4zm0 6h4v4h-4zm6-12h4v4h-4zm0 6h4v4h-4zm0 6h4v4h-4zm6-12h4v4h-4zm0 6h4v4h-4zm0 6h4v4h-4zm6-12h4v4h-4zm0 6h4v4h-4zm0 6h4v4h-4zm6-12h4v4h-4zm0 6h4v4h-4zm0 6h4v4h-4zm6-12h4v4h-4zm0 6h4v4h-4zm0 6h4v4h-4zm6-12h4v4h-4zm0 6h4v4h-4zm0 6h4v4h-4zm6-12h4v4h-4zm0 6h4v4h-4zm0 6h4v4h-4zm6-12h4v4h-4zm0 6h4v4h-4zm0 6h4v4h-4zm6-12h4v4h-4zm0 6h4v4h-4zm0 6h4v4h-4zm6-12h4v4h-4zm0 6h4v4h-4zm0 6h4v4h-4zm6-12h4v4h-4zm0 6h4v4h-4zm0 6h4v4h-4zm6-12h4v4h-4zm0 6h4v4h-4zm0 6h4v4h-4zm6-12h4v4h-4zm0 6h4v4h-4zm0 6h4v4h-4zm6-12h4v4h-4zm0 6h4v4h-4zm0 6h4v4h-4zm6-12h4v4h-4zm0 6h4v4h-4zm0 6h4v4h-4zm6-12h4v4h-4zm0 6h4v4h-4zm0 6h4v4h-4zm6-12h4v4h-4zm0 6h4v4h-4zm0 6h4v4h-4z"></path><g transform="translate(816 282)"><path fill="#D2D2D2" d="M186 5v314a5 5 0 01-5 5H5a5 5 0 01-5-5V5a5 5 0 015-5h176a5 5 0 015 5z"></path><path fill="#A3A3A3" d="M7 6h4v4H7zm0 6h4v4H7zm0 6h4v4H7zm6-12h4v4h-4zm0 6h4v4h-4zm0 6h4v4h-4zm6-12h4v4h-4zm0 6h4v4h-4zm0 6h4v4h-4zm6-12h4v4h-4zm0 6h4v4h-4zm0 6h4v4h-4zm6-12h4v4h-4zm0 6h4v4h-4zm0 6h4v4h-4zm6-12h4v4h-4zm0 6h4v4h-4zm0 6h4v4h-4zm6-12h4v4h-4zm0 6h4v4h-4zm0 6h4v4h-4zm6-12h4v4h-4zm0 6h4v4h-4zm0 6h4v4h-4zm6-12h4v4h-4zm0 6h4v4h-4zm0 6h4v4h-4zm6-12h4v4h-4zm0 6h4v4h-4zm0 6h4v4h-4zm6-12h4v4h-4zm0 6h4v4h-4zm0 6h4v4h-4zm6-12h4v4h-4zm0 6h4v4h-4zm0 6h4v4h-4zm6-12h4v4h-4zm0 6h4v4h-4zm0 6h4v4h-4zm6-12h4v4h-4zm0 6h4v4h-4zm0 6h4v4h-4zm6-12h4v4h-4zm0 6h4v4h-4zm0 6h4v4h-4zm6-12h4v4h-4zm0 6h4v4h-4zm0 6h4v4h-4zm6-12h4v4h-4zm0 6h4v4h-4zm0 6h4v4h-4zm6-12h4v4h-4zm0 6h4v4h-4zm0 6h4v4h-4zm6-12h4v4h-4zm0 6h4v4h-4zm0 6h4v4h-4zm6-12h4v4h-4zm0 6h4v4h-4zm0 6h4v4h-4zm6-12h4v4h-4zm0 6h4v4h-4zm0 6h4v4h-4zm6-12h4v4h-4zm0 6h4v4h-4zm0 6h4v4h-4zm6-12h4v4h-4zm0 6h4v4h-4zm0 6h4v4h-4zm6-12h4v4h-4zm0 6h4v4h-4zm0 6h4v4h-4zm6-12h4v4h-4zm0 6h4v4h-4zm0 6h4v4h-4zm6-12h4v4h-4zm0 6h4v4h-4zm0 6h4v4h-4zm6-12h4v4h-4zm0 6h4v4h-4zm0 6h4v4h-4zm6-12h4v4h-4zm0 6h4v4h-4zm0 6h4v4h-4zm6-12h4v4h-4zm0 6h4v4h-4zm0 6h4v4h-4zM7 313h4v4H7zm6 0h4v4h-4zm6 0h4v4h-4zm6 0h4v4h-4zm6 0h4v4h-4zm6 0h4v4h-4zm6 0h4v4h-4zm6 0h4v4h-4zm6 0h4v4h-4zm6 0h4v4h-4zm6 0h4v4h-4zm6 0h4v4h-4zm6 0h4v4h-4zm6 0h4v4h-4zm6 0h4v4h-4zm6 0h4v4h-4zm6 0h4v4h-4zm6 0h4v4h-4zm6 0h4v4h-4zm6 0h4v4h-4zm6 0h4v4h-4zm6 0h4v4h-4zm6 0h4v4h-4zm6 0h4v4h-4zm6 0h4v4h-4zm6 0h4v4h-4zm6 0h4v4h-4zm6 0h4v4h-4zm6 0h4v4h-4z"></path><rect width="172" height="278" x="7" y="29" fill="#FFF" rx="2"></rect></g><path fill="#A3A3A3" d="M834.009 622.34h2.375v-2.159h-2.375v2.16zm-2.807 0h2.375v-2.159h-2.375v2.16zm-2.807 0h2.375v-2.159h-2.375v2.16zm-2.806 0h2.375v-2.159h-2.375v2.16zm-2.807 0h2.375v-2.159h-2.375v2.16zm2.807-2.59h2.375v-2.16h-2.375v2.16zm2.806 0h2.375v-2.16h-2.375v2.16zm2.807 0h2.375v-2.16h-2.375v2.16zm0-2.591h2.375V615h-2.375v2.159zm12.318 3.923c-.518-.347-1.71-.475-2.627-.302-.118-.864-.6-1.612-1.475-2.29l-.504-.335-.336.504c-.43.648-.644 1.547-.574 2.408.032.304.131.846.443 1.322-.312.168-.928.399-1.74.383H821.09l-.03.18c-.148.866-.145 3.568 1.61 5.645 1.333 1.579 3.333 2.38 5.942 2.38 5.657 0 9.843-2.605 11.803-7.338.77.015 2.43.004 3.282-1.625.022-.037.073-.135.222-.443l.082-.17-.48-.32z"></path><g fill="#A3A3A3"><path d="M830.883 656.606a.34.34 0 00-.393-.259l-.003-.004-1.987.337c.307.849.88 1.54 1.6 2.002l.77-1.86-.006-.007a.336.336 0 00.019-.21m-.661-1.431a.34.34 0 00.134-.583l.001-.008-1.511-1.353a3.964 3.964 0 00-.563 2.509l1.938-.56.001-.006zm.883-1.526a.34.34 0 00.539-.26l.008-.004.114-2.019a3.965 3.965 0 00-2.32 1.111l1.654 1.174.004-.002zm.585 2.12l.558.268.556-.268.138-.6-.385-.481h-.619l-.386.48zm1.157-2.386a.34.34 0 00.54.259l.005.002 1.645-1.166a3.998 3.998 0 00-2.307-1.112l.114 2.016h.002z"></path><path d="M839.02 656.867c-.047.205-.27.33-.497.28h-.006l-.007-.002c-.032-.007-.072-.014-.1-.022-.132-.035-.227-.088-.345-.133-.255-.091-.466-.168-.671-.197-.105-.009-.158.041-.216.08a5.777 5.777 0 00-.164-.03 5.008 5.008 0 01-2.22 2.792c.02.044.05.139.065.155-.024.065-.06.127-.03.227.075.194.196.383.342.611.07.106.142.187.206.307l.05.104c.1.211.027.455-.163.547-.192.092-.43-.006-.533-.218-.014-.03-.035-.07-.047-.099-.055-.125-.074-.232-.112-.353-.087-.256-.16-.468-.264-.647-.059-.087-.13-.098-.197-.12l-.082-.147a4.993 4.993 0 01-3.552-.01l-.087.159c-.065.017-.127.034-.166.08-.14.168-.196.436-.298.692-.038.12-.056.228-.11.353l-.048.097v.001l-.001.001c-.103.212-.34.31-.532.217-.19-.091-.262-.335-.163-.547.014-.03.034-.075.05-.103.063-.12.135-.203.206-.308.145-.228.273-.432.348-.626.019-.064-.01-.153-.034-.218l.07-.167a5.009 5.009 0 01-2.22-2.772l-.168.029c-.045-.025-.135-.085-.221-.078-.206.03-.416.106-.671.197-.118.045-.214.097-.346.132-.027.008-.067.016-.099.023l-.007.002-.006.001c-.228.05-.45-.076-.497-.281-.047-.206.099-.414.326-.469l.006-.002h.003c.032-.008.073-.019.103-.024.134-.026.243-.02.369-.03.269-.028.492-.051.69-.113.063-.026.123-.113.165-.167l.161-.047a4.98 4.98 0 01.786-3.472l-.124-.11c-.008-.049-.018-.16-.077-.223-.151-.142-.342-.26-.572-.402-.11-.064-.21-.106-.32-.186l-.08-.065-.005-.004c-.185-.147-.227-.401-.095-.567a.37.37 0 01.307-.136.458.458 0 01.268.101c.027.021.062.048.086.069.103.088.166.176.253.268.19.193.347.353.52.47.09.052.159.03.228.021l.139.1a4.95 4.95 0 013.21-1.545l.01-.162a.42.42 0 00.124-.2c.017-.206-.01-.429-.042-.698-.018-.125-.048-.23-.053-.366v-.108c0-.237.172-.429.385-.429.212 0 .385.192.385.428 0 .034.002.079 0 .11-.005.136-.034.24-.052.365-.032.269-.06.492-.044.699.015.103.076.144.126.192l.01.172a5.044 5.044 0 013.194 1.544l.147-.105c.05.003.158.018.233-.025.172-.116.33-.277.519-.47.087-.092.15-.18.254-.269l.086-.068c.184-.147.441-.132.574.034.132.167.09.42-.095.568-.026.02-.06.05-.085.068-.11.081-.21.123-.32.187-.23.142-.42.26-.572.402-.071.076-.066.149-.072.218l-.137.122a4.982 4.982 0 01.802 3.464l.155.046c.028.04.086.135.167.167.198.062.42.085.69.113.126.01.235.004.369.03.032.006.079.018.112.026.227.055.372.263.325.469m2.447.084l-1.59-6.902a1.222 1.222 0 00-.665-.827l-6.43-3.071a1.239 1.239 0 00-1.068 0l-6.43 3.072a1.221 1.221 0 00-.666.828l-1.586 6.901a1.211 1.211 0 00.237 1.032l4.45 5.534c.234.29.588.46.962.46l7.137-.002c.374 0 .728-.169.962-.459l4.449-5.534c.233-.29.32-.67.238-1.032"></path><path d="M835.64 653.231l-1.504 1.346v.004a.34.34 0 00.133.583l.003.008 1.947.561c.041-.42.016-.855-.084-1.29a4.013 4.013 0 00-.496-1.212m-3.093 4.104a.337.337 0 00-.31-.178.34.34 0 00-.288.179h-.001l-.977 1.766a3.98 3.98 0 002.563.003l-.98-1.77h-.007zm1.455-.995a.338.338 0 00-.208.028.34.34 0 00-.164.44l-.003.002.778 1.88a3.97 3.97 0 001.605-2.016l-2.005-.339-.003.004z"></path></g><g fill="#419EDA" fill-rule="nonzero"><path d="M286.352 448.226c0 3.309-2.58 5.986-5.76 5.986-3.184 0-5.757-2.677-5.757-5.986 0-3.296 2.574-5.983 5.756-5.983 3.18 0 5.761 2.687 5.761 5.983zm7.443 0c0 3.31 2.58 5.987 5.761 5.987 3.18 0 5.758-2.677 5.758-5.986 0-3.297-2.578-5.984-5.758-5.984s-5.761 2.687-5.761 5.984z"></path><path d="M333.068 454.904a14.59 14.59 0 01-1.274.052c-2.569 0-5.06-.625-7.309-1.772a72.955 72.955 0 00.984-13.435 69.193 69.193 0 00-8.369-10.304c1.365-2.658 3.38-4.945 5.9-6.565l1.08-.694-.842-.988c-4.34-5.078-9.52-9.005-15.393-11.668l-1.171-.53-.298 1.286a17.423 17.423 0 01-4.174 7.872 65.487 65.487 0 00-12.059-5.163 65.543 65.543 0 00-12.04 5.152 17.419 17.419 0 01-4.16-7.854l-.3-1.286-1.166.527c-5.8 2.626-11.122 6.658-15.391 11.66l-.845.99 1.08.694c2.51 1.616 4.521 3.889 5.883 6.532a69.484 69.484 0 00-8.353 10.264 73.009 73.009 0 00.96 13.528 16.04 16.04 0 01-7.268 1.754c-.448 0-.867-.017-1.274-.052l-1.269-.1.119 1.316a46.754 46.754 0 005.918 18.826l.645 1.139.97-.855a16.307 16.307 0 017.843-3.818 70.38 70.38 0 006.713 11.362 65.825 65.825 0 0012.723 3.248c.42 3.017.085 6.138-1.06 9.023l-.483 1.222 1.242.284c3.18.727 6.39 1.097 9.532 1.097l9.53-1.097 1.243-.284-.484-1.225c-1.143-2.885-1.478-6.009-1.057-9.026a65.74 65.74 0 0012.674-3.242 70.469 70.469 0 006.72-11.372 16.378 16.378 0 017.883 3.82l.969.854.642-1.136a46.582 46.582 0 005.914-18.822l.119-1.314-1.247.1zm-29.287 16.092c-4.508 1.274-9.087 1.917-13.638 1.917-4.563 0-9.136-.642-13.648-1.917a55.91 55.91 0 01-5.842-12.785c-1.402-4.487-2.223-9.187-2.461-14.027 2.914-3.744 6.227-7.023 9.889-9.784a52.069 52.069 0 0112.062-6.814 52.28 52.28 0 0112.04 6.8c3.675 2.775 7.003 6.08 9.931 9.846-.25 4.813-1.08 9.486-2.485 13.965a55.73 55.73 0 01-5.848 12.8z"></path></g><path d="M274.993 394.234v1.836h-4.5v3.047h5.282V401h-7.625v-11.375h7.609v1.898h-5.266v2.711h4.5zm10.875-4.609v1.898h-3.484V401h-2.344v-9.477h-3.437v-1.898h9.265zm7.704 7.586h2.343q-.133 1.836-1.355 2.89-1.223 1.055-3.223 1.055-2.187 0-3.441-1.472-1.254-1.473-1.254-4.043v-.696q0-1.64.578-2.89.578-1.25 1.652-1.918 1.075-.668 2.496-.668 1.97 0 3.172 1.054 1.203 1.055 1.39 2.961h-2.343q-.086-1.101-.613-1.597t-1.606-.496q-1.171 0-1.754.84-.582.84-.597 2.605v.86q0 1.843.558 2.695.559.851 1.762.851 1.086 0 1.621-.496.535-.496.613-1.535zm7.406 3.789h-3.524v-11.375h3.5q1.5 0 2.684.676 1.184.676 1.848 1.922.664 1.246.664 2.832v.523q0 1.586-.653 2.82-.652 1.235-1.84 1.914-1.187.68-2.68.688zm-.024-9.477h-1.156v7.594h1.133q1.375 0 2.101-.898.727-.899.743-2.57v-.602q0-1.735-.72-2.629-.718-.895-2.1-.895z" fill="#4A4A4A"></path><g fill="#419EDA" fill-rule="nonzero"><path d="M596.352 448.226c0 3.309-2.58 5.986-5.76 5.986-3.184 0-5.757-2.677-5.757-5.986 0-3.296 2.574-5.983 5.756-5.983 3.18 0 5.761 2.687 5.761 5.983zm7.443 0c0 3.31 2.58 5.987 5.761 5.987 3.18 0 5.758-2.677 5.758-5.986 0-3.297-2.578-5.984-5.758-5.984s-5.761 2.687-5.761 5.984z"></path><path d="M643.068 454.904a14.59 14.59 0 01-1.274.052c-2.569 0-5.06-.625-7.309-1.772a72.955 72.955 0 00.984-13.435 69.193 69.193 0 00-8.369-10.304c1.365-2.658 3.38-4.945 5.9-6.565l1.08-.694-.842-.988c-4.34-5.078-9.52-9.005-15.393-11.668l-1.171-.53-.298 1.286a17.423 17.423 0 01-4.174 7.872 65.487 65.487 0 00-12.059-5.163 65.543 65.543 0 00-12.04 5.152 17.419 17.419 0 01-4.16-7.854l-.3-1.286-1.166.527c-5.8 2.626-11.122 6.658-15.391 11.66l-.845.99 1.08.694c2.51 1.616 4.521 3.889 5.883 6.532a69.484 69.484 0 00-8.353 10.264 73.009 73.009 0 00.96 13.528 16.04 16.04 0 01-7.268 1.754c-.448 0-.867-.017-1.274-.052l-1.269-.1.119 1.316a46.754 46.754 0 005.918 18.826l.645 1.139.97-.855a16.307 16.307 0 017.843-3.818 70.38 70.38 0 006.713 11.362 65.825 65.825 0 0012.723 3.248c.42 3.017.085 6.138-1.06 9.023l-.483 1.222 1.242.284c3.18.727 6.39 1.097 9.532 1.097l9.53-1.097 1.243-.284-.484-1.225c-1.143-2.885-1.478-6.009-1.057-9.026a65.74 65.74 0 0012.674-3.242 70.469 70.469 0 006.72-11.372 16.378 16.378 0 017.883 3.82l.969.854.642-1.136a46.582 46.582 0 005.914-18.822l.119-1.314-1.247.1zm-29.287 16.092c-4.508 1.274-9.087 1.917-13.638 1.917-4.563 0-9.136-.642-13.648-1.917a55.91 55.91 0 01-5.842-12.785c-1.402-4.487-2.223-9.187-2.461-14.027 2.914-3.744 6.227-7.023 9.889-9.784a52.069 52.069 0 0112.062-6.814 52.28 52.28 0 0112.04 6.8c3.675 2.775 7.003 6.08 9.931 9.846-.25 4.813-1.08 9.486-2.485 13.965a55.73 55.73 0 01-5.848 12.8z"></path></g><path d="M584.993 394.234v1.836h-4.5v3.047h5.282V401h-7.625v-11.375h7.609v1.898h-5.266v2.711h4.5zm10.875-4.609v1.898h-3.484V401h-2.344v-9.477h-3.437v-1.898h9.265zm7.703 7.586h2.344q-.133 1.836-1.355 2.89-1.223 1.055-3.223 1.055-2.187 0-3.441-1.472-1.254-1.473-1.254-4.043v-.696q0-1.64.578-2.89.578-1.25 1.652-1.918 1.075-.668 2.496-.668 1.97 0 3.172 1.054 1.203 1.055 1.39 2.961h-2.343q-.086-1.101-.613-1.597-.528-.496-1.606-.496-1.172 0-1.754.84-.582.84-.597 2.605v.86q0 1.843.558 2.695.559.851 1.762.851 1.086 0 1.621-.496.535-.496.614-1.535zm7.407 3.789h-3.524v-11.375h3.5q1.5 0 2.684.676 1.183.676 1.848 1.922.664 1.246.664 2.832v.523q0 1.586-.653 2.82-.652 1.235-1.84 1.914-1.187.68-2.68.688zm-.024-9.477h-1.156v7.594h1.133q1.375 0 2.101-.898.727-.899.743-2.57v-.602q0-1.735-.72-2.629-.718-.895-2.1-.895z" fill="#4A4A4A"></path><g fill="#419EDA" fill-rule="nonzero"><path d="M903.352 448.226c0 3.309-2.58 5.986-5.76 5.986-3.184 0-5.757-2.677-5.757-5.986 0-3.296 2.574-5.983 5.756-5.983 3.18 0 5.761 2.687 5.761 5.983zm7.443 0c0 3.31 2.58 5.987 5.761 5.987 3.18 0 5.758-2.677 5.758-5.986 0-3.297-2.578-5.984-5.758-5.984s-5.761 2.687-5.761 5.984z"></path><path d="M950.068 454.904a14.59 14.59 0 01-1.274.052c-2.569 0-5.06-.625-7.309-1.772a72.955 72.955 0 00.984-13.435 69.193 69.193 0 00-8.369-10.304c1.365-2.658 3.38-4.945 5.9-6.565l1.08-.694-.842-.988c-4.34-5.078-9.52-9.005-15.393-11.668l-1.171-.53-.298 1.286a17.423 17.423 0 01-4.174 7.872 65.487 65.487 0 00-12.059-5.163 65.543 65.543 0 00-12.04 5.152 17.419 17.419 0 01-4.16-7.854l-.3-1.286-1.166.527c-5.8 2.626-11.122 6.658-15.391 11.66l-.845.99 1.08.694c2.51 1.616 4.521 3.889 5.883 6.532a69.484 69.484 0 00-8.353 10.264 73.009 73.009 0 00.96 13.528 16.04 16.04 0 01-7.268 1.754c-.448 0-.867-.017-1.274-.052l-1.269-.1.119 1.316a46.754 46.754 0 005.918 18.826l.645 1.139.97-.855a16.307 16.307 0 017.843-3.818 70.38 70.38 0 006.713 11.362 65.825 65.825 0 0012.723 3.248c.42 3.017.085 6.138-1.06 9.023l-.483 1.222 1.242.284c3.18.727 6.39 1.097 9.532 1.097l9.53-1.097 1.243-.284-.484-1.225c-1.143-2.885-1.478-6.009-1.057-9.026a65.74 65.74 0 0012.674-3.242 70.469 70.469 0 006.72-11.372 16.378 16.378 0 017.883 3.82l.969.854.642-1.136a46.582 46.582 0 005.914-18.822l.119-1.314-1.247.1zm-29.287 16.092c-4.508 1.274-9.087 1.917-13.638 1.917-4.563 0-9.136-.642-13.648-1.917a55.91 55.91 0 01-5.842-12.785c-1.402-4.487-2.223-9.187-2.461-14.027 2.914-3.744 6.227-7.023 9.889-9.784a52.069 52.069 0 0112.062-6.814 52.28 52.28 0 0112.04 6.8c3.675 2.775 7.003 6.08 9.931 9.846-.25 4.813-1.08 9.486-2.485 13.965a55.73 55.73 0 01-5.848 12.8z"></path></g><path d="M891.993 394.234v1.836h-4.5v3.047h5.282V401h-7.625v-11.375h7.609v1.898h-5.266v2.711h4.5zm10.875-4.609v1.898h-3.484V401h-2.344v-9.477h-3.437v-1.898h9.265zm7.703 7.586h2.344q-.133 1.836-1.355 2.89-1.223 1.055-3.223 1.055-2.187 0-3.441-1.472-1.254-1.473-1.254-4.043v-.696q0-1.64.578-2.89.578-1.25 1.652-1.918 1.075-.668 2.496-.668 1.97 0 3.172 1.054 1.203 1.055 1.39 2.961h-2.343q-.086-1.101-.613-1.597-.528-.496-1.606-.496-1.172 0-1.754.84-.582.84-.597 2.605v.86q0 1.843.558 2.695.559.851 1.762.851 1.086 0 1.621-.496.535-.496.614-1.535zm7.407 3.789h-3.524v-11.375h3.5q1.5 0 2.684.676 1.183.676 1.848 1.922.664 1.246.664 2.832v.523q0 1.586-.653 2.82-.652 1.235-1.84 1.914-1.187.68-2.68.688zm-.024-9.477h-1.156v7.594h1.133q1.375 0 2.101-.898.727-.899.743-2.57v-.602q0-1.735-.72-2.629-.718-.895-2.1-.895zM247.6 241.207h3.706l.123 1.654q1.572-1.927 4.252-1.927 2.857 0 3.923 2.255 1.56-2.255 4.444-2.255 2.406 0 3.582 1.401 1.176 1.401 1.176 4.218V256h-3.965v-9.434q0-1.257-.492-1.838-.493-.582-1.737-.582-1.777 0-2.46 1.696l.013 10.158h-3.951v-9.42q0-1.285-.506-1.86-.506-.574-1.723-.574-1.681 0-2.433 1.395V256H247.6v-14.793zM284.406 256h-3.992q-.273-.533-.396-1.326-1.436 1.6-3.733 1.6-2.174 0-3.602-1.258-1.43-1.258-1.43-3.172 0-2.352 1.744-3.61 1.743-1.257 5.038-1.271h1.819v-.848q0-1.025-.527-1.64-.526-.616-1.661-.616-.998 0-1.565.479-.568.478-.568 1.312h-3.951q0-1.285.793-2.379.793-1.093 2.242-1.715 1.45-.622 3.254-.622 2.734 0 4.34 1.374 1.607 1.374 1.607 3.862v6.412q.014 2.106.588 3.186V256zm-7.26-2.748q.876 0 1.614-.39.738-.39 1.094-1.046v-2.543h-1.477q-2.967 0-3.158 2.051l-.014.233q0 .738.52 1.216.52.479 1.422.479zm17.72-1.34q0-.725-.719-1.141-.717-.417-2.303-.746-5.278-1.107-5.278-4.484 0-1.969 1.634-3.288 1.634-1.32 4.273-1.32 2.816 0 4.505 1.327 1.688 1.326 1.688 3.445h-3.951q0-.848-.547-1.401-.547-.554-1.709-.554-.998 0-1.545.451-.547.451-.547 1.149 0 .656.622 1.06.622.403 2.099.696 1.476.294 2.488.664 3.131 1.148 3.131 3.978 0 2.023-1.736 3.274-1.737 1.251-4.485 1.251-1.859 0-3.301-.663-1.443-.663-2.263-1.818-.82-1.155-.82-2.495h3.746q.054 1.053.779 1.613t1.941.56q1.135 0 1.716-.43t.581-1.128zm7.163-14.342h3.951v3.637h2.53v2.898h-2.53v7.383q0 .82.315 1.176.314.356 1.203.356.656 0 1.162-.096v2.994q-1.162.355-2.392.355-4.157 0-4.239-4.197v-7.97h-2.16v-2.899h2.16v-3.637zm15.49 18.703q-3.253 0-5.297-1.996-2.044-1.996-2.044-5.318v-.383q0-2.228.861-3.985.861-1.757 2.44-2.707 1.58-.95 3.603-.95 3.035 0 4.778 1.914 1.744 1.914 1.744 5.427v1.614h-9.42q.191 1.449 1.155 2.324.964.875 2.44.875 2.284 0 3.569-1.654l1.941 2.173q-.889 1.258-2.406 1.962-1.518.704-3.363.704zm-.45-12.14q-1.176 0-1.908.793-.731.793-.936 2.27h5.496v-.315q-.028-1.313-.711-2.03-.684-.718-1.942-.718zm17.144-3.022l-.055 3.801q-.806-.11-1.422-.11-2.242 0-2.94 1.518V256h-3.95v-14.793h3.732l.11 1.764q1.189-2.037 3.294-2.037.657 0 1.23.177zm222.387.096h3.706l.123 1.654q1.572-1.927 4.252-1.927 2.857 0 3.923 2.255 1.56-2.255 4.444-2.255 2.406 0 3.582 1.401 1.176 1.401 1.176 4.218V256h-3.965v-9.434q0-1.257-.492-1.838-.493-.582-1.737-.582-1.777 0-2.46 1.696l.013 10.158h-3.951v-9.42q0-1.285-.506-1.86-.506-.574-1.723-.574-1.681 0-2.433 1.395V256H556.6v-14.793zM593.406 256h-3.992q-.273-.533-.396-1.326-1.436 1.6-3.733 1.6-2.174 0-3.602-1.258-1.43-1.258-1.43-3.172 0-2.352 1.744-3.61 1.743-1.257 5.038-1.271h1.819v-.848q0-1.025-.527-1.64-.526-.616-1.661-.616-.998 0-1.565.479-.568.478-.568 1.312h-3.951q0-1.285.793-2.379.793-1.093 2.242-1.715 1.45-.622 3.254-.622 2.734 0 4.34 1.374 1.607 1.374 1.607 3.862v6.412q.014 2.106.588 3.186V256zm-7.26-2.748q.875 0 1.614-.39.738-.39 1.094-1.046v-2.543h-1.477q-2.967 0-3.158 2.051l-.014.233q0 .738.52 1.216.52.479 1.421.479zm17.72-1.34q0-.725-.719-1.141-.717-.417-2.303-.746-5.278-1.107-5.278-4.484 0-1.969 1.634-3.288 1.634-1.32 4.273-1.32 2.816 0 4.505 1.327 1.688 1.326 1.688 3.445h-3.951q0-.848-.547-1.401-.547-.554-1.709-.554-.998 0-1.545.451-.547.451-.547 1.149 0 .656.622 1.06.622.403 2.099.696 1.476.294 2.488.664 3.131 1.148 3.131 3.978 0 2.023-1.736 3.274-1.737 1.251-4.485 1.251-1.859 0-3.301-.663-1.443-.663-2.263-1.818-.82-1.155-.82-2.495h3.746q.054 1.053.779 1.613t1.941.56q1.135 0 1.716-.43t.581-1.128zm7.163-14.342h3.951v3.637h2.53v2.898h-2.53v7.383q0 .82.315 1.176.314.356 1.203.356.656 0 1.162-.096v2.994q-1.162.355-2.392.355-4.157 0-4.239-4.197v-7.97h-2.16v-2.899h2.16v-3.637zm15.49 18.703q-3.253 0-5.297-1.996-2.044-1.996-2.044-5.318v-.383q0-2.228.861-3.985.861-1.757 2.44-2.707 1.58-.95 3.603-.95 3.035 0 4.778 1.914 1.744 1.914 1.744 5.427v1.614h-9.42q.191 1.449 1.155 2.324.964.875 2.44.875 2.284 0 3.569-1.654l1.941 2.173q-.889 1.258-2.406 1.962-1.518.704-3.363.704zm-.45-12.14q-1.176 0-1.908.793-.731.793-.936 2.27h5.496v-.315q-.028-1.313-.711-2.03-.684-.718-1.942-.718zm17.144-3.022l-.055 3.801q-.806-.11-1.422-.11-2.242 0-2.94 1.518V256h-3.95v-14.793h3.732l.11 1.764q1.189-2.037 3.294-2.037.657 0 1.23.177zm221.387.096h3.706l.123 1.654q1.572-1.927 4.252-1.927 2.857 0 3.923 2.255 1.56-2.255 4.444-2.255 2.406 0 3.582 1.401 1.176 1.401 1.176 4.218V256h-3.965v-9.434q0-1.257-.492-1.838-.493-.582-1.737-.582-1.777 0-2.46 1.696l.013 10.158h-3.951v-9.42q0-1.285-.506-1.86-.506-.574-1.723-.574-1.681 0-2.433 1.395V256H864.6v-14.793zM901.406 256h-3.992q-.273-.533-.396-1.326-1.436 1.6-3.733 1.6-2.174 0-3.602-1.258-1.43-1.258-1.43-3.172 0-2.352 1.744-3.61 1.743-1.257 5.038-1.271h1.819v-.848q0-1.025-.527-1.64-.526-.616-1.661-.616-.998 0-1.565.479-.568.478-.568 1.312h-3.951q0-1.285.793-2.379.793-1.093 2.242-1.715 1.45-.622 3.254-.622 2.734 0 4.34 1.374 1.607 1.374 1.607 3.862v6.412q.014 2.106.588 3.186V256zm-7.26-2.748q.875 0 1.614-.39.738-.39 1.094-1.046v-2.543h-1.477q-2.967 0-3.158 2.051l-.014.233q0 .738.52 1.216.52.479 1.421.479zm17.72-1.34q0-.725-.719-1.141-.717-.417-2.303-.746-5.278-1.107-5.278-4.484 0-1.969 1.634-3.288 1.634-1.32 4.273-1.32 2.816 0 4.505 1.327 1.688 1.326 1.688 3.445h-3.951q0-.848-.547-1.401-.547-.554-1.709-.554-.998 0-1.545.451-.547.451-.547 1.149 0 .656.622 1.06.622.403 2.099.696 1.476.294 2.488.664 3.131 1.148 3.131 3.978 0 2.023-1.736 3.274-1.737 1.251-4.485 1.251-1.859 0-3.301-.663-1.443-.663-2.263-1.818-.82-1.155-.82-2.495h3.746q.054 1.053.779 1.613t1.941.56q1.135 0 1.716-.43t.581-1.128zm7.163-14.342h3.951v3.637h2.53v2.898h-2.53v7.383q0 .82.315 1.176.314.356 1.203.356.656 0 1.162-.096v2.994q-1.162.355-2.392.355-4.157 0-4.239-4.197v-7.97h-2.16v-2.899h2.16v-3.637zm15.49 18.703q-3.253 0-5.297-1.996-2.044-1.996-2.044-5.318v-.383q0-2.228.861-3.985.861-1.757 2.44-2.707 1.58-.95 3.603-.95 3.035 0 4.778 1.914 1.744 1.914 1.744 5.427v1.614h-9.42q.191 1.449 1.155 2.324.964.875 2.44.875 2.284 0 3.569-1.654l1.941 2.173q-.889 1.258-2.406 1.962-1.518.704-3.363.704zm-.45-12.14q-1.176 0-1.908.793-.731.793-.936 2.27h5.496v-.315q-.028-1.313-.711-2.03-.684-.718-1.942-.718zm17.144-3.022l-.055 3.801q-.806-.11-1.422-.11-2.242 0-2.94 1.518V256h-3.95v-14.793h3.732l.11 1.764q1.189-2.037 3.294-2.037.657 0 1.23.177z" fill="#4A4A4A"></path><g fill-rule="nonzero" transform="translate(353 180)"><path fill="#9EEBCF" d="M7-1v103H4V-1z"></path><circle cx="5.5" cy="-1.5" r="6.5" fill="#FFF" stroke="#9EEBCF" stroke-width="3"></circle><path fill="#9EEBCF" d="M5.5 106L0 98h11z"></path></g><g fill-rule="nonzero" transform="translate(661 180)"><path fill="#9EEBCF" d="M7-1v103H4V-1z"></path><circle cx="5.5" cy="-1.5" r="6.5" fill="#FFF" stroke="#9EEBCF" stroke-width="3"></circle><path fill="#9EEBCF" d="M5.5 106L0 98h11z"></path></g><g fill-rule="nonzero" transform="translate(969 180)"><path fill="#9EEBCF" d="M7-1v103H4V-1z"></path><circle cx="5.5" cy="-1.5" r="6.5" fill="#FFF" stroke="#9EEBCF" stroke-width="3"></circle><path fill="#9EEBCF" d="M5.5 106L0 98h11z"></path></g></g></svg>