<svg xmlns="http://www.w3.org/2000/svg" viewBox="0 0 1200 900"><defs><linearGradient id="linearGradient-3" x1="85.463%" x2="5.901%" y1="97.424%" y2="-3.699%"><stop offset="0%" stop-color="#4F66B8"></stop><stop offset="100%" stop-color="#484FAA"></stop></linearGradient><linearGradient id="linearGradient-6" x1="110.581%" x2="14.495%" y1="94.278%" y2="-3.444%"><stop offset="0%" stop-color="#4F66B8"></stop><stop offset="100%" stop-color="#484FAA"></stop></linearGradient><linearGradient id="linearGradient-9" x1="63.024%" x2="11.694%" y1="94.539%" y2="17.572%"><stop offset="0%" stop-color="#4B67BA"></stop><stop offset="100%" stop-color="#5080C8"></stop></linearGradient></defs><g fill="none" fill-rule="evenodd"><path fill="#232A3A" d="M558.068 480.118l-4.66-14.006h-22.26l-4.502 14.006h-9.808l20.368-55.78h10.613l20.057 55.78h-9.808zm-24.591-21.17h17.681l-8.883-25.759-8.798 25.758zm90.978 21.17v-27.767c0-2.472-.482-4.244-1.445-5.314-.964-1.071-2.541-1.613-4.739-1.613-1.663 0-3.432.284-5.306.846-1.875.562-3.505 1.275-4.904 2.135v31.713h-9.484v-27.767c0-2.472-.482-4.244-1.446-5.314-.963-1.071-2.547-1.613-4.745-1.613-1.551 0-3.228.258-5.023.766a22.42 22.42 0 00-5.18 2.215v31.713h-9.486v-40.967h7.874l.884 4.098c2.68-1.824 5.208-3.16 7.597-4.025 2.382-.853 4.778-1.282 7.194-1.282 4.976 0 8.408 1.844 10.283 5.552 5.365-3.708 10.507-5.552 15.437-5.552 3.802 0 6.752 1.03 8.837 3.093 2.093 2.069 3.135 5.063 3.135 8.976v30.107h-9.484m43.004 0l-.726-3.946a22.241 22.241 0 01-6.23 3.788c-2.27.905-4.534 1.368-6.792 1.368-3.748 0-6.784-1.124-9.12-3.384-2.33-2.254-3.492-5.176-3.492-8.771 0-3.973 1.432-7.132 4.296-9.505 2.871-2.36 6.713-3.536 11.53-3.536 2.845 0 5.954.403 9.326 1.21v-4.753c0-2.737-.587-4.64-1.768-5.711-1.175-1.077-3.241-1.613-6.191-1.613-4.178 0-8.97.886-14.382 2.657v-6.682c2.013-1.018 4.482-1.825 7.406-2.413a44.321 44.321 0 018.79-.885c5.347 0 9.287 1.077 11.828 3.218 2.534 2.149 3.802 5.5 3.802 10.06v28.898h-8.277m-10.85-5.558c1.524 0 3.115-.33 4.785-.998 1.67-.681 3.287-1.627 4.857-2.863v-7.726c-2.772-.589-5.227-.886-7.365-.886-5.432 0-8.145 2.175-8.145 6.524 0 1.877.522 3.338 1.565 4.382 1.042 1.051 2.481 1.567 4.303 1.567m25.23 5.558v-7.006l22.829-26.723h-22.018v-7.238h32.228v7l-22.829 26.723h23.067v7.244zm57.067 1.207c-6.211 0-11.069-1.917-14.547-5.757-3.485-3.833-5.22-9.16-5.22-15.976 0-6.814 1.735-12.128 5.22-15.936 3.478-3.807 8.336-5.71 14.547-5.71 6.217 0 11.068 1.903 14.546 5.71 3.485 3.808 5.227 9.122 5.227 15.936 0 6.815-1.742 12.143-5.227 15.976-3.478 3.84-8.33 5.757-14.546 5.757m0-7.489c6.751 0 10.124-4.752 10.124-14.244 0-9.445-3.373-14.164-10.124-14.164-6.746 0-10.125 4.72-10.125 14.164 0 9.492 3.38 14.244 10.125 14.244m54.733 6.282v-27.126c0-2.63-.534-4.548-1.603-5.757-1.076-1.203-2.786-1.811-5.142-1.811-3.544 0-7.154 1.183-10.857 3.543v31.151h-9.484v-40.967h7.88l.957 4.501c5.043-3.807 10.296-5.71 15.755-5.71 3.913 0 6.89 1.03 8.93 3.093 2.026 2.069 3.049 5.063 3.049 8.976v30.107h-9.485m28.533 0v-55.779h32.868v4.263h-28.122v20.53h24.11v4.263h-24.11v22.453h28.122v4.27zm42.353 0v-55.779h4.745v25.837l25.562-25.837h6.111l-27.013 27.205 29.257 28.574h-6.514l-27.403-26.723v26.723zm54.011-28.172c-4.125-1.606-7.154-3.53-9.081-5.757-1.927-2.227-2.891-4.977-2.891-8.249 0-4.455 1.59-8.057 4.778-10.827 3.195-2.762 7.38-4.144 12.58-4.144 2.356 0 4.838.278 7.432.846 2.6.562 5.055 1.355 7.359 2.373v4.105c-5.465-1.93-10.316-2.895-14.547-2.895-4.125 0-7.286.899-9.49 2.696-2.198 1.798-3.294 4.363-3.294 7.681 0 1.884.343 3.397 1.01 4.547.666 1.164 1.769 2.208 3.293 3.147 1.531.938 3.71 1.943 6.554 3.02l8.593 3.299c3.861 1.5 6.673 3.331 8.442 5.512 1.768 2.168 2.653 4.891 2.653 8.163 0 4.78-1.762 8.646-5.267 11.594-3.505 2.954-8.131 4.428-13.86 4.428-5.953 0-11.26-1.13-15.92-3.377v-4.112c5.63 2.043 10.798 3.06 15.517 3.06 4.449 0 7.993-1.044 10.646-3.132 2.66-2.102 3.98-4.938 3.98-8.533 0-2.202-.726-4.079-2.165-5.639-1.452-1.553-3.782-2.948-6.996-4.184l-9.326-3.622"></path><path fill="url(#linearGradient-3)" mask="url(#mask-2)" d="M46.926.291L16.084 31.925V.291H5.372v75.08h10.712V37.834l33.409 37.537h13.709L27.218 35.144 61.063.291z" transform="translate(338.8 410.99)"></path><path fill="url(#linearGradient-6)" d="M7.379 3.153c-1.446.006-2.779 1.104-2.91 2.67-.007.086-.007.165-.007.251v54.438c0 1.038.554 2.003 1.452 2.525L58.66 93.528a2.918 2.918 0 011.458 2.525v60.995a2.92 2.92 0 001.452 2.525l47.072 27.219c1.94 1.123 4.362-.285 4.362-2.519V65.47a2.904 2.904 0 00-1.452-2.525L8.824 3.549a2.85 2.85 0 00-1.24-.383c-.007-.007-.014-.007-.02-.007H7.47c-.013 0-.033 0-.053-.006H7.38z" mask="url(#mask-5)" transform="translate(371.8 318.454)"></path><path fill="url(#linearGradient-9)" d="M105.626 3.153a3.03 3.03 0 00-.422.033c-.013.007-.02.007-.033.007h-.007c-.33.059-.66.171-.983.356L1.459 62.945A2.91 2.91 0 000 65.47v130.668a2.91 2.91 0 001.459 2.525L114.45 264a2.888 2.888 0 002.904 0l102.729-59.395a2.898 2.898 0 001.458-2.525 2.89 2.89 0 00-1.458-2.525l-47.072-27.219a2.9 2.9 0 00-2.91 0l-52.747 30.498a2.888 2.888 0 01-2.904 0l-60.107-34.755a2.924 2.924 0 01-1.458-2.524V96.053c0-1.044.56-2.003 1.458-2.525l52.748-30.497a2.918 2.918 0 001.452-2.525V6.074a2.896 2.896 0 00-2.027-2.776 2.833 2.833 0 00-.818-.139c-.02-.006-.046-.006-.066-.006h-.007z" mask="url(#mask-8)" transform="translate(253 318.454)"></path></g></svg>