<svg viewBox="0 0 741 531" xmlns="http://www.w3.org/2000/svg"><g fill="none" fill-rule="evenodd"><g transform="translate(27.000000, 40.000000)"><path fill="#005FAD" d="M292.994 365.655V353.87H0v11.785l146.497 84.58z"></path><path fill="#0071CE" d="M292.994 353.87l-146.497-84.58L0 353.87l146.497 84.58z"></path><path fill="#2D536D" d="M66.692 376.24l34.418 19.872 6.555-3.784-14.221-8.21 12.482-7.207-5.881-3.396-12.482 7.207-7.954-4.592 14.403-8.315-6.363-3.674zm46.88-9.087l-9.689-5.594 7.181-4.146c1.503-.868 3.007-1.3 4.514-1.298 1.507.002 3.096.485 4.767 1.45 1.735 1.002 2.613 1.943 2.633 2.822.019.879-.722 1.752-2.225 2.62l-7.181 4.146zm-22.124-5.206l34.419 19.872 6.554-3.784-13.45-7.765 6.555-3.784c1.642-.948 3.242-1.39 4.802-1.325 1.559.064 3.35.552 5.372 1.462a101.57 101.57 0 014.714 2.288c1.594.824 3.118 1.447 4.573 1.869l6.554-3.784a11.329 11.329 0 01-2.448-.618 28.692 28.692 0 01-2.528-1.074 63.46 63.46 0 01-2.411-1.224c-.767-.41-1.438-.765-2.012-1.065a37.74 37.74 0 00-2.916-1.322 18.749 18.749 0 00-3.117-.956 15.342 15.342 0 00-3.174-.338 11.073 11.073 0 00-3.185.475l-.097-.055c.899-1.41.978-2.754.237-4.034-.741-1.279-2.123-2.503-4.148-3.672a18.207 18.207 0 00-4.293-1.779 20.664 20.664 0 00-4.766-.728 19.738 19.738 0 00-4.804.408c-1.57.331-3.023.883-4.359 1.654l-16.072 9.279zm52.755-10.419c-1.51-.872-2.826-1.801-3.948-2.786-1.122-.985-1.917-1.983-2.386-2.992-.468-1.01-.517-2.002-.146-2.977.371-.975 1.294-1.888 2.769-2.74a12.55 12.55 0 014.746-1.599 18.405 18.405 0 015.156.085c1.749.27 3.476.729 5.182 1.377a33.161 33.161 0 014.825 2.28c1.447.835 2.706 1.731 3.78 2.688 1.074.957 1.837 1.936 2.289 2.937.453 1 .494 1.988.123 2.963-.371.974-1.294 1.888-2.769 2.739a12.556 12.556 0 01-4.746 1.599 18.561 18.561 0 01-5.132-.071 25.194 25.194 0 01-5.086-1.321 31.067 31.067 0 01-4.657-2.182zm-6.554 3.784a38.464 38.464 0 008.016 3.471 38.66 38.66 0 008.545 1.607c2.859.204 5.658.045 8.397-.479 2.739-.523 5.249-1.444 7.531-2.762 2.311-1.333 3.912-2.787 4.805-4.36.893-1.573 1.163-3.185.808-4.836-.354-1.651-1.282-3.295-2.783-4.934-1.502-1.638-3.506-3.18-6.012-4.627a39.578 39.578 0 00-8.161-3.555 39.56 39.56 0 00-8.641-1.663 32.564 32.564 0 00-8.449.425c-2.741.506-5.266 1.426-7.576 2.76-2.282 1.318-3.869 2.772-4.76 4.362-.891 1.591-1.143 3.221-.756 4.89.386 1.67 1.346 3.333 2.88 4.989 1.533 1.657 3.585 3.227 6.156 4.712zm16.42-29.519l34.418 19.872 6.137-3.543-24.151-13.944.084-.048 31.457 9.726 5.051-2.917-17.086-18.301.083-.048 24.392 14.083 6.137-3.543-34.419-19.872-9.226 5.327 17.073 17.473-.083.049-30.641-9.641zm31.705 66.496l8.06 4.653 1.917-1.107-4.225-2.44c-.821-.473-1.294-.881-1.418-1.223-.125-.342.074-.664.596-.966a2.118 2.118 0 011.449-.27c.508.086 1.094.32 1.759.704l4.552 2.628 1.917-1.107-4.957-2.862a11.247 11.247 0 00-1.479-.72 5.733 5.733 0 00-1.443-.374 4.627 4.627 0 00-1.446.061c-.49.097-.991.293-1.504.59-.405.233-.694.524-.868.87-.174.346-.149.725.076 1.135l-.041.023-1.122-.648-1.823 1.053zm13.744-3.273a6.513 6.513 0 01-.87-.596c-.258-.211-.441-.424-.549-.637a.824.824 0 01-.065-.638c.065-.211.26-.41.584-.598.324-.187.672-.3 1.043-.34a3.98 3.98 0 011.111.033c.369.062.737.168 1.103.317s.71.316 1.032.502c.322.186.609.383.862.591.252.209.435.42.549.637.114.217.133.43.058.642-.075.211-.274.41-.598.597a2.633 2.633 0 01-1.028.342c-.362.04-.73.028-1.105-.038a5.44 5.44 0 01-1.103-.317 8.198 8.198 0 01-1.024-.497zm-1.917 1.106a9.063 9.063 0 002.003.86 8.77 8.77 0 002.061.349 7.585 7.585 0 001.984-.164 6.216 6.216 0 001.781-.687c.549-.317.948-.66 1.196-1.032.248-.371.345-.754.291-1.15-.054-.394-.255-.79-.604-1.19-.349-.398-.845-.784-1.489-1.156a9.2 9.2 0 00-2.011-.864 8.735 8.735 0 00-2.069-.353 7.746 7.746 0 00-1.998.163 6.182 6.182 0 00-1.796.686c-.549.317-.943.661-1.181 1.033-.238.372-.331.755-.277 1.15.054.395.258.793.612 1.195.354.401.853.788 1.497 1.16zm13.388-7.765c.333.192.628.393.885.605.258.21.446.423.564.637a.769.769 0 01.079.63c-.066.206-.257.4-.572.582a2.416 2.416 0 01-.989.31 4.415 4.415 0 01-1.118-.038 5.614 5.614 0 01-1.138-.307 7.235 7.235 0 01-1.03-.485 5.917 5.917 0 01-.871-.604 2.139 2.139 0 01-.535-.636.794.794 0 01-.057-.633c.071-.21.263-.404.578-.586a2.48 2.48 0 011.002-.326 4.088 4.088 0 011.075.036c.364.06.727.162 1.087.308.361.146.707.315 1.04.507zm3.051 1.73l1.029.594 1.823-1.052-11.131-6.426-1.917 1.107 4.053 2.34-.027.015a5.295 5.295 0 00-1.78-.007c-.576.1-1.071.268-1.485.507-.513.296-.847.623-1 .982a1.465 1.465 0 00-.037 1.093c.128.37.378.738.752 1.104.373.367.83.706 1.371 1.018.561.324 1.167.598 1.817.823.65.224 1.303.378 1.96.461.656.083 1.3.078 1.929-.016a4.845 4.845 0 001.728-.592c.459-.265.775-.559.947-.88.172-.322.153-.673-.059-1.055l.027-.016zm4.099-6.83l-3.118 1.8a2.992 2.992 0 01-.443-.356 1.132 1.132 0 01-.304-.473.738.738 0 01.041-.537c.083-.186.278-.367.584-.544.468-.27.962-.387 1.483-.352.52.036 1.106.19 1.757.462zm-1.715 2.61l5.035-2.907a9.655 9.655 0 00-1.928-.957 9.784 9.784 0 00-2.141-.527 7.93 7.93 0 00-2.155.01 5.406 5.406 0 00-1.95.667c-.531.307-.906.649-1.124 1.027a1.736 1.736 0 00-.231 1.169c.065.4.271.8.62 1.199.348.399.824.772 1.427 1.12.623.36 1.278.642 1.964.846a8.995 8.995 0 002.05.365 7.4 7.4 0 001.985-.148 6.102 6.102 0 001.789-.682c.792-.457 1.259-.967 1.402-1.529.142-.562-.135-1.2-.832-1.914l-1.687.974c.186.181.252.416.196.706-.055.29-.277.547-.664.77a3.178 3.178 0 01-1.725.438c-.61-.019-1.287-.228-2.031-.627z"></path><path fill="#BF534F" d="M293.245 300.547v-11.785H.251v11.785l146.497 84.58z"></path><path fill="#FF6D68" d="M292.994 288.762l-146.497-84.58L0 288.762l146.497 84.58z"></path><path d="M110.919 308.299l6.346-3.663a28.733 28.733 0 00-6.722-2.242 30.026 30.026 0 00-6.741-.59c-2.199.064-4.303.36-6.31.888-2.008.529-3.832 1.267-5.474 2.215-2.282 1.317-3.87 2.772-4.76 4.362-.891 1.591-1.143 3.221-.757 4.89.387 1.669 1.347 3.332 2.88 4.989 1.534 1.657 3.586 3.227 6.157 4.711a38.353 38.353 0 008.016 3.471 38.547 38.547 0 008.544 1.607c2.86.205 5.659.046 8.398-.478s5.249-1.444 7.531-2.762c1.837-1.061 3.2-2.218 4.088-3.473.888-1.255 1.292-2.564 1.211-3.928-.08-1.364-.64-2.748-1.679-4.152-1.04-1.403-2.553-2.775-4.539-4.114l-6.345 3.663c2.063 1.481 3.238 2.955 3.525 4.422.287 1.467-.572 2.779-2.576 3.936a12.551 12.551 0 01-4.745 1.599 18.6 18.6 0 01-5.132-.071 25.197 25.197 0 01-5.086-1.322 30.922 30.922 0 01-4.657-2.182c-1.51-.872-2.826-1.8-3.948-2.786-1.122-.985-1.917-1.982-2.386-2.992-.468-1.009-.517-2.002-.146-2.977.37-.975 1.294-1.888 2.769-2.739.807-.466 1.732-.824 2.775-1.074a15.276 15.276 0 013.26-.407 17.63 17.63 0 013.365.256c1.113.192 2.159.507 3.138.943zm22.108-6.084c-1.51-.872-2.827-1.801-3.948-2.786-1.122-.985-1.917-1.982-2.386-2.992-.469-1.01-.517-2.002-.146-2.977.371-.975 1.294-1.888 2.769-2.74a12.561 12.561 0 014.745-1.598 18.442 18.442 0 015.156.084c1.749.271 3.477.73 5.183 1.378a33.103 33.103 0 014.825 2.279c1.446.835 2.706 1.731 3.78 2.688 1.073.958 1.836 1.937 2.289 2.937.452 1 .493 1.988.122 2.963-.371.975-1.294 1.888-2.769 2.74a12.586 12.586 0 01-4.745 1.599c-1.689.214-3.4.19-5.132-.071a25.206 25.206 0 01-5.087-1.322 31.009 31.009 0 01-4.656-2.182zm-6.554 3.784a38.419 38.419 0 008.016 3.471 38.547 38.547 0 008.544 1.607c2.86.205 5.659.045 8.397-.478 2.739-.524 5.25-1.445 7.532-2.762 2.31-1.334 3.912-2.787 4.805-4.361.893-1.573 1.162-3.185.808-4.836-.355-1.651-1.282-3.295-2.784-4.933-1.501-1.638-3.505-3.181-6.012-4.628a39.644 39.644 0 00-8.16-3.554 39.524 39.524 0 00-8.641-1.663 32.518 32.518 0 00-8.449.425c-2.741.506-5.267 1.426-7.577 2.76-2.282 1.317-3.868 2.771-4.759 4.362-.891 1.59-1.144 3.22-.757 4.89.387 1.669 1.347 3.332 2.88 4.989 1.534 1.656 3.586 3.227 6.157 4.711zm39.171-23.951l-10.316-5.956 5.093-2.941a18.201 18.201 0 012.363-1.142 9.643 9.643 0 012.585-.629c.898-.092 1.845-.035 2.84.17.994.205 2.038.622 3.131 1.253 1.093.631 1.816 1.234 2.171 1.808.355.575.453 1.121.294 1.64-.16.518-.523 1.016-1.09 1.492-.567.476-1.227.931-1.978 1.364l-5.093 2.941zm-22.752-5.567l34.419 19.871 6.554-3.784-12.34-7.125 6.888-3.977c1.865-1.076 3.138-2.173 3.819-3.29.682-1.117.919-2.209.711-3.277-.207-1.068-.79-2.095-1.748-3.082-.958-.987-2.128-1.88-3.509-2.677a23.907 23.907 0 00-4.662-2.041 21.991 21.991 0 00-5.314-.995 21.405 21.405 0 00-5.676.411c-1.935.393-3.834 1.128-5.699 2.205l-13.443 7.761zm56.587-8.401l13.401 7.737 6.554-3.784-13.208-7.626-10.148-18.633-7.306 4.218 6.664 11.849-20.565-3.823-7.348 4.242z" fill="#933131"></path><path fill="#E0B03B" d="M293.245 195.075V183.29H.251v11.785l146.497 84.579z"></path><path fill="#FFC843" d="M292.994 183.29L146.497 98.71 0 183.29l146.497 84.58z"></path><path d="M107.15 198.005l-9.69-5.594 7.181-4.146c1.503-.867 3.008-1.3 4.514-1.298 1.507.002 3.096.486 4.767 1.451 1.735 1.002 2.613 1.942 2.633 2.821.02.879-.722 1.753-2.225 2.621l-7.18 4.145zM85.025 192.8l34.419 19.872 6.554-3.785-13.449-7.765 6.554-3.784c1.642-.948 3.243-1.389 4.802-1.325 1.559.065 3.35.552 5.372 1.463 1.549.701 3.121 1.464 4.715 2.288 1.593.824 3.118 1.447 4.572 1.868l6.554-3.784a11.214 11.214 0 01-2.448-.618 28.365 28.365 0 01-2.527-1.073 62.779 62.779 0 01-2.412-1.224c-.767-.411-1.438-.766-2.012-1.065a36.997 36.997 0 00-2.916-1.322 18.655 18.655 0 00-3.117-.956 15.274 15.274 0 00-3.174-.338 11.039 11.039 0 00-3.185.475l-.096-.056c.898-1.409.977-2.754.237-4.033-.741-1.279-2.124-2.503-4.149-3.672a18.216 18.216 0 00-4.293-1.78 20.663 20.663 0 00-4.766-.727 19.743 19.743 0 00-4.804.408c-1.57.331-3.022.882-4.358 1.653l-16.073 9.28zm76.844-19.651l-21.404-12.358-6.554 3.784 21.403 12.358c2.571 1.484 4.014 2.831 4.329 4.041.314 1.21-.697 2.49-3.035 3.84-1.336.771-2.618 1.26-3.845 1.468-1.227.207-2.408.24-3.545.098a12.208 12.208 0 01-3.263-.871 26.66 26.66 0 01-2.956-1.466l-21.403-12.357-6.555 3.784 21.404 12.357c4.692 2.709 9.269 4.074 13.731 4.096 4.462.021 8.711-1.133 12.747-3.463 3.98-2.298 5.964-4.752 5.953-7.361-.012-2.61-2.347-5.26-7.007-7.95zm-15.768-15.612l34.419 19.872 6.137-3.543-23.042-13.303.083-.049 35.441 6.145 6.555-3.784-34.419-19.872-6.137 3.544 23.091 13.331-.084.048-35.531-6.149zm16.578 75.836l8.059 4.653 1.917-1.107-4.224-2.439c-.821-.474-1.294-.882-1.418-1.224-.125-.342.074-.664.596-.965a2.118 2.118 0 011.449-.27c.508.085 1.094.319 1.759.703l4.552 2.628 1.917-1.106-4.957-2.862a11.28 11.28 0 00-1.479-.722 5.733 5.733 0 00-1.443-.373 4.643 4.643 0 00-1.446.061c-.49.097-.991.293-1.504.59-.405.233-.695.524-.869.87-.174.346-.148.725.076 1.135l-.04.024-1.122-.648-1.823 1.052zm18.139-2.841c-.306.177-.64.286-1.002.327-.361.04-.724.031-1.088-.029a5.311 5.311 0 01-1.102-.309 7.738 7.738 0 01-1.039-.498 6.606 6.606 0 01-.885-.605c-.258-.211-.441-.423-.55-.637a.838.838 0 01-.071-.633c.06-.209.248-.405.563-.587a2.46 2.46 0 011.003-.317 4.217 4.217 0 011.112.042c.379.063.754.167 1.124.313.37.147.716.313 1.039.499.322.186.612.384.87.596.257.211.438.422.541.632.103.21.122.418.056.625-.066.206-.256.4-.571.581zm-10.133-1.781l10.88 6.282 1.917-1.107-3.819-2.205.027-.016a5.799 5.799 0 001.794 0 4.405 4.405 0 001.499-.515c.513-.296.846-.62 1-.973.154-.353.167-.715.039-1.085s-.378-.735-.751-1.096a6.98 6.98 0 00-1.37-1.009c-.572-.33-1.183-.61-1.834-.84a9.02 9.02 0 00-1.96-.462 7.504 7.504 0 00-1.936.02 4.912 4.912 0 00-1.776.612c-.432.249-.729.535-.892.857-.163.321-.143.676.06 1.063l-.027.016-1.029-.594-1.822 1.052zm8.302-4.794l8.059 4.653 1.917-1.106-4.676-2.7c-.395-.228-.665-.442-.81-.64-.146-.198-.213-.375-.204-.53a.644.644 0 01.167-.403c.102-.112.198-.195.288-.247.306-.176.597-.276.874-.298.277-.022.548.005.813.08.265.075.519.178.762.307.243.13.484.264.723.402l4.52 2.61 1.917-1.107-4.489-2.592a6.696 6.696 0 01-.693-.455 1.727 1.727 0 01-.466-.487.612.612 0 01-.076-.496c.047-.165.205-.325.475-.481.27-.156.536-.249.797-.28a2.37 2.37 0 01.779.036c.258.055.515.147.772.274.257.128.521.27.791.426l4.567 2.637 1.917-1.107-5.393-3.114c-.52-.3-1.027-.52-1.522-.66a5.276 5.276 0 00-1.423-.214 4.586 4.586 0 00-1.309.18 5.34 5.34 0 00-1.182.502c-.486.281-.771.602-.857.963-.085.361-.054.703.092 1.027-.688-.179-1.313-.22-1.875-.124a4.508 4.508 0 00-1.504.527c-.459.265-.752.566-.879.903-.127.337-.108.699.055 1.084l-.027.016-1.091-.63-1.809 1.044zm16.654-11.055l-1.824-1.053-1.917 1.107 1.824 1.053 1.917-1.107zm-.67 1.827l8.059 4.653 1.917-1.107-8.059-4.653-1.917 1.107zm3.429-1.98l8.059 4.653 1.917-1.106-4.224-2.439c-.821-.474-1.294-.883-1.418-1.225-.125-.342.074-.663.596-.965a2.118 2.118 0 011.449-.27c.508.085 1.094.32 1.759.704l4.552 2.628 1.917-1.107-4.957-2.862a11.27 11.27 0 00-1.479-.721 5.733 5.733 0 00-1.443-.373 4.613 4.613 0 00-1.446.061 4.94 4.94 0 00-1.504.589c-.405.234-.695.524-.869.871-.174.346-.148.724.076 1.135l-.04.023-1.122-.648-1.823 1.052zm14.931-2.338l-1.823 1.052c.559.302 1.114.5 1.666.596a6.128 6.128 0 003.108-.256 7.854 7.854 0 001.329-.605 5.718 5.718 0 001.035-.751c.294-.271.48-.556.559-.853.079-.298.031-.603-.143-.917-.174-.313-.526-.623-1.056-.929a3.68 3.68 0 00-1.132-.436 4.61 4.61 0 00-1.139-.08c-.378.02-.752.077-1.121.17-.37.094-.73.2-1.082.319-.343.114-.676.228-.999.343-.324.115-.626.208-.906.28-.28.072-.546.108-.797.109-.25 0-.475-.056-.672-.17-.166-.096-.263-.193-.289-.292a.354.354 0 01.037-.282.856.856 0 01.243-.258 3.128 3.128 0 011.444-.6c.403-.058.831.028 1.284.258l1.822-1.052a5.477 5.477 0 00-1.57-.525 5.68 5.68 0 00-2.855.254 7.541 7.541 0 00-1.225.563 5.862 5.862 0 00-.99.707c-.282.252-.471.517-.566.795-.096.277-.066.562.092.856.157.293.495.59 1.015.89.353.204.715.34 1.085.408.37.068.739.089 1.107.063a5.953 5.953 0 001.099-.185c.364-.096.722-.204 1.074-.323.85-.299 1.55-.51 2.098-.635.549-.125.99-.091 1.322.101.198.114.321.231.37.353.049.122.051.24.008.356a.913.913 0 01-.234.332 1.932 1.932 0 01-.37.277 3.047 3.047 0 01-1.332.4 2.97 2.97 0 01-.752-.052 2.369 2.369 0 01-.744-.281zm2.754-7.872l-2.416-1.395-1.917 1.107 2.416 1.395-1.161.67 1.481.855 1.161-.67 4.754 2.745c.406.234.792.389 1.158.465a3.28 3.28 0 001.056.057c.338-.039.663-.122.975-.248a7.21 7.21 0 00.914-.447c.189-.109.377-.224.565-.344a4.27 4.27 0 00.477-.348l-1.714-.99c-.07.064-.149.128-.237.191a3.688 3.688 0 01-.295.188c-.324.187-.602.276-.835.266-.233-.009-.536-.122-.91-.338l-3.991-2.304 1.404-.811-1.481-.855-1.404.811zm4.72.137c-.493-.316-.812-.629-.957-.942a1.204 1.204 0 01-.07-.913c.098-.297.294-.581.589-.853.294-.272.634-.52 1.021-.743.351-.203.735-.391 1.153-.566.417-.175.857-.3 1.32-.376a4.943 4.943 0 011.423-.02c.485.062.972.234 1.46.516l4.194 2.421c.363.21.73.4 1.098.572.369.171.681.278.937.322l-1.944 1.123a6.35 6.35 0 01-.914-.372c.058.386-.048.741-.316 1.064a3.85 3.85 0 01-1.051.859c-.333.192-.69.344-1.072.457a4.607 4.607 0 01-1.192.184 4.752 4.752 0 01-1.255-.139 4.818 4.818 0 01-1.258-.516c-.457-.264-.764-.522-.921-.774-.156-.251-.213-.492-.169-.721.044-.229.164-.451.359-.666.195-.214.41-.42.646-.616.237-.197.478-.384.726-.563.248-.179.449-.349.602-.51.154-.161.234-.312.241-.454.006-.141-.109-.276-.347-.402a2.25 2.25 0 00-.67-.27 1.941 1.941 0 00-1.145.102 4.206 4.206 0 00-.518.255c-.378.218-.582.443-.611.676-.029.233.157.485.558.758l-1.917 1.107zm6.064-1.611a.452.452 0 01-.108.287 2.307 2.307 0 01-.275.294 5.315 5.315 0 01-.361.298 7.894 7.894 0 00-.381.31 2.476 2.476 0 00-.3.318.68.68 0 00-.154.332.492.492 0 00.085.337c.072.115.212.232.42.352a1.992 1.992 0 001.169.27c.186-.018.367-.059.542-.124.175-.065.339-.142.492-.23.378-.218.598-.429.659-.633a.674.674 0 00-.063-.566 1.533 1.533 0 00-.433-.461 6.102 6.102 0 00-.465-.307l-.827-.477zm-3.73-6.145l11.13 6.426 1.917-1.107-11.13-6.426zm3.483-2.011l11.13 6.426 1.917-1.106-11.13-6.426z" fill="#A58234"></path><path fill="#00AE75" d="M292.994 96.365V84.58H0v11.785l146.497 84.58z"></path><path fill="#6FC173" d="M292.994 84.58L146.497 0 0 84.58l146.497 84.58z"></path><path d="M110.886 94.794l6.346-3.664a28.718 28.718 0 00-6.722-2.242 29.963 29.963 0 00-6.74-.589c-2.2.063-4.303.359-6.31.888-2.008.528-3.833 1.266-5.475 2.214-2.282 1.318-3.869 2.772-4.76 4.362-.89 1.591-1.143 3.221-.756 4.89.386 1.669 1.346 3.332 2.88 4.989 1.533 1.657 3.585 3.227 6.156 4.711a38.35 38.35 0 008.016 3.471 38.615 38.615 0 008.545 1.608c2.859.204 5.658.045 8.397-.479s5.249-1.444 7.532-2.762c1.836-1.06 3.199-2.218 4.087-3.473.888-1.255 1.292-2.564 1.212-3.928-.08-1.364-.64-2.748-1.68-4.151-1.039-1.404-2.552-2.776-4.539-4.115l-6.345 3.663c2.063 1.481 3.238 2.955 3.525 4.422.287 1.467-.571 2.779-2.575 3.936a12.55 12.55 0 01-4.746 1.599 18.6 18.6 0 01-5.132-.071 25.26 25.26 0 01-5.086-1.321 31.012 31.012 0 01-4.656-2.183c-1.511-.872-2.827-1.8-3.949-2.785-1.122-.986-1.917-1.983-2.385-2.993-.469-1.009-.518-2.002-.147-2.977.371-.974 1.294-1.888 2.77-2.739.806-.466 1.731-.824 2.774-1.074a15.286 15.286 0 013.261-.407c1.13-.022 2.252.063 3.365.256 1.113.192 2.158.507 3.137.944zm-.506-13.067l34.419 19.871 6.137-3.543-24.151-13.943.083-.048 31.457 9.725 5.051-2.916-17.086-18.301.084-.048 24.392 14.083 6.137-3.544-34.419-19.871-9.226 5.326 17.073 17.474-.084.048-30.641-9.64zm72.475-9.448l-21.693-12.524 4.676-2.699c1.614-.932 3.236-1.563 4.866-1.891a15.803 15.803 0 014.941-.209c1.664.19 3.341.604 5.031 1.242a35.224 35.224 0 015.139 2.461c1.896 1.094 3.294 2.143 4.194 3.144.9 1.002 1.412 1.94 1.536 2.815.123.875-.083 1.672-.62 2.39-.538.718-1.279 1.351-2.225 1.897l-5.845 3.374zm-34.61-12.413l34.419 19.871 12.858-7.423c2.282-1.318 3.823-2.718 4.623-4.2.8-1.483.993-2.995.577-4.536-.415-1.541-1.405-3.085-2.97-4.631-1.564-1.546-3.6-3.043-6.106-4.49-2.86-1.651-5.692-2.892-8.495-3.723-2.803-.831-5.517-1.305-8.141-1.423-2.625-.117-5.119.098-7.482.646-2.363.548-4.505 1.376-6.425 2.485l-12.858 7.424zm22.659 71.718l8.059 4.653 1.917-1.107-4.224-2.439c-.821-.474-1.294-.882-1.419-1.224-.124-.342.075-.664.597-.965a2.118 2.118 0 011.449-.27c.508.085 1.094.319 1.759.703l4.552 2.628 1.917-1.106-4.957-2.862a11.28 11.28 0 00-1.479-.722 5.776 5.776 0 00-1.443-.373 4.644 4.644 0 00-1.446.062c-.49.096-.991.293-1.504.589-.405.234-.695.524-.869.87-.174.347-.148.725.076 1.135l-.04.024-1.123-.648-1.822 1.052zm18.139-2.84c-.306.176-.64.285-1.002.326-.361.04-.724.031-1.088-.029a5.25 5.25 0 01-1.102-.309 7.738 7.738 0 01-1.039-.498 6.452 6.452 0 01-.885-.605c-.258-.211-.441-.423-.55-.636a.841.841 0 01-.071-.634c.06-.209.248-.405.563-.587a2.46 2.46 0 011.003-.317 4.262 4.262 0 011.112.042c.379.063.754.167 1.124.314.37.146.716.312 1.039.498.322.186.612.385.869.596.258.211.439.422.542.632.103.21.122.419.056.625-.066.206-.256.4-.571.582zm-10.134-1.782l10.881 6.282 1.917-1.107-3.819-2.205.027-.015a5.829 5.829 0 001.794-.001 4.405 4.405 0 001.499-.515c.513-.296.846-.62 1-.973.154-.353.167-.714.039-1.084-.128-.371-.378-.736-.751-1.097a7.02 7.02 0 00-1.37-1.009c-.572-.33-1.183-.61-1.834-.84a9.093 9.093 0 00-1.96-.462 7.504 7.504 0 00-1.936.02 4.912 4.912 0 00-1.776.612c-.432.249-.73.535-.892.857-.163.322-.143.676.06 1.063l-.027.016-1.029-.594-1.823 1.052zm8.303-4.793l8.059 4.653 1.917-1.107-4.676-2.7c-.395-.228-.665-.441-.81-.64-.146-.198-.214-.375-.204-.53a.64.64 0 01.167-.402 1.25 1.25 0 01.288-.248c.306-.176.597-.275.874-.297.277-.022.548.004.813.079.265.075.519.178.762.307.243.13.484.264.723.402l4.52 2.61 1.917-1.107-4.489-2.592a6.859 6.859 0 01-.693-.454 1.754 1.754 0 01-.466-.487.614.614 0 01-.076-.497c.047-.165.205-.325.475-.481.27-.156.536-.249.797-.28a2.37 2.37 0 01.779.036c.258.055.515.147.772.274.257.128.521.27.791.426l4.567 2.637 1.917-1.107-5.393-3.114c-.52-.3-1.027-.52-1.522-.66a5.276 5.276 0 00-1.423-.214 4.586 4.586 0 00-1.309.18 5.34 5.34 0 00-1.182.502c-.486.281-.771.602-.857.963-.085.361-.054.704.092 1.027-.688-.179-1.313-.22-1.875-.124a4.508 4.508 0 00-1.504.527c-.459.265-.752.566-.879.903-.127.338-.109.699.055 1.085l-.027.015-1.091-.63-1.809 1.045zm22.855-6.914l-1.822 1.052c.558.302 1.114.5 1.666.596a6.12 6.12 0 003.108-.256 7.88 7.88 0 001.328-.605 5.764 5.764 0 001.035-.75c.294-.272.481-.557.56-.854.078-.298.031-.603-.143-.917-.174-.313-.526-.623-1.056-.929a3.695 3.695 0 00-1.133-.436 4.602 4.602 0 00-1.138-.08 5.84 5.84 0 00-1.122.17c-.369.094-.73.2-1.082.319-.343.114-.676.228-.999.343-.323.115-.625.208-.906.28-.28.072-.546.108-.796.109a1.313 1.313 0 01-.673-.17c-.166-.096-.262-.193-.289-.292a.358.358 0 01.037-.282.882.882 0 01.243-.258 3.121 3.121 0 011.445-.6c.402-.058.83.028 1.283.258l1.823-1.052a5.488 5.488 0 00-1.57-.525 5.771 5.771 0 00-1.483-.053c-.476.047-.934.15-1.372.307a7.502 7.502 0 00-1.225.563 5.862 5.862 0 00-.99.707c-.282.252-.471.518-.567.795-.096.277-.065.562.092.856.157.293.495.59 1.015.89.353.204.715.34 1.085.408a4.4 4.4 0 001.108.063 5.943 5.943 0 001.098-.185c.364-.096.722-.203 1.074-.323.85-.298 1.55-.51 2.099-.635.549-.125.989-.091 1.322.101.197.114.32.231.369.353.049.122.052.24.008.356a.898.898 0 01-.233.332 1.938 1.938 0 01-.371.277 3.024 3.024 0 01-1.332.4 2.973 2.973 0 01-.752-.052 2.369 2.369 0 01-.744-.281zm2.754-7.872l-2.416-1.395-1.917 1.107 2.416 1.395-1.161.67 1.481.855 1.161-.67 4.755 2.745c.405.234.791.389 1.157.465.367.077.719.096 1.056.057.338-.039.663-.122.975-.248.313-.126.617-.275.914-.447.189-.109.377-.224.565-.344a4.29 4.29 0 00.478-.348l-1.715-.99a2.316 2.316 0 01-.237.191 3.517 3.517 0 01-.295.188c-.324.187-.602.276-.835.266-.232-.009-.536-.122-.91-.338l-3.991-2.304 1.404-.811-1.481-.855-1.404.811zm4.72.137c-.493-.316-.811-.629-.956-.942-.145-.312-.169-.617-.07-.913.098-.297.294-.581.588-.853a5.704 5.704 0 011.022-.743c.351-.203.735-.391 1.152-.566.417-.175.857-.3 1.321-.376a4.935 4.935 0 011.422-.02 3.91 3.91 0 011.461.516l4.193 2.421c.364.21.73.4 1.099.572.368.171.68.278.937.323l-1.944 1.122a6.214 6.214 0 01-.915-.372c.058.386-.047.741-.316 1.064-.268.323-.619.61-1.051.859-.333.192-.69.345-1.071.457a4.615 4.615 0 01-1.193.184 4.75 4.75 0 01-1.254-.139 4.804 4.804 0 01-1.258-.516c-.457-.264-.764-.522-.921-.774-.157-.251-.213-.491-.169-.721.043-.229.163-.451.358-.666.195-.214.411-.42.647-.616.236-.196.478-.384.726-.563.247-.179.448-.349.602-.51.154-.161.234-.312.24-.454.007-.141-.109-.276-.347-.402a2.25 2.25 0 00-.67-.27 1.968 1.968 0 00-1.145.102 4.206 4.206 0 00-.518.255c-.378.218-.581.443-.61.676-.029.233.157.486.557.758l-1.917 1.107zm6.065-1.611a.454.454 0 01-.109.287 2.237 2.237 0 01-.275.294 5.007 5.007 0 01-.36.298c-.133.101-.26.204-.381.31a2.557 2.557 0 00-.301.318.68.68 0 00-.154.332.496.496 0 00.085.337c.072.115.212.232.42.352a1.997 1.997 0 001.17.27c.186-.017.366-.059.541-.124.175-.065.34-.142.493-.23.378-.218.597-.429.659-.633a.682.682 0 00-.063-.566 1.55 1.55 0 00-.434-.461 5.728 5.728 0 00-.465-.307l-.826-.477zm-.714-4.341l8.06 4.653 1.917-1.106-3.632-2.097a5.91 5.91 0 01-.919-.64c-.249-.216-.416-.435-.501-.656a.783.783 0 01.034-.658c.107-.218.337-.429.688-.632a5.357 5.357 0 01.766-.352l-2.057-1.188a2.201 2.201 0 00-.497.197c-.243.14-.435.299-.577.477a1.439 1.439 0 00-.284.569c-.047.201-.041.407.019.619.06.211.17.415.329.611l-.027.015-1.496-.864-1.823 1.052zm7.682-4.434l-2.416-1.395-1.917 1.106 2.416 1.395-1.161.671 1.481.855 1.161-.671 4.754 2.745c.406.234.792.39 1.158.466.366.076.718.095 1.056.056.338-.039.663-.121.975-.247.312-.127.617-.276.914-.447.189-.109.377-.224.565-.344.187-.121.346-.237.477-.348l-1.714-.99c-.07.064-.149.127-.237.191a3.688 3.688 0 01-.295.188c-.324.187-.602.276-.835.266-.233-.01-.536-.122-.91-.338l-3.991-2.304 1.404-.811-1.481-.855-1.404.811z" fill="#006A46"></path></g><g transform="translate(420.000000, 274.000000)"><path fill="#005FAD" d="M292.994 131.655V119.87H0v11.785l146.497 84.58z"></path><path fill="#0071CE" d="M292.994 119.87L146.497 35.29 0 119.87l146.497 84.58z"></path><path fill="#2D536D" d="M66.692 142.24l34.418 19.872 6.555-3.784-14.221-8.21 12.482-7.207-5.881-3.396-12.482 7.207-7.954-4.592 14.403-8.315-6.363-3.674zm46.88-9.087l-9.689-5.594 7.181-4.146c1.503-.868 3.007-1.3 4.514-1.298 1.507.002 3.096.485 4.767 1.45 1.735 1.002 2.613 1.943 2.633 2.822.019.879-.722 1.752-2.225 2.62l-7.181 4.146zm-22.124-5.206l34.419 19.872 6.554-3.784-13.45-7.765 6.555-3.784c1.642-.948 3.242-1.39 4.802-1.325 1.559.064 3.35.552 5.372 1.462a101.57 101.57 0 014.714 2.288c1.594.824 3.118 1.447 4.573 1.869l6.554-3.784a11.329 11.329 0 01-2.448-.618 28.692 28.692 0 01-2.528-1.074 63.46 63.46 0 01-2.411-1.224c-.767-.41-1.438-.765-2.012-1.065a37.74 37.74 0 00-2.916-1.322 18.749 18.749 0 00-3.117-.956 15.342 15.342 0 00-3.174-.338 11.073 11.073 0 00-3.185.475l-.097-.055c.899-1.41.978-2.754.237-4.034-.741-1.279-2.123-2.503-4.148-3.672a18.207 18.207 0 00-4.293-1.779 20.664 20.664 0 00-4.766-.728 19.738 19.738 0 00-4.804.408c-1.57.331-3.023.883-4.359 1.654l-16.072 9.279zm52.755-10.419c-1.51-.872-2.826-1.801-3.948-2.786-1.122-.985-1.917-1.983-2.386-2.992-.468-1.01-.517-2.002-.146-2.977.371-.975 1.294-1.888 2.769-2.74a12.55 12.55 0 014.746-1.599 18.405 18.405 0 015.156.085c1.749.27 3.476.729 5.182 1.377a33.161 33.161 0 014.825 2.28c1.447.835 2.706 1.731 3.78 2.688 1.074.957 1.837 1.936 2.289 2.937.453 1 .494 1.988.123 2.963-.371.974-1.294 1.888-2.769 2.739a12.556 12.556 0 01-4.746 1.599 18.561 18.561 0 01-5.132-.071 25.194 25.194 0 01-5.086-1.321 31.067 31.067 0 01-4.657-2.182zm-6.554 3.784a38.464 38.464 0 008.016 3.471 38.66 38.66 0 008.545 1.607c2.859.204 5.658.045 8.397-.479 2.739-.523 5.249-1.444 7.531-2.762 2.311-1.333 3.912-2.787 4.805-4.36.893-1.573 1.163-3.185.808-4.836-.354-1.651-1.282-3.295-2.783-4.934-1.502-1.638-3.506-3.18-6.012-4.627a39.578 39.578 0 00-8.161-3.555 39.56 39.56 0 00-8.641-1.663 32.564 32.564 0 00-8.449.425c-2.741.506-5.266 1.426-7.576 2.76-2.282 1.318-3.869 2.772-4.76 4.362-.891 1.591-1.143 3.221-.756 4.89.386 1.67 1.346 3.333 2.88 4.989 1.533 1.657 3.585 3.227 6.156 4.712zm16.42-29.519l34.418 19.872 6.137-3.543-24.151-13.944.084-.048 31.457 9.726 5.051-2.917-17.086-18.301.083-.048 24.392 14.083 6.137-3.543-34.419-19.872-9.226 5.327 17.073 17.473-.083.049-30.641-9.641zm31.705 66.496l8.06 4.653 1.917-1.107-4.225-2.44c-.821-.473-1.294-.881-1.418-1.223-.125-.342.074-.664.596-.965a2.118 2.118 0 011.449-.27c.508.085 1.094.32 1.759.703l4.552 2.628 1.917-1.107-4.957-2.862a11.247 11.247 0 00-1.479-.72 5.733 5.733 0 00-1.443-.374 4.627 4.627 0 00-1.446.061c-.49.097-.991.293-1.504.59-.405.233-.694.524-.868.87-.174.346-.149.725.076 1.135l-.041.023-1.122-.648-1.823 1.053zm13.744-3.273a6.513 6.513 0 01-.87-.596c-.258-.211-.441-.424-.549-.637a.824.824 0 01-.065-.638c.065-.211.26-.41.584-.598.324-.187.672-.3 1.043-.34a3.98 3.98 0 011.111.033c.369.062.737.168 1.103.317s.71.316 1.032.502c.322.186.609.383.862.591.252.209.435.42.549.637.114.217.133.43.058.642-.075.211-.274.41-.598.597a2.633 2.633 0 01-1.028.342c-.362.04-.73.028-1.105-.037a5.44 5.44 0 01-1.103-.318 8.198 8.198 0 01-1.024-.497zm-1.917 1.106a9.063 9.063 0 002.003.86 8.77 8.77 0 002.061.349 7.585 7.585 0 001.984-.164 6.216 6.216 0 001.781-.687c.549-.317.948-.66 1.196-1.032.248-.371.345-.754.291-1.15-.054-.394-.255-.79-.604-1.19-.349-.398-.845-.784-1.489-1.156a9.2 9.2 0 00-2.011-.864 8.735 8.735 0 00-2.069-.353 7.746 7.746 0 00-1.998.163 6.182 6.182 0 00-1.796.686c-.549.317-.943.661-1.181 1.033-.238.372-.331.755-.277 1.15.054.395.258.793.612 1.195.354.401.853.788 1.497 1.16zm13.388-7.765c.333.192.628.393.885.605.258.21.446.423.564.637a.769.769 0 01.079.63c-.066.206-.257.4-.572.582a2.416 2.416 0 01-.989.31 4.415 4.415 0 01-1.118-.038 5.614 5.614 0 01-1.138-.306 7.235 7.235 0 01-1.03-.486 5.917 5.917 0 01-.871-.604 2.139 2.139 0 01-.535-.636.794.794 0 01-.057-.633c.071-.21.263-.404.578-.586a2.48 2.48 0 011.002-.326 4.088 4.088 0 011.075.036c.364.06.727.162 1.087.308.361.146.707.315 1.04.507zm3.051 1.73l1.029.594 1.823-1.052-11.131-6.426-1.917 1.107 4.053 2.34-.027.015a5.295 5.295 0 00-1.78-.007c-.576.1-1.071.268-1.485.507-.513.296-.847.624-1 .982a1.465 1.465 0 00-.037 1.093c.128.37.378.738.752 1.104.373.367.83.706 1.371 1.018.561.324 1.167.598 1.817.823a9.69 9.69 0 001.96.461c.656.083 1.3.078 1.929-.016a4.845 4.845 0 001.728-.592c.459-.265.775-.559.947-.88.172-.321.153-.673-.059-1.055l.027-.016zm4.099-6.83l-3.118 1.8a2.992 2.992 0 01-.443-.356 1.132 1.132 0 01-.304-.473.738.738 0 01.041-.537c.083-.186.278-.367.584-.544.468-.27.962-.387 1.483-.352.52.036 1.106.19 1.757.462zm-1.715 2.61l5.035-2.907a9.655 9.655 0 00-1.928-.957 9.784 9.784 0 00-2.141-.527 7.93 7.93 0 00-2.155.01 5.406 5.406 0 00-1.95.667c-.531.307-.906.649-1.124 1.027a1.736 1.736 0 00-.231 1.169c.065.4.271.8.62 1.199.348.399.824.772 1.427 1.12.623.36 1.278.642 1.964.846a8.995 8.995 0 002.05.365 7.4 7.4 0 001.985-.148 6.102 6.102 0 001.789-.682c.792-.457 1.259-.967 1.402-1.529.142-.562-.135-1.2-.832-1.914l-1.687.974c.186.181.252.416.196.706-.055.29-.277.547-.664.77a3.178 3.178 0 01-1.725.438c-.61-.019-1.287-.228-2.031-.627z"></path><g transform="translate(0.000000, 23.000000)"><path fill="#BF534F" d="M293.245 96.365V84.58H.251v11.785l146.497 84.58z"></path><path fill="#FF6D68" d="M292.994 84.58L146.497 0 0 84.58l146.497 84.58z"></path><path d="M110.919 104.117l6.346-3.663a28.733 28.733 0 00-6.722-2.242 30.026 30.026 0 00-6.741-.59c-2.199.064-4.303.36-6.31.888-2.008.529-3.832 1.267-5.474 2.215-2.282 1.317-3.87 2.772-4.76 4.362-.891 1.591-1.143 3.221-.757 4.89.387 1.669 1.347 3.332 2.88 4.989 1.534 1.657 3.586 3.227 6.157 4.711a38.353 38.353 0 008.016 3.471 38.547 38.547 0 008.544 1.607c2.86.205 5.659.046 8.398-.478s5.249-1.444 7.531-2.762c1.837-1.061 3.2-2.218 4.088-3.473.888-1.255 1.292-2.564 1.211-3.928-.08-1.364-.64-2.748-1.679-4.152-1.04-1.403-2.553-2.775-4.539-4.114l-6.345 3.663c2.063 1.481 3.238 2.955 3.525 4.422.287 1.467-.572 2.779-2.576 3.936a12.551 12.551 0 01-4.745 1.599 18.6 18.6 0 01-5.132-.071 25.197 25.197 0 01-5.086-1.322 30.922 30.922 0 01-4.657-2.182c-1.51-.872-2.826-1.8-3.948-2.786-1.122-.985-1.917-1.982-2.386-2.992-.468-1.009-.517-2.002-.146-2.977.37-.975 1.294-1.888 2.769-2.739.807-.466 1.732-.824 2.775-1.074a15.276 15.276 0 013.26-.407 17.63 17.63 0 013.365.256c1.113.192 2.159.507 3.138.943zm22.108-6.084c-1.51-.872-2.827-1.801-3.948-2.786-1.122-.985-1.917-1.982-2.386-2.992-.469-1.01-.517-2.002-.146-2.977.371-.975 1.294-1.888 2.769-2.74a12.561 12.561 0 014.745-1.598 18.442 18.442 0 015.156.084c1.749.271 3.477.73 5.183 1.378a33.103 33.103 0 014.825 2.279c1.446.835 2.706 1.731 3.78 2.688 1.073.958 1.836 1.937 2.289 2.937.452 1 .493 1.988.122 2.963-.371.975-1.294 1.888-2.769 2.74a12.586 12.586 0 01-4.745 1.599c-1.689.214-3.4.19-5.132-.071a25.206 25.206 0 01-5.087-1.322 31.009 31.009 0 01-4.656-2.182zm-6.554 3.784a38.419 38.419 0 008.016 3.471 38.547 38.547 0 008.544 1.607c2.86.205 5.659.045 8.397-.478 2.739-.524 5.25-1.445 7.532-2.762 2.31-1.334 3.912-2.787 4.805-4.361.893-1.573 1.162-3.185.808-4.836-.355-1.651-1.282-3.295-2.784-4.933-1.501-1.638-3.505-3.181-6.012-4.628a39.644 39.644 0 00-8.16-3.554 39.524 39.524 0 00-8.641-1.663 32.518 32.518 0 00-8.449.425c-2.741.506-5.267 1.426-7.577 2.76-2.282 1.317-3.868 2.771-4.759 4.362-.891 1.59-1.144 3.22-.757 4.89.387 1.669 1.347 3.332 2.88 4.989 1.534 1.656 3.586 3.227 6.157 4.711zm39.171-23.951l-10.316-5.956 5.093-2.941a18.201 18.201 0 012.363-1.142 9.643 9.643 0 012.585-.629c.898-.092 1.845-.035 2.84.17.994.205 2.038.622 3.131 1.253 1.093.631 1.816 1.234 2.171 1.808.355.575.453 1.121.294 1.64-.16.518-.523 1.016-1.09 1.492-.567.476-1.227.931-1.978 1.364l-5.093 2.941zm-22.752-5.567l34.419 19.871 6.554-3.784-12.34-7.125 6.888-3.977c1.865-1.076 3.138-2.173 3.819-3.29.682-1.117.919-2.209.711-3.277-.207-1.068-.79-2.095-1.748-3.082-.958-.987-2.128-1.88-3.509-2.677a23.907 23.907 0 00-4.662-2.041 21.991 21.991 0 00-5.314-.995 21.405 21.405 0 00-5.676.411c-1.935.393-3.834 1.128-5.699 2.205l-13.443 7.761zm56.587-8.401l13.401 7.737 6.554-3.784-13.208-7.626-10.148-18.633-7.306 4.218 6.664 11.849-20.565-3.823-7.348 4.242z" fill="#933131"></path></g><g transform="translate(0.000000, 12.000000)"><path fill="#E0B03B" d="M293.245 96.365V84.58H.251v11.785l146.497 84.579z"></path><path fill="#FFC843" d="M292.994 84.58L146.497 0 0 84.58l146.497 84.58z"></path><path d="M107.15 99.295l-9.69-5.594 7.181-4.146c1.503-.867 3.008-1.3 4.514-1.298 1.507.002 3.096.486 4.767 1.451 1.735 1.002 2.613 1.942 2.633 2.821.02.879-.722 1.753-2.225 2.621l-7.18 4.145zM85.025 94.09l34.419 19.872 6.554-3.785-13.449-7.765 6.554-3.784c1.642-.948 3.243-1.389 4.802-1.325 1.559.065 3.35.552 5.372 1.463 1.549.701 3.121 1.464 4.715 2.288 1.593.824 3.118 1.447 4.572 1.868l6.554-3.784a11.214 11.214 0 01-2.448-.618 28.365 28.365 0 01-2.527-1.073 62.779 62.779 0 01-2.412-1.224c-.767-.411-1.438-.766-2.012-1.065a36.997 36.997 0 00-2.916-1.322 18.655 18.655 0 00-3.117-.956 15.274 15.274 0 00-3.174-.338 11.039 11.039 0 00-3.185.475l-.096-.056c.898-1.409.977-2.754.237-4.033-.741-1.279-2.124-2.503-4.149-3.672a18.216 18.216 0 00-4.293-1.78 20.663 20.663 0 00-4.766-.727 19.743 19.743 0 00-4.804.408c-1.57.331-3.022.882-4.358 1.653l-16.073 9.28zm76.844-19.651l-21.404-12.358-6.554 3.784 21.403 12.358c2.571 1.484 4.014 2.831 4.329 4.041.314 1.21-.697 2.49-3.035 3.84-1.336.771-2.618 1.26-3.845 1.468-1.227.207-2.408.24-3.545.098a12.208 12.208 0 01-3.263-.871 26.66 26.66 0 01-2.956-1.466l-21.403-12.357-6.555 3.784 21.404 12.357c4.692 2.709 9.269 4.074 13.731 4.096 4.462.021 8.711-1.133 12.747-3.463 3.98-2.298 5.964-4.752 5.953-7.361-.012-2.61-2.347-5.26-7.007-7.95zm-15.768-15.612l34.419 19.872 6.137-3.543-23.042-13.303.083-.049 35.441 6.145 6.555-3.784-34.419-19.872-6.137 3.544 23.091 13.331-.084.048-35.531-6.149zm16.578 75.836l8.059 4.653 1.917-1.107-4.224-2.439c-.821-.474-1.294-.882-1.418-1.224-.125-.342.074-.664.596-.965a2.118 2.118 0 011.449-.27c.508.085 1.094.319 1.759.703l4.552 2.628 1.917-1.106-4.957-2.862a11.28 11.28 0 00-1.479-.722 5.733 5.733 0 00-1.443-.373 4.643 4.643 0 00-1.446.061c-.49.097-.991.293-1.504.59-.405.233-.695.524-.869.87-.174.346-.148.725.076 1.135l-.04.024-1.122-.648-1.823 1.052zm18.139-2.841c-.306.177-.64.286-1.002.327-.361.04-.724.031-1.088-.029a5.311 5.311 0 01-1.102-.309 7.738 7.738 0 01-1.039-.498 6.606 6.606 0 01-.885-.605c-.258-.211-.441-.423-.55-.637a.838.838 0 01-.071-.633c.06-.209.248-.405.563-.587a2.46 2.46 0 011.003-.317 4.217 4.217 0 011.112.042c.379.063.754.167 1.124.313.37.147.716.313 1.039.499.322.186.612.384.87.596.257.211.438.422.541.632.103.21.122.418.056.625-.066.206-.256.4-.571.581zm-10.133-1.781l10.88 6.282 1.917-1.107-3.819-2.205.027-.016a5.799 5.799 0 001.794 0 4.405 4.405 0 001.499-.515c.513-.296.846-.62 1-.973.154-.353.167-.715.039-1.085s-.378-.735-.751-1.096a6.98 6.98 0 00-1.37-1.009c-.572-.33-1.183-.61-1.834-.84a9.02 9.02 0 00-1.96-.462 7.504 7.504 0 00-1.936.02 4.912 4.912 0 00-1.776.612c-.432.249-.729.535-.892.857-.163.321-.143.676.06 1.063l-.027.016-1.029-.594-1.822 1.052zm8.302-4.794l8.059 4.653 1.917-1.106-4.676-2.7c-.395-.228-.665-.442-.81-.64-.146-.198-.213-.375-.204-.53a.644.644 0 01.167-.403c.102-.112.198-.195.288-.247.306-.176.597-.276.874-.298.277-.022.548.005.813.08.265.075.519.178.762.307.243.13.484.264.723.402l4.52 2.61 1.917-1.107-4.489-2.592a6.696 6.696 0 01-.693-.455 1.727 1.727 0 01-.466-.487.612.612 0 01-.076-.496c.047-.165.205-.325.475-.481.27-.156.536-.249.797-.28a2.37 2.37 0 01.779.036c.258.055.515.147.772.274.257.128.521.27.791.426l4.567 2.637 1.917-1.107-5.393-3.114c-.52-.3-1.027-.52-1.522-.66a5.276 5.276 0 00-1.423-.214 4.586 4.586 0 00-1.309.18 5.34 5.34 0 00-1.182.502c-.486.281-.771.602-.857.963-.085.361-.054.703.092 1.027-.688-.179-1.313-.22-1.875-.124a4.508 4.508 0 00-1.504.527c-.459.265-.752.566-.879.903-.127.337-.108.699.055 1.084l-.027.016-1.091-.63-1.809 1.044zm16.654-11.055l-1.824-1.053-1.917 1.107 1.824 1.053 1.917-1.107zm-.67 1.827l8.059 4.653 1.917-1.107-8.059-4.653-1.917 1.107zm3.429-1.98l8.059 4.653 1.917-1.106-4.224-2.439c-.821-.474-1.294-.883-1.418-1.225-.125-.342.074-.663.596-.965a2.118 2.118 0 011.449-.27c.508.085 1.094.32 1.759.704l4.552 2.628 1.917-1.107-4.957-2.862a11.27 11.27 0 00-1.479-.721 5.733 5.733 0 00-1.443-.373 4.613 4.613 0 00-1.446.061 4.94 4.94 0 00-1.504.589c-.405.234-.695.524-.869.871-.174.346-.148.724.076 1.135l-.04.023-1.122-.648-1.823 1.052zm14.931-2.338l-1.823 1.052c.559.302 1.114.5 1.666.596a6.128 6.128 0 003.108-.256 7.854 7.854 0 001.329-.605 5.718 5.718 0 001.035-.751c.294-.271.48-.556.559-.853.079-.298.031-.603-.143-.917-.174-.313-.526-.623-1.056-.929a3.68 3.68 0 00-1.132-.436 4.61 4.61 0 00-1.139-.08c-.378.02-.752.077-1.121.17-.37.094-.73.2-1.082.319-.343.114-.676.228-.999.343-.324.115-.626.208-.906.28-.28.072-.546.108-.797.109-.25 0-.475-.056-.672-.17-.166-.096-.263-.193-.289-.292a.354.354 0 01.037-.282.856.856 0 01.243-.258 3.128 3.128 0 011.444-.6c.403-.058.831.028 1.284.258l1.822-1.052a5.477 5.477 0 00-1.57-.525 5.68 5.68 0 00-2.855.254 7.541 7.541 0 00-1.225.563 5.862 5.862 0 00-.99.707c-.282.252-.471.517-.566.795-.096.277-.066.562.092.856.157.293.495.59 1.015.89.353.204.715.34 1.085.408.37.068.739.089 1.107.063a5.953 5.953 0 001.099-.185c.364-.096.722-.204 1.074-.323.85-.299 1.55-.51 2.098-.635.549-.125.99-.091 1.322.101.198.114.321.231.37.353.049.122.051.24.008.356a.913.913 0 01-.234.332 1.932 1.932 0 01-.37.277 3.047 3.047 0 01-1.332.4 2.97 2.97 0 01-.752-.052 2.369 2.369 0 01-.744-.281zm2.754-7.872l-2.416-1.395-1.917 1.107 2.416 1.395-1.161.67 1.481.855 1.161-.67 4.754 2.745c.406.234.792.389 1.158.465a3.28 3.28 0 001.056.057c.338-.039.663-.122.975-.248a7.21 7.21 0 00.914-.447c.189-.109.377-.224.565-.344a4.27 4.27 0 00.477-.348l-1.714-.99c-.07.064-.149.128-.237.191a3.688 3.688 0 01-.295.188c-.324.187-.602.276-.835.266-.233-.009-.536-.122-.91-.338l-3.991-2.304 1.404-.811-1.481-.855-1.404.811zm4.72.137c-.493-.316-.812-.629-.957-.942a1.204 1.204 0 01-.07-.913c.098-.297.294-.581.589-.853.294-.272.634-.52 1.021-.743.351-.203.735-.391 1.153-.566.417-.175.857-.3 1.32-.376a4.943 4.943 0 011.423-.02c.485.062.972.234 1.46.516l4.194 2.421c.363.21.73.4 1.098.572.369.171.681.278.937.322l-1.944 1.123a6.35 6.35 0 01-.914-.372c.058.386-.048.741-.316 1.064a3.85 3.85 0 01-1.051.859c-.333.192-.69.344-1.072.457a4.607 4.607 0 01-1.192.184 4.752 4.752 0 01-1.255-.139 4.818 4.818 0 01-1.258-.516c-.457-.264-.764-.522-.921-.774-.156-.251-.213-.492-.169-.721.044-.229.164-.451.359-.666.195-.214.41-.42.646-.616.237-.197.478-.384.726-.563.248-.179.449-.349.602-.51.154-.161.234-.312.241-.454.006-.141-.109-.276-.347-.402a2.25 2.25 0 00-.67-.27 1.941 1.941 0 00-1.145.102 4.206 4.206 0 00-.518.255c-.378.218-.582.443-.611.676-.029.233.157.485.558.758l-1.917 1.107zm6.064-1.611a.452.452 0 01-.108.287 2.307 2.307 0 01-.275.294 5.315 5.315 0 01-.361.298 7.894 7.894 0 00-.381.31 2.476 2.476 0 00-.3.318.68.68 0 00-.154.332.492.492 0 00.085.337c.072.115.212.232.42.352a1.992 1.992 0 001.169.27c.186-.018.367-.059.542-.124.175-.065.339-.142.492-.23.378-.218.598-.429.659-.633a.674.674 0 00-.063-.566 1.533 1.533 0 00-.433-.461 6.102 6.102 0 00-.465-.307l-.827-.477zm-3.73-6.145l11.13 6.426 1.917-1.107-11.13-6.426zm3.483-2.011l11.13 6.426 1.917-1.106-11.13-6.426z" fill="#A58234"></path></g><path fill="#00AE75" d="M292.994 96.365V84.58H0v11.785l146.497 84.58z"></path><path fill="#6FC173" d="M292.994 84.58L146.497 0 0 84.58l146.497 84.58z"></path><path d="M110.886 94.794l6.346-3.664a28.718 28.718 0 00-6.722-2.242 29.963 29.963 0 00-6.74-.589c-2.2.063-4.303.359-6.31.888-2.008.528-3.833 1.266-5.475 2.214-2.282 1.318-3.869 2.772-4.76 4.362-.89 1.591-1.143 3.221-.756 4.89.386 1.669 1.346 3.332 2.88 4.989 1.533 1.657 3.585 3.227 6.156 4.711a38.35 38.35 0 008.016 3.471 38.615 38.615 0 008.545 1.608c2.859.204 5.658.045 8.397-.479s5.249-1.444 7.532-2.762c1.836-1.06 3.199-2.218 4.087-3.473.888-1.255 1.292-2.564 1.212-3.928-.08-1.364-.64-2.748-1.68-4.151-1.039-1.404-2.552-2.776-4.539-4.115l-6.345 3.663c2.063 1.481 3.238 2.955 3.525 4.422.287 1.467-.571 2.779-2.575 3.936a12.55 12.55 0 01-4.746 1.599 18.6 18.6 0 01-5.132-.071 25.26 25.26 0 01-5.086-1.321 31.012 31.012 0 01-4.656-2.183c-1.511-.872-2.827-1.8-3.949-2.785-1.122-.986-1.917-1.983-2.385-2.993-.469-1.009-.518-2.002-.147-2.977.371-.974 1.294-1.888 2.77-2.739.806-.466 1.731-.824 2.774-1.074a15.286 15.286 0 013.261-.407c1.13-.022 2.252.063 3.365.256 1.113.192 2.158.507 3.137.944zm-.506-13.067l34.419 19.871 6.137-3.543-24.151-13.943.083-.048 31.457 9.725 5.051-2.916-17.086-18.301.084-.048 24.392 14.083 6.137-3.544-34.419-19.871-9.226 5.326 17.073 17.474-.084.048-30.641-9.64zm72.475-9.448l-21.693-12.524 4.676-2.699c1.614-.932 3.236-1.563 4.866-1.891a15.803 15.803 0 014.941-.209c1.664.19 3.341.604 5.031 1.242a35.224 35.224 0 015.139 2.461c1.896 1.094 3.294 2.143 4.194 3.144.9 1.002 1.412 1.94 1.536 2.815.123.875-.083 1.672-.62 2.39-.538.718-1.279 1.351-2.225 1.897l-5.845 3.374zm-34.61-12.413l34.419 19.871 12.858-7.423c2.282-1.318 3.823-2.718 4.623-4.2.8-1.483.993-2.995.577-4.536-.415-1.541-1.405-3.085-2.97-4.631-1.564-1.546-3.6-3.043-6.106-4.49-2.86-1.651-5.692-2.892-8.495-3.723-2.803-.831-5.517-1.305-8.141-1.423-2.625-.117-5.119.098-7.482.646-2.363.548-4.505 1.376-6.425 2.485l-12.858 7.424zm22.659 71.718l8.059 4.653 1.917-1.107-4.224-2.439c-.821-.474-1.294-.882-1.419-1.224-.124-.342.075-.664.597-.965a2.118 2.118 0 011.449-.27c.508.085 1.094.319 1.759.703l4.552 2.628 1.917-1.106-4.957-2.862a11.28 11.28 0 00-1.479-.722 5.776 5.776 0 00-1.443-.373 4.644 4.644 0 00-1.446.062c-.49.096-.991.293-1.504.589-.405.234-.695.524-.869.87-.174.347-.148.725.076 1.135l-.04.024-1.123-.648-1.822 1.052zm18.139-2.84c-.306.176-.64.285-1.002.326-.361.04-.724.031-1.088-.029a5.25 5.25 0 01-1.102-.309 7.738 7.738 0 01-1.039-.498 6.452 6.452 0 01-.885-.605c-.258-.211-.441-.423-.55-.636a.841.841 0 01-.071-.634c.06-.209.248-.405.563-.587a2.46 2.46 0 011.003-.317 4.262 4.262 0 011.112.042c.379.063.754.167 1.124.314.37.146.716.312 1.039.498.322.186.612.385.869.596.258.211.439.422.542.632.103.21.122.419.056.625-.066.206-.256.4-.571.582zm-10.134-1.782l10.881 6.282 1.917-1.107-3.819-2.205.027-.015a5.829 5.829 0 001.794-.001 4.405 4.405 0 001.499-.515c.513-.296.846-.62 1-.973.154-.353.167-.714.039-1.084-.128-.371-.378-.736-.751-1.097a7.02 7.02 0 00-1.37-1.009c-.572-.33-1.183-.61-1.834-.84a9.093 9.093 0 00-1.96-.462 7.504 7.504 0 00-1.936.02 4.912 4.912 0 00-1.776.612c-.432.249-.73.535-.892.857-.163.322-.143.676.06 1.063l-.027.016-1.029-.594-1.823 1.052zm8.303-4.793l8.059 4.653 1.917-1.107-4.676-2.7c-.395-.228-.665-.441-.81-.64-.146-.198-.214-.375-.204-.53a.64.64 0 01.167-.402 1.25 1.25 0 01.288-.248c.306-.176.597-.275.874-.297.277-.022.548.004.813.079.265.075.519.178.762.307.243.13.484.264.723.402l4.52 2.61 1.917-1.107-4.489-2.592a6.859 6.859 0 01-.693-.454 1.754 1.754 0 01-.466-.487.614.614 0 01-.076-.497c.047-.165.205-.325.475-.481.27-.156.536-.249.797-.28a2.37 2.37 0 01.779.036c.258.055.515.147.772.274.257.128.521.27.791.426l4.567 2.637 1.917-1.107-5.393-3.114c-.52-.3-1.027-.52-1.522-.66a5.276 5.276 0 00-1.423-.214 4.586 4.586 0 00-1.309.18 5.34 5.34 0 00-1.182.502c-.486.281-.771.602-.857.963-.085.361-.054.704.092 1.027-.688-.179-1.313-.22-1.875-.124a4.508 4.508 0 00-1.504.527c-.459.265-.752.566-.879.903-.127.338-.109.699.055 1.085l-.027.015-1.091-.63-1.809 1.045zm22.855-6.914l-1.822 1.052c.558.302 1.114.5 1.666.596a6.12 6.12 0 003.108-.256 7.88 7.88 0 001.328-.605 5.764 5.764 0 001.035-.75c.294-.272.481-.557.56-.854.078-.298.031-.603-.143-.917-.174-.313-.526-.623-1.056-.929a3.695 3.695 0 00-1.133-.436 4.602 4.602 0 00-1.138-.08 5.84 5.84 0 00-1.122.17c-.369.094-.73.2-1.082.319-.343.114-.676.228-.999.343-.323.115-.625.208-.906.28-.28.072-.546.108-.796.109a1.313 1.313 0 01-.673-.17c-.166-.096-.262-.193-.289-.292a.358.358 0 01.037-.282.882.882 0 01.243-.258 3.121 3.121 0 011.445-.6c.402-.058.83.028 1.283.258l1.823-1.052a5.488 5.488 0 00-1.57-.525 5.771 5.771 0 00-1.483-.053c-.476.047-.934.15-1.372.307a7.502 7.502 0 00-1.225.563 5.862 5.862 0 00-.99.707c-.282.252-.471.518-.567.795-.096.277-.065.562.092.856.157.293.495.59 1.015.89.353.204.715.34 1.085.408a4.4 4.4 0 001.108.063 5.943 5.943 0 001.098-.185c.364-.096.722-.203 1.074-.323.85-.298 1.55-.51 2.099-.635.549-.125.989-.091 1.322.101.197.114.32.231.369.353.049.122.052.24.008.356a.898.898 0 01-.233.332 1.938 1.938 0 01-.371.277 3.024 3.024 0 01-1.332.4 2.973 2.973 0 01-.752-.052 2.369 2.369 0 01-.744-.281zm2.754-7.872l-2.416-1.395-1.917 1.107 2.416 1.395-1.161.67 1.481.855 1.161-.67 4.755 2.745c.405.234.791.389 1.157.465.367.077.719.096 1.056.057.338-.039.663-.122.975-.248.313-.126.617-.275.914-.447.189-.109.377-.224.565-.344a4.29 4.29 0 00.478-.348l-1.715-.99a2.316 2.316 0 01-.237.191 3.517 3.517 0 01-.295.188c-.324.187-.602.276-.835.266-.232-.009-.536-.122-.91-.338l-3.991-2.304 1.404-.811-1.481-.855-1.404.811zm4.72.137c-.493-.316-.811-.629-.956-.942-.145-.312-.169-.617-.07-.913.098-.297.294-.581.588-.853a5.704 5.704 0 011.022-.743c.351-.203.735-.391 1.152-.566.417-.175.857-.3 1.321-.376a4.935 4.935 0 011.422-.02 3.91 3.91 0 011.461.516l4.193 2.421c.364.21.73.4 1.099.572.368.171.68.278.937.323l-1.944 1.122a6.214 6.214 0 01-.915-.372c.058.386-.047.741-.316 1.064-.268.323-.619.61-1.051.859-.333.192-.69.345-1.071.457a4.615 4.615 0 01-1.193.184 4.75 4.75 0 01-1.254-.139 4.804 4.804 0 01-1.258-.516c-.457-.264-.764-.522-.921-.774-.157-.251-.213-.491-.169-.721.043-.229.163-.451.358-.666.195-.214.411-.42.647-.616.236-.196.478-.384.726-.563.247-.179.448-.349.602-.51.154-.161.234-.312.24-.454.007-.141-.109-.276-.347-.402a2.25 2.25 0 00-.67-.27 1.968 1.968 0 00-1.145.102 4.206 4.206 0 00-.518.255c-.378.218-.581.443-.61.676-.029.233.157.486.557.758l-1.917 1.107zm6.065-1.611a.454.454 0 01-.109.287 2.237 2.237 0 01-.275.294 5.007 5.007 0 01-.36.298c-.133.101-.26.204-.381.31a2.557 2.557 0 00-.301.318.68.68 0 00-.154.332.496.496 0 00.085.337c.072.115.212.232.42.352a1.997 1.997 0 001.17.27c.186-.017.366-.059.541-.124.175-.065.34-.142.493-.23.378-.218.597-.429.659-.633a.682.682 0 00-.063-.566 1.55 1.55 0 00-.434-.461 5.728 5.728 0 00-.465-.307l-.826-.477zm-.714-4.341l8.06 4.653 1.917-1.106-3.632-2.097a5.91 5.91 0 01-.919-.64c-.249-.216-.416-.435-.501-.656a.783.783 0 01.034-.658c.107-.218.337-.429.688-.632a5.357 5.357 0 01.766-.352l-2.057-1.188a2.201 2.201 0 00-.497.197c-.243.14-.435.299-.577.477a1.439 1.439 0 00-.284.569c-.047.201-.041.407.019.619.06.211.17.415.329.611l-.027.015-1.496-.864-1.823 1.052zm7.682-4.434l-2.416-1.395-1.917 1.106 2.416 1.395-1.161.671 1.481.855 1.161-.671 4.754 2.745c.406.234.792.39 1.158.466.366.076.718.095 1.056.056.338-.039.663-.121.975-.247.312-.127.617-.276.914-.447.189-.109.377-.224.565-.344.187-.121.346-.237.477-.348l-1.714-.99c-.07.064-.149.127-.237.191a3.688 3.688 0 01-.295.188c-.324.187-.602.276-.835.266-.233-.01-.536-.122-.91-.338l-3.991-2.304 1.404-.811-1.481-.855-1.404.811z" fill="#006A46"></path></g><g transform="translate(329.000000, 442.000000)"><path d="M0 20.5h54" stroke="#455A64" stroke-width="15"></path><path d="M82.218 23.194c2.326-1.488 2.33-3.897 0-5.387L57.423 1.951C52.771-1.024 49 1.046 49 6.57v27.86c0 5.526 3.778 7.59 8.423 4.62l24.795-15.857z" fill="#455A64"></path></g></g></svg>