<svg xmlns="http://www.w3.org/2000/svg" viewBox="0 0 917.1 600" style="white-space:preserve-spaces"><g transform="translate(395.2,46.4)" style="line-height:24px;white-space:pre">Image layers</g><g transform="translate(458.6,349.7) scale(2,2) translate(-146.6,-108)"><g transform="translate(146.5,125.5) translate(-146.5,-90.5)"><path fill="#005fad" d="M293 96.4V84.6H0v11.8l146.5 84.5z" fill-rule="evenodd"></path><path fill="#0071ce" d="M293 84.6L146.5 0 0 84.6l146.5 84.6z" fill-rule="evenodd"></path><path fill="#2d536d" d="M66.7 106.9l34.4 19.9 6.6-3.8-14.3-8.2 12.5-7.2-5.9-3.4-12.4 7.2-8-4.6L94 98.5l-6.4-3.7zm46.9-9l-9.7-5.6 7.2-4.2c1.5-.9 3-1.3 4.5-1.3s3.1.5 4.7 1.5c1.8 1 2.7 1.9 2.7 2.8 0 .9-.7 1.7-2.2 2.6l-7.2 4.2zm-22.2-5.3l34.5 19.9 6.5-3.8L119 101l6.5-3.8c1.7-1 3.3-1.4 4.8-1.3 1.6 0 3.4.5 5.4 1.4 1.5.7 3.1 1.5 4.7 2.3 1.6.8 3.1 1.5 4.6 1.9l6.5-3.8c-.7-.1-1.6-.3-2.4-.6-.9-.3-1.7-.7-2.5-1.1-.9-.4-1.7-.8-2.4-1.2-.8-.4-1.5-.8-2.1-1.1-.9-.5-1.9-.9-2.9-1.3s-2-.7-3.1-1c-1-.2-2.1-.3-3.2-.3-1 0-2.1.2-3.1.5l-.1-.1c.9-1.4.9-2.7.2-4-.8-1.3-2.1-2.5-4.2-3.7-1.3-.7-2.7-1.3-4.3-1.8-1.5-.4-3.1-.6-4.7-.7-1.6-.1-3.3.1-4.8.4-1.6.3-3 .9-4.4 1.7l-16.1 9.2zm52.8-10.4c-1.5-.8-2.8-1.8-3.9-2.8-1.2-.9-2-1.9-2.4-2.9-.5-1.1-.5-2.1-.2-3 .4-1 1.3-1.9 2.8-2.8 1.5-.8 3-1.4 4.7-1.6 1.7-.2 3.4-.2 5.2.1 1.7.3 3.5.7 5.2 1.4 1.7.6 3.3 1.4 4.8 2.3 1.4.8 2.7 1.7 3.8 2.7 1.1.9 1.8 1.9 2.3 2.9.4 1 .5 2 .1 3-.4.9-1.3 1.9-2.8 2.7-1.5.9-3 1.4-4.7 1.6-1.7.2-3.4.2-5.2-.1-1.7-.2-3.4-.7-5-1.3-1.7-.6-3.2-1.3-4.7-2.2zm-6.6 3.8c2.6 1.5 5.2 2.6 8.1 3.5 2.8.8 5.7 1.4 8.5 1.6 2.9.2 5.7 0 8.4-.5s5.3-1.4 7.5-2.8c2.3-1.3 4-2.7 4.8-4.3.9-1.6 1.2-3.2.9-4.8-.4-1.7-1.3-3.3-2.8-5-1.5-1.6-3.5-3.2-6-4.6-2.6-1.5-5.3-2.7-8.2-3.6-2.9-.8-5.8-1.4-8.6-1.6-2.9-.2-5.8-.1-8.5.4s-5.3 1.4-7.6 2.8c-2.3 1.3-3.8 2.7-4.7 4.3-.9 1.6-1.2 3.2-.8 4.9.4 1.7 1.4 3.3 2.9 5 1.5 1.7 3.6 3.2 6.1 4.7zm16.5-29.5l34.4 19.9 6.1-3.6-24.1-13.9.1-.1 31.4 9.8 5.1-3L190 47.3h.1l24.4 14.1 6.1-3.6L186.2 38l-9.3 5.3L194 60.8h-.1l-30.6-9.6zm31.7 66.5l8 4.6 2-1.1-4.3-2.4c-.8-.5-1.3-.9-1.4-1.2-.1-.4.1-.7.6-1 .5-.3.9-.3 1.5-.3.5.1 1 .4 1.7.7l4.6 2.7 1.9-1.1-5-2.9c-.5-.3-1-.5-1.5-.7-.4-.2-.9-.3-1.4-.4-.5-.1-1 0-1.4.1-.5.1-1 .3-1.5.6-.5.2-.7.5-.9.8-.2.4-.2.8.1 1.2h-.1l-1.1-.7-1.8 1.1zm13.7-3.3l-.9-.6c-.2-.2-.4-.4-.5-.6-.1-.2-.1-.4-.1-.7.1-.2.3-.4.6-.6.3-.1.7-.3 1.1-.3h1.1c.3.1.7.2 1.1.4.3.1.7.3 1 .5.3.1.6.3.9.6.2.2.4.4.5.6.1.2.2.4.1.6-.1.2-.3.4-.6.6-.3.2-.7.3-1 .4-.4 0-.8 0-1.2-.1-.3 0-.7-.1-1.1-.3-.3-.1-.7-.3-1-.5zm-1.9 1.1c.6.4 1.3.7 2 .9.7.2 1.4.3 2.1.3.6.1 1.3 0 1.9-.1.7-.2 1.3-.4 1.8-.7.6-.3 1-.7 1.2-1.1.3-.3.4-.7.3-1.1 0-.4-.2-.8-.6-1.2-.3-.4-.8-.8-1.5-1.1-.6-.4-1.3-.7-2-.9-.7-.2-1.4-.3-2.1-.4-.6 0-1.3.1-2 .2-.6.1-1.2.4-1.8.7-.5.3-.9.6-1.1 1-.3.4-.4.8-.3 1.2 0 .4.2.8.6 1.2.4.4.9.8 1.5 1.1zm13.4-7.7c.3.1.6.4.9.6.2.2.4.4.5.6.2.2.2.4.1.6 0 .2-.2.4-.6.6-.3.2-.6.3-.9.3-.4.1-.8 0-1.2 0-.3-.1-.7-.2-1.1-.3-.4-.2-.7-.3-1-.5-.4-.2-.7-.4-.9-.6-.2-.2-.4-.4-.5-.6-.1-.3-.2-.5-.1-.7.1-.2.3-.4.6-.6.3-.1.6-.3 1-.3h1.1c.3.1.7.2 1 .4.4.1.8.3 1.1.5zm3 1.7l1.1.6 1.8-1.1-11.1-6.4-2 1.1 4.1 2.4c-.6-.1-1.2-.1-1.8 0-.6.1-1.1.2-1.5.5-.5.3-.8.6-1 .9-.1.4-.2.8 0 1.1.1.4.3.8.7 1.1.4.4.9.8 1.4 1.1.6.3 1.2.6 1.8.8.7.2 1.3.4 2 .4.6.1 1.3.1 1.9 0 .6-.1 1.2-.3 1.7-.6.5-.2.8-.5 1-.8.1-.4.1-.7-.1-1.1zm4.1-6.8l-3.1 1.8-.4-.4c-.2-.1-.3-.3-.3-.5-.1-.1-.1-.3 0-.5s.3-.4.6-.6c.5-.2 1-.3 1.5-.3s1.1.2 1.7.5zm-1.7 2.6l5.1-2.9c-.6-.4-1.3-.7-2-1-.7-.3-1.4-.4-2.1-.5-.7-.1-1.5-.1-2.2 0-.7.1-1.3.3-1.9.7-.5.3-.9.6-1.1 1-.3.4-.3.7-.3 1.1.1.4.3.8.7 1.2.3.4.8.8 1.4 1.2.6.3 1.3.6 1.9.8.7.2 1.4.3 2.1.4.7 0 1.3 0 2-.2.6-.1 1.2-.3 1.8-.7.8-.4 1.2-.9 1.4-1.5.1-.5-.2-1.2-.9-1.9l-1.7 1c.2.2.3.4.2.7 0 .3-.2.5-.6.8-.6.3-1.1.4-1.7.4-.7 0-1.3-.2-2.1-.6z" fill-rule="evenodd"></path></g><g id="anime-red" opacity="0" transform="translate(146.6,48.5) translate(0,0) translate(-146.6,-90.5)"><path fill="#bf534f" d="M293.2 350.5v-11.7H.3v11.7l146.4 84.6z" fill-rule="evenodd" transform="translate(0,-254.2)"></path><path fill="#ff6d68" d="M293 338.8l-146.5-84.6L0 338.8l146.5 84.5z" fill-rule="evenodd" transform="translate(0,-254.2)"></path><path d="M110.9 358.3l6.4-3.7c-2.2-1-4.5-1.7-6.8-2.2-2.3-.5-4.5-.7-6.7-.6-2.2.1-4.3.4-6.3.9s-3.8 1.3-5.5 2.2c-2.3 1.3-3.9 2.8-4.7 4.4-.9 1.6-1.2 3.2-.8 4.9.4 1.6 1.3 3.3 2.9 4.9 1.5 1.7 3.6 3.3 6.1 4.8 2.5 1.4 5.2 2.6 8.1 3.4 2.8.9 5.6 1.4 8.5 1.6 2.9.2 5.7.1 8.4-.4 2.7-.6 5.2-1.5 7.5-2.8 1.9-1.1 3.2-2.2 4.1-3.5.9-1.2 1.3-2.5 1.2-3.9-.1-1.4-.6-2.8-1.7-4.2-1-1.4-2.5-2.7-4.5-4.1l-6.3 3.7c2 1.5 3.2 2.9 3.5 4.4.3 1.5-.6 2.8-2.6 4-1.5.8-3 1.3-4.7 1.6-1.7.2-3.4.1-5.2-.1-1.7-.3-3.4-.7-5.1-1.3-1.6-.7-3.2-1.4-4.6-2.2-1.5-.9-2.8-1.8-4-2.8-1.1-1-1.9-2-2.3-3-.5-1-.6-2-.2-3 .4-1 1.3-1.9 2.8-2.7.8-.5 1.7-.8 2.8-1.1 1-.2 2.1-.4 3.2-.4s2.3.1 3.4.3c1.1.1 2.1.5 3.1.9zm22.1-6.1c-1.5-.9-2.8-1.8-3.9-2.8-1.1-1-1.9-2-2.4-3s-.5-2-.2-2.9c.4-1 1.3-1.9 2.8-2.8 1.5-.8 3.1-1.4 4.8-1.6 1.7-.2 3.4-.2 5.1.1 1.8.3 3.5.7 5.2 1.4 1.7.6 3.3 1.4 4.8 2.3 1.5.8 2.7 1.7 3.8 2.7 1.1.9 1.8 1.9 2.3 2.9.4 1 .5 2 .1 3-.4.9-1.3 1.8-2.8 2.7-1.4.8-3 1.4-4.7 1.6-1.7.2-3.4.2-5.1-.1-1.8-.2-3.5-.7-5.1-1.3-1.7-.6-3.2-1.3-4.7-2.2zm-6.5 3.8c2.5 1.4 5.2 2.6 8 3.5 2.8.8 5.7 1.4 8.5 1.6 2.9.2 5.7 0 8.4-.5 2.8-.5 5.3-1.4 7.6-2.8 2.3-1.3 3.9-2.8 4.8-4.3.9-1.6 1.1-3.2.8-4.9-.4-1.6-1.3-3.3-2.8-4.9-1.5-1.6-3.5-3.2-6-4.6-2.6-1.5-5.3-2.7-8.2-3.6-2.9-.9-5.7-1.4-8.6-1.6-2.9-.3-5.7-.1-8.5.4-2.7.5-5.2 1.4-7.5 2.7-2.3 1.4-3.9 2.8-4.8 4.4-.9 1.6-1.2 3.2-.8 4.9.4 1.7 1.4 3.3 2.9 5 1.5 1.6 3.6 3.2 6.2 4.7zm39.1-24l-10.3-5.9 5.1-2.9c.8-.5 1.6-.9 2.4-1.2.8-.3 1.7-.5 2.6-.6.9-.1 1.8-.1 2.8.1 1 .3 2 .7 3.1 1.3 1.1.6 1.9 1.2 2.2 1.8.4.6.5 1.1.3 1.7-.2.5-.5 1-1.1 1.4-.6.5-1.2 1-2 1.4l-5.1 2.9zm-22.7-5.5l34.4 19.9 6.6-3.8-12.4-7.2 6.9-3.9c1.9-1.1 3.2-2.2 3.8-3.3.7-1.1 1-2.2.7-3.3-.2-1.1-.7-2.1-1.7-3.1s-2.1-1.9-3.5-2.7c-1.4-.8-3-1.5-4.7-2-1.7-.5-3.4-.9-5.3-1-1.8-.1-3.7 0-5.7.4-1.9.4-3.8 1.1-5.7 2.2l-13.4 7.8zm56.6-8.4l13.4 7.7 6.5-3.8-13.2-7.6-10.1-18.6-7.3 4.2 6.6 11.8-20.5-3.8-7.4 4.3z" fill="#933131" fill-rule="evenodd" transform="translate(0,-254.2)"></path></g><g id="anime-yellow" opacity="0" transform="translate(146.6,36.7) translate(0,0) translate(-146.6,-90.5)"><path fill="#e0b03b" d="M293.2 195.4v-11.8H.3v11.8l146.4 84.5z" fill-rule="evenodd" transform="translate(0,-99)"></path><path fill="#ffc843" d="M293 183.6L146.5 99 0 183.6l146.5 84.6z" fill-rule="evenodd" transform="translate(0,-99)"></path><path d="M107.1 198.3l-9.6-5.6 7.1-4.1c1.5-.9 3-1.3 4.6-1.3 1.5 0 3.1.4 4.7 1.4 1.8 1 2.6 1.9 2.7 2.8 0 .9-.8 1.8-2.3 2.6l-7.2 4.2zM85 193.1l34.4 19.9 6.6-3.8-13.5-7.8 6.6-3.8c1.6-.9 3.2-1.4 4.8-1.3 1.6.1 3.4.6 5.4 1.5 1.5.7 3.1 1.4 4.7 2.3 1.6.8 3.1 1.4 4.6 1.8l6.5-3.8c-.8-.1-1.6-.3-2.4-.6-.9-.3-1.7-.6-2.6-1.1l-2.4-1.2c-.7-.4-1.4-.7-2-1-.9-.5-1.9-1-2.9-1.4-1-.4-2.1-.7-3.1-.9-1.1-.2-2.1-.4-3.2-.4-1 0-2.1.2-3.2.5h-.1c.9-1.4 1-2.8.3-4.1-.8-1.3-2.2-2.5-4.2-3.6-1.3-.8-2.7-1.4-4.3-1.8-1.5-.4-3.1-.7-4.7-.8-1.7 0-3.3.1-4.8.5-1.6.3-3.1.8-4.4 1.6L85 193.1zm76.9-19.7l-21.4-12.3-6.6 3.8 21.4 12.3c2.6 1.5 4 2.9 4.3 4.1.4 1.2-.7 2.5-3 3.8-1.3.8-2.6 1.3-3.8 1.5-1.3.2-2.4.2-3.6.1-1.1-.2-2.2-.5-3.2-.9-1.1-.4-2.1-.9-3-1.5L121.6 172l-6.6 3.8 21.4 12.3c4.7 2.7 9.3 4.1 13.8 4.1 4.4 0 8.7-1.1 12.7-3.5 4-2.2 6-4.7 6-7.3 0-2.6-2.4-5.3-7-8zm-15.8-15.6l34.4 19.9 6.2-3.5-23.1-13.3.1-.1 35.4 6.1 6.6-3.7-34.4-19.9-6.2 3.5 23.1 13.4h-.1l-35.5-6.1zm16.6 75.9l8 4.6 2-1.1-4.3-2.4c-.8-.5-1.3-.9-1.4-1.3-.1-.3.1-.6.6-.9.5-.3 1-.4 1.5-.3.5.1 1.1.3 1.7.7l4.6 2.6 1.9-1.1-5-2.8c-.5-.3-1-.6-1.4-.7-.5-.2-1-.4-1.5-.4-.5-.1-.9-.1-1.4 0-.5.1-1 .3-1.5.6-.4.3-.7.6-.9.9-.2.3-.2.7.1 1.1l-.1.1-1.1-.7-1.8 1.1zm18.1-2.9c-.3.2-.6.3-1 .3-.3.1-.7.1-1.1 0-.3 0-.7-.1-1.1-.3-.3-.1-.7-.3-1-.5l-.9-.6c-.3-.2-.4-.4-.5-.6-.2-.2-.2-.5-.1-.7 0-.2.2-.4.5-.5.3-.2.7-.3 1-.4.4 0 .8 0 1.2.1.3 0 .7.1 1.1.3.4.1.7.3 1 .5l.9.6c.2.2.4.4.5.6.1.2.2.4.1.6-.1.2-.3.4-.6.6zm-10.1-1.8l10.9 6.3 1.9-1.1-3.8-2.2a5.27 5.27 0 003.3-.5c.5-.3.8-.6 1-1 .1-.3.1-.7 0-1.1-.1-.3-.4-.7-.7-1.1-.4-.3-.9-.7-1.4-1-.6-.3-1.2-.6-1.8-.8-.7-.3-1.3-.4-2-.5-.6-.1-1.3-.1-1.9 0-.7.1-1.3.3-1.8.6-.4.3-.7.6-.9.9-.2.3-.1.7.1 1.1h-.1l-1-.6-1.8 1zm8.3-4.8l8 4.7 2-1.1-4.7-2.7c-.4-.2-.7-.4-.8-.6-.2-.2-.2-.4-.2-.6 0-.1 0-.3.1-.4.1-.1.2-.2.3-.2.3-.2.6-.3.9-.3.3 0 .5 0 .8.1.3 0 .5.1.8.3.2.1.5.2.7.4l4.5 2.6 1.9-1.1-4.5-2.6c-.2-.2-.4-.3-.6-.5-.3-.1-.4-.3-.5-.5-.1-.1-.1-.3-.1-.5.1-.1.2-.3.5-.4.3-.2.5-.3.8-.3.2-.1.5 0 .8 0 .2.1.5.2.7.3.3.1.6.3.8.4l4.6 2.7 1.9-1.2-5.4-3.1c-.5-.3-1-.5-1.5-.6-.5-.2-1-.2-1.4-.2-.5 0-.9 0-1.3.1-.5.2-.8.3-1.2.5-.5.3-.8.6-.9 1-.1.4 0 .7.1 1-.7-.2-1.3-.2-1.9-.1-.5.1-1 .3-1.5.5-.4.3-.7.6-.8.9-.2.4-.1.7 0 1.1l-1.1-.6-1.8 1zm16.6-11l-1.8-1.1-1.9 1.1 1.8 1.1 1.9-1.1zm-.6 1.8l8 4.7 1.9-1.1-8-4.7-1.9 1.1zm3.4-2l8.1 4.7 1.9-1.1-4.2-2.5c-.9-.4-1.3-.8-1.5-1.2-.1-.3.1-.6.6-.9.5-.3 1-.4 1.5-.3.5.1 1.1.3 1.7.7l4.6 2.6 1.9-1.1-4.9-2.8c-.5-.3-1-.6-1.5-.8-.5-.2-1-.3-1.5-.3-.4-.1-.9-.1-1.4 0-.5.1-1 .3-1.5.6-.4.2-.7.5-.9.9-.2.3-.1.7.1 1.1h-.1l-1.1-.6-1.8 1zm14.9-2.3l-1.8 1.1c.6.3 1.1.5 1.7.5.5.1 1.1.2 1.6.1.5 0 1-.1 1.5-.3.5-.2.9-.4 1.3-.6.4-.2.8-.5 1-.8.3-.2.5-.5.6-.8.1-.3 0-.6-.1-.9-.2-.3-.6-.7-1.1-1-.4-.2-.7-.3-1.1-.4-.4-.1-.8-.1-1.2-.1-.3 0-.7.1-1.1.2-.4.1-.7.2-1.1.3-.3.1-.6.2-1 .4-.3.1-.6.2-.9.2-.3.1-.5.1-.8.1-.2 0-.4 0-.6-.1-.2-.1-.3-.2-.3-.3-.1-.1 0-.2 0-.3.1-.1.1-.2.2-.3.2 0 .3-.1.4-.2.3-.2.7-.3 1.1-.4.4 0 .8.1 1.3.3l1.8-1.1c-.5-.2-1.1-.4-1.6-.5-.5-.1-1-.1-1.5 0-.4 0-.9.1-1.3.3-.5.1-.9.3-1.3.5-.3.3-.7.5-.9.7-.3.3-.5.6-.6.8-.1.3-.1.6.1.9.1.3.5.6 1 .9.4.2.7.3 1.1.4.4.1.7.1 1.1.1.4-.1.7-.1 1.1-.2.4-.1.7-.2 1.1-.3.8-.3 1.5-.6 2.1-.7.5-.1 1-.1 1.3.1.2.1.3.2.4.4v.3c-.1.1-.2.3-.3.4-.1.1-.2.2-.3.2-.2.1-.4.2-.7.3-.2.1-.4.1-.7.1h-.7c-.3-.1-.5-.2-.8-.3zm2.8-7.9l-2.4-1.4-1.9 1.1 2.4 1.4-1.2.7 1.5.9 1.1-.7 4.8 2.7c.4.3.8.4 1.2.5.3.1.7.1 1 .1.4-.1.7-.2 1-.3.3-.1.6-.3.9-.4.2-.1.4-.3.6-.4.2-.1.3-.2.4-.3l-1.7-1-.2.2c-.1 0-.2.1-.3.2-.3.1-.6.2-.8.2-.3 0-.6-.1-.9-.3l-4-2.3 1.4-.8-1.5-.9-1.4.8zm4.7.2c-.5-.3-.8-.7-1-1-.1-.3-.1-.6 0-.9.1-.3.3-.6.6-.8.3-.3.6-.6 1-.8.3-.2.7-.4 1.1-.6.5-.1.9-.3 1.4-.3.4-.1.9-.1 1.4 0 .5 0 1 .2 1.4.5l4.2 2.4c.4.2.8.4 1.1.6.4.1.7.2 1 .3l-2 1.1c-.1 0-.3-.1-.4-.2-.2 0-.3-.1-.5-.2.1.4 0 .8-.3 1.1-.3.3-.6.6-1.1.9-.3.2-.6.3-1 .4-.4.1-.8.2-1.2.2-.4 0-.8 0-1.3-.1-.4-.1-.8-.3-1.2-.6-.5-.2-.8-.5-.9-.7-.2-.3-.3-.5-.2-.8 0-.2.1-.4.3-.6.2-.2.4-.4.7-.6.2-.2.5-.4.7-.6.3-.2.5-.3.6-.5.2-.2.2-.3.3-.5 0-.1-.2-.2-.4-.4-.2-.1-.5-.2-.7-.2-.2-.1-.4-.1-.6-.1-.2.1-.3.1-.5.2-.2 0-.4.1-.5.2-.4.2-.6.5-.6.7-.1.2.1.5.5.8l-1.9 1.1zm6.1-1.6s-.1.1-.1.2l-.3.3c-.1.1-.2.2-.4.3-.1.1-.2.2-.4.3-.1.1-.2.3-.3.4 0 .1-.1.2-.1.3 0 .1 0 .2.1.3 0 .1.2.3.4.4.2.1.4.2.6.2.2.1.4.1.6.1.2-.1.3-.1.5-.2.2 0 .3-.1.5-.2.4-.2.6-.4.7-.6 0-.2 0-.4-.1-.6-.1-.2-.3-.3-.4-.5-.2-.1-.4-.2-.5-.3l-.8-.4zm-3.8-6.2l11.2 6.4 1.9-1.1-11.1-6.4zm3.5-2l11.2 6.4 1.9-1.1-11.2-6.4z" fill="#a58234" fill-rule="evenodd" transform="translate(0,-99)"></path></g><g id="anime-green" opacity="0" transform="translate(146.5,25.5) translate(0,0) translate(-146.5,-90.5)"><path fill="#00ae75" d="M293 96.7V84.9H0v11.8l146.5 84.5z" fill-rule="evenodd" transform="translate(0,-0.3)"></path><path fill="#6fc173" d="M293 84.9L146.5.3 0 84.9l146.5 84.6z" fill-rule="evenodd" transform="translate(0,-0.3)"></path><path d="M110.9 95.1l6.3-3.7c-2.2-1-4.4-1.8-6.7-2.2-2.3-.5-4.5-.7-6.7-.6-2.2.1-4.3.3-6.3.9-2 .5-3.9 1.2-5.5 2.2-2.3 1.3-3.9 2.8-4.8 4.4-.9 1.5-1.1 3.2-.7 4.8.4 1.7 1.3 3.4 2.8 5 1.6 1.7 3.6 3.3 6.2 4.7 2.5 1.5 5.2 2.6 8 3.5 2.9.9 5.7 1.4 8.6 1.6 2.8.2 5.6.1 8.4-.5 2.7-.5 5.2-1.4 7.5-2.7 1.8-1.1 3.2-2.2 4.1-3.5.9-1.2 1.3-2.6 1.2-3.9-.1-1.4-.6-2.8-1.7-4.2-1-1.4-2.5-2.7-4.5-4.1l-6.4 3.7c2.1 1.5 3.3 2.9 3.6 4.4.2 1.5-.6 2.8-2.6 3.9-1.5.9-3.1 1.4-4.8 1.6-1.7.2-3.4.2-5.1 0-1.7-.3-3.4-.7-5.1-1.4-1.6-.6-3.2-1.3-4.6-2.1-1.6-.9-2.9-1.8-4-2.8-1.1-1-1.9-2-2.4-3-.4-1-.5-2-.1-3s1.3-1.9 2.7-2.7c.9-.5 1.8-.9 2.8-1.1 1.1-.3 2.2-.4 3.3-.4 1.1 0 2.2 0 3.3.2 1.2.2 2.2.5 3.2 1zm-.5-13.1l34.4 19.9 6.1-3.6-24.1-13.9h.1l31.4 9.7 5.1-2.9-17.1-18.3.1-.1 24.4 14.1 6.1-3.5-34.4-19.9-9.2 5.3 17 17.5h-.1l-30.6-9.6zm72.5-9.4L161.2 60l4.6-2.7c1.7-.9 3.3-1.5 4.9-1.8 1.6-.4 3.3-.4 4.9-.3 1.7.2 3.4.6 5.1 1.3 1.7.6 3.4 1.4 5.1 2.4 1.9 1.1 3.3 2.2 4.2 3.2.9 1 1.4 1.9 1.5 2.8.2.9 0 1.7-.6 2.4-.5.7-1.3 1.3-2.2 1.9l-5.8 3.4zm-34.7-12.4L182.7 80l12.8-7.4c2.3-1.3 3.8-2.7 4.6-4.2.8-1.5 1-3 .6-4.5-.4-1.6-1.4-3.1-2.9-4.7-1.6-1.5-3.6-3-6.2-4.5-2.8-1.6-5.6-2.8-8.4-3.7-2.9-.8-5.6-1.3-8.2-1.4-2.6-.1-5.1.1-7.5.6-2.3.6-4.5 1.4-6.4 2.5l-12.9 7.5zm22.7 71.7l8.1 4.6 1.9-1.1-4.2-2.4c-.9-.5-1.3-.9-1.5-1.2-.1-.4.1-.7.6-1 .5-.3 1-.4 1.5-.3.5.1 1.1.3 1.7.7l4.6 2.7 1.9-1.2-4.9-2.8c-.5-.3-1-.5-1.5-.7-.5-.2-1-.4-1.5-.4-.4-.1-.9 0-1.4.1-.5 0-1 .2-1.5.5-.4.3-.7.6-.9.9-.2.4-.1.7.1 1.1l-.1.1-1.1-.7-1.8 1.1zM189 129c-.3.2-.6.3-1 .4-.3 0-.7 0-1-.1-.4 0-.8-.1-1.1-.3-.4-.1-.8-.3-1.1-.5l-.9-.6c-.2-.2-.4-.4-.5-.6-.1-.2-.2-.4-.1-.7.1-.2.3-.4.6-.5.3-.2.6-.3 1-.4.3 0 .7 0 1.1.1.4 0 .7.2 1.1.3.4.1.7.3 1 .5.4.2.7.4.9.6.3.2.5.4.6.6.1.2.1.4 0 .7-.1.2-.2.4-.6.5zm-10.1-1.7l10.9 6.2 1.9-1.1-3.8-2.2a5.27 5.27 0 003.3-.5c.5-.3.9-.6 1-1 .2-.3.2-.7 0-1.1-.1-.3-.3-.7-.7-1.1-.4-.3-.8-.7-1.4-1-.5-.3-1.2-.6-1.8-.8-.7-.2-1.3-.4-2-.5-.6-.1-1.3 0-1.9 0-.6.1-1.2.3-1.8.7-.4.2-.7.5-.9.8-.1.3-.1.7.1 1.1l-1.1-.6-1.8 1.1zm8.3-4.8l8.1 4.6 1.9-1.1-4.7-2.7c-.4-.2-.7-.4-.8-.6-.1-.2-.2-.4-.2-.6 0-.1.1-.3.2-.4.1-.1.2-.2.3-.2.3-.2.6-.3.8-.3.3 0 .6 0 .8.1.3 0 .6.1.8.3.2.1.5.2.7.4l4.5 2.6 2-1.1-4.5-2.6c-.3-.2-.5-.3-.7-.5-.2-.1-.4-.3-.5-.5-.1-.1-.1-.3-.1-.5.1-.1.2-.3.5-.4.3-.2.5-.3.8-.3h.8c.2.1.5.2.8.3.2.1.5.3.8.4l4.5 2.7 1.9-1.1-5.4-3.2c-.5-.3-1-.5-1.5-.6-.5-.2-.9-.2-1.4-.2-.5 0-.9 0-1.3.1-.4.2-.8.3-1.2.5-.5.3-.8.6-.9 1 0 .4 0 .7.1 1-.6-.1-1.3-.2-1.8-.1-.6.1-1.1.3-1.5.5-.5.3-.8.6-.9.9-.1.4-.1.7 0 1.1l-1.1-.6-1.8 1.1zm22.9-7l-1.9 1.1c.6.3 1.2.5 1.7.6.6.1 1.1.1 1.6.1.5-.1 1-.2 1.5-.4.5-.1.9-.3 1.3-.6.4-.2.8-.4 1.1-.7.3-.3.5-.6.5-.9.1-.3.1-.6-.1-.9-.2-.3-.5-.6-1.1-.9-.3-.2-.7-.4-1.1-.5-.4 0-.7-.1-1.1 0-.4 0-.8 0-1.1.1-.4.1-.8.2-1.1.4-.4.1-.7.2-1 .3-.4.1-.7.2-.9.3-.3.1-.6.1-.8.1-.3 0-.5-.1-.7-.2-.2-.1-.3-.2-.3-.3v-.3c.1 0 .2-.1.3-.2.1-.1.2-.2.3-.2.4-.2.7-.4 1.1-.4.4-.1.9 0 1.3.2l1.8-1c-.5-.3-1-.5-1.5-.5-.5-.1-1-.1-1.5-.1-.5.1-1 .2-1.4.3l-1.2.6c-.4.2-.7.4-1 .7-.3.2-.5.5-.6.8-.1.3 0 .5.1.8.2.3.5.6 1 .9.4.2.8.4 1.1.4.4.1.8.1 1.1.1.4 0 .8-.1 1.1-.2.4-.1.7-.2 1.1-.3.9-.3 1.6-.5 2.1-.6.5-.2 1-.1 1.3.1.2.1.3.2.4.3v.4c0 .1-.1.2-.2.3-.1.1-.3.2-.4.3-.2.1-.4.2-.6.2-.3.1-.5.2-.7.2-.3 0-.5 0-.8-.1-.2 0-.5-.1-.7-.3zm2.7-7.8l-2.4-1.4-1.9 1.1 2.4 1.4-1.2.7 1.5.8 1.2-.7 4.7 2.8c.4.2.8.4 1.2.4.4.1.7.1 1.1.1.3 0 .6-.1.9-.2.3-.2.6-.3.9-.5l.6-.3c.2-.2.4-.3.5-.4l-1.7-1c-.1.1-.2.2-.3.2-.1.1-.2.1-.3.2-.3.2-.6.3-.8.3-.2 0-.5-.2-.9-.4l-4-2.3 1.4-.8-1.5-.8-1.4.8zm4.7.1c-.5-.3-.8-.6-.9-.9-.2-.3-.2-.6-.1-.9.1-.3.3-.6.6-.9.3-.3.6-.5 1-.7l1.2-.6c.4-.2.8-.3 1.3-.4.5-.1.9-.1 1.4 0 .5.1 1 .2 1.5.5l4.2 2.4c.3.2.7.4 1.1.6.3.2.7.3.9.3l-1.9 1.2c-.2-.1-.4-.2-.5-.2-.2-.1-.3-.1-.4-.2 0 .4-.1.7-.4 1-.2.4-.6.7-1 .9-.3.2-.7.3-1.1.5-.4.1-.8.1-1.2.1-.4.1-.8 0-1.2-.1-.5-.1-.9-.3-1.3-.5-.4-.3-.8-.5-.9-.8-.2-.2-.2-.5-.2-.7.1-.2.2-.5.4-.7l.6-.6c.3-.2.5-.4.7-.6.3-.1.5-.3.7-.5.1-.1.2-.3.2-.4 0-.2-.1-.3-.4-.4-.2-.2-.4-.2-.6-.3h-.6c-.2 0-.4 0-.6.1-.1.1-.3.2-.5.3-.4.2-.6.4-.6.6 0 .3.2.5.6.8l-2 1.1zm6.1-1.6c0 .1 0 .2-.1.3l-.3.3-.3.3c-.2.1-.3.2-.4.3l-.3.3c-.1.1-.2.2-.2.3 0 .1 0 .3.1.4.1.1.2.2.4.3l.6.3h.6c.2 0 .4-.1.5-.1.2-.1.4-.2.5-.3.4-.2.6-.4.7-.6.1-.2 0-.4-.1-.6-.1-.1-.2-.3-.4-.4-.2-.2-.3-.3-.5-.3l-.8-.5zm-.7-4.3l8.1 4.6 1.9-1.1-3.7-2.1-.9-.6c-.2-.2-.4-.5-.5-.7-.1-.2-.1-.4.1-.6.1-.3.3-.5.6-.7.2 0 .3-.1.4-.2.2 0 .3-.1.4-.1l-2.1-1.2c-.2 0-.3.1-.4.2-.3.1-.5.3-.6.5-.2.1-.3.3-.3.5-.1.2-.1.4 0 .6.1.3.2.5.3.7l-1.5-.9-1.8 1.1zm7.7-4.5l-2.4-1.4-2 1.1 2.5 1.4-1.2.7 1.5.9 1.1-.7 4.8 2.7c.4.3.8.4 1.2.5.3.1.7.1 1 .1.3-.1.7-.2 1-.3.3-.1.6-.3.9-.4.2-.2.4-.3.6-.4.1-.1.3-.2.4-.3l-1.7-1-.2.2c-.1 0-.2.1-.3.2-.3.1-.6.2-.8.2-.3 0-.6-.1-1-.3l-3.9-2.3 1.4-.8-1.5-.9-1.4.8z" fill="#006a46" fill-rule="evenodd" transform="translate(0,-0.3)"></path></g></g><script><![CDATA[/*
 KeyshapeJS v1.1.0 (c) 2018-2019 Pixofield Ltd | pixofield.com/keyshapejs/mit-license */
window.KeyshapeJS=function(){function t(a){return"undefined"!==typeof a}function x(a,b){return a&&0==a.indexOf(b)}function H(a){if(!isFinite(a))throw Error("Non-finite value");}function R(a){if(14>=a)return 16;var b=S[a];b||(b=t(ca[a])?0|(a.toLowerCase().indexOf("color")==a.length-5?48:0):1);return b}function K(a){return 0<=a?Math.pow(a,1/3):-Math.pow(-a,1/3)}function da(a,b,c,d){if(0==a)return 0==b?b=-d/c:(a=Math.sqrt(c*c-4*b*d),d=(-c+a)/(2*b),0<=d&&1>=d?b=d:(d=(-c-a)/(2*b),b=0<=d&&1>=d?d:0)),b;
var e=c/a-b*b/(a*a)/3;c=b*b*b/(a*a*a)/13.5-b*c/(a*a)/3+d/a;var n=c*c/4+e*e*e/27;b=-b/(3*a);if(0>=n){if(0==e&&0==c)return-K(d/a);a=Math.sqrt(c*c/4-n);d=Math.acos(-c/2/a);c=Math.cos(d/3);d=Math.sqrt(3)*Math.sin(d/3);a=K(a);e=2*a*c+b;if(0<=e&&1>=e)return e;e=-a*(c+d)+b;if(0<=e&&1>=e)return e;e=a*(d-c)+b;if(0<=e&&1>=e)return e}else{a=K(-c/2+Math.sqrt(n));c=K(-c/2-Math.sqrt(n));d=a+c+b;if(0<=d&&1>=d)return d;d=-(a+c)/2+b;if(0<=d&&1>=d)return d}return 0}function ea(a,b){if(48==a&&"number"===typeof b)return"rgba("+
(b>>>24)+","+(b>>>16&255)+","+(b>>>8&255)+","+(b&255)/255+")";if(64==a)return b=b.map(function(a){return a+"px"}),b.join(",");if(96==a){a="";for(var c=b.length,d=0;d<c;d+=2)a+=b[d],a+=b[d+1].join(",");return a}if(80==a){if(0==b[0])return"none";a="";c=b.length;for(d=0;d<c;)a+=T[b[d]],1==b[d]?a+="("+b[d+1]+") ":5==b[d]?(a+="("+b[d+1]+"px "+b[d+2]+"px "+b[d+3]+"px rgba("+(b[d+4]>>>24)+","+(b[d+4]>>16&255)+","+(b[d+4]>>8&255)+","+(b[d+4]&255)/255+")) ",d+=3):a=2==b[d]?a+("("+b[d+1]+"px) "):7==b[d]?a+
("("+b[d+1]+"deg) "):a+("("+(0>b[d+1]?0:b[d+1])+") "),d+=2;return a}return 32==a?b+"px":b}function y(a){return 0>=a?0:255<=a?255:a}function fa(a,b,c,d){if(16==a||32==a)return(c-b)*d+b;if(0==a)return.5>d?b:c;if(48==a){if("number"===typeof b&&"number"===typeof c){var e=1-d;return(y(e*(b>>>24)+d*(c>>>24))<<24|y(e*(b>>>16&255)+d*(c>>>16&255))<<16|y(e*(b>>>8&255)+d*(c>>>8&255))<<8|y(e*(b&255)+d*(c&255)))>>>0}return.5>d?b:c}if(64==a){0==b.length&&(b=[0]);0==c.length&&(c=[0]);var n=b.length;b.length!=c.length&&
(n=b.length*c.length);var l=[];for(a=0;a<n;++a){var f=b[a%b.length];var h=(c[a%c.length]-f)*d+f;0>h&&(h=0);l.push(h)}return l}if(96==a){if(b.length!=c.length)return.5>d?b:c;n=b.length;l=[];for(a=0;a<n;a+=2){if(b[a]!==c[a])return.5>d?b:c;l[a]=b[a];l[a+1]=[];for(f=0;f<b[a+1].length;++f)l[a+1].push((c[a+1][f]-b[a+1][f])*d+b[a+1][f])}return l}if(80==a){n=b.length;if(n!=c.length)return.5>d?b:c;l=[];for(a=0;a<n;){if(b[a]!=c[a]||1==b[a])return.5>d?b:c;l[a]=b[a];l[a+1]=(c[a+1]-b[a+1])*d+b[a+1];if(5==b[a]){l[a+
2]=(c[a+2]-b[a+2])*d+b[a+2];l[a+3]=(c[a+3]-b[a+3])*d+b[a+3];e=1-d;var g=b[a+4],q=c[a+4];h=e*(g>>>24)+d*(q>>>24);var m=e*(g>>16&255)+d*(q>>16&255);f=e*(g>>8&255)+d*(q>>8&255);e=e*(g&255)+d*(q&255);l[a+4]=(y(m)<<16|y(f)<<8|y(e))+16777216*(y(h)|0);a+=3}a+=2}return l}return 0}function U(a,b){a:{var c=a+b[2];var d=b[4].length;for(var e=0;e<d;++e)if(c<b[4][e]){c=e;break a}c=d-1}d=b[2];e=b[4][c-1]-d;a=(a-e)/(b[4][c]-d-e);if(b[6]&&b[6].length>c-1)if(d=b[6][c-1],1==d[0])if(0>=a)a=0;else if(1<=a)a=1;else{e=
d[1];var n=d[3];a=da(3*e-3*n+1,-6*e+3*n,3*e,-a);a=3*a*(1-a)*(1-a)*d[2]+3*a*a*(1-a)*d[4]+a*a*a}else 2==d[0]?(d=d[1],a=Math.ceil(a*d)/d):3==d[0]&&(d=d[1],a=Math.floor(a*d)/d);return fa(b[1]&240,b[5][c-1],b[5][c],a)}function L(){u||(v=(new Date).getTime()+V)}function O(a){if(a||!E){for(var b=!1,c=0;c<w.length;++c)w[c].J(a)&&(b=!0);if(a)for(;0<I.length;)if(a=I.shift(),c=a[0],1==a[1])c.onfinish&&(c.onfinish(),b=!0),c.I();else if(2==a[1]&&c.onloop)c.onloop();return b}}function W(){L();O(!0)&&!u?(E=!0,M(W)):
E=!1}function N(){E||(E=!0,M(W))}function X(a,b){var c=[];a.split(b).forEach(function(a){c.push(parseFloat(a))});return c}function A(a){-1==a.indexOf(",")&&(a=a.replace(" ",","));return X(a,",")}function Y(a){a._ks||(a._ks={});if(!a._ks.transform){for(var b=a._ks.transform=[],c=0;14>=c;++c)b[c]=0;b[10]=1;b[11]=1;if(a=a.getAttribute("transform")){a=a.trim().split(") ");for(c=a.length-2;0<=c;--c)if(x(a[c],"translate(")){for(var d=0;d<c;d++)a.shift();break}c=a.shift();x(c,"translate(")&&(c=A(c.substring(10)),
b[1]=c[0],b[2]=t(c[1])?c[1]:0,c=a.shift());x(c,"rotate(")&&(c=A(c.substring(7)),b[6]=c[0],c=a.shift());x(c,"skewX(")&&(c=A(c.substring(6)),b[7]=c[0],c=a.shift());x(c,"skewY(")&&(c=A(c.substring(6)),b[8]=c[0],c=a.shift());x(c,"scale(")&&(c=A(c.substring(6)),b[10]=c[0],b[11]=t(c[1])?c[1]:c[0],c=a.shift());x(c,"translate(")&&(c=A(c.substring(10)),b[13]=c[0],b[14]=t(c[1])?c[1]:0)}}}function Z(a){this.l=a;this.A=[];this.C=[];this.v=0;this.s=this.a=this.c=null;this.h=this.f=this.g=0;this.b=1;this.i=this.F=
this.o=!1}function J(a,b,c){b=a[b];void 0===b&&(b=a[c]);return b}function ha(a){return Array.isArray(a)?a:x(a,"cubic-bezier(")?(a=a.substring(13,a.length-1).split(","),[1,parseFloat(a[0]),parseFloat(a[1]),parseFloat(a[2]),parseFloat(a[3])]):x(a,"steps(")?(a=a.substring(6,a.length-1).split(","),[a[1]&&"start"==a[1].trim()?2:3,parseFloat(a[0])]):[0]}function ia(a){a=a.trim();return x(a,"#")?(parseInt(a.substring(1),16)<<8)+255:x(a,"rgba(")?(a=a.substring(5,a.length-1),a=a.split(","),(parseInt(a[0],
10)<<24)+(parseInt(a[1],10)<<16)+(parseInt(a[2],10)<<8)+255*parseFloat(a[3])<<0):a}function aa(a){!1===a.i&&(w.push(a),a.i=!0,!1!==a.l.autoplay&&a.play());return this}function P(a){if(!0===a.i){a._cancel();var b=w.indexOf(a);-1<b&&w.splice(b,1);b=I.indexOf(a);-1<b&&I.splice(b,1);a.i=!1}return this}var Q=Error("Not in timeline list"),ba="mpath posX posY    rotate skewX skewY  scaleX scaleY  anchorX anchorY".split(" "),ja=" translate translate    rotate skewX skewY  scale scale  translate translate".split(" "),
T="none url blur brightness contrast drop-shadow grayscale hue-rotate invert opacity saturate sepia".split(" "),M=window.requestAnimationFrame||window.webkitRequestAnimationFrame||window.mozRequestAnimationFrame||window.oRequestAnimationFrame||window.msRequestAnimationFrame||null;M||(M=function(a){window.setTimeout(a,16)});var S={d:97,fill:48,fillOpacity:16,filter:80,height:33,opacity:16,offsetDistance:33,stroke:48,strokeDasharray:64,strokeDashoffset:32,strokeOpacity:16,strokeWidth:32,transform:1,
width:33},ca=window.getComputedStyle(document.documentElement),E=!1,v=(new Date).getTime(),u,V=0,w=[],I=[];Z.prototype={B:function(a){var b=0;if(null!==this.c){var c=this.j();0<this.b&&null!==c&&c>=this.f?this.h?(this.c=v-this.g/this.b,this.h--,b=2):(b=1,a?this.a=c:this.a=this.s?Math.max(this.s,this.f):this.f):0>this.b&&null!==c&&c<=this.g?this.h&&Infinity!=this.f?(this.c=v-this.f/this.b,this.h--,b=2):(this.h=0,b=1,a?this.a=c:this.a=this.s?Math.min(this.s,this.g):this.g):null!==c&&0!=this.b&&(a&&
null!==this.a&&(this.c=v-this.a/this.b),this.a=null)}this.s=this.j();return b},J:function(a){a&&(this.o&&(this.o=!1,null===this.c&&(0!=this.b&&null!==this.a?(this.c=v-this.a/this.b,this.a=null):this.c=v)),null===this.a&&null!==this.c&&(a=this.B(!1),0!=a&&I.push([this,a])));a=this.j();if(null===a)return!1;for(var b=this.A,c=this.C,d=0;d<b.length;++d){for(var e=b[d],n=!1,l=0;l<c[d].length;++l){var f=c[d][l],h=f[0];if(null!==h){var g=f[2];var q=f[4].length,m=f[4][q-1]-g;g=0==m?f[5][q-1]:a<=g?f[5][0]:
a>=g+f[3]?0==f[3]%m?f[5][q-1]:U(f[3]%m,f):U((a-g)%m,f);0==h?(e._ks.mpath=f[8],e._ks.transform[h]=g,n=!0):14>=h?(e._ks.transform[h]=g,n=!0):(g=ea(f[1]&240,g),f[1]&1?e.setAttribute(h,g):e.style[h]=g)}}if(n){Y(e);n=e._ks.transform;l="";if(f=e._ks.mpath)g=n[0],0>g&&(g=0),100<g&&(g=100),g=g*f[2]/100,h=f[1].getPointAtLength(g),l="translate("+h.x+","+h.y+") ",f[0]&&(.5>g?(g=h,h=f[1].getPointAtLength(.5)):g=f[1].getPointAtLength(g-.5),l+="rotate("+180*Math.atan2(h.y-g.y,h.x-g.x)/Math.PI+") ");for(f=1;f<n.length;++f)h=
n[f],h!=(10==f||11==f?1:0)&&(l+=" "+ja[f]+"(",l=2>=f?l+(1==f?h+",0":"0,"+h):13<=f?l+(13==f?h+",0":"0,"+h):10<=f?l+(10==f?h+",1":"1,"+h):l+h,l+=")");e.setAttribute("transform",l)}}return"running"==this.m()},I:function(){!1!==this.l.autoremove&&"finished"==this.m()&&P(this)},D:function(){if(!this.F){this.F=!0;for(var a=this.A,b=this.C,c=0;c<a.length;++c)for(var d=a[c],e=0;e<b[c].length;++e)14>=b[c][e][0]&&Y(d)}},u:function(a){if("number"==typeof a)return a;if(!t(this.l.markers)||!t(this.l.markers[a]))throw Error("Invalid marker: "+
a);return+this.l.markers[a]},play:function(a){t(a)&&null!==a&&(a=this.u(a),H(a),0>this.b&&a<this.g&&(a=this.g),0<this.b&&a>this.f&&(a=this.f),this.w(a,!0));if(!this.i)throw Q;a=this.j();if(0<this.b&&(null===a||a>=this.f))this.a=this.g;else if(0>this.b&&(null===a||a<=this.g)){if(Infinity==this.f)throw Error("Cannot seek to Infinity");this.a=this.f}else 0==this.b&&null===a&&(this.a=this.g);if(null===this.a)return this;this.c=null;this.o=!0;this.D();N();return this},pause:function(a){if(!this.i)throw Q;
t(a)&&(a=this.u(a),H(a));if("paused"!=this.m()){L();var b=this.j();if(null===b)if(0<=this.b)this.a=this.g;else{if(Infinity==this.f)throw Error("Cannot seek to Infinity");this.a=this.f}null!==this.c&&null===this.a&&(this.a=b);this.c=null;this.o=!1;this.B(!1);this.D();N()}t(a)&&this.w(a,!0);return this},range:function(a,b){if(0==arguments.length)return{"in":this.g,out:this.f};var c=this.u(a),d=this.v;t(b)&&(d=this.u(b));H(c);if(0>c||0>d||c>=d||isNaN(d))throw Error("Invalid range");var e=this.m();this.g=
c;this.f=d;"finished"==e&&"running"==this.m()&&this.play();return this},loop:function(a){if(!t(a))return{count:this.h};this.h=!0===a?Infinity:Math.floor(a);if(0>this.h||isNaN(this.h))this.h=0;return this},j:function(){return null!==this.a?this.a:null===this.c?null:(v-this.c)*this.b},w:function(a,b){b&&L();null!==a&&(this.D(),null!==this.a||null===this.c||0==this.b?(this.a=a,O(!1)):this.c=v-a/this.b,this.i||(this.c=null),this.s=null,this.B(!0),N())},G:function(){return this.j()},time:function(a){if(t(a)){if(!this.i)throw Q;
a=this.u(a);H(a);this.w(a,!0);return this}return this.G()},m:function(){var a=this.j();return this.o?"running":null===a?"idle":null===this.c?"paused":0<this.b&&a>=this.f||0>this.b&&a<=this.g?"finished":"running"},state:function(){return this.m()},duration:function(){return this.v},H:function(a){H(a);L();var b=this.j();this.b=a;null!==b&&this.w(b,!1)},rate:function(a){return t(a)?(this.H(a),this):this.b},marker:function(a){return t(this.l.markers)?this.l.markers[a]:void 0},_cancel:function(){if(!this.i||
"idle"==this.m())return this;this.c=this.a=null;this.o=!1;return this}};return{version:"1.1.0",animate:function(){var a={};if(1==arguments.length%2){a=arguments[arguments.length-1];var b={};for(c in a)b[c]=a[c];a=b}var c=new Z(a);a=arguments;for(var d=b=0;d<a.length-1;d+=2){var e=a[d];var n=e instanceof Element?e:document.getElementById(e.substring(1));if(!n)throw Error("Invalid target: "+e);e=n;n=a[d+1];e._ks||(e._ks={});for(var l=[],f=0;f<n.length;++f){var h=n[f],g=J(h,"p","property");if("string"!=
typeof g||-1!=g.indexOf("-")||""===g||!(0<S[g]||0<=ba.indexOf(g)))throw Error("Invalid property: "+g);var q=ba.indexOf(g);""!==g&&0<=q&&(g=q);q=R(g);var m=J(h,"t","times");if(!m||2>m.length)throw Error("Not enough times");m=m.slice();if(!isFinite(m[0])||0>m[0])throw Error("Invalid time: "+m[0]);for(var B=1;B<m.length;++B)if(!isFinite(m[B])||0>m[B]||m[B]<m[B-1])throw Error("Invalid time: "+m[B]);B=m[0];var v=m[m.length-1]-B,y=h.iterations||0;1>y&&(y=1);v*=y;b<v+B&&(b=v+B);var u=J(h,"v","values");if(!u||
u.length!=m.length)throw Error("Values do not match times");u=u.slice();for(var C=g,k=u,w=R(C)&240,p=0;p<k.length;++p)if(96==w){for(var G=k[p].substring(6,k[p].length-2).match(/[A-DF-Za-df-z][-+0-9eE., ]*/ig),A=[],r=0;r<G.length;++r){A.push(G[r][0]);for(var z=1<G[r].trim().length?G[r].substring(1).split(","):[],F=0;F<z.length;++F)z[F]=parseFloat(z[F]);A.push(z)}k[p]=A}else if(48==w)x(k[p],"#")?(G=9==k[p].length,k[p]=parseInt(k[p].substring(1),16),G||(k[p]=256*k[p]|255)):x(k[p],"url(")||"none"==k[p]||
(console.warn("unsupported color: "+k[p]),k[p]=0);else if(80==w){G=k;A=p;r=k[p];if("none"==r)r=[0];else{z=[];for(var D=r.indexOf("(");0<D;)if(F=T.indexOf(r.substring(0,D)),0<=F){z.push(F);var E=r.indexOf(") ");0>E&&(E=r.length-1);D=r.substring(D+1,E).split(" ");5==F?(z.push(parseFloat(D[0])),z.push(parseFloat(D[1])),z.push(parseFloat(D[2])),z.push(ia(D[3]))):1==F?z.push(D[0]):z.push(parseFloat(D[0]));r=r.substring(E+1).trim();D=r.indexOf("(")}else break;r=z}G[A]=r}else 64==w?"none"!=k[p]?/^[0-9 .]*$/.test(k[p])?
k[p]=X(k[p]," "):(console.warn("unsupported value: "+k[p]),k[p]=[0]):k[p]=[0]:32==w?(H(k[p]),k[p]=parseFloat(k[p])):0===C&&(k[p]=parseFloat(k[p]));C=J(h,"e","easing");k=m.length;for(C||(C=[]);C.length<k;)C.push([1,0,0,.58,1]);for(k=0;k<C.length;++k)C[k]=ha(C[k]);q=[g,q,B,v,m,u,C,y];m=J(h,"mp","motionPath");t(m)&&0===g&&(q[8]=[],q[8][0]=h.motionRotate,h=document.createElementNS("http://www.w3.org/2000/svg","path"),m||(m="M0,0"),h.setAttribute("d",m),q[8][1]=h,q[8][2]=h.getTotalLength());l.push(q)}0<
l.length&&(c.A.push(e),c.C.push(l))}c.v=b;c.g=0;c.f=c.v;aa(c);return c},add:aa,remove:P,removeAll:function(){for(var a=w.length-1;0<=a;--a)P(w[a]);return this},timelines:function(){return w.slice()},globalPlay:function(){u&&(V=u-(new Date).getTime(),u=void 0,N());return this},globalPause:function(){u||(u=v,O(!1));return this},globalState:function(){return u?"paused":"running"}}}();
]]></script><script><![CDATA[if(KeyshapeJS.version.indexOf('1.')!=0)throw Error('Expected KeyshapeJS v1.*.*');window.ks=document.ks=KeyshapeJS;(function(ks){
ks.animate("#anime-red",[{p:'mpath',t:[0,700],v:['0%','100%'],e:[[1,.4,0,1,1],[0]],mp:"M146.6,48.5C146.6,81.8,146.6,113.5,146.6,113.5"},{p:'opacity',t:[0,200],v:[0,1],e:[[1,.4,0,.6,1],[0]]}],
"#anime-yellow",[{p:'mpath',t:[700,1400],v:['0%','100%'],e:[[1,.4,0,.6,1],[0]],mp:"M146.6,36.7L146.6,101.7"},{p:'opacity',t:[700,900],v:[0,1],e:[[1,.4,0,.6,1],[0]]}],
"#anime-green",[{p:'mpath',t:[1400,2100],v:['0%','100%'],e:[[1,.4,0,.6,1],[0]],mp:"M146.5,25.5L146.5,90.5"},{p:'opacity',t:[1400,1600],v:[0,1],e:[[1,.4,0,.6,1],[0]]}],
{autoremove:false}).range(0,2100);
if(document.location.search.substr(1).split('&').indexOf('global=paused')>=0)ks.globalPause()})(KeyshapeJS);
]]></script></svg>