<svg xmlns="http://www.w3.org/2000/svg" viewBox="0 0 1200 900"><style>@keyframes a0_do{0%{stroke-dashoffset:0px}100%{stroke-dashoffset:74px}}@keyframes a1_do{0%{stroke-dashoffset:0px}100%{stroke-dashoffset:74px}}</style><path fill="#fafafa" stroke="#d4d4d4" stroke-width="3" stroke-dasharray="10" d="M177.2 330.8h842.4V885H177.2z"></path><g fill="none" fill-rule="evenodd"><g fill-rule="nonzero"><path d="M989.9 389.61v22.6H210.2v-22.6c0-3.164 2.486-5.65 5.65-5.65h768.4c3.164 0 5.65 2.486 5.65 5.65z" fill="#353535"></path><path fill="#a3a3a3" d="M218.11 390.74h4.52v4.52h-4.52zm6.78 0h4.52v4.52h-4.52zm6.78 0h4.52v4.52h-4.52z"></path></g><path d="M215.155 352.073v16.067h-3.31v-16.067h3.31zm2.792 4.127h3.001l.1 1.38q1.28-1.6 3.431-1.6 1.899 0 2.825 1.114.927 1.114.95 3.332v7.714h-3.19v-7.636q0-1.016-.441-1.474-.441-.457-1.468-.457-1.346 0-2.02 1.147v8.42h-3.188V356.2zm12.26 6.014v-.132q0-2.748 1.307-4.425 1.308-1.678 3.526-1.678 1.964 0 3.057 1.347l.132-1.126h2.892v11.543q0 1.567-.712 2.725-.712 1.16-2.003 1.766-1.291.607-3.024.607-1.313 0-2.56-.524t-1.887-1.352l1.413-1.942q1.191 1.335 2.89 1.335 1.27 0 1.976-.679.706-.678.706-1.925v-.64q-1.103 1.247-2.902 1.247-2.152 0-3.482-1.683t-1.33-4.464zm3.189.1q0 1.622.651 2.543t1.788.921q1.456 0 2.085-1.092v-5.021q-.64-1.092-2.063-1.092-1.148 0-1.805.938-.656.937-.656 2.802zm16.928-6.191l-.044 3.067q-.651-.088-1.148-.088-1.81 0-2.373 1.225v7.813h-3.189V356.2h3.013l.088 1.423q.96-1.644 2.66-1.644.53 0 .993.144zm6.775 12.238q-2.626 0-4.276-1.611-1.65-1.612-1.65-4.293v-.31q0-1.798.696-3.216.695-1.418 1.97-2.185 1.274-.767 2.907-.767 2.45 0 3.857 1.545t1.407 4.381v1.302h-7.603q.154 1.17.932 1.876.778.707 1.97.707 1.843 0 2.88-1.336l1.567 1.755q-.717 1.015-1.942 1.583-1.225.569-2.715.569zm-.364-9.8q-.949 0-1.54.64-.59.64-.755 1.832h4.436v-.253q-.022-1.06-.574-1.64-.552-.579-1.567-.579zm13.551 6.28q0-.585-.579-.922-.58-.337-1.86-.601-4.259-.894-4.259-3.62 0-1.589 1.319-2.654 1.318-1.065 3.448-1.065 2.274 0 3.636 1.07 1.363 1.071 1.363 2.782h-3.189q0-.685-.441-1.132-.442-.447-1.38-.447-.805 0-1.247.365-.441.364-.441.927 0 .53.502.855.502.325 1.694.563 1.192.237 2.008.535 2.527.927 2.527 3.211 0 1.633-1.401 2.643-1.402 1.01-3.62 1.01-1.5 0-2.665-.536-1.164-.535-1.826-1.467-.662-.933-.662-2.014h3.024q.044.85.629 1.302.584.452 1.567.452.915 0 1.384-.347.47-.348.47-.91zm11.62 0q0-.585-.579-.922-.58-.337-1.86-.601-4.259-.894-4.259-3.62 0-1.589 1.319-2.654t3.448-1.065q2.274 0 3.636 1.07 1.363 1.071 1.363 2.782h-3.189q0-.685-.441-1.132-.442-.447-1.38-.447-.805 0-1.247.365-.441.364-.441.927 0 .53.502.855.502.325 1.694.563 1.192.237 2.008.535 2.527.927 2.527 3.211 0 1.633-1.401 2.643-1.402 1.01-3.62 1.01-1.5 0-2.665-.536-1.164-.535-1.826-1.467-.662-.933-.662-2.014h3.024q.044.85.629 1.302.584.452 1.567.452.915 0 1.384-.347.47-.348.47-.91z" fill="#4a4a4a"></path></g><g fill="none" fill-rule="evenodd"><g fill-rule="nonzero"><path d="M689.32 545.54v22.6H210.2v-22.6c0-3.164 2.486-5.65 5.65-5.65h467.82c3.164 0 5.65 2.486 5.65 5.65z" fill="#d2d2d2"></path><path fill="#a3a3a3" d="M218.11 546.67h4.52v4.52h-4.52zm6.78 0h4.52v4.52h-4.52zm6.78 0h4.52v4.52h-4.52z"></path></g><g fill-rule="nonzero" transform="matrix(1.13 0 0 1.13 427.16 412.2)"><path fill="#9eebcf" d="M7-1v114H4V-1z"></path><circle cx="5.5" cy="-1.5" stroke="#9eebcf" stroke-width="3" fill="#fff" r="6.5"></circle><path fill="#9eebcf" d="M5.5 117L0 109h11z"></path></g><g fill-rule="nonzero" transform="matrix(1.13 0 0 1.13 317.55 568.14)"><path fill="#9eebcf" d="M7-1v86H4V-1z"></path><circle cx="5.5" cy="-1.5" stroke="#9eebcf" stroke-width="3" fill="#fff" r="6.5"></circle><path fill="#9eebcf" d="M5.5 89L0 81h11z"></path></g><path d="M436.2 855.273c0 1.13-.678 2.147-1.582 2.147H211.782c-.904 0-1.582-1.017-1.582-2.147V669.84c0-3.164 2.486-5.65 5.65-5.65h214.7c3.164 0 5.65 2.486 5.65 5.65v185.433z" fill="#ff003c"></path><path d="M215.85 664.19h214.7c3.164 0 5.65 2.486 5.65 5.65v20.34h-226v-20.34c0-3.164 2.486-5.65 5.65-5.65z" fill="#ccc"></path><path d="M229.41 678.315a5.064 5.064 0 01-5.085 5.085 5.064 5.064 0 01-5.085-5.085 5.064 5.064 0 015.085-5.085 5.064 5.064 0 015.085 5.085" fill="#e74c3c"></path><path d="M247.49 678.315a5.064 5.064 0 01-5.085 5.085 5.064 5.064 0 01-5.085-5.085 5.064 5.064 0 015.085-5.085 5.064 5.064 0 015.085 5.085" fill="#f1c40f"></path><path d="M264.44 678.315a5.064 5.064 0 01-5.085 5.085 5.064 5.064 0 01-5.085-5.085 5.064 5.064 0 015.085-5.085 5.064 5.064 0 015.085 5.085" fill="#2ecc71"></path><path d="M217.847 642.709h-2.902v5.661h-3.31v-16.067h6.268q1.81 0 3.183.662 1.374.662 2.113 1.881.74 1.22.74 2.776 0 2.361-1.617 3.724t-4.475 1.363zm-2.902-7.725v5.043h2.958q1.313 0 2.002-.618.69-.618.69-1.765 0-1.18-.695-1.91-.695-.728-1.92-.75h-3.035zm10.417 7.45v-.144q0-1.777.684-3.167.685-1.39 1.97-2.152 1.286-.762 2.985-.762 2.417 0 3.945 1.479 1.529 1.479 1.705 4.017l.022.816q0 2.748-1.534 4.409-1.533 1.66-4.116 1.66-2.582 0-4.121-1.655-1.54-1.655-1.54-4.502zm3.19.087q0 1.7.64 2.6.64.899 1.831.899 1.159 0 1.81-.889.651-.888.651-2.841 0-1.667-.65-2.583-.652-.916-1.833-.916-1.17 0-1.81.91-.64.911-.64 2.82zm9.589-.21q0-2.791 1.253-4.446 1.252-1.656 3.426-1.656 1.743 0 2.88 1.302v-6.091h3.2v16.95h-2.88l-.154-1.269q-1.192 1.49-3.068 1.49-2.108 0-3.382-1.661-1.275-1.66-1.275-4.618zm3.19.232q0 1.678.584 2.572.585.893 1.7.893 1.478 0 2.085-1.246v-4.713q-.596-1.246-2.063-1.246-2.307 0-2.307 3.74zm23.283-10.262v16.089h-3.189v-12.293l-3.807 1.18v-2.593l6.654-2.383h.342z" fill="#4a4a4a"></path><g fill-rule="nonzero" transform="matrix(1.13 0 0 1.13 570.67 568.14)"><path fill="#9eebcf" d="M7-1v86H4V-1z"></path><circle cx="5.5" cy="-1.5" stroke="#9eebcf" stroke-width="3" fill="#fff" r="6.5"></circle><path fill="#9eebcf" d="M5.5 89L0 81h11z"></path></g><path d="M689.32 855.273c0 1.13-.678 2.147-1.582 2.147H464.902c-.904 0-1.582-1.017-1.582-2.147V669.84c0-3.164 2.486-5.65 5.65-5.65h214.7c3.164 0 5.65 2.486 5.65 5.65v185.433z" fill="#ff003c"></path><path d="M468.97 664.19h214.7c3.164 0 5.65 2.486 5.65 5.65v20.34h-226v-20.34c0-3.164 2.486-5.65 5.65-5.65z" fill="#ccc"></path><path d="M482.53 678.315a5.064 5.064 0 01-5.085 5.085 5.064 5.064 0 01-5.085-5.085 5.064 5.064 0 015.085-5.085 5.064 5.064 0 015.085 5.085" fill="#e74c3c"></path><path d="M500.61 678.315a5.064 5.064 0 01-5.085 5.085 5.064 5.064 0 01-5.085-5.085 5.064 5.064 0 015.085-5.085 5.064 5.064 0 015.085 5.085" fill="#f1c40f"></path><path d="M517.56 678.315a5.064 5.064 0 01-5.085 5.085 5.064 5.064 0 01-5.085-5.085 5.064 5.064 0 015.085-5.085 5.064 5.064 0 015.085 5.085" fill="#2ecc71"></path><path d="M470.967 642.709h-2.902v5.661h-3.31v-16.067h6.268q1.81 0 3.183.662 1.374.662 2.113 1.881.74 1.22.74 2.776 0 2.361-1.617 3.724t-4.475 1.363zm-2.902-7.725v5.043h2.958q1.313 0 2.002-.618.69-.618.69-1.765 0-1.18-.695-1.91-.695-.728-1.92-.75h-3.035zm10.417 7.45v-.144q0-1.777.684-3.167.685-1.39 1.97-2.152 1.286-.762 2.985-.762 2.417 0 3.945 1.479 1.529 1.479 1.705 4.017l.022.816q0 2.748-1.534 4.409-1.533 1.66-4.116 1.66-2.582 0-4.121-1.655-1.54-1.655-1.54-4.502zm3.19.087q0 1.7.64 2.6.64.899 1.831.899 1.159 0 1.81-.889.651-.888.651-2.841 0-1.667-.65-2.583-.652-.916-1.833-.916-1.17 0-1.81.91-.64.911-.64 2.82zm9.589-.21q0-2.791 1.253-4.446 1.252-1.656 3.426-1.656 1.743 0 2.88 1.302v-6.091h3.2v16.95h-2.88l-.154-1.269q-1.192 1.49-3.068 1.49-2.108 0-3.382-1.661-1.275-1.66-1.275-4.618zm3.19.232q0 1.678.584 2.572.585.893 1.7.893 1.478 0 2.085-1.246v-4.713q-.596-1.246-2.063-1.246-2.307 0-2.307 3.74zM521 645.8v2.571h-11.013v-2.185l5.197-5.54q1.07-1.17 1.584-2.041.513-.872.513-1.655 0-1.07-.54-1.683-.542-.613-1.546-.613-1.081 0-1.705.745-.623.745-.623 1.959h-3.2q0-1.468.7-2.682.701-1.213 1.981-1.903 1.28-.69 2.902-.69 2.483 0 3.857 1.192t1.374 3.366q0 1.191-.618 2.427t-2.119 2.88l-3.652 3.852H521zM221.301 514.834v2.67h-6.356v6.566h-3.31v-16.067h10.46v2.681h-7.15v4.15h6.356zm8.972-2.781l-.044 3.067q-.651-.088-1.148-.088-1.81 0-2.372 1.225v7.813h-3.19v-11.94h3.013l.088 1.423q.96-1.644 2.66-1.644.53 0 .993.144zm.596 6.08v-.143q0-1.777.684-3.167t1.97-2.152q1.285-.762 2.985-.762 2.417 0 3.945 1.479t1.705 4.017l.022.816q0 2.748-1.534 4.409-1.534 1.66-4.116 1.66t-4.122-1.655q-1.54-1.655-1.54-4.502zm3.189.088q0 1.7.64 2.6.64.899 1.832.899 1.159 0 1.81-.889.65-.888.65-2.841 0-1.667-.65-2.583-.651-.916-1.832-.916-1.17 0-1.81.91-.64.911-.64 2.82zm10.02-6.091h3.001l.1 1.38q1.28-1.6 3.432-1.6 1.898 0 2.825 1.114.927 1.114.949 3.332v7.714h-3.19v-7.636q0-1.016-.44-1.474-.442-.457-1.468-.457-1.347 0-2.02 1.147v8.42h-3.19v-11.94zm13.352-2.935h3.19v2.935h2.041v2.34h-2.041v5.958q0 .663.253.95.254.286.972.286.53 0 .938-.077v2.417q-.938.287-1.932.287-3.354 0-3.42-3.388v-6.434h-1.744v-2.339h1.743v-2.935zm13.21 6.709v2.571h-6.213v-2.571h6.213zm8.055 8.387q-2.626 0-4.276-1.611-1.65-1.612-1.65-4.293v-.31q0-1.798.696-3.216.695-1.418 1.97-2.185 1.274-.767 2.907-.767 2.45 0 3.857 1.545t1.407 4.381v1.302h-7.603q.154 1.17.932 1.876.778.707 1.97.707 1.843 0 2.88-1.336l1.567 1.755q-.717 1.015-1.942 1.583-1.225.569-2.715.569zm-.364-9.8q-.949 0-1.54.64-.59.64-.755 1.832h4.436v-.253q-.022-1.06-.574-1.64-.552-.579-1.567-.579zm7.018-2.361h3.002l.1 1.38q1.28-1.6 3.431-1.6 1.898 0 2.825 1.114.927 1.114.95 3.332v7.714h-3.19v-7.636q0-1.016-.441-1.474-.442-.457-1.468-.457-1.346 0-2.02 1.147v8.42h-3.189v-11.94zm12.227 5.882q0-2.792 1.253-4.447 1.252-1.656 3.426-1.656 1.744 0 2.88 1.302v-6.091h3.2v16.95h-2.88l-.154-1.269q-1.192 1.49-3.068 1.49-2.108 0-3.382-1.661-1.275-1.66-1.275-4.618zm3.19.231q0 1.678.584 2.572.585.893 1.7.893 1.479 0 2.085-1.246v-4.713q-.595-1.246-2.063-1.246-2.306 0-2.306 3.74zm22.136 2.527q0-.584-.58-.92-.579-.338-1.859-.602-4.26-.894-4.26-3.62 0-1.589 1.32-2.654 1.318-1.065 3.448-1.065 2.273 0 3.636 1.07 1.363 1.071 1.363 2.782h-3.19q0-.685-.44-1.132-.442-.447-1.38-.447-.806 0-1.247.365-.442.364-.442.927 0 .53.503.855.502.325 1.693.563 1.192.237 2.009.535 2.527.927 2.527 3.211 0 1.633-1.402 2.643-1.401 1.01-3.62 1.01-1.5 0-2.664-.536-1.164-.535-1.826-1.467-.662-.933-.662-2.014h3.023q.044.85.63 1.302.584.452 1.566.452.916 0 1.385-.347.47-.348.47-.91zm10.649 3.52q-2.626 0-4.276-1.61-1.65-1.612-1.65-4.293v-.31q0-1.798.695-3.216.696-1.418 1.97-2.185 1.275-.767 2.908-.767 2.45 0 3.857 1.545t1.407 4.381v1.302h-7.604q.155 1.17.933 1.876.778.707 1.97.707 1.843 0 2.88-1.336l1.567 1.755q-.717 1.015-1.942 1.583-1.225.569-2.715.569zm-.364-9.799q-.95 0-1.54.64-.59.64-.755 1.832h4.436v-.253q-.022-1.06-.574-1.64-.552-.579-1.567-.579zm13.838-2.438l-.044 3.067q-.651-.088-1.148-.088-1.81 0-2.372 1.225v7.813h-3.19v-11.94h3.013l.088 1.423q.96-1.644 2.66-1.644.53 0 .993.144zm3.94.077l2.218 8.045 2.218-8.045h3.332l-4.028 11.94h-3.045l-4.028-11.94h3.332zm12.535 0v11.94h-3.2v-11.94h3.2zm-3.387-3.09q0-.717.48-1.18.48-.464 1.307-.464.817 0 1.302.463.486.464.486 1.181 0 .728-.491 1.192-.491.463-1.297.463-.805 0-1.296-.463-.491-.464-.491-1.192zm10.98 12.68q.882 0 1.434-.486.552-.486.574-1.291h2.99q-.01 1.214-.662 2.223-.65 1.01-1.782 1.567-1.13.558-2.5.558-2.56 0-4.038-1.628-1.479-1.628-1.479-4.497v-.21q0-2.758 1.468-4.403 1.468-1.644 4.028-1.644 2.24 0 3.592 1.275 1.351 1.274 1.374 3.393H373.1q-.022-.927-.574-1.506-.552-.58-1.456-.58-1.115 0-1.683.812-.569.81-.569 2.631v.332q0 1.842.563 2.648t1.71.806zm12.315 2.57q-2.627 0-4.276-1.61-1.65-1.612-1.65-4.293v-.31q0-1.798.695-3.216.695-1.418 1.97-2.185 1.274-.767 2.908-.767 2.45 0 3.856 1.545 1.407 1.545 1.407 4.381v1.302h-7.603q.155 1.17.933 1.876.778.707 1.97.707 1.842 0 2.88-1.336l1.567 1.755q-.718 1.015-1.943 1.583-1.224.569-2.714.569zm-.364-9.799q-.95 0-1.54.64-.59.64-.756 1.832h4.436v-.253q-.022-1.06-.573-1.64-.552-.579-1.567-.579z" fill="#4a4a4a"></path></g><g fill="none"><path d="M981.9 545.55v22.6h-226v-22.6c0-3.164 2.486-5.65 5.65-5.65h214.7c3.164 0 5.65 2.486 5.65 5.65z" fill="#d2d2d2"></path><path fill="#a3a3a3" d="M763.81 546.68h4.52v4.52h-4.52zm6.78 0h4.52v4.52h-4.52zm6.78 0h4.52v4.52h-4.52z"></path></g><g fill="none" transform="matrix(1.13 0 0 1.13 863.3 412.2)"><path fill="#9eebcf" d="M7-1v114H4V-1z"></path><circle cx="5.5" cy="-1.5" stroke="#9eebcf" stroke-width="3" fill="#fff" r="6.5"></circle><path fill="#9eebcf" d="M5.5 117L0 109h11z"></path></g><g fill="none" fill-rule="evenodd"><g fill-rule="nonzero" transform="matrix(1.13 0 0 1.13 863.25 568.1)"><path fill="#9eebcf" d="M7-1v86H4V-1z"></path><circle cx="5.5" cy="-1.5" stroke="#9eebcf" stroke-width="3" fill="#fff" r="6.5"></circle><path fill="#9eebcf" d="M5.5 89L0 81h11z"></path></g><path d="M981.9 855.233c0 1.13-.678 2.147-1.582 2.147H757.482c-.904 0-1.582-1.017-1.582-2.147V669.8c0-3.164 2.486-5.65 5.65-5.65h214.7c3.164 0 5.65 2.486 5.65 5.65v185.433z" fill="#e3cebc"></path><path d="M887.093 786.868l2.147-5.311c2.26-.113 4.52-.452 6.554-1.13l3.842 4.294c.678.791 1.808 1.017 2.712.452l2.486-1.469 2.373-1.469c.904-.565 1.243-1.695.904-2.712l-2.26-5.311c1.582-1.582 2.938-3.503 3.955-5.537l5.65.339c1.13.113 2.034-.678 2.26-1.695l.678-2.712.678-2.825c.226-1.017-.339-2.034-1.356-2.486l-5.311-2.26c0-2.26-.452-4.407-1.13-6.554l4.407-3.729c.791-.678.904-1.808.339-2.712l-1.469-2.373-1.469-2.486c-.565-.904-1.695-1.243-2.712-.791l-5.311 2.147c-1.582-1.469-3.39-2.825-5.424-3.842l.339-5.65c.113-1.017-.565-2.034-1.695-2.26l-2.712-.678-2.825-.565c-1.017-.339-2.034.226-2.486 1.243l-2.26 5.311c-2.26.113-4.407.452-6.554 1.13l-3.729-4.294c-.678-.791-1.808-.904-2.712-.452l-2.486 1.582-2.373 1.469c-.904.565-1.243 1.695-.904 2.599l2.26 5.424c-1.469 1.582-2.712 3.277-3.729 5.198l-5.763-.339c-1.017-.113-2.034.678-2.26 1.695l-.678 2.712-.678 2.825c-.226 1.017.339 2.034 1.356 2.486l5.311 2.26c0 2.26.339 4.407 1.017 6.554l-4.294 3.729c-.791.791-1.017 1.921-.452 2.825l1.582 2.373 1.469 2.373c.565.904 1.695 1.356 2.599.904l5.311-2.147c1.695 1.469 3.39 2.825 5.424 3.842l-.339 5.763c-.113 1.017.565 2.034 1.695 2.26l2.712.565 2.825.678c1.017.226 2.034-.339 2.486-1.243zm4.407-41.019c6.667 1.582 10.848 8.249 9.266 15.029-1.469 6.667-8.249 10.848-14.916 9.266-6.667-1.582-10.848-8.249-9.266-14.916 1.469-6.78 8.249-10.961 14.916-9.379zm-30.058 68.817l.565-3.503c1.356-.339 2.599-.904 3.729-1.582l2.938 2.034c.565.452 1.243.339 1.695-.113l1.243-1.243 1.243-1.243c.452-.452.452-1.13.113-1.695l-2.034-2.825c.678-1.243 1.243-2.486 1.582-3.955l3.39-.565c.678-.113 1.13-.678 1.13-1.243v-3.503c0-.678-.452-1.243-1.13-1.356l-3.503-.565c-.339-1.356-.904-2.599-1.582-3.729l2.147-2.938c.339-.452.339-1.243-.226-1.695l-1.13-1.243-1.243-1.13c-.452-.565-1.243-.565-1.695-.226l-2.938 2.147a15.42 15.42 0 00-3.729-1.582l-.678-3.39c0-.678-.565-1.13-1.243-1.13h-3.503c-.678 0-1.243.452-1.356 1.13l-.565 3.503c-1.356.339-2.599.904-3.729 1.582l-2.825-2.034c-.565-.452-1.356-.339-1.808.113l-1.243 1.243-1.13 1.243c-.452.452-.565 1.13-.226 1.695l2.147 2.825c-.678 1.13-1.243 2.373-1.582 3.729l-3.503.565c-.565.113-1.017.678-1.017 1.356v3.503c0 .565.452 1.13 1.017 1.243l3.503.565c.339 1.356.904 2.599 1.582 3.842l-2.034 2.825c-.339.565-.339 1.243.113 1.695l1.243 1.243 1.243 1.243c.452.452 1.13.565 1.695.113l2.938-2.034c1.13.678 2.373 1.243 3.729 1.582l.565 3.503c.113.678.678 1.13 1.356 1.13h3.503c.565-.113 1.13-.565 1.243-1.13zm-3.051-25.199c4.181 0 7.684 3.503 7.684 7.684 0 4.294-3.503 7.684-7.684 7.684s-7.684-3.39-7.684-7.684c0-4.181 3.503-7.684 7.684-7.684zm-17.741-9.04l.452-3.39c1.243-.339 2.486-.904 3.616-1.582l2.825 1.921c.452.339 1.243.226 1.582-.226l1.243-1.13 1.13-1.243c.452-.452.452-1.13.113-1.695l-2.034-2.712c.565-1.13 1.13-2.373 1.356-3.729l3.39-.678c.565-.113 1.017-.678 1.017-1.243v-1.695l-.113-1.695c0-.678-.452-1.243-1.13-1.243l-3.39-.565a12.324 12.324 0 00-1.582-3.503l1.921-2.825c.339-.565.339-1.243-.113-1.695l-1.243-1.13-1.243-1.13c-.452-.452-1.13-.452-1.695-.113l-2.712 2.034c-1.13-.565-2.373-1.13-3.616-1.356l-.678-3.277c-.113-.678-.678-1.13-1.243-1.13l-1.695.113h-1.695c-.678 0-1.243.452-1.243 1.13l-.565 3.39a12.324 12.324 0 00-3.503 1.582l-2.825-1.921c-.565-.339-1.243-.226-1.695.226l-1.13 1.243-1.13 1.13c-.452.452-.452 1.243-.113 1.695l2.034 2.712c-.565 1.13-1.13 2.373-1.356 3.616l-3.39.678c-.565.113-1.017.678-1.017 1.243v1.695l.113 1.695c0 .678.452 1.13 1.13 1.243l3.277.452c.452 1.356.904 2.486 1.582 3.616l-1.808 2.825c-.452.565-.339 1.243.113 1.695l1.243 1.13 1.243 1.13a1.21 1.21 0 001.582.113l2.712-2.034c1.13.678 2.373 1.13 3.729 1.469l.678 3.277c.113.678.565 1.13 1.243 1.017h3.39c.565-.113 1.13-.565 1.243-1.13zm-3.616-24.182c4.181-.113 7.571 3.164 7.571 7.232.113 4.068-3.051 7.458-7.119 7.571-4.181.113-7.571-3.164-7.571-7.232-.113-4.068 3.051-7.458 7.119-7.571z" fill="#6c431e" fill-rule="nonzero"></path><path d="M761.55 664.15h214.7c3.164 0 5.65 2.486 5.65 5.65v20.34h-226V669.8c0-3.164 2.486-5.65 5.65-5.65z" fill="#ccc"></path><path d="M775.11 678.275a5.064 5.064 0 01-5.085 5.085 5.064 5.064 0 01-5.085-5.085 5.064 5.064 0 015.085-5.085 5.064 5.064 0 015.085 5.085" fill="#e74c3c"></path><path d="M793.19 678.275a5.064 5.064 0 01-5.085 5.085 5.064 5.064 0 01-5.085-5.085 5.064 5.064 0 015.085-5.085 5.064 5.064 0 015.085 5.085" fill="#f1c40f"></path><path d="M810.14 678.275a5.064 5.064 0 01-5.085 5.085 5.064 5.064 0 01-5.085-5.085 5.064 5.064 0 015.085-5.085 5.064 5.064 0 015.085 5.085" fill="#2ecc71"></path><path d="M763.547 642.669h-2.902v5.661h-3.31v-16.067h6.268q1.81 0 3.183.662 1.374.662 2.113 1.881.74 1.22.74 2.776 0 2.361-1.617 3.724t-4.475 1.363zm-2.902-7.725v5.043h2.958q1.313 0 2.002-.618.69-.618.69-1.765 0-1.18-.695-1.91-.695-.728-1.92-.75h-3.035zm10.417 7.45v-.144q0-1.777.684-3.167.685-1.39 1.97-2.152 1.286-.762 2.985-.762 2.417 0 3.945 1.479 1.529 1.479 1.705 4.017l.022.816q0 2.748-1.534 4.409-1.533 1.66-4.116 1.66-2.582 0-4.121-1.655-1.54-1.655-1.54-4.502zm3.19.087q0 1.7.64 2.6.64.899 1.831.899 1.159 0 1.81-.889.651-.888.651-2.841 0-1.667-.65-2.583-.652-.916-1.833-.916-1.17 0-1.81.91-.64.911-.64 2.82zm9.589-.21q0-2.791 1.253-4.446 1.252-1.656 3.426-1.656 1.743 0 2.88 1.302v-6.091h3.2v16.95h-2.88l-.154-1.269q-1.192 1.49-3.068 1.49-2.108 0-3.382-1.661-1.275-1.66-1.275-4.618zm3.19.232q0 1.678.584 2.572.585.893 1.7.893 1.478 0 2.085-1.246v-4.713q-.596-1.246-2.063-1.246-2.307 0-2.307 3.74zm18.55-1.445l-2.539-.63.927-8.165h9.005v2.66h-6.39l-.397 3.453q1.137-.607 2.417-.607 2.295 0 3.597 1.424 1.303 1.423 1.303 3.984 0 1.556-.657 2.786t-1.882 1.909q-1.224.679-2.89.679-1.457 0-2.704-.59-1.247-.591-1.97-1.661-.723-1.07-.767-2.44h3.156q.1 1.005.7 1.562.602.558 1.573.558 1.082 0 1.666-.778.585-.778.585-2.202 0-1.368-.673-2.097-.673-.728-1.909-.728-1.136 0-1.843.596l-.309.287z" fill="#4a4a4a"></path></g><path d="M763.58 524.07h-6.245v-16.067h5.627q2.925 0 4.437 1.12 1.511 1.12 1.511 3.283 0 1.18-.606 2.08-.607.9-1.689 1.319 1.236.309 1.948 1.247.712.938.712 2.295 0 2.317-1.48 3.51-1.478 1.19-4.215 1.213zm.1-6.996h-3.035v4.337h2.836q1.17 0 1.826-.558.657-.557.657-1.54 0-2.206-2.284-2.24zm-3.035-6.39v4.05h2.45q2.505-.044 2.505-1.997 0-1.093-.635-1.573-.634-.48-2.003-.48h-2.317zm21.044 13.386h-3.222q-.22-.43-.32-1.07-1.159 1.29-3.013 1.29-1.754 0-2.907-1.015-1.154-1.015-1.154-2.56 0-1.898 1.407-2.913t4.067-1.026h1.467v-.684q0-.828-.424-1.325-.425-.496-1.341-.496-.806 0-1.264.386-.458.386-.458 1.06h-3.189q0-1.038.64-1.92.64-.884 1.81-1.386 1.17-.502 2.626-.502 2.207 0 3.504 1.11 1.297 1.108 1.297 3.117v5.175q.01 1.7.474 2.571v.188zm-5.86-2.218q.707 0 1.303-.315.596-.314.882-.844v-2.052h-1.191q-2.395 0-2.55 1.655l-.01.188q0 .595.419.982.42.386 1.147.386zm12.801-.132q.883 0 1.435-.486t.574-1.291h2.99q-.01 1.214-.662 2.223-.651 1.01-1.782 1.567-1.131.558-2.5.558-2.56 0-4.038-1.628-1.48-1.628-1.48-4.497v-.21q0-2.758 1.469-4.403 1.467-1.644 4.027-1.644 2.24 0 3.592 1.275 1.352 1.274 1.374 3.393h-2.99q-.022-.927-.574-1.506-.552-.58-1.457-.58-1.114 0-1.683.812-.568.81-.568 2.631v.332q0 1.842.563 2.648t1.71.806zm14.225 2.35l-3.068-4.79-1.148 1.148v3.642h-3.189v-16.95h3.19v9.39l.617-.794 3.057-3.586h3.83l-4.316 4.977 4.69 6.963h-3.663zm9.942.22q-2.626 0-4.276-1.61-1.65-1.612-1.65-4.293v-.31q0-1.798.696-3.216.695-1.418 1.97-2.185 1.274-.767 2.907-.767 2.45 0 3.857 1.545t1.407 4.381v1.302h-7.603q.154 1.17.932 1.876.778.707 1.97.707 1.843 0 2.88-1.336l1.567 1.755q-.717 1.015-1.942 1.583-1.225.569-2.715.569zm-.364-9.799q-.949 0-1.54.64-.59.64-.755 1.832h4.436v-.253q-.022-1.06-.574-1.64-.552-.579-1.567-.579zm7.018-2.361h3.002l.1 1.38q1.28-1.6 3.431-1.6 1.898 0 2.825 1.114.927 1.114.95 3.332v7.714h-3.19v-7.636q0-1.016-.441-1.474-.442-.457-1.468-.457-1.346 0-2.02 1.147v8.42h-3.189v-11.94zm12.227 5.882q0-2.792 1.253-4.447 1.252-1.656 3.426-1.656 1.744 0 2.88 1.302v-6.091h3.2v16.95h-2.88l-.154-1.269q-1.192 1.49-3.068 1.49-2.107 0-3.382-1.661-1.275-1.66-1.275-4.618zm3.19.231q0 1.678.584 2.572.585.893 1.7.893 1.479 0 2.086-1.246v-4.713q-.596-1.246-2.064-1.246-2.306 0-2.306 3.74zm22.136 2.527q0-.584-.58-.92-.579-.338-1.859-.602-4.26-.894-4.26-3.62 0-1.589 1.32-2.654 1.318-1.065 3.448-1.065 2.273 0 3.636 1.07 1.363 1.071 1.363 2.782h-3.19q0-.685-.44-1.132-.442-.447-1.38-.447-.806 0-1.247.365-.441.364-.441.927 0 .53.502.855.502.325 1.694.563 1.191.237 2.008.535 2.527.927 2.527 3.211 0 1.633-1.401 2.643-1.402 1.01-3.62 1.01-1.5 0-2.665-.536-1.164-.535-1.826-1.467-.662-.933-.662-2.014h3.023q.044.85.63 1.302.584.452 1.566.452.916 0 1.385-.347.47-.348.47-.91zm10.649 3.52q-2.626 0-4.276-1.61-1.65-1.612-1.65-4.293v-.31q0-1.798.695-3.216.696-1.418 1.97-2.185 1.275-.767 2.908-.767 2.45 0 3.857 1.545t1.407 4.381v1.302h-7.604q.155 1.17.933 1.876.778.707 1.97.707 1.843 0 2.88-1.336l1.567 1.755q-.717 1.015-1.942 1.583-1.225.569-2.715.569zm-.364-9.799q-.95 0-1.54.64-.59.64-.755 1.832h4.436v-.253q-.022-1.06-.574-1.64-.552-.579-1.567-.579zm13.838-2.438l-.044 3.067q-.651-.088-1.148-.088-1.81 0-2.372 1.225v7.813h-3.19v-11.94h3.013l.088 1.423q.96-1.644 2.66-1.644.53 0 .993.144zm3.94.077l2.218 8.045 2.218-8.045h3.332l-4.028 11.94h-3.045l-4.028-11.94h3.333zm12.535 0v11.94h-3.2v-11.94h3.2zm-3.387-3.09q0-.717.48-1.18.48-.464 1.307-.464.817 0 1.302.463.486.464.486 1.181 0 .728-.491 1.192-.491.463-1.297.463-.805 0-1.296-.463-.491-.464-.491-1.192zm10.98 12.68q.882 0 1.434-.486.552-.486.574-1.291h2.99q-.01 1.214-.662 2.223-.65 1.01-1.782 1.567-1.13.558-2.5.558-2.56 0-4.038-1.628-1.479-1.628-1.479-4.497v-.21q0-2.758 1.468-4.403 1.468-1.644 4.028-1.644 2.24 0 3.592 1.275 1.351 1.274 1.374 3.393h-2.991q-.022-.927-.574-1.506-.552-.58-1.456-.58-1.115 0-1.683.812-.569.81-.569 2.631v.332q0 1.842.563 2.648t1.71.806zm12.315 2.57q-2.627 0-4.276-1.61-1.65-1.612-1.65-4.293v-.31q0-1.798.695-3.216.695-1.418 1.97-2.185 1.275-.767 2.908-.767 2.45 0 3.857 1.545t1.407 4.381v1.302h-7.604q.155 1.17.933 1.876.778.707 1.97.707 1.842 0 2.88-1.336l1.567 1.755q-.718 1.015-1.942 1.583-1.225.569-2.715.569zm-.364-9.799q-.95 0-1.54.64-.59.64-.756 1.832h4.437v-.253q-.023-1.06-.574-1.64-.552-.579-1.567-.579z" fill="#4a4a4a" fill-rule="evenodd"></path><g fill="#4a4a4a" fill-rule="evenodd" transform="matrix(1.13 0 0 1.13 25.5 603.5)" style="white-space:pre">PORT:32766</g><g fill="none" fill-rule="evenodd"><g fill="#b8e986"><path d="M595.47 404.26l-40.68-73.45h81.36z"></path><path d="M584.17 256.23h22.6v127.69h-22.6z"></path></g><g fill-rule="nonzero"><path d="M449.7 256.23v-79.552c0-1.695 1.469-3.164 3.164-3.164h61.359c1.243-.452.791-.791.565-1.13-3.955-6.441-6.441-13.447-7.458-21.131-2.26-17.402 2.712-32.431 14.577-45.426.678-.791 1.243-1.469 2.034-2.147.565-.565.565-.565 0-1.13-1.808-1.695-3.503-3.616-4.859-5.876-3.164-4.972-4.972-10.396-5.085-16.385 0-1.469.226-1.695 1.582-1.017 1.469.678 2.938 1.356 4.52 1.808.226-2.599-.113-4.746-.113-7.006 0-.791-.113-1.582 0-2.373 0-1.13.339-1.356 1.356-.791a38.624 38.624 0 004.859 2.373c1.017.452 1.017.452.904-.678a35.44 35.44 0 010-8.475c.226-1.13.791-1.356 1.13-1.017.226.226.452.565.678.791 3.503 4.407 7.345 8.249 11.978 11.413 4.068 2.712 8.475 4.181 13.334 4.181 3.729.113 7.232-.678 10.622-2.034 3.164-1.13 6.328-2.486 9.605-3.164 3.277-.678 6.667-1.017 10.057-.226 5.65 1.356 9.492 5.085 11.978 10.283.904 2.034 1.356 4.068 1.695 6.215.113.904.113.904 1.017.791 4.972-.339 9.718.452 14.012 3.051 5.198 3.051 8.136 7.797 9.266 13.56.791 4.294.565 8.588-.113 12.882-.565 3.39-1.469 6.667-2.486 9.831-.339.791-.452.791.565 1.13 4.972 1.695 8.136 5.198 9.04 10.396 1.243 7.232-3.277 13.56-9.944 15.142a10.86 10.86 0 01-3.842.339c-.452-.113-.678.226-.791.678a63.611 63.611 0 01-3.842 10.057c-3.277 6.441-7.571 11.978-12.995 16.724-1.243.904-1.356 1.356-1.13 2.034.678 1.808 1.243 3.616 1.808 5.311 3.616 11.413 7.345 22.713 10.961 34.126.339.791.678 1.13 1.469 1.243 3.616.791 5.876 3.051 6.78 6.554.226.791.339 1.582.452 2.373.904-.565 1.243-1.017 1.808-1.469 1.469-1.243 3.164-1.582 5.085-.904 1.808.678 2.938 2.034 3.277 4.068.113.678.226.791.904.904 3.164.565 5.085 3.616 3.955 6.667-.226.791-.113 1.356.452 2.034 1.356 1.582 2.147 3.616 2.486 5.763.113.904 0 .904 1.017.904h18.645c0-1.921-.565-3.39-.904-4.972-2.147.113-3.616.452-4.972.904-.791.339-1.243.113-1.356-.339-.113-.452.226-.678.904-.904 1.356-.452 2.712-.791 3.955-1.243 1.356-.339 1.13-.113 1.13-1.469 0-.678-.226-.791-.565-.791h-6.554c-1.13-.113-1.356-.339-1.356-.678.904-.678 1.13-.565 1.356-.565h6.441c.565 0 .791-.226.904-.791.226-1.582.226-1.582-1.243-2.034-1.356-.339-2.599-.791-3.842-1.13-1.017-.339-1.13-.678-1.13-1.017 1.017-.452 1.356-.339 1.582-.226 1.582.452 3.051.904 4.633 1.356 2.034-3.164 3.842-5.424 6.215-7.119.452-.339.565-.678.565-1.243v-13.899c.113-.678.565-.904 1.017-.565 4.52 4.181 8.475 7.797 12.317 11.413 1.017 1.017.678 1.017 1.921.113a24.455 24.455 0 0128.25 0c1.017.791.791 1.017 1.921-.113 3.955-3.616 7.91-7.232 11.865-10.961.339-.226.678-.791 1.243-.565.678.226.452.791.452 1.243v20.34c0 1.356 0 1.356 1.243.904 1.017-.226 2.034-.565 3.164-.904 1.582.678 1.469.904 1.017 1.13l-2.599.791-2.26.678c-.678 1.017-.678 1.695-.565 2.373 3.277.226 5.198.226 7.232.226 1.13.113 1.356.339 1.243.678-.791.678-1.13.678-1.356.678h-6.328c-.904 0-.904 0-.904.791 0 1.469-.113 1.13 1.13 1.469 1.13.452 2.486.678 3.729 1.13 1.017.452 1.13.678 1.017 1.13-2.712-.226-3.842-.565-5.198-.904-.678 1.808-.678 3.164-.678 4.52 0 .452.113.678.678.678h19.549c.452 0 1.017 0 1.469.226v.904c-1.13.226-1.469.226-1.808.226H449.7z" fill="#151d38"></path><path d="M502.132 248.32v-.113h50.398c1.13 0 1.13 0 1.13-1.13v-70.173c0-1.13-.678-1.921-1.921-2.034h-98.536c-1.695.113-2.373.791-2.373 2.373v69.947c0 1.13 0 1.13 1.13 1.13h50.172z" fill="#ccd6da"></path><path d="M534.676 173.514h16.498c1.695 0 2.938 1.017 3.277 2.599.113.339.113.678.113 1.13v18.758c0 1.017.113 1.017.904 1.017 6.554.904 13.108.452 19.549-1.243 14.69-3.842 25.764-12.43 33.335-25.538 2.26-3.729 3.842-7.684 4.972-11.865.226-.904.226-.904-.452-1.13-.452-.113-.904-.226-1.243-.339-.791-.339-1.017-.565-.904-1.017.113-.565.565-.565 1.356-.339 2.147.791 4.294 1.017 6.554.565 6.667-1.243 10.961-8.023 9.266-14.69-1.808-6.667-8.814-10.509-15.255-8.249-.339 0-.565.226-.904.226-.339.113-.565-.113-.678-.339-.113-.339 0-.565.226-.791a.863.863 0 01.565-.226c.452-.226.904-.339 1.356-.452.113-.113.226-.113.339-.226.113-.226-.113-.226-.339-.226-.113-.113-.339-.113-.565-.226a41.88 41.88 0 01-9.605-4.633c-5.424-3.616-9.605-8.136-12.317-14.125-1.243-2.825-2.034-5.763-2.599-8.814-.113-.904-.113-.904-.904-.565-.226.226-.452.339-.791.452-3.955 2.373-8.023 4.407-12.43 5.989-9.266 3.503-18.871 4.972-28.702 3.164-6.78-1.243-13.221-3.729-18.758-8.023-.791-.452-.791-.452-1.356.113-4.972 4.859-9.04 10.396-11.865 16.724-4.52 9.944-5.876 20.227-4.181 31.075 1.13 7.232 3.729 14.012 7.571 20.227.452.791 1.017 1.13 1.921 1.13 5.311-.113 10.622-.113 16.046-.113z" fill="#fae0d6"></path><path d="M554.79 223.46v24.521c0 .565.226.791.791.791h17.289c1.017 0 1.13.113 1.13 1.017v4.52c0 .678-.113.791.678.791h17.402c.678 0 .791-.226.791-.678.226-1.695.678-3.277 1.582-4.633.339-.565.339-1.017.113-1.582l-2.712-8.475c-2.26-6.893-4.52-13.899-6.78-20.792 0-.226-.113-.452-.226-.678 0-.452.113-.791.565-.791.339-.113.565 0 .791.339 0 .113 0 .339.113.452 1.582 4.859 3.164 9.831 4.746 14.69 1.469 4.633 2.938 9.266 4.52 13.899.226.791.226.791.791.226 1.695-1.582 3.616-2.599 5.763-3.164.678-.113.791-.113.565-.791-.339-1.469-.791-3.051-1.13-4.52-1.017-4.633 1.808-9.266 6.215-10.396.339-.113.565-.113.904-.226.339 0 .452-.226.339-.565-.113-.226-.113-.339-.226-.452-3.503-11.074-7.119-22.035-10.622-33.109l-2.034-6.102c-.113-.452-.339-.678-.678-.226a1.56 1.56 0 01-.452.339 45.61 45.61 0 01-9.605 5.65c-6.554 3.051-13.56 4.859-20.792 5.085-3.051.113-6.215.113-9.153-.339-.565-.113-.678.113-.678.565v24.634z" fill="#fff3a2"></path><path d="M698.978 254.987h19.775c1.017 0 1.017 0 1.017-.904v-33.448c0-.226.113-.452-.113-.565-.226-.113-.339.226-.565.339-2.373 2.26-4.859 4.52-7.345 6.78-1.469 1.356-2.938 2.825-4.407 4.181-.678.565-.791.565-1.469.113-.226-.226-.339-.339-.565-.452-3.503-2.712-7.458-4.294-11.978-4.633-5.876-.452-11.187 1.13-15.933 4.859-1.017.791-1.017.791-2.034-.113l-.113-.113-10.848-10.17c-.226-.226-.452-.791-.904-.565-.226.113-.113.565-.113.904v11.865c0 .565 0 1.017-.565 1.356-6.554 4.407-8.023 13.108-4.294 19.775.339.678.791.904 1.582.904h14.351c.339 0 .791.113.904-.226.113-.226-.339-.452-.565-.678-2.373-2.599-3.051-5.537-2.034-8.814.904-3.277 3.277-5.311 6.554-5.989.678-.226 1.356-.339 2.034-.226.339 0 .565.226.565.678 0 .339-.226.565-.565.565-.452.113-.791.113-1.13.113-3.164.452-5.876 2.825-6.441 5.876a7.537 7.537 0 003.39 8.023c.678.452 1.356.678 2.26.678 6.667-.113 13.108-.113 19.549-.113z" fill="#c27659"></path><path d="M502.245 249.45c-9.266.113-18.532.113-27.685.113h-23.052c-.452 0-.678.113-.678.565v2.373c0 1.469 0 1.469 1.695 1.469h38.759c20.227 0 40.454-.113 60.681-.113h.791c.678 0 .904-.226.904-.791v-3.051c0-.452-.226-.565-.678-.565h-50.737zm112.435 5.65h19.775c.452 0 .565-.113.565-.565a11.348 11.348 0 00-2.034-5.311c-.226-.226-.339-.226-.452.113-.113.113-.113.339-.226.452-1.469 3.164-5.085 4.068-7.797 1.808-.452-.452-.791-.452-1.356-.226-1.695.678-3.277.452-4.746-.565-1.582-1.13-2.26-2.599-2.147-4.633.113-.678 0-.678-.565-.565-1.356.452-2.712.226-3.955-.452-.226-.226-.565-.226-.904-.226h-6.215c-4.746.113-8.814 3.503-10.057 8.249-.113.452-.226.904-.226 1.469 0 .339.113.452.452.452h19.888z" fill="#ccd6da"></path><path d="M606.77 243.009h2.486c.339 0 .452-.113.339-.452-.904-2.373-1.017-4.972-1.582-7.458-.113-.565.113-.904.452-1.017.452-.113.791.226.904.791l.339 1.695c.226 1.469.452 2.938.791 4.407.452 1.921 2.373 3.164 4.52 2.712 2.034-.339 3.277-2.034 3.051-4.068-.339-1.695-.565-3.39-1.017-4.972-.904-3.729-4.859-6.102-8.814-5.424-3.842.678-6.554 4.407-5.876 8.023.339 1.695.904 3.39 1.243 5.198.113.339.339.565.791.565h2.373zm11.3 3.729c.113 1.356.452 2.373 1.469 3.051 2.147 1.582 5.085.791 5.989-1.695.904-2.373 1.695-4.859 2.486-7.232.113-.339.113-.565.226-.904.113-1.808-.904-3.39-2.712-3.955-1.695-.452-3.616.226-4.407 1.808-.565 1.13-1.017 2.26-1.243 3.503-.113.904-.339 1.808-.791 2.599a7.135 7.135 0 00-1.017 2.825z" fill="#fae0d6"></path><path d="M563.604 253.97h8.475c.452-.113.791-.226.791-.678v-3.39c0-.339-.226-.452-.452-.452h-16.837c-.565 0-.791.226-.791.678v3.051c0 .791 0 .791.904.791h7.91z" fill="#ccd6da"></path><path d="M632.76 245.382c0-2.034-1.356-3.503-3.277-3.729-.904-.226-1.017-.113-1.243.565-.565 1.469-1.017 2.825-1.582 4.181-.452 1.243-.678 2.599-1.695 3.729-.339.339 0 .565.226.791 2.034 1.469 5.085.791 6.215-1.469.452-1.017.791-2.147 1.243-3.277.113-.339.113-.678.113-.791z" fill="#fae0d6"></path><path d="M515.24 212.386c-.339 5.537-3.729 9.605-8.814 10.735-6.441 1.582-12.769-2.938-13.673-9.492-.791-5.65 2.825-11.3 8.588-12.656 1.243-.226 1.356-.226 1.582 1.017.791 4.294 3.616 7.458 7.797 8.475 1.017.226 1.921.226 2.938.113 1.356-.113 1.469 0 1.582 1.356v.452z" fill="#151d38"></path><path d="M504.166 222.33c.678 0 1.582-.113 2.486-.339 4.068-1.13 7.232-5.085 7.458-9.153 0-1.017 0-1.017-.791-1.017-5.537.113-10.283-3.616-11.413-8.927-.339-1.243-.452-.904-1.243-.678-4.633 1.582-7.571 6.441-6.78 11.526.791 4.859 5.085 8.588 10.283 8.588z" fill="#fff"></path><path d="M553.434 132.382h14.916c2.26 0 4.52 0 6.78.113 1.13 0 1.356.452.904 1.356-3.39 6.328-8.249 10.735-15.255 12.317-7.119 1.469-13.334-.452-18.645-5.537-2.147-1.921-3.729-4.294-4.972-6.893-.113-.339-.339-.565-.339-.791-.226-.565 0-.791.565-1.017h.565c4.407 0 8.814.113 13.221.113.791 0 1.469.113 2.26.113v.226z" fill="#151d38"></path><path d="M557.163 133.286h-4.068c-1.695 0-3.277 0-4.972-.113-2.825-.113-5.763-.113-8.588-.113-.678 0-.678 0-.339.565 1.13 2.034 2.599 3.842 4.294 5.424 4.972 4.407 10.848 6.215 17.402 4.859 6.102-1.13 10.622-4.52 13.899-9.492.565-.904.565-1.017-.565-1.017-5.65 0-11.413-.113-17.063-.113z" fill="#fff"></path><path d="M514.11 139.275c0-3.729 2.825-7.345 7.345-7.345a7.33 7.33 0 017.345 7.345 7.33 7.33 0 01-7.345 7.345 7.33 7.33 0 01-7.345-7.345zm87.01 1.13c.113 3.503-2.825 7.345-7.345 7.345a7.33 7.33 0 01-7.345-7.345c0-4.068 3.164-7.345 7.345-7.345 4.407-.113 7.571 3.616 7.345 7.345z" fill="#e5384a"></path><path d="M531.625 122.89c2.26 0 3.955 1.695 3.955 3.955s-1.695 3.955-3.842 3.955c-2.26 0-4.068-1.695-4.068-3.955 0-2.147 1.695-3.955 3.955-3.955zm50.85 1.13c2.26 0 3.955 1.695 3.955 4.068 0 2.147-1.808 3.842-3.955 3.842-2.147 0-3.955-1.808-3.955-3.955 0-2.26 1.695-3.955 3.955-3.955zm41.245 20.453c0 4.52-4.746 7.797-9.266 6.328-.113-.113-.226-.113-.339-.226-.452-.113-.678-.452-.452-.904.113-.339.452-.452.904-.339.226 0 .452.226.678.226 3.164.791 6.441-1.13 7.006-4.068.678-3.164-1.469-6.102-4.746-6.554-.226 0-.565-.113-.904-.113-.226 0-.452-.339-.452-.565 0-.452.226-.565.565-.678h.791c3.616.452 6.215 3.39 6.215 6.893zm-66.67-21.922c0 .339-.226.452-.565.678-.904.452-1.808.904-2.712 1.469-.339.113-.452.339 0 .565.678.565 1.469 1.13 2.147 1.695.226.113.452.339.565.452.226.226.226.565.113.904-.226.226-.452.226-.791.226a1.56 1.56 0 00-.452-.339c-1.13-.904-2.26-1.695-3.39-2.599-.791-.678-.791-1.13.113-1.695 1.243-.678 2.599-1.356 3.842-2.034.678-.226 1.13 0 1.13.678zm-35.03 2.486c.113-3.277 2.26-5.989 5.311-6.554.339-.113.678-.113 1.017-.113.226.113.452.339.452.565 0 .339-.113.678-.339.791-.339 0-.678.113-.904.113-2.373.565-3.955 2.373-4.181 4.972v.791c-.113.452-.226.678-.678.678-.452 0-.565-.339-.678-.791v-.452zm68.93 0v.791c-.113.339-.339.452-.678.452s-.565-.226-.565-.452v-.678c-.226-2.712-1.921-4.746-4.407-5.311-.226 0-.339 0-.452-.113-.452-.113-.791-.339-.678-.791.113-.565.452-.565.904-.565 1.469.226 2.825.791 3.842 1.808 1.243 1.356 1.921 2.938 2.034 4.859zM691.181 251.71c-1.695-.113-2.938-.565-3.729-1.695-.339-.452-.565-.452-.904 0-1.582 1.921-3.955 2.26-5.763.904-.678-.452-1.243-1.017-1.582-1.808-.113-.339-.226-.904.226-1.13.452-.226.791 0 1.017.452.113.339.339.565.565.904 1.469 1.695 4.068 1.13 4.972-1.017.113-.452.226-.791-.339-.904-.904-.226-1.356-.904-1.921-1.582-.226-.226-.339-.565-.452-.904-.113-.678.113-1.13.791-1.13h5.876c.565 0 .791.452.678 1.13-.339 1.13-1.13 1.695-1.921 2.26-.339.226-.791.226-.904.565 0 .452.226.791.452 1.243 1.243 1.808 3.729 1.808 5.085 0l.339-.678c.226-.339.565-.452.904-.226.339.113.452.452.226.791a4.92 4.92 0 01-1.13 1.808c-.904.678-1.808 1.017-2.486 1.017zm15.029-12.43c1.921 0 3.39 1.469 3.39 3.39s-1.582 3.39-3.503 3.39-3.277-1.582-3.277-3.503 1.469-3.277 3.39-3.277zm-39.55 6.78c-1.921 0-3.39-1.469-3.39-3.39s1.356-3.39 3.277-3.39c2.034 0 3.503 1.469 3.503 3.39s-1.469 3.39-3.39 3.39z" fill="#151d38"></path></g><path d="M627.545 271.803v16.067h-3.31v-16.067h3.31zm2.791 4.127h3.003l.099 1.379q1.28-1.6 3.432-1.6 1.898 0 2.825 1.115.926 1.114.949 3.333v7.713h-3.19v-7.637q0-1.014-.44-1.473-.443-.458-1.47-.458-1.344 0-2.018 1.148v8.42h-3.19v-11.94zm17.69 9.59q.883 0 1.435-.486t.573-1.29h2.991q-.01 1.213-.662 2.222-.652 1.01-1.782 1.567-1.13.557-2.5.557-2.56 0-4.04-1.627-1.477-1.627-1.477-4.497v-.21q0-2.759 1.468-4.403 1.466-1.644 4.027-1.644 2.24 0 3.592 1.275 1.352 1.274 1.374 3.393h-2.99q-.023-.927-.575-1.506t-1.456-.58q-1.114 0-1.683.811-.568.812-.568 2.633v.33q0 1.843.562 2.649.563.806 1.711.806zm6.323-3.587v-.144q0-1.776.684-3.167.684-1.39 1.97-2.151 1.286-.762 2.985-.762 2.416 0 3.944 1.48 1.53 1.477 1.706 4.016l.023.816q0 2.748-1.534 4.41-1.535 1.66-4.117 1.66t-4.121-1.656q-1.54-1.654-1.54-4.502zm3.19.088q0 1.7.64 2.6.64.899 1.831.899 1.16 0 1.81-.889.651-.888.651-2.842 0-1.665-.65-2.582-.652-.915-1.833-.915-1.17 0-1.81.91-.64.91-.64 2.82zm10.086-6.09h2.99l.1 1.334q1.268-1.556 3.431-1.556 2.307 0 3.168 1.821 1.257-1.821 3.586-1.821 1.942 0 2.89 1.131.95 1.131.95 3.405v7.625h-3.2v-7.614q0-1.016-.398-1.485-.397-.469-1.401-.469-1.435 0-1.987 1.369l.012 8.199h-3.19v-7.604q0-1.036-.407-1.5-.41-.464-1.39-.464-1.358 0-1.966 1.126v8.442h-3.188v-11.94zm22.93 0v11.939h-3.2v-11.94h3.2zm-3.388-3.091q0-.718.48-1.181.48-.463 1.308-.463.817 0 1.303.463t.486 1.18q0 .73-.492 1.193-.491.463-1.297.463-.805 0-1.296-.463-.492-.463-.492-1.192zm5.949 3.09h3l.1 1.379q1.28-1.6 3.432-1.6 1.898 0 2.825 1.115.927 1.114.95 3.333v7.713h-3.19v-7.637q0-1.014-.44-1.473-.442-.458-1.47-.458-1.344 0-2.019 1.148v8.42h-3.188v-11.94zm12.26 6.014v-.132q0-2.748 1.307-4.425 1.308-1.678 3.526-1.678 1.964 0 3.057 1.347l.132-1.126h2.892v11.542q0 1.568-.712 2.727-.712 1.158-2.003 1.765-1.291.607-3.024.607-1.313 0-2.56-.525-1.247-.524-1.887-1.351l1.412-1.942q1.192 1.335 2.892 1.335 1.269 0 1.975-.678.706-.679.706-1.926v-.64q-1.104 1.246-2.901 1.246-2.153 0-3.483-1.682-1.329-1.684-1.329-4.464zm3.189.1q0 1.621.65 2.542.652.922 1.788.922 1.458 0 2.086-1.092v-5.021q-.64-1.093-2.063-1.093-1.148 0-1.805.938t-.656 2.803zm-84.122 15.81h3.19v2.936h2.042v2.34h-2.042v5.958q0 .662.254.95.254.286.971.286.53 0 .938-.077v2.416q-.938.287-1.931.287-3.355 0-3.42-3.387v-6.433H622.7v-2.34h1.743v-2.935zm13.761 2.86l-.044 3.066q-.65-.088-1.147-.088-1.81 0-2.373 1.225v7.813h-3.189v-11.94h3.013l.088 1.424q.96-1.645 2.66-1.645.53 0 .993.143zm11.3 12.016h-3.221q-.222-.43-.32-1.07-1.16 1.29-3.013 1.29-1.755 0-2.908-1.014-1.153-1.016-1.153-2.561 0-1.898 1.407-2.913t4.067-1.026h1.467v-.685q0-.827-.425-1.323-.425-.497-1.34-.497-.806 0-1.264.386-.459.387-.459 1.059h-3.188q0-1.037.64-1.92.64-.882 1.81-1.384 1.169-.503 2.625-.503 2.209 0 3.505 1.11 1.296 1.108 1.296 3.117v5.176q.011 1.7.474 2.57v.188zm-5.859-2.218q.707 0 1.302-.314.597-.316.883-.844V307.3h-1.191q-2.396 0-2.55 1.656l-.011.187q0 .597.42.983.418.386 1.147.386zm11.907 2.218h-3.2v-9.6h-1.776v-2.34h1.776v-1.015q0-2.008 1.153-3.118 1.152-1.109 3.228-1.109.662 0 1.621.22l-.032 2.473q-.397-.1-.972-.1-1.798 0-1.798 1.689v.96h2.373v2.34h-2.373v9.6zm8.1 0h-3.2v-9.6h-1.777v-2.34h1.777v-1.015q0-2.008 1.152-3.118 1.153-1.109 3.229-1.109.662 0 1.621.22l-.032 2.473q-.397-.1-.972-.1-1.798 0-1.798 1.689v.96h2.373v2.34h-2.373v9.6zm7.394-11.94v11.94h-3.2v-11.94h3.2zm-3.388-3.09q0-.718.48-1.181.48-.463 1.307-.463.816 0 1.302.463.486.463.486 1.18 0 .73-.491 1.193-.49.463-1.297.463-.805 0-1.297-.463-.49-.463-.49-1.192zm10.98 12.678q.881 0 1.435-.484.55-.486.573-1.29h2.99q-.011 1.213-.661 2.222-.652 1.01-1.783 1.567-1.13.557-2.5.557-2.56 0-4.038-1.627-1.478-1.627-1.478-4.497v-.21q0-2.759 1.466-4.403 1.47-1.644 4.029-1.644 2.24 0 3.592 1.275 1.352 1.274 1.373 3.393h-2.99q-.023-.927-.574-1.506t-1.457-.58q-1.114 0-1.683.811-.568.812-.568 2.633v.33q0 1.843.563 2.649t1.711.806z" fill="#7da159"></path></g><path d="M323.7 684.796V554.055H123.351V291.556h476.634l-4.52-35.256" stroke-dasharray="12" style="animation:1s linear infinite both a0_do" stroke="#f5a623" stroke-width="14.69" fill="none" fill-rule="evenodd"></path><path d="M576.81 684.796V554.055H123.454V291.556h472.001V256.3" stroke-dasharray="12" style="animation:1s linear infinite both a1_do" stroke="#f5a623" stroke-width="14.69" fill="none" fill-rule="evenodd"></path></svg>