<svg viewBox="0 0 1200 900" fill="none" xmlns="http://www.w3.org/2000/svg"><path fill="#fff" d="M0 0h1200v900H0z"></path><path fill-rule="evenodd" clip-rule="evenodd" d="M1143 823.416c0 4.333-2.54 7.844-5.68 7.844H336.68c-3.138 0-5.68-3.511-5.68-7.844V157.3c0-11.211 9.089-20.3 20.3-20.3h771.4c11.21 0 20.3 9.089 20.3 20.3v666.116z" fill="#D4EEB9"></path><path d="M331 157.3c0-11.211 9.089-20.3 20.3-20.3h771.4c11.21 0 20.3 9.089 20.3 20.3v73.08H331V157.3z" fill="#CCC"></path><path fill-rule="evenodd" clip-rule="evenodd" d="M400.02 187.75c0 10.091-8.179 18.27-18.27 18.27s-18.27-8.179-18.27-18.27 8.179-18.27 18.27-18.27 18.27 8.179 18.27 18.27" fill="#E74C3C"></path><path fill-rule="evenodd" clip-rule="evenodd" d="M464.98 187.75c0 10.091-8.179 18.27-18.27 18.27s-18.27-8.179-18.27-18.27 8.179-18.27 18.27-18.27 18.27 8.179 18.27 18.27" fill="#F1C40F"></path><path fill-rule="evenodd" clip-rule="evenodd" d="M525.88 187.75c0 10.091-8.179 18.27-18.27 18.27s-18.27-8.179-18.27-18.27 8.179-18.27 18.27-18.27 18.27 8.179 18.27 18.27" fill="#2ECC71"></path><rect x="390" y="530" width="694" height="247" rx="8" fill="#EEF6E4" stroke="#6FA636" stroke-width="4"></rect><rect x="390" y="265" width="694" height="247" rx="3" fill="#EEF6E4" stroke="#6FA536" stroke-width="4"></rect><path d="M662.044 670.464c-4.8 0-8.64-1.44-11.4-4.2-2.76-2.76-4.08-6.72-4.08-11.64 0-5.04 1.32-9.12 3.84-12 2.52-2.88 6-4.32 10.44-4.32 4.08 0 7.32 1.2 9.72 3.72 2.4 2.52 3.6 5.88 3.6 10.32v3.6h-20.76c.12 3 .96 5.28 2.4 6.96 1.44 1.68 3.72 2.4 6.48 2.4 1.8 0 3.6-.12 5.16-.48s3.24-.96 5.16-1.68v5.4c-1.56.72-3.24 1.32-4.92 1.68-1.68.36-3.6.24-5.64.24zm-1.32-27.12c-2.16 0-3.84.72-5.04 2.04-1.2 1.32-2.04 3.24-2.28 5.88h14.16c0-2.52-.6-4.56-1.8-5.88-1.2-1.32-2.88-2.04-5.04-2.04zm27.48 26.64h-6.6v-43.8h6.6v43.8zm28.92 0l-1.32-4.32h-.24c-1.44 1.92-3 3.24-4.56 3.84-1.56.6-3.48 1.08-5.88 1.08-3 0-5.4-.84-7.2-2.52-1.8-1.68-2.52-3.96-2.52-6.96 0-3.24 1.2-5.64 3.6-7.2 2.4-1.56 6-2.52 10.92-2.64l5.4-.12v-1.68c0-2.04-.48-3.48-1.44-4.44-.96-.96-2.4-1.44-4.32-1.44-1.56 0-3.12.24-4.56.72-1.44.48-2.88 1.08-4.2 1.68l-2.16-4.68c1.68-.84 3.48-1.56 5.52-2.04 2.04-.48 3.84-.72 5.64-.72 3.96 0 6.96.84 9 2.64 2.04 1.8 3 4.44 3 8.16v20.64h-4.68zm-9.84-4.56c2.4 0 4.32-.72 5.76-2.04 1.44-1.32 2.16-3.24 2.16-5.64v-2.64l-3.96.12c-3.12.12-5.4.6-6.84 1.56-1.44.96-2.16 2.4-2.16 4.32 0 1.44.36 2.52 1.2 3.24.84.72 2.16 1.08 3.84 1.08zm44.64-4.32c0 3-1.08 5.4-3.36 6.96-2.28 1.56-5.4 2.4-9.48 2.4-4.2 0-7.44-.6-9.96-1.92v-5.76c3.6 1.68 7.08 2.52 10.2 2.52 4.08 0 6.12-1.2 6.12-3.72 0-.84-.24-1.44-.72-1.92s-1.2-1.08-2.28-1.68c-1.08-.6-2.52-1.2-4.32-1.92-3.6-1.44-6-2.76-7.32-4.2-1.32-1.44-1.92-3.24-1.92-5.4 0-2.64 1.08-4.68 3.24-6.24 2.16-1.56 5.04-2.16 8.76-2.16 3.6 0 7.08.72 10.32 2.28l-2.16 4.92c-3.36-1.44-6.12-2.04-8.52-2.04-3.48 0-5.28.96-5.28 3 0 .96.48 1.8 1.32 2.52.84.72 2.88 1.56 6 2.76 2.52.96 4.44 1.92 5.64 2.76 1.2.84 2.04 1.8 2.64 2.88.84 1.2 1.08 2.4 1.08 3.96zm18.72 4.08c1.56 0 3.24-.24 4.8-.72v4.92c-.72.36-1.68.6-2.88.84s-2.4.36-3.6.36c-6.24 0-9.36-3.36-9.36-9.84v-16.8h-4.2v-2.88l4.56-2.4 2.28-6.6h4.08v6.96h8.88v5.04h-8.88v16.68c0 1.56.36 2.76 1.2 3.48.84.72 1.92.96 3.12.96zm10.68-34.56c0-1.2.36-2.04.96-2.76.6-.72 1.56-.96 2.76-.96 1.2 0 2.04.36 2.76.96.72.6.96 1.56.96 2.76 0 1.08-.36 2.04-.96 2.64-.6.6-1.56.96-2.76.96-1.2 0-2.16-.36-2.76-.96-.6-.6-.96-1.56-.96-2.64zm7.08 39.36h-6.6v-31.08h6.6v31.08zm21.96.48c-4.68 0-8.28-1.32-10.68-4.08-2.4-2.76-3.72-6.72-3.72-11.88 0-5.28 1.32-9.24 3.84-12.12 2.52-2.88 6.24-4.2 11.04-4.2 3.24 0 6.24.6 8.88 1.8l-2.04 5.28c-2.76-1.08-5.04-1.68-6.96-1.68-5.4 0-8.04 3.6-8.04 10.68 0 3.48.72 6.12 2.04 7.92 1.32 1.8 3.36 2.64 5.88 2.64 3 0 5.76-.72 8.4-2.16v5.76c-1.2.72-2.4 1.2-3.84 1.44s-2.88.6-4.8.6zm36.84-9.36c0 3-1.08 5.4-3.36 6.96-2.28 1.56-5.4 2.4-9.48 2.4-4.2 0-7.44-.6-9.96-1.92v-5.76c3.6 1.68 7.08 2.52 10.2 2.52 4.08 0 6.12-1.2 6.12-3.72 0-.84-.24-1.44-.72-1.92s-1.2-1.08-2.28-1.68c-1.08-.6-2.52-1.2-4.32-1.92-3.6-1.44-6-2.76-7.32-4.2-1.32-1.44-1.92-3.24-1.92-5.4 0-2.64 1.08-4.68 3.24-6.24 2.16-1.56 5.04-2.16 8.76-2.16 3.6 0 7.08.72 10.32 2.28l-2.16 4.92c-3.36-1.44-6.12-2.04-8.52-2.04-3.48 0-5.28.96-5.28 3 0 .96.48 1.8 1.32 2.52.84.72 2.88 1.56 6 2.76 2.52.96 4.44 1.92 5.64 2.76 1.2.84 2.04 1.8 2.64 2.88.84 1.2 1.08 2.4 1.08 3.96zm20.76 9.36c-4.8 0-8.64-1.44-11.4-4.2-2.76-2.76-4.08-6.72-4.08-11.64 0-5.04 1.32-9.12 3.84-12 2.52-2.88 6-4.32 10.44-4.32 4.08 0 7.32 1.2 9.72 3.72 2.4 2.52 3.6 5.88 3.6 10.32v3.6h-20.76c.12 3 .96 5.28 2.4 6.96 1.44 1.68 3.72 2.4 6.48 2.4 1.8 0 3.6-.12 5.16-.48s3.24-.96 5.16-1.68v5.4c-1.56.72-3.24 1.32-4.92 1.68-1.68.36-3.48.24-5.64.24zm-1.2-27.12c-2.16 0-3.84.72-5.04 2.04-1.2 1.32-2.04 3.24-2.28 5.88h14.16c0-2.52-.6-4.56-1.8-5.88-1.2-1.32-3-2.04-5.04-2.04zm40.2 26.64l-1.32-4.32h-.24c-1.44 1.92-3 3.24-4.56 3.84-1.56.6-3.48 1.08-5.88 1.08-3 0-5.4-.84-7.2-2.52-1.8-1.68-2.52-3.96-2.52-6.96 0-3.24 1.2-5.64 3.6-7.2 2.4-1.56 6-2.52 10.92-2.64l5.4-.12v-1.68c0-2.04-.48-3.48-1.44-4.44-.96-.96-2.4-1.44-4.32-1.44-1.56 0-3.12.24-4.56.72-1.44.48-2.88 1.08-4.2 1.68l-2.16-4.68c1.68-.84 3.48-1.56 5.52-2.04 2.04-.48 3.84-.72 5.64-.72 3.96 0 6.96.84 9 2.64 2.04 1.8 3 4.44 3 8.16v20.64h-4.68zm-9.84-4.56c2.4 0 4.32-.72 5.76-2.04 1.44-1.32 2.16-3.24 2.16-5.64v-2.64l-3.96.12c-3.12.12-5.4.6-6.84 1.56-1.44.96-2.16 2.4-2.16 4.32 0 1.44.36 2.52 1.2 3.24.84.72 2.28 1.08 3.84 1.08zm39.6-27.12c1.32 0 2.4.12 3.24.24l-.6 6.12c-.96-.24-1.92-.36-2.88-.36-2.64 0-4.8.84-6.48 2.64-1.68 1.8-2.52 3.96-2.52 6.72v16.32h-6.6v-31.08h5.16l.84 5.52h.36c1.08-1.8 2.4-3.36 4.08-4.44 1.68-1.08 3.48-1.68 5.4-1.68zm21.6 32.16c-4.68 0-8.28-1.32-10.68-4.08-2.4-2.76-3.72-6.72-3.72-11.88 0-5.28 1.32-9.24 3.84-12.12 2.52-2.88 6.24-4.2 11.04-4.2 3.24 0 6.24.6 8.88 1.8l-2.04 5.28c-2.76-1.08-5.04-1.68-6.96-1.68-5.4 0-8.04 3.6-8.04 10.68 0 3.48.72 6.12 2.04 7.92 1.32 1.8 3.36 2.64 5.88 2.64 3 0 5.76-.72 8.4-2.16v5.76c-1.2.72-2.4 1.2-3.84 1.44s-2.88.6-4.8.6zm43.316-.48h-6.596v-19.2c0-2.4-.48-4.2-1.44-5.4-.96-1.2-2.52-1.8-4.56-1.8-2.76 0-4.8.84-6.12 2.52-1.32 1.68-1.92 4.44-1.92 8.28v15.6h-6.6v-43.8h6.6v11.16c0 1.8-.12 3.72-.36 5.76h.48c.96-1.44 2.16-2.64 3.72-3.48 1.56-.84 3.48-1.2 5.64-1.2 7.56 0 11.276 3.84 11.276 11.4v20.16h-.12z" fill="#000"></path><path d="M586.345 627.776h-46.111c.221 1.103.662 2.206.883 3.089 1.544 5.295 2.426 10.81 2.868 16.547.22 2.206.22 4.633.22 6.839 0 2.206 0 4.633-.22 6.84-.442 5.736-1.324 11.252-2.868 16.547-.221 1.103-.662 2.206-.883 3.088h46.111c14.562 0 26.255-11.914 26.255-26.475 0-14.561-11.693-26.475-26.255-26.475z" fill="#00A9E5"></path><path d="M543.985 661.091c.22-2.207.22-4.634.22-6.84 0-2.206 0-4.633-.22-6.839-.442-5.737-1.324-11.252-2.868-16.547-.221-1.104-.662-2.207-.883-3.089h-71.263c-2.647 8.384-3.971 17.209-3.971 26.475 0 9.266 1.324 18.092 3.971 26.475h71.263c.221-1.103.662-2.206.883-3.088 1.544-5.295 2.426-10.811 2.868-16.547z" fill="#353535"></path><path d="M594.287 689.551h-57.363a90.539 90.539 0 01-5.957 11.252c-3.309 5.516-7.28 10.37-11.693 15.003-1.544 1.544-3.089 2.868-4.633 4.412-3.089 2.869-6.619 5.296-10.149 7.722 13.899 9.267 30.667 14.562 48.538 14.562 30.667 0 57.584-15.665 73.469-39.272-8.163-8.384-19.636-13.679-32.212-13.679z" fill="#00BFB3"></path><path d="M530.967 700.803a90.539 90.539 0 005.957-11.252H472.28c6.84 15.665 18.092 29.123 32.433 38.389 3.53-2.426 6.839-4.853 10.149-7.722 1.544-1.323 3.088-2.868 4.633-4.412 4.192-4.413 8.163-9.487 11.472-15.003z" fill="#019B8F"></path><path d="M519.274 592.696c-1.544-1.545-3.089-2.868-4.633-4.413-3.089-2.868-6.619-5.295-10.149-7.722-14.12 9.267-25.372 22.725-32.432 38.389h64.644a90.815 90.815 0 00-5.957-11.252c-3.089-5.515-7.06-10.59-11.473-15.002z" fill="#F9B110"></path><path d="M553.03 566c-17.871 0-34.639 5.295-48.538 14.561 3.53 2.427 6.839 4.854 10.149 7.722 1.544 1.324 3.088 2.869 4.633 4.413 4.412 4.633 8.384 9.487 11.693 15.003a90.673 90.673 0 015.957 11.252h57.363c12.576 0 24.049-5.295 32.212-13.679C610.614 581.665 583.697 566 553.03 566z" fill="#FED10A"></path><path d="M604.149 441.359a9.074 9.074 0 01-6.403-2.644l-53.42-53.419v46.83c0 4.957-4.048 9.027-9.027 9.027-4.978 0-9.027-3.822-9.027-9.027v-68.582a9.049 9.049 0 015.578-8.345c3.367-1.405 7.23-.62 9.832 1.962l53.42 53.419v-47.036c0-4.958 4.048-9.027 9.027-9.027 4.978 0 9.027 4.049 9.027 9.027v68.582c0 4.957-4.049 9.027-9.027 9.027l.02.206zm41.769-86.966l-2.479 4.627-19.211 34.869-2.479 4.4 2.479 4.4 19.211 33.733 2.582 4.628h50.197l2.479-5.082 14.336-28.879 6.404-13.096h-14.543l-36.666.103c-4.751-.062-9.151 4.255-9.151 9.027 0 4.772 4.379 9.089 9.151 9.027l22.103-.103-5.412 10.948h-28.383l-14.109-24.83 14.212-25.718h30.242l7.024 14.46h18.178l-11.444-27.432-2.479-5.082h-52.262.02zm91.408-.103c-4.751.062-8.965 4.42-8.883 9.13v23.549h18.055V363.42c.062-4.792-4.132-9.192-9.131-9.13h-.041zm28.961 87.069c-4.957 0-9.027-4.048-9.027-9.027v-68.643c0-4.958 4.049-9.028 9.027-9.028 4.979 0 9.027 4.049 9.027 9.028v47.036l53.42-53.419a9.044 9.044 0 019.832-1.963 9.029 9.029 0 015.578 8.346v68.85c0 4.957-4.049 9.027-9.027 9.027-4.979 0-9.027-4.049-9.027-9.027v-47.057l-53.42 53.419a9.033 9.033 0 01-6.403 2.644l.02-.186zm144.683-43.318l28.093-27.969c3.512-3.512 3.512-9.234.021-12.766-3.491-3.533-9.234-3.512-12.766-.021l-28.094 28.032-28.093-28.032c-3.512-3.512-9.255-3.512-12.767.021-3.511 3.532-3.511 9.254.021 12.766l28.094 27.969-28.073 27.888c-3.512 3.511-3.512 9.233-.021 12.766 1.694 1.714 3.987 2.685 6.197 2.685 2.211 0 4.607-.868 6.363-2.644l28.031-27.949 28.032 27.949a9.009 9.009 0 006.362 2.644c2.376 0 4.628-.888 6.198-2.685 3.511-3.512 3.511-9.234-.021-12.766l-27.99-27.888h.413zm-174.057 43.256c-4.751-.062-8.965-4.42-8.883-9.13v-37.803h18.055v37.762c.062 4.792-4.132 9.192-9.131 9.13" fill="#090"></path><path d="M987.575 584.925c4.101 4.1 10.749 4.1 14.845 0l66.83-66.822c4.1-4.1 4.1-10.749 0-14.849-4.1-4.101-10.75-4.101-14.85 0L995 562.651l-59.397-59.397c-4.1-4.101-10.749-4.101-14.849 0-4.101 4.1-4.101 10.749 0 14.849l66.821 66.822zM984.5 485v92.5h21V485h-21z" fill="#F9B110"></path><path fill-rule="evenodd" clip-rule="evenodd" d="M984.5 35V25h21v10h-21zm0 40V55h21v20h-21zm0 40V95h21v20h-21zm0 40v-20h21v20h-21zm0 40v-20h21v20h-21zm0 40v-20h21v20h-21zm0 40v-20h21v20h-21zm0 40v-20h21v20h-21zm0 40v-20h21v20h-21zm0 40v-20h21v20h-21zm0 40v-20h21v20h-21zm0 40v-20h21v20h-21z" fill="#F9B110"></path><path d="M137.586 113.383c.401-3.828.62-7.474.656-10.938.073-3.427.055-6.817-.054-10.172a325.282 325.282 0 00-.383-10.171 248.34 248.34 0 01-.328-10.883c.109-.51.237-.893.382-1.149.183-.291.638-.364 1.368-.218.765.182 1.221.62 1.367 1.312.146.656.182 1.404.109 2.242a29.652 29.652 0 01-.328 2.516c-.146.838-.146 1.513 0 2.023a281.135 281.135 0 013.719-2.625 30.894 30.894 0 014.101-2.406 17.888 17.888 0 014.43-1.586 10.288 10.288 0 014.594-.055c1.896.438 3.208 1.094 3.937 1.97.766.838 1.058 1.822.875 2.952-.146 1.094-.656 2.315-1.531 3.664-.875 1.313-1.951 2.644-3.227 3.993a50.339 50.339 0 01-4.265 3.992 118.712 118.712 0 01-4.594 3.664 81.196 81.196 0 01-4.211 2.898c-1.276.839-2.297 1.459-3.062 1.86-.037.437-.092 1.13-.164 2.078-.037.911-.092 1.95-.165 3.117a139.669 139.669 0 01-.164 3.664 107.133 107.133 0 01-.164 3.664 64.206 64.206 0 01-.164 3.117 56.728 56.728 0 00-.054 2.024 1.709 1.709 0 01-.383.109 3.349 3.349 0 01-.656.055 5.13 5.13 0 01-.711.054c-.219.037-.365.037-.438 0-.109 0-.219-.109-.328-.328-.109-.182-.164-.328-.164-.437zm3.062-29.969c-.109.51-.145 1.148-.109 1.914.073.73.146 1.513.219 2.352.109.802.219 1.586.328 2.351.109.766.182 1.422.219 1.969 1.385-1.057 2.989-2.133 4.812-3.227a59.317 59.317 0 005.36-3.554 27.386 27.386 0 004.648-4.266c1.349-1.568 2.242-3.336 2.68-5.305.146-.765.073-1.276-.219-1.53-.255-.292-.711-.493-1.367-.602-1.386-.292-2.972-.183-4.758.328a21.972 21.972 0 00-5.195 2.133 18.915 18.915 0 00-4.321 3.39c-1.239 1.313-2.005 2.662-2.297 4.047zm23.735 8.094A32.38 32.38 0 01164 86.64c0-1.605.091-3.227.273-4.868.219-1.64.511-3.335.875-5.085a242.17 242.17 0 011.368-5.743c0-.4.109-.765.328-1.093.218-.365.51-.657.875-.875a4.93 4.93 0 011.148-.602 3.361 3.361 0 011.149-.219c.802 0 1.531.255 2.187.766.656.51 1.24 1.13 1.75 1.86a11.61 11.61 0 011.367 2.35c.401.803.729 1.496.985 2.079.291 1.276.492 2.734.601 4.375.146 1.604.164 3.245.055 4.922a28.785 28.785 0 01-.766 4.976 18.931 18.931 0 01-1.695 4.43 10.7 10.7 0 01-2.844 3.39c-1.13.912-2.479 1.477-4.047 1.696-.838 0-1.476-.273-1.914-.82-.437-.584-.765-1.276-.984-2.078a14.846 14.846 0 01-.328-2.516v-2.078zm2.789-.164v1.039l.109.984c.073.292.146.62.219.985l.383 1.148h.328c.875 0 1.622-.292 2.242-.875.62-.583 1.149-1.33 1.586-2.242a18.39 18.39 0 001.094-3.117 30.94 30.94 0 00.656-3.391c.182-1.13.292-2.17.328-3.117.073-.985.11-1.768.11-2.352v-1.094c0-.474-.019-1.002-.055-1.585-.037-.62-.11-1.24-.219-1.86a7.722 7.722 0 00-.383-1.75c-.182-.547-.419-.984-.711-1.312-.291-.328-.674-.493-1.148-.493-.802-.255-1.495-.2-2.078.165-.547.364-1.003.984-1.367 1.859-.328.838-.584 1.877-.766 3.117a33.987 33.987 0 00-.328 4.102c-.037 1.494-.055 3.08-.055 4.757.037 1.678.055 3.355.055 5.032zm24.172-2.352a41.481 41.481 0 01-1.422 2.899 18.648 18.648 0 01-1.969 3.117 11.217 11.217 0 01-2.57 2.515 5.573 5.573 0 01-3.281 1.04c-.547 0-.985-.055-1.313-.165a3.15 3.15 0 01-.82-.601 6.83 6.83 0 01-.657-.93 11.413 11.413 0 00-.71-1.203c-.11-1.786-.183-3.7-.219-5.742 0-2.078.109-4.138.328-6.18a35.416 35.416 0 011.094-5.851c.547-1.823 1.294-3.373 2.242-4.649.984-1.276 2.206-2.187 3.664-2.734 1.458-.547 3.227-.584 5.305-.11.109-1.02.127-2.388.054-4.101a158.466 158.466 0 00-.328-5.414 863.512 863.512 0 00-.437-5.469 93.324 93.324 0 01-.274-4.375.74.74 0 01.438-.71 2.663 2.663 0 011.039-.329 4.94 4.94 0 011.039 0c.364.036.601.091.711.164a538.608 538.608 0 00-.055 13.234l.109 12.907.219 12.742c.073 4.229.11 8.458.11 12.687 0 .401-.037.821-.11 1.258-.036.474-.346.711-.929.711-.219 0-.438-.073-.657-.219a.835.835 0 01-.437-.546l-.164-13.946zm-2.352-15.86c-1.13-.072-2.187.384-3.172 1.368-.948.948-1.786 2.188-2.515 3.719-.693 1.531-1.258 3.226-1.696 5.086a31.28 31.28 0 00-.82 5.304c-.073 1.678.037 3.172.328 4.485.328 1.312.893 2.206 1.695 2.68.803 0 1.55-.31 2.243-.93.692-.656 1.33-1.477 1.914-2.461a19.547 19.547 0 001.531-3.281 42.93 42.93 0 001.094-3.555 25.71 25.71 0 00.711-3.063c.182-.947.273-1.658.273-2.132 0-.365.018-.948.055-1.75.036-.803.018-1.605-.055-2.407s-.237-1.513-.492-2.132c-.219-.62-.583-.93-1.094-.93zm464.305 15.774c0-2.37-.055-4.867-.164-7.492a587.472 587.472 0 00-.274-7.93 191.858 191.858 0 01-.054-7.93c.036-2.588.2-5.012.492-7.273.073-.036.237-.054.492-.054a5.81 5.81 0 01.602-.055c.51 0 .911.091 1.203.273.328.146.492.492.492 1.04 0 2.15-.018 4.502-.055 7.054 0 2.516-.018 5.086-.054 7.711v7.71c0 2.553.036 4.868.109 6.946.036.62-.091 1.021-.383 1.203-.255.22-.583.329-.984.329-.438 0-.802-.11-1.094-.329-.292-.182-.401-.583-.328-1.203zm-1.203-39.156c0-.438.146-.73.437-.875.292-.146.62-.219.985-.219.729 0 1.185.237 1.367.711.182.474.273 1.021.273 1.64-.218.402-.492.694-.82.876a1.686 1.686 0 01-1.039.11c-.328-.11-.62-.347-.875-.712-.219-.364-.328-.875-.328-1.531zm10.062 39.54c-.401-4.923-.765-9.845-1.094-14.767a1571.59 1571.59 0 00-.984-15.421c0-.875.474-1.313 1.422-1.313h.438c.109 0 .236.146.382.438.146.291.292.838.438 1.64.182.766.364 1.95.547 3.555.218 1.568.474 3.627.765 6.18a526.4 526.4 0 01.985 9.57 65.264 65.264 0 001.804-7.219c.438-2.333 1.003-4.448 1.696-6.344.692-1.932 1.659-3.627 2.898-5.086 1.276-1.458 3.099-2.533 5.469-3.226 1.312.219 2.37 1.02 3.172 2.406.802 1.35 1.44 3.026 1.914 5.031.474 2.006.802 4.193.984 6.563.182 2.333.292 4.575.328 6.726.037 2.151.055 4.084.055 5.797 0 1.677.036 2.88.109 3.61a2.13 2.13 0 01-1.257 1.258 1.825 1.825 0 01-.766.054c-.255-.073-.492-.273-.711-.601 0-.401-.036-1.222-.109-2.461-.073-1.24-.164-2.68-.274-4.32a396.305 396.305 0 00-.383-5.305 561.498 561.498 0 00-.328-5.305 306.164 306.164 0 00-.218-4.375 93.937 93.937 0 00-.165-2.46c-.765-1.35-1.531-2.115-2.296-2.298-.73-.182-1.477.055-2.243.711-.729.656-1.44 1.659-2.132 3.008-.693 1.349-1.349 2.88-1.969 4.594a82.25 82.25 0 00-1.75 5.304 92.075 92.075 0 00-1.422 5.414 177.33 177.33 0 00-1.039 4.704c-.255 1.385-.419 2.46-.492 3.226-.11.255-.347.51-.711.766a3.721 3.721 0 01-1.094.492c-.365.11-.747.146-1.148.11-.365-.074-.638-.292-.821-.657zm24.774-11.868c.109-1.313.218-2.734.328-4.266.109-1.568.273-3.117.492-4.648a48.36 48.36 0 01.93-4.375c.401-1.386.911-2.607 1.531-3.664.656-1.094 1.458-1.95 2.406-2.57.948-.657 2.097-.967 3.445-.93.912 0 1.605.383 2.079 1.148.51.766.856 1.696 1.039 2.79.218 1.093.328 2.223.328 3.39.036 1.13.054 2.06.054 2.789-.729 0-1.33-.31-1.804-.93a7.545 7.545 0 01-1.094-2.242 15.873 15.873 0 01-.547-2.46l-.164-1.587h-.219a.417.417 0 00-.164-.054c-.619 0-1.203.346-1.75 1.039-.51.692-1.002 1.586-1.476 2.68-.438 1.056-.821 2.26-1.149 3.609a52.981 52.981 0 00-.82 3.882 96.943 96.943 0 00-.547 3.555c-.109 1.057-.164 1.878-.164 2.461a22.168 22.168 0 000 3.117c.073 1.13.292 2.188.656 3.172a7.891 7.891 0 001.532 2.57c.656.693 1.531 1.167 2.625 1.422 1.349 0 2.442-.182 3.281-.547.838-.364 1.513-.856 2.023-1.476a6.754 6.754 0 001.258-2.078c.292-.766.565-1.55.82-2.352.292-.838.584-1.659.875-2.46a8.038 8.038 0 011.258-2.243c.438-.11.748-.091.93.055.219.11.364.273.437.492.073.219.11.474.11.766v.601c0 1.531-.255 3.008-.766 4.43a11.894 11.894 0 01-2.242 3.828 11.853 11.853 0 01-3.555 2.68c-1.349.656-2.898.984-4.648.984-1.459 0-2.68-.456-3.664-1.367-.948-.948-1.696-2.078-2.242-3.39a19.413 19.413 0 01-1.094-4.102c-.219-1.459-.328-2.698-.328-3.72zm21.82 5.086a32.38 32.38 0 01-.383-4.867c0-1.605.091-3.227.274-4.868.218-1.64.51-3.335.875-5.085.401-1.787.856-3.701 1.367-5.743 0-.4.109-.765.328-1.093.219-.365.51-.657.875-.875a4.95 4.95 0 011.148-.602 3.361 3.361 0 011.149-.219c.802 0 1.531.255 2.187.766.657.51 1.24 1.13 1.75 1.86a11.631 11.631 0 011.368 2.35c.401.803.729 1.496.984 2.079.292 1.276.492 2.734.601 4.375.146 1.604.165 3.245.055 4.922a28.69 28.69 0 01-.766 4.976 18.931 18.931 0 01-1.695 4.43 10.7 10.7 0 01-2.844 3.39c-1.13.912-2.479 1.477-4.046 1.696-.839 0-1.477-.273-1.915-.82-.437-.584-.765-1.276-.984-2.078a14.846 14.846 0 01-.328-2.516v-2.078zm2.789-.164v1.039l.109.984c.073.292.146.62.219.985l.383 1.148h.328c.875 0 1.623-.292 2.242-.875.62-.583 1.149-1.33 1.586-2.242a18.39 18.39 0 001.094-3.117c.292-1.167.51-2.297.656-3.391.183-1.13.292-2.17.328-3.117.073-.985.11-1.768.11-2.352v-1.094c0-.474-.018-1.002-.055-1.585-.036-.62-.109-1.24-.219-1.86a7.778 7.778 0 00-.382-1.75c-.183-.547-.42-.984-.711-1.312-.292-.328-.675-.492-1.149-.492-.802-.256-1.495-.201-2.078.164-.547.364-1.003.984-1.367 1.859-.328.838-.584 1.877-.766 3.117a34.192 34.192 0 00-.328 4.102 197.78 197.78 0 00-.055 4.757c.037 1.678.055 3.355.055 5.032zm14.383 7.492c-.11-1.02-.201-2.406-.274-4.156-.072-1.75-.145-3.646-.218-5.688a451.745 451.745 0 00-.274-6.453 296.007 296.007 0 00-.273-6.344 98.265 98.265 0 00-.438-5.468c-.146-1.641-.31-2.954-.492-3.938 0-.73.164-1.148.492-1.258.328-.146.748-.218 1.258-.218h.492c.256 0 .438.018.547.054.328 1.094.529 2.516.602 4.266.109 1.713.182 3.591.218 5.633.073 2.041.128 4.156.165 6.343.072 2.188.2 4.266.382 6.235.511-2.88.93-5.268 1.258-7.164.365-1.896.693-3.41.985-4.54.328-1.166.619-2.023.875-2.57.291-.583.601-.966.929-1.148a2.1 2.1 0 011.149-.219h1.531c.656 0 1.185.255 1.586.766.437.51.766 1.166.984 1.968.255.803.438 1.678.547 2.626.146.947.274 1.877.383 2.789.109.875.219 1.677.328 2.406.146.729.365 1.24.656 1.531.912-2.698 1.696-4.904 2.352-6.617.656-1.714 1.221-3.063 1.695-4.047.474-1.02.893-1.75 1.258-2.188.365-.437.693-.692.984-.765.292-.11.547-.128.766-.055.255.073.51.11.766.11.984 0 1.731.51 2.242 1.53.583 1.641.984 3.21 1.203 4.704.219 1.458.346 2.88.383 4.266a69.78 69.78 0 010 3.882c0 1.24.036 2.443.109 3.61.11 1.166.31 2.315.602 3.445.328 1.13.875 2.242 1.64 3.336-.291.583-.583.984-.875 1.203-.291.182-.692.274-1.203.274-.437 0-.82-.146-1.148-.438a4.392 4.392 0 01-.821-1.148 11.357 11.357 0 01-.546-1.422c-.11-.474-.219-.893-.329-1.258-.145-5.214-.382-9.206-.71-11.977-.292-2.807-.748-4.283-1.368-4.43-.619-.145-1.422 1.076-2.406 3.665-.948 2.552-2.133 6.562-3.555 12.031a.673.673 0 01-.492.328 4.331 4.331 0 01-.711.055h-.711a1.984 1.984 0 00-.656 0c-.911-5.36-1.677-9.206-2.297-11.54-.583-2.369-1.185-3.28-1.804-2.734-.62.547-1.313 2.516-2.079 5.907-.765 3.354-1.75 8.075-2.953 14.164l-2.734.656zm31.117-.93c0-2.37-.055-4.867-.164-7.492a604.293 604.293 0 00-.273-7.93 191.883 191.883 0 01-.055-7.93c.036-2.588.2-5.012.492-7.273.073-.036.237-.054.492-.054a5.81 5.81 0 01.602-.055c.51 0 .911.091 1.203.273.328.146.492.492.492 1.04 0 2.15-.018 4.502-.055 7.054 0 2.516-.018 5.086-.054 7.711v7.71c0 2.553.036 4.868.109 6.946.037.62-.091 1.021-.383 1.203-.255.22-.583.329-.984.329-.438 0-.802-.11-1.094-.329-.291-.182-.401-.583-.328-1.203zm-1.203-39.156c0-.438.146-.73.437-.875.292-.146.62-.219.985-.219.729 0 1.185.237 1.367.711.182.474.273 1.021.273 1.64-.218.402-.492.694-.82.876a1.685 1.685 0 01-1.039.11c-.328-.11-.62-.347-.875-.712-.219-.364-.328-.875-.328-1.531zm10.062 39.54a1003.76 1003.76 0 01-1.093-14.767c-.292-4.958-.62-10.099-.985-15.421 0-.875.474-1.313 1.422-1.313h.438c.109 0 .237.146.382.438.146.291.292.838.438 1.64.182.766.365 1.95.547 3.555.219 1.568.474 3.627.765 6.18a526.4 526.4 0 01.985 9.57 65.5 65.5 0 001.805-7.219c.437-2.333 1.002-4.448 1.695-6.344.693-1.932 1.659-3.627 2.898-5.086 1.276-1.458 3.099-2.533 5.469-3.226 1.313.219 2.37 1.02 3.172 2.406.802 1.35 1.44 3.026 1.914 5.031.474 2.006.802 4.193.984 6.563.183 2.333.292 4.575.328 6.726.037 2.151.055 4.084.055 5.797 0 1.677.037 2.88.11 3.61a2.13 2.13 0 01-.493.765 2.122 2.122 0 01-.765.493 1.823 1.823 0 01-.766.054c-.255-.073-.492-.273-.711-.601 0-.401-.036-1.222-.109-2.461-.073-1.24-.164-2.68-.274-4.32a413.02 413.02 0 00-.382-5.305c-.11-1.896-.219-3.664-.329-5.305a279.31 279.31 0 00-.218-4.375 99.892 99.892 0 00-.164-2.46c-.766-1.35-1.532-2.115-2.297-2.298-.729-.182-1.477.055-2.242.711-.73.656-1.441 1.659-2.133 3.008-.693 1.349-1.349 2.88-1.969 4.594a82.25 82.25 0 00-1.75 5.304 92.075 92.075 0 00-1.422 5.414 177.33 177.33 0 00-1.039 4.704c-.255 1.385-.419 2.46-.492 3.226-.11.255-.346.51-.711.766a3.721 3.721 0 01-1.094.492c-.364.11-.747.146-1.148.11-.365-.074-.638-.292-.821-.657zm28.547 22.093c3.209-.182 5.724-1.021 7.547-2.516 1.86-1.495 3.245-3.427 4.156-5.797.912-2.369 1.459-5.086 1.641-8.148.182-3.026.201-6.162.055-9.406-.146-3.245-.365-6.49-.656-9.735-.256-3.281-.365-6.325-.329-9.133-1.567 4.594-3.044 8.313-4.429 11.157-1.386 2.807-2.68 4.94-3.883 6.398-1.167 1.422-2.242 2.297-3.227 2.625-.948.292-1.786.237-2.515-.164-.729-.437-1.331-1.112-1.805-2.023a12.208 12.208 0 01-.93-2.899c.073-1.677.401-3.518.985-5.523a39.6 39.6 0 012.351-5.961 34.487 34.487 0 013.391-5.469c1.276-1.714 2.625-3.044 4.047-3.992 1.422-.984 2.898-1.495 4.429-1.531 1.532-.073 3.008.51 4.43 1.75.037.036.091.528.164 1.476.11.912.219 2.133.328 3.664.146 1.495.292 3.19.438 5.086.182 1.86.346 3.755.492 5.688.146 1.895.273 3.718.383 5.468.109 1.75.219 3.264.328 4.54.146 2.078.055 4.283-.274 6.617a41.405 41.405 0 01-1.421 6.781 33.79 33.79 0 01-2.516 6.234c-.984 1.933-2.133 3.519-3.445 4.758-1.276 1.24-2.716 2.024-4.321 2.352-1.567.364-3.244.091-5.031-.821-.109 0-.273-.018-.492-.054a.888.888 0 01-.547-.164c-.109-.11-.128-.256-.055-.438.073-.182.31-.456.711-.82zm-1.531-30.024c.365 1.13.839 1.714 1.422 1.75.62 0 1.276-.382 1.969-1.148.692-.802 1.44-1.914 2.242-3.336a60.972 60.972 0 002.461-4.648 167.516 167.516 0 002.351-5.141c.802-1.787 1.55-3.445 2.243-4.977 0-.4-.092-.765-.274-1.093-.182-.365-.583-.474-1.203-.328-1.021.218-2.023.71-3.008 1.476-.948.766-1.841 1.714-2.679 2.844a27.117 27.117 0 00-2.243 3.664 42.978 42.978 0 00-1.75 3.992 36.44 36.44 0 00-1.148 3.773c-.255 1.204-.383 2.26-.383 3.172zm48.945-14.71a9.69 9.69 0 00-1.039.601l-.875.547a4.254 4.254 0 01-.875.328 1.999 1.999 0 01-.929 0c-.219 0-.401-.128-.547-.383a4.017 4.017 0 01-.328-.93 5.796 5.796 0 01-.219-1.039c-.037-.364-.037-.638 0-.82l5.25-3.008.328-14c.073-.474.365-.656.875-.547.51.073 1.039.183 1.586.329.073 0 .182.036.328.109.182.036.31.073.383.11-.073.984-.164 2.06-.274 3.226l-.218 3.445c-.073 1.13-.128 2.242-.164 3.336 0 1.094.054 2.078.164 2.953l8.203-2.297c.146-.036.255.073.328.328.109.22.2.493.273.82.11.329.183.657.219.985l.055.492-9.297 3.938c0 .328.018 1.112.055 2.351.073 1.24.145 2.717.218 4.43.073 1.677.146 3.5.219 5.469.073 1.932.146 3.737.219 5.414.073 1.677.127 3.154.164 4.43.036 1.24.055 2.023.055 2.351-.073 1.094-.401 1.64-.985 1.64-.547 0-1.148-.273-1.804-.82l-1.368-23.789zm13.563-3.008v-.438c0-.364.127-.62.383-.766.291-.145.619-.218.984-.218.292 0 .565.036.82.11.256.036.456.236.602.6.109.548.219 1.313.328 2.298.109.947.237 2.005.383 3.171.146 1.167.292 2.407.437 3.72.183 1.275.347 2.497.493 3.663.182 1.13.364 2.151.546 3.063.183.911.383 1.604.602 2.078-.109-3.5 0-6.526.328-9.078.328-2.589.948-4.685 1.86-6.29.947-1.64 2.223-2.77 3.828-3.39 1.64-.656 3.682-.802 6.125-.437 1.13 0 1.695.601 1.695 1.804 0 .474-.31.802-.93.985-.62.145-1.312.255-2.078.328-.766.036-1.513.09-2.242.164-.729.073-1.258.255-1.586.547-1.312.729-2.242 1.86-2.789 3.39-.51 1.532-.875 3.336-1.094 5.414a112.858 112.858 0 00-.492 6.836 61.26 61.26 0 01-.711 7.547c0 .365-.146.638-.437.82-.292.183-.657.274-1.094.274a2.89 2.89 0 01-1.203-.273 2.097 2.097 0 01-.875-.82l-3.883-25.102zm37.734 24.937a44.218 44.218 0 01-.492-3.39 149.538 149.538 0 00-.383-4.047 52.411 52.411 0 00-.547-3.883c-.182-1.203-.474-2.188-.875-2.953-1.859 3.791-3.5 6.78-4.921 8.968-1.422 2.151-2.68 3.701-3.774 4.649-1.057.911-1.95 1.349-2.68 1.312-.729-.036-1.33-.364-1.804-.984s-.821-1.404-1.039-2.352a28.607 28.607 0 01-.383-2.734c0-.802.182-1.932.547-3.39a48.904 48.904 0 011.476-4.758 58.237 58.237 0 012.188-5.305 40.576 40.576 0 012.789-4.867c.984-1.459 2.005-2.662 3.062-3.61 1.058-.948 2.115-1.422 3.172-1.422 1.568-.255 2.716.092 3.446 1.04.765.911.911 2.46.437 4.648 0 2.406.091 4.466.273 6.18.219 1.713.438 3.354.657 4.922.255 1.567.474 3.208.656 4.921.219 1.714.328 3.774.328 6.18 0 .438-.055.82-.164 1.149-.073.291-.51.437-1.313.437-.109 0-.255-.091-.437-.273-.146-.183-.219-.329-.219-.438zm-2.953-24.445c-.401-.583-.948-.638-1.641-.164-.692.474-1.421 1.258-2.187 2.351-.766 1.094-1.549 2.407-2.352 3.938a77.905 77.905 0 00-2.242 4.648 68.055 68.055 0 00-1.804 4.485c-.511 1.385-.857 2.533-1.039 3.445 0 1.312.2 2.06.601 2.242.401.146.893-.073 1.477-.656.583-.584 1.239-1.422 1.968-2.516a40.803 40.803 0 002.188-3.5 94.585 94.585 0 002.023-3.61 69.13 69.13 0 001.532-2.843 17 17 0 00.765-2.133 22.7 22.7 0 00.438-1.86 8.072 8.072 0 00.218-1.858c.037-.62.055-1.276.055-1.97zm12.25 5.687c-.146 0-.364.073-.656.22a6.69 6.69 0 00-.93.437l-.875.437c-.291.146-.547.219-.765.219-.365 0-.693-.073-.985-.219-.255-.146-.383-.437-.383-.875 0-.365.164-.71.493-1.039a12.52 12.52 0 011.257-.984 31.08 31.08 0 011.422-.93c.474-.292.821-.583 1.039-.875-.073-.583-.127-1.677-.164-3.281a137.977 137.977 0 010-5.47c.073-2.077.201-4.21.383-6.398.219-2.187.529-4.137.93-5.851.437-1.75 1.002-3.117 1.695-4.102.693-.984 1.586-1.294 2.68-.93a3.34 3.34 0 012.078.712 5.902 5.902 0 011.586 1.695c.437.656.765 1.385.984 2.187.255.802.383 1.532.383 2.188 0 .364-.091.766-.273 1.203-.146.401-.438.602-.875.602h-.165c-.036 0-.072-.019-.109-.055-.875-2.224-1.622-3.628-2.242-4.211-.583-.62-1.094-.638-1.531-.055-.401.584-.748 1.623-1.039 3.117-.256 1.495-.474 3.227-.657 5.196a227.982 227.982 0 00-.492 6.18 573.008 573.008 0 01-.437 6.015c.729-.182 1.33-.365 1.804-.547a17.64 17.64 0 001.368-.547c.401-.218.765-.419 1.093-.601a5.117 5.117 0 011.094-.547 27.732 27.732 0 012.516-1.04c.948-.364 1.859-.546 2.734-.546 0 1.057-.2 1.932-.602 2.625a4.737 4.737 0 01-1.476 1.695 6.15 6.15 0 01-2.024.985 44.92 44.92 0 01-2.351.492 116 116 0 00-2.188.437 9.652 9.652 0 00-1.804.547c.109 2.37.255 4.448.437 6.235.219 1.786.401 3.372.547 4.757a56.86 56.86 0 01.383 3.829 17.62 17.62 0 010 3.39v1.094c.036.437.018.875-.055 1.312-.036.438-.164.82-.383 1.149-.218.291-.565.437-1.039.437-.437 0-.765-.09-.984-.273-.219-.219-.365-.638-.437-1.258-.219-2.953-.402-5.45-.547-7.492l-.274-5.195a69.067 69.067 0 01-.109-3.336v-2.516c0-.146-.018-.219-.055-.219zm19.359 0c-.145 0-.364.073-.656.22a6.736 6.736 0 00-.929.437l-.875.437c-.292.146-.547.219-.766.219-.365 0-.693-.073-.984-.219-.256-.146-.383-.437-.383-.875 0-.365.164-.71.492-1.039.365-.328.784-.656 1.258-.984a31.08 31.08 0 011.422-.93c.474-.292.82-.583 1.039-.875-.073-.583-.128-1.677-.164-3.281a134.249 134.249 0 010-5.47c.073-2.077.2-4.21.382-6.398.219-2.187.529-4.137.93-5.851.438-1.75 1.003-3.117 1.695-4.102.693-.984 1.586-1.294 2.68-.93.766 0 1.458.238 2.078.712a5.889 5.889 0 011.586 1.695 7.44 7.44 0 01.985 2.187c.255.802.382 1.532.382 2.188 0 .364-.091.766-.273 1.203-.146.401-.438.602-.875.602h-.164c-.037 0-.073-.019-.11-.055-.874-2.224-1.622-3.628-2.242-4.211-.583-.62-1.093-.638-1.531-.055-.401.584-.747 1.623-1.039 3.117a69.078 69.078 0 00-.656 5.196 220.165 220.165 0 00-.492 6.18 571.72 571.72 0 01-.438 6.015 15.898 15.898 0 001.805-.547c.51-.182.966-.364 1.367-.547.401-.218.766-.419 1.094-.601a5.109 5.109 0 011.093-.547 27.852 27.852 0 012.516-1.04c.948-.364 1.859-.546 2.734-.546 0 1.057-.2 1.932-.601 2.625a4.75 4.75 0 01-1.477 1.695 6.146 6.146 0 01-2.023.985c-.766.182-1.55.346-2.352.492-.765.146-1.494.291-2.187.437a9.663 9.663 0 00-1.805.547c.11 2.37.255 4.448.438 6.235.218 1.786.401 3.372.546 4.757.183 1.386.31 2.662.383 3.829.11 1.13.11 2.26 0 3.39v1.094a5.25 5.25 0 01-.054 1.312c-.037.438-.164.82-.383 1.149-.219.291-.565.437-1.039.437-.438 0-.766-.09-.985-.273-.218-.219-.364-.638-.437-1.258-.219-2.953-.401-5.45-.547-7.492l-.273-5.195a69.313 69.313 0 01-.11-3.336v-2.516c0-.146-.018-.219-.055-.219zm15.915 19.086c0-2.37-.055-4.867-.165-7.492a587.389 587.389 0 00-.273-7.93 193.655 193.655 0 01-.055-7.93c.037-2.588.201-5.012.493-7.273.072-.036.237-.054.492-.054.291-.037.492-.055.601-.055.511 0 .912.091 1.203.273.329.146.493.492.493 1.04 0 2.15-.019 4.502-.055 7.054 0 2.516-.018 5.086-.055 7.711v7.71c0 2.553.037 4.868.11 6.946.036.62-.092 1.021-.383 1.203-.255.22-.584.329-.985.329-.437 0-.802-.11-1.093-.329-.292-.182-.401-.583-.328-1.203zm-1.204-39.156c0-.438.146-.73.438-.875a2.17 2.17 0 01.984-.219c.729 0 1.185.237 1.367.711.183.474.274 1.021.274 1.64-.219.402-.492.694-.82.876a1.686 1.686 0 01-1.039.11c-.329-.11-.62-.347-.875-.712-.219-.364-.329-.875-.329-1.531zm7.766 27.672c.109-1.313.219-2.734.328-4.266a65.45 65.45 0 01.492-4.648 48.69 48.69 0 01.93-4.375c.401-1.386.912-2.607 1.531-3.664.657-1.094 1.459-1.95 2.407-2.57.947-.657 2.096-.967 3.445-.93.911 0 1.604.383 2.078 1.148.51.766.857 1.696 1.039 2.79.219 1.093.328 2.223.328 3.39.037 1.13.055 2.06.055 2.789-.729 0-1.331-.31-1.805-.93a7.57 7.57 0 01-1.094-2.242 15.753 15.753 0 01-.546-2.46l-.165-1.587h-.218a.422.422 0 00-.164-.054c-.62 0-1.203.346-1.75 1.039-.511.692-1.003 1.586-1.477 2.68-.437 1.056-.82 2.26-1.148 3.609a52.994 52.994 0 00-.821 3.882 96.82 96.82 0 00-.546 3.555c-.11 1.057-.165 1.878-.165 2.461a22.475 22.475 0 000 3.117 11.14 11.14 0 00.657 3.172 7.89 7.89 0 001.531 2.57c.656.693 1.531 1.167 2.625 1.422 1.349 0 2.443-.182 3.281-.547.839-.364 1.513-.856 2.024-1.476a6.731 6.731 0 001.257-2.078c.292-.766.566-1.55.821-2.352.291-.838.583-1.659.875-2.46a8.012 8.012 0 011.258-2.243c.437-.11.747-.091.929.055a.83.83 0 01.438.492c.073.219.109.474.109.766v.601c0 1.531-.255 3.008-.766 4.43a11.876 11.876 0 01-2.242 3.828 11.86 11.86 0 01-3.554 2.68c-1.349.656-2.899.984-4.649.984-1.458 0-2.679-.456-3.664-1.367-.948-.948-1.695-2.078-2.242-3.39a19.474 19.474 0 01-1.094-4.102c-.219-1.459-.328-2.698-.328-3.72zm-895.867 232c.11-1.313.219-2.734.328-4.266.11-1.567.273-3.117.492-4.648.255-1.531.565-2.99.93-4.375.4-1.386.911-2.607 1.531-3.664.656-1.094 1.458-1.951 2.406-2.571.948-.656 2.097-.966 3.446-.929.911 0 1.604.383 2.078 1.148.51.766.857 1.695 1.039 2.789.219 1.094.328 2.224.328 3.391.036 1.13.055 2.06.055 2.789-.73 0-1.331-.31-1.805-.93a7.543 7.543 0 01-1.094-2.242 15.768 15.768 0 01-.547-2.461l-.164-1.586h-.218a.43.43 0 00-.164-.055c-.62 0-1.204.347-1.75 1.04-.51.692-1.003 1.586-1.477 2.679-.438 1.058-.82 2.261-1.148 3.61a52.703 52.703 0 00-.82 3.882 96.81 96.81 0 00-.548 3.555c-.11 1.057-.164 1.878-.164 2.461a22.197 22.197 0 000 3.117 11.14 11.14 0 00.657 3.172 7.897 7.897 0 001.53 2.57c.657.693 1.532 1.167 2.626 1.422 1.349 0 2.442-.182 3.281-.547.839-.364 1.513-.856 2.023-1.476a6.756 6.756 0 001.258-2.078c.292-.766.565-1.55.82-2.352.292-.838.584-1.659.876-2.461a8.033 8.033 0 011.257-2.242c.438-.109.748-.091.93.055a.828.828 0 01.438.492c.072.219.109.474.109.766v.601c0 1.531-.255 3.008-.766 4.43a11.891 11.891 0 01-2.242 3.828 11.864 11.864 0 01-3.555 2.68c-1.349.656-2.898.984-4.648.984-1.458 0-2.68-.456-3.664-1.367-.948-.948-1.695-2.078-2.242-3.391a19.432 19.432 0 01-1.094-4.101c-.219-1.459-.328-2.698-.328-3.719zm21.82 5.086a32.357 32.357 0 01-.383-4.867c0-1.605.092-3.227.274-4.868.219-1.64.51-3.335.875-5.085a245.46 245.46 0 011.367-5.743c0-.401.11-.765.328-1.093.219-.365.51-.657.875-.875a4.921 4.921 0 011.149-.602 3.356 3.356 0 011.148-.219c.802 0 1.531.255 2.188.766a8.52 8.52 0 011.75 1.859 11.628 11.628 0 011.367 2.352c.4.802.729 1.495.984 2.078.292 1.276.492 2.734.602 4.375a31.58 31.58 0 01.054 4.922 28.809 28.809 0 01-.765 4.976 18.919 18.919 0 01-1.696 4.43 10.713 10.713 0 01-2.843 3.391c-1.13.911-2.48 1.476-4.047 1.695-.839 0-1.477-.273-1.914-.82-.438-.584-.766-1.276-.985-2.078a14.873 14.873 0 01-.328-2.516v-2.078zm2.79-.164v1.039l.109.984c.072.292.145.62.218.985l.383 1.148h.328c.875 0 1.623-.292 2.243-.875.62-.583 1.148-1.331 1.585-2.242.438-.948.803-1.987 1.094-3.117.292-1.167.51-2.297.656-3.391.183-1.13.292-2.169.329-3.117a34.07 34.07 0 00.109-2.352v-1.094c0-.473-.018-1.002-.055-1.585a16.14 16.14 0 00-.219-1.86 7.766 7.766 0 00-.382-1.75c-.183-.547-.42-.984-.711-1.312-.292-.328-.675-.493-1.149-.493-.802-.255-1.494-.2-2.078.165-.547.364-1.002.984-1.367 1.859-.328.838-.583 1.878-.766 3.117a34.036 34.036 0 00-.328 4.102c-.036 1.494-.054 3.08-.054 4.757.036 1.678.054 3.355.054 5.032zm14.491 6.945c-.4-4.922-.765-9.844-1.093-14.766-.292-4.958-.62-10.099-.985-15.421 0-.875.474-1.313 1.422-1.313h.438c.11 0 .237.146.382.438.146.291.292.838.438 1.64.182.766.365 1.951.547 3.555.219 1.568.474 3.627.766 6.18.291 2.552.62 5.742.984 9.57a65.264 65.264 0 001.805-7.219c.437-2.333 1.002-4.448 1.695-6.344.693-1.932 1.659-3.627 2.898-5.086 1.276-1.458 3.1-2.533 5.469-3.226 1.313.219 2.37 1.021 3.172 2.406.802 1.349 1.44 3.026 1.914 5.031.474 2.006.802 4.193.984 6.563.183 2.333.292 4.575.329 6.726.036 2.151.054 4.084.054 5.797 0 1.677.037 2.881.11 3.61a2.13 2.13 0 01-.493.765 2.13 2.13 0 01-.765.493 1.828 1.828 0 01-.766.054c-.255-.073-.492-.273-.711-.601 0-.401-.036-1.222-.109-2.461-.073-1.24-.164-2.68-.274-4.321a412.554 412.554 0 00-.382-5.304c-.11-1.896-.219-3.664-.329-5.305a279.618 279.618 0 00-.218-4.375c-.073-1.24-.128-2.06-.164-2.461-.766-1.349-1.532-2.115-2.297-2.297-.729-.182-1.477.055-2.242.711-.73.656-1.44 1.659-2.133 3.008-.693 1.349-1.35 2.88-1.969 4.594a82.35 82.35 0 00-1.75 5.304 92.354 92.354 0 00-1.422 5.414 176.024 176.024 0 00-1.039 4.704c-.255 1.385-.42 2.46-.492 3.226-.11.255-.346.511-.711.766a3.731 3.731 0 01-1.094.492c-.364.109-.747.146-1.148.109-.365-.073-.638-.291-.82-.656zm26.25-22.641a9.778 9.778 0 00-1.039.602l-.875.547a4.248 4.248 0 01-.875.328 1.996 1.996 0 01-.929 0c-.219 0-.401-.128-.547-.383a3.993 3.993 0 01-.328-.93 5.77 5.77 0 01-.219-1.039c-.037-.364-.037-.638 0-.82l5.25-3.008.328-14c.073-.474.365-.656.875-.547.51.073 1.039.183 1.586.329.073 0 .182.036.328.109.182.036.31.073.383.109-.073.985-.164 2.06-.273 3.227-.073 1.13-.146 2.279-.219 3.445-.073 1.13-.128 2.242-.164 3.336 0 1.094.054 2.078.164 2.953l8.203-2.297c.146-.036.255.073.328.329.109.218.201.492.273.82.11.328.183.656.219.984l.055.492-9.297 3.938c0 .328.018 1.112.055 2.351.073 1.24.146 2.717.218 4.43.073 1.677.146 3.5.219 5.469.073 1.932.146 3.737.219 5.414.073 1.677.128 3.154.164 4.43.036 1.239.055 2.023.055 2.351-.073 1.094-.401 1.641-.985 1.641-.547 0-1.148-.274-1.804-.82l-1.368-23.79zm29.094 21.93a44.242 44.242 0 01-.492-3.39 149.545 149.545 0 00-.383-4.047 52.364 52.364 0 00-.547-3.883c-.182-1.203-.474-2.188-.875-2.953-1.859 3.791-3.5 6.781-4.922 8.968-1.421 2.151-2.679 3.701-3.773 4.649-1.057.911-1.951 1.349-2.68 1.312-.729-.036-1.33-.364-1.804-.984s-.821-1.404-1.039-2.352a28.566 28.566 0 01-.383-2.734c0-.802.182-1.932.547-3.391a48.868 48.868 0 011.476-4.757 58.183 58.183 0 012.188-5.305 40.504 40.504 0 012.789-4.867c.984-1.459 2.005-2.662 3.062-3.61 1.058-.948 2.115-1.422 3.172-1.422 1.568-.255 2.716.092 3.445 1.04.766.911.912 2.46.438 4.648 0 2.406.091 4.466.273 6.18.219 1.713.438 3.354.657 4.922.255 1.567.474 3.208.656 4.921.219 1.714.328 3.774.328 6.18 0 .438-.055.82-.164 1.149-.073.291-.51.437-1.313.437-.109 0-.255-.091-.437-.273-.146-.183-.219-.328-.219-.438zm-2.953-24.445c-.401-.584-.948-.638-1.641-.164-.692.474-1.421 1.258-2.187 2.351-.766 1.094-1.55 2.407-2.352 3.938a78.014 78.014 0 00-2.242 4.648 67.518 67.518 0 00-1.804 4.485c-.511 1.385-.857 2.533-1.04 3.445 0 1.312.201 2.06.602 2.242.401.146.893-.073 1.477-.656.583-.583 1.239-1.422 1.968-2.516a40.788 40.788 0 002.188-3.5 95.263 95.263 0 002.023-3.609 70.709 70.709 0 001.532-2.844c.328-.765.583-1.476.765-2.133.182-.656.328-1.276.438-1.859.145-.62.218-1.24.218-1.859.037-.62.055-1.276.055-1.969zm8.805 24.773c0-2.37-.055-4.867-.164-7.492a587.856 587.856 0 00-.274-7.93 191.831 191.831 0 01-.054-7.929c.036-2.589.2-5.013.492-7.274.073-.036.237-.054.492-.054.292-.037.492-.055.601-.055.511 0 .912.091 1.204.273.328.146.492.493.492 1.039 0 2.151-.018 4.503-.055 7.055 0 2.516-.018 5.086-.055 7.711v7.711c0 2.552.037 4.867.11 6.945.036.62-.091 1.021-.383 1.203-.255.219-.583.329-.984.329-.438 0-.802-.11-1.094-.329-.292-.182-.401-.583-.328-1.203zm-1.203-39.156c0-.438.145-.729.437-.875.292-.146.62-.219.985-.219.729 0 1.184.237 1.367.711.182.474.273 1.021.273 1.641-.219.401-.492.693-.82.875a1.683 1.683 0 01-1.039.109c-.328-.109-.62-.346-.875-.711-.219-.364-.328-.875-.328-1.531zm10.062 39.539c-.401-4.922-.766-9.844-1.094-14.766-.291-4.958-.619-10.099-.984-15.421 0-.875.474-1.313 1.422-1.313h.437c.11 0 .237.146.383.438.146.291.292.838.438 1.64.182.766.364 1.951.547 3.555.218 1.568.474 3.627.765 6.18.292 2.552.62 5.742.985 9.57a65.279 65.279 0 001.804-7.219c.438-2.333 1.003-4.448 1.696-6.344.692-1.932 1.658-3.627 2.898-5.086 1.276-1.458 3.099-2.533 5.469-3.226 1.312.219 2.37 1.021 3.172 2.406.802 1.349 1.44 3.026 1.914 5.031.474 2.006.802 4.193.984 6.563.182 2.333.292 4.575.328 6.726.037 2.151.055 4.084.055 5.797 0 1.677.036 2.881.109 3.61a2.133 2.133 0 01-1.258 1.258c-.255.072-.51.091-.765.054-.255-.073-.492-.273-.711-.601 0-.401-.037-1.222-.11-2.461a534.13 534.13 0 00-.656-9.625 562.006 562.006 0 00-.328-5.305 291.133 291.133 0 00-.219-4.375 95.424 95.424 0 00-.164-2.461c-.765-1.349-1.531-2.115-2.297-2.297-.729-.182-1.476.055-2.242.711-.729.656-1.44 1.659-2.133 3.008-.692 1.349-1.349 2.88-1.968 4.594a82.288 82.288 0 00-1.75 5.304 92.199 92.199 0 00-1.422 5.414 173.703 173.703 0 00-1.039 4.704c-.255 1.385-.42 2.46-.492 3.226-.11.255-.347.511-.711.766a3.743 3.743 0 01-1.094.492c-.365.109-.748.146-1.149.109-.364-.073-.638-.291-.82-.656zm26.36-11.101l-.821.164a4 4 0 01-1.148.054 2.324 2.324 0 01-1.039-.328c-.328-.182-.492-.492-.492-.93 0-.255.054-.437.164-.546.109-.11.291-.274.546-.493.803-.656 1.477-1.494 2.024-2.515a31.43 31.43 0 001.586-3.336c.474-1.203.966-2.388 1.476-3.555a18.204 18.204 0 011.86-3.226 8.152 8.152 0 012.57-2.297c1.021-.584 2.279-.857 3.774-.821.619 0 1.312.146 2.078.438a8.251 8.251 0 012.132 1.203 6.241 6.241 0 011.641 1.75 4.21 4.21 0 01.656 2.297c.183.292 0 .711-.547 1.258-.51.547-1.221 1.148-2.132 1.804a60.751 60.751 0 01-3.118 1.969 177.96 177.96 0 01-3.281 1.86 763.133 763.133 0 01-2.789 1.531c-.802.437-1.331.765-1.586.984a5.654 5.654 0 00-.437 1.258c-.11.474-.201.93-.274 1.367-.036.401-.073.784-.109 1.149v.765c0 .693-.037 1.459-.11 2.297-.036.839 0 1.641.11 2.406a3.76 3.76 0 00.93 1.86c.474.474 1.276.711 2.406.711a6.911 6.911 0 003.39-.875 15.792 15.792 0 002.954-2.243 20.25 20.25 0 002.46-2.843 62.892 62.892 0 002.024-2.844 33.346 33.346 0 011.641-2.242c.474-.584.875-.875 1.203-.875.364 0 .747.073 1.148.218.438.11.656.402.656.876 0 .656-.273 1.44-.82 2.351-.51.912-1.203 1.878-2.078 2.899a28.896 28.896 0 01-2.953 3.062 37.143 37.143 0 01-3.336 2.68 24.377 24.377 0 01-3.336 1.914c-1.094.474-2.06.711-2.899.711-1.64 0-2.88-.401-3.718-1.203-.839-.803-1.44-1.805-1.805-3.008a16.196 16.196 0 01-.547-3.828c0-1.386-.018-2.662-.054-3.828zM194 295.422c-.62 0-1.276.31-1.969.93-.692.583-1.349 1.312-1.969 2.187a15.624 15.624 0 00-1.476 2.625c-.365.875-.547 1.604-.547 2.188.547 0 1.331-.201 2.352-.602a22.867 22.867 0 003.117-1.586 17.586 17.586 0 002.68-1.969c.765-.692 1.148-1.349 1.148-1.968 0-.329-.128-.602-.383-.821a3.31 3.31 0 00-.93-.547 4.973 4.973 0 00-1.039-.328 5.049 5.049 0 00-.984-.109zm14.219.219v-.438c0-.364.127-.62.383-.765.291-.146.619-.219.984-.219.292 0 .565.036.82.109.255.037.456.237.602.602.109.547.219 1.312.328 2.297.109.947.237 2.005.383 3.171.146 1.167.291 2.407.437 3.719.183 1.276.347 2.498.492 3.664.183 1.13.365 2.151.547 3.063.183.911.383 1.604.602 2.078-.109-3.5 0-6.526.328-9.078.328-2.589.948-4.685 1.859-6.289.948-1.641 2.224-2.771 3.828-3.391 1.641-.656 3.683-.802 6.126-.437 1.13 0 1.695.601 1.695 1.804 0 .474-.31.802-.93.985-.62.145-1.312.255-2.078.328-.766.036-1.513.091-2.242.164-.729.073-1.258.255-1.586.547-1.313.729-2.242 1.859-2.789 3.39-.511 1.532-.875 3.336-1.094 5.414a112.927 112.927 0 00-.492 6.836 61.245 61.245 0 01-.711 7.547c0 .365-.146.638-.438.82-.291.183-.656.274-1.093.274-.401 0-.802-.091-1.203-.274a2.092 2.092 0 01-.875-.82l-3.883-25.101zm48.562 25.648a103.92 103.92 0 01-.711-8.586c-.109-2.807-.164-5.56-.164-8.258.037-2.734.091-5.468.164-8.203.073-2.734.073-5.578 0-8.531 0-.109.091-.255.274-.438.182-.182.328-.273.437-.273.11 0 .347.091.711.273.365.183.602.329.711.438 0 .729.018 1.914.055 3.555.073 1.604.109 3.427.109 5.468.037 2.006.073 4.138.11 6.399.072 2.224.127 4.357.164 6.398.073 2.005.127 3.81.164 5.414.036 1.604.054 2.789.054 3.555v2.406c.037.219.019.42-.054.602-.073.146-.219.273-.438.383-.182.073-.474.109-.875.109-.109 0-.255-.091-.437-.273-.183-.183-.274-.329-.274-.438zM48.422 570.422c.11-1.313.219-2.734.328-4.266.11-1.567.273-3.117.492-4.648.255-1.531.565-2.99.93-4.375.4-1.386.911-2.607 1.531-3.664.656-1.094 1.458-1.951 2.406-2.571.948-.656 2.097-.966 3.446-.929.911 0 1.604.383 2.078 1.148.51.766.857 1.695 1.039 2.789.219 1.094.328 2.224.328 3.391.036 1.13.055 2.06.055 2.789-.73 0-1.331-.31-1.805-.93a7.543 7.543 0 01-1.094-2.242 15.768 15.768 0 01-.547-2.461l-.164-1.586h-.218a.43.43 0 00-.164-.055c-.62 0-1.204.347-1.75 1.04-.51.692-1.003 1.586-1.477 2.679-.438 1.058-.82 2.261-1.148 3.61a52.703 52.703 0 00-.82 3.882 96.81 96.81 0 00-.548 3.555c-.11 1.057-.164 1.878-.164 2.461a22.197 22.197 0 000 3.117 11.14 11.14 0 00.657 3.172 7.897 7.897 0 001.53 2.57c.657.693 1.532 1.167 2.626 1.422 1.349 0 2.442-.182 3.281-.547.839-.364 1.513-.856 2.023-1.476a6.756 6.756 0 001.258-2.078c.292-.766.565-1.55.82-2.352.292-.838.584-1.659.876-2.461a8.033 8.033 0 011.257-2.242c.438-.109.748-.091.93.055a.828.828 0 01.438.492c.072.219.109.474.109.766v.601c0 1.531-.255 3.008-.766 4.43a11.891 11.891 0 01-2.242 3.828 11.864 11.864 0 01-3.555 2.68c-1.349.656-2.898.984-4.648.984-1.458 0-2.68-.456-3.664-1.367-.948-.948-1.695-2.078-2.242-3.391a19.432 19.432 0 01-1.094-4.101c-.219-1.459-.328-2.698-.328-3.719zm21.82 5.086a32.357 32.357 0 01-.383-4.867c0-1.605.092-3.227.274-4.868.219-1.64.51-3.335.875-5.085a245.46 245.46 0 011.367-5.743c0-.401.11-.765.328-1.093.219-.365.51-.657.875-.875a4.921 4.921 0 011.149-.602 3.356 3.356 0 011.148-.219c.802 0 1.531.255 2.188.766a8.52 8.52 0 011.75 1.859 11.628 11.628 0 011.367 2.352c.4.802.729 1.495.984 2.078.292 1.276.492 2.734.602 4.375a31.58 31.58 0 01.054 4.922 28.809 28.809 0 01-.765 4.976 18.919 18.919 0 01-1.696 4.43 10.713 10.713 0 01-2.843 3.391c-1.13.911-2.48 1.476-4.047 1.695-.839 0-1.477-.273-1.914-.82-.438-.584-.766-1.276-.985-2.078a14.873 14.873 0 01-.328-2.516v-2.078zm2.79-.164v1.039l.109.984c.072.292.145.62.218.985l.383 1.148h.328c.875 0 1.623-.292 2.243-.875.62-.583 1.148-1.331 1.585-2.242.438-.948.803-1.987 1.094-3.117.292-1.167.51-2.297.656-3.391.183-1.13.292-2.169.329-3.117a34.07 34.07 0 00.109-2.352v-1.094c0-.473-.018-1.002-.055-1.585a16.14 16.14 0 00-.219-1.86 7.766 7.766 0 00-.382-1.75c-.183-.547-.42-.984-.711-1.312-.292-.328-.675-.493-1.149-.493-.802-.255-1.494-.2-2.078.165-.547.364-1.002.984-1.367 1.859-.328.838-.583 1.878-.766 3.117a34.036 34.036 0 00-.328 4.102c-.036 1.494-.054 3.08-.054 4.757.036 1.678.054 3.355.054 5.032zm14.491 6.945c-.4-4.922-.765-9.844-1.093-14.766-.292-4.958-.62-10.099-.985-15.421 0-.875.474-1.313 1.422-1.313h.438c.11 0 .237.146.382.438.146.291.292.838.438 1.64.182.766.365 1.951.547 3.555.219 1.568.474 3.627.766 6.18.291 2.552.62 5.742.984 9.57a65.264 65.264 0 001.805-7.219c.437-2.333 1.002-4.448 1.695-6.344.693-1.932 1.659-3.627 2.898-5.086 1.276-1.458 3.1-2.533 5.469-3.226 1.313.219 2.37 1.021 3.172 2.406.802 1.349 1.44 3.026 1.914 5.031.474 2.006.802 4.193.984 6.563.183 2.333.292 4.575.329 6.726.036 2.151.054 4.084.054 5.797 0 1.677.037 2.881.11 3.61a2.13 2.13 0 01-.493.765 2.13 2.13 0 01-.765.493 1.828 1.828 0 01-.766.054c-.255-.073-.492-.273-.711-.601 0-.401-.036-1.222-.109-2.461-.073-1.24-.164-2.68-.274-4.321a412.554 412.554 0 00-.382-5.304c-.11-1.896-.219-3.664-.329-5.305a279.618 279.618 0 00-.218-4.375c-.073-1.24-.128-2.06-.164-2.461-.766-1.349-1.532-2.115-2.297-2.297-.729-.182-1.477.055-2.242.711-.73.656-1.44 1.659-2.133 3.008-.693 1.349-1.35 2.88-1.969 4.594a82.35 82.35 0 00-1.75 5.304 92.354 92.354 0 00-1.422 5.414 176.024 176.024 0 00-1.039 4.704c-.255 1.385-.42 2.46-.492 3.226-.11.255-.346.511-.711.766a3.731 3.731 0 01-1.094.492c-.364.109-.747.146-1.148.109-.365-.073-.638-.291-.82-.656zm26.25-22.641a9.778 9.778 0 00-1.039.602l-.875.547a4.248 4.248 0 01-.875.328 1.996 1.996 0 01-.929 0c-.219 0-.401-.128-.547-.383a3.993 3.993 0 01-.328-.93 5.77 5.77 0 01-.219-1.039c-.037-.364-.037-.638 0-.82l5.25-3.008.328-14c.073-.474.365-.656.875-.547.51.073 1.039.183 1.586.329.073 0 .182.036.328.109.182.036.31.073.383.109-.073.985-.164 2.06-.273 3.227-.073 1.13-.146 2.279-.219 3.445-.073 1.13-.128 2.242-.164 3.336 0 1.094.054 2.078.164 2.953l8.203-2.297c.146-.036.255.073.328.329.109.218.201.492.273.82.11.328.183.656.219.984l.055.492-9.297 3.938c0 .328.018 1.112.055 2.351.073 1.24.146 2.717.218 4.43.073 1.677.146 3.5.219 5.469.073 1.932.146 3.737.219 5.414.073 1.677.128 3.154.164 4.43.036 1.239.055 2.023.055 2.351-.073 1.094-.401 1.641-.985 1.641-.547 0-1.148-.274-1.804-.82l-1.368-23.79zm29.094 21.93a44.242 44.242 0 01-.492-3.39 149.545 149.545 0 00-.383-4.047 52.364 52.364 0 00-.547-3.883c-.182-1.203-.474-2.188-.875-2.953-1.859 3.791-3.5 6.781-4.922 8.968-1.421 2.151-2.679 3.701-3.773 4.649-1.057.911-1.951 1.349-2.68 1.312-.729-.036-1.33-.364-1.804-.984s-.821-1.404-1.039-2.352a28.566 28.566 0 01-.383-2.734c0-.802.182-1.932.547-3.391a48.868 48.868 0 011.476-4.757 58.183 58.183 0 012.188-5.305 40.504 40.504 0 012.789-4.867c.984-1.459 2.005-2.662 3.062-3.61 1.058-.948 2.115-1.422 3.172-1.422 1.568-.255 2.716.092 3.445 1.04.766.911.912 2.46.438 4.648 0 2.406.091 4.466.273 6.18.219 1.713.438 3.354.657 4.922.255 1.567.474 3.208.656 4.921.219 1.714.328 3.774.328 6.18 0 .438-.055.82-.164 1.149-.073.291-.51.437-1.313.437-.109 0-.255-.091-.437-.273-.146-.183-.219-.328-.219-.438zm-2.953-24.445c-.401-.584-.948-.638-1.641-.164-.692.474-1.421 1.258-2.187 2.351-.766 1.094-1.55 2.407-2.352 3.938a78.014 78.014 0 00-2.242 4.648 67.518 67.518 0 00-1.804 4.485c-.511 1.385-.857 2.533-1.04 3.445 0 1.312.201 2.06.602 2.242.401.146.893-.073 1.477-.656.583-.583 1.239-1.422 1.968-2.516a40.788 40.788 0 002.188-3.5 95.263 95.263 0 002.023-3.609 70.709 70.709 0 001.532-2.844c.328-.765.583-1.476.765-2.133.182-.656.328-1.276.438-1.859.145-.62.218-1.24.218-1.859.037-.62.055-1.276.055-1.969zm8.805 24.773c0-2.37-.055-4.867-.164-7.492a587.856 587.856 0 00-.274-7.93 191.831 191.831 0 01-.054-7.929c.036-2.589.2-5.013.492-7.274.073-.036.237-.054.492-.054.292-.037.492-.055.601-.055.511 0 .912.091 1.204.273.328.146.492.493.492 1.039 0 2.151-.018 4.503-.055 7.055 0 2.516-.018 5.086-.055 7.711v7.711c0 2.552.037 4.867.11 6.945.036.62-.091 1.021-.383 1.203-.255.219-.583.329-.984.329-.438 0-.802-.11-1.094-.329-.292-.182-.401-.583-.328-1.203zm-1.203-39.156c0-.438.145-.729.437-.875.292-.146.62-.219.985-.219.729 0 1.184.237 1.367.711.182.474.273 1.021.273 1.641-.219.401-.492.693-.82.875a1.683 1.683 0 01-1.039.109c-.328-.109-.62-.346-.875-.711-.219-.364-.328-.875-.328-1.531zm10.062 39.539c-.401-4.922-.766-9.844-1.094-14.766-.291-4.958-.619-10.099-.984-15.421 0-.875.474-1.313 1.422-1.313h.437c.11 0 .237.146.383.438.146.291.292.838.438 1.64.182.766.364 1.951.547 3.555.218 1.568.474 3.627.765 6.18.292 2.552.62 5.742.985 9.57a65.279 65.279 0 001.804-7.219c.438-2.333 1.003-4.448 1.696-6.344.692-1.932 1.658-3.627 2.898-5.086 1.276-1.458 3.099-2.533 5.469-3.226 1.312.219 2.37 1.021 3.172 2.406.802 1.349 1.44 3.026 1.914 5.031.474 2.006.802 4.193.984 6.563.182 2.333.292 4.575.328 6.726.037 2.151.055 4.084.055 5.797 0 1.677.036 2.881.109 3.61a2.133 2.133 0 01-1.258 1.258c-.255.072-.51.091-.765.054-.255-.073-.492-.273-.711-.601 0-.401-.037-1.222-.11-2.461a534.13 534.13 0 00-.656-9.625 562.006 562.006 0 00-.328-5.305 291.133 291.133 0 00-.219-4.375 95.424 95.424 0 00-.164-2.461c-.765-1.349-1.531-2.115-2.297-2.297-.729-.182-1.476.055-2.242.711-.729.656-1.44 1.659-2.133 3.008-.692 1.349-1.349 2.88-1.968 4.594a82.288 82.288 0 00-1.75 5.304 92.199 92.199 0 00-1.422 5.414 173.703 173.703 0 00-1.039 4.704c-.255 1.385-.42 2.46-.492 3.226-.11.255-.347.511-.711.766a3.743 3.743 0 01-1.094.492c-.365.109-.748.146-1.149.109-.364-.073-.638-.291-.82-.656zm26.36-11.101l-.821.164a4 4 0 01-1.148.054 2.324 2.324 0 01-1.039-.328c-.328-.182-.492-.492-.492-.93 0-.255.054-.437.164-.546.109-.11.291-.274.546-.493.803-.656 1.477-1.494 2.024-2.515a31.43 31.43 0 001.586-3.336c.474-1.203.966-2.388 1.476-3.555a18.204 18.204 0 011.86-3.226 8.152 8.152 0 012.57-2.297c1.021-.584 2.279-.857 3.774-.821.619 0 1.312.146 2.078.438a8.251 8.251 0 012.132 1.203 6.241 6.241 0 011.641 1.75 4.21 4.21 0 01.656 2.297c.183.292 0 .711-.547 1.258-.51.547-1.221 1.148-2.132 1.804a60.751 60.751 0 01-3.118 1.969 177.96 177.96 0 01-3.281 1.86 763.133 763.133 0 01-2.789 1.531c-.802.437-1.331.765-1.586.984a5.654 5.654 0 00-.437 1.258c-.11.474-.201.93-.274 1.367-.036.401-.073.784-.109 1.149v.765c0 .693-.037 1.459-.11 2.297-.036.839 0 1.641.11 2.406a3.76 3.76 0 00.93 1.86c.474.474 1.276.711 2.406.711a6.911 6.911 0 003.39-.875 15.792 15.792 0 002.954-2.243 20.25 20.25 0 002.46-2.843 62.892 62.892 0 002.024-2.844 33.346 33.346 0 011.641-2.242c.474-.584.875-.875 1.203-.875.364 0 .747.073 1.148.218.438.11.656.402.656.876 0 .656-.273 1.44-.82 2.351-.51.912-1.203 1.878-2.078 2.899a28.896 28.896 0 01-2.953 3.062 37.143 37.143 0 01-3.336 2.68 24.377 24.377 0 01-3.336 1.914c-1.094.474-2.06.711-2.899.711-1.64 0-2.88-.401-3.718-1.203-.839-.803-1.44-1.805-1.805-3.008a16.196 16.196 0 01-.547-3.828c0-1.386-.018-2.662-.054-3.828zM194 556.422c-.62 0-1.276.31-1.969.93-.692.583-1.349 1.312-1.969 2.187a15.624 15.624 0 00-1.476 2.625c-.365.875-.547 1.604-.547 2.188.547 0 1.331-.201 2.352-.602a22.867 22.867 0 003.117-1.586 17.586 17.586 0 002.68-1.969c.765-.692 1.148-1.349 1.148-1.968 0-.329-.128-.602-.383-.821a3.31 3.31 0 00-.93-.547 4.973 4.973 0 00-1.039-.328 5.049 5.049 0 00-.984-.109zm14.219.219v-.438c0-.364.127-.62.383-.765.291-.146.619-.219.984-.219.292 0 .565.036.82.109.255.037.456.237.602.602.109.547.219 1.312.328 2.297.109.947.237 2.005.383 3.171.146 1.167.291 2.407.437 3.719.183 1.276.347 2.498.492 3.664.183 1.13.365 2.151.547 3.063.183.911.383 1.604.602 2.078-.109-3.5 0-6.526.328-9.078.328-2.589.948-4.685 1.859-6.289.948-1.641 2.224-2.771 3.828-3.391 1.641-.656 3.683-.802 6.126-.437 1.13 0 1.695.601 1.695 1.804 0 .474-.31.802-.93.985-.62.145-1.312.255-2.078.328-.766.036-1.513.091-2.242.164-.729.073-1.258.255-1.586.547-1.313.729-2.242 1.859-2.789 3.39-.511 1.532-.875 3.336-1.094 5.414a112.927 112.927 0 00-.492 6.836 61.245 61.245 0 01-.711 7.547c0 .365-.146.638-.438.82-.291.183-.656.274-1.093.274-.401 0-.802-.091-1.203-.274a2.092 2.092 0 01-.875-.82l-3.883-25.101zm52.062 24.226a131.186 131.186 0 003.063-5.469 56.81 56.81 0 002.679-5.687 39.04 39.04 0 001.915-5.852c.473-2.005.729-4.065.765-6.179-.364-1.203-.765-2.133-1.203-2.789-.401-.693-1.003-.948-1.805-.766-.802.146-1.896.784-3.281 1.914-1.385 1.13-3.263 2.88-5.633 5.25a16.838 16.838 0 01-.984-.711c-.292-.292-.438-.62-.438-.984v-.164a.887.887 0 00.055-.219c.693-.766 1.477-1.641 2.352-2.625a30.556 30.556 0 012.953-2.789 16.268 16.268 0 013.281-2.133 8.21 8.21 0 013.719-.875c1.276.583 2.187 1.531 2.734 2.844.547 1.276.82 2.771.82 4.484.037 1.677-.145 3.482-.546 5.414a41.687 41.687 0 01-1.641 5.688 48.173 48.173 0 01-2.242 5.414c-.802 1.713-1.586 3.172-2.352 4.375l14.656-4.43h.274c.182-.036.328-.055.437-.055.183 0 .401.019.657.055.255.037.474.091.656.164.219.073.401.182.547.328a.674.674 0 01.273.547c-1.312.839-2.844 1.531-4.594 2.078-1.713.547-3.5 1.076-5.359 1.586-1.823.474-3.609.948-5.359 1.422s-3.318 1.039-4.703 1.695c-.474 0-.875-.054-1.204-.164-.328-.145-.492-.601-.492-1.367z" fill="#333"></path><path d="M426.881 128.999a1.5 1.5 0 002.118.12l10.068-8.994a1.5 1.5 0 00-1.999-2.238l-8.949 7.995-7.994-8.949a1.5 1.5 0 00-2.238 1.999l8.994 10.067zM206.912 86.497c8.621.507 27.097-1.006 49.62-2.422 22.617-1.421 49.495-2.76 75.171-1.95 25.71.81 50.054 3.775 67.674 10.876 8.799 3.546 15.818 8.083 20.51 13.8 4.663 5.682 7.095 12.608 6.615 21.115l2.996.168c.52-9.243-2.142-16.911-7.292-23.186-5.12-6.24-12.632-11.023-21.708-14.68-18.13-7.306-42.911-10.279-68.701-11.092-25.824-.815-52.821.533-75.454 1.955-22.727 1.428-40.876 2.915-49.255 2.422l-.176 2.994zm174.171 312.54a1.498 1.498 0 00-.046-2.12l-9.75-9.338a1.5 1.5 0 10-2.075 2.167l8.667 8.3-8.3 8.667a1.5 1.5 0 102.167 2.075l9.337-9.751zm-234.278-58.131c8.098 10.683 29.431 26.11 67.102 38.469 37.731 12.379 91.987 21.728 166.125 20.125l-.064-3c-73.862 1.597-127.772-7.72-165.125-19.975-37.413-12.274-58.079-27.447-65.648-37.431l-2.39 1.812zm237.387 303.005a1.5 1.5 0 00-.281-2.103l-10.724-8.2a1.5 1.5 0 10-1.822 2.383l9.532 7.289-7.289 9.533a1.5 1.5 0 102.383 1.822l8.201-10.724zm-239.691-48.85c.274 6.703 4.026 12.473 10.08 17.397 6.044 4.917 14.513 9.108 24.572 12.689 20.13 7.167 47.013 12.026 74.675 15.218 55.307 6.382 114.196 6.145 129.37 4.122l-.396-2.974c-14.826 1.977-73.437 2.24-128.63-4.128-27.588-3.183-54.205-8.012-74.013-15.064-9.909-3.528-18.018-7.579-23.685-12.19-5.657-4.602-8.749-9.645-8.975-15.192l-2.998.122z" fill="#000"></path></svg>