<svg xmlns="http://www.w3.org/2000/svg" viewBox="0 0 1200 900"><g fill="none" transform="translate(356.9,523.1) scale(1.13,1.13)"><path d="M424 5v20H0V5c0-2.8 2.2-5 5-5h414c2.8 0 5 2.2 5 5z" fill="#d2d2d2"></path><path fill="#a3a3a3" d="M7 6h4v4H7zm6 0h4v4h-4zm6 0h4v4h-4z"></path></g><g fill="none" fill-rule="evenodd" transform="translate(356.9,551.4) scale(1.13,1.13)"><g fill-rule="nonzero" transform="translate(95,0)"><path fill="#9eebcf" d="M7-1v86H4V-1z"></path><circle stroke="#9eebcf" stroke-width="3" fill="#fff" transform="translate(0,0) translate(5.5,-1.5)" r="6.5"></circle><path fill="#9eebcf" d="M5.5 89L0 81h11z"></path></g><g transform="translate(0,85)"><path d="M200 169.1c0 1-.6 1.9-1.4 1.9H1.4c-.8 0-1.4-.9-1.4-1.9V5c0-2.8 2.2-5 5-5h190c2.8 0 5 2.2 5 5v164.1z" fill="#ff003c"></path><path d="M5 0h190c2.8 0 5 2.2 5 5v18H0V5c0-2.8 2.2-5 5-5z" fill="#ccc"></path><path d="M17 12.5c0 2.5-2 4.5-4.5 4.5S8 15 8 12.5 10 8 12.5 8s4.5 2 4.5 4.5" fill="#e74c3c"></path><path d="M33 12.5c0 2.5-2 4.5-4.5 4.5S24 15 24 12.5 26 8 28.5 8s4.5 2 4.5 4.5" fill="#f1c40f"></path><path d="M48 12.5c0 2.5-2 4.5-4.5 4.5S39 15 39 12.5 41 8 43.5 8s4.5 2 4.5 4.5" fill="#2ecc71"></path></g></g><g fill="none" fill-rule="evenodd" transform="translate(723,691.5) translate(-113,-149.2) translate(0,9) scale(1.13,1.13)" id="anime-unhappy-pod"><g fill-rule="nonzero" transform="translate(95,0)"><path fill="#9eebcf" d="M7-1v86H4V-1z"></path><circle stroke="#9eebcf" stroke-width="3" fill="#fff" transform="translate(0,0) translate(5.5,-1.5)" r="6.5"></circle><path fill="#9eebcf" d="M5.5 89L0 81h11z"></path></g><g transform="translate(0,85)"><path d="M200 169.1c0 1-.6 1.9-1.4 1.9H1.4c-.8 0-1.4-.9-1.4-1.9V5c0-2.8 2.2-5 5-5h190c2.8 0 5 2.2 5 5v164.1z" fill="#ff003c"></path><path d="M5 0h190c2.8 0 5 2.2 5 5v18H0V5c0-2.8 2.2-5 5-5z" fill="#ccc"></path><path d="M17 12.5c0 2.5-2 4.5-4.5 4.5S8 15 8 12.5 10 8 12.5 8s4.5 2 4.5 4.5" fill="#e74c3c"></path><path d="M33 12.5c0 2.5-2 4.5-4.5 4.5S24 15 24 12.5 26 8 28.5 8s4.5 2 4.5 4.5" fill="#f1c40f"></path><path d="M48 12.5c0 2.5-2 4.5-4.5 4.5S39 15 39 12.5 41 8 43.5 8s4.5 2 4.5 4.5" fill="#2ecc71"></path></g><g fill="#aaa" transform="translate(112.7,71)" style="white-space:pre">PORT 3000</g><g id="anime-ip-before" fill="#4a4a4a" transform="translate(64.9,288.7)" style="white-space:pre">10.0.0.2</g><g id="anime-ip-after" fill="#ff3030" opacity="0" transform="translate(66.6,288.7)" style="white-space:pre">10.0.0.3</g></g><path d="M171 176.9l6.2 6.1c20.8-20.5 54.8-20.5 75.6 0l6.2-6.1c-11.8-11.5-27.4-17.9-44-17.9s-32.2 6.4-44 17.9zm3-41.9l7-7 7 7 6-6-7-7 6.9-7-6-6-6.9 6.9-6.9-6.9-6 6 6.9 7-7 7zm87.9-20l-6-6-6.9 6.9-6.9-6.9-6 6 6.9 7-7 7 6 6 7-7 7 7 6-6-7-7z" fill="#000" fill-rule="nonzero" transform="translate(676,722.1) translate(-168,-109)" id="anime-unhappy" opacity="0"></path><g fill="#aaa" transform="translate(359.8,508.3) scale(1.13,1.13)" style="white-space:pre">PORT 80</g><g fill="#aaa" transform="translate(482.5,631.6) scale(1.13,1.13)" style="white-space:pre">PORT 3000</g><g fill="#4a4a4a" transform="translate(429,877.6) scale(1.13,1.13)" style="white-space:pre">10.0.0.1</g><g fill="#4a4a4a" transform="translate(742.4,508.3) scale(1.13,1.13)" style="white-space:pre">10.96.0.1</g><g fill="none" fill-rule="evenodd" transform="translate(449.7,46.2) scale(1.13,1.13)"><path d="M129 434.5l-36-65h72zM119 171h20v198.5h-20z" fill="#b8e986"></path><g fill-rule="nonzero"><path d="M0 171v-70.4c0-1.5 1.3-2.8 2.8-2.8h54.3c1.1-.4.7-.7.5-1-3.5-5.7-5.7-11.9-6.6-18.7-2-15.4 2.4-28.7 12.9-40.2.6-.7 1.1-1.3 1.8-1.9.5-.5.5-.5 0-1-1.6-1.5-3.1-3.2-4.3-5.2-2.8-4.4-4.4-9.2-4.5-14.5 0-1.3.2-1.5 1.4-.9 1.3.6 2.6 1.2 4 1.6.2-2.3-.1-4.2-.1-6.2 0-.7-.1-1.4 0-2.1 0-1 .3-1.2 1.2-.7 1.4.8 2.8 1.5 4.3 2.1.9.4.9.4.8-.6-.3-2.5-.3-5 0-7.5.2-1 .7-1.2 1-.9.2.2.4.5.6.7 3.1 3.9 6.5 7.3 10.6 10.1 3.6 2.4 7.5 3.7 11.8 3.7 3.3.1 6.4-.6 9.4-1.8 2.8-1 5.6-2.2 8.5-2.8 2.9-.6 5.9-.9 8.9-.2 5 1.2 8.4 4.5 10.6 9.1.8 1.8 1.2 3.6 1.5 5.5.1.8.1.8.9.7 4.4-.3 8.6.4 12.4 2.7 4.6 2.7 7.2 6.9 8.2 12 .7 3.8.5 7.6-.1 11.4-.5 3-1.3 5.9-2.2 8.7-.3.7-.4.7.5 1 4.4 1.5 7.2 4.6 8 9.2 1.1 6.4-2.9 12-8.8 13.4-1.1.3-2.2.4-3.4.3-.4-.1-.6.2-.7.6-.9 3.1-2 6-3.4 8.9-2.9 5.7-6.7 10.6-11.5 14.8-1.1.8-1.2 1.2-1 1.8.6 1.6 1.1 3.2 1.6 4.7 3.2 10.1 6.5 20.1 9.7 30.2.3.7.6 1 1.3 1.1 3.2.7 5.2 2.7 6 5.8.2.7.3 1.4.4 2.1.8-.5 1.1-.9 1.6-1.3 1.3-1.1 2.8-1.4 4.5-.8 1.6.6 2.6 1.8 2.9 3.6.1.6.2.7.8.8 2.8.5 4.5 3.2 3.5 5.9-.2.7-.1 1.2.4 1.8 1.2 1.4 1.9 3.2 2.2 5.1.1.8 0 .8.9.8h16.5c0-1.7-.5-3-.8-4.4-1.9.1-3.2.4-4.4.8-.7.3-1.1.1-1.2-.3-.1-.4.2-.6.8-.8 1.2-.4 2.4-.7 3.5-1.1 1.2-.3 1-.1 1-1.3 0-.6-.2-.7-.5-.7h-5.8c-1-.1-1.2-.3-1.2-.6.8-.6 1-.5 1.2-.5h5.7c.5 0 .7-.2.8-.7.2-1.4.2-1.4-1.1-1.8-1.2-.3-2.3-.7-3.4-1-.9-.3-1-.6-1-.9.9-.4 1.2-.3 1.4-.2 1.4.4 2.7.8 4.1 1.2 1.8-2.8 3.4-4.8 5.5-6.3.4-.3.5-.6.5-1.1v-12.3c.1-.6.5-.8.9-.5 4 3.7 7.5 6.9 10.9 10.1.9.9.6.9 1.7.1 7.5-5.3 17.5-5.3 25 0 .9.7.7.9 1.7-.1 3.5-3.2 7-6.4 10.5-9.7.3-.2.6-.7 1.1-.5.6.2.4.7.4 1.1v18c0 1.2 0 1.2 1.1.8.9-.2 1.8-.5 2.8-.8 1.4.6 1.3.8.9 1l-2.3.7-2 .6c-.6.9-.6 1.5-.5 2.1 2.9.2 4.6.2 6.4.2 1 .1 1.2.3 1.1.6-.7.6-1 .6-1.2.6h-5.6c-.8 0-.8 0-.8.7 0 1.3-.1 1 1 1.3 1 .4 2.2.6 3.3 1 .9.4 1 .6.9 1-2.4-.2-3.4-.5-4.6-.8-.6 1.6-.6 2.8-.6 4 0 .4.1.6.6.6h17.3c.4 0 .9 0 1.3.2v.8c-1 .2-1.3.2-1.6.2H0z" fill="#151d38"></path><path d="M46.4 164v-.1H91c1 0 1 0 1-1v-62.1c0-1-.6-1.7-1.7-1.8H3.1c-1.5.1-2.1.7-2.1 2.1V163c0 1 0 1 1 1h44.4z" fill="#ccd6da"></path><path d="M75.2 97.8h14.6c1.5 0 2.6.9 2.9 2.3.1.3.1.6.1 1v16.6c0 .9.1.9.8.9 5.8.8 11.6.4 17.3-1.1 13-3.4 22.8-11 29.5-22.6 2-3.3 3.4-6.8 4.4-10.5.2-.8.2-.8-.4-1-.4-.1-.8-.2-1.1-.3-.7-.3-.9-.5-.8-.9.1-.5.5-.5 1.2-.3 1.9.7 3.8.9 5.8.5 5.9-1.1 9.7-7.1 8.2-13-1.6-5.9-7.8-9.3-13.5-7.3-.3 0-.5.2-.8.2-.3.1-.5-.1-.6-.3-.1-.3 0-.5.2-.7.1-.1.3-.2.5-.2.4-.2.8-.3 1.2-.4.1-.1.2-.1.3-.2.1-.2-.1-.2-.3-.2-.1-.1-.3-.1-.5-.2-3-1-5.9-2.4-8.5-4.1-4.8-3.2-8.5-7.2-10.9-12.5-1.1-2.5-1.8-5.1-2.3-7.8-.1-.8-.1-.8-.8-.5-.2.2-.4.3-.7.4-3.5 2.1-7.1 3.9-11 5.3-8.2 3.1-16.7 4.4-25.4 2.8-6-1.1-11.7-3.3-16.6-7.1-.7-.4-.7-.4-1.2.1-4.4 4.3-8 9.2-10.5 14.8-4 8.8-5.2 17.9-3.7 27.5 1 6.4 3.3 12.4 6.7 17.9.4.7.9 1 1.7 1 4.7-.1 9.4-.1 14.2-.1z" fill="#fae0d6"></path><path d="M93 142v21.7c0 .5.2.7.7.7H109c.9 0 1 .1 1 .9v4c0 .6-.1.7.6.7H126c.6 0 .7-.2.7-.6.2-1.5.6-2.9 1.4-4.1.3-.5.3-.9.1-1.4l-2.4-7.5c-2-6.1-4-12.3-6-18.4 0-.2-.1-.4-.2-.6 0-.4.1-.7.5-.7.3-.1.5 0 .7.3 0 .1 0 .3.1.4 1.4 4.3 2.8 8.7 4.2 13 1.3 4.1 2.6 8.2 4 12.3.2.7.2.7.7.2 1.5-1.4 3.2-2.3 5.1-2.8.6-.1.7-.1.5-.7-.3-1.3-.7-2.7-1-4-.9-4.1 1.6-8.2 5.5-9.2.3-.1.5-.1.8-.2.3 0 .4-.2.3-.5-.1-.2-.1-.3-.2-.4-3.1-9.8-6.3-19.5-9.4-29.3l-1.8-5.4c-.1-.4-.3-.6-.6-.2-.1.1-.2.2-.4.3-2.6 2-5.5 3.7-8.5 5-5.8 2.7-12 4.3-18.4 4.5-2.7.1-5.5.1-8.1-.3-.5-.1-.6.1-.6.5V142z" fill="#fff3a2"></path><path d="M220.6 169.9h17.5c.9 0 .9 0 .9-.8v-29.6c0-.2.1-.4-.1-.5-.2-.1-.3.2-.5.3-2.1 2-4.3 4-6.5 6-1.3 1.2-2.6 2.5-3.9 3.7-.6.5-.7.5-1.3.1-.2-.2-.3-.3-.5-.4-3.1-2.4-6.6-3.8-10.6-4.1-5.2-.4-9.9 1-14.1 4.3-.9.7-.9.7-1.8-.1l-.1-.1-9.6-9c-.2-.2-.4-.7-.8-.5-.2.1-.1.5-.1.8v10.5c0 .5 0 .9-.5 1.2-5.8 3.9-7.1 11.6-3.8 17.5.3.6.7.8 1.4.8h12.7c.3 0 .7.1.8-.2.1-.2-.3-.4-.5-.6-2.1-2.3-2.7-4.9-1.8-7.8.8-2.9 2.9-4.7 5.8-5.3.6-.2 1.2-.3 1.8-.2.3 0 .5.2.5.6 0 .3-.2.5-.5.5-.4.1-.7.1-1 .1-2.8.4-5.2 2.5-5.7 5.2-.6 2.8.6 5.6 3 7.1.6.4 1.2.6 2 .6 5.9-.1 11.6-.1 17.3-.1z" fill="#c27659"></path><path d="M46.5 165c-8.2.1-16.4.1-24.5.1H1.6c-.4 0-.6.1-.6.5v2.1c0 1.3 0 1.3 1.5 1.3h34.3c17.9 0 35.8-.1 53.7-.1h.7c.6 0 .8-.2.8-.7v-2.7c0-.4-.2-.5-.6-.5H46.5zm99.5 5h17.5c.4 0 .5-.1.5-.5-.2-1.7-.8-3.3-1.8-4.7-.2-.2-.3-.2-.4.1-.1.1-.1.3-.2.4-1.3 2.8-4.5 3.6-6.9 1.6-.4-.4-.7-.4-1.2-.2-1.5.6-2.9.4-4.2-.5-1.4-1-2-2.3-1.9-4.1.1-.6 0-.6-.5-.5-1.2.4-2.4.2-3.5-.4-.2-.2-.5-.2-.8-.2h-5.5c-4.2.1-7.8 3.1-8.9 7.3-.1.4-.2.8-.2 1.3 0 .3.1.4.4.4H146z" fill="#ccd6da"></path><path d="M139 159.3h2.2c.3 0 .4-.1.3-.4-.8-2.1-.9-4.4-1.4-6.6-.1-.5.1-.8.4-.9.4-.1.7.2.8.7l.3 1.5c.2 1.3.4 2.6.7 3.9.4 1.7 2.1 2.8 4 2.4 1.8-.3 2.9-1.8 2.7-3.6-.3-1.5-.5-3-.9-4.4-.8-3.3-4.3-5.4-7.8-4.8-3.4.6-5.8 3.9-5.2 7.1.3 1.5.8 3 1.1 4.6.1.3.3.5.7.5h2.1zm10 3.3c.1 1.2.4 2.1 1.3 2.7 1.9 1.4 4.5.7 5.3-1.5.8-2.1 1.5-4.3 2.2-6.4.1-.3.1-.5.2-.8.1-1.6-.8-3-2.4-3.5-1.5-.4-3.2.2-3.9 1.6-.5 1-.9 2-1.1 3.1-.1.8-.3 1.6-.7 2.3-.5.8-.8 1.7-.9 2.5z" fill="#fae0d6"></path><path d="M100.8 169h7.5c.4-.1.7-.2.7-.6v-3c0-.3-.2-.4-.4-.4H93.7c-.5 0-.7.2-.7.6v2.7c0 .7 0 .7.8.7h7z" fill="#ccd6da"></path><path d="M162 161.4c0-1.8-1.2-3.1-2.9-3.3-.8-.2-.9-.1-1.1.5-.5 1.3-.9 2.5-1.4 3.7-.4 1.1-.6 2.3-1.5 3.3-.3.3 0 .5.2.7 1.8 1.3 4.5.7 5.5-1.3.4-.9.7-1.9 1.1-2.9.1-.3.1-.6.1-.7z" fill="#fae0d6"></path><path d="M58 132.2c-.3 4.9-3.3 8.5-7.8 9.5-5.7 1.4-11.3-2.6-12.1-8.4-.7-5 2.5-10 7.6-11.2 1.1-.2 1.2-.2 1.4.9.7 3.8 3.2 6.6 6.9 7.5.9.2 1.7.2 2.6.1 1.2-.1 1.3 0 1.4 1.2v.4z" fill="#151d38"></path><path d="M48.2 141c.6 0 1.4-.1 2.2-.3 3.6-1 6.4-4.5 6.6-8.1 0-.9 0-.9-.7-.9-4.9.1-9.1-3.2-10.1-7.9-.3-1.1-.4-.8-1.1-.6-4.1 1.4-6.7 5.7-6 10.2.7 4.3 4.5 7.6 9.1 7.6z" fill="#fff"></path><path d="M91.8 61.4H105c2 0 4 0 6 .1 1 0 1.2.4.8 1.2-3 5.6-7.3 9.5-13.5 10.9-6.3 1.3-11.8-.4-16.5-4.9-1.9-1.7-3.3-3.8-4.4-6.1-.1-.3-.3-.5-.3-.7-.2-.5 0-.7.5-.9h.5c3.9 0 7.8.1 11.7.1.7 0 1.3.1 2 .1v.2z" fill="#151d38"></path><path d="M95.1 62.2h-3.6c-1.5 0-2.9 0-4.4-.1-2.5-.1-5.1-.1-7.6-.1-.6 0-.6 0-.3.5 1 1.8 2.3 3.4 3.8 4.8 4.4 3.9 9.6 5.5 15.4 4.3 5.4-1 9.4-4 12.3-8.4.5-.8.5-.9-.5-.9-5 0-10.1-.1-15.1-.1z" fill="#fff"></path><path d="M57 67.5c0-3.3 2.5-6.5 6.5-6.5 3.6 0 6.5 2.9 6.5 6.5S67.1 74 63.5 74 57 71.1 57 67.5zm77 1c.1 3.1-2.5 6.5-6.5 6.5-3.6 0-6.5-2.9-6.5-6.5s2.8-6.5 6.5-6.5c3.9-.1 6.7 3.2 6.5 6.5z" fill="#e5384a"></path><path d="M72.5 53c2 0 3.5 1.5 3.5 3.5S74.5 60 72.6 60c-2 0-3.6-1.5-3.6-3.5 0-1.9 1.5-3.5 3.5-3.5zm45 1c2 0 3.5 1.5 3.5 3.6 0 1.9-1.6 3.4-3.5 3.4s-3.5-1.6-3.5-3.5c0-2 1.5-3.5 3.5-3.5zM154 72.1c0 4-4.2 6.9-8.2 5.6-.1-.1-.2-.1-.3-.2-.4-.1-.6-.4-.4-.8.1-.3.4-.4.8-.3.2 0 .4.2.6.2 2.8.7 5.7-1 6.2-3.6.6-2.8-1.3-5.4-4.2-5.8-.2 0-.5-.1-.8-.1-.2 0-.4-.3-.4-.5 0-.4.2-.5.5-.6h.7c3.2.4 5.5 3 5.5 6.1zM95 52.7c0 .3-.2.4-.5.6-.8.4-1.6.8-2.4 1.3-.3.1-.4.3 0 .5.6.5 1.3 1 1.9 1.5.2.1.4.3.5.4.2.2.2.5.1.8-.2.2-.4.2-.7.2-.1-.1-.2-.2-.4-.3-1-.8-2-1.5-3-2.3-.7-.6-.7-1 .1-1.5 1.1-.6 2.3-1.2 3.4-1.8.6-.2 1 0 1 .6zm-31 2.2c.1-2.9 2-5.3 4.7-5.8.3-.1.6-.1.9-.1.2.1.4.3.4.5 0 .3-.1.6-.3.7-.3 0-.6.1-.8.1-2.1.5-3.5 2.1-3.7 4.4v.7c-.1.4-.2.6-.6.6-.4 0-.5-.3-.6-.7v-.4zm61 0v.7c-.1.3-.3.4-.6.4s-.5-.2-.5-.4V55c-.2-2.4-1.7-4.2-3.9-4.7-.2 0-.3 0-.4-.1-.4-.1-.7-.3-.6-.7.1-.5.4-.5.8-.5 1.3.2 2.5.7 3.4 1.6 1.1 1.2 1.7 2.6 1.8 4.3zM213.7 167c-1.5-.1-2.6-.5-3.3-1.5-.3-.4-.5-.4-.8 0-1.4 1.7-3.5 2-5.1.8-.6-.4-1.1-.9-1.4-1.6-.1-.3-.2-.8.2-1 .4-.2.7 0 .9.4.1.3.3.5.5.8 1.3 1.5 3.6 1 4.4-.9.1-.4.2-.7-.3-.8-.8-.2-1.2-.8-1.7-1.4-.2-.2-.3-.5-.4-.8-.1-.6.1-1 .7-1h5.2c.5 0 .7.4.6 1-.3 1-1 1.5-1.7 2-.3.2-.7.2-.8.5 0 .4.2.7.4 1.1 1.1 1.6 3.3 1.6 4.5 0l.3-.6c.2-.3.5-.4.8-.2.3.1.4.4.2.7-.2.6-.6 1.2-1 1.6-.8.6-1.6.9-2.2.9zm13.3-11c1.7 0 3 1.3 3 3s-1.4 3-3.1 3c-1.7 0-2.9-1.4-2.9-3.1 0-1.7 1.3-2.9 3-2.9zm-35 6c-1.7 0-3-1.3-3-3s1.2-3 2.9-3c1.8 0 3.1 1.3 3.1 3s-1.3 3-3 3z" fill="#151d38"></path></g><path d="M157.385 184.781V199h-2.93v-14.219h2.93zm2.47 3.653h2.657l.088 1.22q1.132-1.416 3.037-1.416 1.68 0 2.5.987.82.986.84 2.949V199h-2.823v-6.758q0-.898-.39-1.304-.391-.405-1.3-.405-1.19 0-1.786 1.016V199h-2.823v-10.566zm15.655 8.486q.781 0 1.27-.43.488-.43.507-1.142h2.647q-.01 1.074-.586 1.967-.577.894-1.577 1.387-1.001.493-2.212.493-2.266 0-3.575-1.44-1.308-1.44-1.308-3.98v-.185q0-2.442 1.299-3.897 1.298-1.455 3.564-1.455 1.982 0 3.179 1.128 1.196 1.128 1.216 3.003h-2.647q-.02-.82-.508-1.333t-1.289-.513q-.986 0-1.489.718-.503.718-.503 2.33v.292q0 1.631.498 2.344.498.713 1.514.713zm5.595-3.174v-.127q0-1.572.606-2.803.605-1.23 1.743-1.904 1.138-.674 2.642-.674 2.138 0 3.49 1.309 1.353 1.308 1.51 3.555l.02.722q0 2.432-1.358 3.902-1.358 1.47-3.643 1.47-2.285 0-3.647-1.466-1.363-1.464-1.363-3.984zm2.823.078q0 1.504.566 2.3.567.796 1.621.796 1.026 0 1.602-.786.576-.786.576-2.515 0-1.474-.576-2.285-.576-.81-1.621-.81-1.035 0-1.602.805-.566.806-.566 2.495zm8.926-5.39h2.646l.088 1.181q1.123-1.377 3.037-1.377 2.041 0 2.803 1.612 1.113-1.612 3.174-1.612 1.718 0 2.558 1.001.84 1.001.84 3.013V199h-2.832v-6.738q0-.899-.352-1.314-.351-.415-1.24-.415-1.27 0-1.758 1.211l.01 7.256h-2.822v-6.729q0-.917-.361-1.328-.362-.41-1.23-.41-1.202 0-1.74.996V199h-2.821v-10.566zm20.292 0V199h-2.832v-10.566h2.832zm-2.998-2.735q0-.635.425-1.045.425-.41 1.157-.41.723 0 1.153.41.43.41.43 1.045 0 .645-.435 1.055-.435.41-1.148.41-.712 0-1.147-.41-.435-.41-.435-1.055zm5.264 2.735h2.656l.088 1.22q1.133-1.416 3.037-1.416 1.68 0 2.5.987.82.986.84 2.949V199h-2.822v-6.758q0-.898-.39-1.304-.391-.405-1.3-.405-1.19 0-1.787 1.016V199h-2.822v-10.566zm10.85 5.322v-.117q0-2.432 1.157-3.916 1.157-1.485 3.12-1.485 1.738 0 2.705 1.192l.117-.996h2.559v10.214q0 1.387-.63 2.413-.63 1.025-1.772 1.562-1.143.537-2.676.537-1.162 0-2.266-.464-1.103-.464-1.67-1.196l1.25-1.719q1.055 1.182 2.559 1.182 1.123 0 1.748-.6.625-.601.625-1.705v-.566q-.977 1.103-2.568 1.103-1.905 0-3.082-1.489-1.176-1.49-1.176-3.95zm2.822.088q0 1.435.576 2.25.576.816 1.582.816 1.29 0 1.846-.967V191.5q-.567-.967-1.826-.967-1.016 0-1.597.83t-.581 2.48zm-74.444 13.992h2.823v2.598h1.807v2.07h-1.807v5.273q0 .586.225.84.224.254.859.254.469 0 .83-.068v2.138q-.83.254-1.709.254-2.969 0-3.027-2.998v-5.693h-1.543v-2.07h1.543v-2.598zm12.178 2.53l-.039 2.714q-.576-.078-1.015-.078-1.602 0-2.1 1.084V221h-2.822v-10.566h2.666l.078 1.26q.85-1.456 2.353-1.456.47 0 .88.127zm10 10.634h-2.851q-.196-.38-.283-.947-1.026 1.142-2.666 1.142-1.553 0-2.574-.898-1.02-.899-1.02-2.266 0-1.68 1.245-2.578 1.245-.898 3.599-.908h1.298v-.606q0-.732-.376-1.171-.376-.44-1.186-.44-.713 0-1.118.342-.406.342-.406.937h-2.822q0-.918.567-1.699.566-.781 1.601-1.225 1.035-.445 2.324-.445 1.954 0 3.101.982 1.147.981 1.147 2.759v4.58q.01 1.504.42 2.275V221zm-5.185-1.963q.625 0 1.152-.278.528-.279.781-.747v-1.817h-1.054q-2.12 0-2.256 1.465l-.01.166q0 .528.371.87.371.341 1.016.341zM182.17 221h-2.832v-8.496h-1.572v-2.07h1.572v-.899q0-1.777 1.02-2.759 1.02-.981 2.857-.981.586 0 1.435.195l-.029 2.188q-.351-.088-.86-.088-1.591 0-1.591 1.494v.85h2.1v2.07h-2.1V221zm7.168 0h-2.832v-8.496h-1.572v-2.07h1.572v-.899q0-1.777 1.02-2.759 1.02-.981 2.857-.981.586 0 1.435.195l-.029 2.188q-.351-.088-.86-.088-1.591 0-1.591 1.494v.85h2.1v2.07h-2.1V221zm6.543-10.566V221h-2.832v-10.566h2.832zm-2.998-2.735q0-.635.425-1.045.424-.41 1.157-.41.722 0 1.152.41.43.41.43 1.045 0 .645-.435 1.055-.434.41-1.147.41-.713 0-1.148-.41-.434-.41-.434-1.055zm9.717 11.22q.78 0 1.27-.429.487-.43.507-1.142h2.646q-.01 1.074-.585 1.967-.577.894-1.578 1.387-1 .493-2.212.493-2.265 0-3.574-1.44-1.308-1.44-1.308-3.98v-.185q0-2.442 1.298-3.897 1.3-1.455 3.565-1.455 1.982 0 3.179 1.128 1.196 1.128 1.215 3.003h-2.646q-.02-.82-.508-1.333t-1.289-.513q-.986 0-1.49.718-.502.718-.502 2.33v.292q0 1.631.498 2.344.498.713 1.514.713z" fill="#7da159"></path></g><g stroke="#f5a623" stroke-dasharray="6" stroke-width="13" fill="none" fill-rule="evenodd" transform="translate(433.3,239.5) scale(1.13,1.13)"><path id="anime-path1" d="M258 379.2V263.5H143.5V0" stroke-dasharray="12" opacity="0"></path><path id="anime-path1-2" d="M258 379.2V263.5H143.5V0" stroke-dasharray="12" opacity="0" transform="translate(289.2,0) scale(-1,1)"></path></g><script><![CDATA[/*
 KeyshapeJS v1.1.0 (c) 2018-2019 Pixofield Ltd | pixofield.com/keyshapejs/mit-license */
window.KeyshapeJS=function(){function t(a){return"undefined"!==typeof a}function x(a,b){return a&&0==a.indexOf(b)}function H(a){if(!isFinite(a))throw Error("Non-finite value");}function R(a){if(14>=a)return 16;var b=S[a];b||(b=t(ca[a])?0|(a.toLowerCase().indexOf("color")==a.length-5?48:0):1);return b}function K(a){return 0<=a?Math.pow(a,1/3):-Math.pow(-a,1/3)}function da(a,b,c,d){if(0==a)return 0==b?b=-d/c:(a=Math.sqrt(c*c-4*b*d),d=(-c+a)/(2*b),0<=d&&1>=d?b=d:(d=(-c-a)/(2*b),b=0<=d&&1>=d?d:0)),b;
var e=c/a-b*b/(a*a)/3;c=b*b*b/(a*a*a)/13.5-b*c/(a*a)/3+d/a;var n=c*c/4+e*e*e/27;b=-b/(3*a);if(0>=n){if(0==e&&0==c)return-K(d/a);a=Math.sqrt(c*c/4-n);d=Math.acos(-c/2/a);c=Math.cos(d/3);d=Math.sqrt(3)*Math.sin(d/3);a=K(a);e=2*a*c+b;if(0<=e&&1>=e)return e;e=-a*(c+d)+b;if(0<=e&&1>=e)return e;e=a*(d-c)+b;if(0<=e&&1>=e)return e}else{a=K(-c/2+Math.sqrt(n));c=K(-c/2-Math.sqrt(n));d=a+c+b;if(0<=d&&1>=d)return d;d=-(a+c)/2+b;if(0<=d&&1>=d)return d}return 0}function ea(a,b){if(48==a&&"number"===typeof b)return"rgba("+
(b>>>24)+","+(b>>>16&255)+","+(b>>>8&255)+","+(b&255)/255+")";if(64==a)return b=b.map(function(a){return a+"px"}),b.join(",");if(96==a){a="";for(var c=b.length,d=0;d<c;d+=2)a+=b[d],a+=b[d+1].join(",");return a}if(80==a){if(0==b[0])return"none";a="";c=b.length;for(d=0;d<c;)a+=T[b[d]],1==b[d]?a+="("+b[d+1]+") ":5==b[d]?(a+="("+b[d+1]+"px "+b[d+2]+"px "+b[d+3]+"px rgba("+(b[d+4]>>>24)+","+(b[d+4]>>16&255)+","+(b[d+4]>>8&255)+","+(b[d+4]&255)/255+")) ",d+=3):a=2==b[d]?a+("("+b[d+1]+"px) "):7==b[d]?a+
("("+b[d+1]+"deg) "):a+("("+(0>b[d+1]?0:b[d+1])+") "),d+=2;return a}return 32==a?b+"px":b}function y(a){return 0>=a?0:255<=a?255:a}function fa(a,b,c,d){if(16==a||32==a)return(c-b)*d+b;if(0==a)return.5>d?b:c;if(48==a){if("number"===typeof b&&"number"===typeof c){var e=1-d;return(y(e*(b>>>24)+d*(c>>>24))<<24|y(e*(b>>>16&255)+d*(c>>>16&255))<<16|y(e*(b>>>8&255)+d*(c>>>8&255))<<8|y(e*(b&255)+d*(c&255)))>>>0}return.5>d?b:c}if(64==a){0==b.length&&(b=[0]);0==c.length&&(c=[0]);var n=b.length;b.length!=c.length&&
(n=b.length*c.length);var l=[];for(a=0;a<n;++a){var f=b[a%b.length];var h=(c[a%c.length]-f)*d+f;0>h&&(h=0);l.push(h)}return l}if(96==a){if(b.length!=c.length)return.5>d?b:c;n=b.length;l=[];for(a=0;a<n;a+=2){if(b[a]!==c[a])return.5>d?b:c;l[a]=b[a];l[a+1]=[];for(f=0;f<b[a+1].length;++f)l[a+1].push((c[a+1][f]-b[a+1][f])*d+b[a+1][f])}return l}if(80==a){n=b.length;if(n!=c.length)return.5>d?b:c;l=[];for(a=0;a<n;){if(b[a]!=c[a]||1==b[a])return.5>d?b:c;l[a]=b[a];l[a+1]=(c[a+1]-b[a+1])*d+b[a+1];if(5==b[a]){l[a+
2]=(c[a+2]-b[a+2])*d+b[a+2];l[a+3]=(c[a+3]-b[a+3])*d+b[a+3];e=1-d;var g=b[a+4],q=c[a+4];h=e*(g>>>24)+d*(q>>>24);var m=e*(g>>16&255)+d*(q>>16&255);f=e*(g>>8&255)+d*(q>>8&255);e=e*(g&255)+d*(q&255);l[a+4]=(y(m)<<16|y(f)<<8|y(e))+16777216*(y(h)|0);a+=3}a+=2}return l}return 0}function U(a,b){a:{var c=a+b[2];var d=b[4].length;for(var e=0;e<d;++e)if(c<b[4][e]){c=e;break a}c=d-1}d=b[2];e=b[4][c-1]-d;a=(a-e)/(b[4][c]-d-e);if(b[6]&&b[6].length>c-1)if(d=b[6][c-1],1==d[0])if(0>=a)a=0;else if(1<=a)a=1;else{e=
d[1];var n=d[3];a=da(3*e-3*n+1,-6*e+3*n,3*e,-a);a=3*a*(1-a)*(1-a)*d[2]+3*a*a*(1-a)*d[4]+a*a*a}else 2==d[0]?(d=d[1],a=Math.ceil(a*d)/d):3==d[0]&&(d=d[1],a=Math.floor(a*d)/d);return fa(b[1]&240,b[5][c-1],b[5][c],a)}function L(){u||(v=(new Date).getTime()+V)}function O(a){if(a||!E){for(var b=!1,c=0;c<w.length;++c)w[c].J(a)&&(b=!0);if(a)for(;0<I.length;)if(a=I.shift(),c=a[0],1==a[1])c.onfinish&&(c.onfinish(),b=!0),c.I();else if(2==a[1]&&c.onloop)c.onloop();return b}}function W(){L();O(!0)&&!u?(E=!0,M(W)):
E=!1}function N(){E||(E=!0,M(W))}function X(a,b){var c=[];a.split(b).forEach(function(a){c.push(parseFloat(a))});return c}function A(a){-1==a.indexOf(",")&&(a=a.replace(" ",","));return X(a,",")}function Y(a){a._ks||(a._ks={});if(!a._ks.transform){for(var b=a._ks.transform=[],c=0;14>=c;++c)b[c]=0;b[10]=1;b[11]=1;if(a=a.getAttribute("transform")){a=a.trim().split(") ");for(c=a.length-2;0<=c;--c)if(x(a[c],"translate(")){for(var d=0;d<c;d++)a.shift();break}c=a.shift();x(c,"translate(")&&(c=A(c.substring(10)),
b[1]=c[0],b[2]=t(c[1])?c[1]:0,c=a.shift());x(c,"rotate(")&&(c=A(c.substring(7)),b[6]=c[0],c=a.shift());x(c,"skewX(")&&(c=A(c.substring(6)),b[7]=c[0],c=a.shift());x(c,"skewY(")&&(c=A(c.substring(6)),b[8]=c[0],c=a.shift());x(c,"scale(")&&(c=A(c.substring(6)),b[10]=c[0],b[11]=t(c[1])?c[1]:c[0],c=a.shift());x(c,"translate(")&&(c=A(c.substring(10)),b[13]=c[0],b[14]=t(c[1])?c[1]:0)}}}function Z(a){this.l=a;this.A=[];this.C=[];this.v=0;this.s=this.a=this.c=null;this.h=this.f=this.g=0;this.b=1;this.i=this.F=
this.o=!1}function J(a,b,c){b=a[b];void 0===b&&(b=a[c]);return b}function ha(a){return Array.isArray(a)?a:x(a,"cubic-bezier(")?(a=a.substring(13,a.length-1).split(","),[1,parseFloat(a[0]),parseFloat(a[1]),parseFloat(a[2]),parseFloat(a[3])]):x(a,"steps(")?(a=a.substring(6,a.length-1).split(","),[a[1]&&"start"==a[1].trim()?2:3,parseFloat(a[0])]):[0]}function ia(a){a=a.trim();return x(a,"#")?(parseInt(a.substring(1),16)<<8)+255:x(a,"rgba(")?(a=a.substring(5,a.length-1),a=a.split(","),(parseInt(a[0],
10)<<24)+(parseInt(a[1],10)<<16)+(parseInt(a[2],10)<<8)+255*parseFloat(a[3])<<0):a}function aa(a){!1===a.i&&(w.push(a),a.i=!0,!1!==a.l.autoplay&&a.play());return this}function P(a){if(!0===a.i){a._cancel();var b=w.indexOf(a);-1<b&&w.splice(b,1);b=I.indexOf(a);-1<b&&I.splice(b,1);a.i=!1}return this}var Q=Error("Not in timeline list"),ba="mpath posX posY    rotate skewX skewY  scaleX scaleY  anchorX anchorY".split(" "),ja=" translate translate    rotate skewX skewY  scale scale  translate translate".split(" "),
T="none url blur brightness contrast drop-shadow grayscale hue-rotate invert opacity saturate sepia".split(" "),M=window.requestAnimationFrame||window.webkitRequestAnimationFrame||window.mozRequestAnimationFrame||window.oRequestAnimationFrame||window.msRequestAnimationFrame||null;M||(M=function(a){window.setTimeout(a,16)});var S={d:97,fill:48,fillOpacity:16,filter:80,height:33,opacity:16,offsetDistance:33,stroke:48,strokeDasharray:64,strokeDashoffset:32,strokeOpacity:16,strokeWidth:32,transform:1,
width:33},ca=window.getComputedStyle(document.documentElement),E=!1,v=(new Date).getTime(),u,V=0,w=[],I=[];Z.prototype={B:function(a){var b=0;if(null!==this.c){var c=this.j();0<this.b&&null!==c&&c>=this.f?this.h?(this.c=v-this.g/this.b,this.h--,b=2):(b=1,a?this.a=c:this.a=this.s?Math.max(this.s,this.f):this.f):0>this.b&&null!==c&&c<=this.g?this.h&&Infinity!=this.f?(this.c=v-this.f/this.b,this.h--,b=2):(this.h=0,b=1,a?this.a=c:this.a=this.s?Math.min(this.s,this.g):this.g):null!==c&&0!=this.b&&(a&&
null!==this.a&&(this.c=v-this.a/this.b),this.a=null)}this.s=this.j();return b},J:function(a){a&&(this.o&&(this.o=!1,null===this.c&&(0!=this.b&&null!==this.a?(this.c=v-this.a/this.b,this.a=null):this.c=v)),null===this.a&&null!==this.c&&(a=this.B(!1),0!=a&&I.push([this,a])));a=this.j();if(null===a)return!1;for(var b=this.A,c=this.C,d=0;d<b.length;++d){for(var e=b[d],n=!1,l=0;l<c[d].length;++l){var f=c[d][l],h=f[0];if(null!==h){var g=f[2];var q=f[4].length,m=f[4][q-1]-g;g=0==m?f[5][q-1]:a<=g?f[5][0]:
a>=g+f[3]?0==f[3]%m?f[5][q-1]:U(f[3]%m,f):U((a-g)%m,f);0==h?(e._ks.mpath=f[8],e._ks.transform[h]=g,n=!0):14>=h?(e._ks.transform[h]=g,n=!0):(g=ea(f[1]&240,g),f[1]&1?e.setAttribute(h,g):e.style[h]=g)}}if(n){Y(e);n=e._ks.transform;l="";if(f=e._ks.mpath)g=n[0],0>g&&(g=0),100<g&&(g=100),g=g*f[2]/100,h=f[1].getPointAtLength(g),l="translate("+h.x+","+h.y+") ",f[0]&&(.5>g?(g=h,h=f[1].getPointAtLength(.5)):g=f[1].getPointAtLength(g-.5),l+="rotate("+180*Math.atan2(h.y-g.y,h.x-g.x)/Math.PI+") ");for(f=1;f<n.length;++f)h=
n[f],h!=(10==f||11==f?1:0)&&(l+=" "+ja[f]+"(",l=2>=f?l+(1==f?h+",0":"0,"+h):13<=f?l+(13==f?h+",0":"0,"+h):10<=f?l+(10==f?h+",1":"1,"+h):l+h,l+=")");e.setAttribute("transform",l)}}return"running"==this.m()},I:function(){!1!==this.l.autoremove&&"finished"==this.m()&&P(this)},D:function(){if(!this.F){this.F=!0;for(var a=this.A,b=this.C,c=0;c<a.length;++c)for(var d=a[c],e=0;e<b[c].length;++e)14>=b[c][e][0]&&Y(d)}},u:function(a){if("number"==typeof a)return a;if(!t(this.l.markers)||!t(this.l.markers[a]))throw Error("Invalid marker: "+
a);return+this.l.markers[a]},play:function(a){t(a)&&null!==a&&(a=this.u(a),H(a),0>this.b&&a<this.g&&(a=this.g),0<this.b&&a>this.f&&(a=this.f),this.w(a,!0));if(!this.i)throw Q;a=this.j();if(0<this.b&&(null===a||a>=this.f))this.a=this.g;else if(0>this.b&&(null===a||a<=this.g)){if(Infinity==this.f)throw Error("Cannot seek to Infinity");this.a=this.f}else 0==this.b&&null===a&&(this.a=this.g);if(null===this.a)return this;this.c=null;this.o=!0;this.D();N();return this},pause:function(a){if(!this.i)throw Q;
t(a)&&(a=this.u(a),H(a));if("paused"!=this.m()){L();var b=this.j();if(null===b)if(0<=this.b)this.a=this.g;else{if(Infinity==this.f)throw Error("Cannot seek to Infinity");this.a=this.f}null!==this.c&&null===this.a&&(this.a=b);this.c=null;this.o=!1;this.B(!1);this.D();N()}t(a)&&this.w(a,!0);return this},range:function(a,b){if(0==arguments.length)return{"in":this.g,out:this.f};var c=this.u(a),d=this.v;t(b)&&(d=this.u(b));H(c);if(0>c||0>d||c>=d||isNaN(d))throw Error("Invalid range");var e=this.m();this.g=
c;this.f=d;"finished"==e&&"running"==this.m()&&this.play();return this},loop:function(a){if(!t(a))return{count:this.h};this.h=!0===a?Infinity:Math.floor(a);if(0>this.h||isNaN(this.h))this.h=0;return this},j:function(){return null!==this.a?this.a:null===this.c?null:(v-this.c)*this.b},w:function(a,b){b&&L();null!==a&&(this.D(),null!==this.a||null===this.c||0==this.b?(this.a=a,O(!1)):this.c=v-a/this.b,this.i||(this.c=null),this.s=null,this.B(!0),N())},G:function(){return this.j()},time:function(a){if(t(a)){if(!this.i)throw Q;
a=this.u(a);H(a);this.w(a,!0);return this}return this.G()},m:function(){var a=this.j();return this.o?"running":null===a?"idle":null===this.c?"paused":0<this.b&&a>=this.f||0>this.b&&a<=this.g?"finished":"running"},state:function(){return this.m()},duration:function(){return this.v},H:function(a){H(a);L();var b=this.j();this.b=a;null!==b&&this.w(b,!1)},rate:function(a){return t(a)?(this.H(a),this):this.b},marker:function(a){return t(this.l.markers)?this.l.markers[a]:void 0},_cancel:function(){if(!this.i||
"idle"==this.m())return this;this.c=this.a=null;this.o=!1;return this}};return{version:"1.1.0",animate:function(){var a={};if(1==arguments.length%2){a=arguments[arguments.length-1];var b={};for(c in a)b[c]=a[c];a=b}var c=new Z(a);a=arguments;for(var d=b=0;d<a.length-1;d+=2){var e=a[d];var n=e instanceof Element?e:document.getElementById(e.substring(1));if(!n)throw Error("Invalid target: "+e);e=n;n=a[d+1];e._ks||(e._ks={});for(var l=[],f=0;f<n.length;++f){var h=n[f],g=J(h,"p","property");if("string"!=
typeof g||-1!=g.indexOf("-")||""===g||!(0<S[g]||0<=ba.indexOf(g)))throw Error("Invalid property: "+g);var q=ba.indexOf(g);""!==g&&0<=q&&(g=q);q=R(g);var m=J(h,"t","times");if(!m||2>m.length)throw Error("Not enough times");m=m.slice();if(!isFinite(m[0])||0>m[0])throw Error("Invalid time: "+m[0]);for(var B=1;B<m.length;++B)if(!isFinite(m[B])||0>m[B]||m[B]<m[B-1])throw Error("Invalid time: "+m[B]);B=m[0];var v=m[m.length-1]-B,y=h.iterations||0;1>y&&(y=1);v*=y;b<v+B&&(b=v+B);var u=J(h,"v","values");if(!u||
u.length!=m.length)throw Error("Values do not match times");u=u.slice();for(var C=g,k=u,w=R(C)&240,p=0;p<k.length;++p)if(96==w){for(var G=k[p].substring(6,k[p].length-2).match(/[A-DF-Za-df-z][-+0-9eE., ]*/ig),A=[],r=0;r<G.length;++r){A.push(G[r][0]);for(var z=1<G[r].trim().length?G[r].substring(1).split(","):[],F=0;F<z.length;++F)z[F]=parseFloat(z[F]);A.push(z)}k[p]=A}else if(48==w)x(k[p],"#")?(G=9==k[p].length,k[p]=parseInt(k[p].substring(1),16),G||(k[p]=256*k[p]|255)):x(k[p],"url(")||"none"==k[p]||
(console.warn("unsupported color: "+k[p]),k[p]=0);else if(80==w){G=k;A=p;r=k[p];if("none"==r)r=[0];else{z=[];for(var D=r.indexOf("(");0<D;)if(F=T.indexOf(r.substring(0,D)),0<=F){z.push(F);var E=r.indexOf(") ");0>E&&(E=r.length-1);D=r.substring(D+1,E).split(" ");5==F?(z.push(parseFloat(D[0])),z.push(parseFloat(D[1])),z.push(parseFloat(D[2])),z.push(ia(D[3]))):1==F?z.push(D[0]):z.push(parseFloat(D[0]));r=r.substring(E+1).trim();D=r.indexOf("(")}else break;r=z}G[A]=r}else 64==w?"none"!=k[p]?/^[0-9 .]*$/.test(k[p])?
k[p]=X(k[p]," "):(console.warn("unsupported value: "+k[p]),k[p]=[0]):k[p]=[0]:32==w?(H(k[p]),k[p]=parseFloat(k[p])):0===C&&(k[p]=parseFloat(k[p]));C=J(h,"e","easing");k=m.length;for(C||(C=[]);C.length<k;)C.push([1,0,0,.58,1]);for(k=0;k<C.length;++k)C[k]=ha(C[k]);q=[g,q,B,v,m,u,C,y];m=J(h,"mp","motionPath");t(m)&&0===g&&(q[8]=[],q[8][0]=h.motionRotate,h=document.createElementNS("http://www.w3.org/2000/svg","path"),m||(m="M0,0"),h.setAttribute("d",m),q[8][1]=h,q[8][2]=h.getTotalLength());l.push(q)}0<
l.length&&(c.A.push(e),c.C.push(l))}c.v=b;c.g=0;c.f=c.v;aa(c);return c},add:aa,remove:P,removeAll:function(){for(var a=w.length-1;0<=a;--a)P(w[a]);return this},timelines:function(){return w.slice()},globalPlay:function(){u&&(V=u-(new Date).getTime(),u=void 0,N());return this},globalPause:function(){u||(u=v,O(!1));return this},globalState:function(){return u?"paused":"running"}}}();
]]></script><script><![CDATA[if(KeyshapeJS.version.indexOf('1.')!=0)throw Error('Expected KeyshapeJS v1.*.*');window.ks=document.ks=KeyshapeJS;(function(ks){
ks.animate("#anime-unhappy-pod",[{p:'opacity',t:[4900,5200,6200,6400],v:[1,0,0,1],e:[[1,.4,0,.6,1],[1,.4,0,.6,1],[1,.4,0,.6,1],[0]]}],
"#anime-ip-before",[{p:'opacity',t:[0,5200,6200],v:[1,1,0],e:[[1,.4,0,.6,1],[1,.4,0,.6,1],[0]]}],
"#anime-ip-after",[{p:'opacity',t:[0,5200,6200],v:[0,0,1],e:[[1,.4,0,.6,1],[1,.4,0,.6,1],[0]]}],
"#anime-unhappy",[{p:'opacity',t:[3500,3700,4900,5200],v:[0,1,.5,0],e:[[1,.4,0,.6,1],[1,.4,0,.6,1],[1,.4,0,.6,1],[0]]}],
"#anime-path1",[{p:'opacity',t:[0,7600,7900],v:[0,0,1],e:[[1,.4,0,.6,1],[1,.4,0,.6,1],[0]]},{p:'strokeDashoffset',t:[6000,10000],v:[0,404],e:[[1,.4,0,.6,1],[0]]}],
"#anime-path1-2",[{p:'opacity',t:[900,1500,2300,2600],v:[0,1,1,0],e:[[1,.4,0,.6,1],[1,.4,0,.6,1],[1,.4,0,.6,1],[0]]},{p:'strokeDashoffset',t:[0,4000],v:[0,404],e:[[1,.4,0,.6,1],[0]]}],
{autoremove:false}).range(0,10000);
if(document.location.search.substr(1).split('&').indexOf('global=paused')>=0)ks.globalPause()})(KeyshapeJS);
]]></script></svg>