<svg xmlns="http://www.w3.org/2000/svg" viewBox="0 0 1200 900"><style>@keyframes a0_o{0%{opacity:1}7.5%{opacity:0}75%{opacity:0}82.5%{opacity:1}100%{opacity:1}}@keyframes a0_do{0%{stroke-dashoffset:0px}100%{stroke-dashoffset:404px}}@keyframes a1_o{0%{opacity:0}22.5%{opacity:0}37.5%{opacity:1}57.5%{opacity:1}65%{opacity:0}100%{opacity:0}}@keyframes a1_do{0%{stroke-dashoffset:0px}100%{stroke-dashoffset:404px}}</style><path fill="#fafafa" stroke="#fdb26f" stroke-width="3" stroke-dasharray="10" d="M320.6 594.8h548.8v279.4H320.6z"></path><g fill="none" fill-rule="evenodd"><g fill-rule="nonzero"><path d="M836.02 528.74v22.6H356.9v-22.6c0-3.164 2.486-5.65 5.65-5.65h467.82c3.164 0 5.65 2.486 5.65 5.65z" fill="#d2d2d2"></path><path fill="#a3a3a3" d="M364.81 529.87h4.52v4.52h-4.52zm6.78 0h4.52v4.52h-4.52zm6.78 0h4.52v4.52h-4.52z"></path></g><g fill-rule="nonzero"><path fill="#9eebcf" d="M472.16 550.21v97.18h-3.39v-97.18z"></path><path stroke="#9eebcf" stroke-width="3" fill="#fff" d="M477.81 549.645a6.5 6.5 0 11-14.69 0 6.5 6.5 0 1114.69 0z"></path><path fill="#9eebcf" d="M470.465 651.91l-6.215-9.04h12.43z"></path></g><path d="M582.9 838.473c0 1.13-.678 2.147-1.582 2.147H358.482c-.904 0-1.582-1.017-1.582-2.147V653.04c0-3.164 2.486-5.65 5.65-5.65h214.7c3.164 0 5.65 2.486 5.65 5.65v185.433z" fill="#ff003c"></path><path d="M362.55 647.39h214.7c3.164 0 5.65 2.486 5.65 5.65v20.34h-226v-20.34c0-3.164 2.486-5.65 5.65-5.65z" fill="#ccc"></path><path d="M376.11 661.515c0 2.825-2.26 5.085-5.085 5.085s-5.085-2.26-5.085-5.085 2.26-5.085 5.085-5.085 5.085 2.26 5.085 5.085" fill="#e74c3c"></path><path d="M394.19 661.515c0 2.825-2.26 5.085-5.085 5.085s-5.085-2.26-5.085-5.085 2.26-5.085 5.085-5.085 5.085 2.26 5.085 5.085" fill="#f1c40f"></path><path d="M411.14 661.515c0 2.825-2.26 5.085-5.085 5.085s-5.085-2.26-5.085-5.085 2.26-5.085 5.085-5.085 5.085 2.26 5.085 5.085" fill="#2ecc71"></path><path d="M364.548 625.909h-2.903v5.661h-3.31v-16.067h6.268q1.81 0 3.185.662t2.113 1.881q.739 1.22.739 2.775 0 2.362-1.616 3.725-1.617 1.363-4.475 1.363zm-2.903-7.725v5.043h2.957q1.314 0 2.004-.618.689-.618.689-1.765 0-1.18-.695-1.91-.695-.727-1.921-.75h-3.033zm10.417 7.449v-.144q0-1.776.684-3.167.685-1.39 1.97-2.151 1.286-.762 2.985-.762 2.417 0 3.945 1.48 1.529 1.477 1.706 4.016l.022.816q0 2.748-1.535 4.41-1.533 1.66-4.115 1.66t-4.123-1.656q-1.539-1.654-1.539-4.502zm3.19.088q0 1.7.64 2.6.64.899 1.83.899 1.16 0 1.81-.889.652-.888.652-2.842 0-1.665-.651-2.582-.651-.915-1.83-.915-1.172 0-1.811.91-.64.91-.64 2.82zm9.59-.209q0-2.792 1.252-4.448 1.252-1.655 3.426-1.655 1.743 0 2.88 1.303v-6.092h3.2v16.95h-2.88l-.155-1.269q-1.191 1.49-3.067 1.49-2.108 0-3.383-1.662-1.273-1.66-1.273-4.617zm3.188.232q0 1.677.585 2.57.585.894 1.7.894 1.478 0 2.085-1.246v-4.712q-.595-1.248-2.063-1.248-2.307 0-2.307 3.74zm23.284-10.263v16.089h-3.189v-12.293l-3.808 1.18v-2.593l6.656-2.384h.341z" fill="#4a4a4a"></path><g fill-rule="nonzero"><path fill="#9eebcf" d="M725.28 550.21v97.18h-3.39v-97.18z"></path><path stroke="#9eebcf" stroke-width="3" fill="#fff" d="M730.93 549.645a6.5 6.5 0 11-14.69 0 6.5 6.5 0 1114.69 0z"></path><path fill="#9eebcf" d="M723.585 651.91l-6.215-9.04h12.43z"></path></g><path d="M836.02 838.473c0 1.13-.678 2.147-1.582 2.147H611.602c-.904 0-1.582-1.017-1.582-2.147V653.04c0-3.164 2.486-5.65 5.65-5.65h214.7c3.164 0 5.65 2.486 5.65 5.65v185.433z" fill="#ff003c"></path><path d="M615.67 647.39h214.7c3.164 0 5.65 2.486 5.65 5.65v20.34h-226v-20.34c0-3.164 2.486-5.65 5.65-5.65z" fill="#ccc"></path><path d="M629.23 661.515c0 2.825-2.26 5.085-5.085 5.085s-5.085-2.26-5.085-5.085 2.26-5.085 5.085-5.085 5.085 2.26 5.085 5.085" fill="#e74c3c"></path><path d="M647.31 661.515c0 2.825-2.26 5.085-5.085 5.085s-5.085-2.26-5.085-5.085 2.26-5.085 5.085-5.085 5.085 2.26 5.085 5.085" fill="#f1c40f"></path><path d="M664.26 661.515c0 2.825-2.26 5.085-5.085 5.085s-5.085-2.26-5.085-5.085 2.26-5.085 5.085-5.085 5.085 2.26 5.085 5.085" fill="#2ecc71"></path><path d="M617.668 625.909h-2.903v5.661h-3.31v-16.067h6.268q1.81 0 3.185.662t2.113 1.881q.739 1.22.739 2.775 0 2.362-1.616 3.725-1.617 1.363-4.475 1.363zm-2.903-7.725v5.043h2.957q1.314 0 2.004-.618.689-.618.689-1.765 0-1.18-.695-1.91-.695-.727-1.921-.75h-3.033zm10.417 7.449v-.144q0-1.776.684-3.167.685-1.39 1.97-2.151 1.286-.762 2.985-.762 2.417 0 3.945 1.48 1.529 1.477 1.706 4.016l.022.816q0 2.748-1.535 4.41-1.533 1.66-4.115 1.66t-4.123-1.656q-1.539-1.654-1.539-4.502zm3.19.088q0 1.7.64 2.6.64.899 1.83.899 1.16 0 1.81-.889.652-.888.652-2.842 0-1.665-.651-2.582-.651-.915-1.83-.915-1.172 0-1.811.91-.64.91-.64 2.82zm9.59-.209q0-2.792 1.252-4.448 1.252-1.655 3.426-1.655 1.743 0 2.88 1.303v-6.092h3.2v16.95h-2.88l-.155-1.269q-1.191 1.49-3.067 1.49-2.108 0-3.383-1.662-1.273-1.66-1.273-4.617zm3.188.232q0 1.677.585 2.57.585.894 1.7.894 1.478 0 2.085-1.246v-4.712q-.595-1.248-2.063-1.248-2.307 0-2.307 3.74zm26.55 3.254v2.572h-11.012v-2.185l5.198-5.54q1.07-1.17 1.582-2.042.514-.87.514-1.654 0-1.071-.541-1.684-.54-.612-1.545-.612-1.081 0-1.705.746-.623.744-.623 1.958h-3.2q0-1.468.7-2.681.701-1.214 1.982-1.905 1.279-.689 2.901-.689 2.483 0 3.857 1.192 1.374 1.191 1.374 3.365 0 1.193-.618 2.429-.618 1.235-2.119 2.88l-3.652 3.851h6.908z" fill="#4a4a4a"></path></g><g fill="#4a4a4a" style="white-space:pre">Service</g><g fill="#4a4a4a" style="white-space:pre">Deployment</g><g fill="none" fill-rule="evenodd"><path d="M595.47 537.185l-40.68-73.45h81.36zm-11.3-297.755h22.6v224.305h-22.6z" fill="#b8e986"></path><g fill-rule="nonzero"><path d="M449.7 239.43v-79.552c0-1.695 1.469-3.164 3.164-3.164h61.359c1.243-.452.791-.791.565-1.13-3.955-6.441-6.441-13.447-7.458-21.131-2.26-17.402 2.712-32.431 14.577-45.426.678-.791 1.243-1.469 2.034-2.147.565-.565.565-.565 0-1.13-1.808-1.695-3.503-3.616-4.859-5.876-3.164-4.972-4.972-10.396-5.085-16.385 0-1.469.226-1.695 1.582-1.017 1.469.678 2.938 1.356 4.52 1.808.226-2.599-.113-4.746-.113-7.006 0-.791-.113-1.582 0-2.373 0-1.13.339-1.356 1.356-.791a38.624 38.624 0 004.859 2.373c1.017.452 1.017.452.904-.678a35.44 35.44 0 010-8.475c.226-1.13.791-1.356 1.13-1.017.226.226.452.565.678.791 3.503 4.407 7.345 8.249 11.978 11.413 4.068 2.712 8.475 4.181 13.334 4.181 3.729.113 7.232-.678 10.622-2.034 3.164-1.13 6.328-2.486 9.605-3.164 3.277-.678 6.667-1.017 10.057-.226 5.65 1.356 9.492 5.085 11.978 10.283.904 2.034 1.356 4.068 1.695 6.215.113.904.113.904 1.017.791 4.972-.339 9.718.452 14.012 3.051 5.198 3.051 8.136 7.797 9.266 13.56.791 4.294.565 8.588-.113 12.882-.565 3.39-1.469 6.667-2.486 9.831-.339.791-.452.791.565 1.13 4.972 1.695 8.136 5.198 9.04 10.396 1.243 7.232-3.277 13.56-9.944 15.142a10.86 10.86 0 01-3.842.339c-.452-.113-.678.226-.791.678a63.611 63.611 0 01-3.842 10.057c-3.277 6.441-7.571 11.978-12.995 16.724-1.243.904-1.356 1.356-1.13 2.034.678 1.808 1.243 3.616 1.808 5.311 3.616 11.413 7.345 22.713 10.961 34.126.339.791.678 1.13 1.469 1.243 3.616.791 5.876 3.051 6.78 6.554.226.791.339 1.582.452 2.373.904-.565 1.243-1.017 1.808-1.469 1.469-1.243 3.164-1.582 5.085-.904 1.808.678 2.938 2.034 3.277 4.068.113.678.226.791.904.904 3.164.565 5.085 3.616 3.955 6.667-.226.791-.113 1.356.452 2.034 1.356 1.582 2.147 3.616 2.486 5.763.113.904 0 .904 1.017.904h18.645c0-1.921-.565-3.39-.904-4.972-2.147.113-3.616.452-4.972.904-.791.339-1.243.113-1.356-.339-.113-.452.226-.678.904-.904 1.356-.452 2.712-.791 3.955-1.243 1.356-.339 1.13-.113 1.13-1.469 0-.678-.226-.791-.565-.791h-6.554c-1.13-.113-1.356-.339-1.356-.678.904-.678 1.13-.565 1.356-.565h6.441c.565 0 .791-.226.904-.791.226-1.582.226-1.582-1.243-2.034-1.356-.339-2.599-.791-3.842-1.13-1.017-.339-1.13-.678-1.13-1.017 1.017-.452 1.356-.339 1.582-.226 1.582.452 3.051.904 4.633 1.356 2.034-3.164 3.842-5.424 6.215-7.119.452-.339.565-.678.565-1.243v-13.899c.113-.678.565-.904 1.017-.565 4.52 4.181 8.475 7.797 12.317 11.413 1.017 1.017.678 1.017 1.921.113a24.455 24.455 0 0128.25 0c1.017.791.791 1.017 1.921-.113 3.955-3.616 7.91-7.232 11.865-10.961.339-.226.678-.791 1.243-.565.678.226.452.791.452 1.243v20.34c0 1.356 0 1.356 1.243.904 1.017-.226 2.034-.565 3.164-.904 1.582.678 1.469.904 1.017 1.13l-2.599.791-2.26.678c-.678 1.017-.678 1.695-.565 2.373 3.277.226 5.198.226 7.232.226 1.13.113 1.356.339 1.243.678-.791.678-1.13.678-1.356.678h-6.328c-.904 0-.904 0-.904.791 0 1.469-.113 1.13 1.13 1.469 1.13.452 2.486.678 3.729 1.13 1.017.452 1.13.678 1.017 1.13-2.712-.226-3.842-.565-5.198-.904-.678 1.808-.678 3.164-.678 4.52 0 .452.113.678.678.678h19.549c.452 0 1.017 0 1.469.226v.904c-1.13.226-1.469.226-1.808.226H449.7z" fill="#151d38"></path><path d="M502.132 231.52v-.113h50.398c1.13 0 1.13 0 1.13-1.13v-70.173c0-1.13-.678-1.921-1.921-2.034h-98.536c-1.695.113-2.373.791-2.373 2.373v69.947c0 1.13 0 1.13 1.13 1.13h50.172z" fill="#ccd6da"></path><path d="M534.676 156.714h16.498c1.695 0 2.938 1.017 3.277 2.599.113.339.113.678.113 1.13v18.758c0 1.017.113 1.017.904 1.017 6.554.904 13.108.452 19.549-1.243 14.69-3.842 25.764-12.43 33.335-25.538 2.26-3.729 3.842-7.684 4.972-11.865.226-.904.226-.904-.452-1.13-.452-.113-.904-.226-1.243-.339-.791-.339-1.017-.565-.904-1.017.113-.565.565-.565 1.356-.339 2.147.791 4.294 1.017 6.554.565 6.667-1.243 10.961-8.023 9.266-14.69-1.808-6.667-8.814-10.509-15.255-8.249-.339 0-.565.226-.904.226-.339.113-.565-.113-.678-.339-.113-.339 0-.565.226-.791a.863.863 0 01.565-.226c.452-.226.904-.339 1.356-.452.113-.113.226-.113.339-.226.113-.226-.113-.226-.339-.226-.113-.113-.339-.113-.565-.226a41.88 41.88 0 01-9.605-4.633c-5.424-3.616-9.605-8.136-12.317-14.125-1.243-2.825-2.034-5.763-2.599-8.814-.113-.904-.113-.904-.904-.565-.226.226-.452.339-.791.452-3.955 2.373-8.023 4.407-12.43 5.989-9.266 3.503-18.871 4.972-28.702 3.164-6.78-1.243-13.221-3.729-18.758-8.023-.791-.452-.791-.452-1.356.113-4.972 4.859-9.04 10.396-11.865 16.724-4.52 9.944-5.876 20.227-4.181 31.075 1.13 7.232 3.729 14.012 7.571 20.227.452.791 1.017 1.13 1.921 1.13 5.311-.113 10.622-.113 16.046-.113z" fill="#fae0d6"></path><path d="M554.79 206.66v24.521c0 .565.226.791.791.791h17.289c1.017 0 1.13.113 1.13 1.017v4.52c0 .678-.113.791.678.791h17.402c.678 0 .791-.226.791-.678.226-1.695.678-3.277 1.582-4.633.339-.565.339-1.017.113-1.582l-2.712-8.475c-2.26-6.893-4.52-13.899-6.78-20.792 0-.226-.113-.452-.226-.678 0-.452.113-.791.565-.791.339-.113.565 0 .791.339 0 .113 0 .339.113.452 1.582 4.859 3.164 9.831 4.746 14.69 1.469 4.633 2.938 9.266 4.52 13.899.226.791.226.791.791.226 1.695-1.582 3.616-2.599 5.763-3.164.678-.113.791-.113.565-.791-.339-1.469-.791-3.051-1.13-4.52-1.017-4.633 1.808-9.266 6.215-10.396.339-.113.565-.113.904-.226.339 0 .452-.226.339-.565-.113-.226-.113-.339-.226-.452-3.503-11.074-7.119-22.035-10.622-33.109l-2.034-6.102c-.113-.452-.339-.678-.678-.226a1.56 1.56 0 01-.452.339 45.61 45.61 0 01-9.605 5.65c-6.554 3.051-13.56 4.859-20.792 5.085-3.051.113-6.215.113-9.153-.339-.565-.113-.678.113-.678.565v24.634z" fill="#fff3a2"></path><path d="M698.978 238.187h19.775c1.017 0 1.017 0 1.017-.904v-33.448c0-.226.113-.452-.113-.565-.226-.113-.339.226-.565.339-2.373 2.26-4.859 4.52-7.345 6.78-1.469 1.356-2.938 2.825-4.407 4.181-.678.565-.791.565-1.469.113-.226-.226-.339-.339-.565-.452-3.503-2.712-7.458-4.294-11.978-4.633-5.876-.452-11.187 1.13-15.933 4.859-1.017.791-1.017.791-2.034-.113l-.113-.113-10.848-10.17c-.226-.226-.452-.791-.904-.565-.226.113-.113.565-.113.904v11.865c0 .565 0 1.017-.565 1.356-6.554 4.407-8.023 13.108-4.294 19.775.339.678.791.904 1.582.904h14.351c.339 0 .791.113.904-.226.113-.226-.339-.452-.565-.678-2.373-2.599-3.051-5.537-2.034-8.814.904-3.277 3.277-5.311 6.554-5.989.678-.226 1.356-.339 2.034-.226.339 0 .565.226.565.678 0 .339-.226.565-.565.565-.452.113-.791.113-1.13.113-3.164.452-5.876 2.825-6.441 5.876a7.537 7.537 0 003.39 8.023c.678.452 1.356.678 2.26.678 6.667-.113 13.108-.113 19.549-.113z" fill="#c27659"></path><path d="M502.245 232.65c-9.266.113-18.532.113-27.685.113h-23.052c-.452 0-.678.113-.678.565v2.373c0 1.469 0 1.469 1.695 1.469h38.759c20.227 0 40.454-.113 60.681-.113h.791c.678 0 .904-.226.904-.791v-3.051c0-.452-.226-.565-.678-.565h-50.737zm112.435 5.65h19.775c.452 0 .565-.113.565-.565a11.348 11.348 0 00-2.034-5.311c-.226-.226-.339-.226-.452.113-.113.113-.113.339-.226.452-1.469 3.164-5.085 4.068-7.797 1.808-.452-.452-.791-.452-1.356-.226-1.695.678-3.277.452-4.746-.565-1.582-1.13-2.26-2.599-2.147-4.633.113-.678 0-.678-.565-.565-1.356.452-2.712.226-3.955-.452-.226-.226-.565-.226-.904-.226h-6.215c-4.746.113-8.814 3.503-10.057 8.249-.113.452-.226.904-.226 1.469 0 .339.113.452.452.452h19.888z" fill="#ccd6da"></path><path d="M606.77 226.209h2.486c.339 0 .452-.113.339-.452-.904-2.373-1.017-4.972-1.582-7.458-.113-.565.113-.904.452-1.017.452-.113.791.226.904.791l.339 1.695c.226 1.469.452 2.938.791 4.407.452 1.921 2.373 3.164 4.52 2.712 2.034-.339 3.277-2.034 3.051-4.068-.339-1.695-.565-3.39-1.017-4.972-.904-3.729-4.859-6.102-8.814-5.424-3.842.678-6.554 4.407-5.876 8.023.339 1.695.904 3.39 1.243 5.198.113.339.339.565.791.565h2.373zm11.3 3.729c.113 1.356.452 2.373 1.469 3.051 2.147 1.582 5.085.791 5.989-1.695.904-2.373 1.695-4.859 2.486-7.232.113-.339.113-.565.226-.904.113-1.808-.904-3.39-2.712-3.955-1.695-.452-3.616.226-4.407 1.808-.565 1.13-1.017 2.26-1.243 3.503-.113.904-.339 1.808-.791 2.599a7.135 7.135 0 00-1.017 2.825z" fill="#fae0d6"></path><path d="M563.604 237.17h8.475c.452-.113.791-.226.791-.678v-3.39c0-.339-.226-.452-.452-.452h-16.837c-.565 0-.791.226-.791.678v3.051c0 .791 0 .791.904.791h7.91z" fill="#ccd6da"></path><path d="M632.76 228.582c0-2.034-1.356-3.503-3.277-3.729-.904-.226-1.017-.113-1.243.565-.565 1.469-1.017 2.825-1.582 4.181-.452 1.243-.678 2.599-1.695 3.729-.339.339 0 .565.226.791 2.034 1.469 5.085.791 6.215-1.469.452-1.017.791-2.147 1.243-3.277.113-.339.113-.678.113-.791z" fill="#fae0d6"></path><path d="M515.24 195.586c-.339 5.537-3.729 9.605-8.814 10.735-6.441 1.582-12.769-2.938-13.673-9.492-.791-5.65 2.825-11.3 8.588-12.656 1.243-.226 1.356-.226 1.582 1.017.791 4.294 3.616 7.458 7.797 8.475 1.017.226 1.921.226 2.938.113 1.356-.113 1.469 0 1.582 1.356v.452z" fill="#151d38"></path><path d="M504.166 205.53c.678 0 1.582-.113 2.486-.339 4.068-1.13 7.232-5.085 7.458-9.153 0-1.017 0-1.017-.791-1.017-5.537.113-10.283-3.616-11.413-8.927-.339-1.243-.452-.904-1.243-.678-4.633 1.582-7.571 6.441-6.78 11.526.791 4.859 5.085 8.588 10.283 8.588z" fill="#fff"></path><path d="M553.434 115.582h14.916c2.26 0 4.52 0 6.78.113 1.13 0 1.356.452.904 1.356-3.39 6.328-8.249 10.735-15.255 12.317-7.119 1.469-13.334-.452-18.645-5.537-2.147-1.921-3.729-4.294-4.972-6.893-.113-.339-.339-.565-.339-.791-.226-.565 0-.791.565-1.017h.565c4.407 0 8.814.113 13.221.113.791 0 1.469.113 2.26.113v.226z" fill="#151d38"></path><path d="M557.163 116.486h-4.068c-1.695 0-3.277 0-4.972-.113-2.825-.113-5.763-.113-8.588-.113-.678 0-.678 0-.339.565 1.13 2.034 2.599 3.842 4.294 5.424 4.972 4.407 10.848 6.215 17.402 4.859 6.102-1.13 10.622-4.52 13.899-9.492.565-.904.565-1.017-.565-1.017-5.65 0-11.413-.113-17.063-.113z" fill="#fff"></path><path d="M514.11 122.475c0-3.729 2.825-7.345 7.345-7.345 4.068 0 7.345 3.277 7.345 7.345s-3.277 7.345-7.345 7.345-7.345-3.277-7.345-7.345zm87.01 1.13c.113 3.503-2.825 7.345-7.345 7.345-4.068 0-7.345-3.277-7.345-7.345s3.164-7.345 7.345-7.345c4.407-.113 7.571 3.616 7.345 7.345z" fill="#e5384a"></path><path d="M531.625 106.09c2.26 0 3.955 1.695 3.955 3.955S533.885 114 531.738 114c-2.26 0-4.068-1.695-4.068-3.955 0-2.147 1.695-3.955 3.955-3.955zm50.85 1.13c2.26 0 3.955 1.695 3.955 4.068 0 2.147-1.808 3.842-3.955 3.842s-3.955-1.808-3.955-3.955c0-2.26 1.695-3.955 3.955-3.955zm41.245 20.453c0 4.52-4.746 7.797-9.266 6.328-.113-.113-.226-.113-.339-.226-.452-.113-.678-.452-.452-.904.113-.339.452-.452.904-.339.226 0 .452.226.678.226 3.164.791 6.441-1.13 7.006-4.068.678-3.164-1.469-6.102-4.746-6.554-.226 0-.565-.113-.904-.113-.226 0-.452-.339-.452-.565 0-.452.226-.565.565-.678h.791c3.616.452 6.215 3.39 6.215 6.893zm-66.67-21.922c0 .339-.226.452-.565.678-.904.452-1.808.904-2.712 1.469-.339.113-.452.339 0 .565.678.565 1.469 1.13 2.147 1.695.226.113.452.339.565.452.226.226.226.565.113.904-.226.226-.452.226-.791.226a1.56 1.56 0 00-.452-.339c-1.13-.904-2.26-1.695-3.39-2.599-.791-.678-.791-1.13.113-1.695 1.243-.678 2.599-1.356 3.842-2.034.678-.226 1.13 0 1.13.678zm-35.03 2.486c.113-3.277 2.26-5.989 5.311-6.554.339-.113.678-.113 1.017-.113.226.113.452.339.452.565 0 .339-.113.678-.339.791-.339 0-.678.113-.904.113-2.373.565-3.955 2.373-4.181 4.972v.791c-.113.452-.226.678-.678.678-.452 0-.565-.339-.678-.791v-.452zm68.93 0v.791c-.113.339-.339.452-.678.452s-.565-.226-.565-.452v-.678c-.226-2.712-1.921-4.746-4.407-5.311-.226 0-.339 0-.452-.113-.452-.113-.791-.339-.678-.791.113-.565.452-.565.904-.565 1.469.226 2.825.791 3.842 1.808 1.243 1.356 1.921 2.938 2.034 4.859zM691.181 234.91c-1.695-.113-2.938-.565-3.729-1.695-.339-.452-.565-.452-.904 0-1.582 1.921-3.955 2.26-5.763.904-.678-.452-1.243-1.017-1.582-1.808-.113-.339-.226-.904.226-1.13.452-.226.791 0 1.017.452.113.339.339.565.565.904 1.469 1.695 4.068 1.13 4.972-1.017.113-.452.226-.791-.339-.904-.904-.226-1.356-.904-1.921-1.582-.226-.226-.339-.565-.452-.904-.113-.678.113-1.13.791-1.13h5.876c.565 0 .791.452.678 1.13-.339 1.13-1.13 1.695-1.921 2.26-.339.226-.791.226-.904.565 0 .452.226.791.452 1.243 1.243 1.808 3.729 1.808 5.085 0l.339-.678c.226-.339.565-.452.904-.226.339.113.452.452.226.791a4.92 4.92 0 01-1.13 1.808c-.904.678-1.808 1.017-2.486 1.017zm15.029-12.43c1.921 0 3.39 1.469 3.39 3.39s-1.582 3.39-3.503 3.39-3.277-1.582-3.277-3.503 1.469-3.277 3.39-3.277zm-39.55 6.78c-1.921 0-3.39-1.469-3.39-3.39s1.356-3.39 3.277-3.39c2.034 0 3.503 1.469 3.503 3.39s-1.469 3.39-3.39 3.39z" fill="#151d38"></path></g><path d="M627.545 255.003v16.067h-3.31v-16.067h3.31zm2.791 4.127h3.003l.099 1.379q1.28-1.6 3.432-1.6 1.898 0 2.825 1.115.926 1.114.949 3.333v7.713h-3.19v-7.637q0-1.014-.44-1.473-.443-.458-1.47-.458-1.344 0-2.018 1.148v8.42h-3.19v-11.94zm17.69 9.59q.883 0 1.435-.486t.573-1.29h2.991q-.01 1.213-.662 2.222-.652 1.01-1.782 1.567-1.13.557-2.5.557-2.56 0-4.04-1.627-1.477-1.627-1.477-4.497v-.21q0-2.759 1.468-4.403 1.466-1.644 4.027-1.644 2.24 0 3.592 1.275 1.352 1.274 1.374 3.393h-2.99q-.023-.927-.575-1.506t-1.456-.58q-1.114 0-1.683.811-.568.812-.568 2.633v.33q0 1.843.562 2.649.563.806 1.711.806zm6.323-3.587v-.144q0-1.776.684-3.167.684-1.39 1.97-2.151 1.286-.762 2.985-.762 2.416 0 3.944 1.48 1.53 1.477 1.706 4.016l.023.816q0 2.748-1.534 4.41-1.535 1.66-4.117 1.66t-4.121-1.656q-1.54-1.654-1.54-4.502zm3.19.088q0 1.7.64 2.6.64.899 1.831.899 1.16 0 1.81-.889.651-.888.651-2.842 0-1.665-.65-2.582-.652-.915-1.833-.915-1.17 0-1.81.91-.64.91-.64 2.82zm10.086-6.09h2.99l.1 1.334q1.268-1.556 3.431-1.556 2.307 0 3.168 1.821 1.257-1.821 3.586-1.821 1.942 0 2.89 1.131.95 1.131.95 3.405v7.625h-3.2v-7.614q0-1.016-.398-1.485-.397-.469-1.401-.469-1.435 0-1.987 1.369l.012 8.199h-3.19v-7.604q0-1.036-.407-1.5-.41-.464-1.39-.464-1.358 0-1.966 1.126v8.442h-3.188v-11.94zm22.93 0v11.939h-3.2v-11.94h3.2zm-3.388-3.091q0-.718.48-1.181.48-.463 1.308-.463.817 0 1.303.463t.486 1.18q0 .73-.492 1.193-.491.463-1.297.463-.805 0-1.296-.463-.492-.463-.492-1.192zm5.949 3.09h3l.1 1.379q1.28-1.6 3.432-1.6 1.898 0 2.825 1.115.927 1.114.95 3.333v7.713h-3.19v-7.637q0-1.014-.44-1.473-.442-.458-1.47-.458-1.344 0-2.019 1.148v8.42h-3.188v-11.94zm12.26 6.014v-.132q0-2.748 1.307-4.425 1.308-1.678 3.526-1.678 1.964 0 3.057 1.347l.132-1.126h2.892v11.542q0 1.568-.712 2.727-.712 1.158-2.003 1.765-1.291.607-3.024.607-1.313 0-2.56-.525-1.247-.524-1.887-1.351l1.412-1.942q1.192 1.335 2.892 1.335 1.269 0 1.975-.678.706-.679.706-1.926v-.64q-1.104 1.246-2.901 1.246-2.153 0-3.483-1.682-1.329-1.684-1.329-4.464zm3.189.1q0 1.621.65 2.542.652.922 1.788.922 1.458 0 2.086-1.092v-5.021q-.64-1.093-2.063-1.093-1.148 0-1.805.938t-.656 2.803zm-84.122 15.81h3.19v2.936h2.042v2.34h-2.042v5.958q0 .662.254.95.254.286.971.286.53 0 .938-.077v2.416q-.938.287-1.931.287-3.355 0-3.42-3.387v-6.433H622.7v-2.34h1.743v-2.935zm13.761 2.86l-.044 3.066q-.65-.088-1.147-.088-1.81 0-2.373 1.225v7.813h-3.189v-11.94h3.013l.088 1.424q.96-1.645 2.66-1.645.53 0 .993.143zm11.3 12.016h-3.221q-.222-.43-.32-1.07-1.16 1.29-3.013 1.29-1.755 0-2.908-1.014-1.153-1.016-1.153-2.561 0-1.898 1.407-2.913t4.067-1.026h1.467v-.685q0-.827-.425-1.323-.425-.497-1.34-.497-.806 0-1.264.386-.459.387-.459 1.059h-3.188q0-1.037.64-1.92.64-.882 1.81-1.384 1.169-.503 2.625-.503 2.209 0 3.505 1.11 1.296 1.108 1.296 3.117v5.176q.011 1.7.474 2.57v.188zm-5.859-2.218q.707 0 1.302-.314.597-.316.883-.844V290.5h-1.191q-2.396 0-2.55 1.656l-.011.187q0 .597.42.983.418.386 1.147.386zm11.907 2.218h-3.2v-9.6h-1.776v-2.34h1.776v-1.015q0-2.008 1.153-3.118 1.152-1.109 3.228-1.109.662 0 1.622.22l-.033 2.473q-.397-.1-.972-.1-1.798 0-1.798 1.689v.96h2.373v2.34h-2.373v9.6zm8.1 0h-3.2v-9.6h-1.777v-2.34h1.777v-1.015q0-2.008 1.152-3.118 1.153-1.109 3.229-1.109.662 0 1.621.22l-.032 2.473q-.397-.1-.972-.1-1.798 0-1.798 1.689v.96h2.373v2.34h-2.373v9.6zm7.394-11.94v11.94h-3.2v-11.94h3.2zm-3.388-3.09q0-.718.48-1.181.48-.463 1.307-.463.816 0 1.302.463.486.463.486 1.18 0 .73-.491 1.193-.49.463-1.297.463-.805 0-1.297-.463-.49-.463-.49-1.192zm10.98 12.678q.881 0 1.435-.484.55-.486.573-1.29h2.99q-.011 1.213-.661 2.222-.652 1.01-1.783 1.567-1.13.557-2.5.557-2.56 0-4.038-1.627-1.478-1.627-1.478-4.497v-.21q0-2.759 1.466-4.403 1.47-1.644 4.029-1.644 2.24 0 3.592 1.275 1.352 1.274 1.373 3.393h-2.99q-.023-.927-.574-1.506t-1.457-.58q-1.114 0-1.683.811-.568.812-.568 2.633v.33q0 1.843.563 2.649t1.711.806z" fill="#7da159"></path></g><g stroke="#f5a623" stroke-dasharray="6" stroke-width="13" fill="none" fill-rule="evenodd"><path d="M724.84 667.996V537.255H595.455V239.5" stroke-dasharray="12" style="animation:4s linear infinite both a0_o, 4s linear infinite both a0_do"></path><path d="M468.556 667.996V537.255h129.385V239.5" stroke-dasharray="12" opacity="0" style="animation:4s linear infinite both a1_o, 4s linear infinite both a1_do"></path></g></svg>