<svg xmlns="http://www.w3.org/2000/svg" viewBox="0 0 1200 900"><style>@keyframes a0_o{0%{opacity:1}7.5%{opacity:0}75%{opacity:0}82.5%{opacity:1}100%{opacity:1}}@keyframes a0_do{0%{stroke-dashoffset:0px}100%{stroke-dashoffset:404px}}@keyframes a1_o{0%{opacity:0}22.5%{opacity:0}37.5%{opacity:1}57.5%{opacity:1}65%{opacity:0}100%{opacity:0}}@keyframes a1_do{0%{stroke-dashoffset:0px}100%{stroke-dashoffset:404px}}</style><path fill="#fafafa" stroke="#fdb26f" stroke-width="3" stroke-dasharray="10" d="M320.6 594.8h548.8v279.4H320.6z"></path><g fill="none" fill-rule="evenodd" transform="translate(356.9,395.4) scale(1.13,1.13)"><g fill-rule="nonzero" transform="translate(0,113)"><path d="M424 5v20H0V5c0-2.8 2.2-5 5-5h414c2.8 0 5 2.2 5 5z" fill="#d2d2d2"></path><path fill="#a3a3a3" d="M7 6h4v4H7zm6 0h4v4h-4zm6 0h4v4h-4z"></path></g><g transform="translate(0,138)"><g fill-rule="nonzero" transform="translate(95,0)"><path fill="#9eebcf" d="M7-1v86H4V-1z"></path><circle cx="5.5" cy="-1.5" stroke="#9eebcf" stroke-width="3" fill="#fff" r="6.5"></circle><path fill="#9eebcf" d="M5.5 89L0 81h11z"></path></g><g transform="translate(0,85)"><path d="M200 169.1c0 1-.6 1.9-1.4 1.9H1.4c-.8 0-1.4-.9-1.4-1.9V5c0-2.8 2.2-5 5-5h190c2.8 0 5 2.2 5 5v164.1z" fill="#ff003c"></path><path d="M5 0h190c2.8 0 5 2.2 5 5v18H0V5c0-2.8 2.2-5 5-5z" fill="#ccc"></path><path d="M17 12.5c0 2.5-2 4.5-4.5 4.5S8 15 8 12.5 10 8 12.5 8s4.5 2 4.5 4.5" fill="#e74c3c"></path><path d="M33 12.5c0 2.5-2 4.5-4.5 4.5S24 15 24 12.5 26 8 28.5 8s4.5 2 4.5 4.5" fill="#f1c40f"></path><path d="M48 12.5c0 2.5-2 4.5-4.5 4.5S39 15 39 12.5 41 8 43.5 8s4.5 2 4.5 4.5" fill="#2ecc71"></path></g><path d="M6.768 65.99H4.199V71H1.27V56.781h5.547q1.602 0 2.818.586t1.87 1.665q.654 1.08.654 2.456 0 2.09-1.43 3.296-1.431 1.206-3.96 1.206zm-2.569-6.836v4.463h2.617q1.163 0 1.773-.547.61-.547.61-1.562 0-1.045-.615-1.69-.615-.644-1.7-.664H4.2zm9.219 6.592v-.127q0-1.572.605-2.803.606-1.23 1.744-1.904 1.137-.674 2.641-.674 2.139 0 3.491 1.309 1.353 1.308 1.51 3.555l.019.722q0 2.432-1.358 3.902-1.357 1.47-3.642 1.47T14.78 69.73q-1.362-1.464-1.362-3.984zm2.822.078q0 1.504.567 2.3.566.796 1.62.796 1.026 0 1.602-.786.576-.786.576-2.515 0-1.474-.576-2.285-.576-.81-1.62-.81-1.036 0-1.602.805-.567.806-.567 2.495zm8.487-.185q0-2.471 1.108-3.936 1.108-1.465 3.032-1.465 1.543 0 2.549 1.153V56h2.832v15h-2.549l-.137-1.123q-1.054 1.318-2.714 1.318-1.866 0-2.994-1.47-1.127-1.47-1.127-4.086zm2.822.205q0 1.484.517 2.275.518.791 1.504.791 1.309 0 1.846-1.103v-4.17q-.527-1.104-1.826-1.104-2.041 0-2.041 3.31zm20.605-9.082V71h-2.822V60.121l-3.37 1.045v-2.295l5.89-2.11h.302z" fill="#4a4a4a"></path></g><g transform="translate(224,138)"><g fill-rule="nonzero" transform="translate(95,0)"><path fill="#9eebcf" d="M7-1v86H4V-1z"></path><circle cx="5.5" cy="-1.5" stroke="#9eebcf" stroke-width="3" fill="#fff" r="6.5"></circle><path fill="#9eebcf" d="M5.5 89L0 81h11z"></path></g><g transform="translate(0,85)"><path d="M200 169.1c0 1-.6 1.9-1.4 1.9H1.4c-.8 0-1.4-.9-1.4-1.9V5c0-2.8 2.2-5 5-5h190c2.8 0 5 2.2 5 5v164.1z" fill="#ff003c"></path><path d="M5 0h190c2.8 0 5 2.2 5 5v18H0V5c0-2.8 2.2-5 5-5z" fill="#ccc"></path><path d="M17 12.5c0 2.5-2 4.5-4.5 4.5S8 15 8 12.5 10 8 12.5 8s4.5 2 4.5 4.5" fill="#e74c3c"></path><path d="M33 12.5c0 2.5-2 4.5-4.5 4.5S24 15 24 12.5 26 8 28.5 8s4.5 2 4.5 4.5" fill="#f1c40f"></path><path d="M48 12.5c0 2.5-2 4.5-4.5 4.5S39 15 39 12.5 41 8 43.5 8s4.5 2 4.5 4.5" fill="#2ecc71"></path></g><path d="M6.768 65.99H4.199V71H1.27V56.781h5.547q1.602 0 2.818.586t1.87 1.665q.654 1.08.654 2.456 0 2.09-1.43 3.296-1.431 1.206-3.96 1.206zm-2.569-6.836v4.463h2.617q1.163 0 1.773-.547.61-.547.61-1.562 0-1.045-.615-1.69-.615-.644-1.7-.664H4.2zm9.219 6.592v-.127q0-1.572.605-2.803.606-1.23 1.744-1.904 1.137-.674 2.641-.674 2.139 0 3.491 1.309 1.353 1.308 1.51 3.555l.019.722q0 2.432-1.358 3.902-1.357 1.47-3.642 1.47T14.78 69.73q-1.362-1.464-1.362-3.984zm2.822.078q0 1.504.567 2.3.566.796 1.62.796 1.026 0 1.602-.786.576-.786.576-2.515 0-1.474-.576-2.285-.576-.81-1.62-.81-1.036 0-1.602.805-.567.806-.567 2.495zm8.487-.185q0-2.471 1.108-3.936 1.108-1.465 3.032-1.465 1.543 0 2.549 1.153V56h2.832v15h-2.549l-.137-1.123q-1.054 1.318-2.714 1.318-1.866 0-2.994-1.47-1.127-1.47-1.127-4.086zm2.822.205q0 1.484.517 2.275.518.791 1.504.791 1.309 0 1.846-1.103v-4.17q-.527-1.104-1.826-1.104-2.041 0-2.041 3.31zm23.496 2.88V71h-9.746v-1.934l4.6-4.902q.947-1.035 1.4-1.807.455-.771.455-1.464 0-.948-.479-1.49-.478-.542-1.367-.542-.957 0-1.509.66-.551.659-.551 1.733h-2.832q0-1.299.62-2.373.62-1.074 1.753-1.685 1.132-.61 2.568-.61 2.197 0 3.413 1.055 1.216 1.054 1.216 2.978 0 1.055-.547 2.149-.547 1.093-1.875 2.548l-3.232 3.409h6.113z" fill="#4a4a4a"></path></g></g><g fill="#4a4a4a" transform="translate(356.9,508.3) scale(1.13,1.13)" style="white-space:pre">Service</g><g fill="#4a4a4a" transform="translate(276.9,790.9) rotate(-90) scale(1.13,1.13)" style="white-space:pre">Deployment</g><g fill="none" fill-rule="evenodd" transform="translate(449.7,46.2) scale(1.13,1.13)"><path d="M129 434.5l-36-65h72zM119 171h20v198.5h-20z" fill="#b8e986"></path><g fill-rule="nonzero"><path d="M0 171v-70.4c0-1.5 1.3-2.8 2.8-2.8h54.3c1.1-.4.7-.7.5-1-3.5-5.7-5.7-11.9-6.6-18.7-2-15.4 2.4-28.7 12.9-40.2.6-.7 1.1-1.3 1.8-1.9.5-.5.5-.5 0-1-1.6-1.5-3.1-3.2-4.3-5.2-2.8-4.4-4.4-9.2-4.5-14.5 0-1.3.2-1.5 1.4-.9 1.3.6 2.6 1.2 4 1.6.2-2.3-.1-4.2-.1-6.2 0-.7-.1-1.4 0-2.1 0-1 .3-1.2 1.2-.7 1.4.8 2.8 1.5 4.3 2.1.9.4.9.4.8-.6-.3-2.5-.3-5 0-7.5.2-1 .7-1.2 1-.9.2.2.4.5.6.7 3.1 3.9 6.5 7.3 10.6 10.1 3.6 2.4 7.5 3.7 11.8 3.7 3.3.1 6.4-.6 9.4-1.8 2.8-1 5.6-2.2 8.5-2.8 2.9-.6 5.9-.9 8.9-.2 5 1.2 8.4 4.5 10.6 9.1.8 1.8 1.2 3.6 1.5 5.5.1.8.1.8.9.7 4.4-.3 8.6.4 12.4 2.7 4.6 2.7 7.2 6.9 8.2 12 .7 3.8.5 7.6-.1 11.4-.5 3-1.3 5.9-2.2 8.7-.3.7-.4.7.5 1 4.4 1.5 7.2 4.6 8 9.2 1.1 6.4-2.9 12-8.8 13.4-1.1.3-2.2.4-3.4.3-.4-.1-.6.2-.7.6-.9 3.1-2 6-3.4 8.9-2.9 5.7-6.7 10.6-11.5 14.8-1.1.8-1.2 1.2-1 1.8.6 1.6 1.1 3.2 1.6 4.7 3.2 10.1 6.5 20.1 9.7 30.2.3.7.6 1 1.3 1.1 3.2.7 5.2 2.7 6 5.8.2.7.3 1.4.4 2.1.8-.5 1.1-.9 1.6-1.3 1.3-1.1 2.8-1.4 4.5-.8 1.6.6 2.6 1.8 2.9 3.6.1.6.2.7.8.8 2.8.5 4.5 3.2 3.5 5.9-.2.7-.1 1.2.4 1.8 1.2 1.4 1.9 3.2 2.2 5.1.1.8 0 .8.9.8h16.5c0-1.7-.5-3-.8-4.4-1.9.1-3.2.4-4.4.8-.7.3-1.1.1-1.2-.3-.1-.4.2-.6.8-.8 1.2-.4 2.4-.7 3.5-1.1 1.2-.3 1-.1 1-1.3 0-.6-.2-.7-.5-.7h-5.8c-1-.1-1.2-.3-1.2-.6.8-.6 1-.5 1.2-.5h5.7c.5 0 .7-.2.8-.7.2-1.4.2-1.4-1.1-1.8-1.2-.3-2.3-.7-3.4-1-.9-.3-1-.6-1-.9.9-.4 1.2-.3 1.4-.2 1.4.4 2.7.8 4.1 1.2 1.8-2.8 3.4-4.8 5.5-6.3.4-.3.5-.6.5-1.1v-12.3c.1-.6.5-.8.9-.5 4 3.7 7.5 6.9 10.9 10.1.9.9.6.9 1.7.1 7.5-5.3 17.5-5.3 25 0 .9.7.7.9 1.7-.1 3.5-3.2 7-6.4 10.5-9.7.3-.2.6-.7 1.1-.5.6.2.4.7.4 1.1v18c0 1.2 0 1.2 1.1.8.9-.2 1.8-.5 2.8-.8 1.4.6 1.3.8.9 1l-2.3.7-2 .6c-.6.9-.6 1.5-.5 2.1 2.9.2 4.6.2 6.4.2 1 .1 1.2.3 1.1.6-.7.6-1 .6-1.2.6h-5.6c-.8 0-.8 0-.8.7 0 1.3-.1 1 1 1.3 1 .4 2.2.6 3.3 1 .9.4 1 .6.9 1-2.4-.2-3.4-.5-4.6-.8-.6 1.6-.6 2.8-.6 4 0 .4.1.6.6.6h17.3c.4 0 .9 0 1.3.2v.8c-1 .2-1.3.2-1.6.2H0z" fill="#151d38"></path><path d="M46.4 164v-.1H91c1 0 1 0 1-1v-62.1c0-1-.6-1.7-1.7-1.8H3.1c-1.5.1-2.1.7-2.1 2.1V163c0 1 0 1 1 1h44.4z" fill="#ccd6da"></path><path d="M75.2 97.8h14.6c1.5 0 2.6.9 2.9 2.3.1.3.1.6.1 1v16.6c0 .9.1.9.8.9 5.8.8 11.6.4 17.3-1.1 13-3.4 22.8-11 29.5-22.6 2-3.3 3.4-6.8 4.4-10.5.2-.8.2-.8-.4-1-.4-.1-.8-.2-1.1-.3-.7-.3-.9-.5-.8-.9.1-.5.5-.5 1.2-.3 1.9.7 3.8.9 5.8.5 5.9-1.1 9.7-7.1 8.2-13-1.6-5.9-7.8-9.3-13.5-7.3-.3 0-.5.2-.8.2-.3.1-.5-.1-.6-.3-.1-.3 0-.5.2-.7.1-.1.3-.2.5-.2.4-.2.8-.3 1.2-.4.1-.1.2-.1.3-.2.1-.2-.1-.2-.3-.2-.1-.1-.3-.1-.5-.2-3-1-5.9-2.4-8.5-4.1-4.8-3.2-8.5-7.2-10.9-12.5-1.1-2.5-1.8-5.1-2.3-7.8-.1-.8-.1-.8-.8-.5-.2.2-.4.3-.7.4-3.5 2.1-7.1 3.9-11 5.3-8.2 3.1-16.7 4.4-25.4 2.8-6-1.1-11.7-3.3-16.6-7.1-.7-.4-.7-.4-1.2.1-4.4 4.3-8 9.2-10.5 14.8-4 8.8-5.2 17.9-3.7 27.5 1 6.4 3.3 12.4 6.7 17.9.4.7.9 1 1.7 1 4.7-.1 9.4-.1 14.2-.1z" fill="#fae0d6"></path><path d="M93 142v21.7c0 .5.2.7.7.7H109c.9 0 1 .1 1 .9v4c0 .6-.1.7.6.7H126c.6 0 .7-.2.7-.6.2-1.5.6-2.9 1.4-4.1.3-.5.3-.9.1-1.4l-2.4-7.5c-2-6.1-4-12.3-6-18.4 0-.2-.1-.4-.2-.6 0-.4.1-.7.5-.7.3-.1.5 0 .7.3 0 .1 0 .3.1.4 1.4 4.3 2.8 8.7 4.2 13 1.3 4.1 2.6 8.2 4 12.3.2.7.2.7.7.2 1.5-1.4 3.2-2.3 5.1-2.8.6-.1.7-.1.5-.7-.3-1.3-.7-2.7-1-4-.9-4.1 1.6-8.2 5.5-9.2.3-.1.5-.1.8-.2.3 0 .4-.2.3-.5-.1-.2-.1-.3-.2-.4-3.1-9.8-6.3-19.5-9.4-29.3l-1.8-5.4c-.1-.4-.3-.6-.6-.2-.1.1-.2.2-.4.3-2.6 2-5.5 3.7-8.5 5-5.8 2.7-12 4.3-18.4 4.5-2.7.1-5.5.1-8.1-.3-.5-.1-.6.1-.6.5V142z" fill="#fff3a2"></path><path d="M220.6 169.9h17.5c.9 0 .9 0 .9-.8v-29.6c0-.2.1-.4-.1-.5-.2-.1-.3.2-.5.3-2.1 2-4.3 4-6.5 6-1.3 1.2-2.6 2.5-3.9 3.7-.6.5-.7.5-1.3.1-.2-.2-.3-.3-.5-.4-3.1-2.4-6.6-3.8-10.6-4.1-5.2-.4-9.9 1-14.1 4.3-.9.7-.9.7-1.8-.1l-.1-.1-9.6-9c-.2-.2-.4-.7-.8-.5-.2.1-.1.5-.1.8v10.5c0 .5 0 .9-.5 1.2-5.8 3.9-7.1 11.6-3.8 17.5.3.6.7.8 1.4.8h12.7c.3 0 .7.1.8-.2.1-.2-.3-.4-.5-.6-2.1-2.3-2.7-4.9-1.8-7.8.8-2.9 2.9-4.7 5.8-5.3.6-.2 1.2-.3 1.8-.2.3 0 .5.2.5.6 0 .3-.2.5-.5.5-.4.1-.7.1-1 .1-2.8.4-5.2 2.5-5.7 5.2-.6 2.8.6 5.6 3 7.1.6.4 1.2.6 2 .6 5.9-.1 11.6-.1 17.3-.1z" fill="#c27659"></path><path d="M46.5 165c-8.2.1-16.4.1-24.5.1H1.6c-.4 0-.6.1-.6.5v2.1c0 1.3 0 1.3 1.5 1.3h34.3c17.9 0 35.8-.1 53.7-.1h.7c.6 0 .8-.2.8-.7v-2.7c0-.4-.2-.5-.6-.5H46.5zm99.5 5h17.5c.4 0 .5-.1.5-.5-.2-1.7-.8-3.3-1.8-4.7-.2-.2-.3-.2-.4.1-.1.1-.1.3-.2.4-1.3 2.8-4.5 3.6-6.9 1.6-.4-.4-.7-.4-1.2-.2-1.5.6-2.9.4-4.2-.5-1.4-1-2-2.3-1.9-4.1.1-.6 0-.6-.5-.5-1.2.4-2.4.2-3.5-.4-.2-.2-.5-.2-.8-.2h-5.5c-4.2.1-7.8 3.1-8.9 7.3-.1.4-.2.8-.2 1.3 0 .3.1.4.4.4H146z" fill="#ccd6da"></path><path d="M139 159.3h2.2c.3 0 .4-.1.3-.4-.8-2.1-.9-4.4-1.4-6.6-.1-.5.1-.8.4-.9.4-.1.7.2.8.7l.3 1.5c.2 1.3.4 2.6.7 3.9.4 1.7 2.1 2.8 4 2.4 1.8-.3 2.9-1.8 2.7-3.6-.3-1.5-.5-3-.9-4.4-.8-3.3-4.3-5.4-7.8-4.8-3.4.6-5.8 3.9-5.2 7.1.3 1.5.8 3 1.1 4.6.1.3.3.5.7.5h2.1zm10 3.3c.1 1.2.4 2.1 1.3 2.7 1.9 1.4 4.5.7 5.3-1.5.8-2.1 1.5-4.3 2.2-6.4.1-.3.1-.5.2-.8.1-1.6-.8-3-2.4-3.5-1.5-.4-3.2.2-3.9 1.6-.5 1-.9 2-1.1 3.1-.1.8-.3 1.6-.7 2.3-.5.8-.8 1.7-.9 2.5z" fill="#fae0d6"></path><path d="M100.8 169h7.5c.4-.1.7-.2.7-.6v-3c0-.3-.2-.4-.4-.4H93.7c-.5 0-.7.2-.7.6v2.7c0 .7 0 .7.8.7h7z" fill="#ccd6da"></path><path d="M162 161.4c0-1.8-1.2-3.1-2.9-3.3-.8-.2-.9-.1-1.1.5-.5 1.3-.9 2.5-1.4 3.7-.4 1.1-.6 2.3-1.5 3.3-.3.3 0 .5.2.7 1.8 1.3 4.5.7 5.5-1.3.4-.9.7-1.9 1.1-2.9.1-.3.1-.6.1-.7z" fill="#fae0d6"></path><path d="M58 132.2c-.3 4.9-3.3 8.5-7.8 9.5-5.7 1.4-11.3-2.6-12.1-8.4-.7-5 2.5-10 7.6-11.2 1.1-.2 1.2-.2 1.4.9.7 3.8 3.2 6.6 6.9 7.5.9.2 1.7.2 2.6.1 1.2-.1 1.3 0 1.4 1.2v.4z" fill="#151d38"></path><path d="M48.2 141c.6 0 1.4-.1 2.2-.3 3.6-1 6.4-4.5 6.6-8.1 0-.9 0-.9-.7-.9-4.9.1-9.1-3.2-10.1-7.9-.3-1.1-.4-.8-1.1-.6-4.1 1.4-6.7 5.7-6 10.2.7 4.3 4.5 7.6 9.1 7.6z" fill="#fff"></path><path d="M91.8 61.4H105c2 0 4 0 6 .1 1 0 1.2.4.8 1.2-3 5.6-7.3 9.5-13.5 10.9-6.3 1.3-11.8-.4-16.5-4.9-1.9-1.7-3.3-3.8-4.4-6.1-.1-.3-.3-.5-.3-.7-.2-.5 0-.7.5-.9h.5c3.9 0 7.8.1 11.7.1.7 0 1.3.1 2 .1v.2z" fill="#151d38"></path><path d="M95.1 62.2h-3.6c-1.5 0-2.9 0-4.4-.1-2.5-.1-5.1-.1-7.6-.1-.6 0-.6 0-.3.5 1 1.8 2.3 3.4 3.8 4.8 4.4 3.9 9.6 5.5 15.4 4.3 5.4-1 9.4-4 12.3-8.4.5-.8.5-.9-.5-.9-5 0-10.1-.1-15.1-.1z" fill="#fff"></path><path d="M57 67.5c0-3.3 2.5-6.5 6.5-6.5 3.6 0 6.5 2.9 6.5 6.5S67.1 74 63.5 74 57 71.1 57 67.5zm77 1c.1 3.1-2.5 6.5-6.5 6.5-3.6 0-6.5-2.9-6.5-6.5s2.8-6.5 6.5-6.5c3.9-.1 6.7 3.2 6.5 6.5z" fill="#e5384a"></path><path d="M72.5 53c2 0 3.5 1.5 3.5 3.5S74.5 60 72.6 60c-2 0-3.6-1.5-3.6-3.5 0-1.9 1.5-3.5 3.5-3.5zm45 1c2 0 3.5 1.5 3.5 3.6 0 1.9-1.6 3.4-3.5 3.4s-3.5-1.6-3.5-3.5c0-2 1.5-3.5 3.5-3.5zM154 72.1c0 4-4.2 6.9-8.2 5.6-.1-.1-.2-.1-.3-.2-.4-.1-.6-.4-.4-.8.1-.3.4-.4.8-.3.2 0 .4.2.6.2 2.8.7 5.7-1 6.2-3.6.6-2.8-1.3-5.4-4.2-5.8-.2 0-.5-.1-.8-.1-.2 0-.4-.3-.4-.5 0-.4.2-.5.5-.6h.7c3.2.4 5.5 3 5.5 6.1zM95 52.7c0 .3-.2.4-.5.6-.8.4-1.6.8-2.4 1.3-.3.1-.4.3 0 .5.6.5 1.3 1 1.9 1.5.2.1.4.3.5.4.2.2.2.5.1.8-.2.2-.4.2-.7.2-.1-.1-.2-.2-.4-.3-1-.8-2-1.5-3-2.3-.7-.6-.7-1 .1-1.5 1.1-.6 2.3-1.2 3.4-1.8.6-.2 1 0 1 .6zm-31 2.2c.1-2.9 2-5.3 4.7-5.8.3-.1.6-.1.9-.1.2.1.4.3.4.5 0 .3-.1.6-.3.7-.3 0-.6.1-.8.1-2.1.5-3.5 2.1-3.7 4.4v.7c-.1.4-.2.6-.6.6-.4 0-.5-.3-.6-.7v-.4zm61 0v.7c-.1.3-.3.4-.6.4s-.5-.2-.5-.4V55c-.2-2.4-1.7-4.2-3.9-4.7-.2 0-.3 0-.4-.1-.4-.1-.7-.3-.6-.7.1-.5.4-.5.8-.5 1.3.2 2.5.7 3.4 1.6 1.1 1.2 1.7 2.6 1.8 4.3zM213.7 167c-1.5-.1-2.6-.5-3.3-1.5-.3-.4-.5-.4-.8 0-1.4 1.7-3.5 2-5.1.8-.6-.4-1.1-.9-1.4-1.6-.1-.3-.2-.8.2-1 .4-.2.7 0 .9.4.1.3.3.5.5.8 1.3 1.5 3.6 1 4.4-.9.1-.4.2-.7-.3-.8-.8-.2-1.2-.8-1.7-1.4-.2-.2-.3-.5-.4-.8-.1-.6.1-1 .7-1h5.2c.5 0 .7.4.6 1-.3 1-1 1.5-1.7 2-.3.2-.7.2-.8.5 0 .4.2.7.4 1.1 1.1 1.6 3.3 1.6 4.5 0l.3-.6c.2-.3.5-.4.8-.2.3.1.4.4.2.7-.2.6-.6 1.2-1 1.6-.8.6-1.6.9-2.2.9zm13.3-11c1.7 0 3 1.3 3 3s-1.4 3-3.1 3c-1.7 0-2.9-1.4-2.9-3.1 0-1.7 1.3-2.9 3-2.9zm-35 6c-1.7 0-3-1.3-3-3s1.2-3 2.9-3c1.8 0 3.1 1.3 3.1 3s-1.3 3-3 3z" fill="#151d38"></path></g><path d="M157.385 184.781V199h-2.93v-14.219h2.93zm2.47 3.653h2.657l.088 1.22q1.132-1.416 3.037-1.416 1.68 0 2.5.987.82.986.84 2.949V199h-2.823v-6.758q0-.898-.39-1.304-.391-.405-1.3-.405-1.19 0-1.786 1.016V199h-2.823v-10.566zm15.655 8.486q.781 0 1.27-.43.488-.43.507-1.142h2.647q-.01 1.074-.586 1.967-.577.894-1.577 1.387-1.001.493-2.212.493-2.266 0-3.575-1.44-1.308-1.44-1.308-3.98v-.185q0-2.442 1.299-3.897 1.298-1.455 3.564-1.455 1.982 0 3.179 1.128 1.196 1.128 1.216 3.003h-2.647q-.02-.82-.508-1.333t-1.289-.513q-.986 0-1.489.718-.503.718-.503 2.33v.292q0 1.631.498 2.344.498.713 1.514.713zm5.595-3.174v-.127q0-1.572.606-2.803.605-1.23 1.743-1.904 1.138-.674 2.642-.674 2.138 0 3.49 1.309 1.353 1.308 1.51 3.555l.02.722q0 2.432-1.358 3.902-1.358 1.47-3.643 1.47-2.285 0-3.647-1.466-1.363-1.464-1.363-3.984zm2.823.078q0 1.504.566 2.3.567.796 1.621.796 1.026 0 1.602-.786.576-.786.576-2.515 0-1.474-.576-2.285-.576-.81-1.621-.81-1.035 0-1.602.805-.566.806-.566 2.495zm8.926-5.39h2.646l.088 1.181q1.123-1.377 3.037-1.377 2.041 0 2.803 1.612 1.113-1.612 3.174-1.612 1.718 0 2.558 1.001.84 1.001.84 3.013V199h-2.832v-6.738q0-.899-.352-1.314-.351-.415-1.24-.415-1.27 0-1.758 1.211l.01 7.256h-2.822v-6.729q0-.917-.361-1.328-.362-.41-1.23-.41-1.202 0-1.74.996V199h-2.821v-10.566zm20.292 0V199h-2.832v-10.566h2.832zm-2.998-2.735q0-.635.425-1.045.425-.41 1.157-.41.723 0 1.153.41.43.41.43 1.045 0 .645-.435 1.055-.435.41-1.148.41-.712 0-1.147-.41-.435-.41-.435-1.055zm5.264 2.735h2.656l.088 1.22q1.133-1.416 3.037-1.416 1.68 0 2.5.987.82.986.84 2.949V199h-2.822v-6.758q0-.898-.39-1.304-.391-.405-1.3-.405-1.19 0-1.787 1.016V199h-2.822v-10.566zm10.85 5.322v-.117q0-2.432 1.157-3.916 1.157-1.485 3.12-1.485 1.738 0 2.705 1.192l.117-.996h2.559v10.214q0 1.387-.63 2.413-.63 1.025-1.772 1.562-1.143.537-2.676.537-1.162 0-2.266-.464-1.103-.464-1.67-1.196l1.25-1.719q1.055 1.182 2.559 1.182 1.123 0 1.748-.6.625-.601.625-1.705v-.566q-.977 1.103-2.568 1.103-1.905 0-3.082-1.489-1.176-1.49-1.176-3.95zm2.822.088q0 1.435.576 2.25.576.816 1.582.816 1.29 0 1.846-.967V191.5q-.567-.967-1.826-.967-1.016 0-1.597.83t-.581 2.48zm-74.444 13.992h2.823v2.598h1.807v2.07h-1.807v5.273q0 .586.225.84.224.254.859.254.469 0 .83-.068v2.138q-.83.254-1.709.254-2.969 0-3.027-2.998v-5.693h-1.543v-2.07h1.543v-2.598zm12.178 2.53l-.039 2.714q-.576-.078-1.015-.078-1.602 0-2.1 1.084V221h-2.822v-10.566h2.666l.078 1.26q.85-1.456 2.353-1.456.47 0 .88.127zm10 10.634h-2.851q-.196-.38-.283-.947-1.026 1.142-2.666 1.142-1.553 0-2.574-.898-1.02-.899-1.02-2.266 0-1.68 1.245-2.578 1.245-.898 3.599-.908h1.298v-.606q0-.732-.376-1.171-.376-.44-1.186-.44-.713 0-1.118.342-.406.342-.406.937h-2.822q0-.918.567-1.699.566-.781 1.601-1.225 1.035-.445 2.324-.445 1.954 0 3.101.982 1.147.981 1.147 2.759v4.58q.01 1.504.42 2.275V221zm-5.185-1.963q.625 0 1.152-.278.528-.279.781-.747v-1.817h-1.054q-2.12 0-2.256 1.465l-.01.166q0 .528.371.87.371.341 1.016.341zM182.17 221h-2.832v-8.496h-1.572v-2.07h1.572v-.899q0-1.777 1.02-2.759 1.02-.981 2.857-.981.586 0 1.435.195l-.029 2.188q-.351-.088-.86-.088-1.591 0-1.591 1.494v.85h2.1v2.07h-2.1V221zm7.168 0h-2.832v-8.496h-1.572v-2.07h1.572v-.899q0-1.777 1.02-2.759 1.02-.981 2.857-.981.586 0 1.435.195l-.029 2.188q-.351-.088-.86-.088-1.591 0-1.591 1.494v.85h2.1v2.07h-2.1V221zm6.543-10.566V221h-2.832v-10.566h2.832zm-2.998-2.735q0-.635.425-1.045.424-.41 1.157-.41.722 0 1.152.41.43.41.43 1.045 0 .645-.435 1.055-.434.41-1.147.41-.713 0-1.148-.41-.434-.41-.434-1.055zm9.717 11.22q.78 0 1.27-.429.487-.43.507-1.142h2.646q-.01 1.074-.585 1.967-.577.894-1.578 1.387-1 .493-2.212.493-2.265 0-3.574-1.44-1.308-1.44-1.308-3.98v-.185q0-2.442 1.298-3.897 1.3-1.455 3.565-1.455 1.982 0 3.179 1.128 1.196 1.128 1.215 3.003h-2.646q-.02-.82-.508-1.333t-1.289-.513q-.986 0-1.49.718-.502.718-.502 2.33v.292q0 1.631.498 2.344.498.713 1.514.713z" fill="#7da159"></path></g><g stroke="#f5a623" stroke-dasharray="6" stroke-width="13" fill="none" fill-rule="evenodd" transform="translate(433.3,239.5) scale(1.13,1.13)"><path d="M258 379.2V263.5H143.5V0" stroke-dasharray="12" style="animation:4s linear infinite both a0_o, 4s linear infinite both a0_do"></path><path d="M31.2 379.2V263.5h114.5V0" stroke-dasharray="12" opacity="0" style="animation:4s linear infinite both a1_o, 4s linear infinite both a1_do"></path></g></svg>