<svg viewBox="0 0 1060 977" xmlns="http://www.w3.org/2000/svg"><defs><linearGradient x1="50%" y1="0%" x2="50%" y2="100%" id="linearGradient-1"><stop stop-color="#36D2AD" offset="0%"></stop><stop stop-color="#2DBC9A" offset="100%"></stop></linearGradient></defs><g transform="translate(154.000000, 73.000000)" fill="none" fill-rule="evenodd"><path d="M96.6 549.8h548.8v279.4H96.6V549.8z" stroke="#FDB26F" stroke-width="3" fill="#FAFAFA" fill-rule="nonzero" stroke-dasharray="10"></path><g transform="translate(132.900000, 478.100000)" fill-rule="nonzero"><path d="M479.12 5.65v22.6H0V5.65C0 2.486 2.486 0 5.65 0h467.82c3.164 0 5.65 2.486 5.65 5.65z" fill="#D2D2D2"></path><path d="M7.91 6.78h4.52v4.52H7.91V6.78zm6.78 0h4.52v4.52h-4.52V6.78zm6.78 0h4.52v4.52h-4.52V6.78z" fill="#A3A3A3"></path></g><g transform="translate(132.900000, 497.360000)" fill-rule="nonzero"><g transform="translate(106.220000, 0.000000)"><path fill="#9EEBCF" d="M9.04 7.91v97.18H5.65V7.91z"></path><circle stroke="#9EEBCF" stroke-width="3.39" fill="#FFF" cx="7.345" cy="7.345" r="7.345"></circle><path fill="#9EEBCF" d="M7.345 109.61l-6.215-9.04h12.43z"></path></g><g transform="translate(0.000000, 105.090000)"><path d="M226 191.083c0 1.13-.678 2.147-1.582 2.147H1.582c-.904 0-1.582-1.017-1.582-2.147V5.65C0 2.486 2.486 0 5.65 0h214.7c3.164 0 5.65 2.486 5.65 5.65v185.433z" fill="#FF003C"></path><path d="M5.65 0h214.7c3.164 0 5.65 2.486 5.65 5.65v20.34H0V5.65C0 2.486 2.486 0 5.65 0z" fill="#CCC"></path><path d="M19.21 14.125a5.064 5.064 0 01-5.085 5.085 5.064 5.064 0 01-5.085-5.085 5.064 5.064 0 015.085-5.085 5.064 5.064 0 015.085 5.085" fill="#E74C3C"></path><path d="M37.29 14.125a5.064 5.064 0 01-5.085 5.085 5.064 5.064 0 01-5.085-5.085 5.064 5.064 0 015.085-5.085 5.064 5.064 0 015.085 5.085" fill="#F1C40F"></path><path d="M54.24 14.125a5.064 5.064 0 01-5.085 5.085 5.064 5.064 0 01-5.085-5.085 5.064 5.064 0 015.085-5.085 5.064 5.064 0 015.085 5.085" fill="#2ECC71"></path></g></g><g transform="translate(386.000000, 497.360000)" fill-rule="nonzero"><g transform="translate(106.220000, 0.000000)"><path fill="#9EEBCF" d="M9.04 7.91v97.18H5.65V7.91z"></path><circle stroke="#9EEBCF" stroke-width="3.39" fill="#FFF" cx="7.345" cy="7.345" r="7.345"></circle><path fill="#9EEBCF" d="M7.345 109.61l-6.215-9.04h12.43z"></path></g><g transform="translate(0.000000, 105.090000)"><path d="M226 191.083c0 1.13-.678 2.147-1.582 2.147H1.582c-.904 0-1.582-1.017-1.582-2.147V5.65C0 2.486 2.486 0 5.65 0h214.7c3.164 0 5.65 2.486 5.65 5.65v185.433z" fill="#FF003C"></path><path d="M5.65 0h214.7c3.164 0 5.65 2.486 5.65 5.65v20.34H0V5.65C0 2.486 2.486 0 5.65 0z" fill="#CCC"></path><path d="M19.21 14.125a5.064 5.064 0 01-5.085 5.085 5.064 5.064 0 01-5.085-5.085 5.064 5.064 0 015.085-5.085 5.064 5.064 0 015.085 5.085" fill="#E74C3C"></path><path d="M37.29 14.125a5.064 5.064 0 01-5.085 5.085 5.064 5.064 0 01-5.085-5.085 5.064 5.064 0 015.085-5.085 5.064 5.064 0 015.085 5.085" fill="#F1C40F"></path><path d="M54.24 14.125a5.064 5.064 0 01-5.085 5.085 5.064 5.064 0 01-5.085-5.085 5.064 5.064 0 015.085-5.085 5.064 5.064 0 015.085 5.085" fill="#2ECC71"></path></g></g><g transform="translate(225.700000, 0.070000)"><path d="M145.77 492.115l-40.68-73.45h81.36l-40.68 73.45zm-11.3-297.755h22.6v224.305h-22.6V194.36z" fill="#B8E986" fill-rule="nonzero"></path><g fill-rule="nonzero"><path d="M0 194.36v-79.552c0-1.695 1.469-3.164 3.164-3.164h61.359c1.243-.452.791-.791.565-1.13-3.955-6.441-6.441-13.447-7.458-21.131-2.26-17.402 2.712-32.431 14.577-45.426.678-.791 1.243-1.469 2.034-2.147.565-.565.565-.565 0-1.13-1.808-1.695-3.503-3.616-4.859-5.876-3.164-4.972-4.972-10.396-5.085-16.385 0-1.469.226-1.695 1.582-1.017 1.469.678 2.938 1.356 4.52 1.808.226-2.599-.113-4.746-.113-7.006 0-.791-.113-1.582 0-2.373 0-1.13.339-1.356 1.356-.791a38.624 38.624 0 004.859 2.373c1.017.452 1.017.452.904-.678a35.44 35.44 0 010-8.475c.226-1.13.791-1.356 1.13-1.017.226.226.452.565.678.791 3.503 4.407 7.345 8.249 11.978 11.413 4.068 2.712 8.475 4.181 13.334 4.181 3.729.113 7.232-.678 10.622-2.034 3.164-1.13 6.328-2.486 9.605-3.164 3.277-.678 6.667-1.017 10.057-.226 5.65 1.356 9.492 5.085 11.978 10.283.904 2.034 1.356 4.068 1.695 6.215.113.904.113.904 1.017.791 4.972-.339 9.718.452 14.012 3.051 5.198 3.051 8.136 7.797 9.266 13.56.791 4.294.565 8.588-.113 12.882-.565 3.39-1.469 6.667-2.486 9.831-.339.791-.452.791.565 1.13 4.972 1.695 8.136 5.198 9.04 10.396 1.243 7.232-3.277 13.56-9.944 15.142a10.86 10.86 0 01-3.842.339c-.452-.113-.678.226-.791.678a63.611 63.611 0 01-3.842 10.057c-3.277 6.441-7.571 11.978-12.995 16.724-1.243.904-1.356 1.356-1.13 2.034.678 1.808 1.243 3.616 1.808 5.311 3.616 11.413 7.345 22.713 10.961 34.126.339.791.678 1.13 1.469 1.243 3.616.791 5.876 3.051 6.78 6.554.226.791.339 1.582.452 2.373.904-.565 1.243-1.017 1.808-1.469 1.469-1.243 3.164-1.582 5.085-.904 1.808.678 2.938 2.034 3.277 4.068.113.678.226.791.904.904 3.164.565 5.085 3.616 3.955 6.667-.226.791-.113 1.356.452 2.034 1.356 1.582 2.147 3.616 2.486 5.763.113.904 0 .904 1.017.904h18.645c0-1.921-.565-3.39-.904-4.972-2.147.113-3.616.452-4.972.904-.791.339-1.243.113-1.356-.339-.113-.452.226-.678.904-.904 1.356-.452 2.712-.791 3.955-1.243 1.356-.339 1.13-.113 1.13-1.469 0-.678-.226-.791-.565-.791h-6.554c-1.13-.113-1.356-.339-1.356-.678.904-.678 1.13-.565 1.356-.565h6.441c.565 0 .791-.226.904-.791.226-1.582.226-1.582-1.243-2.034-1.356-.339-2.599-.791-3.842-1.13-1.017-.339-1.13-.678-1.13-1.017 1.017-.452 1.356-.339 1.582-.226 1.582.452 3.051.904 4.633 1.356 2.034-3.164 3.842-5.424 6.215-7.119.452-.339.565-.678.565-1.243v-13.899c.113-.678.565-.904 1.017-.565 4.52 4.181 8.475 7.797 12.317 11.413 1.017 1.017.678 1.017 1.921.113a24.455 24.455 0 0128.25 0c1.017.791.791 1.017 1.921-.113 3.955-3.616 7.91-7.232 11.865-10.961.339-.226.678-.791 1.243-.565.678.226.452.791.452 1.243v20.34c0 1.356 0 1.356 1.243.904 1.017-.226 2.034-.565 3.164-.904 1.582.678 1.469.904 1.017 1.13l-2.599.791-2.26.678c-.678 1.017-.678 1.695-.565 2.373 3.277.226 5.198.226 7.232.226 1.13.113 1.356.339 1.243.678-.791.678-1.13.678-1.356.678h-6.328c-.904 0-.904 0-.904.791 0 1.469-.113 1.13 1.13 1.469 1.13.452 2.486.678 3.729 1.13 1.017.452 1.13.678 1.017 1.13-2.712-.226-3.842-.565-5.198-.904-.678 1.808-.678 3.164-.678 4.52 0 .452.113.678.678.678h19.549c.452 0 1.017 0 1.469.226v.904c-1.13.226-1.469.226-1.808.226H0z" fill="#151D38"></path><path d="M52.432 186.45v-.113h50.398c1.13 0 1.13 0 1.13-1.13v-70.173c0-1.13-.678-1.921-1.921-2.034H3.503c-1.695.113-2.373.791-2.373 2.373v69.947c0 1.13 0 1.13 1.13 1.13h50.172z" fill="#CCD6DA"></path><path d="M84.976 111.644h16.498c1.695 0 2.938 1.017 3.277 2.599.113.339.113.678.113 1.13v18.758c0 1.017.113 1.017.904 1.017 6.554.904 13.108.452 19.549-1.243 14.69-3.842 25.764-12.43 33.335-25.538 2.26-3.729 3.842-7.684 4.972-11.865.226-.904.226-.904-.452-1.13-.452-.113-.904-.226-1.243-.339-.791-.339-1.017-.565-.904-1.017.113-.565.565-.565 1.356-.339 2.147.791 4.294 1.017 6.554.565 6.667-1.243 10.961-8.023 9.266-14.69-1.808-6.667-8.814-10.509-15.255-8.249-.339 0-.565.226-.904.226-.339.113-.565-.113-.678-.339-.113-.339 0-.565.226-.791a.863.863 0 01.565-.226c.452-.226.904-.339 1.356-.452.113-.113.226-.113.339-.226.113-.226-.113-.226-.339-.226-.113-.113-.339-.113-.565-.226a41.88 41.88 0 01-9.605-4.633c-5.424-3.616-9.605-8.136-12.317-14.125-1.243-2.825-2.034-5.763-2.599-8.814-.113-.904-.113-.904-.904-.565-.226.226-.452.339-.791.452-3.955 2.373-8.023 4.407-12.43 5.989-9.266 3.503-18.871 4.972-28.702 3.164-6.78-1.243-13.221-3.729-18.758-8.023-.791-.452-.791-.452-1.356.113-4.972 4.859-9.04 10.396-11.865 16.724-4.52 9.944-5.876 20.227-4.181 31.075 1.13 7.232 3.729 14.012 7.571 20.227.452.791 1.017 1.13 1.921 1.13 5.311-.113 10.622-.113 16.046-.113z" fill="#FAE0D6"></path><path d="M105.09 161.59v24.521c0 .565.226.791.791.791h17.289c1.017 0 1.13.113 1.13 1.017v4.52c0 .678-.113.791.678.791h17.402c.678 0 .791-.226.791-.678.226-1.695.678-3.277 1.582-4.633.339-.565.339-1.017.113-1.582l-2.712-8.475c-2.26-6.893-4.52-13.899-6.78-20.792 0-.226-.113-.452-.226-.678 0-.452.113-.791.565-.791.339-.113.565 0 .791.339 0 .113 0 .339.113.452 1.582 4.859 3.164 9.831 4.746 14.69 1.469 4.633 2.938 9.266 4.52 13.899.226.791.226.791.791.226 1.695-1.582 3.616-2.599 5.763-3.164.678-.113.791-.113.565-.791-.339-1.469-.791-3.051-1.13-4.52-1.017-4.633 1.808-9.266 6.215-10.396.339-.113.565-.113.904-.226.339 0 .452-.226.339-.565-.113-.226-.113-.339-.226-.452-3.503-11.074-7.119-22.035-10.622-33.109l-2.034-6.102c-.113-.452-.339-.678-.678-.226a1.56 1.56 0 01-.452.339 45.61 45.61 0 01-9.605 5.65c-6.554 3.051-13.56 4.859-20.792 5.085-3.051.113-6.215.113-9.153-.339-.565-.113-.678.113-.678.565v24.634z" fill="#FFF3A2"></path><path d="M249.278 193.117h19.775c1.017 0 1.017 0 1.017-.904v-33.448c0-.226.113-.452-.113-.565-.226-.113-.339.226-.565.339-2.373 2.26-4.859 4.52-7.345 6.78-1.469 1.356-2.938 2.825-4.407 4.181-.678.565-.791.565-1.469.113-.226-.226-.339-.339-.565-.452-3.503-2.712-7.458-4.294-11.978-4.633-5.876-.452-11.187 1.13-15.933 4.859-1.017.791-1.017.791-2.034-.113l-.113-.113-10.848-10.17c-.226-.226-.452-.791-.904-.565-.226.113-.113.565-.113.904v11.865c0 .565 0 1.017-.565 1.356-6.554 4.407-8.023 13.108-4.294 19.775.339.678.791.904 1.582.904h14.351c.339 0 .791.113.904-.226.113-.226-.339-.452-.565-.678-2.373-2.599-3.051-5.537-2.034-8.814.904-3.277 3.277-5.311 6.554-5.989.678-.226 1.356-.339 2.034-.226.339 0 .565.226.565.678 0 .339-.226.565-.565.565-.452.113-.791.113-1.13.113-3.164.452-5.876 2.825-6.441 5.876a7.537 7.537 0 003.39 8.023c.678.452 1.356.678 2.26.678 6.667-.113 13.108-.113 19.549-.113z" fill="#C27659"></path><path d="M52.545 187.58c-9.266.113-18.532.113-27.685.113H1.808c-.452 0-.678.113-.678.565v2.373c0 1.469 0 1.469 1.695 1.469h38.759c20.227 0 40.454-.113 60.681-.113h.791c.678 0 .904-.226.904-.791v-3.051c0-.452-.226-.565-.678-.565H52.545zm112.435 5.65h19.775c.452 0 .565-.113.565-.565a11.348 11.348 0 00-2.034-5.311c-.226-.226-.339-.226-.452.113-.113.113-.113.339-.226.452-1.469 3.164-5.085 4.068-7.797 1.808-.452-.452-.791-.452-1.356-.226-1.695.678-3.277.452-4.746-.565-1.582-1.13-2.26-2.599-2.147-4.633.113-.678 0-.678-.565-.565-1.356.452-2.712.226-3.955-.452-.226-.226-.565-.226-.904-.226h-6.215c-4.746.113-8.814 3.503-10.057 8.249-.113.452-.226.904-.226 1.469 0 .339.113.452.452.452h19.888z" fill="#CCD6DA"></path><path d="M157.07 181.139h2.486c.339 0 .452-.113.339-.452-.904-2.373-1.017-4.972-1.582-7.458-.113-.565.113-.904.452-1.017.452-.113.791.226.904.791l.339 1.695c.226 1.469.452 2.938.791 4.407.452 1.921 2.373 3.164 4.52 2.712 2.034-.339 3.277-2.034 3.051-4.068-.339-1.695-.565-3.39-1.017-4.972-.904-3.729-4.859-6.102-8.814-5.424-3.842.678-6.554 4.407-5.876 8.023.339 1.695.904 3.39 1.243 5.198.113.339.339.565.791.565h2.373zm11.3 3.729c.113 1.356.452 2.373 1.469 3.051 2.147 1.582 5.085.791 5.989-1.695.904-2.373 1.695-4.859 2.486-7.232.113-.339.113-.565.226-.904.113-1.808-.904-3.39-2.712-3.955-1.695-.452-3.616.226-4.407 1.808-.565 1.13-1.017 2.26-1.243 3.503-.113.904-.339 1.808-.791 2.599a7.135 7.135 0 00-1.017 2.825z" fill="#FAE0D6"></path><path d="M113.904 192.1h8.475c.452-.113.791-.226.791-.678v-3.39c0-.339-.226-.452-.452-.452h-16.837c-.565 0-.791.226-.791.678v3.051c0 .791 0 .791.904.791h7.91z" fill="#CCD6DA"></path><path d="M183.06 183.512c0-2.034-1.356-3.503-3.277-3.729-.904-.226-1.017-.113-1.243.565-.565 1.469-1.017 2.825-1.582 4.181-.452 1.243-.678 2.599-1.695 3.729-.339.339 0 .565.226.791 2.034 1.469 5.085.791 6.215-1.469.452-1.017.791-2.147 1.243-3.277.113-.339.113-.678.113-.791z" fill="#FAE0D6"></path><path d="M65.54 150.516c-.339 5.537-3.729 9.605-8.814 10.735-6.441 1.582-12.769-2.938-13.673-9.492-.791-5.65 2.825-11.3 8.588-12.656 1.243-.226 1.356-.226 1.582 1.017.791 4.294 3.616 7.458 7.797 8.475 1.017.226 1.921.226 2.938.113 1.356-.113 1.469 0 1.582 1.356v.452z" fill="#151D38"></path><path d="M54.466 160.46c.678 0 1.582-.113 2.486-.339 4.068-1.13 7.232-5.085 7.458-9.153 0-1.017 0-1.017-.791-1.017-5.537.113-10.283-3.616-11.413-8.927-.339-1.243-.452-.904-1.243-.678-4.633 1.582-7.571 6.441-6.78 11.526.791 4.859 5.085 8.588 10.283 8.588z" fill="#FFF"></path><path d="M103.734 70.512h14.916c2.26 0 4.52 0 6.78.113 1.13 0 1.356.452.904 1.356-3.39 6.328-8.249 10.735-15.255 12.317-7.119 1.469-13.334-.452-18.645-5.537-2.147-1.921-3.729-4.294-4.972-6.893-.113-.339-.339-.565-.339-.791-.226-.565 0-.791.565-1.017h.565c4.407 0 8.814.113 13.221.113.791 0 1.469.113 2.26.113v.226z" fill="#151D38"></path><path d="M107.463 71.416h-4.068c-1.695 0-3.277 0-4.972-.113-2.825-.113-5.763-.113-8.588-.113-.678 0-.678 0-.339.565 1.13 2.034 2.599 3.842 4.294 5.424 4.972 4.407 10.848 6.215 17.402 4.859 6.102-1.13 10.622-4.52 13.899-9.492.565-.904.565-1.017-.565-1.017-5.65 0-11.413-.113-17.063-.113z" fill="#FFF"></path><path d="M64.41 77.405c0-3.729 2.825-7.345 7.345-7.345a7.33 7.33 0 017.345 7.345 7.33 7.33 0 01-7.345 7.345 7.33 7.33 0 01-7.345-7.345zm87.01 1.13c.113 3.503-2.825 7.345-7.345 7.345a7.33 7.33 0 01-7.345-7.345c0-4.068 3.164-7.345 7.345-7.345 4.407-.113 7.571 3.616 7.345 7.345z" fill="#E5384A"></path><path d="M81.925 61.02c2.26 0 3.955 1.695 3.955 3.955s-1.695 3.955-3.842 3.955c-2.26 0-4.068-1.695-4.068-3.955 0-2.147 1.695-3.955 3.955-3.955zm50.85 1.13c2.26 0 3.955 1.695 3.955 4.068 0 2.147-1.808 3.842-3.955 3.842-2.147 0-3.955-1.808-3.955-3.955 0-2.26 1.695-3.955 3.955-3.955zm41.245 20.453c0 4.52-4.746 7.797-9.266 6.328-.113-.113-.226-.113-.339-.226-.452-.113-.678-.452-.452-.904.113-.339.452-.452.904-.339.226 0 .452.226.678.226 3.164.791 6.441-1.13 7.006-4.068.678-3.164-1.469-6.102-4.746-6.554-.226 0-.565-.113-.904-.113-.226 0-.452-.339-.452-.565 0-.452.226-.565.565-.678h.791c3.616.452 6.215 3.39 6.215 6.893zm-66.67-21.922c0 .339-.226.452-.565.678-.904.452-1.808.904-2.712 1.469-.339.113-.452.339 0 .565.678.565 1.469 1.13 2.147 1.695.226.113.452.339.565.452.226.226.226.565.113.904-.226.226-.452.226-.791.226a1.56 1.56 0 00-.452-.339c-1.13-.904-2.26-1.695-3.39-2.599-.791-.678-.791-1.13.113-1.695 1.243-.678 2.599-1.356 3.842-2.034.678-.226 1.13 0 1.13.678zm-35.03 2.486c.113-3.277 2.26-5.989 5.311-6.554.339-.113.678-.113 1.017-.113.226.113.452.339.452.565 0 .339-.113.678-.339.791-.339 0-.678.113-.904.113-2.373.565-3.955 2.373-4.181 4.972v.791c-.113.452-.226.678-.678.678-.452 0-.565-.339-.678-.791v-.452zm68.93 0v.791c-.113.339-.339.452-.678.452s-.565-.226-.565-.452v-.678c-.226-2.712-1.921-4.746-4.407-5.311-.226 0-.339 0-.452-.113-.452-.113-.791-.339-.678-.791.113-.565.452-.565.904-.565 1.469.226 2.825.791 3.842 1.808 1.243 1.356 1.921 2.938 2.034 4.859zM241.481 189.84c-1.695-.113-2.938-.565-3.729-1.695-.339-.452-.565-.452-.904 0-1.582 1.921-3.955 2.26-5.763.904-.678-.452-1.243-1.017-1.582-1.808-.113-.339-.226-.904.226-1.13.452-.226.791 0 1.017.452.113.339.339.565.565.904 1.469 1.695 4.068 1.13 4.972-1.017.113-.452.226-.791-.339-.904-.904-.226-1.356-.904-1.921-1.582-.226-.226-.339-.565-.452-.904-.113-.678.113-1.13.791-1.13h5.876c.565 0 .791.452.678 1.13-.339 1.13-1.13 1.695-1.921 2.26-.339.226-.791.226-.904.565 0 .452.226.791.452 1.243 1.243 1.808 3.729 1.808 5.085 0l.339-.678c.226-.339.565-.452.904-.226.339.113.452.452.226.791a4.92 4.92 0 01-1.13 1.808c-.904.678-1.808 1.017-2.486 1.017zm15.029-12.43c1.921 0 3.39 1.469 3.39 3.39s-1.582 3.39-3.503 3.39-3.277-1.582-3.277-3.503 1.469-3.277 3.39-3.277zm-39.55 6.78c-1.921 0-3.39-1.469-3.39-3.39s1.356-3.39 3.277-3.39c2.034 0 3.503 1.469 3.503 3.39s-1.469 3.39-3.39 3.39z" fill="#151D38"></path></g><path d="M175.82 212.025V223.4h-1.5v-11.375h1.5zm2.515 2.922h1.367l.047 1.062q.97-1.218 2.532-1.218 2.68 0 2.703 3.023v5.586h-1.446v-5.594q-.007-.914-.418-1.351-.41-.438-1.277-.438-.703 0-1.234.375-.532.375-.828.985v6.023h-1.446v-8.453zm12.22 7.43q.773 0 1.35-.47.579-.468.641-1.171h1.367q-.039.727-.5 1.383-.46.656-1.23 1.047-.77.39-1.629.39-1.727 0-2.746-1.152-1.02-1.152-1.02-3.152v-.243q0-1.234.454-2.195.453-.96 1.3-1.492.848-.531 2.004-.531 1.422 0 2.364.851.94.852 1.003 2.211h-1.367q-.062-.82-.62-1.348-.56-.527-1.38-.527-1.101 0-1.707.793-.605.793-.605 2.293v.274q0 1.46.601 2.25.602.789 1.72.789zm4.6-3.18v-.102q0-1.242.489-2.234.488-.992 1.36-1.531.87-.54 1.988-.54 1.726 0 2.793 1.196 1.066 1.195 1.066 3.18v.101q0 1.235-.473 2.215-.472.98-1.351 1.527-.88.547-2.02.547-1.719 0-2.785-1.195t-1.066-3.164zm1.454.07q0 1.406.652 2.258.652.852 1.746.852 1.102 0 1.75-.864.649-.863.649-2.418 0-1.39-.66-2.254-.66-.863-1.754-.863-1.07 0-1.727.852-.656.851-.656 2.437zm8.047-4.32h1.367l.039.937q.93-1.093 2.508-1.093 1.773 0 2.414 1.359.422-.61 1.097-.984.676-.375 1.598-.375 2.781 0 2.828 2.945v5.664h-1.445v-5.578q0-.906-.414-1.356-.414-.449-1.39-.449-.806 0-1.337.48-.531.481-.617 1.294v5.609h-1.453v-5.54q0-1.843-1.805-1.843-1.422 0-1.945 1.211v6.172h-1.445v-8.453zm15.601 0v8.453h-1.445v-8.453h1.445zm-1.562-2.242q0-.352.215-.594.214-.242.636-.242.422 0 .64.242.22.242.22.594 0 .351-.22.586-.218.234-.64.234-.422 0-.636-.234-.215-.235-.215-.586zm3.875 2.242h1.367l.047 1.062q.968-1.218 2.531-1.218 2.68 0 2.703 3.023v5.586h-1.445v-5.594q-.008-.914-.418-1.351-.41-.438-1.278-.438-.703 0-1.234.375t-.828.985v6.023h-1.445v-8.453zm8.484 4.156q0-1.976.914-3.144.914-1.168 2.422-1.168 1.547 0 2.414 1.093l.07-.937h1.32v8.25q0 1.64-.972 2.586-.973.945-2.613.945-.914 0-1.79-.39-.874-.391-1.335-1.07l.75-.868q.93 1.148 2.273 1.148 1.055 0 1.645-.593.59-.594.59-1.672v-.727q-.868 1-2.368 1-1.484 0-2.402-1.195-.918-1.195-.918-3.258zm1.453.164q0 1.43.586 2.246.586.817 1.64.817 1.368 0 2.009-1.242v-3.86q-.664-1.21-1.993-1.21-1.054 0-1.648.82-.594.82-.594 2.43zM174.5 237.76h1.445v2.047h1.578v1.117h-1.578v5.242q0 .508.21.762.212.254.72.254.25 0 .687-.094v1.172q-.57.156-1.11.156-.968 0-1.46-.586-.493-.586-.493-1.664v-5.242h-1.539v-1.117h1.54v-2.047zm8.796 2v1.344q-.328-.055-.71-.055-1.423 0-1.93 1.211v6h-1.446v-8.453h1.407l.023.976q.71-1.132 2.016-1.132.421 0 .64.109zm7.75 8.5h-1.515q-.125-.25-.203-.89-1.008 1.046-2.407 1.046-1.25 0-2.05-.707-.801-.707-.801-1.793 0-1.32 1.004-2.05 1.004-.731 2.824-.731h1.406v-.664q0-.758-.453-1.207-.453-.45-1.336-.45-.773 0-1.297.391-.523.39-.523.946h-1.453q0-.633.449-1.223.449-.59 1.219-.934.77-.343 1.69-.343 1.462 0 2.29.73.828.73.86 2.012v3.89q0 1.164.296 1.852v.125zm-3.914-1.102q.68 0 1.29-.351.609-.352.882-.914v-1.735h-1.133q-2.656 0-2.656 1.555 0 .68.453 1.063.453.382 1.164.382zm8.04 1.102h-1.446v-7.336h-1.336v-1.117h1.336v-.867q0-1.36.727-2.102.726-.742 2.054-.742.5 0 .992.133l-.078 1.171q-.367-.07-.781-.07-.703 0-1.086.41-.383.41-.383 1.175v.89h1.805v1.118h-1.806v7.336zm5.554 0h-1.446v-7.336h-1.336v-1.117h1.336v-.867q0-1.36.726-2.102.727-.742 2.055-.742.5 0 .992.133l-.077 1.171q-.367-.07-.781-.07-.703 0-1.086.41-.383.41-.383 1.175v.89h1.805v1.118h-1.805v7.336zm4.969-8.453v8.453h-1.446v-8.453h1.446zm-1.563-2.242q0-.352.215-.594t.637-.242q.422 0 .64.242.22.242.22.594 0 .351-.22.586-.218.234-.64.234-.422 0-.637-.234-.215-.235-.215-.586zm7.266 9.672q.773 0 1.351-.47.578-.468.641-1.171h1.367q-.039.727-.5 1.383-.46.656-1.23 1.047-.77.39-1.63.39-1.726 0-2.745-1.152-1.02-1.152-1.02-3.152v-.243q0-1.234.453-2.195.453-.96 1.301-1.492.848-.531 2.004-.531 1.422 0 2.363.851.942.852 1.004 2.211h-1.367q-.063-.82-.621-1.348-.559-.527-1.379-.527-1.102 0-1.707.793t-.605 2.293v.273q0 1.461.601 2.25.602.79 1.719.79z" fill="#7DA159"></path></g><path d="M500.84 622.996V492.255H371.455V194.5" id="anime-path1" stroke="#F5A623" stroke-width="14.69" stroke-dasharray="12"></path><path d="M244.56 622.996V492.255h129.385V194.5" id="anime-path1-2" stroke="#F5A623" stroke-width="14.69" opacity="0" stroke-dasharray="12"></path><path d="M34 668.2c18.8 0 34 15.2 34 34s-15.2 34-34 34-34-15.2-34-34 15.2-34 34-34zm1.5 45.2l19.6-19.6-6.6-6.6-19.6 19.6-9.3-9.3-6.6 6.6 9.3 9.3 6.6 6.6 6.6-6.6z" id="anime-up" fill="#00C176" fill-rule="nonzero"></path><g id="anime-down" transform="translate(684.000000, 668.200000)" fill-rule="nonzero"><circle fill="#FFF" cx="34" cy="34" r="26"></circle><path d="M49.2 43.1l-6.1 6.1-9.1-9-9.1 9-6.1-6.1 9-9.1-9-9.1 6.1-6.1 9.1 9 9.1-9 6.1 6.1-9 9.1 9 9.1zm8.9-33.2C51.6 3.6 43.1 0 34 0 24.9 0 16.3 3.6 9.9 9.9 3.6 16.4 0 24.9 0 34c0 9.1 3.6 17.7 9.9 24.1 6.5 6.3 15 9.9 24.1 9.9 9.1 0 17.6-3.6 24.1-9.9 6.3-6.5 9.9-15 9.9-24.1 0-9.1-3.6-17.7-9.9-24.1z" fill="#FF003C"></path></g><g id="anime-upload" transform="translate(196.000000, 647.000000)"><path d="M60 0l40 40v66c0 7.7-6.3 14-14 14H14c-7.7 0-14-6.3-14-14V14C0 6.3 6.3 0 14 0h46z" fill="url(#linearGradient-1)" opacity=".8"></path><path d="M0 0h25.3C33 0 40 7 40 14.7V40L0 0z" transform="translate(80.000000, 20.000000) rotate(180.000000) translate(-80.000000, -20.000000) translate(60.000000, -0.000000)" fill="#FFF" fill-opacity="0.4"></path><path d="M62.2 50h-40C21 50 20 51 20 52.2v35.6c0 1.2 1 2.2 2.2 2.2h40c1.3 0 2.2-1 2.2-2.2V52.2c0-1.2-.9-2.2-2.2-2.2zm-4.4 33.3H26.7V72.2l6.6-6.6 11.1 11.1 6.7-6.7 6.7 6.7v6.6zm-4.5-17.7c-2.4 0-4.4-2-4.4-4.5 0-2.4 2-4.4 4.4-4.4 2.5 0 4.5 2 4.5 4.4 0 2.5-2 4.5-4.5 4.5z" fill="#FFF" fill-rule="nonzero"></path></g></g></svg>