<svg xmlns="http://www.w3.org/2000/svg" viewBox="0 0 1200 900"><defs><linearGradient id="Gradient-0" x1=".5" y1="0" x2=".5" y2="1"><stop offset="0" stop-color="#36d2ad"></stop><stop offset="1" stop-color="#2dbc9a"></stop></linearGradient></defs><path fill="#fafafa" stroke="#fdb26f" stroke-width="3" stroke-dasharray="10" d="M320.6 594.8h548.8v279.4H320.6z"></path><g fill="none"><path d="M836.02 528.75v22.6H356.9v-22.6c0-3.164 2.486-5.65 5.65-5.65h467.82c3.164 0 5.65 2.486 5.65 5.65z" fill="#d2d2d2"></path><path fill="#a3a3a3" d="M364.81 529.88h4.52v4.52h-4.52zm6.78 0h4.52v4.52h-4.52zm6.78 0h4.52v4.52h-4.52z"></path></g><g fill="none" fill-rule="evenodd"><g fill-rule="nonzero"><path fill="#9eebcf" d="M472.16 550.27v97.18h-3.39v-97.18z"></path><path stroke="#9eebcf" stroke-width="3" fill="#fff" d="M477.81 549.705a6.5 6.5 0 11-14.69 0 6.5 6.5 0 1114.69 0z"></path><path fill="#9eebcf" d="M470.465 651.97l-6.215-9.04h12.43z"></path></g><path d="M582.9 838.533c0 1.13-.678 2.147-1.582 2.147H358.482c-.904 0-1.582-1.017-1.582-2.147V653.1c0-3.164 2.486-5.65 5.65-5.65h214.7c3.164 0 5.65 2.486 5.65 5.65v185.433z" fill="#ff003c"></path><path d="M362.55 647.45h214.7c3.164 0 5.65 2.486 5.65 5.65v20.34h-226V653.1c0-3.164 2.486-5.65 5.65-5.65z" fill="#ccc"></path><path d="M376.11 661.575c0 2.825-2.26 5.085-5.085 5.085s-5.085-2.26-5.085-5.085 2.26-5.085 5.085-5.085 5.085 2.26 5.085 5.085" fill="#e74c3c"></path><path d="M394.19 661.575c0 2.825-2.26 5.085-5.085 5.085s-5.085-2.26-5.085-5.085 2.26-5.085 5.085-5.085 5.085 2.26 5.085 5.085" fill="#f1c40f"></path><path d="M411.14 661.575c0 2.825-2.26 5.085-5.085 5.085s-5.085-2.26-5.085-5.085 2.26-5.085 5.085-5.085 5.085 2.26 5.085 5.085" fill="#2ecc71"></path></g><g fill="none" fill-rule="evenodd"><g fill-rule="nonzero"><path fill="#9eebcf" d="M725.26 550.27v97.18h-3.39v-97.18z"></path><path stroke="#9eebcf" stroke-width="3" fill="#fff" d="M730.91 549.705a6.5 6.5 0 11-14.69 0 6.5 6.5 0 1114.69 0z"></path><path fill="#9eebcf" d="M723.565 651.97l-6.215-9.04h12.43z"></path></g><path d="M836 838.533c0 1.13-.678 2.147-1.582 2.147H611.582c-.904 0-1.582-1.017-1.582-2.147V653.1c0-3.164 2.486-5.65 5.65-5.65h214.7c3.164 0 5.65 2.486 5.65 5.65v185.433z" fill="#ff003c"></path><path d="M615.65 647.45h214.7c3.164 0 5.65 2.486 5.65 5.65v20.34H610V653.1c0-3.164 2.486-5.65 5.65-5.65z" fill="#ccc"></path><path d="M629.21 661.575c0 2.825-2.26 5.085-5.085 5.085s-5.085-2.26-5.085-5.085 2.26-5.085 5.085-5.085 5.085 2.26 5.085 5.085" fill="#e74c3c"></path><path d="M647.29 661.575c0 2.825-2.26 5.085-5.085 5.085s-5.085-2.26-5.085-5.085 2.26-5.085 5.085-5.085 5.085 2.26 5.085 5.085" fill="#f1c40f"></path><path d="M664.24 661.575c0 2.825-2.26 5.085-5.085 5.085s-5.085-2.26-5.085-5.085 2.26-5.085 5.085-5.085 5.085 2.26 5.085 5.085" fill="#2ecc71"></path></g><g fill="none" fill-rule="evenodd"><path d="M595.47 537.185l-40.68-73.45h81.36zm-11.3-297.755h22.6v224.305h-22.6z" fill="#b8e986"></path><g fill-rule="nonzero"><path d="M449.7 239.43v-79.552c0-1.695 1.469-3.164 3.164-3.164h61.359c1.243-.452.791-.791.565-1.13-3.955-6.441-6.441-13.447-7.458-21.131-2.26-17.402 2.712-32.431 14.577-45.426.678-.791 1.243-1.469 2.034-2.147.565-.565.565-.565 0-1.13-1.808-1.695-3.503-3.616-4.859-5.876-3.164-4.972-4.972-10.396-5.085-16.385 0-1.469.226-1.695 1.582-1.017 1.469.678 2.938 1.356 4.52 1.808.226-2.599-.113-4.746-.113-7.006 0-.791-.113-1.582 0-2.373 0-1.13.339-1.356 1.356-.791a38.624 38.624 0 004.859 2.373c1.017.452 1.017.452.904-.678a35.44 35.44 0 010-8.475c.226-1.13.791-1.356 1.13-1.017.226.226.452.565.678.791 3.503 4.407 7.345 8.249 11.978 11.413 4.068 2.712 8.475 4.181 13.334 4.181 3.729.113 7.232-.678 10.622-2.034 3.164-1.13 6.328-2.486 9.605-3.164 3.277-.678 6.667-1.017 10.057-.226 5.65 1.356 9.492 5.085 11.978 10.283.904 2.034 1.356 4.068 1.695 6.215.113.904.113.904 1.017.791 4.972-.339 9.718.452 14.012 3.051 5.198 3.051 8.136 7.797 9.266 13.56.791 4.294.565 8.588-.113 12.882-.565 3.39-1.469 6.667-2.486 9.831-.339.791-.452.791.565 1.13 4.972 1.695 8.136 5.198 9.04 10.396 1.243 7.232-3.277 13.56-9.944 15.142a10.86 10.86 0 01-3.842.339c-.452-.113-.678.226-.791.678a63.611 63.611 0 01-3.842 10.057c-3.277 6.441-7.571 11.978-12.995 16.724-1.243.904-1.356 1.356-1.13 2.034.678 1.808 1.243 3.616 1.808 5.311 3.616 11.413 7.345 22.713 10.961 34.126.339.791.678 1.13 1.469 1.243 3.616.791 5.876 3.051 6.78 6.554.226.791.339 1.582.452 2.373.904-.565 1.243-1.017 1.808-1.469 1.469-1.243 3.164-1.582 5.085-.904 1.808.678 2.938 2.034 3.277 4.068.113.678.226.791.904.904 3.164.565 5.085 3.616 3.955 6.667-.226.791-.113 1.356.452 2.034 1.356 1.582 2.147 3.616 2.486 5.763.113.904 0 .904 1.017.904h18.645c0-1.921-.565-3.39-.904-4.972-2.147.113-3.616.452-4.972.904-.791.339-1.243.113-1.356-.339-.113-.452.226-.678.904-.904 1.356-.452 2.712-.791 3.955-1.243 1.356-.339 1.13-.113 1.13-1.469 0-.678-.226-.791-.565-.791h-6.554c-1.13-.113-1.356-.339-1.356-.678.904-.678 1.13-.565 1.356-.565h6.441c.565 0 .791-.226.904-.791.226-1.582.226-1.582-1.243-2.034-1.356-.339-2.599-.791-3.842-1.13-1.017-.339-1.13-.678-1.13-1.017 1.017-.452 1.356-.339 1.582-.226 1.582.452 3.051.904 4.633 1.356 2.034-3.164 3.842-5.424 6.215-7.119.452-.339.565-.678.565-1.243v-13.899c.113-.678.565-.904 1.017-.565 4.52 4.181 8.475 7.797 12.317 11.413 1.017 1.017.678 1.017 1.921.113a24.455 24.455 0 0128.25 0c1.017.791.791 1.017 1.921-.113 3.955-3.616 7.91-7.232 11.865-10.961.339-.226.678-.791 1.243-.565.678.226.452.791.452 1.243v20.34c0 1.356 0 1.356 1.243.904 1.017-.226 2.034-.565 3.164-.904 1.582.678 1.469.904 1.017 1.13l-2.599.791-2.26.678c-.678 1.017-.678 1.695-.565 2.373 3.277.226 5.198.226 7.232.226 1.13.113 1.356.339 1.243.678-.791.678-1.13.678-1.356.678h-6.328c-.904 0-.904 0-.904.791 0 1.469-.113 1.13 1.13 1.469 1.13.452 2.486.678 3.729 1.13 1.017.452 1.13.678 1.017 1.13-2.712-.226-3.842-.565-5.198-.904-.678 1.808-.678 3.164-.678 4.52 0 .452.113.678.678.678h19.549c.452 0 1.017 0 1.469.226v.904c-1.13.226-1.469.226-1.808.226H449.7z" fill="#151d38"></path><path d="M502.132 231.52v-.113h50.398c1.13 0 1.13 0 1.13-1.13v-70.173c0-1.13-.678-1.921-1.921-2.034h-98.536c-1.695.113-2.373.791-2.373 2.373v69.947c0 1.13 0 1.13 1.13 1.13h50.172z" fill="#ccd6da"></path><path d="M534.676 156.714h16.498c1.695 0 2.938 1.017 3.277 2.599.113.339.113.678.113 1.13v18.758c0 1.017.113 1.017.904 1.017 6.554.904 13.108.452 19.549-1.243 14.69-3.842 25.764-12.43 33.335-25.538 2.26-3.729 3.842-7.684 4.972-11.865.226-.904.226-.904-.452-1.13-.452-.113-.904-.226-1.243-.339-.791-.339-1.017-.565-.904-1.017.113-.565.565-.565 1.356-.339 2.147.791 4.294 1.017 6.554.565 6.667-1.243 10.961-8.023 9.266-14.69-1.808-6.667-8.814-10.509-15.255-8.249-.339 0-.565.226-.904.226-.339.113-.565-.113-.678-.339-.113-.339 0-.565.226-.791a.863.863 0 01.565-.226c.452-.226.904-.339 1.356-.452.113-.113.226-.113.339-.226.113-.226-.113-.226-.339-.226-.113-.113-.339-.113-.565-.226a41.88 41.88 0 01-9.605-4.633c-5.424-3.616-9.605-8.136-12.317-14.125-1.243-2.825-2.034-5.763-2.599-8.814-.113-.904-.113-.904-.904-.565-.226.226-.452.339-.791.452-3.955 2.373-8.023 4.407-12.43 5.989-9.266 3.503-18.871 4.972-28.702 3.164-6.78-1.243-13.221-3.729-18.758-8.023-.791-.452-.791-.452-1.356.113-4.972 4.859-9.04 10.396-11.865 16.724-4.52 9.944-5.876 20.227-4.181 31.075 1.13 7.232 3.729 14.012 7.571 20.227.452.791 1.017 1.13 1.921 1.13 5.311-.113 10.622-.113 16.046-.113z" fill="#fae0d6"></path><path d="M554.79 206.66v24.521c0 .565.226.791.791.791h17.289c1.017 0 1.13.113 1.13 1.017v4.52c0 .678-.113.791.678.791h17.402c.678 0 .791-.226.791-.678.226-1.695.678-3.277 1.582-4.633.339-.565.339-1.017.113-1.582l-2.712-8.475c-2.26-6.893-4.52-13.899-6.78-20.792 0-.226-.113-.452-.226-.678 0-.452.113-.791.565-.791.339-.113.565 0 .791.339 0 .113 0 .339.113.452 1.582 4.859 3.164 9.831 4.746 14.69 1.469 4.633 2.938 9.266 4.52 13.899.226.791.226.791.791.226 1.695-1.582 3.616-2.599 5.763-3.164.678-.113.791-.113.565-.791-.339-1.469-.791-3.051-1.13-4.52-1.017-4.633 1.808-9.266 6.215-10.396.339-.113.565-.113.904-.226.339 0 .452-.226.339-.565-.113-.226-.113-.339-.226-.452-3.503-11.074-7.119-22.035-10.622-33.109l-2.034-6.102c-.113-.452-.339-.678-.678-.226a1.56 1.56 0 01-.452.339 45.61 45.61 0 01-9.605 5.65c-6.554 3.051-13.56 4.859-20.792 5.085-3.051.113-6.215.113-9.153-.339-.565-.113-.678.113-.678.565v24.634z" fill="#fff3a2"></path><path d="M698.978 238.187h19.775c1.017 0 1.017 0 1.017-.904v-33.448c0-.226.113-.452-.113-.565-.226-.113-.339.226-.565.339-2.373 2.26-4.859 4.52-7.345 6.78-1.469 1.356-2.938 2.825-4.407 4.181-.678.565-.791.565-1.469.113-.226-.226-.339-.339-.565-.452-3.503-2.712-7.458-4.294-11.978-4.633-5.876-.452-11.187 1.13-15.933 4.859-1.017.791-1.017.791-2.034-.113l-.113-.113-10.848-10.17c-.226-.226-.452-.791-.904-.565-.226.113-.113.565-.113.904v11.865c0 .565 0 1.017-.565 1.356-6.554 4.407-8.023 13.108-4.294 19.775.339.678.791.904 1.582.904h14.351c.339 0 .791.113.904-.226.113-.226-.339-.452-.565-.678-2.373-2.599-3.051-5.537-2.034-8.814.904-3.277 3.277-5.311 6.554-5.989.678-.226 1.356-.339 2.034-.226.339 0 .565.226.565.678 0 .339-.226.565-.565.565-.452.113-.791.113-1.13.113-3.164.452-5.876 2.825-6.441 5.876a7.537 7.537 0 003.39 8.023c.678.452 1.356.678 2.26.678 6.667-.113 13.108-.113 19.549-.113z" fill="#c27659"></path><path d="M502.245 232.65c-9.266.113-18.532.113-27.685.113h-23.052c-.452 0-.678.113-.678.565v2.373c0 1.469 0 1.469 1.695 1.469h38.759c20.227 0 40.454-.113 60.681-.113h.791c.678 0 .904-.226.904-.791v-3.051c0-.452-.226-.565-.678-.565h-50.737zm112.435 5.65h19.775c.452 0 .565-.113.565-.565a11.348 11.348 0 00-2.034-5.311c-.226-.226-.339-.226-.452.113-.113.113-.113.339-.226.452-1.469 3.164-5.085 4.068-7.797 1.808-.452-.452-.791-.452-1.356-.226-1.695.678-3.277.452-4.746-.565-1.582-1.13-2.26-2.599-2.147-4.633.113-.678 0-.678-.565-.565-1.356.452-2.712.226-3.955-.452-.226-.226-.565-.226-.904-.226h-6.215c-4.746.113-8.814 3.503-10.057 8.249-.113.452-.226.904-.226 1.469 0 .339.113.452.452.452h19.888z" fill="#ccd6da"></path><path d="M606.77 226.209h2.486c.339 0 .452-.113.339-.452-.904-2.373-1.017-4.972-1.582-7.458-.113-.565.113-.904.452-1.017.452-.113.791.226.904.791l.339 1.695c.226 1.469.452 2.938.791 4.407.452 1.921 2.373 3.164 4.52 2.712 2.034-.339 3.277-2.034 3.051-4.068-.339-1.695-.565-3.39-1.017-4.972-.904-3.729-4.859-6.102-8.814-5.424-3.842.678-6.554 4.407-5.876 8.023.339 1.695.904 3.39 1.243 5.198.113.339.339.565.791.565h2.373zm11.3 3.729c.113 1.356.452 2.373 1.469 3.051 2.147 1.582 5.085.791 5.989-1.695.904-2.373 1.695-4.859 2.486-7.232.113-.339.113-.565.226-.904.113-1.808-.904-3.39-2.712-3.955-1.695-.452-3.616.226-4.407 1.808-.565 1.13-1.017 2.26-1.243 3.503-.113.904-.339 1.808-.791 2.599a7.135 7.135 0 00-1.017 2.825z" fill="#fae0d6"></path><path d="M563.604 237.17h8.475c.452-.113.791-.226.791-.678v-3.39c0-.339-.226-.452-.452-.452h-16.837c-.565 0-.791.226-.791.678v3.051c0 .791 0 .791.904.791h7.91z" fill="#ccd6da"></path><path d="M632.76 228.582c0-2.034-1.356-3.503-3.277-3.729-.904-.226-1.017-.113-1.243.565-.565 1.469-1.017 2.825-1.582 4.181-.452 1.243-.678 2.599-1.695 3.729-.339.339 0 .565.226.791 2.034 1.469 5.085.791 6.215-1.469.452-1.017.791-2.147 1.243-3.277.113-.339.113-.678.113-.791z" fill="#fae0d6"></path><path d="M515.24 195.586c-.339 5.537-3.729 9.605-8.814 10.735-6.441 1.582-12.769-2.938-13.673-9.492-.791-5.65 2.825-11.3 8.588-12.656 1.243-.226 1.356-.226 1.582 1.017.791 4.294 3.616 7.458 7.797 8.475 1.017.226 1.921.226 2.938.113 1.356-.113 1.469 0 1.582 1.356v.452z" fill="#151d38"></path><path d="M504.166 205.53c.678 0 1.582-.113 2.486-.339 4.068-1.13 7.232-5.085 7.458-9.153 0-1.017 0-1.017-.791-1.017-5.537.113-10.283-3.616-11.413-8.927-.339-1.243-.452-.904-1.243-.678-4.633 1.582-7.571 6.441-6.78 11.526.791 4.859 5.085 8.588 10.283 8.588z" fill="#fff"></path><path d="M553.434 115.582h14.916c2.26 0 4.52 0 6.78.113 1.13 0 1.356.452.904 1.356-3.39 6.328-8.249 10.735-15.255 12.317-7.119 1.469-13.334-.452-18.645-5.537-2.147-1.921-3.729-4.294-4.972-6.893-.113-.339-.339-.565-.339-.791-.226-.565 0-.791.565-1.017h.565c4.407 0 8.814.113 13.221.113.791 0 1.469.113 2.26.113v.226z" fill="#151d38"></path><path d="M557.163 116.486h-4.068c-1.695 0-3.277 0-4.972-.113-2.825-.113-5.763-.113-8.588-.113-.678 0-.678 0-.339.565 1.13 2.034 2.599 3.842 4.294 5.424 4.972 4.407 10.848 6.215 17.402 4.859 6.102-1.13 10.622-4.52 13.899-9.492.565-.904.565-1.017-.565-1.017-5.65 0-11.413-.113-17.063-.113z" fill="#fff"></path><path d="M514.11 122.475c0-3.729 2.825-7.345 7.345-7.345 4.068 0 7.345 3.277 7.345 7.345s-3.277 7.345-7.345 7.345-7.345-3.277-7.345-7.345zm87.01 1.13c.113 3.503-2.825 7.345-7.345 7.345-4.068 0-7.345-3.277-7.345-7.345s3.164-7.345 7.345-7.345c4.407-.113 7.571 3.616 7.345 7.345z" fill="#e5384a"></path><path d="M531.625 106.09c2.26 0 3.955 1.695 3.955 3.955S533.885 114 531.738 114c-2.26 0-4.068-1.695-4.068-3.955 0-2.147 1.695-3.955 3.955-3.955zm50.85 1.13c2.26 0 3.955 1.695 3.955 4.068 0 2.147-1.808 3.842-3.955 3.842s-3.955-1.808-3.955-3.955c0-2.26 1.695-3.955 3.955-3.955zm41.245 20.453c0 4.52-4.746 7.797-9.266 6.328-.113-.113-.226-.113-.339-.226-.452-.113-.678-.452-.452-.904.113-.339.452-.452.904-.339.226 0 .452.226.678.226 3.164.791 6.441-1.13 7.006-4.068.678-3.164-1.469-6.102-4.746-6.554-.226 0-.565-.113-.904-.113-.226 0-.452-.339-.452-.565 0-.452.226-.565.565-.678h.791c3.616.452 6.215 3.39 6.215 6.893zm-66.67-21.922c0 .339-.226.452-.565.678-.904.452-1.808.904-2.712 1.469-.339.113-.452.339 0 .565.678.565 1.469 1.13 2.147 1.695.226.113.452.339.565.452.226.226.226.565.113.904-.226.226-.452.226-.791.226a1.56 1.56 0 00-.452-.339c-1.13-.904-2.26-1.695-3.39-2.599-.791-.678-.791-1.13.113-1.695 1.243-.678 2.599-1.356 3.842-2.034.678-.226 1.13 0 1.13.678zm-35.03 2.486c.113-3.277 2.26-5.989 5.311-6.554.339-.113.678-.113 1.017-.113.226.113.452.339.452.565 0 .339-.113.678-.339.791-.339 0-.678.113-.904.113-2.373.565-3.955 2.373-4.181 4.972v.791c-.113.452-.226.678-.678.678-.452 0-.565-.339-.678-.791v-.452zm68.93 0v.791c-.113.339-.339.452-.678.452s-.565-.226-.565-.452v-.678c-.226-2.712-1.921-4.746-4.407-5.311-.226 0-.339 0-.452-.113-.452-.113-.791-.339-.678-.791.113-.565.452-.565.904-.565 1.469.226 2.825.791 3.842 1.808 1.243 1.356 1.921 2.938 2.034 4.859zM691.181 234.91c-1.695-.113-2.938-.565-3.729-1.695-.339-.452-.565-.452-.904 0-1.582 1.921-3.955 2.26-5.763.904-.678-.452-1.243-1.017-1.582-1.808-.113-.339-.226-.904.226-1.13.452-.226.791 0 1.017.452.113.339.339.565.565.904 1.469 1.695 4.068 1.13 4.972-1.017.113-.452.226-.791-.339-.904-.904-.226-1.356-.904-1.921-1.582-.226-.226-.339-.565-.452-.904-.113-.678.113-1.13.791-1.13h5.876c.565 0 .791.452.678 1.13-.339 1.13-1.13 1.695-1.921 2.26-.339.226-.791.226-.904.565 0 .452.226.791.452 1.243 1.243 1.808 3.729 1.808 5.085 0l.339-.678c.226-.339.565-.452.904-.226.339.113.452.452.226.791a4.92 4.92 0 01-1.13 1.808c-.904.678-1.808 1.017-2.486 1.017zm15.029-12.43c1.921 0 3.39 1.469 3.39 3.39s-1.582 3.39-3.503 3.39-3.277-1.582-3.277-3.503 1.469-3.277 3.39-3.277zm-39.55 6.78c-1.921 0-3.39-1.469-3.39-3.39s1.356-3.39 3.277-3.39c2.034 0 3.503 1.469 3.503 3.39s-1.469 3.39-3.39 3.39z" fill="#151d38"></path></g><path d="M627.545 255.003v16.067h-3.31v-16.067h3.31zm2.791 4.127h3.003l.099 1.379q1.28-1.6 3.432-1.6 1.898 0 2.825 1.115.926 1.114.949 3.333v7.713h-3.19v-7.637q0-1.014-.44-1.473-.443-.458-1.47-.458-1.344 0-2.018 1.148v8.42h-3.19v-11.94zm17.69 9.59q.883 0 1.435-.486t.573-1.29h2.991q-.01 1.213-.662 2.222-.652 1.01-1.782 1.567-1.13.557-2.5.557-2.56 0-4.04-1.627-1.477-1.627-1.477-4.497v-.21q0-2.759 1.468-4.403 1.466-1.644 4.027-1.644 2.24 0 3.592 1.275 1.352 1.274 1.374 3.393h-2.99q-.023-.927-.575-1.506t-1.456-.58q-1.114 0-1.683.811-.568.812-.568 2.633v.33q0 1.843.562 2.649.563.806 1.711.806zm6.323-3.587v-.144q0-1.776.684-3.167.684-1.39 1.97-2.151 1.286-.762 2.985-.762 2.416 0 3.944 1.48 1.53 1.477 1.706 4.016l.023.816q0 2.748-1.534 4.41-1.535 1.66-4.117 1.66t-4.121-1.656q-1.54-1.654-1.54-4.502zm3.19.088q0 1.7.64 2.6.64.899 1.831.899 1.16 0 1.81-.889.651-.888.651-2.842 0-1.665-.65-2.582-.652-.915-1.833-.915-1.17 0-1.81.91-.64.91-.64 2.82zm10.086-6.09h2.99l.1 1.334q1.268-1.556 3.431-1.556 2.307 0 3.168 1.821 1.257-1.821 3.586-1.821 1.942 0 2.89 1.131.95 1.131.95 3.405v7.625h-3.2v-7.614q0-1.016-.398-1.485-.397-.469-1.401-.469-1.435 0-1.987 1.369l.012 8.199h-3.19v-7.604q0-1.036-.407-1.5-.41-.464-1.39-.464-1.358 0-1.966 1.126v8.442h-3.188v-11.94zm22.93 0v11.939h-3.2v-11.94h3.2zm-3.388-3.091q0-.718.48-1.181.48-.463 1.308-.463.817 0 1.303.463t.486 1.18q0 .73-.492 1.193-.491.463-1.297.463-.805 0-1.296-.463-.492-.463-.492-1.192zm5.949 3.09h3l.1 1.379q1.28-1.6 3.432-1.6 1.898 0 2.825 1.115.927 1.114.95 3.333v7.713h-3.19v-7.637q0-1.014-.44-1.473-.442-.458-1.47-.458-1.344 0-2.019 1.148v8.42h-3.188v-11.94zm12.26 6.014v-.132q0-2.748 1.307-4.425 1.308-1.678 3.526-1.678 1.964 0 3.057 1.347l.132-1.126h2.892v11.542q0 1.568-.712 2.727-.712 1.158-2.003 1.765-1.291.607-3.024.607-1.313 0-2.56-.525-1.247-.524-1.887-1.351l1.412-1.942q1.192 1.335 2.892 1.335 1.269 0 1.975-.678.706-.679.706-1.926v-.64q-1.104 1.246-2.901 1.246-2.153 0-3.483-1.682-1.329-1.684-1.329-4.464zm3.189.1q0 1.621.65 2.542.652.922 1.788.922 1.458 0 2.086-1.092v-5.021q-.64-1.093-2.063-1.093-1.148 0-1.805.938t-.656 2.803zm-84.122 15.81h3.19v2.936h2.042v2.34h-2.042v5.958q0 .662.254.95.254.286.971.286.53 0 .938-.077v2.416q-.938.287-1.931.287-3.355 0-3.42-3.387v-6.433H622.7v-2.34h1.743v-2.935zm13.761 2.86l-.044 3.066q-.65-.088-1.147-.088-1.81 0-2.373 1.225v7.813h-3.189v-11.94h3.013l.088 1.424q.96-1.645 2.66-1.645.53 0 .993.143zm11.3 12.016h-3.221q-.222-.43-.32-1.07-1.16 1.29-3.013 1.29-1.755 0-2.908-1.014-1.153-1.016-1.153-2.561 0-1.898 1.407-2.913t4.067-1.026h1.467v-.685q0-.827-.425-1.323-.425-.497-1.34-.497-.806 0-1.264.386-.459.387-.459 1.059h-3.188q0-1.037.64-1.92.64-.882 1.81-1.384 1.169-.503 2.625-.503 2.209 0 3.505 1.11 1.296 1.108 1.296 3.117v5.176q.011 1.7.474 2.57v.188zm-5.859-2.218q.707 0 1.302-.314.597-.316.883-.844V290.5h-1.191q-2.396 0-2.55 1.656l-.011.187q0 .597.42.983.418.386 1.147.386zm11.907 2.218h-3.2v-9.6h-1.776v-2.34h1.776v-1.015q0-2.008 1.153-3.118 1.152-1.109 3.228-1.109.662 0 1.622.22l-.033 2.473q-.397-.1-.972-.1-1.798 0-1.798 1.689v.96h2.373v2.34h-2.373v9.6zm8.1 0h-3.2v-9.6h-1.777v-2.34h1.777v-1.015q0-2.008 1.152-3.118 1.153-1.109 3.229-1.109.662 0 1.621.22l-.032 2.473q-.397-.1-.972-.1-1.798 0-1.798 1.689v.96h2.373v2.34h-2.373v9.6zm7.394-11.94v11.94h-3.2v-11.94h3.2zm-3.388-3.09q0-.718.48-1.181.48-.463 1.307-.463.816 0 1.302.463.486.463.486 1.18 0 .73-.491 1.193-.49.463-1.297.463-.805 0-1.297-.463-.49-.463-.49-1.192zm10.98 12.678q.881 0 1.435-.484.55-.486.573-1.29h2.99q-.011 1.213-.661 2.222-.652 1.01-1.783 1.567-1.13.557-2.5.557-2.56 0-4.038-1.627-1.478-1.627-1.478-4.497v-.21q0-2.759 1.466-4.403 1.47-1.644 4.029-1.644 2.24 0 3.592 1.275 1.352 1.274 1.373 3.393h-2.99q-.023-.927-.574-1.506t-1.457-.58q-1.114 0-1.683.811-.568.812-.568 2.633v.33q0 1.843.563 2.649t1.711.806z" fill="#7da159"></path></g><path id="anime-path1" d="M724.84 667.996V537.255H595.455V239.5" stroke-dasharray="12" stroke="#f5a623" stroke-width="14.69" fill="none"></path><path id="anime-path1-2" d="M468.56 667.996V537.255h129.385V239.5" stroke-dasharray="12" opacity="0" stroke="#f5a623" stroke-width="14.69" fill="none"></path><path d="M258 713.2c18.8 0 34 15.2 34 34s-15.2 34-34 34-34-15.2-34-34 15.2-34 34-34zm1.5 45.2l19.6-19.6-6.6-6.6-19.6 19.6-9.3-9.3-6.6 6.6 9.3 9.3 6.6 6.6 6.6-6.6z" fill="#00c176" fill-rule="nonzero" id="anime-up" stroke-dasharray="6"></path><g fill-rule="nonzero" id="anime-down" fill="none" stroke-dasharray="6"><path fill="#fff" d="M968 747.2a26 26 0 11-52 0 26 26 0 1152 0z"></path><path d="M957.2 756.3l-6.1 6.1-9.1-9-9.1 9-6.1-6.1 9-9.1-9-9.1 6.1-6.1 9.1 9 9.1-9 6.1 6.1-9 9.1 9 9.1zm8.9-33.2c-6.5-6.3-15-9.9-24.1-9.9-9.1 0-17.7 3.6-24.1 9.9-6.3 6.5-9.9 15-9.9 24.1 0 9.1 3.6 17.7 9.9 24.1 6.5 6.3 15 9.9 24.1 9.9 9.1 0 17.6-3.6 24.1-9.9 6.3-6.5 9.9-15 9.9-24.1 0-9.1-3.6-17.7-9.9-24.1z" fill="#ff003c"></path></g><g id="anime-upload"><path d="M388.4 137l40 40v66c0 7.7-6.3 14-14 14h-72c-7.7 0-14-6.3-14-14v-92c0-7.7 6.3-14 14-14h46z" fill="url(#Gradient-0)" opacity=".8" fill-rule="evenodd"></path><path fill-opacity="0.4" fill="#fff" fill-rule="evenodd" d="M428.4 177h-25.3c-7.7 0-14.7-7-14.7-14.7V137l40 40z"></path><path d="M390.6 187h-40c-1.2 0-2.2 1-2.2 2.2v35.6c0 1.2 1 2.2 2.2 2.2h40c1.3 0 2.2-1 2.2-2.2v-35.6c0-1.2-.9-2.2-2.2-2.2zm-4.4 33.3h-31.1v-11.1l6.6-6.6 11.1 11.1 6.7-6.7 6.7 6.7v6.6zm-4.5-17.7c-2.4 0-4.4-2-4.4-4.5 0-2.4 2-4.4 4.4-4.4 2.5 0 4.5 2 4.5 4.4 0 2.5-2 4.5-4.5 4.5z" fill="#fff"></path></g><g fill="none" fill-rule="evenodd" mask="url(#Mask-3)"><g mask="url(#Mask-1)"><path d="M430.72 131.2h-204.7c-1.08 0-1.94.88-1.94 1.96v8.66h208.58v-8.66c0-1.08-.86-1.96-1.94-1.96" fill="#c8c8c8" mask="url(#Mask-2)"></path></g><path d="M430.72 265h-204.7c-1.08 0-1.94-.86-1.94-1.96v-110.7c0-1.08.86-1.96 1.94-1.96h204.7c1.06 0 1.94.88 1.94 1.96v110.7c0 1.1-.88 1.96-1.94 1.96" fill="#f2f2f2"></path><path fill="#e6e6e6" d="M224.08 157.6h208.58v-15.78H224.08z" mask="url(#Mask-4)"></path><path d="M238.2 151.76c.16-.14 1.72-1.78 1.72-1.78.08-.08.12-.18.12-.3 0-.1-.04-.2-.12-.3 0 0-1.56-1.62-1.72-1.78-.14-.14-.44-.16-.6 0-.18.18-.18.4 0 .6l1.42 1.48-1.42 1.5c-.18.2-.18.42 0 .58.16.18.46.16.6 0" fill="#c8c8c8" mask="url(#Mask-5)"></path><path d="M231.36 147.6c-.16.16-1.72 1.78-1.72 1.78-.08.1-.12.2-.12.3 0 .12.04.22.12.3 0 0 1.56 1.64 1.72 1.78.16.16.44.18.6 0 .18-.16.18-.38 0-.58l-1.42-1.5 1.42-1.48c.18-.2.18-.42 0-.6-.16-.16-.44-.14-.6 0" fill="#c8c8c8" mask="url(#Mask-6)"></path><path d="M248.42 141.9c2.88 0 2.76-7.4 5.16-7.4h27.44c2.88 0 2.76 7.4 5.16 7.4h-37.76z" fill="#e6e6e6" mask="url(#Mask-7)"></path><path d="M249.74 149.5h-.8v-.06a2.194 2.194 0 00-2.2-1.96c-1.22 0-2.2.98-2.2 2.2 0 1.24.98 2.22 2.2 2.22.5 0 .98-.16 1.36-.46l.12-.1-.54-.58-.1.08c-.24.18-.54.28-.84.28-.78 0-1.42-.64-1.42-1.44 0-.78.64-1.42 1.42-1.42.7 0 1.28.5 1.4 1.18l.02.06h-.9l1.24 1.38 1.24-1.38z" fill="#c8c8c8" mask="url(#Mask-8)"></path><path d="M241.9 136.44c0 1.2.98 2.18 2.2 2.18 1.2 0 2.18-.98 2.18-2.18a2.19 2.19 0 10-4.38 0" fill="#70b34a" mask="url(#Mask-9)"></path><path d="M234.48 136.44c0 1.2.98 2.18 2.18 2.18a2.19 2.19 0 100-4.38c-1.2 0-2.18.98-2.18 2.2" fill="#ddaa54" mask="url(#Mask-10)"></path><path d="M227.02 136.44c0 1.2.98 2.18 2.2 2.18 1.2 0 2.18-.98 2.18-2.18a2.19 2.19 0 10-4.38 0" fill="#d5655d" mask="url(#Mask-11)"></path><path d="M427.6 151.04h-4.58c-.2 0-.38.2-.38.46 0 .24.18.44.38.44h4.58c.22 0 .38-.2.38-.44 0-.26-.16-.46-.38-.46m-4.58-2.7h4.58c.22 0 .38-.2.38-.46 0-.24-.16-.46-.38-.46h-4.58c-.2 0-.38.22-.38.46 0 .26.18.46.38.46m4.58.9h-4.58c-.2 0-.38.2-.38.44 0 .26.18.46.38.46h4.58c.22 0 .38-.2.38-.46 0-.24-.16-.44-.38-.44" fill="#c8c8c8" mask="url(#Mask-12)"></path><path d="M419.96 153.8h-167.4c-.3 0-.54-.24-.54-.54v-7.14c0-.3.24-.54.54-.54h167.4c.3 0 .54.24.54.54v7.14c0 .3-.24.54-.54.54" fill="#fff" mask="url(#Mask-13)"></path></g><script><![CDATA[/*
 KeyshapeJS v1.0.0 (c) 2018 Pixofield Ltd | pixofield.com/keyshapejs/mit-license */
window.KeyshapeJS=function(){function A(a){return"undefined"!==typeof a}function v(a,b){return a&&0==a.indexOf(b)}function H(a){if(!isFinite(a))throw Error("Non-finite value");}function Q(a){if(14>=a)return 16;var b=R[a];b||(b=A(ba[a])?0|(a.toLowerCase().indexOf("color")==a.length-5?48:0):1);return b}function J(a){return 0<=a?Math.pow(a,1/3):-Math.pow(-a,1/3)}function ca(a,b,c,d){if(0==a)return 0==b?b=-d/c:(a=Math.sqrt(c*c-4*b*d),d=(-c+a)/(2*b),0<=d&&1>=d?b=d:(d=(-c-a)/(2*b),b=0<=d&&1>=d?d:0)),b;
var e=c/a-b*b/(a*a)/3;c=b*b*b/(a*a*a)/13.5-b*c/(a*a)/3+d/a;var n=c*c/4+e*e*e/27;b=-b/(3*a);if(0>=n){if(0==e&&0==c)return-J(d/a);a=Math.sqrt(c*c/4-n);d=Math.acos(-c/2/a);c=Math.cos(d/3);d=Math.sqrt(3)*Math.sin(d/3);a=J(a);e=2*a*c+b;if(0<=e&&1>=e)return e;e=-a*(c+d)+b;if(0<=e&&1>=e)return e;e=a*(d-c)+b;if(0<=e&&1>=e)return e}else{a=J(-c/2+Math.sqrt(n));c=J(-c/2-Math.sqrt(n));d=a+c+b;if(0<=d&&1>=d)return d;d=-(a+c)/2+b;if(0<=d&&1>=d)return d}return 0}function da(a,b){if(48==a&&"number"===typeof b)return"#"+
("000000"+b.toString(16)).substr(-6);if(64==a)return b=b.map(function(a){return a+"px"}),b.join(",");if(96==a){a="";for(var c=b.length,d=0;d<c;d+=2)a+=b[d],a+=b[d+1].join(",");return a}if(80==a){if(0==b[0])return"none";a="";c=b.length;for(d=0;d<c;)a+=S[b[d]],1==b[d]?a+="("+b[d+1]+") ":5==b[d]?(a+="("+b[d+1]+"px "+b[d+2]+"px "+b[d+3]+"px rgba("+(b[d+4]>>>24)+","+(b[d+4]>>16&255)+","+(b[d+4]>>8&255)+","+(b[d+4]&255)/255+")) ",d+=3):a=2==b[d]?a+("("+b[d+1]+"px) "):7==b[d]?a+("("+b[d+1]+"deg) "):a+("("+
(0>b[d+1]?0:b[d+1])+") "),d+=2;return a}return 32==a?b+"px":b}function w(a){return 0>=a?0:255<=a?255:a}function ea(a,b,c,d){if(16==a||32==a)return(c-b)*d+b;if(0==a)return.5>d?b:c;if(48==a){if("number"===typeof b&&"number"===typeof c){var e=1-d;return w(e*(b>>16)+d*(c>>16))<<16|w(e*(b>>8&255)+d*(c>>8&255))<<8|w(e*(b&255)+d*(c&255))}return.5>d?b:c}if(64==a){0==b.length&&(b=[0]);0==c.length&&(c=[0]);var n=b.length;b.length!=c.length&&(n=b.length*c.length);var k=[];for(a=0;a<n;++a){var f=b[a%b.length];
var h=(c[a%c.length]-f)*d+f;0>h&&(h=0);k.push(h)}return k}if(96==a){if(b.length!=c.length)return.5>d?b:c;n=b.length;k=[];for(a=0;a<n;a+=2){if(b[a]!==c[a])return.5>d?b:c;k[a]=b[a];k[a+1]=[];for(f=0;f<b[a+1].length;++f)k[a+1].push((c[a+1][f]-b[a+1][f])*d+b[a+1][f])}return k}if(80==a){n=b.length;if(n!=c.length)return.5>d?b:c;k=[];for(a=0;a<n;){if(b[a]!=c[a]||1==b[a])return.5>d?b:c;k[a]=b[a];k[a+1]=(c[a+1]-b[a+1])*d+b[a+1];if(5==b[a]){k[a+2]=(c[a+2]-b[a+2])*d+b[a+2];k[a+3]=(c[a+3]-b[a+3])*d+b[a+3];e=
1-d;var g=b[a+4],q=c[a+4];h=e*(g>>>24)+d*(q>>>24);var m=e*(g>>16&255)+d*(q>>16&255);f=e*(g>>8&255)+d*(q>>8&255);k[a+4]=(w(m)<<16|w(f)<<8|w(e*(g&255)+d*(q&255)))+16777216*(w(h)|0);a+=3}a+=2}return k}return 0}function T(a,b){a:{var c=a+b[2];var d=b[4].length;for(var e=0;e<d;++e)if(c<b[4][e]){c=e;break a}c=d-1}d=b[2];e=b[4][c-1]-d;a=(a-e)/(b[4][c]-d-e);if(b[6]&&b[6].length>c-1)if(d=b[6][c-1],1==d[0])if(0>=a)a=0;else if(1<=a)a=1;else{e=d[1];var n=d[3];a=ca(3*e-3*n+1,-6*e+3*n,3*e,-a);a=3*a*(1-a)*(1-a)*
d[2]+3*a*a*(1-a)*d[4]+a*a*a}else 2==d[0]?(d=d[1],a=Math.ceil(a*d)/d):3==d[0]&&(d=d[1],a=Math.floor(a*d)/d);return ea(b[1]&240,b[5][c-1],b[5][c],a)}function K(){x||(u=(new Date).getTime()+U)}function N(a){if(a||!C){for(var b=!1,c=0;c<t.length;++c)t[c].I(a)&&(b=!0);if(a)for(;0<F.length;)if(a=F.shift(),c=a[0],1==a[1])c.onfinish&&(c.onfinish(),b=!0),c.H();else if(2==a[1]&&c.onloop)c.onloop();return b}}function V(){K();N(!0)&&!x?(C=!0,L(V)):C=!1}function M(){C||(C=!0,L(V))}function W(a,b){var c=[];a.split(b).forEach(function(a){c.push(parseFloat(a))});
return c}function y(a){-1==a.indexOf(",")&&(a=a.replace(" ",","));return W(a,",")}function X(a){a._ks||(a._ks={});if(!a._ks.transform){for(var b=a._ks.transform=[],c=0;14>=c;++c)b[c]=0;b[10]=1;b[11]=1;if(a=a.getAttribute("transform")){a=a.trim().split(") ");for(c=a.length-2;0<=c;--c)if(v(a[c],"translate(")){for(var d=0;d<c;d++)a.shift();break}c=a.shift();v(c,"translate(")&&(c=y(c.substring(10)),b[1]=c[0],b[2]=A(c[1])?c[1]:0,c=a.shift());v(c,"rotate(")&&(c=y(c.substring(7)),b[6]=c[0],c=a.shift());
v(c,"skewX(")&&(c=y(c.substring(6)),b[7]=c[0],c=a.shift());v(c,"skewY(")&&(c=y(c.substring(6)),b[8]=c[0],c=a.shift());v(c,"scale(")&&(c=y(c.substring(6)),b[10]=c[0],b[11]=A(c[1])?c[1]:0,c=a.shift());v(c,"translate(")&&(c=y(c.substring(10)),b[13]=c[0],b[14]=A(c[1])?c[1]:0)}}}function Y(a){this.D=a;this.B=[];this.w=[];this.s=0;this.o=this.a=this.c=null;this.h=this.f=this.g=0;this.b=1;this.i=this.C=this.m=!1}function I(a,b,c){b=a[b];void 0===b&&(b=a[c]);return b}function fa(a){return Array.isArray(a)?
a:v(a,"cubic-bezier(")?(a=a.substring(13,a.length-1).split(","),[1,parseFloat(a[0]),parseFloat(a[1]),parseFloat(a[2]),parseFloat(a[3])]):v(a,"steps(")?(a=a.substring(6,a.length-1).split(","),[a[1]&&"start"==a[1].trim()?2:3,parseFloat(a[0])]):[0]}function ha(a){a=a.trim();return v(a,"#")?(parseInt(a.substring(1),16)<<8)+255:v(a,"rgba(")?(a=a.substring(5,a.length-1),a=a.split(","),(parseInt(a[0],10)<<24)+(parseInt(a[1],10)<<16)+(parseInt(a[2],10)<<8)+255*parseFloat(a[3])<<0):a}function Z(a){!1===a.i&&
(t.push(a),a.i=!0,!1!==a.D.autoplay&&a.play());return this}function O(a){if(!0===a.i){a._cancel();var b=t.indexOf(a);-1<b&&t.splice(b,1);b=F.indexOf(a);-1<b&&F.splice(b,1);a.i=!1}return this}var P=Error("Not in timeline list"),aa="mpath posX posY    rotate skewX skewY  scaleX scaleY  anchorX anchorY".split(" "),ia=" translate translate    rotate skewX skewY  scale scale  translate translate".split(" "),S="none url blur brightness contrast drop-shadow grayscale hue-rotate invert opacity saturate sepia".split(" "),
L=window.requestAnimationFrame||window.webkitRequestAnimationFrame||window.mozRequestAnimationFrame||window.oRequestAnimationFrame||window.msRequestAnimationFrame||null;L||(L=function(a){window.setTimeout(a,16)});var R={d:97,fill:48,fillOpacity:16,filter:80,height:33,opacity:16,offsetDistance:33,stroke:48,strokeDasharray:64,strokeDashoffset:32,strokeOpacity:16,strokeWidth:32,transform:1,width:33},ba=window.getComputedStyle(document.documentElement),C=!1,u=(new Date).getTime(),x,U=0,t=[],F=[];Y.prototype=
{v:function(a){var b=0;if(null!==this.c){var c=this.j();0<this.b&&null!==c&&c>=this.f?this.h?(this.c=u-this.g/this.b,this.h--,b=2):(b=1,a?this.a=c:this.a=this.o?Math.max(this.o,this.f):this.f):0>this.b&&null!==c&&c<=this.g?this.h&&Infinity!=this.f?(this.c=u-this.f/this.b,this.h--,b=2):(this.h=0,b=1,a?this.a=c:this.a=this.o?Math.min(this.o,this.g):this.g):null!==c&&0!=this.b&&(a&&null!==this.a&&(this.c=u-this.a/this.b),this.a=null)}this.o=this.j();return b},I:function(a){a&&(this.m&&(this.m=!1,null===
this.c&&(0!=this.b&&null!==this.a?(this.c=u-this.a/this.b,this.a=null):this.c=u)),null===this.a&&null!==this.c&&(a=this.v(!1),0!=a&&F.push([this,a])));a=this.j();if(null===a)return!1;for(var b=this.B,c=this.w,d=0;d<b.length;++d){for(var e=b[d],n=!1,k=0;k<c[d].length;++k){var f=c[d][k],h=f[0];if(null!==h){var g=f[2];var q=f[4].length,m=f[4][q-1]-g;g=0==m?f[5][q-1]:a<=g?f[5][0]:a>=g+f[3]?0==f[3]%m?f[5][q-1]:T(f[3]%m,f):T((a-g)%m,f);0==h?(e._ks.mpath=f[8],e._ks.transform[h]=g,n=!0):14>=h?(e._ks.transform[h]=
g,n=!0):(g=da(f[1]&240,g),f[1]&1?e.setAttribute(h,g):e.style[h]=g)}}if(n){X(e);n=e._ks.transform;k="";if(f=e._ks.mpath)g=n[0],0>g&&(g=0),100<g&&(g=100),g=g*f[2]/100,h=f[1].getPointAtLength(g),k="translate("+h.x+","+h.y+") ",f[0]&&(.5>g?(g=h,h=f[1].getPointAtLength(.5)):g=f[1].getPointAtLength(g-.5),k+="rotate("+180*Math.atan2(h.y-g.y,h.x-g.x)/Math.PI+") ");for(f=1;f<n.length;++f)h=n[f],h!=(10==f||11==f?1:0)&&(k+=" "+ia[f]+"(",k=2>=f?k+(1==f?h+",0":"0,"+h):13<=f?k+(13==f?h+",0":"0,"+h):10<=f?k+(10==
f?h+",1":"1,"+h):k+h,k+=")");e.setAttribute("transform",k)}}return"running"==this.l()},H:function(){!1!==this.D.autoremove&&"finished"==this.l()&&O(this)},A:function(){if(!this.C){this.C=!0;for(var a=this.B,b=this.w,c=0;c<a.length;++c)for(var d=a[c],e=0;e<b[c].length;++e)14>=b[c][e][0]&&X(d)}},play:function(a){A(a)&&null!==a&&(H(a),0>this.b&&a<this.g&&(a=this.g),0<this.b&&a>this.f&&(a=this.f),this.u(a,!0));if(!this.i)throw P;a=this.j();if(0<this.b&&(null===a||a>=this.f))this.a=this.g;else if(0>this.b&&
(null===a||a<=this.g)){if(Infinity==this.f)throw Error("Cannot seek to Infinity");this.a=this.f}else 0==this.b&&null===a&&(this.a=this.g);if(null===this.a)return this;this.c=null;this.m=!0;this.A();M();return this},pause:function(a){if(!this.i)throw P;A(a)&&H(a);if("paused"!=this.l()){K();var b=this.j();if(null===b)if(0<=this.b)this.a=this.g;else{if(Infinity==this.f)throw Error("Cannot seek to Infinity");this.a=this.f}null!==this.c&&null===this.a&&(this.a=b);this.c=null;this.m=!1;this.v(!1);this.A();
M()}A(a)&&this.u(a,!0);return this},range:function(a,b){if(0==arguments.length)return{"in":this.g,out:this.f};var c=+a,d=this.s;A(b)&&(d=+b);H(c);if(0>c||0>d||c>=d||isNaN(d))throw Error("Invalid range");var e=this.l();this.g=c;this.f=d;"finished"==e&&"running"==this.l()&&this.play();return this},loop:function(a){if(!A(a))return{count:this.h};this.h=!0===a?Infinity:Math.floor(a);if(0>this.h||isNaN(this.h))this.h=0;return this},j:function(){return null!==this.a?this.a:null===this.c?null:(u-this.c)*
this.b},u:function(a,b){b&&K();null!==a&&(this.A(),null!==this.a||null===this.c||0==this.b?(this.a=a,N(!1)):this.c=u-a/this.b,this.i||(this.c=null),this.o=null,this.v(!0),M())},F:function(){return this.j()},time:function(a){if(A(a)){if(!this.i)throw P;H(a);this.u(a,!0);return this}return this.F()},l:function(){var a=this.j();return this.m?"running":null===a?"idle":null===this.c?"paused":0<this.b&&a>=this.f||0>this.b&&a<=this.g?"finished":"running"},state:function(){return this.l()},duration:function(){return this.s},
G:function(a){H(a);K();var b=this.j();this.b=a;null!==b&&this.u(b,!1)},rate:function(a){return A(a)?(this.G(a),this):this.b},_cancel:function(){if(!this.i||"idle"==this.l())return this;this.c=this.a=null;this.m=!1;return this}};return{version:"1.0.0",animate:function(){var a={};if(1==arguments.length%2){a=arguments[arguments.length-1];var b={};for(c in a)b[c]=a[c];a=b}var c=new Y(a);a=arguments;for(var d=b=0;d<a.length-1;d+=2){var e=a[d];var n=e instanceof Element?e:document.getElementById(e.substring(1));
if(!n)throw Error("Invalid target: "+e);e=n;n=a[d+1];e._ks||(e._ks={});for(var k=[],f=0;f<n.length;++f){var h=n[f],g=I(h,"p","property");if("string"!=typeof g||-1!=g.indexOf("-")||""===g||!(0<R[g]||0<=aa.indexOf(g)))throw Error("Invalid property: "+g);var q=aa.indexOf(g);""!==g&&0<=q&&(g=q);q=Q(g);var m=I(h,"t","times");if(!m||2>m.length)throw Error("Not enough times");m=m.slice();if(!isFinite(m[0])||0>m[0])throw Error("Invalid time: "+m[0]);for(var B=1;B<m.length;++B)if(!isFinite(m[B])||0>m[B]||
m[B]<m[B-1])throw Error("Invalid time: "+m[B]);B=m[0];var u=m[m.length-1]-B,x=h.iterations||0;1>x&&(x=1);u*=x;b<u+B&&(b=u+B);var t=I(h,"v","values");if(!t||t.length!=m.length)throw Error("Values do not match times");t=t.slice();for(var D=g,l=t,w=Q(D)&240,p=0;p<l.length;++p)if(96==w){for(var y=l[p].substring(6,l[p].length-2).match(/[A-DF-Za-df-z][-+0-9eE., ]*/ig),C=[],r=0;r<y.length;++r){C.push(y[r][0]);for(var z=1<y[r].trim().length?y[r].substring(1).split(","):[],G=0;G<z.length;++G)z[G]=parseFloat(z[G]);
C.push(z)}l[p]=C}else if(48==w)v(l[p],"#")?l[p]=parseInt(l[p].substring(1),16):v(l[p],"url(")||"none"==l[p]||(console.warn("unsupported color: "+l[p]),l[p]=0);else if(80==w){y=l;C=p;r=l[p];if("none"==r)r=[0];else{z=[];for(var E=r.indexOf("(");0<E;)if(G=S.indexOf(r.substring(0,E)),0<=G){z.push(G);var F=r.indexOf(") ");0>F&&(F=r.length-1);E=r.substring(E+1,F).split(" ");5==G?(z.push(parseFloat(E[0])),z.push(parseFloat(E[1])),z.push(parseFloat(E[2])),z.push(ha(E[3]))):1==G?z.push(E[0]):z.push(parseFloat(E[0]));
r=r.substring(F+1).trim();E=r.indexOf("(")}else break;r=z}y[C]=r}else 64==w?"none"!=l[p]?/^[0-9 .]*$/.test(l[p])?l[p]=W(l[p]," "):(console.warn("unsupported value: "+l[p]),l[p]=[0]):l[p]=[0]:32==w?(H(l[p]),l[p]=parseFloat(l[p])):0===D&&(l[p]=parseFloat(l[p]));D=I(h,"e","easing");l=m.length;for(D||(D=[]);D.length<l;)D.push([1,0,0,.58,1]);for(l=0;l<D.length;++l)D[l]=fa(D[l]);q=[g,q,B,u,m,t,D,x];m=I(h,"mp","motionPath");A(m)&&0===g&&(q[8]=[],q[8][0]=h.motionRotate,h=document.createElementNS("http://www.w3.org/2000/svg",
"path"),m||(m="M0,0"),h.setAttribute("d",m),q[8][1]=h,q[8][2]=h.getTotalLength());k.push(q)}0<k.length&&(c.B.push(e),c.w.push(k))}c.s=b;c.g=0;c.f=c.s;Z(c);return c},add:Z,remove:O,removeAll:function(){for(var a=t.length-1;0<=a;--a)O(t[a]);return this},timelines:function(){return t.slice()},globalPlay:function(){x&&(U=x-(new Date).getTime(),x=void 0,M());return this},globalPause:function(){x||(x=u,N(!1));return this},globalState:function(){return x?"paused":"running"}}}();
]]></script><script><![CDATA[if(KeyshapeJS.version.indexOf('1.')!=0)throw Error('Expected KeyshapeJS v1.*.*');window.ks=document.ks=KeyshapeJS;(function(ks){
ks.animate("#anime-path1",[{p:'opacity',t:[0,6900,7200],v:[0,0,1],e:[[1,.4,0,.6,1],[1,.4,0,.6,1],[0]]},{p:'strokeDashoffset',t:[6900,9600],v:[0,404],e:[[0],[0]]}],
"#anime-path1-2",[{p:'opacity',t:[3800,4100,6200,6500],v:[0,1,1,0],e:[[1,.4,0,.6,1],[1,.4,0,.6,1],[1,.4,0,.6,1],[0]]},{p:'strokeDashoffset',t:[3800,6500],v:[0,404],e:[[0],[0]]}],
"#anime-up",[{p:'opacity',t:[4600,4800,6200,6500],v:[0,1,1,0],e:[[0],[0],[0],[0]]}],
"#anime-down",[{p:'opacity',t:[7800,8100],v:[0,1],e:[[0],[0]]}],
"#anime-upload",[{p:'mpath',t:[800,2900],v:['0%','100%'],e:[[1,.4,0,.6,1],[0]],mp:"M378.4,197C422.8,325.4,677.5,234.9,415.9,778.5"},{p:'scaleX',t:[0,2100,2900],v:[1,1,.5],e:[[0],[0],[0]]},{p:'scaleY',t:[0,2100,2900],v:[1,1,.5],e:[[0],[0],[0]]}],
{autoremove:false}).range(0,9700);
if(document.location.search.substr(1).split('&').indexOf('global=paused')>=0)ks.globalPause()})(KeyshapeJS);
]]></script></svg>