<svg viewBox="0 0 800 774" xmlns="http://www.w3.org/2000/svg"><style>.sans-serif{font-family:-apple-system,BlinkMacSystemFont,'avenir next', avenir,'helvetica neue',helvetica,ubuntu,roboto,noto,'segoe ui',arial,sans-serif}</style><g fill="none" fill-rule="evenodd"><g transform="translate(237.000000, 267.000000)"><path d="M326 427.28v35.382c0 1.954-1.697 3.538-3.79 3.538H3.79c-2.093 0-3.79-1.584-3.79-3.538v-35.383c0-1.954 1.697-3.538 3.79-3.538h318.42c2.093 0 3.79 1.584 3.79 3.538z" fill="#7C7C7C"></path><g transform="translate(9.855814, 433.383006)"><path fill="#D8D8D8" d="M36.391 0h215.311v5.038H36.391z"></path><path fill="#D7D7D7" d="M9.072 0h5.04v5.04h-5.04zM0 0h5.04v5.04H0z"></path><path fill="#00CD00" d="M290.304 0h5.04v5.04h-5.04z"></path><path fill="#D7D400" d="M281.232 0h5.04v5.04h-5.04z"></path><path fill="#FF3C00" d="M272.16 0h5.04v5.04h-5.04z"></path><path fill="#00CD00" d="M299.376 0h5.04v5.04h-5.04z"></path></g><g transform="translate(9.855814, 442.199222)"><path fill="#D8D8D8" d="M36.391 0h215.311v5.038H36.391z"></path><path fill="#D7D7D7" d="M9.072 0h5.04v5.04h-5.04zM0 0h5.04v5.04H0z"></path><path fill="#00CD00" d="M290.304 0h5.04v5.04h-5.04z"></path><path fill="#D7D400" d="M281.232 0h5.04v5.04h-5.04z"></path><path fill="#FF3C00" d="M272.16 0h5.04v5.04h-5.04z"></path><path fill="#00CD00" d="M299.376 0h5.04v5.04h-5.04z"></path></g><g transform="translate(9.855814, 451.015439)"><path fill="#D8D8D8" d="M36.391 0h215.311v5.038H36.391z"></path><path fill="#D7D7D7" d="M9.072 0h5.04v5.04h-5.04zM0 0h5.04v5.04H0z"></path><path fill="#00CD00" d="M290.304 0h5.04v5.04h-5.04z"></path><path fill="#D7D400" d="M281.232 0h5.04v5.04h-5.04z"></path><path fill="#FF3C00" d="M272.16 0h5.04v5.04h-5.04z"></path><path fill="#00CD00" d="M299.376 0h5.04v5.04h-5.04z"></path></g><path d="M326 3.78v411.264a3.785 3.785 0 01-3.79 3.78H3.79a3.785 3.785 0 01-3.79-3.78V3.78A3.785 3.785 0 013.79 0h318.42A3.785 3.785 0 01326 3.78z" fill="#7C7C7C"></path><path fill="#D7D7D7" d="M11.088 403.704h303.66v5.04H11.088zM9.828 27.216h304.92v5.04H9.828zm0-9.072h304.92v5.04H9.828zm0-9.072h304.92v5.04H9.828z"></path><path d="M11.372 42.318h303.256c.837 0 1.516.676 1.516 1.511V391.44c0 .835-.679 1.511-1.516 1.511H11.372a1.514 1.514 0 01-1.516-1.511V43.83c0-.836.679-1.512 1.516-1.512z" fill="#FFF"></path></g><path fill="#D8D8D8" d="M509 542h39v39h-39zm-89-113h39v39h-39zm-169-38h39v39h-39z"></path><path fill="#FA2A00" d="M251 505h150v151H251z"></path><path fill="#F5A623" d="M401 468h58v188h-58zM376 40h58v188h-58z"></path><path d="M396.552 246.737h2.636q-.149 2.066-1.524 3.252-1.376 1.187-3.626 1.187-2.46 0-3.871-1.657t-1.411-4.548v-.783q0-1.845.65-3.251.65-1.407 1.86-2.158 1.208-.752 2.807-.752 2.215 0 3.569 1.187 1.353 1.186 1.564 3.33h-2.637q-.096-1.238-.69-1.796-.593-.559-1.806-.559-1.318 0-1.973.945t-.672 2.931v.967q0 2.074.628 3.032.629.958 1.982.958 1.222 0 1.824-.558.602-.558.69-1.727zm9.316-.246h-2.311V251h-2.637v-12.797h4.992q1.442 0 2.536.527 1.094.528 1.683 1.499.589.971.589 2.21 0 1.881-1.288 2.967-1.287 1.085-3.564 1.085zm-2.311-6.152v4.016h2.355q1.046 0 1.595-.492.55-.492.55-1.406 0-.94-.554-1.52-.554-.58-1.53-.598h-2.416zm16.013-2.136h2.646v8.429q0 2.1-1.314 3.322t-3.59 1.222q-2.242 0-3.56-1.187-1.318-1.186-1.345-3.26v-8.526h2.637v8.446q0 1.257.602 1.833.602.576 1.666.576 2.223 0 2.258-2.338v-8.517zm-67.367-71.346v-3.445l9.281-3.287-9.28-3.27v-3.462H365v2.645h-3.498l-6.038-.264L365 159.23v1.81l-9.527 3.445 6.029-.263H365v2.636h-12.797zm12.973-19.977q0 2.092-1.283 3.406-1.284 1.314-3.42 1.314h-.245q-1.433 0-2.562-.554-1.13-.554-1.74-1.569-.612-1.015-.612-2.316 0-1.951 1.23-3.072 1.231-1.12 3.49-1.12h1.037v6.055q.932-.123 1.494-.742.563-.62.563-1.57 0-1.467-1.064-2.293l1.398-1.248q.809.571 1.261 1.547.453.975.453 2.162zm-7.805.29q0 .756.51 1.226t1.459.602v-3.533h-.202q-.844.017-1.305.457-.462.44-.462 1.248zm-1.88-5.643v-2.381l1.063-.08q-1.24-1.01-1.24-2.733 0-1.837 1.45-2.522-1.45-1.002-1.45-2.857 0-1.547.901-2.303.901-.755 2.712-.755H365v2.548h-6.064q-.809 0-1.183.317-.373.316-.373 1.116 0 1.143 1.09 1.582l6.53-.009v2.54h-6.056q-.826 0-1.195.325-.37.326-.37 1.108 0 1.08.897 1.564H365v2.54h-9.51zm4.78-15.187h-.114q-1.415 0-2.522-.545-1.108-.545-1.714-1.569-.607-1.024-.607-2.377 0-1.925 1.178-3.142 1.178-1.218 3.2-1.358l.65-.018q2.188 0 3.511 1.222 1.323 1.221 1.323 3.278t-1.319 3.283q-1.318 1.226-3.586 1.226zm.07-2.54q1.354 0 2.07-.51.717-.51.717-1.459 0-.923-.708-1.441-.707-.519-2.263-.519-1.327 0-2.056.519-.73.518-.73 1.459 0 .931.725 1.441t2.246.51zm-4.912-13.412l2.443.035q-.07.518-.07.914 0 1.441.975 1.89H365v2.54h-9.51v-2.4l1.134-.07q-1.31-.765-1.31-2.118 0-.422.115-.791zm.061-3.13l5.915-1.766-5.915-1.758v-2.724l10.987 3.823.5.21q1.864.853 1.864 2.813 0 .554-.167 1.125h-1.925l.009-.386q0-.721-.22-1.077t-.73-.558l-.782-.299-9.536 3.331v-2.733z" fill="#4A4A4A"></path><path fill="#86B8B1" d="M459 581h76v76h-76zM251 429h76v76h-76z"></path><path fill="#3D1C00" d="M459 417h50v164h-50z"></path></g></svg>