<svg xmlns="http://www.w3.org/2000/svg" viewBox="0 0 1000 730"><path id="anime-block-13" d="M251 454h150v151H251z" fill="#fa2a00" fill-rule="evenodd" transform="translate(-75.9,-76.4)"></path><path id="anime-block-15" d="M327 266h58v188h-58z" fill="#f5a623" fill-rule="evenodd" opacity="0" transform="translate(-151.9,74.6)"></path><path id="anime-block-17" d="M251 378h76v76h-76z" fill="#86b8b1" fill-rule="evenodd" opacity="0" transform="translate(-75.9,74.6)"></path><path id="anime-block-18" d="M459 366h50v164h-50z" fill="#3d1c00" fill-rule="evenodd" opacity="0" transform="translate(-283.9,-1.4)"></path><path id="anime-block-12" fill="#d8d8d8" fill-rule="evenodd" opacity="0" transform="translate(-75.9,149.6) translate(251,340)" d="M0 0h39v39H0z"></path><g fill="none" fill-rule="evenodd" transform="translate(563.8,200.5)"><path d="M326 427.3v35.4c0 1.9-1.7 3.5-3.8 3.5H3.8c-2.1 0-3.8-1.6-3.8-3.5v-35.4c0-2 1.7-3.6 3.8-3.6h318.4c2.1 0 3.8 1.6 3.8 3.6z" fill="#7c7c7c"></path><g transform="translate(9.9,433.4)"><path fill="#d8d8d8" d="M36.4 0h215.3v5H36.4z"></path><path fill="#d7d7d7" d="M9.1 0h5v5h-5zM0 0h5v5H0z"></path><path fill="#00cd00" d="M290.3 0h5v5h-5z"></path><path fill="#d7d400" d="M281.2 0h5.1v5h-5.1z"></path><path fill="#ff3c00" d="M272.2 0h5v5h-5z"></path><path fill="#00cd00" d="M299.4 0h5v5h-5z"></path></g><g transform="translate(9.9,442.2)"><path fill="#d8d8d8" d="M36.4 0h215.3v5H36.4z"></path><path fill="#d7d7d7" d="M9.1 0h5v5h-5zM0 0h5v5H0z"></path><path fill="#00cd00" d="M290.3 0h5v5h-5z"></path><path fill="#d7d400" d="M281.2 0h5.1v5h-5.1z"></path><path fill="#ff3c00" d="M272.2 0h5v5h-5z"></path><path fill="#00cd00" d="M299.4 0h5v5h-5z"></path></g><g transform="translate(9.9,451)"><path fill="#d8d8d8" d="M36.4 0h215.3v5H36.4z"></path><path fill="#d7d7d7" d="M9.1 0h5v5h-5zM0 0h5v5H0z"></path><path fill="#00cd00" d="M290.3 0h5v5h-5z"></path><path fill="#d7d400" d="M281.2 0h5.1v5h-5.1z"></path><path fill="#ff3c00" d="M272.2 0h5v5h-5z"></path><path fill="#00cd00" d="M299.4 0h5v5h-5z"></path></g><path d="M326 3.8V415c0 2.1-1.7 3.8-3.8 3.8H3.8c-2.1 0-3.8-1.7-3.8-3.8V3.8C0 1.7 1.7 0 3.8 0h318.4c2.1 0 3.8 1.7 3.8 3.8z" fill="#7c7c7c"></path><path fill="#d7d7d7" d="M11.1 403.7h303.6v5H11.1zM9.8 27.2h304.9v5.1H9.8zm0-9.1h304.9v5.1H9.8zm0-9h304.9v5H9.8z"></path><path d="M11.4 42.3h303.2c.9 0 1.5.7 1.5 1.5v347.6c0 .9-.6 1.6-1.5 1.6H11.4c-.9 0-1.5-.7-1.5-1.6V43.8c0-.8.6-1.5 1.5-1.5z" fill="#fff"></path></g><path id="anime-block-5" fill="#d8d8d8" fill-rule="evenodd" opacity="0" transform="translate(198.3,-416.5) translate(0,0) translate(509,491)" d="M0 0h39v39H0z"></path><path id="anime-block-9" fill="#d8d8d8" fill-rule="evenodd" opacity="0" transform="translate(322.3,-303.5) translate(0,0) translate(385,378)" d="M0 0h39v39H0z"></path><path id="anime-block-8" fill="#d8d8d8" fill-rule="evenodd" opacity="0" transform="translate(456.3,-265.5) translate(0,0) translate(251,340)" d="M0 0h39v39H0z"></path><path id="anime-block-1" d="M251 454h150v151H251z" fill="#fa2a00" fill-rule="evenodd" opacity="0" transform="translate(400.8,-435.5) translate(0,0) translate(0,0)"></path><path id="anime-block-2" d="M401 417h58v188h-58z" fill="#f5a623" fill-rule="evenodd" opacity="0" transform="translate(296.8,-417) translate(0,0) translate(0,0)"></path><path id="anime-block-7" d="M327 266h58v188h-58z" fill="#f5a623" fill-rule="evenodd" opacity="0" transform="translate(370.8,-266) translate(0,0) translate(0,0)"></path><path id="anime-block-3" d="M459 530h76v76h-76z" fill="#86b8b1" fill-rule="evenodd" opacity="0" transform="translate(229.8,-474) translate(0,0) translate(0,0)"></path><path id="anime-block-6" d="M251 378h76v76h-76z" fill="#86b8b1" fill-rule="evenodd" opacity="0" transform="translate(437.8,-322) translate(0,0) translate(0,0)"></path><path id="anime-block-4" d="M459 366h50v164h-50z" fill="#3d1c00" fill-rule="evenodd" opacity="0" transform="translate(242.8,-354) translate(0,0) translate(0,0)"></path><g transform="translate(264.5,418.1) scale(.5,.5) translate(-357.5,-256.6)"><g stroke-linejoin="round" fill="none" fill-rule="evenodd" transform="translate(137,139.8)"><path d="M0 1h578M0 113h578M0 226h578" stroke="#778f9b" stroke-dasharray="1 6"></path><path d="M0 339h578" stroke="#000a12" stroke-width="2" stroke-linecap="round"></path></g><path d="M642.905 497.37v11.43h-1.453v-9.633l-2.914 1.07v-1.312l4.14-1.555h.227zm9.729.047h.258v1.227h-.266q-1.688.031-2.688 1-1 .969-1.156 2.726.899-1.03 2.453-1.03 1.485 0 2.371 1.046.887 1.047.887 2.703 0 1.758-.957 2.813-.957 1.054-2.566 1.054-1.633 0-2.649-1.254-1.015-1.254-1.015-3.23v-.555q0-3.14 1.34-4.8 1.34-1.66 3.988-1.7zm-1.64 5.125q-.743 0-1.368.446-.625.445-.867 1.117v.53q0 1.407.633 2.267.632.859 1.578.859.976 0 1.535-.719.558-.719.558-1.883 0-1.171-.566-1.894-.566-.723-1.504-.723zm14.063.594v4.172q-.578.828-1.613 1.238-1.035.41-2.41.41-1.39 0-2.469-.652-1.078-.652-1.668-1.856-.59-1.203-.605-2.789v-.992q0-2.57 1.2-3.984 1.198-1.414 3.37-1.414 1.781 0 2.867.91t1.328 2.582h-1.5q-.421-2.258-2.687-2.258-1.508 0-2.285 1.059-.778 1.058-.785 3.066v.93q0 1.914.875 3.043.875 1.129 2.367 1.129.844 0 1.476-.188.633-.187 1.047-.633v-2.554h-2.633v-1.22h4.125zm3.924-2.79v8.454h-1.445v-8.453h1.445zm-1.562-2.241q0-.352.215-.594.214-.242.636-.242.422 0 .64.242.22.242.22.594 0 .351-.22.586-.218.234-.64.234-.422 0-.636-.234-.215-.235-.215-.586zm8.127 10.695H671.6v-11.375h3.72q1.85 0 2.784.766.934.765.934 2.265 0 .797-.453 1.41-.453.614-1.235.95.922.257 1.457.98t.535 1.723q0 1.531-.992 2.406-.992.875-2.804.875zm.054-5.32h-2.5v4.093h2.477q1.047 0 1.652-.543.606-.542.606-1.496 0-2.054-2.235-2.054zm-2.5-4.82v3.617h2.266q.984 0 1.574-.493.59-.492.59-1.336 0-.937-.547-1.363-.547-.426-1.664-.426H673.1zm-141.002 1.734q0 .851-.45 1.515-.449.664-1.214 1.04.89.382 1.41 1.117.52.734.52 1.664 0 1.476-.997 2.351-.996.875-2.62.875-1.641 0-2.63-.879-.988-.879-.988-2.347 0-.922.504-1.664.504-.743 1.394-1.125-.757-.375-1.195-1.04-.437-.663-.437-1.507 0-1.438.922-2.281.921-.844 2.43-.844 1.5 0 2.425.844.926.843.926 2.28zm-1.18 5.304q0-.953-.605-1.554-.606-.602-1.582-.602-.977 0-1.567.594t-.59 1.562q0 .97.575 1.524.574.555 1.597.555 1.016 0 1.594-.559.578-.559.578-1.52zm-2.172-7.242q-.851 0-1.379.528-.527.527-.527 1.433 0 .867.52 1.403.519.535 1.386.535.867 0 1.387-.535.52-.536.52-1.403t-.54-1.414q-.539-.547-1.367-.547zm14.291 4.68v4.172q-.578.828-1.613 1.238-1.035.41-2.41.41-1.39 0-2.47-.652-1.077-.652-1.667-1.856-.59-1.203-.606-2.789v-.992q0-2.57 1.2-3.984 1.199-1.414 3.37-1.414 1.782 0 2.868.91 1.086.91 1.328 2.582h-1.5q-.422-2.258-2.687-2.258-1.508 0-2.286 1.059-.777 1.058-.785 3.066v.93q0 1.914.875 3.043.875 1.129 2.367 1.129.844 0 1.477-.188.633-.187 1.047-.633v-2.554h-2.633v-1.22h4.125zm3.924-2.79v8.454h-1.445v-8.453h1.445zm-1.563-2.241q0-.352.215-.594t.637-.242q.422 0 .64.242.22.242.22.594 0 .351-.22.586-.218.234-.64.234-.422 0-.637-.234-.215-.235-.215-.586zm8.127 10.695h-3.945v-11.375h3.719q1.851 0 2.785.766.933.765.933 2.265 0 .797-.453 1.41-.453.614-1.234.95.922.257 1.457.98t.535 1.723q0 1.531-.992 2.406-.992.875-2.805.875zm.055-5.32h-2.5v4.093h2.476q1.047 0 1.653-.543.605-.542.605-1.496 0-2.054-2.234-2.054zm-2.5-4.82v3.617h2.266q.984 0 1.574-.493.59-.492.59-1.336 0-.937-.547-1.363-.547-.426-1.664-.426h-2.22zm-137.78-1.235v7.555h1.579v1.18h-1.578v2.64h-1.453v-2.64h-5.18v-.852l5.094-7.883h1.539zm-1.624 2.29l-3.367 5.265h3.539v-5.578l-.172.312zm13.361 3.42v4.173q-.578.828-1.613 1.238-1.035.41-2.41.41-1.39 0-2.47-.652-1.077-.652-1.667-1.856-.59-1.203-.606-2.789v-.992q0-2.57 1.2-3.984 1.199-1.414 3.37-1.414 1.782 0 2.868.91 1.086.91 1.328 2.582h-1.5q-.422-2.258-2.687-2.258-1.508 0-2.286 1.059-.777 1.058-.785 3.066v.93q0 1.914.875 3.043.875 1.129 2.368 1.129.843 0 1.476-.188.633-.187 1.047-.633v-2.554h-2.633v-1.22h4.125zm3.924-2.788v8.453h-1.445v-8.453h1.445zm-1.563-2.242q0-.352.215-.594t.637-.242q.422 0 .64.242.22.242.22.594 0 .351-.22.586-.218.234-.64.234-.422 0-.637-.234-.215-.235-.215-.586zm8.127 10.695h-3.945v-11.375h3.719q1.851 0 2.785.766.933.765.933 2.265 0 .797-.453 1.41-.453.614-1.234.95.922.257 1.457.98t.535 1.723q0 1.531-.992 2.406-.992.875-2.805.875zm.055-5.32h-2.5v4.093h2.477q1.046 0 1.652-.543.605-.542.605-1.496 0-2.054-2.234-2.054zm-2.5-4.82v3.617h2.266q.984 0 1.574-.493.59-.492.59-1.336 0-.937-.547-1.363-.547-.426-1.664-.426h-2.22zm-136.428 8.96v1.18H289.2v-1.04l3.938-4.374q.875-.992 1.207-1.613.332-.621.332-1.286 0-.89-.54-1.46-.538-.57-1.437-.57-1.078 0-1.675.613-.598.613-.598 1.707h-1.445q0-1.57 1.011-2.54 1.012-.968 2.707-.968 1.586 0 2.508.832.922.832.922 2.215 0 1.68-2.14 4l-3.047 3.304h5.71zm10.385-4.484v4.172q-.578.828-1.613 1.238-1.035.41-2.41.41-1.39 0-2.47-.652-1.077-.652-1.667-1.856-.59-1.203-.606-2.789v-.992q0-2.57 1.2-3.984 1.199-1.414 3.37-1.414 1.782 0 2.868.91 1.086.91 1.328 2.582h-1.5q-.422-2.258-2.687-2.258-1.508 0-2.286 1.059-.777 1.058-.785 3.066v.93q0 1.914.875 3.043.875 1.129 2.368 1.129.843 0 1.476-.188.633-.187 1.047-.633v-2.554h-2.633v-1.22h4.125zm3.924-2.79v8.454h-1.445v-8.453h1.445zm-1.563-2.241q0-.352.215-.594t.637-.242q.422 0 .64.242.22.242.22.594 0 .351-.22.586-.218.234-.64.234-.422 0-.637-.234-.215-.235-.215-.586zm8.127 10.695h-3.945v-11.375h3.719q1.851 0 2.785.766.933.765.933 2.265 0 .797-.453 1.41-.453.614-1.234.95.922.257 1.457.98t.535 1.723q0 1.531-.992 2.406-.992.875-2.805.875zm.055-5.32h-2.5v4.093h2.477q1.046 0 1.652-.543.605-.542.605-1.496 0-2.054-2.234-2.054zm-2.5-4.82v3.617h2.266q.984 0 1.574-.493.59-.492.59-1.336 0-.937-.547-1.363-.547-.426-1.664-.426h-2.22zm-134.05 3.413v1.875q0 2.54-.867 3.774t-2.711 1.234q-1.82 0-2.695-1.207-.875-1.207-.907-3.605v-1.93q0-2.508.868-3.726.867-1.22 2.718-1.22 1.836 0 2.703 1.177.868 1.175.891 3.628zm-1.445 2.266v-2.367q0-1.836-.516-2.676-.515-.84-1.633-.84-1.109 0-1.617.836t-.523 2.57v2.313q0 1.844.535 2.723.535.879 1.621.879 1.07 0 1.59-.829.52-.828.543-2.609zM73.983 135.394q0 .851-.45 1.515-.449.664-1.214 1.04.89.382 1.41 1.117.52.734.52 1.664 0 1.476-.997 2.351-.996.875-2.62.875-1.641 0-2.63-.879-.988-.879-.988-2.347 0-.922.504-1.664.504-.743 1.394-1.125-.757-.375-1.195-1.04-.437-.663-.437-1.507 0-1.438.921-2.281.922-.844 2.43-.844 1.5 0 2.426.844.926.843.926 2.28zm-1.18 5.304q0-.953-.605-1.554-.606-.602-1.582-.602-.977 0-1.567.594t-.59 1.562q0 .97.575 1.524.574.555 1.597.555 1.016 0 1.594-.559.578-.559.578-1.52zm-2.172-7.242q-.851 0-1.379.528-.527.527-.527 1.433 0 .867.52 1.403.519.535 1.386.535.867 0 1.387-.535.52-.536.52-1.403t-.54-1.414q-.539-.547-1.367-.547zm10.348 1.89l2.148 6.493 2.094-6.492h1.476l-3.03 8.453h-1.102l-3.063-8.453h1.477zm14.275 4.845h1.508q-.211 1.804-1.332 2.785-1.121.98-2.98.98-2.016 0-3.231-1.445-1.215-1.445-1.215-3.867v-1.094q0-1.586.566-2.79.567-1.202 1.606-1.847 1.039-.644 2.406-.644 1.813 0 2.906 1.011 1.094 1.012 1.274 2.801h-1.508q-.195-1.36-.848-1.968-.652-.61-1.824-.61-1.437 0-2.254 1.063-.816 1.062-.816 3.023v1.102q0 1.851.773 2.945.774 1.094 2.164 1.094 1.25 0 1.918-.567.668-.566.887-1.972zm7.814-.844h-2.68v4.453h-1.5v-11.375h4.196q1.867 0 2.926.953 1.058.953 1.058 2.524 0 1.656-1.035 2.55-1.035.895-2.965.895zm-2.68-5.688v4.461h2.696q1.203 0 1.844-.566.64-.566.64-1.637 0-1.015-.64-1.625-.64-.61-1.758-.633h-2.781zm15.174-1.234h1.508v7.734q-.008 1.61-1.011 2.633-1.004 1.024-2.723 1.149l-.399.015q-1.867 0-2.976-1.008-1.11-1.007-1.125-2.773v-7.75h1.484v7.703q0 1.235.68 1.918.68.684 1.937.684 1.274 0 1.95-.68.675-.68.675-1.914v-7.711zm-37.376 114v7.555h1.578v1.18h-1.578v2.64h-1.453v-2.64h-5.18v-.852l5.094-7.883h1.539zm-1.625 2.29l-3.367 5.265h3.539v-5.578l-.172.312zm9.418.632l2.148 6.492 2.094-6.492h1.476l-3.03 8.453h-1.102l-3.063-8.453h1.477zm14.275 4.844h1.508q-.211 1.804-1.332 2.785-1.121.98-2.98.98-2.016 0-3.231-1.445-1.215-1.445-1.215-3.867v-1.094q0-1.586.566-2.79.567-1.202 1.606-1.847 1.039-.644 2.406-.644 1.813 0 2.906 1.011 1.094 1.012 1.274 2.801h-1.508q-.195-1.36-.848-1.969-.652-.609-1.824-.609-1.437 0-2.254 1.063-.816 1.062-.816 3.023v1.102q0 1.851.773 2.945.774 1.094 2.164 1.094 1.25 0 1.918-.567.668-.566.887-1.972zm7.814-.844h-2.68v4.453h-1.5v-11.375h4.196q1.867 0 2.926.953 1.058.953 1.058 2.524 0 1.656-1.035 2.55-1.035.895-2.965.895zm-2.68-5.688v4.461h2.696q1.203 0 1.844-.566.64-.566.64-1.637 0-1.015-.64-1.625-.64-.61-1.758-.633h-2.781zm15.174-1.234h1.508v7.734q-.008 1.61-1.011 2.633-1.004 1.024-2.723 1.149l-.399.015q-1.867 0-2.976-1.008-1.11-1.007-1.125-2.773v-7.75h1.484v7.703q0 1.235.68 1.918.68.684 1.937.684 1.274 0 1.95-.68.675-.68.675-1.914v-7.711zM76.834 360.37v11.43h-1.453v-9.633l-2.914 1.07v-1.312l4.14-1.555h.227zm9.145 2.977l2.148 6.492 2.094-6.492h1.476l-3.03 8.453h-1.102l-3.063-8.453h1.477zm14.275 4.844h1.508q-.211 1.804-1.332 2.785-1.121.98-2.98.98-2.016 0-3.231-1.445-1.215-1.445-1.215-3.867v-1.094q0-1.586.566-2.79.567-1.202 1.606-1.847 1.039-.644 2.406-.644 1.813 0 2.906 1.011 1.094 1.012 1.274 2.801h-1.508q-.195-1.36-.848-1.969-.652-.609-1.824-.609-1.437 0-2.254 1.063-.816 1.062-.816 3.023v1.102q0 1.851.773 2.945.774 1.094 2.164 1.094 1.25 0 1.918-.567.668-.566.887-1.972zm7.814-.844h-2.68v4.453h-1.5v-11.375h4.196q1.867 0 2.926.953 1.058.953 1.058 2.524 0 1.656-1.035 2.55-1.035.895-2.965.895zm-2.68-5.688v4.461h2.696q1.203 0 1.844-.566.64-.566.64-1.637 0-1.015-.64-1.625-.64-.61-1.758-.633h-2.781zm15.174-1.234h1.508v7.734q-.008 1.61-1.011 2.633-1.004 1.024-2.723 1.149l-.399.015q-1.867 0-2.976-1.008-1.11-1.007-1.125-2.773v-7.75h1.484v7.703q0 1.235.68 1.918.68.684 1.937.684 1.274 0 1.95-.68.675-.68.675-1.914v-7.711z" fill="#778f9b" fill-rule="evenodd"></path></g><g transform="translate(228.2,304.3)" style="line-height:16px;white-space:pre">NEXT CONTAINER</g><g fill="#7c7c7c" transform="translate(271.8,590.1)" style="line-height:16px;white-space:pre">MEMORY</g><g fill="#7c7c7c" transform="translate(60.4,424.3)" style="line-height:16px;white-space:pre">CPU</g><script><![CDATA[/*
 KeyshapeJS v1.1.0 (c) 2018-2019 Pixofield Ltd | pixofield.com/keyshapejs/mit-license */
window.KeyshapeJS=function(){function t(a){return"undefined"!==typeof a}function x(a,b){return a&&0==a.indexOf(b)}function H(a){if(!isFinite(a))throw Error("Non-finite value");}function R(a){if(14>=a)return 16;var b=S[a];b||(b=t(ca[a])?0|(a.toLowerCase().indexOf("color")==a.length-5?48:0):1);return b}function K(a){return 0<=a?Math.pow(a,1/3):-Math.pow(-a,1/3)}function da(a,b,c,d){if(0==a)return 0==b?b=-d/c:(a=Math.sqrt(c*c-4*b*d),d=(-c+a)/(2*b),0<=d&&1>=d?b=d:(d=(-c-a)/(2*b),b=0<=d&&1>=d?d:0)),b;
var e=c/a-b*b/(a*a)/3;c=b*b*b/(a*a*a)/13.5-b*c/(a*a)/3+d/a;var n=c*c/4+e*e*e/27;b=-b/(3*a);if(0>=n){if(0==e&&0==c)return-K(d/a);a=Math.sqrt(c*c/4-n);d=Math.acos(-c/2/a);c=Math.cos(d/3);d=Math.sqrt(3)*Math.sin(d/3);a=K(a);e=2*a*c+b;if(0<=e&&1>=e)return e;e=-a*(c+d)+b;if(0<=e&&1>=e)return e;e=a*(d-c)+b;if(0<=e&&1>=e)return e}else{a=K(-c/2+Math.sqrt(n));c=K(-c/2-Math.sqrt(n));d=a+c+b;if(0<=d&&1>=d)return d;d=-(a+c)/2+b;if(0<=d&&1>=d)return d}return 0}function ea(a,b){if(48==a&&"number"===typeof b)return"rgba("+
(b>>>24)+","+(b>>>16&255)+","+(b>>>8&255)+","+(b&255)/255+")";if(64==a)return b=b.map(function(a){return a+"px"}),b.join(",");if(96==a){a="";for(var c=b.length,d=0;d<c;d+=2)a+=b[d],a+=b[d+1].join(",");return a}if(80==a){if(0==b[0])return"none";a="";c=b.length;for(d=0;d<c;)a+=T[b[d]],1==b[d]?a+="("+b[d+1]+") ":5==b[d]?(a+="("+b[d+1]+"px "+b[d+2]+"px "+b[d+3]+"px rgba("+(b[d+4]>>>24)+","+(b[d+4]>>16&255)+","+(b[d+4]>>8&255)+","+(b[d+4]&255)/255+")) ",d+=3):a=2==b[d]?a+("("+b[d+1]+"px) "):7==b[d]?a+
("("+b[d+1]+"deg) "):a+("("+(0>b[d+1]?0:b[d+1])+") "),d+=2;return a}return 32==a?b+"px":b}function y(a){return 0>=a?0:255<=a?255:a}function fa(a,b,c,d){if(16==a||32==a)return(c-b)*d+b;if(0==a)return.5>d?b:c;if(48==a){if("number"===typeof b&&"number"===typeof c){var e=1-d;return(y(e*(b>>>24)+d*(c>>>24))<<24|y(e*(b>>>16&255)+d*(c>>>16&255))<<16|y(e*(b>>>8&255)+d*(c>>>8&255))<<8|y(e*(b&255)+d*(c&255)))>>>0}return.5>d?b:c}if(64==a){0==b.length&&(b=[0]);0==c.length&&(c=[0]);var n=b.length;b.length!=c.length&&
(n=b.length*c.length);var l=[];for(a=0;a<n;++a){var f=b[a%b.length];var h=(c[a%c.length]-f)*d+f;0>h&&(h=0);l.push(h)}return l}if(96==a){if(b.length!=c.length)return.5>d?b:c;n=b.length;l=[];for(a=0;a<n;a+=2){if(b[a]!==c[a])return.5>d?b:c;l[a]=b[a];l[a+1]=[];for(f=0;f<b[a+1].length;++f)l[a+1].push((c[a+1][f]-b[a+1][f])*d+b[a+1][f])}return l}if(80==a){n=b.length;if(n!=c.length)return.5>d?b:c;l=[];for(a=0;a<n;){if(b[a]!=c[a]||1==b[a])return.5>d?b:c;l[a]=b[a];l[a+1]=(c[a+1]-b[a+1])*d+b[a+1];if(5==b[a]){l[a+
2]=(c[a+2]-b[a+2])*d+b[a+2];l[a+3]=(c[a+3]-b[a+3])*d+b[a+3];e=1-d;var g=b[a+4],q=c[a+4];h=e*(g>>>24)+d*(q>>>24);var m=e*(g>>16&255)+d*(q>>16&255);f=e*(g>>8&255)+d*(q>>8&255);e=e*(g&255)+d*(q&255);l[a+4]=(y(m)<<16|y(f)<<8|y(e))+16777216*(y(h)|0);a+=3}a+=2}return l}return 0}function U(a,b){a:{var c=a+b[2];var d=b[4].length;for(var e=0;e<d;++e)if(c<b[4][e]){c=e;break a}c=d-1}d=b[2];e=b[4][c-1]-d;a=(a-e)/(b[4][c]-d-e);if(b[6]&&b[6].length>c-1)if(d=b[6][c-1],1==d[0])if(0>=a)a=0;else if(1<=a)a=1;else{e=
d[1];var n=d[3];a=da(3*e-3*n+1,-6*e+3*n,3*e,-a);a=3*a*(1-a)*(1-a)*d[2]+3*a*a*(1-a)*d[4]+a*a*a}else 2==d[0]?(d=d[1],a=Math.ceil(a*d)/d):3==d[0]&&(d=d[1],a=Math.floor(a*d)/d);return fa(b[1]&240,b[5][c-1],b[5][c],a)}function L(){u||(v=(new Date).getTime()+V)}function O(a){if(a||!E){for(var b=!1,c=0;c<w.length;++c)w[c].J(a)&&(b=!0);if(a)for(;0<I.length;)if(a=I.shift(),c=a[0],1==a[1])c.onfinish&&(c.onfinish(),b=!0),c.I();else if(2==a[1]&&c.onloop)c.onloop();return b}}function W(){L();O(!0)&&!u?(E=!0,M(W)):
E=!1}function N(){E||(E=!0,M(W))}function X(a,b){var c=[];a.split(b).forEach(function(a){c.push(parseFloat(a))});return c}function A(a){-1==a.indexOf(",")&&(a=a.replace(" ",","));return X(a,",")}function Y(a){a._ks||(a._ks={});if(!a._ks.transform){for(var b=a._ks.transform=[],c=0;14>=c;++c)b[c]=0;b[10]=1;b[11]=1;if(a=a.getAttribute("transform")){a=a.trim().split(") ");for(c=a.length-2;0<=c;--c)if(x(a[c],"translate(")){for(var d=0;d<c;d++)a.shift();break}c=a.shift();x(c,"translate(")&&(c=A(c.substring(10)),
b[1]=c[0],b[2]=t(c[1])?c[1]:0,c=a.shift());x(c,"rotate(")&&(c=A(c.substring(7)),b[6]=c[0],c=a.shift());x(c,"skewX(")&&(c=A(c.substring(6)),b[7]=c[0],c=a.shift());x(c,"skewY(")&&(c=A(c.substring(6)),b[8]=c[0],c=a.shift());x(c,"scale(")&&(c=A(c.substring(6)),b[10]=c[0],b[11]=t(c[1])?c[1]:c[0],c=a.shift());x(c,"translate(")&&(c=A(c.substring(10)),b[13]=c[0],b[14]=t(c[1])?c[1]:0)}}}function Z(a){this.l=a;this.A=[];this.C=[];this.v=0;this.s=this.a=this.c=null;this.h=this.f=this.g=0;this.b=1;this.i=this.F=
this.o=!1}function J(a,b,c){b=a[b];void 0===b&&(b=a[c]);return b}function ha(a){return Array.isArray(a)?a:x(a,"cubic-bezier(")?(a=a.substring(13,a.length-1).split(","),[1,parseFloat(a[0]),parseFloat(a[1]),parseFloat(a[2]),parseFloat(a[3])]):x(a,"steps(")?(a=a.substring(6,a.length-1).split(","),[a[1]&&"start"==a[1].trim()?2:3,parseFloat(a[0])]):[0]}function ia(a){a=a.trim();return x(a,"#")?(parseInt(a.substring(1),16)<<8)+255:x(a,"rgba(")?(a=a.substring(5,a.length-1),a=a.split(","),(parseInt(a[0],
10)<<24)+(parseInt(a[1],10)<<16)+(parseInt(a[2],10)<<8)+255*parseFloat(a[3])<<0):a}function aa(a){!1===a.i&&(w.push(a),a.i=!0,!1!==a.l.autoplay&&a.play());return this}function P(a){if(!0===a.i){a._cancel();var b=w.indexOf(a);-1<b&&w.splice(b,1);b=I.indexOf(a);-1<b&&I.splice(b,1);a.i=!1}return this}var Q=Error("Not in timeline list"),ba="mpath posX posY    rotate skewX skewY  scaleX scaleY  anchorX anchorY".split(" "),ja=" translate translate    rotate skewX skewY  scale scale  translate translate".split(" "),
T="none url blur brightness contrast drop-shadow grayscale hue-rotate invert opacity saturate sepia".split(" "),M=window.requestAnimationFrame||window.webkitRequestAnimationFrame||window.mozRequestAnimationFrame||window.oRequestAnimationFrame||window.msRequestAnimationFrame||null;M||(M=function(a){window.setTimeout(a,16)});var S={d:97,fill:48,fillOpacity:16,filter:80,height:33,opacity:16,offsetDistance:33,stroke:48,strokeDasharray:64,strokeDashoffset:32,strokeOpacity:16,strokeWidth:32,transform:1,
width:33},ca=window.getComputedStyle(document.documentElement),E=!1,v=(new Date).getTime(),u,V=0,w=[],I=[];Z.prototype={B:function(a){var b=0;if(null!==this.c){var c=this.j();0<this.b&&null!==c&&c>=this.f?this.h?(this.c=v-this.g/this.b,this.h--,b=2):(b=1,a?this.a=c:this.a=this.s?Math.max(this.s,this.f):this.f):0>this.b&&null!==c&&c<=this.g?this.h&&Infinity!=this.f?(this.c=v-this.f/this.b,this.h--,b=2):(this.h=0,b=1,a?this.a=c:this.a=this.s?Math.min(this.s,this.g):this.g):null!==c&&0!=this.b&&(a&&
null!==this.a&&(this.c=v-this.a/this.b),this.a=null)}this.s=this.j();return b},J:function(a){a&&(this.o&&(this.o=!1,null===this.c&&(0!=this.b&&null!==this.a?(this.c=v-this.a/this.b,this.a=null):this.c=v)),null===this.a&&null!==this.c&&(a=this.B(!1),0!=a&&I.push([this,a])));a=this.j();if(null===a)return!1;for(var b=this.A,c=this.C,d=0;d<b.length;++d){for(var e=b[d],n=!1,l=0;l<c[d].length;++l){var f=c[d][l],h=f[0];if(null!==h){var g=f[2];var q=f[4].length,m=f[4][q-1]-g;g=0==m?f[5][q-1]:a<=g?f[5][0]:
a>=g+f[3]?0==f[3]%m?f[5][q-1]:U(f[3]%m,f):U((a-g)%m,f);0==h?(e._ks.mpath=f[8],e._ks.transform[h]=g,n=!0):14>=h?(e._ks.transform[h]=g,n=!0):(g=ea(f[1]&240,g),f[1]&1?e.setAttribute(h,g):e.style[h]=g)}}if(n){Y(e);n=e._ks.transform;l="";if(f=e._ks.mpath)g=n[0],0>g&&(g=0),100<g&&(g=100),g=g*f[2]/100,h=f[1].getPointAtLength(g),l="translate("+h.x+","+h.y+") ",f[0]&&(.5>g?(g=h,h=f[1].getPointAtLength(.5)):g=f[1].getPointAtLength(g-.5),l+="rotate("+180*Math.atan2(h.y-g.y,h.x-g.x)/Math.PI+") ");for(f=1;f<n.length;++f)h=
n[f],h!=(10==f||11==f?1:0)&&(l+=" "+ja[f]+"(",l=2>=f?l+(1==f?h+",0":"0,"+h):13<=f?l+(13==f?h+",0":"0,"+h):10<=f?l+(10==f?h+",1":"1,"+h):l+h,l+=")");e.setAttribute("transform",l)}}return"running"==this.m()},I:function(){!1!==this.l.autoremove&&"finished"==this.m()&&P(this)},D:function(){if(!this.F){this.F=!0;for(var a=this.A,b=this.C,c=0;c<a.length;++c)for(var d=a[c],e=0;e<b[c].length;++e)14>=b[c][e][0]&&Y(d)}},u:function(a){if("number"==typeof a)return a;if(!t(this.l.markers)||!t(this.l.markers[a]))throw Error("Invalid marker: "+
a);return+this.l.markers[a]},play:function(a){t(a)&&null!==a&&(a=this.u(a),H(a),0>this.b&&a<this.g&&(a=this.g),0<this.b&&a>this.f&&(a=this.f),this.w(a,!0));if(!this.i)throw Q;a=this.j();if(0<this.b&&(null===a||a>=this.f))this.a=this.g;else if(0>this.b&&(null===a||a<=this.g)){if(Infinity==this.f)throw Error("Cannot seek to Infinity");this.a=this.f}else 0==this.b&&null===a&&(this.a=this.g);if(null===this.a)return this;this.c=null;this.o=!0;this.D();N();return this},pause:function(a){if(!this.i)throw Q;
t(a)&&(a=this.u(a),H(a));if("paused"!=this.m()){L();var b=this.j();if(null===b)if(0<=this.b)this.a=this.g;else{if(Infinity==this.f)throw Error("Cannot seek to Infinity");this.a=this.f}null!==this.c&&null===this.a&&(this.a=b);this.c=null;this.o=!1;this.B(!1);this.D();N()}t(a)&&this.w(a,!0);return this},range:function(a,b){if(0==arguments.length)return{"in":this.g,out:this.f};var c=this.u(a),d=this.v;t(b)&&(d=this.u(b));H(c);if(0>c||0>d||c>=d||isNaN(d))throw Error("Invalid range");var e=this.m();this.g=
c;this.f=d;"finished"==e&&"running"==this.m()&&this.play();return this},loop:function(a){if(!t(a))return{count:this.h};this.h=!0===a?Infinity:Math.floor(a);if(0>this.h||isNaN(this.h))this.h=0;return this},j:function(){return null!==this.a?this.a:null===this.c?null:(v-this.c)*this.b},w:function(a,b){b&&L();null!==a&&(this.D(),null!==this.a||null===this.c||0==this.b?(this.a=a,O(!1)):this.c=v-a/this.b,this.i||(this.c=null),this.s=null,this.B(!0),N())},G:function(){return this.j()},time:function(a){if(t(a)){if(!this.i)throw Q;
a=this.u(a);H(a);this.w(a,!0);return this}return this.G()},m:function(){var a=this.j();return this.o?"running":null===a?"idle":null===this.c?"paused":0<this.b&&a>=this.f||0>this.b&&a<=this.g?"finished":"running"},state:function(){return this.m()},duration:function(){return this.v},H:function(a){H(a);L();var b=this.j();this.b=a;null!==b&&this.w(b,!1)},rate:function(a){return t(a)?(this.H(a),this):this.b},marker:function(a){return t(this.l.markers)?this.l.markers[a]:void 0},_cancel:function(){if(!this.i||
"idle"==this.m())return this;this.c=this.a=null;this.o=!1;return this}};return{version:"1.1.0",animate:function(){var a={};if(1==arguments.length%2){a=arguments[arguments.length-1];var b={};for(c in a)b[c]=a[c];a=b}var c=new Z(a);a=arguments;for(var d=b=0;d<a.length-1;d+=2){var e=a[d];var n=e instanceof Element?e:document.getElementById(e.substring(1));if(!n)throw Error("Invalid target: "+e);e=n;n=a[d+1];e._ks||(e._ks={});for(var l=[],f=0;f<n.length;++f){var h=n[f],g=J(h,"p","property");if("string"!=
typeof g||-1!=g.indexOf("-")||""===g||!(0<S[g]||0<=ba.indexOf(g)))throw Error("Invalid property: "+g);var q=ba.indexOf(g);""!==g&&0<=q&&(g=q);q=R(g);var m=J(h,"t","times");if(!m||2>m.length)throw Error("Not enough times");m=m.slice();if(!isFinite(m[0])||0>m[0])throw Error("Invalid time: "+m[0]);for(var B=1;B<m.length;++B)if(!isFinite(m[B])||0>m[B]||m[B]<m[B-1])throw Error("Invalid time: "+m[B]);B=m[0];var v=m[m.length-1]-B,y=h.iterations||0;1>y&&(y=1);v*=y;b<v+B&&(b=v+B);var u=J(h,"v","values");if(!u||
u.length!=m.length)throw Error("Values do not match times");u=u.slice();for(var C=g,k=u,w=R(C)&240,p=0;p<k.length;++p)if(96==w){for(var G=k[p].substring(6,k[p].length-2).match(/[A-DF-Za-df-z][-+0-9eE., ]*/ig),A=[],r=0;r<G.length;++r){A.push(G[r][0]);for(var z=1<G[r].trim().length?G[r].substring(1).split(","):[],F=0;F<z.length;++F)z[F]=parseFloat(z[F]);A.push(z)}k[p]=A}else if(48==w)x(k[p],"#")?(G=9==k[p].length,k[p]=parseInt(k[p].substring(1),16),G||(k[p]=256*k[p]|255)):x(k[p],"url(")||"none"==k[p]||
(console.warn("unsupported color: "+k[p]),k[p]=0);else if(80==w){G=k;A=p;r=k[p];if("none"==r)r=[0];else{z=[];for(var D=r.indexOf("(");0<D;)if(F=T.indexOf(r.substring(0,D)),0<=F){z.push(F);var E=r.indexOf(") ");0>E&&(E=r.length-1);D=r.substring(D+1,E).split(" ");5==F?(z.push(parseFloat(D[0])),z.push(parseFloat(D[1])),z.push(parseFloat(D[2])),z.push(ia(D[3]))):1==F?z.push(D[0]):z.push(parseFloat(D[0]));r=r.substring(E+1).trim();D=r.indexOf("(")}else break;r=z}G[A]=r}else 64==w?"none"!=k[p]?/^[0-9 .]*$/.test(k[p])?
k[p]=X(k[p]," "):(console.warn("unsupported value: "+k[p]),k[p]=[0]):k[p]=[0]:32==w?(H(k[p]),k[p]=parseFloat(k[p])):0===C&&(k[p]=parseFloat(k[p]));C=J(h,"e","easing");k=m.length;for(C||(C=[]);C.length<k;)C.push([1,0,0,.58,1]);for(k=0;k<C.length;++k)C[k]=ha(C[k]);q=[g,q,B,v,m,u,C,y];m=J(h,"mp","motionPath");t(m)&&0===g&&(q[8]=[],q[8][0]=h.motionRotate,h=document.createElementNS("http://www.w3.org/2000/svg","path"),m||(m="M0,0"),h.setAttribute("d",m),q[8][1]=h,q[8][2]=h.getTotalLength());l.push(q)}0<
l.length&&(c.A.push(e),c.C.push(l))}c.v=b;c.g=0;c.f=c.v;aa(c);return c},add:aa,remove:P,removeAll:function(){for(var a=w.length-1;0<=a;--a)P(w[a]);return this},timelines:function(){return w.slice()},globalPlay:function(){u&&(V=u-(new Date).getTime(),u=void 0,N());return this},globalPause:function(){u||(u=v,O(!1));return this},globalState:function(){return u?"paused":"running"}}}();
]]></script><script><![CDATA[if(KeyshapeJS.version.indexOf('1.')!=0)throw Error('Expected KeyshapeJS v1.*.*');window.ks=document.ks=KeyshapeJS;(function(ks){
ks.animate("#anime-block-13",[{p:'opacity',t:[300,500],v:[1,0],e:[[1,.4,0,.6,1],[0]]}],
"#anime-block-15",[{p:'opacity',t:[800,1000,2000,2200,9800,10000,10800,11000],v:[0,1,1,0,0,1,1,0],e:[[1,.4,0,.6,1],[1,.4,0,.6,1],[1,.4,0,.6,1],[1,.4,0,.6,1],[1,.4,0,.6,1],[1,.4,0,.6,1],[1,.4,0,.6,1],[0]]}],
"#anime-block-17",[{p:'opacity',t:[2600,2800,3700,3900,8000,8200,9000,9200],v:[0,1,1,0,0,1,1,0],e:[[1,.4,0,.6,1],[1,.4,0,.6,1],[1,.4,0,.6,1],[1,.4,0,.6,1],[1,.4,0,.6,1],[1,.4,0,.6,1],[1,.4,0,.6,1],[0]]}],
"#anime-block-18",[{p:'opacity',t:[4400,4600,5400,5600],v:[0,1,1,0],e:[[1,.4,0,.6,1],[1,.4,0,.6,1],[1,.4,0,.6,1],[0]]}],
"#anime-block-12",[{p:'opacity',t:[6200,6400,6900,7100,11600,11800,12600,12800,13400,13600,14500,14700],v:[0,1,1,0,0,1,1,0,0,1,1,0],e:[[1,.4,0,.6,1],[1,.4,0,.6,1],[1,.4,0,.6,1],[1,.4,0,.6,1],[1,.4,0,.6,1],[1,.4,0,.6,1],[1,.4,0,.6,1],[1,.4,0,.6,1],[1,.4,0,.6,1],[1,.4,0,.6,1],[1,.4,0,.6,1],[0]]}],
"#anime-block-5",[{p:'mpath',t:[7600,7800,8600],v:['0%','24.3%','100%'],e:[[1,.4,0,.6,1],[1,.4,0,.6,1],[0]],mp:"M198.3,-416.5L326.8,-416.5L326.8,-15.5"},{p:'opacity',t:[6900,7100],v:[0,1],e:[[1,.4,0,.6,1],[0]]}],
"#anime-block-9",[{p:'mpath',t:[14900,15000,15900],v:['0%','1.5%','100%'],e:[[1,.4,0,.6,1],[1,.4,0,.6,1],[0]],mp:"M322.3,-303.5L326.8,-303.5L326.8,-15.5"},{p:'opacity',t:[14500,14700],v:[0,1],e:[[1,.4,0,.6,1],[0]]}],
"#anime-block-8",[{p:'mpath',t:[13000,13200,14000],v:['0%','34.1%','100%'],e:[[1,.4,0,.6,1],[1,.4,0,.6,1],[0]],mp:"M456.3,-265.5L326.8,-265.5L326.8,-15.5"},{p:'opacity',t:[12600,12800],v:[0,1],e:[[1,.4,0,.6,1],[0]]}],
"#anime-block-1",[{p:'mpath',t:[700,1500,1700],v:['0%','85%','100%'],e:[[1,.4,0,.6,1],[1,.4,0,.6,1],[0]],mp:"M400.8,-435.5L400.8,-15.5L326.8,-15.5"},{p:'opacity',t:[300,500],v:[0,1],e:[[1,.4,0,.6,1],[0]]}],
"#anime-block-2",[{p:'mpath',t:[2400,2600,3400],v:['0%','7%','100%'],e:[[1,.4,0,.6,1],[1,.4,0,.6,1],[0]],mp:"M296.8,-417L326.8,-417L326.8,-15.5"},{p:'opacity',t:[2000,2200],v:[0,1],e:[[1,.4,0,.6,1],[0]]}],
"#anime-block-7",[{p:'mpath',t:[11200,11400,12200],v:['0%','14.9%','100%'],e:[[1,.4,0,.6,1],[1,.4,0,.6,1],[0]],mp:"M370.8,-266L326.8,-266L326.8,-15.5"},{p:'opacity',t:[10800,11000],v:[0,1],e:[[1,.4,0,.6,1],[0]]}],
"#anime-block-3",[{p:'mpath',t:[4100,4300,5100],v:['0%','17.5%','100%'],e:[[1,.4,0,.6,1],[1,.4,0,.6,1],[0]],mp:"M229.8,-474L326.8,-474L326.8,-16.5"},{p:'opacity',t:[3700,3900],v:[0,1],e:[[1,.4,0,.6,1],[0]]}],
"#anime-block-6",[{p:'mpath',t:[9400,9600,10400],v:['0%','26.6%','100%'],e:[[1,.4,0,.6,1],[1,.4,0,.6,1],[0]],mp:"M437.8,-322L326.8,-322L326.8,-15.5"},{p:'opacity',t:[9000,9200],v:[0,1],e:[[1,.4,0,.6,1],[0]]}],
"#anime-block-4",[{p:'mpath',t:[5800,6000,6800],v:['0%','19.9%','100%'],e:[[1,.4,0,.6,1],[1,.4,0,.6,1],[0]],mp:"M242.8,-354L326.8,-354L326.8,-15.5"},{p:'opacity',t:[5400,5600],v:[0,1],e:[[1,.4,0,.6,1],[0]]}],
{autoremove:false}).range(0,15900);
if(document.location.search.substr(1).split('&').indexOf('global=paused')>=0)ks.globalPause()})(KeyshapeJS);
]]></script></svg>