<svg xmlns="http://www.w3.org/2000/svg" viewBox="0 0 1000 730"><path id="anime-block-13" d="M175.1 377.6h150v151h-150z" fill="#fa2a00" fill-rule="evenodd"></path><path id="anime-block-15" d="M175.1 340.6h58v188h-58z" fill="#f5a623" fill-rule="evenodd" opacity="0"></path><path id="anime-block-17" d="M175.1 452.6h76v76h-76z" fill="#86b8b1" fill-rule="evenodd" opacity="0"></path><path id="anime-block-18" d="M175.1 364.6h50v164h-50z" fill="#3d1c00" fill-rule="evenodd" opacity="0"></path><path id="anime-block-12" fill="#d8d8d8" fill-rule="evenodd" opacity="0" d="M175.1 489.6h39v39h-39z"></path><g fill="none" fill-rule="evenodd"><path d="M889.8 627.8v35.4c0 1.9-1.7 3.5-3.8 3.5H567.6c-2.1 0-3.8-1.6-3.8-3.5v-35.4c0-2 1.7-3.6 3.8-3.6H886c2.1 0 3.8 1.6 3.8 3.6z" fill="#7c7c7c"></path><path fill="#d8d8d8" d="M610.1 633.9h215.3v5H610.1z"></path><path fill="#d7d7d7" d="M582.8 633.9h5v5h-5zm-9.1 0h5v5h-5z"></path><path fill="#00cd00" d="M864 633.9h5v5h-5z"></path><path fill="#d7d400" d="M854.9 633.9h5.1v5h-5.1z"></path><path fill="#ff3c00" d="M845.9 633.9h5v5h-5z"></path><path fill="#00cd00" d="M873.1 633.9h5v5h-5z"></path><path fill="#d8d8d8" d="M610.1 642.7h215.3v5H610.1z"></path><path fill="#d7d7d7" d="M582.8 642.7h5v5h-5zm-9.1 0h5v5h-5z"></path><path fill="#00cd00" d="M864 642.7h5v5h-5z"></path><path fill="#d7d400" d="M854.9 642.7h5.1v5h-5.1z"></path><path fill="#ff3c00" d="M845.9 642.7h5v5h-5z"></path><path fill="#00cd00" d="M873.1 642.7h5v5h-5z"></path><path fill="#d8d8d8" d="M610.1 651.5h215.3v5H610.1z"></path><path fill="#d7d7d7" d="M582.8 651.5h5v5h-5zm-9.1 0h5v5h-5z"></path><path fill="#00cd00" d="M864 651.5h5v5h-5z"></path><path fill="#d7d400" d="M854.9 651.5h5.1v5h-5.1z"></path><path fill="#ff3c00" d="M845.9 651.5h5v5h-5z"></path><path fill="#00cd00" d="M873.1 651.5h5v5h-5z"></path><path d="M889.8 204.3v411.2c0 2.1-1.7 3.8-3.8 3.8H567.6c-2.1 0-3.8-1.7-3.8-3.8V204.3c0-2.1 1.7-3.8 3.8-3.8H886c2.1 0 3.8 1.7 3.8 3.8z" fill="#7c7c7c"></path><path fill="#d7d7d7" d="M574.9 604.2h303.6v5H574.9zm-1.3-376.5h304.9v5.1H573.6zm0-9.1h304.9v5.1H573.6zm0-9h304.9v5H573.6z"></path><path d="M575.2 242.8h303.2c.9 0 1.5.7 1.5 1.5v347.6c0 .9-.6 1.6-1.5 1.6H575.2c-.9 0-1.5-.7-1.5-1.6V244.3c0-.8.6-1.5 1.5-1.5z" fill="#fff"></path></g><path id="anime-block-5" fill="#d8d8d8" fill-rule="evenodd" opacity="0" d="M707.3 74.5h39v39h-39z"></path><path id="anime-block-9" fill="#d8d8d8" fill-rule="evenodd" opacity="0" d="M707.3 74.5h39v39h-39z"></path><path id="anime-block-8" fill="#d8d8d8" fill-rule="evenodd" opacity="0" d="M707.3 74.5h39v39h-39z"></path><path id="anime-block-1" d="M651.8 18.5h150v151h-150z" fill="#fa2a00" fill-rule="evenodd" opacity="0"></path><path id="anime-block-2" d="M697.8 0h58v188h-58z" fill="#f5a623" fill-rule="evenodd" opacity="0"></path><path id="anime-block-7" d="M697.8 0h58v188h-58z" fill="#f5a623" fill-rule="evenodd" opacity="0"></path><path id="anime-block-3" d="M688.8 56h76v76h-76z" fill="#86b8b1" fill-rule="evenodd" opacity="0"></path><path id="anime-block-6" d="M688.8 56h76v76h-76z" fill="#86b8b1" fill-rule="evenodd" opacity="0"></path><path id="anime-block-4" d="M701.8 12h50v164h-50z" fill="#3d1c00" fill-rule="evenodd" opacity="0"></path><g stroke-linejoin="round" fill="none" fill-rule="evenodd"><path d="M154.25 360.2h289m-289 56h289m-289 56.5h289" stroke="#778f9b" stroke-dasharray="1 6"></path><path d="M154.25 529.2h289" stroke="#000a12" stroke-width="2" stroke-linecap="round"></path></g><path d="M407.202 538.485v5.715h-.726v-4.816l-1.457.535v-.656l2.07-.778h.114zm4.865.024h.129v.613h-.133q-.844.016-1.344.5-.5.485-.578 1.363.45-.515 1.227-.515.742 0 1.185.523.444.524.444 1.352 0 .879-.479 1.406-.478.527-1.283.527-.817 0-1.325-.627-.507-.627-.507-1.615v-.277q0-1.57.67-2.4.67-.83 1.994-.85zm-.82 2.562q-.371 0-.684.223-.313.223-.433.558v.265q0 .704.316 1.134.316.43.789.43.488 0 .767-.36.28-.36.28-.942 0-.585-.283-.947-.284-.361-.753-.361zm7.032.297v2.086q-.29.414-.807.619-.517.205-1.205.205-.695 0-1.234-.326-.54-.326-.835-.928-.295-.601-.302-1.394v-.496q0-1.285.6-1.992.599-.707 1.685-.707.89 0 1.433.455t.664 1.29h-.75q-.21-1.128-1.343-1.128-.754 0-1.143.529t-.392 1.533v.465q0 .957.438 1.522.437.564 1.183.564.422 0 .738-.094.316-.093.523-.316v-1.277h-1.316v-.61h2.062zm1.962-1.395v4.227h-.723v-4.226h.723zm-.781-1.12q0-.176.107-.297t.318-.121q.211 0 .32.12.11.122.11.298 0 .175-.11.293-.109.117-.32.117-.211 0-.318-.117-.107-.118-.107-.293zm4.063 5.347h-1.973v-5.688h1.86q.925 0 1.392.384.467.382.467 1.132 0 .399-.227.705-.226.307-.617.475.461.129.729.49t.267.862q0 .765-.496 1.203-.496.437-1.402.437zm.027-2.66h-1.25v2.047h1.238q.524 0 .826-.272.303-.271.303-.748 0-1.027-1.117-1.027zm-1.25-2.41v1.809h1.133q.492 0 .787-.247.295-.246.295-.668 0-.468-.274-.681-.273-.213-.832-.213H422.3zm-70.501.867q0 .426-.225.758t-.607.52q.445.19.705.558.26.367.26.832 0 .738-.499 1.176-.498.437-1.31.437-.82 0-1.315-.44-.494-.439-.494-1.173 0-.461.252-.832.252-.371.697-.562-.378-.188-.597-.52-.219-.332-.219-.754 0-.719.461-1.14.461-.422 1.215-.422.75 0 1.213.422.463.421.463 1.14zm-.59 2.652q0-.476-.302-.777-.303-.301-.791-.301-.489 0-.784.297t-.295.781q0 .485.287.762.287.278.799.278.508 0 .797-.28.289-.28.289-.76zm-1.086-3.621q-.425 0-.69.264-.263.264-.263.717 0 .433.26.701.26.268.693.268.433 0 .693-.268.26-.268.26-.701t-.27-.707q-.269-.274-.683-.274zm7.146 2.34v2.086q-.29.414-.807.619-.517.205-1.205.205-.695 0-1.235-.326-.538-.326-.834-.928-.295-.601-.303-1.394v-.496q0-1.285.6-1.992.6-.707 1.685-.707.891 0 1.434.455.544.455.665 1.29h-.75q-.211-1.128-1.344-1.128-.754 0-1.143.529-.388.529-.392 1.533v.465q0 .957.437 1.522.438.564 1.184.564.422 0 .738-.094.317-.093.523-.316v-1.277h-1.316v-.61h2.063zm1.962-1.395v4.227h-.723v-4.226h.723zm-.782-1.12q0-.176.107-.297t.319-.121q.211 0 .32.12.11.122.11.298 0 .175-.11.293-.109.117-.32.117-.211 0-.319-.117-.107-.118-.107-.293zm4.064 5.347h-1.973v-5.687h1.86q.925 0 1.392.383.467.382.467 1.132 0 .399-.227.705-.227.307-.617.475.461.129.728.49t.268.862q0 .765-.496 1.203-.496.437-1.403.437zm.027-2.66h-1.25v2.047h1.238q.523 0 .826-.272.303-.271.303-.748 0-1.027-1.117-1.027zm-1.25-2.41v1.809h1.133q.492 0 .787-.247.295-.246.295-.668 0-.468-.274-.681-.273-.213-.832-.213h-1.11zm-68.89-.617v3.777h.79v.59h-.79v1.32h-.726v-1.32h-2.59v-.426l2.547-3.941h.77zm-.812 1.145l-1.684 2.632h1.77v-2.789l-.086.156zm6.68 1.71v2.086q-.289.414-.806.619-.518.205-1.205.205-.695 0-1.235-.326-.539-.326-.834-.928-.295-.601-.303-1.394v-.496q0-1.285.6-1.992.6-.707 1.685-.707.891 0 1.434.455.543.455.664 1.29h-.75q-.21-1.128-1.343-1.128-.754 0-1.143.529t-.393 1.533v.465q0 .957.438 1.522.438.564 1.184.564.421 0 .738-.094.317-.093.523-.316v-1.277h-1.316v-.61h2.063zm1.962-1.394v4.226h-.722v-4.226h.722zm-.781-1.121q0-.176.107-.297t.319-.121q.211 0 .32.12.11.122.11.298 0 .175-.11.293-.109.117-.32.117-.211 0-.319-.117-.107-.118-.107-.293zm4.063 5.347h-1.972v-5.687h1.86q.925 0 1.392.383.466.382.466 1.132 0 .399-.226.705-.227.307-.617.475.461.129.728.49t.268.862q0 .765-.496 1.203-.496.437-1.403.437zm.028-2.66h-1.25v2.047h1.238q.523 0 .826-.272.303-.271.303-.748 0-1.027-1.117-1.027zm-1.25-2.41v1.809h1.133q.492 0 .787-.247.295-.246.295-.668 0-.468-.274-.681-.273-.213-.832-.213h-1.11zm-68.214 4.48v.59h-3.726v-.52l1.969-2.187q.438-.496.604-.806.165-.311.165-.643 0-.445-.27-.73-.269-.285-.718-.285-.539 0-.838.306-.299.307-.299.854h-.722q0-.785.505-1.27.506-.484 1.354-.484.793 0 1.254.416.461.416.461 1.107 0 .84-1.07 2l-1.524 1.652h2.855zm5.192-2.242v2.086q-.289.414-.806.619-.518.205-1.205.205-.695 0-1.235-.326-.539-.326-.834-.928-.295-.601-.303-1.394v-.496q0-1.285.6-1.992.6-.707 1.685-.707.891 0 1.434.455.543.455.664 1.29h-.75q-.21-1.128-1.343-1.128-.754 0-1.143.529t-.393 1.533v.465q0 .957.438 1.522.437.564 1.184.564.421 0 .738-.094.316-.093.523-.316v-1.277h-1.316v-.61h2.062zm1.962-1.395v4.227h-.722v-4.226h.722zm-.781-1.12q0-.176.107-.297t.319-.121q.211 0 .32.12.11.122.11.298 0 .175-.11.293-.109.117-.32.117-.211 0-.319-.117-.107-.118-.107-.293zm4.063 5.347h-1.972v-5.687h1.86q.925 0 1.392.383.466.382.466 1.132 0 .399-.226.705-.227.307-.617.475.461.129.728.49t.268.862q0 .765-.496 1.203-.496.437-1.403.437zm.028-2.66h-1.25v2.047h1.238q.523 0 .826-.272.303-.271.303-.748 0-1.027-1.117-1.027zm-1.25-2.41v1.809h1.133q.492 0 .787-.247.295-.246.295-.668 0-.468-.274-.681-.273-.213-.832-.213h-1.11zm-67.025 1.707v.937q0 1.27-.434 1.887t-1.355.617q-.91 0-1.348-.603-.437-.604-.453-1.803v-.965q0-1.254.434-1.863.433-.61 1.359-.61.918 0 1.351.589.434.587.446 1.814zm-.723 1.133v-1.184q0-.918-.258-1.338-.257-.42-.816-.42-.555 0-.809.418t-.261 1.285v1.157q0 .922.267 1.361.268.44.811.44.535 0 .795-.415.26-.414.271-1.304zm-52.8-184.473q0 .425-.226.757-.224.332-.606.52.445.191.705.559.26.367.26.832 0 .738-.499 1.175-.498.438-1.31.438-.82 0-1.315-.44-.494-.439-.494-1.173 0-.461.252-.832.252-.372.697-.563-.379-.187-.598-.52-.218-.331-.218-.753 0-.719.46-1.14.462-.422 1.216-.422.75 0 1.212.422.463.421.463 1.14zm-.59 2.652q0-.476-.303-.777-.303-.301-.791-.301-.488 0-.783.297t-.296.781q0 .485.288.762.287.278.798.278.509 0 .798-.28.288-.28.288-.76zm-1.087-3.621q-.425 0-.689.264-.264.264-.264.717 0 .433.26.701.26.268.694.268.433 0 .693-.268.26-.268.26-.701t-.27-.707q-.27-.274-.683-.274zm5.175.945l1.074 3.247 1.047-3.246h.738l-1.515 4.226h-.552l-1.531-4.226h.739zm7.137 2.422h.754q-.105.903-.666 1.393-.56.49-1.49.49-1.008 0-1.615-.723-.608-.722-.608-1.933v-.547q0-.793.283-1.395.283-.601.803-.923.52-.322 1.203-.322.906 0 1.453.505.547.506.637 1.4h-.754q-.098-.68-.424-.983-.326-.305-.912-.305-.719 0-1.127.531-.408.531-.408 1.512v.55q0 .926.387 1.473t1.082.547q.625 0 .959-.283.334-.283.443-.986zm3.907-.421h-1.34v2.226h-.75v-5.688h2.098q.934 0 1.463.477.529.476.529 1.262 0 .828-.517 1.275-.518.447-1.483.447zm-1.34-2.844v2.23h1.348q.602 0 .922-.283.32-.283.32-.819 0-.507-.32-.812-.32-.305-.879-.317h-1.39zm7.587-.617h.754v3.867q-.004.805-.505 1.316-.503.512-1.362.575l-.2.007q-.933 0-1.488-.504-.555-.503-.562-1.387v-3.875h.742v3.852q0 .618.34.959.34.342.968.342.637 0 .975-.34.338-.34.338-.957v-3.856zm-18.688 57v3.777h.789v.59h-.789v1.32h-.727v-1.32h-2.59v-.426l2.548-3.942h.769zm-.813 1.145l-1.683 2.632h1.77v-2.789l-.087.156zm4.71.315l1.073 3.246 1.048-3.246h.738l-1.515 4.227h-.551L128 414.473h.739zm7.137 2.422h.754q-.106.902-.666 1.393-.56.49-1.49.49-1.008 0-1.616-.723-.607-.722-.607-1.933v-.547q0-.793.283-1.395.283-.601.803-.924.52-.322 1.203-.322.906 0 1.453.506t.637 1.4h-.754q-.098-.68-.424-.984-.326-.305-.912-.305-.719 0-1.127.532-.408.531-.408 1.511v.551q0 .926.386 1.473.387.547 1.082.547.625 0 .96-.284.333-.283.443-.986zm3.907-.422h-1.34v2.227h-.75v-5.688h2.098q.933 0 1.463.477.529.476.529 1.262 0 .828-.517 1.275-.518.447-1.483.447zm-1.34-2.844v2.231h1.348q.602 0 .922-.283.32-.283.32-.819 0-.507-.32-.812-.32-.305-.879-.317h-1.39zm7.587-.617h.754v3.867q-.004.805-.506 1.317-.502.512-1.361.574l-.2.008q-.933 0-1.488-.504-.555-.504-.562-1.387v-3.875h.742v3.852q0 .617.34.959.34.342.968.342.637 0 .975-.34.338-.34.338-.957v-3.856zm-21.864 56.973v5.715h-.727v-4.816l-1.456.534v-.656l2.07-.777h.113zm4.572 1.488l1.074 3.246 1.048-3.246h.738l-1.515 4.227h-.551L128 471.474h.739zm7.138 2.422h.754q-.106.903-.666 1.393t-1.49.49q-1.008 0-1.616-.723-.607-.722-.607-1.933v-.547q0-.793.283-1.395.283-.601.803-.923.52-.322 1.203-.322.906 0 1.453.505.547.506.637 1.4h-.754q-.098-.68-.424-.984-.326-.304-.912-.304-.719 0-1.127.531-.408.531-.408 1.511v.551q0 .926.386 1.473.387.547 1.082.547.625 0 .96-.283.333-.283.443-.986zm3.907-.421h-1.34v2.226h-.75v-5.688h2.098q.933 0 1.463.477.529.476.529 1.262 0 .828-.517 1.275-.518.447-1.483.447zm-1.34-2.844v2.23h1.348q.602 0 .922-.283.32-.283.32-.819 0-.507-.32-.812-.32-.305-.879-.317h-1.39zm7.587-.617h.754v3.867q-.004.805-.506 1.316-.502.512-1.361.575l-.2.007q-.933 0-1.488-.504-.555-.503-.562-1.387v-3.875h.742v3.852q0 .618.34.959.34.342.968.342.637 0 .975-.34.338-.34.338-.957v-3.856z" fill="#778f9b" fill-rule="evenodd"></path><g style="line-height:16px;white-space:pre">NEXT CONTAINER</g><g fill="#7c7c7c" style="line-height:16px;white-space:pre">MEMORY</g><g fill="#7c7c7c" style="line-height:16px;white-space:pre">CPU</g><script><![CDATA[/*
 KeyshapeJS v1.1.0 (c) 2018-2019 Pixofield Ltd | pixofield.com/keyshapejs/mit-license */
window.KeyshapeJS=function(){function t(a){return"undefined"!==typeof a}function x(a,b){return a&&0==a.indexOf(b)}function H(a){if(!isFinite(a))throw Error("Non-finite value");}function R(a){if(14>=a)return 16;var b=S[a];b||(b=t(ca[a])?0|(a.toLowerCase().indexOf("color")==a.length-5?48:0):1);return b}function K(a){return 0<=a?Math.pow(a,1/3):-Math.pow(-a,1/3)}function da(a,b,c,d){if(0==a)return 0==b?b=-d/c:(a=Math.sqrt(c*c-4*b*d),d=(-c+a)/(2*b),0<=d&&1>=d?b=d:(d=(-c-a)/(2*b),b=0<=d&&1>=d?d:0)),b;
var e=c/a-b*b/(a*a)/3;c=b*b*b/(a*a*a)/13.5-b*c/(a*a)/3+d/a;var n=c*c/4+e*e*e/27;b=-b/(3*a);if(0>=n){if(0==e&&0==c)return-K(d/a);a=Math.sqrt(c*c/4-n);d=Math.acos(-c/2/a);c=Math.cos(d/3);d=Math.sqrt(3)*Math.sin(d/3);a=K(a);e=2*a*c+b;if(0<=e&&1>=e)return e;e=-a*(c+d)+b;if(0<=e&&1>=e)return e;e=a*(d-c)+b;if(0<=e&&1>=e)return e}else{a=K(-c/2+Math.sqrt(n));c=K(-c/2-Math.sqrt(n));d=a+c+b;if(0<=d&&1>=d)return d;d=-(a+c)/2+b;if(0<=d&&1>=d)return d}return 0}function ea(a,b){if(48==a&&"number"===typeof b)return"rgba("+
(b>>>24)+","+(b>>>16&255)+","+(b>>>8&255)+","+(b&255)/255+")";if(64==a)return b=b.map(function(a){return a+"px"}),b.join(",");if(96==a){a="";for(var c=b.length,d=0;d<c;d+=2)a+=b[d],a+=b[d+1].join(",");return a}if(80==a){if(0==b[0])return"none";a="";c=b.length;for(d=0;d<c;)a+=T[b[d]],1==b[d]?a+="("+b[d+1]+") ":5==b[d]?(a+="("+b[d+1]+"px "+b[d+2]+"px "+b[d+3]+"px rgba("+(b[d+4]>>>24)+","+(b[d+4]>>16&255)+","+(b[d+4]>>8&255)+","+(b[d+4]&255)/255+")) ",d+=3):a=2==b[d]?a+("("+b[d+1]+"px) "):7==b[d]?a+
("("+b[d+1]+"deg) "):a+("("+(0>b[d+1]?0:b[d+1])+") "),d+=2;return a}return 32==a?b+"px":b}function y(a){return 0>=a?0:255<=a?255:a}function fa(a,b,c,d){if(16==a||32==a)return(c-b)*d+b;if(0==a)return.5>d?b:c;if(48==a){if("number"===typeof b&&"number"===typeof c){var e=1-d;return(y(e*(b>>>24)+d*(c>>>24))<<24|y(e*(b>>>16&255)+d*(c>>>16&255))<<16|y(e*(b>>>8&255)+d*(c>>>8&255))<<8|y(e*(b&255)+d*(c&255)))>>>0}return.5>d?b:c}if(64==a){0==b.length&&(b=[0]);0==c.length&&(c=[0]);var n=b.length;b.length!=c.length&&
(n=b.length*c.length);var l=[];for(a=0;a<n;++a){var f=b[a%b.length];var h=(c[a%c.length]-f)*d+f;0>h&&(h=0);l.push(h)}return l}if(96==a){if(b.length!=c.length)return.5>d?b:c;n=b.length;l=[];for(a=0;a<n;a+=2){if(b[a]!==c[a])return.5>d?b:c;l[a]=b[a];l[a+1]=[];for(f=0;f<b[a+1].length;++f)l[a+1].push((c[a+1][f]-b[a+1][f])*d+b[a+1][f])}return l}if(80==a){n=b.length;if(n!=c.length)return.5>d?b:c;l=[];for(a=0;a<n;){if(b[a]!=c[a]||1==b[a])return.5>d?b:c;l[a]=b[a];l[a+1]=(c[a+1]-b[a+1])*d+b[a+1];if(5==b[a]){l[a+
2]=(c[a+2]-b[a+2])*d+b[a+2];l[a+3]=(c[a+3]-b[a+3])*d+b[a+3];e=1-d;var g=b[a+4],q=c[a+4];h=e*(g>>>24)+d*(q>>>24);var m=e*(g>>16&255)+d*(q>>16&255);f=e*(g>>8&255)+d*(q>>8&255);e=e*(g&255)+d*(q&255);l[a+4]=(y(m)<<16|y(f)<<8|y(e))+16777216*(y(h)|0);a+=3}a+=2}return l}return 0}function U(a,b){a:{var c=a+b[2];var d=b[4].length;for(var e=0;e<d;++e)if(c<b[4][e]){c=e;break a}c=d-1}d=b[2];e=b[4][c-1]-d;a=(a-e)/(b[4][c]-d-e);if(b[6]&&b[6].length>c-1)if(d=b[6][c-1],1==d[0])if(0>=a)a=0;else if(1<=a)a=1;else{e=
d[1];var n=d[3];a=da(3*e-3*n+1,-6*e+3*n,3*e,-a);a=3*a*(1-a)*(1-a)*d[2]+3*a*a*(1-a)*d[4]+a*a*a}else 2==d[0]?(d=d[1],a=Math.ceil(a*d)/d):3==d[0]&&(d=d[1],a=Math.floor(a*d)/d);return fa(b[1]&240,b[5][c-1],b[5][c],a)}function L(){u||(v=(new Date).getTime()+V)}function O(a){if(a||!E){for(var b=!1,c=0;c<w.length;++c)w[c].J(a)&&(b=!0);if(a)for(;0<I.length;)if(a=I.shift(),c=a[0],1==a[1])c.onfinish&&(c.onfinish(),b=!0),c.I();else if(2==a[1]&&c.onloop)c.onloop();return b}}function W(){L();O(!0)&&!u?(E=!0,M(W)):
E=!1}function N(){E||(E=!0,M(W))}function X(a,b){var c=[];a.split(b).forEach(function(a){c.push(parseFloat(a))});return c}function A(a){-1==a.indexOf(",")&&(a=a.replace(" ",","));return X(a,",")}function Y(a){a._ks||(a._ks={});if(!a._ks.transform){for(var b=a._ks.transform=[],c=0;14>=c;++c)b[c]=0;b[10]=1;b[11]=1;if(a=a.getAttribute("transform")){a=a.trim().split(") ");for(c=a.length-2;0<=c;--c)if(x(a[c],"translate(")){for(var d=0;d<c;d++)a.shift();break}c=a.shift();x(c,"translate(")&&(c=A(c.substring(10)),
b[1]=c[0],b[2]=t(c[1])?c[1]:0,c=a.shift());x(c,"rotate(")&&(c=A(c.substring(7)),b[6]=c[0],c=a.shift());x(c,"skewX(")&&(c=A(c.substring(6)),b[7]=c[0],c=a.shift());x(c,"skewY(")&&(c=A(c.substring(6)),b[8]=c[0],c=a.shift());x(c,"scale(")&&(c=A(c.substring(6)),b[10]=c[0],b[11]=t(c[1])?c[1]:c[0],c=a.shift());x(c,"translate(")&&(c=A(c.substring(10)),b[13]=c[0],b[14]=t(c[1])?c[1]:0)}}}function Z(a){this.l=a;this.A=[];this.C=[];this.v=0;this.s=this.a=this.c=null;this.h=this.f=this.g=0;this.b=1;this.i=this.F=
this.o=!1}function J(a,b,c){b=a[b];void 0===b&&(b=a[c]);return b}function ha(a){return Array.isArray(a)?a:x(a,"cubic-bezier(")?(a=a.substring(13,a.length-1).split(","),[1,parseFloat(a[0]),parseFloat(a[1]),parseFloat(a[2]),parseFloat(a[3])]):x(a,"steps(")?(a=a.substring(6,a.length-1).split(","),[a[1]&&"start"==a[1].trim()?2:3,parseFloat(a[0])]):[0]}function ia(a){a=a.trim();return x(a,"#")?(parseInt(a.substring(1),16)<<8)+255:x(a,"rgba(")?(a=a.substring(5,a.length-1),a=a.split(","),(parseInt(a[0],
10)<<24)+(parseInt(a[1],10)<<16)+(parseInt(a[2],10)<<8)+255*parseFloat(a[3])<<0):a}function aa(a){!1===a.i&&(w.push(a),a.i=!0,!1!==a.l.autoplay&&a.play());return this}function P(a){if(!0===a.i){a._cancel();var b=w.indexOf(a);-1<b&&w.splice(b,1);b=I.indexOf(a);-1<b&&I.splice(b,1);a.i=!1}return this}var Q=Error("Not in timeline list"),ba="mpath posX posY    rotate skewX skewY  scaleX scaleY  anchorX anchorY".split(" "),ja=" translate translate    rotate skewX skewY  scale scale  translate translate".split(" "),
T="none url blur brightness contrast drop-shadow grayscale hue-rotate invert opacity saturate sepia".split(" "),M=window.requestAnimationFrame||window.webkitRequestAnimationFrame||window.mozRequestAnimationFrame||window.oRequestAnimationFrame||window.msRequestAnimationFrame||null;M||(M=function(a){window.setTimeout(a,16)});var S={d:97,fill:48,fillOpacity:16,filter:80,height:33,opacity:16,offsetDistance:33,stroke:48,strokeDasharray:64,strokeDashoffset:32,strokeOpacity:16,strokeWidth:32,transform:1,
width:33},ca=window.getComputedStyle(document.documentElement),E=!1,v=(new Date).getTime(),u,V=0,w=[],I=[];Z.prototype={B:function(a){var b=0;if(null!==this.c){var c=this.j();0<this.b&&null!==c&&c>=this.f?this.h?(this.c=v-this.g/this.b,this.h--,b=2):(b=1,a?this.a=c:this.a=this.s?Math.max(this.s,this.f):this.f):0>this.b&&null!==c&&c<=this.g?this.h&&Infinity!=this.f?(this.c=v-this.f/this.b,this.h--,b=2):(this.h=0,b=1,a?this.a=c:this.a=this.s?Math.min(this.s,this.g):this.g):null!==c&&0!=this.b&&(a&&
null!==this.a&&(this.c=v-this.a/this.b),this.a=null)}this.s=this.j();return b},J:function(a){a&&(this.o&&(this.o=!1,null===this.c&&(0!=this.b&&null!==this.a?(this.c=v-this.a/this.b,this.a=null):this.c=v)),null===this.a&&null!==this.c&&(a=this.B(!1),0!=a&&I.push([this,a])));a=this.j();if(null===a)return!1;for(var b=this.A,c=this.C,d=0;d<b.length;++d){for(var e=b[d],n=!1,l=0;l<c[d].length;++l){var f=c[d][l],h=f[0];if(null!==h){var g=f[2];var q=f[4].length,m=f[4][q-1]-g;g=0==m?f[5][q-1]:a<=g?f[5][0]:
a>=g+f[3]?0==f[3]%m?f[5][q-1]:U(f[3]%m,f):U((a-g)%m,f);0==h?(e._ks.mpath=f[8],e._ks.transform[h]=g,n=!0):14>=h?(e._ks.transform[h]=g,n=!0):(g=ea(f[1]&240,g),f[1]&1?e.setAttribute(h,g):e.style[h]=g)}}if(n){Y(e);n=e._ks.transform;l="";if(f=e._ks.mpath)g=n[0],0>g&&(g=0),100<g&&(g=100),g=g*f[2]/100,h=f[1].getPointAtLength(g),l="translate("+h.x+","+h.y+") ",f[0]&&(.5>g?(g=h,h=f[1].getPointAtLength(.5)):g=f[1].getPointAtLength(g-.5),l+="rotate("+180*Math.atan2(h.y-g.y,h.x-g.x)/Math.PI+") ");for(f=1;f<n.length;++f)h=
n[f],h!=(10==f||11==f?1:0)&&(l+=" "+ja[f]+"(",l=2>=f?l+(1==f?h+",0":"0,"+h):13<=f?l+(13==f?h+",0":"0,"+h):10<=f?l+(10==f?h+",1":"1,"+h):l+h,l+=")");e.setAttribute("transform",l)}}return"running"==this.m()},I:function(){!1!==this.l.autoremove&&"finished"==this.m()&&P(this)},D:function(){if(!this.F){this.F=!0;for(var a=this.A,b=this.C,c=0;c<a.length;++c)for(var d=a[c],e=0;e<b[c].length;++e)14>=b[c][e][0]&&Y(d)}},u:function(a){if("number"==typeof a)return a;if(!t(this.l.markers)||!t(this.l.markers[a]))throw Error("Invalid marker: "+
a);return+this.l.markers[a]},play:function(a){t(a)&&null!==a&&(a=this.u(a),H(a),0>this.b&&a<this.g&&(a=this.g),0<this.b&&a>this.f&&(a=this.f),this.w(a,!0));if(!this.i)throw Q;a=this.j();if(0<this.b&&(null===a||a>=this.f))this.a=this.g;else if(0>this.b&&(null===a||a<=this.g)){if(Infinity==this.f)throw Error("Cannot seek to Infinity");this.a=this.f}else 0==this.b&&null===a&&(this.a=this.g);if(null===this.a)return this;this.c=null;this.o=!0;this.D();N();return this},pause:function(a){if(!this.i)throw Q;
t(a)&&(a=this.u(a),H(a));if("paused"!=this.m()){L();var b=this.j();if(null===b)if(0<=this.b)this.a=this.g;else{if(Infinity==this.f)throw Error("Cannot seek to Infinity");this.a=this.f}null!==this.c&&null===this.a&&(this.a=b);this.c=null;this.o=!1;this.B(!1);this.D();N()}t(a)&&this.w(a,!0);return this},range:function(a,b){if(0==arguments.length)return{"in":this.g,out:this.f};var c=this.u(a),d=this.v;t(b)&&(d=this.u(b));H(c);if(0>c||0>d||c>=d||isNaN(d))throw Error("Invalid range");var e=this.m();this.g=
c;this.f=d;"finished"==e&&"running"==this.m()&&this.play();return this},loop:function(a){if(!t(a))return{count:this.h};this.h=!0===a?Infinity:Math.floor(a);if(0>this.h||isNaN(this.h))this.h=0;return this},j:function(){return null!==this.a?this.a:null===this.c?null:(v-this.c)*this.b},w:function(a,b){b&&L();null!==a&&(this.D(),null!==this.a||null===this.c||0==this.b?(this.a=a,O(!1)):this.c=v-a/this.b,this.i||(this.c=null),this.s=null,this.B(!0),N())},G:function(){return this.j()},time:function(a){if(t(a)){if(!this.i)throw Q;
a=this.u(a);H(a);this.w(a,!0);return this}return this.G()},m:function(){var a=this.j();return this.o?"running":null===a?"idle":null===this.c?"paused":0<this.b&&a>=this.f||0>this.b&&a<=this.g?"finished":"running"},state:function(){return this.m()},duration:function(){return this.v},H:function(a){H(a);L();var b=this.j();this.b=a;null!==b&&this.w(b,!1)},rate:function(a){return t(a)?(this.H(a),this):this.b},marker:function(a){return t(this.l.markers)?this.l.markers[a]:void 0},_cancel:function(){if(!this.i||
"idle"==this.m())return this;this.c=this.a=null;this.o=!1;return this}};return{version:"1.1.0",animate:function(){var a={};if(1==arguments.length%2){a=arguments[arguments.length-1];var b={};for(c in a)b[c]=a[c];a=b}var c=new Z(a);a=arguments;for(var d=b=0;d<a.length-1;d+=2){var e=a[d];var n=e instanceof Element?e:document.getElementById(e.substring(1));if(!n)throw Error("Invalid target: "+e);e=n;n=a[d+1];e._ks||(e._ks={});for(var l=[],f=0;f<n.length;++f){var h=n[f],g=J(h,"p","property");if("string"!=
typeof g||-1!=g.indexOf("-")||""===g||!(0<S[g]||0<=ba.indexOf(g)))throw Error("Invalid property: "+g);var q=ba.indexOf(g);""!==g&&0<=q&&(g=q);q=R(g);var m=J(h,"t","times");if(!m||2>m.length)throw Error("Not enough times");m=m.slice();if(!isFinite(m[0])||0>m[0])throw Error("Invalid time: "+m[0]);for(var B=1;B<m.length;++B)if(!isFinite(m[B])||0>m[B]||m[B]<m[B-1])throw Error("Invalid time: "+m[B]);B=m[0];var v=m[m.length-1]-B,y=h.iterations||0;1>y&&(y=1);v*=y;b<v+B&&(b=v+B);var u=J(h,"v","values");if(!u||
u.length!=m.length)throw Error("Values do not match times");u=u.slice();for(var C=g,k=u,w=R(C)&240,p=0;p<k.length;++p)if(96==w){for(var G=k[p].substring(6,k[p].length-2).match(/[A-DF-Za-df-z][-+0-9eE., ]*/ig),A=[],r=0;r<G.length;++r){A.push(G[r][0]);for(var z=1<G[r].trim().length?G[r].substring(1).split(","):[],F=0;F<z.length;++F)z[F]=parseFloat(z[F]);A.push(z)}k[p]=A}else if(48==w)x(k[p],"#")?(G=9==k[p].length,k[p]=parseInt(k[p].substring(1),16),G||(k[p]=256*k[p]|255)):x(k[p],"url(")||"none"==k[p]||
(console.warn("unsupported color: "+k[p]),k[p]=0);else if(80==w){G=k;A=p;r=k[p];if("none"==r)r=[0];else{z=[];for(var D=r.indexOf("(");0<D;)if(F=T.indexOf(r.substring(0,D)),0<=F){z.push(F);var E=r.indexOf(") ");0>E&&(E=r.length-1);D=r.substring(D+1,E).split(" ");5==F?(z.push(parseFloat(D[0])),z.push(parseFloat(D[1])),z.push(parseFloat(D[2])),z.push(ia(D[3]))):1==F?z.push(D[0]):z.push(parseFloat(D[0]));r=r.substring(E+1).trim();D=r.indexOf("(")}else break;r=z}G[A]=r}else 64==w?"none"!=k[p]?/^[0-9 .]*$/.test(k[p])?
k[p]=X(k[p]," "):(console.warn("unsupported value: "+k[p]),k[p]=[0]):k[p]=[0]:32==w?(H(k[p]),k[p]=parseFloat(k[p])):0===C&&(k[p]=parseFloat(k[p]));C=J(h,"e","easing");k=m.length;for(C||(C=[]);C.length<k;)C.push([1,0,0,.58,1]);for(k=0;k<C.length;++k)C[k]=ha(C[k]);q=[g,q,B,v,m,u,C,y];m=J(h,"mp","motionPath");t(m)&&0===g&&(q[8]=[],q[8][0]=h.motionRotate,h=document.createElementNS("http://www.w3.org/2000/svg","path"),m||(m="M0,0"),h.setAttribute("d",m),q[8][1]=h,q[8][2]=h.getTotalLength());l.push(q)}0<
l.length&&(c.A.push(e),c.C.push(l))}c.v=b;c.g=0;c.f=c.v;aa(c);return c},add:aa,remove:P,removeAll:function(){for(var a=w.length-1;0<=a;--a)P(w[a]);return this},timelines:function(){return w.slice()},globalPlay:function(){u&&(V=u-(new Date).getTime(),u=void 0,N());return this},globalPause:function(){u||(u=v,O(!1));return this},globalState:function(){return u?"paused":"running"}}}();
]]></script><script><![CDATA[if(KeyshapeJS.version.indexOf('1.')!=0)throw Error('Expected KeyshapeJS v1.*.*');window.ks=document.ks=KeyshapeJS;(function(ks){
ks.animate("#anime-block-13",[{p:'opacity',t:[300,500],v:[1,0],e:[[1,.4,0,.6,1],[0]]}],
"#anime-block-15",[{p:'opacity',t:[800,1000,2000,2200,9800,10000,10800,11000],v:[0,1,1,0,0,1,1,0],e:[[1,.4,0,.6,1],[1,.4,0,.6,1],[1,.4,0,.6,1],[1,.4,0,.6,1],[1,.4,0,.6,1],[1,.4,0,.6,1],[1,.4,0,.6,1],[0]]}],
"#anime-block-17",[{p:'opacity',t:[2600,2800,3700,3900,8000,8200,9000,9200],v:[0,1,1,0,0,1,1,0],e:[[1,.4,0,.6,1],[1,.4,0,.6,1],[1,.4,0,.6,1],[1,.4,0,.6,1],[1,.4,0,.6,1],[1,.4,0,.6,1],[1,.4,0,.6,1],[0]]}],
"#anime-block-18",[{p:'opacity',t:[4400,4600,5400,5600],v:[0,1,1,0],e:[[1,.4,0,.6,1],[1,.4,0,.6,1],[1,.4,0,.6,1],[0]]}],
"#anime-block-12",[{p:'opacity',t:[6200,6400,6900,7100,11600,11800,12600,12800,13400,13600,14500,14700],v:[0,1,1,0,0,1,1,0,0,1,1,0],e:[[1,.4,0,.6,1],[1,.4,0,.6,1],[1,.4,0,.6,1],[1,.4,0,.6,1],[1,.4,0,.6,1],[1,.4,0,.6,1],[1,.4,0,.6,1],[1,.4,0,.6,1],[1,.4,0,.6,1],[1,.4,0,.6,1],[1,.4,0,.6,1],[0]]}],
"#anime-block-5",[{p:'mpath',t:[7600,7800,8600],v:['0%','24.3%','100%'],e:[[1,.4,0,.6,1],[1,.4,0,.6,1],[0]],mp:"M198.3,-416.5L326.8,-416.5L326.8,-15.5"},{p:'opacity',t:[6900,7100],v:[0,1],e:[[1,.4,0,.6,1],[0]]}],
"#anime-block-9",[{p:'mpath',t:[14900,15000,15900],v:['0%','1.5%','100%'],e:[[1,.4,0,.6,1],[1,.4,0,.6,1],[0]],mp:"M322.3,-303.5L326.8,-303.5L326.8,-15.5"},{p:'opacity',t:[14500,14700],v:[0,1],e:[[1,.4,0,.6,1],[0]]}],
"#anime-block-8",[{p:'mpath',t:[13000,13200,14000],v:['0%','34.1%','100%'],e:[[1,.4,0,.6,1],[1,.4,0,.6,1],[0]],mp:"M456.3,-265.5L326.8,-265.5L326.8,-15.5"},{p:'opacity',t:[12600,12800],v:[0,1],e:[[1,.4,0,.6,1],[0]]}],
"#anime-block-1",[{p:'mpath',t:[700,1500,1700],v:['0%','85%','100%'],e:[[1,.4,0,.6,1],[1,.4,0,.6,1],[0]],mp:"M400.8,-435.5L400.8,-15.5L326.8,-15.5"},{p:'opacity',t:[300,500],v:[0,1],e:[[1,.4,0,.6,1],[0]]}],
"#anime-block-2",[{p:'mpath',t:[2400,2600,3400],v:['0%','7%','100%'],e:[[1,.4,0,.6,1],[1,.4,0,.6,1],[0]],mp:"M296.8,-417L326.8,-417L326.8,-15.5"},{p:'opacity',t:[2000,2200],v:[0,1],e:[[1,.4,0,.6,1],[0]]}],
"#anime-block-7",[{p:'mpath',t:[11200,11400,12200],v:['0%','14.9%','100%'],e:[[1,.4,0,.6,1],[1,.4,0,.6,1],[0]],mp:"M370.8,-266L326.8,-266L326.8,-15.5"},{p:'opacity',t:[10800,11000],v:[0,1],e:[[1,.4,0,.6,1],[0]]}],
"#anime-block-3",[{p:'mpath',t:[4100,4300,5100],v:['0%','17.5%','100%'],e:[[1,.4,0,.6,1],[1,.4,0,.6,1],[0]],mp:"M229.8,-474L326.8,-474L326.8,-16.5"},{p:'opacity',t:[3700,3900],v:[0,1],e:[[1,.4,0,.6,1],[0]]}],
"#anime-block-6",[{p:'mpath',t:[9400,9600,10400],v:['0%','26.6%','100%'],e:[[1,.4,0,.6,1],[1,.4,0,.6,1],[0]],mp:"M437.8,-322L326.8,-322L326.8,-15.5"},{p:'opacity',t:[9000,9200],v:[0,1],e:[[1,.4,0,.6,1],[0]]}],
"#anime-block-4",[{p:'mpath',t:[5800,6000,6800],v:['0%','19.9%','100%'],e:[[1,.4,0,.6,1],[1,.4,0,.6,1],[0]],mp:"M242.8,-354L326.8,-354L326.8,-15.5"},{p:'opacity',t:[5400,5600],v:[0,1],e:[[1,.4,0,.6,1],[0]]}],
{autoremove:false}).range(0,15900);
if(document.location.search.substr(1).split('&').indexOf('global=paused')>=0)ks.globalPause()})(KeyshapeJS);
]]></script></svg>